<svg width="19" height="21" viewBox="0 0 19 21" fill="none" xmlns="http://www.w3.org/2000/svg">
<path d="M10.0017 8.30398C9.96505 8.30398 9.91002 8.30398 9.86419 8.30398C8.90156 8.26731 8.14062 7.48804 8.14062 6.51625C8.14062 5.52612 8.93824 4.72852 9.92837 4.72852C10.9185 4.72852 11.7161 5.53529 11.7161 6.51625C11.7253 7.48804 10.9643 8.27647 10.0017 8.30398Z" stroke="#006FFD" stroke-width="1.5" stroke-linecap="round" stroke-linejoin="round"/>
<path d="M7.41449 11.0636C6.19517 11.8795 6.19517 13.2088 7.41449 14.0248C8.79884 14.9507 11.0725 14.9507 12.4568 14.0248C13.6761 13.2088 13.6761 11.8795 12.4568 11.0636C11.0725 10.1468 8.80801 10.1468 7.41449 11.0636Z" stroke="#006FFD" stroke-width="1.5" stroke-linecap="round" stroke-linejoin="round"/>
<path d="M15.2518 17.1855H14.555C13.8216 17.1855 13.1248 17.4697 12.6114 17.9831L11.0437 19.5325C10.3286 20.2384 9.16434 20.2384 8.44925 19.5325L6.88152 17.9831C6.36812 17.4697 5.6622 17.1855 4.93794 17.1855H4.25036C2.72849 17.1855 1.5 15.9662 1.5 14.4627V4.45137C1.5 2.94784 2.72849 1.72852 4.25036 1.72852H15.2518C16.7736 1.72852 18.0021 2.94784 18.0021 4.45137V14.4535C18.0021 15.957 16.7736 17.1855 15.2518 17.1855Z" stroke="#23274D" stroke-width="1.5" stroke-miterlimit="10" stroke-linecap="round" stroke-linejoin="round"/>
</svg>