<svg width="644" height="385" viewBox="0 0 644 385" fill="none" xmlns="http://www.w3.org/2000/svg">
<g opacity="0.4" filter="url(#filter0_f_8954_44475)">
<ellipse cx="366.125" cy="320.632" rx="192.763" ry="2.12998" fill="black"/>
<path d="M174.326 320.632C174.344 320.63 174.362 320.628 174.381 320.626C175.033 320.555 176.007 320.485 177.29 320.416C179.855 320.277 183.639 320.143 188.516 320.016C198.269 319.761 212.382 319.532 229.824 319.339C264.706 318.954 312.896 318.715 366.125 318.715C419.355 318.715 467.545 318.954 502.427 319.339C519.868 319.532 533.982 319.761 543.735 320.016C548.611 320.143 552.396 320.277 554.961 320.416C556.244 320.485 557.218 320.555 557.87 320.626C557.889 320.628 557.907 320.63 557.925 320.632C557.907 320.634 557.889 320.636 557.87 320.638C557.218 320.709 556.244 320.779 554.961 320.849C552.396 320.987 548.611 321.121 543.735 321.248C533.982 321.503 519.868 321.733 502.427 321.925C467.545 322.311 419.355 322.549 366.125 322.549C312.896 322.549 264.706 322.311 229.824 321.925C212.382 321.733 198.269 321.503 188.516 321.248C183.639 321.121 179.855 320.987 177.29 320.849C176.007 320.779 175.033 320.709 174.381 320.638C174.362 320.636 174.344 320.634 174.326 320.632Z" stroke="#EDEFF1" stroke-width="0.425996"/>
</g>
<path d="M193.384 88.0387C193.384 81.6864 198.534 76.5368 204.886 76.5368H528.643C534.995 76.5368 540.145 81.6864 540.145 88.0387V310.409C540.145 311.114 539.572 311.687 538.867 311.687H194.662C193.956 311.687 193.384 311.114 193.384 310.409V88.0387Z" fill="#E2E8F0" stroke="#EDEFF1" stroke-width="0.851992"/>
<path d="M195.94 87.6126C195.94 82.9072 199.754 79.0927 204.46 79.0927H529.069C533.774 79.0927 537.589 82.9072 537.589 87.6126V302.315H195.94V87.6126Z" fill="#E2E8F0" stroke="#EDEFF1" stroke-width="1.70398"/>
<rect x="204.885" y="91.0207" width="322.479" height="201.922" fill="white" stroke="#EDEFF1" stroke-width="1.70398"/>
<path d="M151.423 311.261C151.423 310.908 151.709 310.622 152.062 310.622H579.762C580.115 310.622 580.401 310.908 580.401 311.261V312.752H151.423V311.261Z" fill="#E2E8F0"/>
<path d="M151.423 311.261C151.423 310.908 151.709 310.622 152.062 310.622H579.762C580.115 310.622 580.401 310.908 580.401 311.261V312.752H151.423V311.261Z" fill="url(#paint0_linear_8954_44475)"/>
<path d="M151.423 311.261C151.423 310.908 151.709 310.622 152.062 310.622H579.762C580.115 310.622 580.401 310.908 580.401 311.261V312.752H151.423V311.261Z" stroke="#EDEFF1" stroke-width="0.425996"/>
<path d="M156 313.811L153.15 313.178H578.48L571.901 314.505C560.825 316.739 549.554 317.864 538.255 317.864H192.919C180.502 317.864 168.122 316.505 156 313.811Z" fill="#E2E8F0"/>
<path d="M156 313.811L153.15 313.178H578.48L571.901 314.505C560.825 316.739 549.554 317.864 538.255 317.864H192.919C180.502 317.864 168.122 316.505 156 313.811Z" fill="url(#paint1_linear_8954_44475)"/>
<path d="M156 313.811L153.15 313.178H578.48L571.901 314.505C560.825 316.739 549.554 317.864 538.255 317.864H192.919C180.502 317.864 168.122 316.505 156 313.811Z" stroke="#EDEFF1" stroke-width="0.425996"/>
<path d="M336.943 312.752C336.104 312.752 335.563 312.681 335.217 312.564C334.88 312.451 334.746 312.301 334.683 312.143C334.61 311.963 334.611 311.736 334.628 311.422C334.629 311.395 334.63 311.368 334.632 311.34C334.644 311.125 334.657 310.88 334.639 310.622H397.609C397.591 310.88 397.604 311.125 397.616 311.34C397.618 311.368 397.619 311.395 397.621 311.422C397.637 311.736 397.638 311.963 397.566 312.143C397.502 312.301 397.368 312.451 397.032 312.564C396.685 312.681 396.144 312.752 395.305 312.752H336.943Z" fill="#E2E8F0"/>
<path d="M336.943 312.752C336.104 312.752 335.563 312.681 335.217 312.564C334.88 312.451 334.746 312.301 334.683 312.143C334.61 311.963 334.611 311.736 334.628 311.422C334.629 311.395 334.63 311.368 334.632 311.34C334.644 311.125 334.657 310.88 334.639 310.622H397.609C397.591 310.88 397.604 311.125 397.616 311.34C397.618 311.368 397.619 311.395 397.621 311.422C397.637 311.736 397.638 311.963 397.566 312.143C397.502 312.301 397.368 312.451 397.032 312.564C396.685 312.681 396.144 312.752 395.305 312.752H336.943Z" fill="url(#paint2_linear_8954_44475)"/>
<path d="M336.943 312.752C336.104 312.752 335.563 312.681 335.217 312.564C334.88 312.451 334.746 312.301 334.683 312.143C334.61 311.963 334.611 311.736 334.628 311.422C334.629 311.395 334.63 311.368 334.632 311.34C334.644 311.125 334.657 310.88 334.639 310.622H397.609C397.591 310.88 397.604 311.125 397.616 311.34C397.618 311.368 397.619 311.395 397.621 311.422C397.637 311.736 397.638 311.963 397.566 312.143C397.502 312.301 397.368 312.451 397.032 312.564C396.685 312.681 396.144 312.752 395.305 312.752H336.943Z" stroke="#EDEFF1" stroke-width="0.425996"/>
<path fill-rule="evenodd" clip-rule="evenodd" d="M299.881 252.232C297.239 248.85 293.538 247.56 290.384 248.271C287.177 248.994 284.765 251.742 284.765 255.863C284.765 262.208 288.545 266.591 292.988 269.764C290.84 271.717 289.208 273.99 288.234 276.196C288.131 276.429 288.035 276.662 287.947 276.896H275.881C275.286 276.896 274.804 277.379 274.804 277.974C274.804 278.57 275.286 279.053 275.881 279.053H287.338C287.189 279.893 287.154 280.71 287.252 281.48C287.466 283.154 288.32 284.601 289.936 285.411C291.658 286.273 293.316 286.196 294.788 285.511C296.207 284.85 297.404 283.652 298.381 282.345C299.146 281.321 299.815 280.176 300.379 279.053H324.339C324.934 279.053 325.416 278.57 325.416 277.974C325.416 277.379 324.934 276.896 324.339 276.896H301.357C301.733 275.976 302.021 275.149 302.216 274.517C302.701 272.936 303.267 269.911 303.388 266.466C303.621 266.393 303.847 266.326 304.065 266.266C305.54 265.862 306.607 265.785 307.306 265.897C307.979 266.005 308.17 266.252 308.241 266.427C308.343 266.677 308.376 267.206 307.998 268.125C307.513 269.307 307.266 270.389 307.5 271.254C307.631 271.736 307.915 272.159 308.365 272.429C308.79 272.684 309.259 272.739 309.667 272.713C310.459 272.664 311.326 272.292 312.124 271.811C312.948 271.314 313.807 270.633 314.601 269.838C315.316 269.122 316.049 268.469 316.739 267.958C317.444 267.435 318.041 267.107 318.487 266.975C318.705 266.91 318.837 266.906 318.903 266.915C318.948 266.92 318.957 266.929 318.962 266.934C319.007 266.977 319.223 267.269 319.223 268.266C319.223 270.115 319.716 271.567 321.044 272.1C321.646 272.341 322.267 272.314 322.792 272.205C323.32 272.095 323.833 271.883 324.282 271.659C324.814 271.392 325.029 270.744 324.764 270.211C324.498 269.679 323.851 269.463 323.319 269.729C322.96 269.909 322.632 270.035 322.352 270.093C322.069 270.152 321.916 270.125 321.844 270.097C321.82 270.087 321.377 269.912 321.377 268.266C321.377 267.107 321.154 266.048 320.451 265.376C319.675 264.634 318.67 264.67 317.874 264.907C317.075 265.144 316.242 265.642 315.458 266.224C314.659 266.816 313.845 267.545 313.078 268.312C312.392 269 311.669 269.567 311.013 269.963C310.863 270.053 310.722 270.132 310.589 270.199C310.065 270.467 309.597 270.052 309.784 269.494C309.839 269.33 309.907 269.149 309.99 268.947C310.46 267.803 310.648 266.626 310.236 265.613C309.793 264.525 308.801 263.952 307.647 263.767C306.518 263.586 305.113 263.743 303.497 264.186C303.465 264.194 303.433 264.203 303.4 264.212C303.295 260.103 302.452 255.523 299.881 252.232ZM299.016 276.896C299.532 275.733 299.919 274.657 300.157 273.882C300.544 272.624 301.023 270.167 301.194 267.276C300.422 267.598 299.593 267.979 298.707 268.423C298 268.777 297.326 269.172 296.686 269.6C296.927 269.744 297.169 269.886 297.414 270.026C297.93 270.322 298.109 270.981 297.814 271.498C297.519 272.015 296.861 272.195 296.345 271.899C295.844 271.612 295.342 271.313 294.843 271.001C292.771 272.782 291.203 274.887 290.282 276.896H299.016ZM289.535 279.053C289.355 279.852 289.309 280.58 289.389 281.207C289.525 282.279 290.02 283.041 290.9 283.481C292.004 284.035 292.972 283.977 293.88 283.554C294.842 283.107 295.782 282.223 296.656 281.053C297.122 280.429 297.552 279.748 297.941 279.053H289.535ZM297.744 266.493C299.007 265.861 300.179 265.341 301.258 264.928C301.257 264.811 301.256 264.694 301.254 264.577C301.188 260.544 300.39 256.384 298.185 253.561C295.981 250.74 293.086 249.873 290.856 250.376C288.679 250.866 286.918 252.702 286.918 255.863C286.918 261.419 290.334 265.338 294.721 268.346C295.658 267.657 296.668 267.032 297.744 266.493Z" fill="#636464"/>
<rect x="252.406" y="112.062" width="149.516" height="10.0285" rx="5.01427" fill="#006FFD"/>
<rect x="248.533" y="136" width="263.569" height="6.12951" rx="3.06475" fill="#D1D6DD"/>
<rect x="239.777" y="154.388" width="244.305" height="6.12951" rx="3.06475" fill="#D1D6DD"/>
<rect x="248.533" y="172.777" width="263.569" height="6.12951" rx="3.06475" fill="#D1D6DD"/>
<rect x="239.777" y="191.166" width="232.046" height="6.12951" rx="3.06475" fill="#D1D6DD"/>
<rect x="245.031" y="213.932" width="156.74" height="6.12951" rx="3.06475" fill="#D1D6DD"/>
<rect x="239.777" y="232.321" width="263.569" height="6.12951" rx="3.06475" fill="#D1D6DD"/>
<rect x="266.082" y="149.442" width="237.038" height="15.4987" fill="#E8178A" fill-opacity="0.24"/>
<rect x="239.644" y="206.878" width="196.924" height="18.2337" fill="#F8C07F" fill-opacity="0.3"/>
<g clip-path="url(#clip0_8954_44475)">
<path d="M322.74 322.382L341.948 328.445C341.948 328.445 392.073 326.038 401.144 328.445C410.169 330.852 422.851 322.058 410.817 307.617C398.83 293.177 381.011 266.888 379.252 266.333C377.493 265.777 333.015 277.302 331.858 280.125C330.701 282.902 322.74 322.382 322.74 322.382Z" fill="#E1ECFB"/>
<path d="M444.651 246.755L420.306 258.465C401.608 249.995 386.01 251.152 386.01 251.152L371.94 272.998L312.651 310.163C297.979 319.096 296.359 325.02 299.923 331.222C303.441 337.424 314.688 332.842 325.888 327.242C337.042 321.642 359.767 305.951 359.675 309.006C359.582 312.061 307.19 340.062 308.162 349.689C308.902 357.141 315.012 363.482 326.629 359.224C333.756 372.322 351.159 367.971 359.675 363.574C376.8 373.571 416.742 356.215 425.258 341.96C433.728 327.705 435.533 320.022 435.533 320.022L470.385 302.758L444.651 246.755Z" fill="#B8D4F7"/>
<path d="M281.872 236.434L317.048 246.431C331.997 236.804 338.662 229.815 354.213 232.731C369.764 235.647 392.952 258.465 403.644 264.158C414.289 269.851 425.536 269.341 428.405 271.193C431.275 273.044 423.777 286.883 408.365 286.003C392.952 285.124 371.94 273.044 371.94 273.044L312.651 310.21C297.192 308.636 286.177 293.779 286.177 293.779L258.453 283.55L281.872 236.434Z" fill="#E1ECFB"/>
<path d="M196.248 195.982L274.189 224.724L241.745 288.225L196.757 277.163L196.248 195.982Z" fill="#B8D4F7"/>
<path d="M286.456 233.703L255.585 296.926C253.364 301.601 247.763 303.545 243.089 301.277C238.414 299.055 236.47 293.455 238.738 288.781L269.609 225.604C271.831 220.929 277.431 218.985 282.106 221.253C286.734 223.475 288.678 229.075 286.456 233.703Z" fill="white"/>
<path d="M273.701 241.525C276.334 241.515 278.459 239.372 278.449 236.739C278.438 234.106 276.296 231.98 273.663 231.991C271.03 232.001 268.904 234.144 268.915 236.777C268.925 239.41 271.068 241.536 273.701 241.525Z" fill="#006FFD"/>
<path d="M527.314 213.94L452.983 238.378L481.216 303.776L528.842 295.399L527.314 213.94Z" fill="#006FFD"/>
<path d="M440.115 246.524L466.867 311.598C468.811 316.365 474.272 318.679 479.039 316.782C483.806 314.838 486.121 309.376 484.223 304.609L457.471 239.488C455.527 234.721 450.066 232.407 445.299 234.305C440.532 236.295 438.217 241.71 440.115 246.524Z" fill="white"/>
<path d="M455.527 254.193C457.629 252.608 458.048 249.619 456.463 247.516C454.879 245.414 451.889 244.995 449.787 246.58C447.685 248.165 447.265 251.154 448.85 253.256C450.435 255.358 453.424 255.778 455.527 254.193Z" fill="#006FFD"/>
<path d="M370.367 333.721C369.904 333.768 369.441 333.536 369.163 333.12C368.793 332.518 368.932 331.731 369.533 331.315C374.393 328.167 377.17 326.085 377.217 326.085C377.818 325.668 378.605 325.807 379.022 326.362C379.438 326.964 379.299 327.751 378.744 328.167C378.698 328.167 375.874 330.25 370.922 333.49C370.783 333.629 370.598 333.675 370.367 333.721Z" fill="#E1ECFB"/>
<path d="M330.563 355.799C330.054 355.845 329.498 355.567 329.267 355.058C328.943 354.41 329.267 353.623 329.915 353.346C340.976 348.208 352.131 342.238 362.961 335.573C363.563 335.203 364.396 335.388 364.766 335.989C365.136 336.591 364.951 337.424 364.35 337.795C353.427 344.506 342.226 350.569 331.026 355.752C330.84 355.706 330.702 355.752 330.563 355.799Z" fill="#E1ECFB"/>
<path d="M362.176 361.584C361.574 361.63 361.019 361.26 360.834 360.658C360.602 359.964 361.019 359.224 361.713 359.038C377.588 354.086 391.335 343.024 392.353 341.405C392.723 340.803 393.556 340.618 394.158 340.988C394.759 341.358 394.945 342.145 394.574 342.747C393.186 345.061 378.699 356.493 362.454 361.538C362.361 361.584 362.269 361.584 362.176 361.584Z" fill="#E1ECFB"/>
</g>
<path d="M622.346 311.689C589.296 311.689 554.735 312.256 521.684 311.878C521.684 278.827 521.307 244.833 519.418 208.005C549.636 207.25 587.03 206.872 624.802 206.494C622.724 243.322 620.647 287.326 622.346 311.689Z" fill="white"/>
<path d="M539.817 312.823C533.773 312.823 527.73 312.823 521.686 312.823C521.12 312.823 520.742 312.445 520.742 311.879C520.742 282.606 520.553 247.289 518.476 208.006C518.476 207.817 518.476 207.439 518.664 207.251C518.853 207.062 519.042 206.873 519.231 206.873C547.56 206.117 581.366 205.929 617.249 205.551H624.615C624.804 205.551 625.181 205.74 625.37 205.928C625.559 206.117 625.559 206.306 625.559 206.684C623.67 242.567 621.404 287.138 623.293 311.69C623.293 311.879 623.293 312.256 623.104 312.445C622.915 312.634 622.726 312.634 622.348 312.823C608.184 312.823 593.642 312.823 579.288 313.012C566.446 312.823 553.037 312.823 539.817 312.823ZM522.63 310.934C541.328 311.123 560.591 310.934 579.477 310.746C593.264 310.746 607.617 310.557 621.404 310.557C619.704 286.005 621.971 242.567 623.67 207.251H617.249C581.744 207.628 548.315 207.817 520.175 208.573C522.253 247.478 522.63 282.039 522.63 310.934Z" fill="#A3AEBB"/>
<path d="M640.669 214.427C592.51 214.427 549.261 215.183 505.635 215.183C526.787 192.519 549.639 167.023 571.169 144.549C593.643 166.646 615.362 192.331 640.669 214.427Z" fill="white"/>
<path d="M505.631 216.316C505.253 216.316 504.875 216.127 504.875 215.749C504.686 215.371 504.875 214.994 505.064 214.805C512.996 206.306 521.306 197.241 529.427 188.364C543.025 173.445 557.189 158.147 570.598 144.171C570.787 143.982 570.976 143.982 571.165 143.982C571.354 143.982 571.731 143.982 571.731 144.171C580.419 152.67 588.918 161.546 597.794 170.989C611.581 185.532 625.745 200.451 641.043 214.049C641.421 214.238 641.421 214.616 641.232 214.994C641.043 215.371 640.665 215.56 640.287 215.56C615.547 215.56 592.128 215.749 569.465 215.938C547.746 216.127 526.783 216.316 505.631 216.316ZM571.165 146.06C557.756 159.847 543.969 174.955 530.56 189.498C523.006 197.807 515.074 206.306 507.708 214.427C528.294 214.427 548.313 214.238 569.654 214.049C591.562 213.86 614.225 213.672 638.021 213.672C623.29 200.64 609.692 186.098 596.472 172.122C587.784 162.868 579.663 154.37 571.165 146.06Z" fill="#A3AEBB"/>
<path d="M588.924 276.185C577.97 276.185 567.016 275.996 556.062 275.996C554.929 264.853 554.363 253.899 554.551 242.756C565.883 242.19 577.215 242.19 589.302 242.756C589.49 253.71 589.49 264.286 588.924 276.185Z" fill="#B8D4F7"/>
<path d="M588.924 277.129L556.062 276.94C555.685 276.94 555.118 276.562 555.118 276.185C553.796 263.531 553.418 252.955 553.607 242.945C553.607 242.379 553.985 242.001 554.551 242.001C565.883 241.435 577.215 241.435 589.302 242.001C589.868 242.001 590.246 242.379 590.246 242.945C590.435 253.522 590.246 264.098 589.868 276.374C589.868 276.751 589.49 277.129 588.924 277.129ZM557.007 275.052L587.98 275.24C588.357 263.72 588.546 253.71 588.357 243.701C576.837 243.134 566.072 243.134 555.496 243.701C555.496 253.144 555.873 263.153 557.007 275.052Z" fill="#006FFD"/>
<path d="M577.417 184.966C573.64 182.51 567.974 183.644 565.33 187.421C562.686 191.198 563.819 197.053 567.407 199.697C570.995 202.341 576.85 201.396 579.494 197.808C582.327 194.031 581.949 187.987 577.417 184.966Z" fill="white"/>
<path d="M572.5 202.152C570.612 202.152 568.534 201.585 567.023 200.452C562.868 197.43 561.735 191.198 564.757 186.854C567.59 182.699 573.822 181.377 577.977 184.21C580.244 185.721 581.566 187.987 582.132 190.631C582.699 193.275 581.943 196.297 580.432 198.374C578.544 200.83 575.522 202.152 572.5 202.152ZM572.878 184.588C570.234 184.588 567.59 185.721 566.268 187.987C564.002 191.387 564.946 196.675 568.156 198.941C571.367 201.396 576.655 200.452 578.921 197.241C580.244 195.542 580.621 193.275 580.244 191.009C579.866 188.743 578.733 187.043 576.844 185.721C575.711 184.965 574.2 184.588 572.878 184.588Z" fill="#006FFD"/>
<path d="M555.299 253.71C555.11 253.71 554.921 253.521 554.921 253.332C554.921 253.143 555.11 252.955 555.299 252.955C566.441 252.766 577.773 252.577 589.104 252.388C589.293 252.388 589.482 252.577 589.482 252.766C589.482 252.955 589.293 253.143 589.104 253.143C577.962 253.143 566.63 253.332 555.299 253.71Z" fill="#006FFD"/>
<path d="M571.919 275.996C571.73 275.996 571.541 275.807 571.541 275.618L572.108 253.144C572.108 252.955 572.296 252.766 572.485 252.766C572.674 252.766 572.863 252.955 572.863 253.144L572.297 275.618C572.108 275.807 572.108 275.996 571.919 275.996Z" fill="#006FFD"/>
<path d="M573.446 201.962C573.257 201.962 573.068 201.773 573.068 201.584C572.879 195.918 572.313 190.064 571.746 184.398C571.746 184.209 571.935 184.02 571.935 184.02C572.124 184.02 572.313 184.209 572.313 184.209C572.879 189.875 573.446 195.73 573.635 201.584C573.635 201.773 573.635 201.962 573.446 201.962Z" fill="#006FFD"/>
<path d="M564.38 192.897C564.191 192.897 564.002 192.708 564.002 192.519C564.002 192.33 564.191 192.141 564.38 192.141L581.377 191.008C581.566 191.008 581.755 191.197 581.755 191.386C581.755 191.575 581.566 191.764 581.377 191.764L564.38 192.897Z" fill="#006FFD"/>
<path d="M522.82 305.457C522.254 305.457 521.876 305.08 521.876 304.513C521.876 303.946 522.254 303.569 522.82 303.569L621.405 302.436C621.972 302.436 622.349 302.813 622.349 303.38C622.349 303.946 621.972 304.324 621.405 304.324L522.82 305.457Z" fill="#006FFD"/>
<g opacity="0.1294">
<path d="M624.623 218.204C624.434 217.826 624.245 217.449 624.056 217.26C624.056 215.938 623.112 214.616 621.601 214.616C618.201 214.993 614.613 214.616 611.214 214.805C607.814 214.805 604.226 215.182 600.826 215.56C600.071 215.56 599.315 215.56 598.56 215.938C597.616 215.938 596.86 215.938 595.916 215.938C590.25 216.127 584.773 215.938 579.108 215.938C570.609 215.938 562.11 216.127 553.611 216.127C548.701 216.127 543.791 215.749 538.88 215.938C533.404 215.938 528.115 216.693 522.639 216.127C519.05 215.749 518.672 221.226 522.261 221.415C528.493 221.981 534.537 221.226 540.769 221.226C553.8 221.792 566.832 221.415 579.863 221.226C585.34 221.226 590.817 221.415 596.294 221.415C603.848 221.792 611.403 222.17 619.146 221.981C619.524 221.981 619.901 221.981 620.09 221.981C620.279 221.981 620.468 221.981 620.657 221.981C621.412 222.17 621.979 221.981 622.734 221.981C624.056 221.037 625 219.526 624.623 218.204Z" fill="#A3AEBB"/>
</g>
<path d="M596.468 121.491C599.356 118.483 602.123 111.022 595.746 102.96C590.091 95.7407 580.825 94.4171 576.132 98.3879C569.033 104.404 557.481 113.79 550.863 120.408C557.12 128.23 563.618 135.931 570.958 143.993C580.103 137.134 588.526 129.673 596.468 121.491ZM587.804 113.67C587.564 113.67 587.203 113.67 586.962 113.67C586.842 113.67 586.842 113.67 586.721 113.67C586.721 113.67 586.721 113.67 586.842 113.67C586.842 113.67 586.842 113.67 586.962 113.67C587.082 113.67 587.082 113.67 586.842 113.67C586.721 113.67 586.601 113.67 586.481 113.67C585.879 113.67 585.398 113.309 584.916 112.948C584.074 112.466 583.472 111.624 582.991 110.782C582.63 110.3 582.389 109.579 582.51 109.097C582.51 108.496 582.75 107.894 583.111 107.292C583.232 107.172 583.232 107.172 583.352 107.052L583.593 106.811C583.833 106.57 583.954 106.33 584.194 106.209C584.676 105.848 585.157 105.608 585.759 105.608C585.879 105.608 585.879 105.608 585.999 105.608C585.999 105.608 586.12 105.608 586.12 105.487C587.203 104.886 588.647 105.487 589.609 106.33C590.331 107.052 590.933 108.014 591.174 109.097C591.294 109.699 591.294 110.18 591.174 110.782C591.174 111.022 591.053 111.263 591.053 111.504C590.933 111.865 590.812 112.105 590.451 112.466C589.73 113.068 588.767 113.549 587.804 113.67Z" fill="#B8D4F7"/>
<path d="M570.965 144.595C570.845 144.595 570.604 144.474 570.484 144.354C562.663 135.69 555.924 127.628 550.389 120.769C550.148 120.529 550.269 120.168 550.389 119.927C555.202 114.994 562.662 108.857 569.16 103.322C571.567 101.396 573.733 99.4712 575.658 97.9069C577.704 96.1019 580.712 95.2596 583.961 95.6206C588.533 96.1019 592.985 98.6288 595.994 102.6C602.852 111.384 599.363 119.085 596.595 121.973C588.654 130.035 580.11 137.615 571.086 144.474C571.326 144.595 571.206 144.595 570.965 144.595ZM551.713 120.529C557.127 127.147 563.505 134.968 571.086 143.271C579.87 136.533 588.293 129.192 596.114 121.251C598.641 118.603 601.769 111.624 595.392 103.442C592.504 99.7118 588.413 97.4256 584.081 96.9442C581.073 96.7036 578.426 97.3052 576.621 98.9898C574.695 100.674 572.53 102.479 570.123 104.525C563.746 109.699 556.526 115.716 551.713 120.529ZM586.969 114.272H586.849C586.728 114.272 586.608 114.272 586.488 114.272C585.886 114.272 585.164 113.911 584.683 113.429C583.961 112.948 583.239 112.106 582.517 111.143C582.276 110.782 581.915 109.94 581.915 108.977C582.036 108.135 582.276 107.413 582.637 106.932C582.757 106.811 582.757 106.811 582.878 106.691C582.998 106.571 582.998 106.45 583.118 106.33C583.359 106.089 583.479 105.849 583.84 105.608C584.442 105.127 585.044 104.886 585.645 104.886H585.766C585.766 104.886 585.766 104.886 585.886 104.886C587.21 104.164 589.015 104.886 590.098 105.849C590.94 106.691 591.542 107.774 591.782 108.857C591.903 109.458 591.903 110.06 591.782 110.662C591.782 110.902 591.662 111.143 591.542 111.504C591.421 111.985 591.18 112.346 590.819 112.707C590.098 113.429 589.135 114.031 588.052 114.272C587.691 114.272 587.33 114.272 586.969 114.272ZM583.84 107.413C583.84 107.413 583.84 107.533 583.72 107.533C583.6 107.654 583.6 107.654 583.479 107.774C583.239 108.135 583.118 108.616 582.998 109.218C582.998 109.579 583.118 110.06 583.359 110.541C583.84 111.384 584.442 112.106 585.164 112.467C585.164 112.467 585.164 112.467 585.284 112.467C585.645 112.828 586.127 112.948 586.488 113.068H586.608C586.728 113.068 586.728 113.068 586.849 113.068H586.969C587.21 113.068 587.45 113.068 587.691 113.068C588.533 112.948 589.376 112.467 589.857 111.865C590.098 111.624 590.218 111.384 590.338 111.143C590.459 110.902 590.459 110.782 590.459 110.541C590.579 110.06 590.579 109.579 590.459 109.097C590.338 108.255 589.857 107.293 589.135 106.691C588.413 105.969 587.21 105.488 586.367 105.969C586.367 105.969 586.367 105.969 586.247 105.969C586.127 105.969 586.127 106.089 586.006 106.089H585.766C585.284 106.089 584.923 106.33 584.562 106.571C584.442 106.691 584.201 106.932 584.081 107.052L583.961 107.172C583.961 107.293 583.84 107.413 583.84 107.413ZM583.84 107.052V107.172V107.052Z" fill="#23274D"/>
<path d="M582.646 127.99C582.646 127.99 582.526 127.99 582.526 127.869L569.29 111.745C569.169 111.625 569.29 111.505 569.29 111.505C569.41 111.384 569.53 111.505 569.53 111.505L582.767 127.629C582.887 127.749 582.767 127.869 582.767 127.869C582.767 127.99 582.767 127.99 582.646 127.99Z" fill="#23274D"/>
<path d="M577.845 131.961C577.845 131.961 577.725 131.961 577.725 131.841C573.393 126.426 568.941 121.011 564.369 115.837C564.248 115.717 564.248 115.596 564.369 115.596C564.489 115.476 564.609 115.476 564.609 115.596C569.182 120.771 573.634 126.185 577.966 131.6C578.086 131.72 577.966 131.841 577.966 131.841C577.966 131.961 577.966 131.961 577.845 131.961Z" fill="#23274D"/>
<path d="M573.37 136.171C573.37 136.171 573.25 136.171 573.25 136.051C568.798 130.516 564.345 125.101 559.773 119.686C559.653 119.566 559.653 119.446 559.773 119.446C559.893 119.325 560.014 119.325 560.014 119.446C564.586 124.74 569.159 130.275 573.49 135.81C573.611 135.931 573.49 136.051 573.49 136.051C573.49 136.051 573.49 136.171 573.37 136.171Z" fill="#23274D"/>
<path d="M609.348 173.957C609.95 173.596 610.191 172.994 610.552 172.392C616.087 160.841 621.622 149.289 627.277 137.738C631.369 138.821 635.821 137.738 638.949 135.09C642.078 132.443 643.883 128.111 643.281 124.02C642.559 118.485 637.746 114.153 632.572 111.987C630.406 111.145 628.12 110.543 625.954 110.664C624.51 110.784 623.066 111.265 621.622 111.987C617.892 113.912 615.124 117.522 614.402 121.613C613.56 125.705 614.763 130.157 617.771 133.767C616.327 136.655 614.883 139.663 613.56 142.671C614.643 143.032 615.605 143.513 617.17 144.235C616.568 145.439 615.966 146.522 615.365 147.725C615.124 148.206 614.763 148.808 614.402 148.928C613.801 149.049 611.394 148.086 610.431 150.131C609.589 151.816 610.311 152.418 612.718 154.102C611.996 155.667 611.875 156.148 611.635 156.509C609.709 156.028 607.904 156.389 607.303 157.592C606.581 159.036 609.228 160.359 609.469 160.961C609.228 161.563 608.747 162.525 608.506 163.127C606.581 162.766 604.896 162.766 604.415 163.849C603.813 165.173 606.34 167.339 606.34 167.579C606.34 167.7 605.377 169.264 605.377 169.986C605.377 171.189 605.498 172.513 606.34 173.475C606.821 174.197 608.265 174.679 609.348 173.957ZM622.224 120.531C624.149 116.56 628.842 116.8 632.211 118.605C634.136 119.568 637.626 122.576 635.339 127.389C632.572 133.285 626.796 131.601 625.593 130.999C621.02 128.713 620.419 124.381 622.224 120.531Z" fill="white"/>
<path d="M608.139 174.919C607.177 174.919 606.094 174.437 605.492 173.595C604.77 172.632 604.409 171.429 604.409 169.745C604.409 169.143 604.77 168.421 605.251 167.699C605.251 167.579 605.372 167.579 605.372 167.458C605.251 167.338 605.251 167.338 605.131 167.218C604.289 166.255 602.845 164.691 603.446 163.367C603.928 162.284 605.492 161.923 607.778 162.284C608.019 161.803 608.26 161.322 608.38 160.84C608.26 160.72 608.139 160.6 608.019 160.479C607.177 159.757 605.612 158.434 606.334 156.99C606.936 155.666 608.741 155.185 610.907 155.546C611.027 155.185 611.268 154.824 611.629 153.981C609.583 152.417 608.621 151.575 609.583 149.529C610.546 147.604 612.591 147.845 613.554 147.965C613.674 147.965 613.915 147.965 614.035 147.965C614.276 147.845 614.517 147.363 614.637 147.123L616.081 144.235C614.998 143.754 614.035 143.272 613.073 142.911C612.952 142.911 612.832 142.791 612.712 142.55C612.591 142.43 612.591 142.189 612.712 142.069C614.035 139.181 615.359 136.293 616.803 133.526C613.915 129.795 612.712 125.343 613.554 121.132C614.396 116.8 617.284 113.07 621.135 111.144C622.579 110.422 624.143 109.941 625.587 109.821C627.633 109.7 629.919 110.061 632.566 111.144C637.379 113.19 642.794 117.522 643.636 123.659C644.238 127.87 642.433 132.322 639.064 135.21C635.815 137.978 631.483 138.94 627.272 138.098L610.786 172.392C610.546 172.993 610.185 173.715 609.463 174.197C609.222 174.678 608.621 174.919 608.139 174.919ZM606.334 163.247C605.492 163.247 604.89 163.487 604.65 163.848C604.409 164.45 605.612 165.894 606.094 166.375C606.455 166.857 606.695 166.977 606.695 167.218C606.695 167.458 606.575 167.579 606.334 168.06C606.094 168.421 605.612 169.263 605.612 169.624C605.612 171.068 605.853 172.031 606.455 172.753C607.056 173.475 608.139 173.836 608.982 173.354C609.463 172.993 609.703 172.512 609.944 171.911L626.67 137.256C626.79 137.015 627.031 136.895 627.392 136.895C631.363 137.857 635.574 136.895 638.582 134.368C641.591 131.841 643.275 127.629 642.794 123.899C642.072 118.244 636.898 114.153 632.446 112.227C630.039 111.265 627.994 110.783 626.068 110.904C624.745 111.024 623.421 111.385 621.977 112.107C618.488 113.912 615.84 117.401 614.998 121.372C614.156 125.343 615.359 129.555 618.247 133.044C618.367 133.165 618.367 133.526 618.367 133.646C617.044 136.293 615.72 139.181 614.396 141.949C615.359 142.31 616.322 142.791 617.405 143.272C617.525 143.393 617.645 143.513 617.645 143.633C617.645 143.754 617.645 143.994 617.645 144.115L615.84 147.604C615.6 148.085 615.118 148.928 614.396 149.048C614.156 149.048 613.915 149.048 613.674 149.048C612.471 148.928 611.388 148.807 610.907 150.011C610.305 151.214 610.546 151.455 612.952 153.259C613.193 153.38 613.193 153.741 613.193 153.981C612.471 155.666 612.351 156.027 612.11 156.388C611.99 156.629 611.749 156.749 611.388 156.749C609.703 156.388 608.139 156.629 607.778 157.471C607.538 158.073 608.5 158.915 609.102 159.517C609.463 159.878 609.824 160.118 609.944 160.359C610.064 160.479 610.064 160.72 609.944 160.84L609.824 161.081C609.583 161.683 609.102 162.525 608.982 163.006C608.861 163.247 608.62 163.367 608.26 163.367C607.417 163.367 606.816 163.247 606.334 163.247ZM628.956 132.202C627.392 132.202 626.068 131.721 625.346 131.48C623.06 130.397 621.496 128.592 620.894 126.546C620.413 124.621 620.653 122.455 621.616 120.289C622.338 118.725 623.541 117.642 625.106 117.161C627.151 116.439 629.919 116.8 632.446 118.123C635.334 119.688 637.981 123.057 635.815 127.629C634.251 130.999 631.724 131.961 629.919 132.202C629.558 132.202 629.317 132.202 628.956 132.202ZM627.512 117.883C626.79 117.883 626.189 118.003 625.587 118.123C624.263 118.484 623.421 119.447 622.699 120.65C621.857 122.455 621.616 124.381 622.097 126.065C622.579 127.87 623.902 129.314 625.948 130.277C626.55 130.517 628.114 130.999 629.798 130.878C631.964 130.638 633.769 129.314 634.852 127.028C637.259 122.094 632.927 119.447 631.964 118.966C630.52 118.244 628.956 117.883 627.512 117.883Z" fill="#23274D"/>
<path d="M631.122 120.168C631.001 120.168 631.002 120.168 630.881 120.168C630.641 120.048 630.4 119.687 630.641 119.446C632.325 115.836 632.445 111.625 631.001 108.255C629.437 104.645 626.188 101.998 622.458 101.517C621.135 101.397 619.691 101.517 618.247 101.637C617.404 101.758 616.442 101.758 615.479 101.878C613.674 101.878 610.425 101.637 608.741 99.1103C608.259 98.3884 608.019 97.6664 607.658 96.9444C607.417 96.2224 607.176 95.6208 606.815 95.0192C605.251 92.7329 601.521 92.7329 599.114 94.1768C596.587 95.7411 595.143 98.5087 593.579 101.276L593.459 101.397C592.015 104.164 590.571 107.172 587.924 109.098C587.683 109.338 587.322 109.218 587.081 108.977C586.841 108.737 586.961 108.376 587.202 108.135C589.608 106.33 591.052 103.563 592.376 100.915L592.496 100.795C594.06 97.7867 595.625 94.8988 598.392 93.2142C601.28 91.4093 605.612 91.4093 607.658 94.4175C608.139 95.1395 608.38 95.8615 608.62 96.5834C608.861 97.3054 609.102 97.907 609.583 98.5087C611.027 100.554 614.155 100.795 615.359 100.795C616.201 100.795 617.164 100.675 618.006 100.554C619.45 100.434 621.014 100.314 622.458 100.434C626.549 100.915 630.28 103.803 631.964 107.894C633.528 111.625 633.408 115.956 631.603 120.048C631.603 120.048 631.362 120.168 631.122 120.168Z" fill="#23274D"/>
<g opacity="0.1294">
<path d="M613.681 120.409C613.561 120.649 613.561 120.89 613.681 121.01C613.801 121.492 614.403 121.732 614.884 121.612C615.486 121.492 616.088 119.566 616.328 119.326C616.449 119.085 617.171 118.363 617.171 118.243C617.291 118.122 617.411 118.002 617.652 117.882C618.133 117.28 618.735 116.799 619.216 116.197C619.938 115.595 620.66 115.114 621.382 114.633C621.382 114.633 621.502 114.633 621.502 114.512C621.623 114.512 621.623 114.392 621.743 114.392C624.511 113.309 625.955 112.707 628.482 112.707C627.76 112.707 628.843 112.707 629.324 112.707C629.324 112.707 629.324 112.707 629.444 112.707C630.287 112.707 631.249 112.948 631.971 112.948C633.295 112.707 633.295 110.782 631.971 110.542C629.926 110.301 628 109.82 625.955 110.301C624.15 110.662 622.345 111.384 620.66 112.347C619.818 112.828 619.096 113.429 618.374 114.031C617.652 114.633 616.93 115.355 616.208 116.077C615.967 116.317 615.727 116.558 615.606 116.919C615.005 117.641 614.523 118.483 614.042 119.326C613.922 119.687 613.801 120.048 613.681 120.409Z" fill="#23274D"/>
</g>
<g opacity="0.1294">
<path d="M551.582 121.371C552.785 122.093 553.146 121.251 553.989 120.649C553.507 121.01 554.109 120.649 554.229 120.409C554.35 120.288 554.951 119.807 555.673 119.085C560.366 115.234 563.495 112.226 567.225 109.098C569.391 107.052 573.001 104.284 574.324 102.961C575.768 101.637 577.332 100.073 579.739 98.7493C580.341 98.5087 581.063 98.268 581.664 98.0274C581.785 98.0274 581.905 98.0274 582.025 97.907C582.146 97.907 582.146 97.907 582.266 97.907C584.071 97.907 584.191 95.3801 582.386 95.3801C581.303 95.5005 580.22 95.8614 579.258 96.4631C579.378 96.4631 579.498 96.3428 579.498 96.3428C577.934 96.9444 576.61 97.907 575.287 98.99C573.602 100.314 572.038 102.119 570.955 102.961C568.548 104.766 567.706 105.849 565.54 107.533C563.374 109.338 561.329 111.143 559.163 112.948C557.237 114.633 555.192 116.197 553.267 118.002C552.906 118.363 552.545 118.724 552.063 119.085C551.823 119.326 551.582 119.446 551.462 119.687C550.98 120.288 551.101 121.01 551.582 121.371Z" fill="#23274D"/>
</g>
<g filter="url(#filter1_d_8954_44475)">
<rect x="44.25" y="28.9824" width="201.123" height="259.948" rx="17.0889" fill="white"/>
<rect x="60.6826" y="153.863" width="73.6135" height="5.25811" rx="2.62905" fill="#D9D9D9"/>
<rect x="60.6826" y="79.9209" width="64.4118" height="2.30042" rx="1.15021" fill="#D9D9D9"/>
<rect x="60.6826" y="123.957" width="64.4118" height="2.30042" rx="1.15021" fill="#D9D9D9"/>
<rect x="60.6826" y="131.188" width="168.259" height="2.30042" rx="1.15021" fill="#D9D9D9"/>
<rect x="60.6826" y="167.008" width="64.4118" height="2.30042" rx="1.15021" fill="#D9D9D9"/>
<rect x="60.6826" y="177.196" width="107.791" height="2.30042" rx="1.15021" fill="#D9D9D9"/>
<rect x="60.6826" y="187.383" width="107.791" height="2.30042" rx="1.15021" fill="#D9D9D9"/>
<rect x="60.6826" y="86.1646" width="174.832" height="2.30042" rx="1.15021" fill="#D9D9D9"/>
<rect x="60.6826" y="92.4084" width="174.832" height="2.30042" rx="1.15021" fill="#D9D9D9"/>
<rect x="60.6826" y="98.6528" width="174.832" height="2.30042" rx="1.15021" fill="#D9D9D9"/>
<rect x="60.6826" y="104.896" width="141.312" height="2.30042" rx="1.15021" fill="#D9D9D9"/>
<path d="M72.0578 56.462H69.6928C69.6253 56.0741 69.501 55.7306 69.3197 55.4312C69.1384 55.1277 68.9129 54.8706 68.6431 54.6598C68.3733 54.449 68.0655 54.2909 67.7198 54.1855C67.3784 54.0759 67.0095 54.0211 66.6132 54.0211C65.9092 54.0211 65.2853 54.1982 64.7415 54.5523C64.1976 54.9022 63.7719 55.4165 63.4641 56.0952C63.1564 56.7697 63.0025 57.5939 63.0025 58.5677C63.0025 59.5584 63.1564 60.3931 63.4641 61.0718C63.7761 61.7463 64.2019 62.2564 64.7415 62.6021C65.2853 62.9436 65.9071 63.1143 66.6069 63.1143C66.9947 63.1143 67.3573 63.0637 67.6945 62.9625C68.036 62.8571 68.3416 62.7033 68.6114 62.5009C68.8855 62.2986 69.1152 62.0498 69.3007 61.7547C69.4904 61.4597 69.6211 61.1224 69.6928 60.743L72.0578 60.7556C71.9692 61.3711 71.7774 61.9487 71.4823 62.4883C71.1914 63.0279 70.8099 63.5043 70.3378 63.9174C69.8656 64.3263 69.3134 64.6467 68.681 64.8786C68.0487 65.1062 67.3467 65.22 66.5753 65.22C65.4371 65.22 64.4211 64.9565 63.5274 64.4296C62.6336 63.9026 61.9296 63.1417 61.4153 62.1468C60.901 61.1519 60.6438 59.9589 60.6438 58.5677C60.6438 57.1723 60.9031 55.9793 61.4216 54.9886C61.9402 53.9937 62.6463 53.2328 63.54 52.7058C64.4337 52.1789 65.4455 51.9154 66.5753 51.9154C67.2962 51.9154 67.9665 52.0166 68.5862 52.2189C69.2059 52.4213 69.7581 52.7185 70.2429 53.1105C70.7277 53.4984 71.1261 53.9747 71.4381 54.5396C71.7542 55.1003 71.9608 55.7411 72.0578 56.462ZM78.3417 65.2327C77.3932 65.2327 76.5712 65.024 75.8756 64.6066C75.18 64.1893 74.6404 63.6054 74.2568 62.855C73.8773 62.1046 73.6876 61.2278 73.6876 60.2245C73.6876 59.2211 73.8773 58.3422 74.2568 57.5876C74.6404 56.833 75.18 56.247 75.8756 55.8296C76.5712 55.4123 77.3932 55.2036 78.3417 55.2036C79.2903 55.2036 80.1123 55.4123 80.8079 55.8296C81.5035 56.247 82.041 56.833 82.4204 57.5876C82.804 58.3422 82.9958 59.2211 82.9958 60.2245C82.9958 61.2278 82.804 62.1046 82.4204 62.855C82.041 63.6054 81.5035 64.1893 80.8079 64.6066C80.1123 65.024 79.2903 65.2327 78.3417 65.2327ZM78.3544 63.3989C78.8687 63.3989 79.2987 63.2576 79.6444 62.9752C79.9901 62.6885 80.2472 62.3049 80.4158 61.8243C80.5887 61.3437 80.6751 60.8083 80.6751 60.2181C80.6751 59.6237 80.5887 59.0862 80.4158 58.6056C80.2472 58.1208 79.9901 57.7351 79.6444 57.4484C79.2987 57.1618 78.8687 57.0184 78.3544 57.0184C77.8274 57.0184 77.389 57.1618 77.0391 57.4484C76.6934 57.7351 76.4341 58.1208 76.2613 58.6056C76.0927 59.0862 76.0084 59.6237 76.0084 60.2181C76.0084 60.8083 76.0927 61.3437 76.2613 61.8243C76.4341 62.3049 76.6934 62.6885 77.0391 62.9752C77.389 63.2576 77.8274 63.3989 78.3544 63.3989ZM87.2278 59.3518V65.043H84.9387V55.3301H87.1267V56.9805H87.2405C87.4639 56.4367 87.8201 56.0046 88.3091 55.6842C88.8024 55.3638 89.4115 55.2036 90.1366 55.2036C90.8069 55.2036 91.3908 55.3469 91.8882 55.6336C92.3899 55.9203 92.7778 56.3355 93.0518 56.8793C93.33 57.4232 93.467 58.0829 93.4628 58.8586V65.043H91.1737V59.2127C91.1737 58.5635 91.0051 58.0555 90.6678 57.6887C90.3348 57.322 89.8732 57.1386 89.283 57.1386C88.8825 57.1386 88.5263 57.2271 88.2143 57.4042C87.9066 57.577 87.6641 57.8279 87.4871 58.1567C87.3142 58.4855 87.2278 58.8839 87.2278 59.3518ZM100.64 55.3301V57.1007H95.0563V55.3301H100.64ZM96.4348 53.003H98.724V62.1215C98.724 62.4293 98.7703 62.6653 98.8631 62.8297C98.96 62.9899 99.0865 63.0995 99.2425 63.1586C99.3985 63.2176 99.5713 63.2471 99.761 63.2471C99.9043 63.2471 100.035 63.2366 100.153 63.2155C100.275 63.1944 100.368 63.1754 100.431 63.1586L100.817 64.9481C100.695 64.9903 100.52 65.0366 100.292 65.0872C100.069 65.1378 99.7947 65.1673 99.4701 65.1758C98.8968 65.1926 98.3804 65.1062 97.9209 64.9165C97.4614 64.7226 97.0967 64.4233 96.8269 64.0186C96.5613 63.6139 96.4306 63.108 96.4348 62.5009V53.003ZM102.554 65.043V55.3301H104.774V56.9489H104.875C105.052 56.3882 105.356 55.9561 105.786 55.6526C106.22 55.3448 106.715 55.191 107.272 55.191C107.398 55.191 107.539 55.1973 107.695 55.2099C107.856 55.2184 107.988 55.2331 108.094 55.2542V57.3599C107.997 57.3262 107.843 57.2967 107.632 57.2714C107.426 57.2419 107.225 57.2271 107.031 57.2271C106.614 57.2271 106.239 57.3178 105.906 57.499C105.577 57.6761 105.318 57.9227 105.128 58.2389C104.938 58.5551 104.844 58.9197 104.844 59.3328V65.043H102.554ZM112.236 65.239C111.62 65.239 111.066 65.1294 110.573 64.9102C110.084 64.6867 109.696 64.3579 109.409 63.9237C109.127 63.4895 108.985 62.9541 108.985 62.3175C108.985 61.7695 109.087 61.3163 109.289 60.958C109.491 60.5997 109.767 60.313 110.117 60.098C110.467 59.883 110.861 59.7207 111.3 59.6111C111.742 59.4973 112.2 59.4151 112.672 59.3645C113.241 59.3054 113.703 59.2528 114.057 59.2064C114.411 59.1558 114.668 59.0799 114.828 58.9787C114.993 58.8733 115.075 58.711 115.075 58.4918V58.4539C115.075 57.9775 114.934 57.6086 114.651 57.3473C114.369 57.0859 113.962 56.9552 113.431 56.9552C112.87 56.9552 112.425 57.0775 112.097 57.322C111.772 57.5665 111.553 57.8553 111.439 58.1883L109.302 57.8848C109.47 57.2946 109.748 56.8013 110.136 56.4051C110.524 56.0046 110.998 55.7053 111.559 55.5071C112.12 55.3048 112.739 55.2036 113.418 55.2036C113.886 55.2036 114.352 55.2584 114.816 55.368C115.279 55.4776 115.703 55.6589 116.087 55.9118C116.47 56.1606 116.778 56.4999 117.01 56.9299C117.246 57.3599 117.364 57.8974 117.364 58.5424V65.043H115.163V63.7087H115.088C114.948 63.9785 114.752 64.2315 114.5 64.4675C114.251 64.6994 113.937 64.887 113.557 65.0303C113.182 65.1694 112.742 65.239 112.236 65.239ZM112.83 63.5569C113.29 63.5569 113.688 63.4663 114.025 63.285C114.362 63.0995 114.622 62.855 114.803 62.5515C114.989 62.248 115.081 61.9171 115.081 61.5587V60.4142C115.01 60.4732 114.887 60.528 114.714 60.5786C114.546 60.6292 114.356 60.6734 114.145 60.7114C113.935 60.7493 113.726 60.783 113.519 60.8125C113.313 60.8421 113.134 60.8674 112.982 60.8884C112.64 60.9348 112.335 61.0107 112.065 61.1161C111.795 61.2215 111.582 61.369 111.426 61.5587C111.27 61.7442 111.192 61.9845 111.192 62.2796C111.192 62.7012 111.346 63.0194 111.654 63.2344C111.962 63.4494 112.354 63.5569 112.83 63.5569ZM123.903 65.2327C122.933 65.2327 122.1 65.0198 121.405 64.594C120.713 64.1682 120.18 63.5801 119.805 62.8297C119.434 62.0751 119.248 61.2067 119.248 60.2245C119.248 59.238 119.438 58.3675 119.818 57.6129C120.197 56.854 120.732 56.2638 121.424 55.8423C122.119 55.4165 122.941 55.2036 123.89 55.2036C124.678 55.2036 125.376 55.349 125.983 55.6399C126.594 55.9266 127.081 56.3334 127.444 56.8604C127.806 57.3831 128.013 57.9944 128.063 58.6942H125.875C125.787 58.2262 125.576 57.8363 125.243 57.5243C124.914 57.2082 124.474 57.0501 123.922 57.0501C123.454 57.0501 123.043 57.1765 122.688 57.4295C122.334 57.6782 122.058 58.0365 121.86 58.5045C121.666 58.9724 121.569 59.5331 121.569 60.1865C121.569 60.8484 121.666 61.4175 121.86 61.8939C122.054 62.366 122.326 62.7307 122.676 62.9878C123.03 63.2408 123.445 63.3672 123.922 63.3672C124.259 63.3672 124.56 63.304 124.826 63.1775C125.096 63.0469 125.321 62.8593 125.502 62.6147C125.684 62.3702 125.808 62.073 125.875 61.7231H128.063C128.009 62.4103 127.806 63.0194 127.456 63.5506C127.106 64.0776 126.63 64.4907 126.027 64.79C125.424 65.0851 124.716 65.2327 123.903 65.2327ZM134.793 55.3301V57.1007H129.21V55.3301H134.793ZM130.588 53.003H132.877V62.1215C132.877 62.4293 132.924 62.6653 133.016 62.8297C133.113 62.9899 133.24 63.0995 133.396 63.1586C133.552 63.2176 133.725 63.2471 133.914 63.2471C134.058 63.2471 134.188 63.2366 134.306 63.2155C134.429 63.1944 134.521 63.1754 134.585 63.1586L134.97 64.9481C134.848 64.9903 134.673 65.0366 134.445 65.0872C134.222 65.1378 133.948 65.1673 133.623 65.1758C133.05 65.1926 132.534 65.1062 132.074 64.9165C131.615 64.7226 131.25 64.4233 130.98 64.0186C130.715 63.6139 130.584 63.108 130.588 62.5009V53.003Z" fill="#636464"/>
<path fill-rule="evenodd" clip-rule="evenodd" d="M92.8193 216.381C90.1775 212.999 86.4761 211.709 83.322 212.42C80.1151 213.143 77.703 215.891 77.703 220.012C77.703 226.357 81.4836 230.74 85.9269 233.913C83.7782 235.866 82.1465 238.139 81.1727 240.345C81.0699 240.578 80.9739 240.811 80.885 241.045H68.819C68.2243 241.045 67.7422 241.528 67.7422 242.123C67.7422 242.719 68.2243 243.202 68.819 243.202H80.2769C80.1279 244.041 80.0925 244.859 80.1908 245.629C80.4042 247.303 81.2583 248.75 82.8749 249.56C84.5969 250.422 86.2542 250.345 87.7265 249.66C89.1455 248.999 90.3426 247.801 91.3192 246.494C92.0847 245.469 92.7535 244.325 93.3172 243.202H117.277C117.872 243.202 118.354 242.719 118.354 242.123C118.354 241.528 117.872 241.045 117.277 241.045H94.2958C94.6718 240.125 94.9599 239.298 95.1542 238.665C95.6398 237.085 96.2055 234.06 96.327 230.615C96.5598 230.542 96.7853 230.475 97.0034 230.415C98.4788 230.011 99.5455 229.933 100.245 230.046C100.918 230.153 101.109 230.401 101.18 230.576C101.282 230.826 101.315 231.355 100.937 232.274C100.451 233.456 100.205 234.538 100.439 235.403C100.569 235.885 100.854 236.308 101.304 236.578C101.729 236.833 102.197 236.888 102.605 236.862C103.398 236.813 104.265 236.441 105.062 235.96C105.886 235.463 106.745 234.782 107.54 233.987C108.254 233.271 108.988 232.618 109.678 232.107C110.382 231.584 110.979 231.256 111.426 231.123C111.643 231.059 111.776 231.055 111.842 231.064C111.887 231.069 111.895 231.078 111.9 231.083C111.946 231.126 112.162 231.417 112.162 232.415C112.162 234.264 112.655 235.716 113.983 236.249C114.585 236.49 115.205 236.463 115.73 236.354C116.259 236.243 116.771 236.032 117.22 235.808C117.752 235.541 117.968 234.893 117.702 234.36C117.436 233.828 116.789 233.612 116.257 233.878C115.899 234.058 115.57 234.184 115.291 234.242C115.008 234.301 114.854 234.274 114.783 234.246C114.759 234.236 114.315 234.061 114.315 232.415C114.315 231.256 114.093 230.197 113.389 229.524C112.614 228.783 111.609 228.818 110.812 229.056C110.014 229.293 109.181 229.791 108.396 230.373C107.598 230.965 106.783 231.694 106.017 232.461C105.331 233.149 104.608 233.716 103.951 234.112C103.802 234.202 103.66 234.28 103.528 234.348C103.003 234.616 102.535 234.201 102.723 233.642C102.778 233.479 102.845 233.298 102.928 233.096C103.399 231.952 103.587 230.775 103.174 229.762C102.732 228.674 101.74 228.101 100.585 227.915C99.4569 227.735 98.0517 227.892 96.4351 228.334C96.4032 228.343 96.3711 228.352 96.3389 228.361C96.2333 224.252 95.3908 219.672 92.8193 216.381ZM91.9543 241.045C92.4709 239.882 92.8578 238.806 93.0958 238.031C93.4823 236.773 93.9619 234.316 94.1328 231.425C93.3607 231.747 92.5313 232.128 91.6452 232.572C90.9387 232.926 90.264 233.321 89.624 233.749C89.8651 233.893 90.1079 234.035 90.352 234.175C90.8683 234.471 91.0476 235.13 90.7525 235.647C90.4574 236.164 89.7995 236.344 89.2832 236.048C88.7826 235.761 88.2807 235.462 87.7816 235.15C85.7095 236.931 84.1416 239.036 83.2202 241.045H91.9543ZM82.4734 243.202C82.2934 244.001 82.2472 244.729 82.3271 245.356C82.4639 246.428 82.9588 247.19 83.8381 247.63C84.9429 248.184 85.9104 248.126 86.8189 247.703C87.7807 247.256 88.7205 246.372 89.5948 245.202C90.0608 244.578 90.4903 243.897 90.8796 243.202H82.4734ZM90.6821 230.642C91.945 230.01 93.1175 229.49 94.1964 229.077C94.1957 228.96 94.1944 228.843 94.1924 228.726C94.1264 224.693 93.3288 220.533 91.1233 217.71C88.9193 214.889 86.025 214.022 83.7948 214.525C81.6175 215.015 79.8567 216.851 79.8567 220.012C79.8567 225.568 83.2723 229.487 87.6595 232.495C88.5966 231.806 89.6069 231.181 90.6821 230.642Z" fill="#636464"/>
</g>
<defs>
<filter id="filter0_f_8954_44475" x="154.618" y="299.758" width="423.014" height="41.7477" filterUnits="userSpaceOnUse" color-interpolation-filters="sRGB">
<feFlood flood-opacity="0" result="BackgroundImageFix"/>
<feBlend mode="normal" in="SourceGraphic" in2="BackgroundImageFix" result="shape"/>
<feGaussianBlur stdDeviation="9.37191" result="effect1_foregroundBlur_8954_44475"/>
</filter>
<filter id="filter1_d_8954_44475" x="0.322443" y="0.558704" width="325.154" height="383.979" filterUnits="userSpaceOnUse" color-interpolation-filters="sRGB">
<feFlood flood-opacity="0" result="BackgroundImageFix"/>
<feColorMatrix in="SourceAlpha" type="matrix" values="0 0 0 0 0 0 0 0 0 0 0 0 0 0 0 0 0 0 127 0" result="hardAlpha"/>
<feOffset dx="18.0878" dy="33.5917"/>
<feGaussianBlur stdDeviation="31.0077"/>
<feComposite in2="hardAlpha" operator="out"/>
<feColorMatrix type="matrix" values="0 0 0 0 0.145104 0 0 0 0 0.286634 0 0 0 0 0.829167 0 0 0 0.1 0"/>
<feBlend mode="normal" in2="BackgroundImageFix" result="effect1_dropShadow_8954_44475"/>
<feBlend mode="normal" in="SourceGraphic" in2="effect1_dropShadow_8954_44475" result="shape"/>
</filter>
<linearGradient id="paint0_linear_8954_44475" x1="151.21" y1="311.687" x2="580.614" y2="311.687" gradientUnits="userSpaceOnUse">
<stop stop-color="#B7C2D0"/>
<stop offset="0.0295345" stop-color="#CAD4DB"/>
<stop offset="0.0625" stop-color="#BECCDE"/>
<stop offset="0.133609" stop-color="#B7C2D0" stop-opacity="0.3"/>
<stop offset="0.865967" stop-color="#B7C2D0" stop-opacity="0.3"/>
<stop offset="0.941937" stop-color="#BECCDE"/>
<stop offset="0.971275" stop-color="#CAD4DB"/>
<stop offset="0.996436" stop-color="#B7C2D0"/>
</linearGradient>
<linearGradient id="paint1_linear_8954_44475" x1="365.912" y1="312.965" x2="365.912" y2="318.077" gradientUnits="userSpaceOnUse">
<stop stop-color="#D1DBE9" stop-opacity="0.6"/>
<stop offset="1" stop-color="#AAB5C6" stop-opacity="0.6"/>
</linearGradient>
<linearGradient id="paint2_linear_8954_44475" x1="340.66" y1="311.961" x2="392.728" y2="311.961" gradientUnits="userSpaceOnUse">
<stop stop-color="#CFD9E7"/>
<stop offset="0.317518" stop-color="#CFD9E7" stop-opacity="0"/>
<stop offset="0.660584" stop-color="#CFD9E7" stop-opacity="0"/>
<stop offset="1" stop-color="#CFD9E7"/>
</linearGradient>
<clipPath id="clip0_8954_44475">
<rect width="332.592" height="172.035" fill="white" transform="translate(196.25 195.982)"/>
</clipPath>
</defs>
</svg>