<svg width="545" height="325" viewBox="0 0 545 325" fill="none" xmlns="http://www.w3.org/2000/svg">
<g opacity="0.4" filter="url(#filter0_f_9005_44710)">
<ellipse cx="310.211" cy="270.788" rx="163.021" ry="1.80133" fill="black"/>
<path d="M148.005 270.788C148.021 270.786 148.036 270.785 148.052 270.783C148.603 270.723 149.427 270.663 150.512 270.605C152.681 270.488 155.882 270.375 160.006 270.267C168.254 270.051 180.19 269.857 194.94 269.694C224.44 269.368 265.195 269.167 310.211 269.167C355.227 269.167 395.982 269.368 425.482 269.694C440.232 269.857 452.168 270.051 460.416 270.267C464.54 270.375 467.741 270.488 469.91 270.605C470.995 270.663 471.819 270.723 472.37 270.783C472.386 270.785 472.401 270.786 472.417 270.788C472.401 270.79 472.386 270.791 472.37 270.793C471.819 270.853 470.995 270.912 469.91 270.971C467.741 271.088 464.54 271.201 460.416 271.309C452.168 271.524 440.232 271.719 425.482 271.882C395.982 272.207 355.227 272.409 310.211 272.409C265.195 272.409 224.44 272.207 194.94 271.882C180.19 271.719 168.254 271.524 160.006 271.309C155.882 271.201 152.681 271.088 150.512 270.971C149.427 270.912 148.603 270.853 148.052 270.793C148.036 270.791 148.021 270.79 148.005 270.788Z" stroke="#EDEFF1" stroke-width="0.360266"/>
</g>
<path d="M164.123 74.0826C164.123 68.7104 168.478 64.3554 173.85 64.3554H447.653C453.025 64.3554 457.38 68.7104 457.38 74.0826V262.142C457.38 262.739 456.896 263.222 456.299 263.222H165.204C164.607 263.222 164.123 262.739 164.123 262.142V74.0826Z" fill="#E2E8F0" stroke="#EDEFF1" stroke-width="0.720533"/>
<path d="M166.285 73.7225C166.285 69.7431 169.511 66.5172 173.49 66.5172H448.013C451.993 66.5172 455.219 69.7431 455.219 73.7225V255.297H166.285V73.7225Z" fill="#E2E8F0" stroke="#EDEFF1" stroke-width="1.44107"/>
<rect x="173.85" y="76.6043" width="272.722" height="170.766" fill="white" stroke="#EDEFF1" stroke-width="1.44107"/>
<path d="M128.636 262.862C128.636 262.564 128.878 262.322 129.177 262.322H490.884C491.182 262.322 491.424 262.564 491.424 262.862V264.123H128.636V262.862Z" fill="#E2E8F0"/>
<path d="M128.636 262.862C128.636 262.564 128.878 262.322 129.177 262.322H490.884C491.182 262.322 491.424 262.564 491.424 262.862V264.123H128.636V262.862Z" fill="url(#paint0_linear_9005_44710)"/>
<path d="M128.636 262.862C128.636 262.564 128.878 262.322 129.177 262.322H490.884C491.182 262.322 491.424 262.564 491.424 262.862V264.123H128.636V262.862Z" stroke="#EDEFF1" stroke-width="0.360266"/>
<path d="M132.507 265.019L130.097 264.484H489.8L484.236 265.606C474.869 267.495 465.337 268.447 455.782 268.447H163.729C153.228 268.447 142.758 267.297 132.507 265.019Z" fill="#E2E8F0"/>
<path d="M132.507 265.019L130.097 264.484H489.8L484.236 265.606C474.869 267.495 465.337 268.447 455.782 268.447H163.729C153.228 268.447 142.758 267.297 132.507 265.019Z" fill="url(#paint1_linear_9005_44710)"/>
<path d="M132.507 265.019L130.097 264.484H489.8L484.236 265.606C474.869 267.495 465.337 268.447 455.782 268.447H163.729C153.228 268.447 142.758 267.297 132.507 265.019Z" stroke="#EDEFF1" stroke-width="0.360266"/>
<path d="M285.532 264.124C284.822 264.124 284.364 264.064 284.071 263.965C283.787 263.869 283.673 263.743 283.62 263.608C283.559 263.456 283.559 263.264 283.573 262.998C283.574 262.976 283.576 262.953 283.577 262.93C283.587 262.747 283.598 262.541 283.583 262.322H336.837C336.822 262.541 336.833 262.747 336.843 262.93C336.844 262.953 336.845 262.976 336.847 262.998C336.86 263.264 336.861 263.456 336.8 263.608C336.746 263.743 336.633 263.869 336.348 263.965C336.055 264.064 335.598 264.124 334.888 264.124H285.532Z" fill="#E2E8F0"/>
<path d="M285.532 264.124C284.822 264.124 284.364 264.064 284.071 263.965C283.787 263.869 283.673 263.743 283.62 263.608C283.559 263.456 283.559 263.264 283.573 262.998C283.574 262.976 283.576 262.953 283.577 262.93C283.587 262.747 283.598 262.541 283.583 262.322H336.837C336.822 262.541 336.833 262.747 336.843 262.93C336.844 262.953 336.845 262.976 336.847 262.998C336.86 263.264 336.861 263.456 336.8 263.608C336.746 263.743 336.633 263.869 336.348 263.965C336.055 264.064 335.598 264.124 334.888 264.124H285.532Z" fill="url(#paint2_linear_9005_44710)"/>
<path d="M285.532 264.124C284.822 264.124 284.364 264.064 284.071 263.965C283.787 263.869 283.673 263.743 283.62 263.608C283.559 263.456 283.559 263.264 283.573 262.998C283.574 262.976 283.576 262.953 283.577 262.93C283.587 262.747 283.598 262.541 283.583 262.322H336.837C336.822 262.541 336.833 262.747 336.843 262.93C336.844 262.953 336.845 262.976 336.847 262.998C336.86 263.264 336.861 263.456 336.8 263.608C336.746 263.743 336.633 263.869 336.348 263.965C336.055 264.064 335.598 264.124 334.888 264.124H285.532Z" stroke="#EDEFF1" stroke-width="0.360266"/>
<path fill-rule="evenodd" clip-rule="evenodd" d="M254.189 212.941C251.955 210.082 248.825 208.991 246.157 209.592C243.445 210.203 241.405 212.527 241.405 216.012C241.405 221.378 244.603 225.085 248.36 227.768C246.543 229.42 245.163 231.343 244.34 233.208C244.253 233.405 244.172 233.602 244.096 233.8H233.892C233.389 233.8 232.981 234.208 232.981 234.712C232.981 235.216 233.389 235.624 233.892 235.624H243.582C243.456 236.334 243.426 237.026 243.509 237.677C243.69 239.092 244.412 240.316 245.779 241.001C247.236 241.73 248.637 241.665 249.882 241.085C251.082 240.527 252.095 239.514 252.921 238.408C253.568 237.542 254.134 236.573 254.61 235.624H274.873C275.376 235.624 275.784 235.216 275.784 234.712C275.784 234.208 275.376 233.8 274.873 233.8H255.438C255.756 233.022 256 232.323 256.164 231.788C256.575 230.451 257.053 227.893 257.156 224.979C257.353 224.917 257.543 224.861 257.728 224.81C258.975 224.469 259.878 224.403 260.469 224.498C261.038 224.589 261.2 224.798 261.26 224.946C261.346 225.158 261.374 225.605 261.054 226.383C260.643 227.382 260.435 228.297 260.633 229.028C260.743 229.436 260.984 229.794 261.364 230.022C261.724 230.238 262.12 230.284 262.465 230.263C263.136 230.221 263.869 229.906 264.543 229.499C265.24 229.079 265.967 228.504 266.638 227.831C267.243 227.225 267.863 226.673 268.446 226.241C269.042 225.799 269.547 225.522 269.925 225.409C270.109 225.354 270.221 225.352 270.277 225.359C270.315 225.363 270.322 225.371 270.326 225.375C270.365 225.412 270.547 225.658 270.547 226.501C270.547 228.065 270.964 229.293 272.087 229.744C272.596 229.948 273.121 229.925 273.565 229.833C274.012 229.739 274.446 229.561 274.825 229.371C275.275 229.145 275.458 228.597 275.233 228.147C275.008 227.696 274.461 227.514 274.011 227.739C273.708 227.891 273.43 227.997 273.194 228.046C272.954 228.096 272.824 228.074 272.764 228.05C272.743 228.042 272.369 227.893 272.369 226.501C272.369 225.521 272.18 224.626 271.585 224.057C270.93 223.43 270.08 223.46 269.406 223.66C268.731 223.861 268.026 224.282 267.363 224.774C266.687 225.275 265.998 225.892 265.351 226.541C264.77 227.122 264.159 227.601 263.604 227.936C263.477 228.013 263.358 228.079 263.245 228.136C262.802 228.363 262.406 228.012 262.565 227.54C262.611 227.402 262.668 227.248 262.738 227.077C263.136 226.11 263.295 225.114 262.947 224.258C262.572 223.338 261.733 222.853 260.757 222.696C259.803 222.543 258.614 222.676 257.247 223.051C257.22 223.058 257.193 223.066 257.166 223.073C257.077 219.598 256.364 215.724 254.189 212.941ZM253.458 233.8C253.895 232.816 254.222 231.906 254.423 231.251C254.75 230.187 255.156 228.109 255.3 225.664C254.647 225.937 253.946 226.259 253.196 226.634C252.599 226.933 252.028 227.268 251.487 227.63C251.691 227.752 251.896 227.872 252.103 227.99C252.539 228.24 252.691 228.797 252.441 229.235C252.192 229.672 251.635 229.824 251.199 229.574C250.775 229.331 250.351 229.079 249.929 228.815C248.176 230.321 246.851 232.101 246.071 233.8H253.458ZM245.44 235.624C245.287 236.3 245.248 236.916 245.316 237.446C245.432 238.353 245.85 238.997 246.594 239.369C247.528 239.837 248.346 239.789 249.115 239.431C249.928 239.052 250.723 238.305 251.462 237.315C251.856 236.788 252.22 236.212 252.549 235.624H245.44ZM252.382 225.002C253.45 224.467 254.441 224.028 255.354 223.678C255.353 223.58 255.352 223.481 255.351 223.381C255.295 219.971 254.62 216.453 252.755 214.066C250.891 211.68 248.443 210.947 246.557 211.372C244.716 211.787 243.227 213.339 243.227 216.012C243.227 220.711 246.115 224.025 249.826 226.569C250.618 225.986 251.473 225.458 252.382 225.002Z" fill="#636464"/>
<rect x="214.04" y="94.3995" width="126.447" height="8.48118" rx="4.24059" fill="#006FFD"/>
<rect x="210.764" y="114.643" width="222.901" height="5.18375" rx="2.59187" fill="#D1D6DD"/>
<rect x="203.359" y="130.195" width="206.609" height="5.18375" rx="2.59187" fill="#D1D6DD"/>
<rect x="210.764" y="145.746" width="222.901" height="5.18375" rx="2.59187" fill="#D1D6DD"/>
<rect x="203.359" y="161.297" width="196.242" height="5.18375" rx="2.59187" fill="#D1D6DD"/>
<rect x="207.803" y="180.551" width="132.556" height="5.18375" rx="2.59187" fill="#D1D6DD"/>
<rect x="203.359" y="196.102" width="222.901" height="5.18375" rx="2.59187" fill="#D1D6DD"/>
<rect x="225.604" y="126.012" width="200.464" height="13.1073" fill="#E8178A" fill-opacity="0.24"/>
<rect x="203.245" y="174.585" width="166.539" height="15.4203" fill="#F8C07F" fill-opacity="0.3"/>
<g clip-path="url(#clip0_9005_44710)">
<path d="M273.52 272.268L289.763 277.395C289.763 277.395 332.154 275.36 339.826 277.395C347.459 279.431 358.184 271.994 348.007 259.781C337.869 247.569 322.799 225.336 321.312 224.867C319.824 224.397 282.209 234.143 281.231 236.531C280.252 238.879 273.52 272.268 273.52 272.268Z" fill="#E1ECFB"/>
<path d="M376.621 208.31L356.032 218.213C340.219 211.05 327.028 212.028 327.028 212.028L315.129 230.503L264.988 261.934C252.58 269.489 251.21 274.499 254.224 279.744C257.199 284.989 266.71 281.114 276.182 276.378C285.616 271.641 304.834 258.372 304.756 260.956C304.678 263.539 260.369 287.22 261.191 295.361C261.817 301.663 266.984 307.026 276.809 303.425C282.837 314.502 297.554 310.823 304.756 307.104C319.239 315.559 353.018 300.88 360.22 288.825C367.383 276.769 368.91 270.271 368.91 270.271L398.384 255.671L376.621 208.31Z" fill="#B8D4F7"/>
<path d="M238.958 199.581L268.706 208.036C281.349 199.895 286.985 193.984 300.137 196.45C313.289 198.916 332.899 218.213 341.941 223.028C350.943 227.842 360.455 227.411 362.882 228.977C365.308 230.543 358.967 242.246 345.933 241.503C332.899 240.759 315.128 230.543 315.128 230.543L264.988 261.974C251.914 260.643 242.598 248.078 242.598 248.078L219.152 239.428L238.958 199.581Z" fill="#E1ECFB"/>
<path d="M166.546 165.371L232.461 189.678L205.022 243.381L166.976 234.026L166.546 165.371Z" fill="#B8D4F7"/>
<path d="M242.834 197.272L216.726 250.74C214.848 254.693 210.111 256.337 206.158 254.419C202.205 252.54 200.561 247.804 202.479 243.851L228.586 190.422C230.465 186.469 235.201 184.825 239.155 186.743C243.069 188.621 244.713 193.358 242.834 197.272Z" fill="white"/>
<path d="M232.048 203.887C234.275 203.878 236.073 202.066 236.064 199.839C236.055 197.613 234.243 195.815 232.016 195.824C229.789 195.833 227.992 197.645 228 199.871C228.009 202.098 229.822 203.896 232.048 203.887Z" fill="#006FFD"/>
<path d="M446.53 180.558L383.668 201.225L407.545 256.533L447.822 249.448L446.53 180.558Z" fill="#006FFD"/>
<path d="M372.783 208.114L395.407 263.147C397.051 267.179 401.67 269.136 405.702 267.531C409.733 265.887 411.69 261.269 410.086 257.237L387.462 202.164C385.818 198.133 381.199 196.175 377.167 197.78C373.136 199.463 371.178 204.043 372.783 208.114Z" fill="white"/>
<path d="M385.819 214.6C387.597 213.26 387.952 210.732 386.612 208.954C385.271 207.176 382.743 206.821 380.965 208.162C379.187 209.502 378.833 212.03 380.173 213.808C381.514 215.586 384.041 215.941 385.819 214.6Z" fill="#006FFD"/>
<path d="M313.798 281.857C313.406 281.896 313.015 281.701 312.78 281.348C312.467 280.84 312.584 280.174 313.093 279.822C317.203 277.16 319.552 275.399 319.591 275.399C320.1 275.047 320.765 275.164 321.117 275.634C321.47 276.143 321.352 276.808 320.883 277.16C320.843 277.16 318.456 278.922 314.268 281.662C314.15 281.779 313.994 281.818 313.798 281.857Z" fill="#E1ECFB"/>
<path d="M280.135 300.528C279.705 300.568 279.235 300.333 279.039 299.902C278.765 299.354 279.039 298.689 279.587 298.454C288.942 294.109 298.375 289.06 307.534 283.423C308.043 283.11 308.748 283.267 309.061 283.776C309.374 284.285 309.218 284.989 308.709 285.302C299.471 290.978 289.999 296.105 280.527 300.489C280.37 300.45 280.253 300.489 280.135 300.528Z" fill="#E1ECFB"/>
<path d="M306.872 305.421C306.363 305.46 305.894 305.147 305.737 304.638C305.541 304.051 305.894 303.425 306.481 303.268C319.906 299.08 331.532 289.725 332.393 288.355C332.706 287.846 333.41 287.69 333.919 288.003C334.428 288.316 334.585 288.982 334.271 289.49C333.097 291.448 320.846 301.116 307.107 305.382C307.029 305.421 306.95 305.421 306.872 305.421Z" fill="#E1ECFB"/>
</g>
<path d="M526.899 263.225C498.948 263.225 469.719 263.704 441.768 263.384C441.768 235.433 441.449 206.684 439.852 175.539C465.407 174.9 497.031 174.58 528.975 174.261C527.218 205.406 525.461 242.621 526.899 263.225Z" fill="white"/>
<path d="M457.103 264.184C451.992 264.184 446.881 264.184 441.77 264.184C441.291 264.184 440.971 263.864 440.971 263.385C440.971 238.629 440.812 208.761 439.055 175.539C439.055 175.38 439.055 175.06 439.214 174.901C439.374 174.741 439.534 174.581 439.694 174.581C463.651 173.942 492.241 173.783 522.588 173.463H528.817C528.977 173.463 529.296 173.623 529.456 173.783C529.616 173.942 529.616 174.102 529.616 174.421C528.018 204.768 526.102 242.462 527.699 263.225C527.699 263.385 527.699 263.705 527.539 263.864C527.379 264.024 527.22 264.024 526.9 264.184C514.921 264.184 502.623 264.184 490.484 264.343C479.623 264.184 468.283 264.184 457.103 264.184ZM442.568 262.587C458.381 262.746 474.672 262.587 490.644 262.427C502.304 262.427 514.442 262.267 526.102 262.267C524.664 241.504 526.581 204.768 528.018 174.901H522.588C492.561 175.22 464.29 175.38 440.492 176.019C442.249 208.921 442.568 238.149 442.568 262.587Z" fill="#A3AEBB"/>
<path d="M542.395 180.97C501.666 180.97 465.09 181.609 428.195 181.609C446.084 162.443 465.41 140.88 483.618 121.874C502.624 140.561 520.992 162.283 542.395 180.97Z" fill="white"/>
<path d="M428.191 182.567C427.872 182.567 427.552 182.407 427.552 182.088C427.393 181.768 427.552 181.449 427.712 181.289C434.42 174.102 441.448 166.435 448.316 158.928C459.816 146.311 471.795 133.373 483.135 121.554C483.295 121.394 483.454 121.394 483.614 121.394C483.774 121.394 484.093 121.394 484.093 121.554C491.44 128.741 498.628 136.248 506.134 144.234C517.794 156.533 529.773 169.15 542.71 180.65C543.03 180.81 543.03 181.129 542.87 181.449C542.71 181.768 542.391 181.928 542.071 181.928C521.148 181.928 501.343 182.088 482.177 182.247C463.809 182.407 446.08 182.567 428.191 182.567ZM483.614 123.151C472.274 134.811 460.614 147.588 449.274 159.887C442.886 166.914 436.177 174.102 429.948 180.97C447.358 180.97 464.288 180.81 482.336 180.65C500.864 180.491 520.03 180.331 540.155 180.331C527.697 169.31 516.197 157.012 505.016 145.193C497.669 137.366 490.801 130.179 483.614 123.151Z" fill="#A3AEBB"/>
<path d="M498.632 233.199C489.369 233.199 480.105 233.039 470.841 233.039C469.883 223.615 469.404 214.352 469.563 204.928C479.147 204.449 488.73 204.449 498.952 204.928C499.112 214.192 499.112 223.136 498.632 233.199Z" fill="#B8D4F7"/>
<path d="M498.633 233.997L470.842 233.837C470.522 233.837 470.043 233.518 470.043 233.199C468.925 222.497 468.605 213.553 468.765 205.088C468.765 204.609 469.085 204.289 469.564 204.289C479.147 203.81 488.73 203.81 498.952 204.289C499.431 204.289 499.751 204.609 499.751 205.088C499.91 214.032 499.751 222.976 499.431 233.358C499.431 233.678 499.112 233.997 498.633 233.997ZM471.64 232.24L497.834 232.4C498.154 222.657 498.313 214.192 498.154 205.727C488.411 205.248 479.307 205.248 470.362 205.727C470.362 213.713 470.682 222.178 471.64 232.24Z" fill="#006FFD"/>
<path d="M488.902 156.054C485.708 153.978 480.916 154.936 478.68 158.13C476.444 161.325 477.402 166.276 480.437 168.512C483.472 170.748 488.423 169.95 490.659 166.915C493.055 163.721 492.735 158.61 488.902 156.054Z" fill="white"/>
<path d="M484.744 170.588C483.147 170.588 481.39 170.109 480.112 169.151C476.599 166.595 475.64 161.325 478.196 157.651C480.592 154.137 485.862 153.019 489.376 155.415C491.293 156.693 492.411 158.609 492.89 160.845C493.369 163.081 492.73 165.637 491.452 167.394C489.855 169.47 487.3 170.588 484.744 170.588ZM485.064 155.734C482.828 155.734 480.592 156.693 479.473 158.609C477.557 161.484 478.355 165.956 481.071 167.873C483.786 169.949 488.258 169.151 490.175 166.436C491.293 164.998 491.612 163.081 491.293 161.165C490.973 159.248 490.015 157.811 488.418 156.693C487.459 156.054 486.182 155.734 485.064 155.734Z" fill="#006FFD"/>
<path d="M470.195 214.191C470.036 214.191 469.876 214.032 469.876 213.872C469.876 213.712 470.036 213.553 470.195 213.553C479.619 213.393 489.202 213.233 498.785 213.073C498.945 213.073 499.105 213.233 499.105 213.393C499.105 213.553 498.945 213.712 498.785 213.712C489.362 213.712 479.779 213.872 470.195 214.191Z" fill="#006FFD"/>
<path d="M484.251 233.039C484.091 233.039 483.932 232.879 483.932 232.719L484.411 213.713C484.411 213.553 484.571 213.393 484.73 213.393C484.89 213.393 485.05 213.553 485.05 213.713L484.571 232.719C484.411 232.879 484.411 233.039 484.251 233.039Z" fill="#006FFD"/>
<path d="M485.543 170.428C485.383 170.428 485.223 170.268 485.223 170.108C485.064 165.317 484.585 160.366 484.105 155.574C484.105 155.414 484.265 155.255 484.265 155.255C484.425 155.255 484.585 155.414 484.585 155.414C485.064 160.206 485.543 165.157 485.703 170.108C485.703 170.268 485.703 170.428 485.543 170.428Z" fill="#006FFD"/>
<path d="M477.875 162.762C477.715 162.762 477.556 162.602 477.556 162.442C477.556 162.282 477.715 162.123 477.875 162.123L492.25 161.164C492.41 161.164 492.569 161.324 492.569 161.484C492.569 161.644 492.41 161.803 492.25 161.803L477.875 162.762Z" fill="#006FFD"/>
<path d="M442.729 257.955C442.25 257.955 441.931 257.635 441.931 257.156C441.931 256.677 442.25 256.357 442.729 256.357L526.103 255.399C526.582 255.399 526.901 255.718 526.901 256.198C526.901 256.677 526.582 256.996 526.103 256.996L442.729 257.955Z" fill="#006FFD"/>
<g opacity="0.1294">
<path d="M528.823 184.164C528.664 183.844 528.504 183.525 528.344 183.365C528.344 182.247 527.545 181.129 526.268 181.129C523.393 181.449 520.358 181.129 517.483 181.289C514.608 181.289 511.574 181.608 508.699 181.928C508.06 181.928 507.421 181.928 506.782 182.247C505.983 182.247 505.345 182.247 504.546 182.247C499.754 182.407 495.122 182.247 490.331 182.247C483.144 182.247 475.956 182.407 468.769 182.407C464.616 182.407 460.463 182.087 456.311 182.247C451.679 182.247 447.207 182.886 442.575 182.407C439.54 182.087 439.221 186.719 442.255 186.879C447.526 187.358 452.637 186.719 457.908 186.719C468.929 187.198 479.949 186.879 490.97 186.719C495.602 186.719 500.234 186.879 504.865 186.879C511.254 187.198 517.643 187.518 524.191 187.358C524.511 187.358 524.83 187.358 524.99 187.358C525.15 187.358 525.309 187.358 525.469 187.358C526.108 187.518 526.587 187.358 527.226 187.358C528.344 186.56 529.143 185.282 528.823 184.164Z" fill="#A3AEBB"/>
</g>
<path d="M505.013 102.374C507.456 99.8295 509.796 93.5202 504.403 86.7021C499.62 80.5964 491.784 79.477 487.815 82.8351C481.811 87.9233 472.042 95.8608 466.445 101.458C471.737 108.072 477.232 114.585 483.44 121.403C491.174 115.603 498.297 109.293 505.013 102.374ZM497.686 95.759C497.483 95.759 497.178 95.759 496.974 95.759C496.872 95.759 496.872 95.759 496.771 95.759C496.771 95.759 496.771 95.759 496.872 95.759C496.872 95.759 496.872 95.759 496.974 95.759C497.076 95.759 497.076 95.759 496.872 95.759C496.771 95.759 496.669 95.759 496.567 95.759C496.058 95.759 495.651 95.4537 495.244 95.1484C494.532 94.7414 494.023 94.029 493.616 93.3167C493.311 92.9096 493.107 92.2991 493.209 91.892C493.209 91.3832 493.412 90.8744 493.718 90.3656C493.819 90.2638 493.819 90.2638 493.921 90.1621L494.125 89.9585C494.328 89.755 494.43 89.5515 494.634 89.4497C495.041 89.1444 495.448 88.9409 495.957 88.9409C496.058 88.9409 496.058 88.9409 496.16 88.9409C496.16 88.9409 496.262 88.9409 496.262 88.8391C497.178 88.3303 498.399 88.8391 499.213 89.5515C499.823 90.162 500.332 90.9762 500.536 91.892C500.638 92.4008 500.638 92.8079 500.536 93.3167C500.536 93.5202 500.434 93.7237 500.434 93.9273C500.332 94.2326 500.231 94.4361 499.925 94.7414C499.315 95.2502 498.501 95.6572 497.686 95.759Z" fill="#B8D4F7"/>
<path d="M483.446 121.912C483.344 121.912 483.14 121.81 483.039 121.709C476.424 114.382 470.725 107.564 466.044 101.763C465.841 101.56 465.943 101.254 466.044 101.051C470.115 96.8785 476.424 91.6886 481.919 87.0075C483.954 85.3793 485.786 83.7511 487.414 82.4282C489.144 80.9017 491.689 80.1894 494.436 80.4947C498.303 80.9017 502.068 83.0388 504.612 86.3969C510.413 93.8256 507.462 100.338 505.121 102.781C498.405 109.599 491.18 116.01 483.547 121.81C483.751 121.912 483.649 121.912 483.446 121.912ZM467.164 101.56C471.743 107.157 477.136 113.771 483.547 120.793C490.976 115.094 498.1 108.886 504.714 102.17C506.851 99.9314 509.497 94.0291 504.104 87.1093C501.661 83.9546 498.201 82.0211 494.538 81.6141C491.994 81.4105 489.755 81.9194 488.229 83.344C486.6 84.7687 484.769 86.2952 482.733 88.0251C477.34 92.4009 471.234 97.4891 467.164 101.56ZM496.98 96.2679H496.878C496.777 96.2679 496.675 96.2679 496.573 96.2679C496.064 96.2679 495.454 95.9626 495.047 95.5556C494.436 95.1485 493.826 94.4362 493.215 93.6221C493.011 93.3168 492.706 92.6045 492.706 91.7904C492.808 91.078 493.011 90.4674 493.317 90.0604C493.418 89.9586 493.418 89.9586 493.52 89.8569C493.622 89.7551 493.622 89.6533 493.724 89.5516C493.927 89.348 494.029 89.1445 494.334 88.941C494.843 88.5339 495.352 88.3304 495.861 88.3304H495.963C495.963 88.3304 495.963 88.3304 496.064 88.3304C497.184 87.7198 498.71 88.3304 499.626 89.1445C500.338 89.8569 500.847 90.7727 501.051 91.6886C501.152 92.1974 501.152 92.7062 501.051 93.215C501.051 93.4186 500.949 93.6221 500.847 93.9274C500.745 94.3344 500.542 94.6397 500.237 94.945C499.626 95.5556 498.812 96.0644 497.896 96.2679C497.591 96.2679 497.285 96.2679 496.98 96.2679ZM494.334 90.4674C494.334 90.4674 494.334 90.5692 494.233 90.5692C494.131 90.671 494.131 90.671 494.029 90.7727C493.826 91.078 493.724 91.4851 493.622 91.9939C493.622 92.2992 493.724 92.7062 493.927 93.1133C494.334 93.8256 494.843 94.4362 495.454 94.7415C495.454 94.7415 495.454 94.7415 495.555 94.7415C495.861 95.0468 496.268 95.1485 496.573 95.2503H496.675C496.777 95.2503 496.777 95.2503 496.878 95.2503H496.98C497.184 95.2503 497.387 95.2503 497.591 95.2503C498.303 95.1485 499.015 94.7415 499.422 94.2327C499.626 94.0291 499.728 93.8256 499.83 93.6221C499.931 93.4186 499.931 93.3168 499.931 93.1133C500.033 92.7062 500.033 92.2992 499.931 91.8921C499.829 91.1798 499.422 90.3657 498.812 89.8569C498.201 89.2463 497.184 88.8392 496.471 89.2463C496.471 89.2463 496.471 89.2463 496.37 89.2463C496.268 89.2463 496.268 89.348 496.166 89.348H495.963C495.555 89.348 495.25 89.5516 494.945 89.7551C494.843 89.8569 494.64 90.0604 494.538 90.1621L494.436 90.2639C494.436 90.3657 494.334 90.4674 494.334 90.4674ZM494.334 90.1621V90.2639V90.1621Z" fill="#23274D"/>
<path d="M493.324 107.869C493.324 107.869 493.223 107.869 493.223 107.768L482.029 94.1313C481.927 94.0296 482.029 93.9278 482.029 93.9278C482.13 93.826 482.232 93.9278 482.232 93.9278L493.426 107.564C493.528 107.666 493.426 107.768 493.426 107.768C493.426 107.869 493.426 107.869 493.324 107.869Z" fill="#23274D"/>
<path d="M489.264 111.228C489.264 111.228 489.162 111.228 489.162 111.126C485.499 106.547 481.733 101.967 477.866 97.5916C477.765 97.4898 477.765 97.3881 477.866 97.3881C477.968 97.2863 478.07 97.2863 478.07 97.3881C481.937 101.764 485.702 106.343 489.366 110.923C489.467 111.024 489.366 111.126 489.366 111.126C489.366 111.228 489.366 111.228 489.264 111.228Z" fill="#23274D"/>
<path d="M485.479 114.789C485.479 114.789 485.377 114.789 485.377 114.687C481.612 110.006 477.847 105.426 473.98 100.847C473.878 100.745 473.878 100.644 473.98 100.644C474.081 100.542 474.183 100.542 474.183 100.644C478.05 105.121 481.917 109.802 485.581 114.483C485.682 114.585 485.581 114.687 485.581 114.687C485.581 114.687 485.581 114.789 485.479 114.789Z" fill="#23274D"/>
<path d="M515.906 146.744C516.415 146.438 516.618 145.93 516.923 145.421C521.605 135.652 526.286 125.882 531.069 116.113C534.528 117.029 538.294 116.113 540.939 113.874C543.585 111.636 545.112 107.972 544.603 104.512C543.992 99.8312 539.922 96.1677 535.546 94.336C533.714 93.6236 531.781 93.1148 529.949 93.2166C528.728 93.3183 527.507 93.7254 526.286 94.336C523.131 95.9642 520.79 99.0171 520.18 102.477C519.468 105.937 520.485 109.702 523.029 112.755C521.808 115.197 520.587 117.741 519.468 120.285C520.383 120.591 521.198 120.998 522.52 121.608C522.012 122.626 521.503 123.542 520.994 124.56C520.79 124.967 520.485 125.475 520.18 125.577C519.671 125.679 517.636 124.865 516.822 126.595C516.109 128.019 516.72 128.528 518.755 129.953C518.145 131.276 518.043 131.683 517.839 131.988C516.211 131.581 514.685 131.886 514.176 132.904C513.565 134.125 515.804 135.245 516.008 135.753C515.804 136.262 515.397 137.076 515.193 137.585C513.565 137.28 512.141 137.28 511.734 138.196C511.225 139.315 513.362 141.147 513.362 141.35C513.362 141.452 512.548 142.775 512.548 143.386C512.548 144.403 512.649 145.523 513.362 146.337C513.769 146.947 514.99 147.354 515.906 146.744ZM526.794 101.561C528.423 98.203 532.391 98.4065 535.241 99.9329C536.869 100.747 539.82 103.291 537.887 107.362C535.546 112.348 530.661 110.923 529.644 110.414C525.777 108.481 525.268 104.818 526.794 101.561Z" fill="white"/>
<path d="M514.883 147.557C514.069 147.557 513.153 147.15 512.645 146.438C512.034 145.624 511.729 144.606 511.729 143.182C511.729 142.673 512.034 142.062 512.441 141.452C512.441 141.35 512.543 141.35 512.543 141.248C512.441 141.146 512.441 141.146 512.339 141.045C511.627 140.23 510.406 138.908 510.915 137.788C511.322 136.872 512.645 136.567 514.578 136.872C514.782 136.465 514.985 136.058 515.087 135.651C514.985 135.549 514.883 135.448 514.782 135.346C514.069 134.735 512.746 133.616 513.357 132.395C513.866 131.275 515.392 130.868 517.224 131.174C517.326 130.868 517.529 130.563 517.834 129.851C516.105 128.528 515.29 127.815 516.105 126.085C516.919 124.457 518.649 124.661 519.463 124.762C519.564 124.762 519.768 124.762 519.87 124.762C520.073 124.661 520.277 124.254 520.379 124.05L521.6 121.608C520.684 121.201 519.87 120.794 519.056 120.488C518.954 120.488 518.852 120.387 518.75 120.183C518.649 120.081 518.649 119.878 518.75 119.776C519.87 117.334 520.989 114.892 522.21 112.551C519.768 109.396 518.75 105.631 519.463 102.069C520.175 98.4059 522.617 95.2513 525.874 93.6231C527.095 93.0125 528.418 92.6054 529.639 92.5037C531.369 92.4019 533.302 92.7072 535.541 93.6231C539.612 95.353 544.191 99.0165 544.903 104.206C545.412 107.768 543.886 111.533 541.036 113.976C538.289 116.316 534.625 117.13 531.064 116.418L517.122 145.42C516.919 145.929 516.613 146.54 516.003 146.947C515.799 147.354 515.29 147.557 514.883 147.557ZM513.357 137.686C512.645 137.686 512.136 137.89 511.932 138.195C511.729 138.704 512.746 139.925 513.153 140.332C513.459 140.739 513.662 140.841 513.662 141.045C513.662 141.248 513.56 141.35 513.357 141.757C513.153 142.062 512.746 142.775 512.746 143.08C512.746 144.301 512.95 145.115 513.459 145.726C513.967 146.336 514.883 146.641 515.596 146.234C516.003 145.929 516.206 145.522 516.41 145.013L530.555 115.706C530.657 115.502 530.86 115.4 531.165 115.4C534.524 116.214 538.085 115.4 540.629 113.263C543.173 111.126 544.598 107.565 544.191 104.41C543.58 99.6271 539.205 96.1671 535.439 94.5389C533.404 93.7248 531.674 93.3178 530.046 93.4196C528.927 93.5213 527.807 93.8266 526.586 94.4372C523.635 95.9636 521.396 98.9147 520.684 102.273C519.971 105.631 520.989 109.193 523.431 112.144C523.533 112.246 523.533 112.551 523.533 112.653C522.414 114.891 521.294 117.334 520.175 119.674C520.989 119.98 521.803 120.387 522.719 120.794C522.821 120.896 522.923 120.997 522.923 121.099C522.923 121.201 522.923 121.404 522.923 121.506L521.396 124.457C521.193 124.864 520.786 125.577 520.175 125.678C519.971 125.678 519.768 125.678 519.564 125.678C518.547 125.577 517.631 125.475 517.224 126.492C516.715 127.51 516.919 127.714 518.954 129.24C519.157 129.342 519.157 129.647 519.157 129.851C518.547 131.275 518.445 131.581 518.242 131.886C518.14 132.089 517.936 132.191 517.631 132.191C516.206 131.886 514.883 132.089 514.578 132.802C514.375 133.311 515.189 134.023 515.697 134.532C516.003 134.837 516.308 135.041 516.41 135.244C516.512 135.346 516.512 135.549 516.41 135.651L516.308 135.855C516.105 136.363 515.697 137.076 515.596 137.483C515.494 137.686 515.29 137.788 514.985 137.788C514.273 137.788 513.764 137.686 513.357 137.686ZM532.488 111.432C531.165 111.432 530.046 111.025 529.435 110.821C527.502 109.905 526.179 108.379 525.67 106.649C525.263 105.021 525.467 103.189 526.281 101.357C526.891 100.034 527.909 99.1183 529.232 98.7112C530.962 98.1006 533.302 98.4059 535.439 99.5253C537.882 100.848 540.121 103.698 538.289 107.565C536.966 110.414 534.829 111.228 533.302 111.432C532.997 111.432 532.794 111.432 532.488 111.432ZM531.267 99.3218C530.657 99.3218 530.148 99.4236 529.639 99.5253C528.52 99.8306 527.807 100.645 527.197 101.662C526.484 103.189 526.281 104.817 526.688 106.242C527.095 107.768 528.214 108.989 529.944 109.803C530.453 110.007 531.776 110.414 533.201 110.312C535.032 110.109 536.559 108.989 537.475 107.056C539.51 102.883 535.846 100.645 535.032 100.238C533.811 99.6271 532.488 99.3218 531.267 99.3218Z" fill="#23274D"/>
<path d="M534.32 101.254C534.218 101.254 534.218 101.254 534.116 101.254C533.913 101.153 533.709 100.847 533.913 100.644C535.338 97.591 535.439 94.0293 534.218 91.1799C532.895 88.127 530.148 85.8883 526.993 85.4812C525.874 85.3794 524.653 85.4812 523.431 85.583C522.719 85.6847 521.905 85.6847 521.091 85.7865C519.564 85.7865 516.817 85.583 515.392 83.4459C514.985 82.8354 514.782 82.2248 514.476 81.6142C514.273 81.0036 514.069 80.4948 513.764 79.986C512.441 78.0525 509.286 78.0525 507.251 79.2737C505.114 80.5966 503.893 82.9371 502.57 85.2777L502.468 85.3794C501.247 87.72 500.026 90.2641 497.787 91.8923C497.584 92.0958 497.278 91.994 497.075 91.7905C496.871 91.587 496.973 91.2817 497.177 91.0782C499.212 89.5517 500.433 87.2112 501.552 84.9724L501.654 84.8706C502.977 82.3266 504.3 79.8843 506.641 78.4596C509.083 76.9331 512.746 76.9331 514.476 79.4772C514.883 80.0878 515.087 80.6984 515.29 81.3089C515.494 81.9195 515.697 82.4283 516.104 82.9371C517.326 84.6671 519.971 84.8706 520.989 84.8706C521.701 84.8706 522.516 84.7689 523.228 84.6671C524.449 84.5653 525.772 84.4636 526.993 84.5653C530.453 84.9724 533.608 87.4147 535.032 90.8746C536.355 94.0293 536.253 97.6927 534.727 101.153C534.727 101.153 534.523 101.254 534.32 101.254Z" fill="#23274D"/>
<g opacity="0.1294">
<path d="M519.57 101.458C519.469 101.661 519.469 101.865 519.57 101.967C519.672 102.374 520.181 102.577 520.588 102.476C521.097 102.374 521.606 100.746 521.809 100.542C521.911 100.339 522.522 99.728 522.522 99.6262C522.623 99.5245 522.725 99.4227 522.929 99.3209C523.336 98.8121 523.845 98.4051 524.252 97.8963C524.862 97.3874 525.473 96.9804 526.083 96.5733C526.083 96.5733 526.185 96.5733 526.185 96.4716C526.287 96.4716 526.287 96.3698 526.389 96.3698C528.729 95.454 529.95 94.9451 532.087 94.9451C531.477 94.9451 532.393 94.9451 532.8 94.9451C532.8 94.9451 532.8 94.9451 532.901 94.9451C533.614 94.9451 534.428 95.1487 535.038 95.1487C536.158 94.9451 536.158 93.3169 535.038 93.1134C533.308 92.9099 531.68 92.5028 529.95 92.9099C528.424 93.2152 526.897 93.8257 525.473 94.6399C524.76 95.0469 524.15 95.5557 523.539 96.0645C522.929 96.5733 522.318 97.1839 521.708 97.7945C521.504 97.998 521.3 98.2016 521.199 98.5068C520.69 99.1174 520.283 99.8298 519.876 100.542C519.774 100.847 519.672 101.153 519.57 101.458Z" fill="#23274D"/>
</g>
<g opacity="0.1294">
<path d="M467.053 102.272C468.071 102.883 468.376 102.17 469.089 101.662C468.681 101.967 469.19 101.662 469.292 101.458C469.394 101.356 469.903 100.949 470.513 100.339C474.482 97.0822 477.128 94.5382 480.282 91.8923C482.114 90.1624 485.167 87.8218 486.286 86.7024C487.508 85.583 488.831 84.2601 490.866 83.1407C491.375 82.9372 491.985 82.7337 492.494 82.5302C492.596 82.5302 492.697 82.5302 492.799 82.4284C492.901 82.4284 492.901 82.4284 493.003 82.4284C494.529 82.4284 494.631 80.2914 493.105 80.2914C492.189 80.3931 491.273 80.6984 490.459 81.2072C490.56 81.2072 490.662 81.1055 490.662 81.1055C489.339 81.6143 488.22 82.4284 487.101 83.3443C485.676 84.4637 484.353 85.9901 483.437 86.7024C481.402 88.2289 480.689 89.1447 478.858 90.5694C477.026 92.0959 475.296 93.6223 473.464 95.1487C471.836 96.5734 470.106 97.8963 468.478 99.4228C468.173 99.7281 467.867 100.033 467.46 100.339C467.257 100.542 467.053 100.644 466.952 100.847C466.544 101.356 466.646 101.967 467.053 102.272Z" fill="#23274D"/>
</g>
<g filter="url(#filter1_d_9005_44710)">
<rect x="38" y="24.1384" width="170.09" height="219.839" rx="14.4521" fill="white"/>
<rect x="51.8975" y="129.75" width="62.2552" height="4.4468" rx="2.2234" fill="#D1D6DD"/>
<rect x="51.8975" y="67.2173" width="54.4733" height="1.94548" rx="0.972738" fill="#D1D6DD"/>
<rect x="51.8975" y="104.459" width="54.4733" height="1.94548" rx="0.972738" fill="#D1D6DD"/>
<rect x="51.8975" y="110.574" width="142.298" height="1.94548" rx="0.972738" fill="#D1D6DD"/>
<rect x="51.8975" y="140.867" width="54.4733" height="1.94548" rx="0.972738" fill="#D1D6DD"/>
<rect x="51.8975" y="149.483" width="91.1595" height="1.94548" rx="0.972738" fill="#D1D6DD"/>
<rect x="51.8975" y="158.099" width="91.1595" height="1.94548" rx="0.972738" fill="#D1D6DD"/>
<rect x="51.8975" y="72.4976" width="147.856" height="1.94548" rx="0.972738" fill="#D1D6DD"/>
<rect x="51.8975" y="77.778" width="147.856" height="1.94548" rx="0.972738" fill="#D1D6DD"/>
<rect x="51.8975" y="83.059" width="147.856" height="1.94548" rx="0.972738" fill="#D1D6DD"/>
<rect x="51.8975" y="88.3392" width="119.508" height="1.94548" rx="0.972738" fill="#D1D6DD"/>
<path d="M61.5175 47.001H59.5174C59.4603 46.673 59.3552 46.3824 59.2019 46.1293C59.0486 45.8726 58.8578 45.6551 58.6296 45.4768C58.4015 45.2986 58.1412 45.1649 57.8489 45.0757C57.5601 44.9831 57.2481 44.9367 56.913 44.9367C56.3176 44.9367 55.79 45.0864 55.3301 45.3859C54.8701 45.6818 54.5101 46.1168 54.2498 46.6908C53.9895 47.2612 53.8594 47.9582 53.8594 48.7818C53.8594 49.6196 53.9895 50.3255 54.2498 50.8995C54.5136 51.4699 54.8737 51.9013 55.3301 52.1937C55.79 52.4825 56.3158 52.6269 56.9077 52.6269C57.2357 52.6269 57.5423 52.5841 57.8275 52.4985C58.1163 52.4094 58.3747 52.2792 58.6029 52.1081C58.8346 51.937 59.029 51.7266 59.1858 51.4771C59.3463 51.2275 59.4568 50.9423 59.5174 50.6214L61.5175 50.6321C61.4426 51.1526 61.2804 51.6411 61.0308 52.0974C60.7848 52.5538 60.4622 52.9566 60.0629 53.306C59.6636 53.6518 59.1965 53.9228 58.6617 54.1189C58.127 54.3114 57.5333 54.4077 56.8809 54.4077C55.9183 54.4077 55.0591 54.1848 54.3033 53.7392C53.5474 53.2935 52.9521 52.65 52.5171 51.8086C52.0821 50.9672 51.8647 49.9583 51.8647 48.7818C51.8647 47.6017 52.0839 46.5927 52.5225 45.7549C52.961 44.9135 53.5581 44.27 54.314 43.8244C55.0698 43.3787 55.9254 43.1559 56.8809 43.1559C57.4906 43.1559 58.0574 43.2414 58.5815 43.4126C59.1056 43.5837 59.5726 43.8351 59.9826 44.1666C60.3926 44.4946 60.7296 44.8975 60.9934 45.3752C61.2608 45.8494 61.4355 46.3913 61.5175 47.001ZM66.8318 54.4184C66.0297 54.4184 65.3345 54.2419 64.7462 53.8889C64.1579 53.536 63.7016 53.0422 63.3772 52.4076C63.0563 51.773 62.8959 51.0314 62.8959 50.1829C62.8959 49.3344 63.0563 48.591 63.3772 47.9529C63.7016 47.3147 64.1579 46.8191 64.7462 46.4662C65.3345 46.1132 66.0297 45.9367 66.8318 45.9367C67.634 45.9367 68.3292 46.1132 68.9175 46.4662C69.5058 46.8191 69.9603 47.3147 70.2812 47.9529C70.6056 48.591 70.7678 49.3344 70.7678 50.1829C70.7678 51.0314 70.6056 51.773 70.2812 52.4076C69.9603 53.0422 69.5058 53.536 68.9175 53.8889C68.3292 54.2419 67.634 54.4184 66.8318 54.4184ZM66.8425 52.8675C67.2775 52.8675 67.6412 52.7481 67.9335 52.5092C68.2258 52.2668 68.4433 51.9423 68.5859 51.5359C68.7321 51.1295 68.8052 50.6767 68.8052 50.1776C68.8052 49.6749 68.7321 49.2203 68.5859 48.8139C68.4433 48.4039 68.2258 48.0777 67.9335 47.8352C67.6412 47.5928 67.2775 47.4716 66.8425 47.4716C66.3969 47.4716 66.0261 47.5928 65.7302 47.8352C65.4379 48.0777 65.2186 48.4039 65.0724 48.8139C64.9298 49.2203 64.8585 49.6749 64.8585 50.1776C64.8585 50.6767 64.9298 51.1295 65.0724 51.5359C65.2186 51.9423 65.4379 52.2668 65.7302 52.5092C66.0261 52.7481 66.3969 52.8675 66.8425 52.8675ZM74.3469 49.4449V54.2579H72.411V46.0437H74.2613V47.4395H74.3576C74.5465 46.9796 74.8478 46.6141 75.2613 46.3432C75.6785 46.0722 76.1936 45.9367 76.8068 45.9367C77.3737 45.9367 77.8675 46.058 78.2882 46.3004C78.7125 46.5428 79.0404 46.894 79.2722 47.3539C79.5075 47.8138 79.6234 48.3718 79.6198 49.0278V54.2579H77.6839V49.3273C77.6839 48.7782 77.5413 48.3486 77.2561 48.0384C76.9744 47.7283 76.584 47.5732 76.0849 47.5732C75.7462 47.5732 75.4449 47.648 75.1811 47.7978C74.9209 47.944 74.7159 48.1561 74.5661 48.4342C74.4199 48.7123 74.3469 49.0492 74.3469 49.4449ZM85.6896 46.0437V47.5411H80.9674V46.0437H85.6896ZM82.1333 44.0757H84.0692V51.7872C84.0692 52.0475 84.1084 52.2472 84.1868 52.3862C84.2688 52.5217 84.3758 52.6144 84.5077 52.6643C84.6396 52.7142 84.7858 52.7392 84.9462 52.7392C85.0674 52.7392 85.178 52.7302 85.2778 52.7124C85.3812 52.6946 85.4596 52.6785 85.5131 52.6643L85.8393 54.1777C85.7359 54.2134 85.588 54.2526 85.3954 54.2954C85.2065 54.3382 84.9747 54.3631 84.7002 54.3702C84.2153 54.3845 83.7786 54.3114 83.39 54.151C83.0014 53.987 82.693 53.7338 82.4648 53.3916C82.2402 53.0493 82.1297 52.6215 82.1333 52.1081V44.0757ZM87.3086 54.2579V46.0437H89.1857V47.4127H89.2713C89.421 46.9386 89.6777 46.5731 90.0413 46.3164C90.4086 46.0562 90.8275 45.926 91.2981 45.926C91.405 45.926 91.5245 45.9314 91.6564 45.9421C91.7919 45.9492 91.9042 45.9617 91.9933 45.9795V47.7603C91.9113 47.7318 91.7812 47.7069 91.6029 47.6855C91.4282 47.6605 91.2589 47.648 91.0949 47.648C90.7419 47.648 90.4246 47.7247 90.1429 47.878C89.8649 48.0277 89.6456 48.2363 89.4852 48.5037C89.3247 48.7711 89.2445 49.0795 89.2445 49.4289V54.2579H87.3086ZM95.4961 54.4237C94.9756 54.4237 94.5068 54.331 94.0896 54.1456C93.6761 53.9567 93.3481 53.6786 93.1056 53.3114C92.8668 52.9442 92.7473 52.4914 92.7473 51.953C92.7473 51.4896 92.8329 51.1063 93.004 50.8033C93.1752 50.5002 93.4087 50.2578 93.7046 50.0759C94.0005 49.8941 94.3338 49.7569 94.7046 49.6642C95.079 49.5679 95.4658 49.4984 95.8651 49.4556C96.3464 49.4057 96.7368 49.3611 97.0363 49.3219C97.3357 49.2791 97.5532 49.215 97.6887 49.1294C97.8277 49.0403 97.8973 48.903 97.8973 48.7176V48.6855C97.8973 48.2827 97.7778 47.9707 97.539 47.7497C97.3001 47.5286 96.9561 47.4181 96.5068 47.4181C96.0327 47.4181 95.6565 47.5215 95.3784 47.7283C95.1039 47.935 94.9185 48.1793 94.8223 48.4609L93.0147 48.2042C93.1573 47.7051 93.3926 47.288 93.7206 46.9528C94.0486 46.6141 94.4497 46.361 94.9239 46.1934C95.3981 46.0223 95.9221 45.9367 96.4961 45.9367C96.8919 45.9367 97.2858 45.9831 97.678 46.0758C98.0702 46.1685 98.4285 46.3218 98.7529 46.5357C99.0773 46.746 99.3376 47.033 99.5337 47.3967C99.7333 47.7603 99.8332 48.2149 99.8332 48.7604V54.2579H97.9721V53.1295H97.908C97.7903 53.3577 97.6245 53.5716 97.4106 53.7713C97.2003 53.9674 96.9347 54.126 96.6138 54.2472C96.2965 54.3649 95.9239 54.4237 95.4961 54.4237ZM95.9988 53.0012C96.3874 53.0012 96.7243 52.9245 97.0095 52.7712C97.2947 52.6144 97.514 52.4076 97.6673 52.1509C97.8242 51.8942 97.9026 51.6143 97.9026 51.3113V50.3433C97.842 50.3933 97.7386 50.4396 97.5924 50.4824C97.4498 50.5252 97.2894 50.5626 97.1111 50.5947C96.9329 50.6268 96.7564 50.6553 96.5817 50.6803C96.407 50.7052 96.2555 50.7266 96.1271 50.7444C95.8384 50.7836 95.5799 50.8478 95.3517 50.9369C95.1235 51.0261 94.9435 51.1509 94.8116 51.3113C94.6797 51.4682 94.6137 51.6714 94.6137 51.9209C94.6137 52.2775 94.7438 52.5466 95.0041 52.7285C95.2644 52.9103 95.5959 53.0012 95.9988 53.0012ZM105.363 54.4184C104.543 54.4184 103.839 54.2383 103.25 53.8782C102.666 53.5182 102.215 53.0208 101.897 52.3862C101.584 51.748 101.427 51.0136 101.427 50.1829C101.427 49.3486 101.587 48.6124 101.908 47.9743C102.229 47.3325 102.682 46.8334 103.266 46.4769C103.855 46.1168 104.55 45.9367 105.352 45.9367C106.019 45.9367 106.609 46.0597 107.122 46.3057C107.639 46.5482 108.051 46.8922 108.358 47.3379C108.664 47.78 108.839 48.2969 108.882 48.8887H107.031C106.956 48.493 106.778 48.1632 106.497 47.8994C106.218 47.632 105.846 47.4983 105.379 47.4983C104.983 47.4983 104.636 47.6053 104.336 47.8192C104.037 48.0295 103.803 48.3326 103.635 48.7283C103.471 49.124 103.389 49.5982 103.389 50.1508C103.389 50.7106 103.471 51.1919 103.635 51.5947C103.799 51.994 104.029 52.3024 104.325 52.5199C104.625 52.7338 104.976 52.8408 105.379 52.8408C105.664 52.8408 105.919 52.7873 106.144 52.6803C106.372 52.5698 106.562 52.4112 106.716 52.2044C106.869 51.9976 106.974 51.7462 107.031 51.4503H108.882C108.835 52.0315 108.664 52.5466 108.368 52.9959C108.072 53.4415 107.669 53.7909 107.16 54.044C106.65 54.2936 106.051 54.4184 105.363 54.4184ZM114.573 46.0437V47.5411H109.851V46.0437H114.573ZM111.017 44.0757H112.953V51.7872C112.953 52.0475 112.992 52.2472 113.07 52.3862C113.152 52.5217 113.259 52.6144 113.391 52.6643C113.523 52.7142 113.669 52.7392 113.83 52.7392C113.951 52.7392 114.061 52.7302 114.161 52.7124C114.265 52.6946 114.343 52.6785 114.397 52.6643L114.723 54.1777C114.619 54.2134 114.471 54.2526 114.279 54.2954C114.09 54.3382 113.858 54.3631 113.584 54.3702C113.099 54.3845 112.662 54.3114 112.274 54.151C111.885 53.987 111.577 53.7338 111.348 53.3916C111.124 53.0493 111.013 52.6215 111.017 52.1081V44.0757Z" fill="#636464"/>
<path fill-rule="evenodd" clip-rule="evenodd" d="M79.076 182.622C76.8418 179.762 73.7115 178.671 71.0441 179.273C68.332 179.884 66.2921 182.208 66.2921 185.693C66.2921 191.059 69.4893 194.766 73.247 197.449C71.4299 199.101 70.05 201.023 69.2264 202.889C69.1395 203.086 69.0583 203.283 68.9831 203.481H58.7789C58.2759 203.481 57.8682 203.889 57.8682 204.393C57.8682 204.897 58.2759 205.305 58.7789 205.305H68.4688C68.3428 206.015 68.3129 206.707 68.396 207.358C68.5765 208.773 69.2988 209.997 70.666 210.682C72.1222 211.411 73.5238 211.346 74.769 210.766C75.969 210.208 76.9815 209.195 77.8073 208.089C78.4548 207.223 79.0203 206.254 79.4971 205.305H99.7602C100.263 205.305 100.671 204.897 100.671 204.393C100.671 203.889 100.263 203.481 99.7602 203.481H80.3247C80.6427 202.703 80.8863 202.003 81.0506 201.468C81.4613 200.131 81.9397 197.574 82.0424 194.66C82.2393 194.598 82.43 194.542 82.6145 194.491C83.8622 194.149 84.7644 194.084 85.3557 194.178C85.9248 194.27 86.0863 194.479 86.1466 194.627C86.2327 194.839 86.2607 195.286 85.941 196.063C85.5302 197.063 85.3219 197.978 85.5198 198.709C85.6302 199.117 85.8708 199.475 86.2511 199.703C86.6108 199.918 87.007 199.965 87.3521 199.943C88.0223 199.901 88.7553 199.587 89.43 199.18C90.1269 198.76 90.8533 198.184 91.5252 197.511C92.1294 196.906 92.7496 196.354 93.3332 195.921C93.9289 195.48 94.4338 195.202 94.8115 195.09C94.9955 195.035 95.1077 195.032 95.1635 195.039C95.2014 195.044 95.2085 195.051 95.2129 195.056C95.2512 195.093 95.4339 195.339 95.4339 196.182C95.4339 197.746 95.8509 198.974 96.9741 199.424C97.4832 199.628 98.0081 199.606 98.4517 199.513C98.8986 199.42 99.3323 199.242 99.7121 199.051C100.162 198.826 100.344 198.278 100.119 197.828C99.8944 197.377 99.3474 197.194 98.8976 197.42C98.5943 197.571 98.3165 197.678 98.0803 197.727C97.8408 197.777 97.711 197.755 97.6507 197.731C97.6302 197.722 97.2553 197.574 97.2553 196.182C97.2553 195.202 97.0669 194.307 96.4721 193.738C95.8163 193.11 94.9662 193.141 94.2925 193.341C93.6175 193.542 92.9131 193.963 92.2496 194.455C91.5741 194.956 90.8852 195.572 90.2372 196.221C89.6569 196.803 89.0456 197.282 88.4903 197.617C88.3639 197.694 88.2443 197.76 88.1322 197.817C87.6885 198.044 87.2928 197.693 87.4515 197.22C87.4978 197.082 87.555 196.929 87.6251 196.758C88.0229 195.791 88.1819 194.795 87.8333 193.938C87.4589 193.018 86.6199 192.534 85.6436 192.377C84.6894 192.224 83.501 192.357 82.1339 192.731C82.1069 192.739 82.0798 192.746 82.0526 192.754C81.9633 189.279 81.2507 185.405 79.076 182.622ZM78.3444 203.481C78.7813 202.497 79.1085 201.587 79.3098 200.932C79.6367 199.868 80.0422 197.79 80.1868 195.345C79.5338 195.617 78.8325 195.939 78.0831 196.315C77.4856 196.614 76.915 196.948 76.3737 197.311C76.5776 197.433 76.7829 197.553 76.9894 197.671C77.426 197.921 77.5777 198.478 77.3281 198.915C77.0785 199.353 76.5222 199.505 76.0855 199.255C75.6621 199.012 75.2377 198.76 74.8156 198.496C73.0632 200.001 71.7372 201.782 70.958 203.481H78.3444ZM70.3264 205.305C70.1742 205.981 70.1351 206.597 70.2027 207.127C70.3184 208.033 70.7369 208.678 71.4805 209.05C72.4149 209.518 73.2331 209.469 74.0014 209.112C74.8149 208.733 75.6096 207.986 76.349 206.996C76.7431 206.469 77.1064 205.893 77.4355 205.305H70.3264ZM77.2685 194.683C78.3366 194.148 79.3282 193.708 80.2406 193.359C80.24 193.26 80.2389 193.161 80.2373 193.062C80.1814 189.652 79.5069 186.134 77.6416 183.746C75.7777 181.361 73.33 180.627 71.4439 181.052C69.6025 181.467 68.1135 183.02 68.1135 185.693C68.1135 190.392 71.0021 193.706 74.7123 196.25C75.5048 195.667 76.3592 195.138 77.2685 194.683Z" fill="#636464"/>
</g>
<defs>
<filter id="filter0_f_9005_44710" x="131.339" y="253.135" width="357.744" height="35.3061" filterUnits="userSpaceOnUse" color-interpolation-filters="sRGB">
<feFlood flood-opacity="0" result="BackgroundImageFix"/>
<feBlend mode="normal" in="SourceGraphic" in2="BackgroundImageFix" result="shape"/>
<feGaussianBlur stdDeviation="7.92586" result="effect1_foregroundBlur_9005_44710"/>
</filter>
<filter id="filter1_d_9005_44710" x="0.850292" y="0.100378" width="274.983" height="324.732" filterUnits="userSpaceOnUse" color-interpolation-filters="sRGB">
<feFlood flood-opacity="0" result="BackgroundImageFix"/>
<feColorMatrix in="SourceAlpha" type="matrix" values="0 0 0 0 0 0 0 0 0 0 0 0 0 0 0 0 0 0 127 0" result="hardAlpha"/>
<feOffset dx="15.2969" dy="28.4086"/>
<feGaussianBlur stdDeviation="26.2233"/>
<feComposite in2="hardAlpha" operator="out"/>
<feColorMatrix type="matrix" values="0 0 0 0 0.145104 0 0 0 0 0.286634 0 0 0 0 0.829167 0 0 0 0.1 0"/>
<feBlend mode="normal" in2="BackgroundImageFix" result="effect1_dropShadow_9005_44710"/>
<feBlend mode="normal" in="SourceGraphic" in2="effect1_dropShadow_9005_44710" result="shape"/>
</filter>
<linearGradient id="paint0_linear_9005_44710" x1="128.456" y1="263.223" x2="491.605" y2="263.223" gradientUnits="userSpaceOnUse">
<stop stop-color="#B7C2D0"/>
<stop offset="0.0295345" stop-color="#CAD4DB"/>
<stop offset="0.0625" stop-color="#BECCDE"/>
<stop offset="0.133609" stop-color="#B7C2D0" stop-opacity="0.3"/>
<stop offset="0.865967" stop-color="#B7C2D0" stop-opacity="0.3"/>
<stop offset="0.941937" stop-color="#BECCDE"/>
<stop offset="0.971275" stop-color="#CAD4DB"/>
<stop offset="0.996436" stop-color="#B7C2D0"/>
</linearGradient>
<linearGradient id="paint1_linear_9005_44710" x1="310.03" y1="264.304" x2="310.03" y2="268.627" gradientUnits="userSpaceOnUse">
<stop stop-color="#D1DBE9" stop-opacity="0.6"/>
<stop offset="1" stop-color="#AAB5C6" stop-opacity="0.6"/>
</linearGradient>
<linearGradient id="paint2_linear_9005_44710" x1="288.675" y1="263.454" x2="332.709" y2="263.454" gradientUnits="userSpaceOnUse">
<stop stop-color="#CFD9E7"/>
<stop offset="0.317518" stop-color="#CFD9E7" stop-opacity="0"/>
<stop offset="0.660584" stop-color="#CFD9E7" stop-opacity="0"/>
<stop offset="1" stop-color="#CFD9E7"/>
</linearGradient>
<clipPath id="clip0_9005_44710">
<rect width="281.274" height="145.491" fill="white" transform="translate(166.547 165.371)"/>
</clipPath>
</defs>
</svg>