<svg width="20" height="20" viewBox="0 0 20 20" fill="none" xmlns="http://www.w3.org/2000/svg">
<path d="M6.9834 10.0001L8.99173 12.0167L13.0167 7.9834" stroke="#006FFD" stroke-width="1.5" stroke-linecap="round" stroke-linejoin="round"/>
<path d="M8.9584 2.0416C9.5334 1.54993 10.4751 1.54993 11.0584 2.0416L12.3751 3.17493C12.6251 3.3916 13.0917 3.5666 13.4251 3.5666H14.8417C15.7251 3.5666 16.4501 4.2916 16.4501 5.17493V6.5916C16.4501 6.9166 16.6251 7.3916 16.8417 7.6416L17.9751 8.95827C18.4667 9.53327 18.4667 10.4749 17.9751 11.0583L16.8417 12.3749C16.6251 12.6249 16.4501 13.0916 16.4501 13.4249V14.8416C16.4501 15.7249 15.7251 16.4499 14.8417 16.4499H13.4251C13.1001 16.4499 12.6251 16.6249 12.3751 16.8416L11.0584 17.9749C10.4834 18.4666 9.54173 18.4666 8.9584 17.9749L7.64173 16.8416C7.39173 16.6249 6.92506 16.4499 6.59173 16.4499H5.15006C4.26673 16.4499 3.54173 15.7249 3.54173 14.8416V13.4166C3.54173 13.0916 3.36673 12.6249 3.1584 12.3749L2.0334 11.0499C1.55007 10.4749 1.55007 9.5416 2.0334 8.9666L3.1584 7.6416C3.36673 7.3916 3.54173 6.92494 3.54173 6.59994V5.1666C3.54173 4.28327 4.26673 3.55827 5.15006 3.55827H6.59173C6.91673 3.55827 7.39173 3.38327 7.64173 3.1666L8.9584 2.0416Z" stroke="#23274D" stroke-width="1.5" stroke-linecap="round" stroke-linejoin="round"/>
</svg>
