<svg width="18" height="22" viewBox="0 0 18 22" fill="none" xmlns="http://www.w3.org/2000/svg">
<path d="M4.68524 20.945C4.26624 20.6662 3.89488 20.3218 3.58544 19.9249C3.24507 19.5152 2.9297 19.0854 2.64105 18.6378C1.96369 17.6455 1.43249 16.5609 1.06374 15.4174C0.620764 14.0892 0.40625 12.816 0.40625 11.5708C0.40625 10.1801 0.707101 8.96607 1.29552 7.94596C1.73171 7.14864 2.37301 6.48234 3.15309 6.016C3.90908 5.54644 4.77771 5.28948 5.66749 5.27217C5.97897 5.27217 6.31435 5.31734 6.67033 5.40367C6.92602 5.47606 7.23749 5.59029 7.61804 5.73242C8.10219 5.91904 8.36851 6.03327 8.45883 6.06116C8.74241 6.16477 8.98083 6.20993 9.16812 6.20993C9.31024 6.20993 9.51081 6.16477 9.73861 6.0957C9.86679 6.05054 10.1085 5.97084 10.4545 5.82274C10.7972 5.69788 11.0669 5.59096 11.2814 5.51126C11.6101 5.4143 11.9282 5.32464 12.2118 5.27948C12.548 5.22648 12.8892 5.21244 13.2286 5.23764C13.8168 5.27608 14.3961 5.40072 14.948 5.60756C15.8506 5.97084 16.5805 6.53801 17.1237 7.34426C16.8941 7.48578 16.6786 7.64902 16.4802 7.83173C16.0483 8.21466 15.6803 8.66419 15.3904 9.16331C15.0113 9.84542 14.8148 10.6138 14.8199 11.3941C14.8338 12.3525 15.0795 13.1966 15.5637 13.9265C15.9196 14.4674 16.3822 14.93 16.9232 15.2859C17.2001 15.4726 17.4385 15.6007 17.667 15.6871C17.5601 16.0191 17.4458 16.3406 17.311 16.6594C17.0053 17.3742 16.6347 18.0596 16.2039 18.7069C15.82 19.2641 15.5192 19.6792 15.2907 19.9554C14.9348 20.3772 14.5921 20.6993 14.2461 20.9237C13.8655 21.1761 13.4159 21.3109 12.959 21.3109C12.6495 21.3228 12.3402 21.2854 12.0425 21.2C11.7868 21.1137 11.5338 21.02 11.2847 20.9131C11.0258 20.7942 10.7588 20.6936 10.4858 20.6123C9.8108 20.4389 9.10312 20.4378 8.42762 20.6089C8.15067 20.6886 7.88436 20.7816 7.62136 20.8958C7.25144 21.0512 7.00571 21.1555 6.86359 21.2C6.58 21.283 6.28579 21.3348 5.98826 21.3521C5.52802 21.3521 5.09899 21.2206 4.67395 20.9543L4.68524 20.945ZM10.7554 4.59742C10.1537 4.89827 9.57922 5.02645 9.00873 4.98461C8.91907 4.41013 9.00873 3.82238 9.24715 3.17884C9.45013 2.63363 9.75006 2.12963 10.1324 1.69118C10.5362 1.22963 11.0262 0.851309 11.5749 0.577437C12.1594 0.276586 12.7166 0.113875 13.2492 0.0899658C13.3183 0.691668 13.2492 1.28341 13.028 1.92297C12.8234 2.48833 12.524 3.01475 12.1428 3.47969C11.7536 3.94187 11.2761 4.32166 10.7381 4.59675L10.7554 4.59742Z" fill="black"/>
</svg>