<svg width="41" height="41" viewBox="0 0 41 41" fill="none" xmlns="http://www.w3.org/2000/svg">
<path d="M16.1872 34.8234H24.8129C32.001 34.8234 34.8763 31.9482 34.8763 24.7601V16.1344C34.8763 8.94628 32.001 6.07104 24.8129 6.07104H16.1872C8.99914 6.07104 6.1239 8.94628 6.1239 16.1344V24.7601C6.1239 31.9482 8.99914 34.8234 16.1872 34.8234Z" stroke="#23274D" stroke-width="3.08061" stroke-linecap="round" stroke-linejoin="round"/>
<path d="M13.33 6.0711V2.47705" stroke="#23274D" stroke-width="3.08061" stroke-linecap="round" stroke-linejoin="round"/>
<path d="M20.5 6.25079V2.65674" stroke="#23274D" stroke-width="3.08061" stroke-linecap="round" stroke-linejoin="round"/>
<path d="M27.6882 6.0711V2.47705" stroke="#23274D" stroke-width="3.08061" stroke-linecap="round" stroke-linejoin="round"/>
<path d="M34.8761 13.2592H38.4701" stroke="#23274D" stroke-width="3.08061" stroke-linecap="round" stroke-linejoin="round"/>
<path d="M34.8761 20.4473H38.4701" stroke="#23274D" stroke-width="3.08061" stroke-linecap="round" stroke-linejoin="round"/>
<path d="M34.8761 27.6354H38.4701" stroke="#23274D" stroke-width="3.08061" stroke-linecap="round" stroke-linejoin="round"/>
<path d="M27.6882 34.8235V38.4175" stroke="#23274D" stroke-width="3.08061" stroke-linecap="round" stroke-linejoin="round"/>
<path d="M20.5179 34.8235V38.4175" stroke="#23274D" stroke-width="3.08061" stroke-linecap="round" stroke-linejoin="round"/>
<path d="M13.33 34.8235V38.4175" stroke="#23274D" stroke-width="3.08061" stroke-linecap="round" stroke-linejoin="round"/>
<path d="M2.52954 13.2592H6.12359" stroke="#23274D" stroke-width="3.08061" stroke-linecap="round" stroke-linejoin="round"/>
<path d="M2.52954 20.4473H6.12359" stroke="#23274D" stroke-width="3.08061" stroke-linecap="round" stroke-linejoin="round"/>
<path d="M2.52954 27.6354H6.12359" stroke="#23274D" stroke-width="3.08061" stroke-linecap="round" stroke-linejoin="round"/>
<path d="M12.6831 26.7369L17.7934 15.0563L23.0497 26.7369" stroke="#006FFD" stroke-width="2.503" stroke-miterlimit="10" stroke-linecap="round" stroke-linejoin="round"/>
<path d="M13.8513 22.7946H21.7358" stroke="#006FFD" stroke-width="2.503" stroke-miterlimit="10"/>
<path d="M26.6996 26.7368V18.9984" stroke="#006FFD" stroke-width="2.503" stroke-miterlimit="10" stroke-linecap="round" stroke-linejoin="round"/>
<path d="M26.7582 15.1061V15.1061" stroke="#006FFD" stroke-width="3.33733" stroke-linecap="round" stroke-linejoin="round"/>
</svg>