<svg width="21" height="21" viewBox="0 0 21 21" fill="none" xmlns="http://www.w3.org/2000/svg">
<path d="M7.41699 2.16663V4.66663" stroke="#23274D" stroke-width="1.5" stroke-miterlimit="10" stroke-linecap="round" stroke-linejoin="round"/>
<path d="M14.083 2.16663V4.66663" stroke="#23274D" stroke-width="1.5" stroke-miterlimit="10" stroke-linecap="round" stroke-linejoin="round"/>
<path d="M14.0833 3.41663C16.8583 3.56663 18.25 4.62496 18.25 8.54163V13.6916C18.25 17.125 17.4167 18.8416 13.25 18.8416H8.25C4.08333 18.8416 3.25 17.125 3.25 13.6916V8.54163C3.25 4.62496 4.64167 3.57496 7.41667 3.41663H14.0833Z" stroke="#23274D" stroke-width="1.5" stroke-miterlimit="10" stroke-linecap="round" stroke-linejoin="round"/>
<path d="M18.0413 15.1666H3.45801" stroke="#23274D" stroke-width="1.5" stroke-miterlimit="10" stroke-linecap="round" stroke-linejoin="round"/>
<path d="M10.7503 7.375C9.72533 7.375 8.85866 7.93333 8.85866 9.01667C8.85866 9.53333 9.10033 9.925 9.46699 10.175C8.95866 10.475 8.66699 10.9583 8.66699 11.525C8.66699 12.5583 9.45866 13.2 10.7503 13.2C12.0337 13.2 12.8337 12.5583 12.8337 11.525C12.8337 10.9583 12.542 10.4667 12.0253 10.175C12.4003 9.91667 12.6337 9.53333 12.6337 9.01667C12.6337 7.93333 11.7753 7.375 10.7503 7.375ZM10.7503 9.74167C10.317 9.74167 10.0003 9.48333 10.0003 9.075C10.0003 8.65833 10.317 8.41667 10.7503 8.41667C11.1837 8.41667 11.5003 8.65833 11.5003 9.075C11.5003 9.48333 11.1837 9.74167 10.7503 9.74167ZM10.7503 12.1667C10.2003 12.1667 9.80033 11.8917 9.80033 11.3917C9.80033 10.8917 10.2003 10.625 10.7503 10.625C11.3003 10.625 11.7003 10.9 11.7003 11.3917C11.7003 11.8917 11.3003 12.1667 10.7503 12.1667Z" fill="#006FFD"/>
</svg>