<svg width="20" height="21" viewBox="0 0 20 21" fill="none" xmlns="http://www.w3.org/2000/svg">
<path d="M6.66406 2.16663V4.66663" stroke="#23274D" stroke-miterlimit="10" stroke-linecap="round" stroke-linejoin="round"/>
<path d="M13.3359 2.16663V4.66663" stroke="#23274D" stroke-miterlimit="10" stroke-linecap="round" stroke-linejoin="round"/>
<path d="M2.91406 8.07495H17.0807" stroke="#23274D" stroke-width="1.5" stroke-miterlimit="10" stroke-linecap="round" stroke-linejoin="round"/>
<path d="M16.0066 13.6417L13.0566 16.5917C12.9399 16.7084 12.8316 16.925 12.8066 17.0834L12.6482 18.2084C12.5899 18.6167 12.8732 18.9 13.2816 18.8417L14.4066 18.6834C14.5649 18.6584 14.7899 18.55 14.8982 18.4334L17.8483 15.4834C18.3566 14.975 18.5983 14.3834 17.8483 13.6334C17.1066 12.8917 16.5149 13.1334 16.0066 13.6417Z" stroke="#006FFD" stroke-miterlimit="10" stroke-linecap="round" stroke-linejoin="round"/>
<path d="M15.5781 14.0667C15.8281 14.9667 16.5281 15.6667 17.4281 15.9167" stroke="#006FFD" stroke-miterlimit="10" stroke-linecap="round" stroke-linejoin="round"/>
<path d="M10 18.8333H6.66667C3.75 18.8333 2.5 17.1666 2.5 14.6666V7.58329C2.5 5.08329 3.75 3.41663 6.66667 3.41663H13.3333C16.25 3.41663 17.5 5.08329 17.5 7.58329V10.5" stroke="#23274D" stroke-width="1.5" stroke-miterlimit="10" stroke-linecap="round" stroke-linejoin="round"/>
<path d="M9.99803 11.9167H10.0055" stroke="#006FFD" stroke-width="2" stroke-linecap="round" stroke-linejoin="round"/>
<path d="M6.91209 11.9167H6.91957" stroke="#006FFD" stroke-width="2" stroke-linecap="round" stroke-linejoin="round"/>
<path d="M6.91209 14.4167H6.91957" stroke="#006FFD" stroke-width="2" stroke-linecap="round" stroke-linejoin="round"/>
</svg>