<svg width="70" height="70" viewBox="0 0 70 70" fill="none" xmlns="http://www.w3.org/2000/svg">
<path d="M64.0798 53.4625C64.0798 54.5125 63.8465 55.5917 63.3506 56.6417C62.8548 57.6917 62.2132 58.6834 61.3673 59.6167C59.9382 61.1917 58.3631 62.3292 56.584 63.0584C54.834 63.7875 52.9382 64.1667 50.8965 64.1667C47.9215 64.1667 44.7423 63.4667 41.3881 62.0375C38.034 60.6084 34.6798 58.6834 31.3548 56.2625C28.0006 53.8125 24.8215 51.1 21.7881 48.0959C18.784 45.0625 16.0715 41.8834 13.6507 38.5584C11.259 35.2334 9.33398 31.9084 7.93398 28.6125C6.53398 25.2875 5.83398 22.1084 5.83398 19.075C5.83398 17.0917 6.18398 15.1959 6.88398 13.4459C7.58398 11.6667 8.69232 10.0334 10.2382 8.57504C12.1048 6.73754 14.1465 5.83337 16.3048 5.83337C17.1215 5.83337 17.9382 6.00837 18.6673 6.35837C19.4257 6.70837 20.0965 7.23337 20.6215 7.99171L27.3882 17.5292C27.9132 18.2584 28.2923 18.9292 28.5548 19.5709C28.8173 20.1834 28.9632 20.7959 28.9632 21.35C28.9632 22.05 28.759 22.75 28.3507 23.4209C27.9715 24.0917 27.4173 24.7917 26.7173 25.4917L24.5006 27.7959C24.1798 28.1167 24.034 28.4959 24.034 28.9625C24.034 29.1959 24.0632 29.4 24.1215 29.6334C24.209 29.8667 24.2965 30.0417 24.3548 30.2167C24.8798 31.1792 25.784 32.4334 27.0673 33.95C28.3798 35.4667 29.7798 37.0125 31.2965 38.5584C32.8715 40.1042 34.3881 41.5334 35.934 42.8459C37.4506 44.1292 38.7048 45.0042 39.6965 45.5292C39.8423 45.5875 40.0173 45.675 40.2215 45.7625C40.4548 45.85 40.6881 45.8792 40.9506 45.8792C41.4465 45.8792 41.8256 45.7042 42.1465 45.3834L44.3631 43.1959C45.0923 42.4667 45.7923 41.9125 46.4631 41.5625C47.134 41.1542 47.8048 40.95 48.534 40.95C49.0881 40.95 49.6715 41.0667 50.3131 41.3292C50.9548 41.5917 51.6257 41.9709 52.3548 42.4667L62.009 49.3209C62.7673 49.8459 63.2923 50.4584 63.6131 51.1875C63.9048 51.9167 64.0798 52.6459 64.0798 53.4625Z" stroke="#23274D" stroke-width="3.2" stroke-miterlimit="10"/>
<path d="M53.9583 26.2501C53.9583 24.5001 52.5875 21.8167 50.5458 19.6292C48.6792 17.6167 46.2 16.0417 43.75 16.0417" stroke="#006FFD" stroke-width="3.2" stroke-linecap="round" stroke-linejoin="round"/>
<path d="M64.1667 26.25C64.1667 14.9625 55.0375 5.83337 43.75 5.83337" stroke="#006FFD" stroke-width="3.2" stroke-linecap="round" stroke-linejoin="round"/>
</svg>