<svg width="489" height="272" viewBox="0 0 489 272" fill="none" xmlns="http://www.w3.org/2000/svg">
<rect x="79.2421" y="17.2421" width="409.516" height="253.516" rx="15.2511" fill="white"/>
<rect x="102.238" y="31.2397" width="364" height="225" rx="11.6199" fill="#EAF2FF"/>
<path d="M152.098 59.5469H148.987C148.93 59.1444 148.814 58.7869 148.639 58.4744C148.464 58.1572 148.239 57.8873 147.964 57.6648C147.69 57.4422 147.373 57.2718 147.013 57.1534C146.658 57.035 146.272 56.9759 145.855 56.9759C145.102 56.9759 144.446 57.1629 143.888 57.5369C143.329 57.9062 142.896 58.446 142.588 59.1562C142.28 59.8617 142.126 60.7187 142.126 61.7273C142.126 62.7642 142.28 63.6354 142.588 64.3409C142.901 65.0464 143.336 65.5791 143.895 65.9389C144.454 66.2988 145.1 66.4787 145.834 66.4787C146.246 66.4787 146.627 66.4242 146.977 66.3153C147.332 66.2064 147.647 66.0478 147.922 65.8395C148.196 65.6264 148.424 65.3684 148.604 65.0653C148.788 64.7623 148.916 64.4167 148.987 64.0284L152.098 64.0426C152.018 64.7102 151.816 65.3542 151.494 65.9744C151.177 66.59 150.749 67.1416 150.209 67.6293C149.674 68.1122 149.035 68.4957 148.291 68.7798C147.553 69.0592 146.717 69.1989 145.784 69.1989C144.487 69.1989 143.327 68.9053 142.304 68.3182C141.286 67.7311 140.481 66.8812 139.889 65.7685C139.302 64.6558 139.009 63.3087 139.009 61.7273C139.009 60.1411 139.307 58.7917 139.903 57.679C140.5 56.5663 141.31 55.7187 142.332 55.1364C143.355 54.5492 144.506 54.2557 145.784 54.2557C146.627 54.2557 147.408 54.3741 148.128 54.6108C148.852 54.8475 149.494 55.1932 150.053 55.6477C150.611 56.0975 151.066 56.6491 151.416 57.3026C151.771 57.956 151.999 58.7041 152.098 59.5469ZM159.218 69.2131C158.096 69.2131 157.13 68.9858 156.32 68.5312C155.515 68.072 154.895 67.4233 154.46 66.5852C154.024 65.7424 153.806 64.7457 153.806 63.5952C153.806 62.473 154.024 61.4882 154.46 60.6406C154.895 59.7931 155.508 59.1326 156.299 58.6591C157.094 58.1856 158.027 57.9489 159.097 57.9489C159.817 57.9489 160.487 58.0649 161.107 58.2969C161.732 58.5241 162.277 58.8674 162.741 59.3267C163.21 59.786 163.574 60.3636 163.835 61.0597C164.095 61.7509 164.225 62.5606 164.225 63.4886V64.3196H155.013V62.4446H161.377C161.377 62.009 161.282 61.6231 161.093 61.2869C160.904 60.9508 160.641 60.688 160.305 60.4986C159.973 60.3045 159.587 60.2074 159.147 60.2074C158.688 60.2074 158.281 60.3139 157.925 60.527C157.575 60.7353 157.3 61.017 157.102 61.3722C156.903 61.7225 156.801 62.1132 156.796 62.544V64.3267C156.796 64.8665 156.896 65.3329 157.094 65.7259C157.298 66.1188 157.585 66.4219 157.954 66.6349C158.323 66.848 158.761 66.9545 159.268 66.9545C159.604 66.9545 159.912 66.9072 160.191 66.8125C160.47 66.7178 160.71 66.5758 160.908 66.3864C161.107 66.197 161.259 65.965 161.363 65.6903L164.161 65.875C164.019 66.5473 163.728 67.1345 163.288 67.6364C162.852 68.1335 162.289 68.5218 161.597 68.8011C160.911 69.0758 160.118 69.2131 159.218 69.2131ZM166.2 69V58.0909H169.133V59.9943H169.246C169.445 59.3172 169.779 58.8059 170.248 58.4602C170.717 58.1098 171.256 57.9347 171.867 57.9347C172.019 57.9347 172.182 57.9441 172.357 57.9631C172.532 57.982 172.686 58.008 172.819 58.0412V60.7259C172.677 60.6832 172.48 60.6454 172.229 60.6122C171.978 60.5791 171.749 60.5625 171.54 60.5625C171.095 60.5625 170.698 60.6596 170.347 60.8537C170.002 61.0431 169.727 61.3082 169.523 61.6491C169.325 61.9901 169.225 62.383 169.225 62.8281V69H166.2ZM180.733 58.0909V60.3636H174.163V58.0909H180.733ZM175.654 55.4773H178.68V65.6477C178.68 65.9271 178.723 66.1449 178.808 66.3011C178.893 66.4527 179.011 66.5592 179.163 66.6207C179.319 66.6823 179.499 66.7131 179.703 66.7131C179.845 66.7131 179.987 66.7012 180.129 66.6776C180.271 66.6491 180.38 66.6278 180.456 66.6136L180.931 68.8651C180.78 68.9124 180.567 68.9669 180.292 69.0284C180.018 69.0947 179.684 69.1349 179.291 69.1491C178.562 69.1776 177.922 69.0805 177.373 68.858C176.829 68.6354 176.405 68.2898 176.102 67.821C175.799 67.3523 175.65 66.7604 175.654 66.0455V55.4773ZM182.703 69V58.0909H185.729V69H182.703ZM184.223 56.6847C183.774 56.6847 183.388 56.5355 183.066 56.2372C182.748 55.9342 182.59 55.572 182.59 55.1506C182.59 54.7339 182.748 54.3764 183.066 54.0781C183.388 53.7751 183.774 53.6236 184.223 53.6236C184.673 53.6236 185.057 53.7751 185.374 54.0781C185.696 54.3764 185.857 54.7339 185.857 55.1506C185.857 55.572 185.696 55.9342 185.374 56.2372C185.057 56.5355 184.673 56.6847 184.223 56.6847ZM194.019 58.0909V60.3636H187.286V58.0909H194.019ZM188.827 69V57.3026C188.827 56.5118 188.981 55.8561 189.289 55.3352C189.602 54.8144 190.028 54.4238 190.567 54.1634C191.107 53.9029 191.72 53.7727 192.407 53.7727C192.871 53.7727 193.295 53.8082 193.678 53.8793C194.067 53.9503 194.355 54.0142 194.545 54.071L194.005 56.3438C193.887 56.3059 193.74 56.2704 193.565 56.2372C193.394 56.2041 193.219 56.1875 193.039 56.1875C192.594 56.1875 192.284 56.2917 192.109 56.5C191.933 56.7036 191.846 56.9901 191.846 57.3594V69H188.827ZM195.868 69V58.0909H198.893V69H195.868ZM197.387 56.6847C196.938 56.6847 196.552 56.5355 196.23 56.2372C195.913 55.9342 195.754 55.572 195.754 55.1506C195.754 54.7339 195.913 54.3764 196.23 54.0781C196.552 53.7751 196.938 53.6236 197.387 53.6236C197.837 53.6236 198.221 53.7751 198.538 54.0781C198.86 54.3764 199.021 54.7339 199.021 55.1506C199.021 55.572 198.86 55.9342 198.538 56.2372C198.221 56.5355 197.837 56.6847 197.387 56.6847ZM206.246 69.2131C205.128 69.2131 204.167 68.9763 203.362 68.5028C202.562 68.0246 201.946 67.3617 201.516 66.5142C201.089 65.6667 200.876 64.6913 200.876 63.5881C200.876 62.4706 201.092 61.4905 201.523 60.6477C201.958 59.8002 202.576 59.1397 203.376 58.6662C204.177 58.188 205.128 57.9489 206.232 57.9489C207.183 57.9489 208.017 58.1217 208.732 58.4673C209.446 58.813 210.012 59.2983 210.429 59.9233C210.846 60.5483 211.075 61.2822 211.118 62.125H208.263C208.182 61.5805 207.969 61.1425 207.624 60.8111C207.283 60.4749 206.835 60.3068 206.281 60.3068C205.812 60.3068 205.403 60.4347 205.053 60.6903C204.707 60.9413 204.437 61.3082 204.243 61.7912C204.049 62.2741 203.952 62.8589 203.952 63.5455C203.952 64.2415 204.046 64.8333 204.236 65.321C204.43 65.8087 204.702 66.1804 205.053 66.4361C205.403 66.6918 205.812 66.8196 206.281 66.8196C206.627 66.8196 206.937 66.7486 207.212 66.6065C207.491 66.4645 207.721 66.2585 207.901 65.9886C208.085 65.714 208.206 65.3849 208.263 65.0014H211.118C211.071 65.8348 210.843 66.5687 210.436 67.2031C210.034 67.8329 209.477 68.3253 208.767 68.6804C208.057 69.0355 207.216 69.2131 206.246 69.2131ZM216.166 69.206C215.47 69.206 214.85 69.0852 214.305 68.8438C213.761 68.5975 213.33 68.2353 213.012 67.7571C212.7 67.2741 212.544 66.6728 212.544 65.9531C212.544 65.3471 212.655 64.8381 212.877 64.4261C213.1 64.0142 213.403 63.6828 213.787 63.4318C214.17 63.1809 214.606 62.9915 215.093 62.8636C215.586 62.7358 216.102 62.6458 216.642 62.5938C217.276 62.5275 217.788 62.4659 218.176 62.4091C218.564 62.3475 218.846 62.2576 219.021 62.1392C219.196 62.0208 219.284 61.8456 219.284 61.6136V61.571C219.284 61.1212 219.142 60.7732 218.858 60.527C218.578 60.2808 218.181 60.1577 217.664 60.1577C217.12 60.1577 216.687 60.2784 216.365 60.5199C216.043 60.7566 215.83 61.0549 215.725 61.4148L212.927 61.1875C213.069 60.5246 213.349 59.9517 213.765 59.4688C214.182 58.9811 214.719 58.607 215.377 58.3466C216.04 58.0814 216.807 57.9489 217.679 57.9489C218.285 57.9489 218.865 58.0199 219.419 58.1619C219.977 58.304 220.472 58.5241 220.903 58.8224C221.339 59.1207 221.682 59.5043 221.933 59.973C222.184 60.437 222.309 60.9934 222.309 61.642V69H219.44V67.4872H219.355C219.18 67.8281 218.945 68.1288 218.652 68.3892C218.358 68.6449 218.005 68.8461 217.593 68.9929C217.181 69.1349 216.706 69.206 216.166 69.206ZM217.032 67.1179C217.477 67.1179 217.87 67.0303 218.211 66.8551C218.552 66.6752 218.82 66.4337 219.014 66.1307C219.208 65.8277 219.305 65.4844 219.305 65.1009V63.9432C219.21 64.0047 219.08 64.0616 218.914 64.1136C218.753 64.161 218.571 64.206 218.368 64.2486C218.164 64.2865 217.96 64.322 217.757 64.3551C217.553 64.3835 217.368 64.4096 217.203 64.4332C216.848 64.4853 216.538 64.5682 216.272 64.6818C216.007 64.7955 215.801 64.9493 215.654 65.1435C215.508 65.3329 215.434 65.5696 215.434 65.8537C215.434 66.2656 215.583 66.5805 215.882 66.7983C216.185 67.0114 216.568 67.1179 217.032 67.1179ZM230.459 58.0909V60.3636H223.89V58.0909H230.459ZM225.381 55.4773H228.407V65.6477C228.407 65.9271 228.449 66.1449 228.534 66.3011C228.62 66.4527 228.738 66.5592 228.89 66.6207C229.046 66.6823 229.226 66.7131 229.429 66.7131C229.571 66.7131 229.713 66.7012 229.855 66.6776C229.998 66.6491 230.106 66.6278 230.182 66.6136L230.658 68.8651C230.507 68.9124 230.293 68.9669 230.019 69.0284C229.744 69.0947 229.41 69.1349 229.017 69.1491C228.288 69.1776 227.649 69.0805 227.1 68.858C226.555 68.6354 226.132 68.2898 225.828 67.821C225.525 67.3523 225.376 66.7604 225.381 66.0455V55.4773ZM237.284 69.2131C236.162 69.2131 235.196 68.9858 234.387 68.5312C233.582 68.072 232.962 67.4233 232.526 66.5852C232.09 65.7424 231.873 64.7457 231.873 63.5952C231.873 62.473 232.09 61.4882 232.526 60.6406C232.962 59.7931 233.575 59.1326 234.365 58.6591C235.161 58.1856 236.094 57.9489 237.164 57.9489C237.883 57.9489 238.553 58.0649 239.174 58.2969C239.799 58.5241 240.343 58.8674 240.807 59.3267C241.276 59.786 241.641 60.3636 241.901 61.0597C242.161 61.7509 242.292 62.5606 242.292 63.4886V64.3196H233.08V62.4446H239.444C239.444 62.009 239.349 61.6231 239.159 61.2869C238.97 60.9508 238.707 60.688 238.371 60.4986C238.04 60.3045 237.654 60.2074 237.213 60.2074C236.754 60.2074 236.347 60.3139 235.992 60.527C235.641 60.7353 235.367 61.017 235.168 61.3722C234.969 61.7225 234.867 62.1132 234.863 62.544V64.3267C234.863 64.8665 234.962 65.3329 235.161 65.7259C235.364 66.1188 235.651 66.4219 236.02 66.6349C236.39 66.848 236.828 66.9545 237.334 66.9545C237.67 66.9545 237.978 66.9072 238.257 66.8125C238.537 66.7178 238.776 66.5758 238.975 66.3864C239.174 66.197 239.325 65.965 239.429 65.6903L242.228 65.875C242.086 66.5473 241.794 67.1345 241.354 67.6364C240.918 68.1335 240.355 68.5218 239.664 68.8011C238.977 69.0758 238.184 69.2131 237.284 69.2131Z" fill="#929292"/>
<path d="M274.257 197.745H198.373C196.686 197.745 195 196.481 195 194.373C195 192.686 196.265 191 198.373 191H274.257C275.943 191 277.629 192.265 277.629 194.373C277.208 196.481 275.943 197.745 274.257 197.745Z" fill="#929292"/>
<path d="M302.862 97.0404H254.38C252.694 97.0404 251.008 95.7756 251.008 93.6677C251.008 91.9814 252.273 90.2951 254.38 90.2951H302.44C304.127 90.2951 305.813 91.5598 305.813 93.6677C305.813 95.7756 304.548 97.0404 302.862 97.0404Z" fill="#929292"/>
<path d="M237.521 97.0404H193.255C191.569 97.0404 189.883 95.7756 189.883 93.6677C189.883 91.9814 191.148 90.2951 193.255 90.2951H237.943C239.629 90.2951 241.315 91.5598 241.315 93.6677C240.894 95.7756 239.207 97.0404 237.521 97.0404Z" fill="#929292"/>
<path d="M176.388 97.0409H142.662C140.975 97.0409 139.289 95.7762 139.289 93.6683C139.289 91.982 140.554 90.7172 142.662 90.7172H176.388C178.074 90.7172 179.761 91.982 179.761 94.0898C179.339 95.7762 178.074 97.0409 176.388 97.0409Z" fill="#929292"/>
<path d="M323.148 122H258.852C256.426 122 254 120.875 254 119C254 117.5 255.82 116 258.852 116H323.148C325.574 116 328 117.125 328 119C327.393 120.875 325.574 122 323.148 122Z" fill="#929292"/>
<path d="M205.898 122.336H142.662C140.975 122.336 139.289 121.071 139.289 118.963C139.289 117.277 140.554 116.012 142.662 116.012H205.898C207.585 116.012 209.271 117.277 209.271 119.385C208.849 121.071 207.585 122.336 205.898 122.336Z" fill="#929292"/>
<path d="M296.791 148H210.81C208.405 148 206 146.688 206 144.5C206 142.75 207.804 141 210.81 141H296.19C298.595 141 301 142.312 301 144.5C301 146.688 299.196 148 296.791 148Z" fill="#929292"/>
<path d="M172.172 147.63H142.662C140.975 147.63 139.289 146.365 139.289 144.257C139.289 142.571 140.554 141.306 142.662 141.306H172.594C174.28 141.306 175.966 142.571 175.966 144.679C175.545 146.365 173.858 147.63 172.172 147.63Z" fill="#929292"/>
<path d="M284.117 173H246.883C244.442 173 242 171.688 242 169.5C242 167.312 243.831 166 246.883 166H284.117C286.558 166 289 167.312 289 169.5C289 171.688 286.558 173 284.117 173Z" fill="#929292"/>
<path d="M223.123 173H143.877C141.438 173 139 171.8 139 169.8C139 167.8 140.829 167 143.877 167H223.123C225.562 167 228 168.2 228 170.2C228 172.2 225.562 173 223.123 173Z" fill="#929292"/>
<path d="M184.819 198.219H142.662C140.975 198.219 139.289 196.955 139.289 194.847C139.289 193.16 140.554 191.896 142.662 191.896H184.819C186.506 191.896 188.192 193.16 188.192 195.268C187.771 196.955 186.506 198.219 184.819 198.219Z" fill="#929292"/>
<path d="M364.842 242.833C390.015 242.833 410.421 222.426 410.421 197.253C410.421 172.08 390.015 151.673 364.842 151.673C339.668 151.673 319.262 172.08 319.262 197.253C319.262 222.426 339.668 242.833 364.842 242.833Z" fill="white"/>
<path d="M391.865 160.464C397.4 167.952 400.655 177.068 400.655 187.16C400.655 212.229 380.145 232.74 355.076 232.74C344.983 232.74 335.867 229.484 328.379 223.95C336.518 235.345 350.192 242.833 365.168 242.833C390.237 242.833 410.748 222.322 410.748 197.253C410.423 182.277 403.26 168.928 391.865 160.464Z" fill="#B8D4F7"/>
<path d="M364.848 245.438C338.477 245.438 316.664 223.95 316.664 197.253C316.99 170.882 338.477 149.395 364.848 149.395C391.22 149.395 413.033 170.882 413.033 197.579C413.033 223.95 391.545 245.438 364.848 245.438ZM364.848 154.278C341.082 154.278 321.873 173.487 321.873 197.579C321.873 221.346 341.082 240.554 364.848 240.554C388.941 240.554 408.149 221.346 408.149 197.253C408.149 173.487 388.941 154.278 364.848 154.278Z" fill="#929292"/>
<path d="M364.84 167.952L373.956 175.765L385.677 176.742L386.654 188.463L394.142 197.253L386.654 206.369L385.677 218.089L373.956 219.066L364.84 226.554L356.05 219.066L344.329 218.089L343.353 206.369L335.539 197.253L343.353 188.463L344.329 176.742L356.05 175.765L364.84 167.952Z" fill="white"/>
<path d="M386.658 188.463L379.17 197.253L376.566 208.974L364.845 211.578L356.055 219.066L364.845 226.554L373.961 219.066L385.682 218.09L386.658 206.369L394.146 197.253L386.658 188.463Z" fill="#B8D4F7"/>
<path d="M364.842 229.159C364.191 229.159 363.865 228.834 363.214 228.508L354.749 221.345L343.68 220.369C342.378 220.369 341.401 219.392 341.401 218.09L340.424 207.02L333.262 198.555C332.611 197.579 332.611 196.277 333.262 195.3L340.424 186.835L341.401 175.766C341.401 174.463 342.378 173.487 343.68 173.487L354.749 172.51L363.214 165.347C364.191 164.696 365.493 164.696 366.47 165.347L374.935 172.51L386.004 173.487C387.306 173.487 388.283 174.463 388.283 175.766L389.26 186.835L396.422 195.3C397.074 196.277 397.074 197.579 396.422 198.555L389.26 207.02L388.283 218.09C388.283 219.392 387.306 220.369 386.004 220.369L374.935 221.345L366.47 228.508C366.144 228.834 365.493 229.159 364.842 229.159ZM346.61 215.811L356.377 216.462C357.028 216.462 357.354 216.787 357.68 217.113L365.168 223.299L372.656 217.113C372.981 216.787 373.632 216.462 373.958 216.462L383.725 215.811L384.376 206.044C384.376 205.392 384.702 205.067 385.027 204.741L391.213 197.253L385.027 189.765C384.702 189.44 384.376 188.788 384.376 188.463L383.725 178.696L373.958 178.045C373.307 178.045 372.981 177.719 372.656 177.393L365.168 171.208L357.68 177.393C357.354 177.719 356.703 178.045 356.377 178.045L346.61 178.696L345.959 188.463C345.959 189.114 345.633 189.44 345.308 189.765L339.122 197.253L345.308 204.741C345.633 205.067 345.959 205.718 345.959 206.044L346.61 215.811Z" fill="#929292"/>
<path d="M157.233 236.13C151.331 236.13 145.007 234.022 139.949 228.963C138.684 227.698 138.684 225.591 139.949 224.326C141.213 223.061 143.321 223.061 144.586 224.326C153.017 232.757 165.243 229.806 174.096 223.904C188.43 214.629 202.342 214.63 212.038 224.326C213.303 225.591 213.303 227.698 212.038 228.963C210.774 230.228 208.666 230.228 207.401 228.963C197.283 218.424 183.371 225.591 177.891 229.385C171.567 233.179 164.4 236.13 157.233 236.13Z" fill="#929292"/>
<g clip-path="url(#clip0_9233_48295)">
<path d="M470.239 117.739H354.941L376.56 96.1206H448.621L470.239 117.739Z" fill="#B8D4F7"/>
<path d="M450.422 117.739H354.941L371.155 101.525H436.01C437.091 101.525 438.172 102.066 438.893 102.966L450.422 117.739Z" fill="white"/>
<path d="M470.241 119H354.943C354.403 119 353.862 118.64 353.682 118.099C353.502 117.559 353.502 117.018 354.042 116.658L375.661 95.0398C375.841 94.8596 376.201 94.6794 376.561 94.6794H448.622C448.983 94.6794 449.343 94.8596 449.523 95.0398L471.142 116.658C471.502 117.018 471.682 117.559 471.502 118.099C471.141 118.64 470.781 119 470.241 119ZM358.186 116.298H466.998L447.902 97.3817H377.102L358.186 116.298Z" fill="#D1D6DD"/>
<path d="M448.797 88.5543L384.663 71.8001C383.582 71.4398 383.041 70.5391 383.222 69.4581L385.203 61.8917L452.941 79.7268L450.959 87.2933C450.779 88.194 449.698 88.9146 448.797 88.5543Z" fill="white"/>
<path d="M385.21 61.8917L383.949 67.1162L444.12 82.9696C445.021 83.1497 445.742 84.2307 445.381 85.1314L444.661 87.4734L448.624 88.5543C449.705 88.9146 450.786 88.194 450.966 87.1131L452.948 79.5467L385.21 61.8917Z" fill="#B8D4F7"/>
<path d="M449.165 89.9954C448.804 89.9954 448.624 89.9954 448.264 89.8152L384.31 73.061C382.508 72.5206 381.427 70.7191 381.968 69.0977L383.949 61.5313C384.13 60.8107 384.85 60.4504 385.571 60.6305L453.308 78.4656C454.029 78.6458 454.389 79.3664 454.209 80.087L452.407 87.4733C452.227 88.374 451.687 89.0946 450.966 89.4549C450.426 89.8152 449.885 89.9954 449.165 89.9954ZM386.291 63.513L384.67 69.8183C384.67 70.1786 384.85 70.5389 385.03 70.5389L448.985 87.2931C449.165 87.2931 449.345 87.2931 449.525 87.2931C449.525 87.2931 449.705 87.1129 449.885 86.9328L451.507 80.6275L386.291 63.513Z" fill="#D1D6DD"/>
<path d="M456.905 80.6275L381.602 60.8107L384.664 49.2809C385.205 47.2992 387.186 46.2183 388.988 46.7588L457.446 64.774C459.428 65.3145 460.508 67.2962 459.968 69.0977L456.905 80.6275Z" fill="#B8D4F7"/>
<path d="M449.339 78.6455L381.602 60.8104L384.124 51.2623L450.24 68.557C451.14 68.7371 451.861 69.8181 451.501 70.7188L449.339 78.6455Z" fill="white"/>
<path d="M456.908 82.0688C456.728 82.0688 456.728 82.0688 456.548 82.0688L381.064 62.252C380.343 62.0719 379.983 61.3513 380.163 60.6306L383.226 49.1009C383.946 46.3986 386.649 44.9574 389.351 45.4978L457.809 63.5131C460.511 64.2337 461.952 66.936 461.412 69.6383L458.349 81.168C458.169 81.5284 457.989 81.8887 457.809 82.0688C457.268 81.8887 457.088 82.0688 456.908 82.0688ZM383.046 59.91L455.827 79.0062L458.53 68.7375C458.89 67.4764 458.169 66.2154 456.908 66.0352L388.45 48.02C387.189 47.6597 385.928 48.3803 385.748 49.6413L383.046 59.91Z" fill="#D1D6DD"/>
<path d="M449.522 24.4195C452.224 14.331 445.558 4.24244 435.11 2.62106C427.183 1.54015 419.256 6.04397 416.374 13.6104C414.392 18.4745 414.932 23.5188 416.914 27.8424C418.536 31.0852 418.896 35.0485 417.815 38.6516L413.852 53.244L432.407 58.1081L436.19 43.5157C437.091 39.9127 439.253 36.4898 442.316 34.3279C445.739 31.986 448.261 28.563 449.522 24.4195Z" fill="white"/>
<path d="M434.928 2.62156C433.667 2.44141 432.406 2.44141 431.325 2.44141C438.531 6.04446 442.674 14.3315 440.512 22.6185C439.432 26.9422 436.729 30.3651 433.487 32.7071C430.424 34.8689 428.262 38.1116 427.361 41.8948L423.578 55.9468L432.406 58.2887L436.189 43.6964C437.09 40.0933 439.251 36.6704 442.314 34.5086C445.737 32.1666 448.259 28.7437 449.34 24.42C452.042 14.3315 445.557 4.06278 434.928 2.62156Z" fill="#B8D4F7"/>
<path d="M432.413 59.5498C432.233 59.5498 432.233 59.5498 432.053 59.5498L413.497 54.6857C412.777 54.5055 412.417 53.7849 412.597 53.0643L416.56 38.2918C417.461 34.8689 417.101 31.446 415.659 28.5635C413.317 23.6994 412.957 18.2948 414.939 13.2506C418.001 5.14369 426.649 0.279571 435.116 1.54064C440.52 2.26125 445.204 5.32385 448.267 9.82766C451.149 14.3315 452.23 19.9162 450.789 24.9605C449.708 29.2842 447.006 33.2475 443.223 35.7696C440.52 37.5712 438.539 40.6338 437.638 44.0567L433.855 58.649C433.675 59.0093 433.494 59.3696 433.314 59.5498C432.774 59.3696 432.594 59.5498 432.413 59.5498ZM415.479 52.3437L431.333 56.4872L434.755 43.1559C435.836 39.0124 438.178 35.5895 441.421 33.2475C444.664 31.0857 447.006 27.8429 447.907 24.0597C448.988 19.5559 448.267 14.8719 445.745 11.0887C443.223 7.12537 439.259 4.60324 434.575 4.06278C427.369 2.80171 420.163 7.12537 417.461 13.9712C415.839 18.2948 416.02 22.9788 418.001 27.1223C419.803 30.5452 420.163 34.6887 419.082 38.8322L415.479 52.3437Z" fill="#D1D6DD"/>
<path d="M461.776 93.7783H459.254C458.533 93.7783 457.812 93.2378 457.812 92.337C457.812 91.6164 458.353 90.8958 459.254 90.8958H461.776C462.496 90.8958 463.217 91.4363 463.217 92.337C463.217 93.2378 462.677 93.7783 461.776 93.7783Z" fill="#D1D6DD"/>
<path d="M470.237 93.7783H467.715C466.994 93.7783 466.273 93.2378 466.273 92.337C466.273 91.6164 466.814 90.8958 467.715 90.8958H470.237C470.957 90.8958 471.678 91.4363 471.678 92.337C471.498 93.2378 470.957 93.7783 470.237 93.7783Z" fill="#D1D6DD"/>
<path d="M464.832 99.1833C464.111 99.1833 463.391 98.6428 463.391 97.742V95.2199C463.391 94.4993 463.931 93.7787 464.832 93.7787C465.552 93.7787 466.273 94.3191 466.273 95.2199V97.742C466.093 98.6428 465.552 99.1833 464.832 99.1833Z" fill="#D1D6DD"/>
<path d="M464.832 90.8961C464.111 90.8961 463.391 90.3556 463.391 89.4549V86.9327C463.391 86.2121 463.931 85.4915 464.832 85.4915C465.552 85.4915 466.273 86.032 466.273 86.9327V89.4549C466.093 90.3556 465.552 90.8961 464.832 90.8961Z" fill="#D1D6DD"/>
<path d="M371.693 82.9695H369.351C368.631 82.9695 367.91 82.429 367.91 81.5283C367.91 80.8077 368.451 80.2672 369.351 80.2672H371.874C372.594 80.2672 373.315 80.8077 373.315 81.7084C373.135 82.429 372.414 82.9695 371.693 82.9695Z" fill="#D1D6DD"/>
<path d="M380.163 82.9694H377.64C376.92 82.9694 376.199 82.429 376.199 81.5282C376.199 80.8076 376.74 80.087 377.64 80.087H380.163C380.883 80.087 381.604 80.6274 381.604 81.5282C381.424 82.429 380.883 82.9694 380.163 82.9694Z" fill="#D1D6DD"/>
<path d="M374.754 88.3739C374.033 88.3739 373.312 87.8335 373.312 86.9327V84.4106C373.312 83.69 373.853 82.9694 374.754 82.9694C375.474 82.9694 376.195 83.5098 376.195 84.4106V86.9327C376.015 87.8335 375.474 88.3739 374.754 88.3739Z" fill="#D1D6DD"/>
<path d="M374.754 80.0865C374.033 80.0865 373.312 79.5461 373.312 78.6453V76.1232C373.312 75.4026 373.853 74.6819 374.754 74.6819C375.474 74.6819 376.195 75.2224 376.195 76.1232V78.6453C376.015 79.5461 375.474 80.0865 374.754 80.0865Z" fill="#D1D6DD"/>
<path d="M357.283 57.7482H354.941C354.221 57.7482 353.5 57.2077 353.5 56.307C353.5 55.5864 354.04 55.0459 354.941 55.0459H357.463C358.184 55.0459 358.905 55.5864 358.905 56.4871C358.724 57.2077 358.004 57.7482 357.283 57.7482Z" fill="#D1D6DD"/>
<path d="M365.745 57.7482H363.222C362.502 57.7482 361.781 57.2077 361.781 56.307C361.781 55.5864 362.502 55.0459 363.222 55.0459H365.745C366.465 55.0459 367.186 55.5864 367.186 56.4871C367.006 57.2077 366.465 57.7482 365.745 57.7482Z" fill="#D1D6DD"/>
<path d="M360.347 63.1529C359.627 63.1529 358.906 62.6124 358.906 61.7117V59.1895C358.906 58.4689 359.447 57.7483 360.347 57.7483C361.068 57.7483 361.789 58.2887 361.789 59.1895V61.7117C361.609 62.6124 361.068 63.1529 360.347 63.1529Z" fill="#D1D6DD"/>
<path d="M360.347 54.8658C359.627 54.8658 358.906 54.3253 358.906 53.4246V50.9024C358.906 50.1818 359.447 49.6414 360.347 49.6414C361.068 49.6414 361.789 50.1818 361.789 51.0826V53.6047C361.609 54.3253 361.068 54.8658 360.347 54.8658Z" fill="#D1D6DD"/>
<path d="M396.916 30.725H394.394C393.674 30.725 392.953 30.1845 392.953 29.4639C392.953 28.7433 393.494 28.0227 394.394 28.0227H396.916C397.637 28.0227 398.358 28.5632 398.358 29.4639C398.358 30.1845 397.817 30.725 396.916 30.725Z" fill="#D1D6DD"/>
<path d="M405.385 30.725H402.863C402.142 30.725 401.422 30.1845 401.422 29.4639C401.422 28.7433 401.962 28.0227 402.863 28.0227H405.385C406.106 28.0227 406.826 28.5632 406.826 29.4639C406.646 30.1845 406.106 30.725 405.385 30.725Z" fill="#D1D6DD"/>
<path d="M399.98 36.1297C399.26 36.1297 398.539 35.5892 398.539 34.6885V32.1663C398.539 31.4457 399.08 30.7251 399.98 30.7251C400.701 30.7251 401.422 31.2656 401.422 32.1663V34.6885C401.241 35.5892 400.701 36.1297 399.98 36.1297Z" fill="#D1D6DD"/>
<path d="M399.98 27.8426C399.26 27.8426 398.539 27.3021 398.539 26.4013V23.8792C398.539 23.1586 399.08 22.438 399.98 22.438C400.701 22.438 401.422 22.9784 401.422 23.8792V26.4013C401.241 27.122 400.701 27.8426 399.98 27.8426Z" fill="#D1D6DD"/>
<path d="M382.506 9.10683H379.984C379.264 9.10683 378.543 8.56637 378.543 7.66561C378.723 6.945 379.264 6.40454 380.164 6.40454H382.686C383.407 6.40454 384.128 6.945 384.128 7.84576C383.948 8.56637 383.227 9.10683 382.506 9.10683Z" fill="#D1D6DD"/>
<path d="M390.971 9.10683H388.449C387.728 9.10683 387.008 8.56637 387.008 7.66561C387.008 6.945 387.728 6.40454 388.449 6.40454H390.971C391.692 6.40454 392.412 6.945 392.412 7.84576C392.232 8.56637 391.692 9.10683 390.971 9.10683Z" fill="#D1D6DD"/>
<path d="M385.566 14.5117C384.846 14.5117 384.125 13.9712 384.125 13.0704V10.7285C384.125 10.0078 384.665 9.28723 385.566 9.28723C386.287 9.28723 387.007 9.82769 387.007 10.7285V13.2506C386.827 13.9712 386.287 14.5117 385.566 14.5117Z" fill="#D1D6DD"/>
<path d="M385.566 6.22443C384.846 6.22443 384.125 5.68397 384.125 4.78321V2.44122C384.125 1.54046 384.665 1 385.566 1C386.287 1 387.007 1.54046 387.007 2.44122V4.96336C386.827 5.50382 386.287 6.22443 385.566 6.22443Z" fill="#D1D6DD"/>
<path d="M450.963 50.5419H448.441C447.721 50.5419 447 50.0014 447 49.1006C447 48.38 447.54 47.6594 448.441 47.6594H450.963C451.684 47.6594 452.405 48.1999 452.405 49.1006C452.405 50.0014 451.864 50.5419 450.963 50.5419Z" fill="#D1D6DD"/>
<path d="M459.428 50.5419H456.906C456.185 50.5419 455.465 50.0014 455.465 49.1006C455.465 48.38 456.005 47.6594 456.906 47.6594H459.428C460.149 47.6594 460.869 48.1999 460.869 49.1006C460.689 50.0014 460.149 50.5419 459.428 50.5419Z" fill="#D1D6DD"/>
<path d="M454.027 55.9467C453.307 55.9467 452.586 55.4062 452.586 54.5055V51.9833C452.586 51.2627 453.126 50.5421 454.027 50.5421C454.748 50.5421 455.468 51.0826 455.468 51.9833V54.5055C455.288 55.4062 454.748 55.9467 454.027 55.9467Z" fill="#D1D6DD"/>
<path d="M454.027 47.6595C453.307 47.6595 452.586 47.119 452.586 46.2182V43.6961C452.586 42.9755 453.126 42.2549 454.027 42.2549C454.748 42.2549 455.468 42.7953 455.468 43.6961V46.2182C455.288 47.119 454.748 47.6595 454.027 47.6595Z" fill="#D1D6DD"/>
<path d="M419.076 111.794H394.215C393.494 111.794 392.773 111.253 392.773 110.353C392.773 109.632 393.314 108.911 394.215 108.911H419.076C419.796 108.911 420.517 109.452 420.517 110.353C420.337 111.253 419.796 111.794 419.076 111.794Z" fill="#D1D6DD"/>
<path d="M387.006 111.794H383.043C382.322 111.794 381.602 111.253 381.602 110.353C381.602 109.632 382.142 108.911 383.043 108.911H387.006C387.727 108.911 388.447 109.452 388.447 110.353C388.267 111.253 387.727 111.794 387.006 111.794Z" fill="#D1D6DD"/>
</g>
<rect x="79.2421" y="17.2421" width="409.516" height="253.516" rx="15.2511" stroke="#D1D6DD" stroke-width="0.484162"/>
<path d="M21.1581 229.149C56.8993 212.651 101.922 197.012 137.663 180.514C149.494 175.009 155.071 189.342 157.549 197.362C158.606 200.784 158.491 206.621 154.398 208.678C152.794 209.464 151.207 210 149.5 210.828C95.0735 235.792 41.9323 260.947 33.5822 261.753C25.3776 262.62 19.4316 257.003 16.2326 249.282C12.9733 241.707 15.2125 231.974 21.1581 229.149Z" fill="white"/>
<path d="M49.6427 257.149C41.6133 260.476 36.0295 262.427 33.6118 262.706C25.8616 263.504 19.2024 258.786 15.3459 249.769C11.7881 241.474 14.4141 231.219 20.8141 228.326C38.6935 219.953 59.2038 211.816 79.0965 203.936C98.9893 196.055 119.457 187.815 137.276 179.588C140.733 178.035 143.897 177.81 146.851 179.118C153.197 181.916 156.574 190.649 158.619 197.039C159.717 200.564 159.756 207.061 154.985 209.52C153.999 210.049 152.969 210.476 152.043 210.86C151.425 211.116 150.705 211.414 150.087 211.67C139.757 216.433 129.531 221.152 119.468 225.684C90.3325 239.203 65.2898 250.665 49.6427 257.149ZM21.6421 230.033C16.1686 232.542 14.0675 241.735 17.0533 248.941C20.5685 257.134 26.4571 261.449 33.444 260.845C40.0368 260.164 76.3956 243.41 118.537 224.019C128.454 219.427 138.784 214.665 149.156 210.006C149.876 209.707 150.494 209.451 151.215 209.153C152.141 208.769 153.068 208.385 154.054 207.855C157.529 206.054 157.754 200.774 156.723 197.703C154.849 191.725 151.643 183.405 146.068 181.011C143.695 179.943 141.089 180.058 138.147 181.398C120.225 189.668 99.7144 197.805 79.8643 205.789C59.9716 213.669 39.4612 221.806 21.6421 230.033Z" fill="#929292"/>
<path d="M77.2808 234.48C78.4312 242.205 79.0846 249.895 79.085 258.338C83.2704 257.086 87.566 256.392 91.4499 255.868C90.4438 253.149 90.304 250.191 90.1038 247.38C89.7285 242.107 89.0018 236.86 87.9236 231.638C84.6602 230.457 80.7763 230.981 77.2808 234.48Z" fill="#B8D4F7"/>
<path d="M91.8316 256.795C91.7286 256.837 91.7286 256.837 91.6257 256.88C87.9903 257.421 83.5491 258.055 79.3637 259.307C79.0549 259.435 78.7637 259.315 78.4725 259.194C78.2843 259.031 78.0534 258.765 78.0284 258.413C78.103 251.025 77.5349 243.541 76.2668 234.658C76.2418 234.307 76.3624 234.016 76.5256 233.827C79.9181 230.371 84.0432 229.265 88.2404 230.662C88.5316 230.783 88.7625 231.049 88.8905 231.357C89.9687 236.58 90.6352 241.972 91.0105 247.245L91.1032 248.05C91.2783 250.511 91.4358 253.22 92.2712 255.527C92.3992 255.836 92.3815 256.084 92.261 256.376C92.0977 256.564 92.0374 256.709 91.8316 256.795ZM80.0195 257.106C83.4843 256.152 87.1196 255.611 90.1976 255.18C89.5078 252.933 89.3753 250.576 89.2855 248.321L89.1928 247.515C88.7999 242.492 88.1584 237.45 87.1655 232.434C84.861 231.821 81.6124 231.84 78.3404 235.005C79.4129 243.124 80.0589 250.214 80.0195 257.106Z" fill="#929292"/>
<path d="M96.1985 222.782C100.849 229.057 105.826 234.956 111.797 240.924C107.953 243 104.425 245.547 101.309 247.924C100.097 245.29 98.1041 243.1 96.2568 240.971C92.7933 236.978 89.596 232.755 86.6648 228.3C88.2397 225.115 91.2528 222.781 96.1985 222.782Z" fill="#B8D4F7"/>
<path d="M101.749 248.706C101.543 248.791 101.295 248.773 101.149 248.713C100.858 248.592 100.669 248.429 100.542 248.12C99.5002 245.898 97.7986 243.829 96.0793 242.009L95.5749 241.373C92.1113 237.381 88.8713 233.054 85.8372 228.643C85.6063 228.377 85.5813 228.025 85.8048 227.691C87.7841 223.735 91.4826 221.6 96.3253 221.643C96.6768 221.618 96.8651 221.782 97.096 222.048C102.482 229.224 107.373 234.917 112.652 240.087C112.883 240.353 112.968 240.559 112.89 240.953C112.872 241.202 112.649 241.536 112.34 241.664C108.496 243.739 104.908 246.432 101.955 248.62C101.852 248.663 101.749 248.706 101.749 248.706ZM87.7152 228.226C90.5611 232.475 93.6731 236.492 96.9484 240.322L97.4528 240.957C98.9838 242.614 100.455 244.417 101.659 246.451C104.14 244.579 107.136 242.493 110.216 240.614C105.315 235.77 100.757 230.301 95.7298 223.699C91.2209 223.879 88.9107 226.163 87.7152 228.226Z" fill="#929292"/>
<path d="M101.16 212.644C102.814 212.562 104.875 215.206 105.411 216.793C106.051 218.337 106.176 220.094 105.471 221.593C104.541 223.425 102.362 224.57 100.391 224.18C101.947 226.189 102.619 228.684 101.527 230.705C100.778 232.101 99.3622 233.049 97.7754 233.586C96.9519 233.928 96.0857 234.166 95.2371 234.156C94.3886 234.145 93.515 233.784 92.9679 233.045C92.3195 235.847 90.1122 238.088 87.5916 238.409C85.071 238.73 82.365 237.439 80.9722 235.242C78.5163 237.465 74.4015 237.723 71.8514 235.644C69.3012 233.564 68.7951 229.432 70.6862 226.718C68.6023 227.22 66.4434 226.667 65.083 225.422C63.7226 224.176 62.9549 222.323 62.7871 220.463C62.6268 219.203 62.6723 217.857 63.1546 216.692C63.6369 215.527 64.6589 214.501 65.8766 214.238C62.897 212.577 61.4394 208.477 62.9113 205.335C64.2803 202.234 68.295 200.571 72.2261 202.199C71.373 200.14 72.4406 197.768 73.995 196.279C74.7935 195.587 75.6346 194.997 76.6038 194.716C78.8508 194.026 81.4113 195.257 82.7011 197.497C84.0672 195.845 86.0157 194.435 88.2275 194.242C90.4394 194.049 92.8115 195.117 93.6646 197.175C94.3897 198.925 94.5853 199.689 94.0928 201.702C95.7928 200.274 99.3752 200.478 102.146 203.672C104.626 206.746 103.332 210.9 101.16 212.644Z" fill="#B8D4F7"/>
<path d="M89.3564 238.884C88.8417 239.097 88.2843 239.208 87.7269 239.318C85.2063 239.639 82.5856 238.554 80.781 236.527C77.8458 238.467 73.7486 238.476 71.1558 236.294C68.6483 234.317 67.8584 230.664 68.9612 227.795C67.2641 227.775 65.5596 227.154 64.3875 226.072C63.0271 224.826 62.0711 222.81 61.7327 220.538C61.5473 218.926 61.6531 217.435 62.2384 216.228C62.6001 215.354 63.2104 214.498 63.9486 213.951C61.4587 211.726 60.5835 207.867 61.9951 204.87C63.5273 201.582 67.1906 199.943 70.8834 200.705C70.7583 198.947 71.8508 196.927 73.1817 195.772C74.1434 194.891 75.1302 194.362 76.2022 194.038C78.492 193.451 81.0274 194.331 82.6437 196.194C84.1981 194.705 86.0686 193.689 88.0319 193.479C90.8011 193.176 93.4468 194.612 94.5308 196.937C95.0853 198.276 95.3236 199.142 95.2957 200.239C95.853 200.128 96.5133 199.975 97.156 200.071C99.2472 200.169 101.311 201.365 102.927 203.228C104.124 204.662 104.704 206.352 104.52 208.237C104.371 209.625 103.871 211.039 103.038 212.228C104.622 213.14 105.972 215.234 106.484 216.469C107.294 218.425 107.298 220.474 106.49 222.015C105.724 223.659 104.041 224.839 102.266 225.213C103.368 227.289 103.415 229.441 102.589 231.23C101.84 232.626 100.509 233.781 98.4078 234.531C97.5843 234.872 96.6152 235.153 95.4152 235.168C94.8151 235.175 94.1298 234.976 93.6504 234.693C92.6607 236.671 91.2093 238.116 89.3564 238.884ZM80.4853 234.358C80.5883 234.315 80.7942 234.23 80.9398 234.29C81.1883 234.308 81.4795 234.429 81.6074 234.737C82.8723 236.626 85.2445 237.693 87.3107 237.44C89.4798 237.144 91.4636 235.237 91.9311 232.872C92.009 232.478 92.2752 232.247 92.687 232.076C93.0385 232.051 93.4326 232.129 93.6635 232.396C93.9371 232.765 94.5621 233.109 95.265 233.059C96.0106 233.112 96.8342 232.77 97.4518 232.514C99.0989 231.832 100.103 231.054 100.671 230.095C101.377 228.597 101.021 226.573 99.6103 224.624C99.3794 224.358 99.3117 223.904 99.5352 223.57C99.7587 223.236 100.171 223.066 100.565 223.143C102.141 223.455 103.909 222.482 104.554 221.129C105.037 219.964 105.04 218.515 104.442 217.074C103.803 215.53 102.101 213.461 101.047 213.536C100.695 213.561 100.216 213.277 100.088 212.968C99.917 212.556 100.098 212.12 100.364 211.889C101.429 210.965 102.177 209.57 102.283 208.078C102.354 207.084 102.296 205.781 101.142 204.45C99.9445 203.017 98.3606 202.105 96.7237 201.939C95.8325 201.826 94.9664 202.064 94.434 202.526C94.0649 202.799 93.7134 202.824 93.2766 202.643C92.9428 202.42 92.7722 202.008 92.8501 201.614C93.1794 199.789 93.0691 199.232 92.3866 197.584C91.7468 196.04 89.7688 195.051 87.9085 195.218C86.1937 195.447 84.4261 196.42 82.957 198.114C82.6909 198.345 82.382 198.473 82.1335 198.456C82.2188 198.662 81.885 198.438 81.757 198.129C80.7407 196.259 78.6171 195.209 76.7818 195.728C76.0185 195.924 75.2376 196.368 74.5421 197.018C73.3142 198.13 72.2216 200.15 73.007 201.755C73.1776 202.166 73.0997 202.561 72.8335 202.792C72.5673 203.022 72.1556 203.193 71.7188 203.012C68.1819 201.462 64.8098 203.221 63.6393 205.636C62.4512 208.3 63.5926 211.927 66.1957 213.261C66.5295 213.485 66.8031 213.854 66.7251 214.248C66.6472 214.642 66.4237 214.976 65.9693 215.044C65.1031 215.282 64.3046 215.975 63.8826 216.994C63.5208 217.867 63.39 219.007 63.5504 220.267C63.8211 222.085 64.4609 223.629 65.5904 224.609C66.7625 225.691 68.5876 226.02 70.3626 225.647C70.817 225.579 71.1082 225.699 71.3817 226.069C71.6553 226.438 71.5774 226.832 71.3539 227.166C69.7466 229.4 70.1424 232.975 72.316 234.728C74.4897 236.48 78.0471 236.333 80.2368 234.34C80.425 234.504 80.3824 234.401 80.4853 234.358Z" fill="#929292"/>
<path d="M87.0405 223.681C91.3045 221.915 93.3289 217.026 91.5621 212.762C89.7953 208.498 84.9065 206.473 80.6425 208.24C76.3785 210.007 74.3541 214.896 76.1209 219.16C77.8876 223.424 82.7765 225.448 87.0405 223.681Z" fill="white"/>
<path d="M87.4222 224.609C82.6869 226.571 77.1543 224.28 75.1923 219.544C73.2302 214.809 75.5212 209.277 80.2565 207.314C84.9918 205.352 90.5244 207.643 92.4864 212.379C94.5941 217.174 92.2605 222.604 87.4222 224.609ZM81.0242 209.167C77.2154 210.746 75.4067 215.113 76.9849 218.922C78.5631 222.731 82.9309 224.54 86.7398 222.962C90.5486 221.383 92.3572 217.016 90.7791 213.207C89.1582 209.295 84.8331 207.589 81.0242 209.167Z" fill="#929292"/>
<path d="M152.048 210.857C145.666 213.502 138.586 204.856 137.108 202.454C133.92 197.382 132.629 191.645 133.248 186.443C133.665 183.375 134.715 181.252 136.458 179.927C136.93 179.61 137.47 179.749 137.846 180.075C138.162 180.547 138.024 181.087 137.698 181.463C136.427 182.472 135.558 184.159 135.279 186.687C134.635 191.537 135.919 196.674 138.832 201.377C138.875 201.48 139.063 201.643 139.149 201.849C140.941 201.227 142.709 200.253 144.288 199.116C142.356 196.781 141.101 194.044 140.464 191.052C140.244 189.937 140.016 188.222 141.055 186.947C141.992 185.715 143.87 185.298 145.472 185.962C146.782 186.504 147.808 187.526 148.586 188.531C152.178 192.832 155.63 202.619 154.635 207.494C154.202 209.362 153.198 210.14 152.417 210.584C152.254 210.772 152.151 210.815 152.048 210.857ZM140.431 203.489C142.928 206.314 147.471 210.583 151.383 208.962C151.486 208.919 151.486 208.919 151.589 208.876C152.104 208.663 152.448 208.038 152.707 207.207C153.606 202.975 150.35 193.951 147.135 189.976C146.442 189.178 145.707 188.276 144.73 187.957C144.002 187.656 142.948 187.731 142.458 188.296C142.072 188.818 142.019 189.563 142.282 190.781C142.919 193.774 144.276 196.468 146.312 198.76C146.5 198.924 146.628 199.232 146.611 199.481C146.593 199.729 146.472 200.021 146.266 200.106C144.464 201.577 142.49 202.636 140.431 203.489Z" fill="#929292"/>
<path d="M142.362 90.4496L150.789 114.517L128.871 101.484L142.362 90.4496Z" fill="#EAF2FF"/>
<path d="M135.617 95.9669L150.789 114.517L128.871 101.484L135.617 95.9669Z" fill="white"/>
<path d="M151.753 115.698C151.247 116.112 150.465 116.189 149.883 115.821L127.965 102.788C127.52 102.589 127.275 101.945 127.168 101.47C127.061 100.994 127.429 100.412 127.766 100.136L141.257 89.1016C141.594 88.8257 142.238 88.5805 142.682 88.7799C143.127 88.9792 143.709 89.3472 143.817 89.8224L152.244 113.89C152.32 114.671 152.259 115.284 151.753 115.698ZM131.521 101.286L147.584 110.946L141.302 93.2863L131.521 101.286Z" fill="#D1D6DD"/>
<path d="M74.4678 10.8832L64.3497 19.1591L60.2117 14.1C58.6945 12.245 58.9708 9.48592 60.8258 7.96867L64.1986 5.21005C66.0536 3.69281 68.8127 3.96916 70.3299 5.82415L74.4678 10.8832Z" fill="white"/>
<path d="M75.4328 12.0647L65.3146 20.3405C64.6401 20.8923 63.5517 20.9381 62.8621 20.0949L58.7241 15.0358C56.6552 12.5063 57.0236 8.8275 59.7218 6.6206L63.0945 3.86198C65.6241 1.79301 69.4715 2.02354 71.6784 4.72172L75.8163 9.78079C76.1994 10.5933 76.1073 11.513 75.4328 12.0647ZM64.4261 16.8455L72.0147 10.6386L68.9802 6.92861C68.0147 5.74816 66.3132 5.73257 65.3014 6.56015L61.9287 9.31877C60.7482 10.2843 60.7327 11.9858 61.5602 12.9976L64.5947 16.7076L64.4261 16.8455Z" fill="#D1D6DD"/>
<path d="M117.534 60.0959L104.043 71.1304L128.871 101.485L142.361 90.4503L117.534 60.0959Z" fill="#EAF2FF"/>
<path d="M128.412 90.6015L123.353 94.7394L104.043 71.1304L110.788 65.6131L128.719 87.5358C129.409 88.379 129.256 89.9118 128.412 90.6015Z" fill="white"/>
<path d="M143.328 91.6308L129.837 102.665C129.162 103.217 128.074 103.263 127.384 102.42L102.557 72.0651C102.005 71.3906 101.959 70.3023 102.802 69.6126L116.293 58.5781C116.968 58.0264 118.056 57.9806 118.746 58.8238L143.573 89.1782C144.094 90.1593 144.002 91.079 143.328 91.6308ZM128.948 99.1702L139.91 90.2047L117.151 62.3798L106.19 71.3453L128.948 99.1702Z" fill="#D1D6DD"/>
<path d="M76.1549 9.50409L62.6641 20.5386L104.043 71.1293L117.534 60.0948L76.1549 9.50409Z" fill="#EAF2FF"/>
<path d="M103.585 60.246L98.5261 64.3839L62.6641 20.5386L69.4095 15.0213L103.892 57.1803C104.582 58.0235 104.428 59.5563 103.585 60.246Z" fill="white"/>
<path d="M118.499 61.2768L105.008 72.3113C104.334 72.863 103.245 72.9088 102.556 72.0656L61.1765 21.4749C60.6247 20.8003 60.7168 19.8806 61.56 19.191L75.0509 8.1565C75.7254 7.60478 76.8138 7.55897 77.5034 8.40215L118.883 58.9929C119.266 59.8054 119.174 60.7251 118.499 61.2768ZM104.12 68.8162L115.081 59.8507L75.7708 11.7895L64.8094 20.755L104.12 68.8162Z" fill="#D1D6DD"/>
<path d="M93.8234 44.8706C93.1488 45.4223 92.0605 45.4681 91.3708 44.6249L67.9225 15.9568C67.3708 15.2823 67.4629 14.3626 68.3061 13.6729C68.9807 13.1212 70.069 13.0754 70.7587 13.9186L94.2069 42.5867C94.59 43.3991 94.4979 44.3188 93.8234 44.8706Z" fill="#D1D6DD"/>
<defs>
<clipPath id="clip0_9233_48295">
<rect width="118" height="118" fill="white" transform="translate(353.5 1)"/>
</clipPath>
</defs>
</svg>