<svg width="310" height="203" viewBox="0 0 310 203" fill="none" xmlns="http://www.w3.org/2000/svg">
<rect x="5.55828" y="12.6415" width="303.439" height="187.848" rx="11.3006" fill="white"/>
<rect x="22.5977" y="23.0132" width="269.713" height="166.718" rx="8.60999" fill="#EAF2FF"/>
<path d="M59.5439 43.9096H57.2389C57.1968 43.6114 57.1108 43.3465 56.981 43.1149C56.8512 42.8799 56.6845 42.6799 56.4811 42.515C56.2776 42.3501 56.0425 42.2238 55.7759 42.1361C55.5127 42.0484 55.2268 42.0045 54.9181 42.0045C54.3602 42.0045 53.8743 42.1431 53.4603 42.4203C53.0463 42.6939 52.7253 43.0939 52.4973 43.6201C52.2692 44.1429 52.1552 44.7779 52.1552 45.5252C52.1552 46.2935 52.2692 46.9391 52.4973 47.4618C52.7288 47.9846 53.0516 48.3793 53.4656 48.6459C53.8796 48.9125 54.3585 49.0458 54.9023 49.0458C55.2075 49.0458 55.4899 49.0055 55.7496 48.9248C56.0127 48.8441 56.246 48.7266 56.4495 48.5722C56.653 48.4143 56.8214 48.2231 56.9547 47.9986C57.0915 47.7741 57.1862 47.5179 57.2389 47.2303L59.5439 47.2408C59.4842 47.7355 59.3351 48.2126 59.0966 48.6722C58.8615 49.1283 58.544 49.537 58.144 49.8984C57.7476 50.2562 57.2739 50.5404 56.7231 50.7509C56.1758 50.9579 55.5566 51.0614 54.8654 51.0614C53.9041 51.0614 53.0446 50.8439 52.2868 50.4089C51.5325 49.9738 50.936 49.3441 50.4975 48.5196C50.0625 47.6951 49.8449 46.697 49.8449 45.5252C49.8449 44.3499 50.066 43.35 50.508 42.5255C50.9501 41.701 51.55 41.073 52.3078 40.6415C53.0656 40.2065 53.9182 39.989 54.8654 39.989C55.4899 39.989 56.0688 40.0767 56.6021 40.2521C57.1389 40.4275 57.6143 40.6836 58.0282 41.0204C58.4422 41.3537 58.779 41.7624 59.0387 42.2466C59.3018 42.7308 59.4702 43.2851 59.5439 43.9096ZM64.8196 51.0719C63.9881 51.0719 63.2724 50.9035 62.6725 50.5667C62.076 50.2264 61.6164 49.7458 61.2937 49.1248C60.9709 48.5003 60.8095 47.7618 60.8095 46.9092C60.8095 46.0778 60.9709 45.348 61.2937 44.72C61.6164 44.092 62.0708 43.6026 62.6567 43.2518C63.2461 42.9009 63.9372 42.7255 64.7301 42.7255C65.2634 42.7255 65.7599 42.8114 66.2194 42.9834C66.6826 43.1518 67.086 43.4061 67.4298 43.7464C67.7772 44.0867 68.0473 44.5148 68.2403 45.0305C68.4332 45.5427 68.5297 46.1427 68.5297 46.8303V47.446H61.7042V46.0567H66.4194C66.4194 45.7339 66.3493 45.448 66.2089 45.1989C66.0686 44.9498 65.8739 44.7551 65.6248 44.6148C65.3792 44.4709 65.0933 44.399 64.767 44.399C64.4267 44.399 64.1249 44.4779 63.8618 44.6358C63.6022 44.7902 63.3987 44.9989 63.2514 45.2621C63.104 45.5217 63.0286 45.8111 63.0251 46.1304V47.4513C63.0251 47.8512 63.0987 48.1968 63.2461 48.488C63.397 48.7792 63.6092 49.0037 63.8829 49.1616C64.1565 49.3195 64.481 49.3984 64.8564 49.3984C65.1055 49.3984 65.3336 49.3634 65.5406 49.2932C65.7476 49.223 65.9247 49.1178 66.0721 48.9774C66.2194 48.8371 66.3317 48.6652 66.4089 48.4617L68.4824 48.5985C68.3771 49.0967 68.1613 49.5318 67.8351 49.9036C67.5123 50.272 67.0948 50.5597 66.5826 50.7667C66.0739 50.9702 65.4862 51.0719 64.8196 51.0719ZM69.9927 50.9141V42.8307H72.1662V44.2411H72.2504C72.3977 43.7394 72.6451 43.3605 72.9924 43.1044C73.3397 42.8448 73.7397 42.715 74.1923 42.715C74.3045 42.715 74.4256 42.722 74.5554 42.736C74.6852 42.7501 74.7992 42.7693 74.8974 42.7939V44.7832C74.7922 44.7516 74.6466 44.7235 74.4606 44.699C74.2747 44.6744 74.1045 44.6621 73.9502 44.6621C73.6204 44.6621 73.3257 44.734 73.0661 44.8779C72.81 45.0182 72.6065 45.2147 72.4556 45.4673C72.3083 45.7199 72.2346 46.0111 72.2346 46.3409V50.9141H69.9927ZM80.7613 42.8307V44.5148H75.8934V42.8307H80.7613ZM76.9985 40.8941H79.2404V48.4301C79.2404 48.6371 79.272 48.7985 79.3351 48.9143C79.3983 49.0266 79.486 49.1055 79.5982 49.1511C79.714 49.1967 79.8473 49.2195 79.9982 49.2195C80.1034 49.2195 80.2087 49.2107 80.3139 49.1932C80.4192 49.1721 80.4999 49.1564 80.556 49.1458L80.9086 50.8141C80.7963 50.8492 80.6385 50.8895 80.435 50.9351C80.2315 50.9842 79.9842 51.0141 79.693 51.0246C79.1527 51.0456 78.679 50.9737 78.2721 50.8088C77.8686 50.6439 77.5546 50.3878 77.3301 50.0405C77.1055 49.6931 76.995 49.2546 76.9985 48.7248V40.8941ZM82.2216 50.9141V42.8307H84.4635V50.9141H82.2216ZM83.3478 41.7888C83.0145 41.7888 82.7286 41.6782 82.49 41.4572C82.255 41.2327 82.1374 40.9643 82.1374 40.652C82.1374 40.3433 82.255 40.0784 82.49 39.8574C82.7286 39.6329 83.0145 39.5206 83.3478 39.5206C83.6811 39.5206 83.9653 39.6329 84.2004 39.8574C84.4389 40.0784 84.5582 40.3433 84.5582 40.652C84.5582 40.9643 84.4389 41.2327 84.2004 41.4572C83.9653 41.6782 83.6811 41.7888 83.3478 41.7888ZM90.6062 42.8307V44.5148H85.6173V42.8307H90.6062ZM86.7593 50.9141V42.2466C86.7593 41.6607 86.8733 41.1748 87.1014 40.7889C87.3329 40.4029 87.6487 40.1135 88.0486 39.9205C88.4486 39.7276 88.9029 39.6311 89.4116 39.6311C89.7554 39.6311 90.0694 39.6574 90.3536 39.71C90.6413 39.7627 90.8553 39.81 90.9957 39.8521L90.5957 41.5362C90.508 41.5081 90.3992 41.4818 90.2694 41.4572C90.1431 41.4327 90.0133 41.4204 89.88 41.4204C89.5502 41.4204 89.3204 41.4976 89.1906 41.6519C89.0608 41.8028 88.9959 42.015 88.9959 42.2887V50.9141H86.7593ZM91.9758 50.9141V42.8307H94.2177V50.9141H91.9758ZM93.102 41.7888C92.7687 41.7888 92.4828 41.6782 92.2442 41.4572C92.0091 41.2327 91.8916 40.9643 91.8916 40.652C91.8916 40.3433 92.0091 40.0784 92.2442 39.8574C92.4828 39.6329 92.7687 39.5206 93.102 39.5206C93.4353 39.5206 93.7195 39.6329 93.9545 39.8574C94.1931 40.0784 94.3124 40.3433 94.3124 40.652C94.3124 40.9643 94.1931 41.2327 93.9545 41.4572C93.7195 41.6782 93.4353 41.7888 93.102 41.7888ZM99.6658 51.0719C98.8378 51.0719 98.1256 50.8965 97.5291 50.5457C96.9362 50.1913 96.4801 49.7002 96.1609 49.0722C95.8451 48.4442 95.6872 47.7214 95.6872 46.904C95.6872 46.076 95.8469 45.3498 96.1661 44.7253C96.4889 44.0973 96.9468 43.6079 97.5397 43.257C98.1326 42.9027 98.8378 42.7255 99.6552 42.7255C100.36 42.7255 100.978 42.8535 101.508 43.1097C102.037 43.3658 102.457 43.7254 102.765 44.1885C103.074 44.6516 103.244 45.1954 103.276 45.8199H101.16C101.101 45.4164 100.943 45.0919 100.687 44.8463C100.434 44.5972 100.103 44.4727 99.6921 44.4727C99.3447 44.4727 99.0413 44.5674 98.7816 44.7568C98.5255 44.9428 98.3256 45.2147 98.1817 45.5725C98.0379 45.9304 97.9659 46.3637 97.9659 46.8724C97.9659 47.3881 98.0361 47.8267 98.1764 48.188C98.3203 48.5494 98.522 48.8248 98.7816 49.0143C99.0413 49.2037 99.3447 49.2985 99.6921 49.2985C99.9482 49.2985 100.178 49.2458 100.381 49.1406C100.588 49.0353 100.759 48.8827 100.892 48.6827C101.029 48.4792 101.118 48.2354 101.16 47.9512H103.276C103.241 48.5687 103.072 49.1125 102.771 49.5826C102.472 50.0492 102.06 50.4141 101.534 50.6772C101.008 50.9404 100.385 51.0719 99.6658 51.0719ZM107.016 51.0667C106.501 51.0667 106.041 50.9772 105.637 50.7983C105.234 50.6158 104.915 50.3475 104.68 49.9931C104.448 49.6353 104.332 49.1897 104.332 48.6564C104.332 48.2073 104.415 47.8302 104.58 47.525C104.745 47.2197 104.969 46.9741 105.253 46.7882C105.537 46.6023 105.86 46.4619 106.222 46.3672C106.586 46.2725 106.969 46.2058 107.369 46.1672C107.839 46.1181 108.218 46.0725 108.506 46.0304C108.793 45.9848 109.002 45.9181 109.132 45.8304C109.262 45.7427 109.327 45.6129 109.327 45.441V45.4094C109.327 45.0761 109.221 44.8182 109.011 44.6358C108.804 44.4534 108.509 44.3622 108.127 44.3622C107.723 44.3622 107.402 44.4516 107.164 44.6305C106.925 44.806 106.767 45.027 106.69 45.2936L104.617 45.1252C104.722 44.6341 104.929 44.2095 105.238 43.8517C105.546 43.4903 105.944 43.2132 106.432 43.0202C106.923 42.8237 107.492 42.7255 108.137 42.7255C108.586 42.7255 109.016 42.7781 109.427 42.8834C109.841 42.9886 110.207 43.1518 110.526 43.3728C110.849 43.5938 111.104 43.878 111.289 44.2253C111.475 44.5691 111.568 44.9814 111.568 45.462V50.9141H109.442V49.7931H109.379C109.249 50.0457 109.076 50.2685 108.858 50.4615C108.641 50.6509 108.379 50.8 108.074 50.9088C107.769 51.0141 107.416 51.0667 107.016 51.0667ZM107.658 49.5195C107.988 49.5195 108.279 49.4546 108.532 49.3248C108.784 49.1914 108.983 49.0125 109.127 48.788C109.27 48.5634 109.342 48.3091 109.342 48.0249V47.1671C109.272 47.2127 109.176 47.2548 109.053 47.2934C108.934 47.3285 108.799 47.3618 108.648 47.3934C108.497 47.4215 108.346 47.4478 108.195 47.4723C108.044 47.4934 107.907 47.5127 107.785 47.5302C107.521 47.5688 107.292 47.6302 107.095 47.7144C106.899 47.7986 106.746 47.9126 106.637 48.0565C106.529 48.1968 106.474 48.3722 106.474 48.5827C106.474 48.888 106.585 49.1213 106.806 49.2827C107.03 49.4405 107.314 49.5195 107.658 49.5195ZM117.607 42.8307V44.5148H112.739V42.8307H117.607ZM113.844 40.8941H116.086V48.4301C116.086 48.6371 116.118 48.7985 116.181 48.9143C116.244 49.0266 116.332 49.1055 116.444 49.1511C116.56 49.1967 116.693 49.2195 116.844 49.2195C116.949 49.2195 117.055 49.2107 117.16 49.1932C117.265 49.1721 117.346 49.1564 117.402 49.1458L117.755 50.8141C117.642 50.8492 117.484 50.8895 117.281 50.9351C117.077 50.9842 116.83 51.0141 116.539 51.0246C115.999 51.0456 115.525 50.9737 115.118 50.8088C114.715 50.6439 114.401 50.3878 114.176 50.0405C113.951 49.6931 113.841 49.2546 113.844 48.7248V40.8941ZM122.665 51.0719C121.833 51.0719 121.117 50.9035 120.517 50.5667C119.921 50.2264 119.461 49.7458 119.139 49.1248C118.816 48.5003 118.654 47.7618 118.654 46.9092C118.654 46.0778 118.816 45.348 119.139 44.72C119.461 44.092 119.916 43.6026 120.502 43.2518C121.091 42.9009 121.782 42.7255 122.575 42.7255C123.108 42.7255 123.605 42.8114 124.064 42.9834C124.527 43.1518 124.931 43.4061 125.275 43.7464C125.622 44.0867 125.892 44.5148 126.085 45.0305C126.278 45.5427 126.375 46.1427 126.375 46.8303V47.446H119.549V46.0567H124.264C124.264 45.7339 124.194 45.448 124.054 45.1989C123.914 44.9498 123.719 44.7551 123.47 44.6148C123.224 44.4709 122.938 44.399 122.612 44.399C122.272 44.399 121.97 44.4779 121.707 44.6358C121.447 44.7902 121.244 44.9989 121.096 45.2621C120.949 45.5217 120.874 45.8111 120.87 46.1304V47.4513C120.87 47.8512 120.944 48.1968 121.091 48.488C121.242 48.7792 121.454 49.0037 121.728 49.1616C122.001 49.3195 122.326 49.3984 122.701 49.3984C122.95 49.3984 123.179 49.3634 123.386 49.2932C123.592 49.223 123.77 49.1178 123.917 48.9774C124.064 48.8371 124.177 48.6652 124.254 48.4617L126.327 48.5985C126.222 49.0967 126.006 49.5318 125.68 49.9036C125.357 50.272 124.94 50.5597 124.427 50.7667C123.919 50.9702 123.331 51.0719 122.665 51.0719Z" fill="#929292"/>
<path d="M150.059 146.389H93.831C92.5815 146.389 91.332 145.452 91.332 143.89C91.332 142.64 92.2692 141.391 93.831 141.391H150.059C151.308 141.391 152.558 142.328 152.558 143.89C152.246 145.452 151.308 146.389 150.059 146.389Z" fill="#929292"/>
<path d="M171.254 71.7698H135.331C134.082 71.7698 132.832 70.8326 132.832 69.2707C132.832 68.0212 133.769 66.7717 135.331 66.7717H170.942C172.192 66.7717 173.441 67.7089 173.441 69.2707C173.441 70.8326 172.504 71.7698 171.254 71.7698Z" fill="#929292"/>
<path d="M122.834 71.7698H90.0342C88.7847 71.7698 87.5352 70.8326 87.5352 69.2707C87.5352 68.0212 88.4723 66.7717 90.0342 66.7717H123.146C124.396 66.7717 125.645 67.7089 125.645 69.2707C125.333 70.8326 124.083 71.7698 122.834 71.7698Z" fill="#929292"/>
<path d="M77.54 71.7701H52.5498C51.3003 71.7701 50.0508 70.833 50.0508 69.2711C50.0508 68.0216 50.9879 67.0845 52.5498 67.0845H77.54C78.7895 67.0845 80.039 68.0216 80.039 69.5835C79.7266 70.833 78.7895 71.7701 77.54 71.7701Z" fill="#929292"/>
<path d="M186.287 90.2642H138.646C136.849 90.2642 135.051 89.4306 135.051 88.0413C135.051 86.9298 136.399 85.8184 138.646 85.8184H186.287C188.085 85.8184 189.883 86.652 189.883 88.0413C189.433 89.4306 188.085 90.2642 186.287 90.2642Z" fill="#929292"/>
<path d="M99.4064 90.5126H52.5498C51.3003 90.5126 50.0508 89.5754 50.0508 88.0135C50.0508 86.764 50.9879 85.8269 52.5498 85.8269H99.4064C100.656 85.8269 101.905 86.764 101.905 88.3259C101.593 89.5754 100.656 90.5126 99.4064 90.5126Z" fill="#929292"/>
<path d="M166.758 109.529H103.049C101.266 109.529 99.4844 108.557 99.4844 106.936C99.4844 105.639 100.821 104.343 103.049 104.343H166.312C168.095 104.343 169.877 105.315 169.877 106.936C169.877 108.557 168.54 109.529 166.758 109.529Z" fill="#929292"/>
<path d="M74.4162 109.255H52.5498C51.3003 109.255 50.0508 108.318 50.0508 106.756C50.0508 105.506 50.9879 104.569 52.5498 104.569H74.7286C75.9781 104.569 77.2276 105.506 77.2276 107.068C76.9152 108.318 75.6657 109.255 74.4162 109.255Z" fill="#929292"/>
<path d="M157.364 128.053H129.774C127.965 128.053 126.156 127.081 126.156 125.46C126.156 123.839 127.513 122.867 129.774 122.867H157.364C159.173 122.867 160.982 123.839 160.982 125.46C160.982 127.081 159.173 128.053 157.364 128.053Z" fill="#929292"/>
<path d="M112.169 128.053H53.4494C51.6427 128.053 49.8359 127.164 49.8359 125.682C49.8359 124.2 51.191 123.608 53.4494 123.608H112.169C113.976 123.608 115.782 124.497 115.782 125.979C115.782 127.461 113.976 128.053 112.169 128.053Z" fill="#929292"/>
<path d="M83.7875 146.74H52.5498C51.3003 146.74 50.0508 145.803 50.0508 144.241C50.0508 142.992 50.9879 142.055 52.5498 142.055H83.7875C85.037 142.055 86.2865 142.992 86.2865 144.554C85.9741 145.803 85.037 146.74 83.7875 146.74Z" fill="#929292"/>
<path d="M217.18 179.798C235.832 179.798 250.953 164.677 250.953 146.025C250.953 127.372 235.832 112.251 217.18 112.251C198.527 112.251 183.406 127.372 183.406 146.025C183.406 164.677 198.527 179.798 217.18 179.798Z" fill="white"/>
<path d="M237.202 118.764C241.303 124.313 243.715 131.068 243.715 138.546C243.715 157.121 228.517 172.319 209.942 172.319C202.463 172.319 195.709 169.907 190.16 165.806C196.191 174.249 206.323 179.798 217.42 179.798C235.995 179.798 251.193 164.6 251.193 146.024C250.952 134.927 245.645 125.037 237.202 118.764Z" fill="#B8D4F7"/>
<path d="M217.184 181.728C197.643 181.728 181.48 165.806 181.48 146.024C181.722 126.484 197.643 110.562 217.184 110.562C236.724 110.562 252.887 126.484 252.887 146.266C252.887 165.806 236.965 181.728 217.184 181.728ZM217.184 114.181C199.573 114.181 185.34 128.414 185.34 146.266C185.34 163.876 199.573 178.109 217.184 178.109C235.035 178.109 249.268 163.876 249.268 146.024C249.268 128.414 235.035 114.181 217.184 114.181Z" fill="#929292"/>
<path d="M217.176 124.313L223.931 130.102L232.615 130.826L233.339 139.511L238.888 146.024L233.339 152.779L232.615 161.463L223.931 162.187L217.176 167.736L210.663 162.187L201.978 161.463L201.255 152.779L195.465 146.024L201.255 139.511L201.978 130.826L210.663 130.102L217.176 124.313Z" fill="white"/>
<path d="M233.344 139.511L227.796 146.024L225.866 154.709L217.181 156.639L210.668 162.187L217.181 167.736L223.936 162.187L232.621 161.463L233.344 152.779L238.893 146.024L233.344 139.511Z" fill="#B8D4F7"/>
<path d="M217.184 169.666C216.701 169.666 216.46 169.424 215.978 169.183L209.705 163.876L201.503 163.152C200.538 163.152 199.815 162.429 199.815 161.464L199.091 153.262L193.784 146.989C193.301 146.266 193.301 145.301 193.784 144.577L199.091 138.305L199.815 130.103C199.815 129.138 200.538 128.414 201.503 128.414L209.705 127.69L215.978 122.383C216.701 121.901 217.666 121.901 218.39 122.383L224.662 127.69L232.864 128.414C233.829 128.414 234.553 129.138 234.553 130.103L235.277 138.305L240.584 144.577C241.066 145.301 241.066 146.266 240.584 146.989L235.277 153.262L234.553 161.464C234.553 162.429 233.829 163.152 232.864 163.152L224.662 163.876L218.39 169.183C218.149 169.424 217.666 169.666 217.184 169.666ZM203.674 159.775L210.912 160.257C211.394 160.257 211.635 160.499 211.877 160.74L217.425 165.323L222.974 160.74C223.215 160.499 223.697 160.257 223.938 160.257L231.176 159.775L231.658 152.538C231.658 152.055 231.899 151.814 232.141 151.573L236.724 146.024L232.141 140.476C231.899 140.235 231.658 139.752 231.658 139.511L231.176 132.274L223.938 131.791C223.456 131.791 223.215 131.55 222.974 131.309L217.425 126.725L211.877 131.309C211.635 131.55 211.153 131.791 210.912 131.791L203.674 132.274L203.192 139.511C203.192 139.993 202.951 140.235 202.71 140.476L198.126 146.024L202.71 151.573C202.951 151.814 203.192 152.297 203.192 152.538L203.674 159.775Z" fill="#929292"/>
<path d="M63.3462 174.831C58.973 174.831 54.2873 173.269 50.5388 169.521C49.6017 168.583 49.6017 167.022 50.5388 166.084C51.4759 165.147 53.0378 165.147 53.9749 166.084C60.2225 172.332 69.2814 170.145 75.8413 165.772C86.4621 158.9 96.7706 158.9 103.955 166.084C104.892 167.022 104.892 168.583 103.955 169.521C103.018 170.458 101.456 170.458 100.519 169.521C93.0221 161.711 82.7136 167.022 78.6527 169.833C73.9671 172.644 68.6567 174.831 63.3462 174.831Z" fill="#929292"/>
<g clip-path="url(#clip0_9860_53145)">
<path d="M295.276 87.1064H209.844L225.862 71.0879H279.257L295.276 87.1064Z" fill="#B8D4F7"/>
<path d="M280.592 87.1067H209.844L221.858 75.0928H269.913C270.714 75.0928 271.515 75.4932 272.049 76.1607L280.592 87.1067Z" fill="white"/>
<path d="M295.275 88.0411H209.842C209.442 88.0411 209.041 87.7742 208.908 87.3737C208.774 86.9732 208.774 86.5728 209.175 86.3058L225.193 70.2872C225.327 70.1538 225.594 70.0203 225.861 70.0203H279.256C279.523 70.0203 279.79 70.1538 279.924 70.2872L295.942 86.3058C296.209 86.5728 296.343 86.9732 296.209 87.3737C295.942 87.7742 295.675 88.0411 295.275 88.0411ZM212.245 86.0388H292.872L278.722 72.0226H226.261L212.245 86.0388Z" fill="#D1D6DD"/>
<path d="M279.384 65.4815L231.863 53.0672C231.062 52.8002 230.661 52.1328 230.795 51.3318L232.263 45.7253L282.455 58.9406L280.986 64.5471C280.853 65.2146 280.052 65.7485 279.384 65.4815Z" fill="white"/>
<path d="M232.27 45.7253L231.336 49.5965L275.921 61.3434C276.588 61.4769 277.122 62.2778 276.855 62.9453L276.321 64.6806L279.258 65.4815C280.059 65.7485 280.86 65.2146 280.993 64.4136L282.462 58.8072L232.27 45.7253Z" fill="#B8D4F7"/>
<path d="M279.656 66.5494C279.389 66.5494 279.256 66.5494 278.989 66.4159L231.601 54.0015C230.266 53.6011 229.465 52.2662 229.865 51.0648L231.334 45.4583C231.467 44.9243 232.001 44.6574 232.535 44.7909L282.726 58.0062C283.26 58.1396 283.527 58.6736 283.394 59.2075L282.059 64.6805C281.925 65.348 281.525 65.8819 280.991 66.1489C280.591 66.4159 280.19 66.5494 279.656 66.5494ZM233.069 46.9267L231.867 51.5987C231.867 51.8657 232.001 52.1327 232.134 52.1327L279.523 64.5471C279.656 64.5471 279.79 64.5471 279.923 64.5471C279.923 64.5471 280.057 64.4136 280.19 64.2801L281.391 59.608L233.069 46.9267Z" fill="#D1D6DD"/>
<path d="M285.392 59.6079L229.594 44.9242L231.863 36.381C232.264 34.9126 233.732 34.1117 235.067 34.5122L285.792 47.8609C287.261 48.2614 288.061 49.7298 287.661 51.0647L285.392 59.6079Z" fill="#B8D4F7"/>
<path d="M279.785 58.1395L229.594 44.9242L231.463 37.8494L280.453 50.6642C281.12 50.7977 281.654 51.5986 281.387 52.2661L279.785 58.1395Z" fill="white"/>
<path d="M285.396 60.676C285.262 60.676 285.262 60.676 285.129 60.676L229.198 45.9923C228.664 45.8588 228.397 45.3249 228.53 44.7909L230.799 36.2477C231.333 34.2454 233.336 33.1775 235.338 33.5779L286.063 46.9267C288.066 47.4607 289.134 49.463 288.733 51.4653L286.464 60.0085C286.33 60.2755 286.197 60.5425 286.063 60.676C285.663 60.5425 285.529 60.676 285.396 60.676ZM230.666 44.257L284.595 58.4067L286.597 50.7979C286.864 49.8635 286.33 48.929 285.396 48.7956L234.671 35.4468C233.736 35.1798 232.802 35.7138 232.668 36.6482L230.666 44.257Z" fill="#D1D6DD"/>
<path d="M279.923 17.9597C281.925 10.4844 276.986 3.0091 269.244 1.80771C263.37 1.00679 257.497 4.34398 255.361 9.95047C253.893 13.5546 254.293 17.2923 255.761 20.496C256.963 22.8988 257.23 25.8355 256.429 28.5053L253.492 39.3178L267.241 42.922L270.045 32.1095C270.712 29.4397 272.314 26.9034 274.583 25.3016C277.12 23.5662 278.988 21.03 279.923 17.9597Z" fill="white"/>
<path d="M269.109 1.80805C268.175 1.67456 267.24 1.67456 266.439 1.67456C271.779 4.34432 274.849 10.4848 273.247 16.6252C272.446 19.8289 270.444 22.3652 268.041 24.1005C265.772 25.7024 264.17 28.1052 263.502 30.9084L260.699 41.3205L267.24 43.0558L270.043 32.2433C270.711 29.5735 272.313 27.0373 274.582 25.4354C277.118 23.7001 278.987 21.1638 279.788 17.9601C281.79 10.4848 276.985 2.87595 269.109 1.80805Z" fill="#B8D4F7"/>
<path d="M267.249 43.9901C267.115 43.9901 267.115 43.9901 266.982 43.9901L253.233 40.386C252.699 40.2525 252.432 39.7185 252.565 39.1846L255.502 28.2386C256.169 25.7023 255.902 23.166 254.835 21.0302C253.099 17.4261 252.832 13.4214 254.301 9.68377C256.57 3.67681 262.977 0.0726401 269.251 1.00706C273.256 1.54101 276.727 3.8103 278.996 7.1475C281.132 10.4847 281.933 14.6228 280.865 18.3605C280.064 21.5642 278.061 24.5009 275.258 26.3697C273.256 27.7046 271.788 29.9739 271.12 32.5102L268.317 43.3227C268.183 43.5897 268.05 43.8567 267.916 43.9901C267.516 43.8567 267.382 43.9901 267.249 43.9901ZM254.701 38.6506L266.448 41.7209L268.984 31.8427C269.785 28.7725 271.521 26.2363 273.923 24.5009C276.326 22.8991 278.061 20.4963 278.729 17.693C279.53 14.3558 278.996 10.8852 277.127 8.08191C275.258 5.14518 272.321 3.27635 268.851 2.87589C263.511 1.94147 258.172 5.14518 256.169 10.2177C254.968 13.4214 255.102 16.8921 256.57 19.9623C257.905 22.4986 258.172 25.5688 257.371 28.639L254.701 38.6506Z" fill="#D1D6DD"/>
<path d="M288.999 69.3524H287.13C286.596 69.3524 286.062 68.9519 286.062 68.2845C286.062 67.7505 286.463 67.2166 287.13 67.2166H288.999C289.533 67.2166 290.067 67.617 290.067 68.2845C290.067 68.9519 289.667 69.3524 288.999 69.3524Z" fill="#D1D6DD"/>
<path d="M295.273 69.3524H293.404C292.87 69.3524 292.336 68.9519 292.336 68.2845C292.336 67.7505 292.736 67.2166 293.404 67.2166H295.273C295.807 67.2166 296.341 67.617 296.341 68.2845C296.207 68.9519 295.807 69.3524 295.273 69.3524Z" fill="#D1D6DD"/>
<path d="M291.267 73.3574C290.733 73.3574 290.199 72.957 290.199 72.2895V70.4207C290.199 69.8867 290.6 69.3528 291.267 69.3528C291.801 69.3528 292.335 69.7532 292.335 70.4207V72.2895C292.202 72.957 291.801 73.3574 291.267 73.3574Z" fill="#D1D6DD"/>
<path d="M291.267 67.2168C290.733 67.2168 290.199 66.8163 290.199 66.1489V64.2801C290.199 63.7461 290.6 63.2122 291.267 63.2122C291.801 63.2122 292.335 63.6126 292.335 64.2801V66.1489C292.202 66.8163 291.801 67.2168 291.267 67.2168Z" fill="#D1D6DD"/>
<path d="M222.256 61.3436H220.521C219.987 61.3436 219.453 60.9432 219.453 60.2757C219.453 59.7418 219.854 59.3413 220.521 59.3413H222.39C222.924 59.3413 223.458 59.7418 223.458 60.4092C223.324 60.9432 222.79 61.3436 222.256 61.3436Z" fill="#D1D6DD"/>
<path d="M228.53 61.3433H226.662C226.128 61.3433 225.594 60.9429 225.594 60.2754C225.594 59.7415 225.994 59.2075 226.662 59.2075H228.53C229.064 59.2075 229.598 59.608 229.598 60.2754C229.465 60.9429 229.064 61.3433 228.53 61.3433Z" fill="#D1D6DD"/>
<path d="M224.525 65.3481C223.991 65.3481 223.457 64.9477 223.457 64.2802V62.4114C223.457 61.8775 223.857 61.3435 224.525 61.3435C225.059 61.3435 225.593 61.744 225.593 62.4114V64.2802C225.459 64.9477 225.059 65.3481 224.525 65.3481Z" fill="#D1D6DD"/>
<path d="M224.525 59.2073C223.991 59.2073 223.457 58.8068 223.457 58.1394V56.2705C223.457 55.7366 223.857 55.2026 224.525 55.2026C225.059 55.2026 225.593 55.6031 225.593 56.2705V58.1394C225.459 58.8068 225.059 59.2073 224.525 59.2073Z" fill="#D1D6DD"/>
<path d="M211.577 42.6554H209.841C209.307 42.6554 208.773 42.2549 208.773 41.5875C208.773 41.0535 209.174 40.6531 209.841 40.6531H211.71C212.244 40.6531 212.778 41.0535 212.778 41.721C212.645 42.2549 212.111 42.6554 211.577 42.6554Z" fill="#D1D6DD"/>
<path d="M217.847 42.6554H215.978C215.444 42.6554 214.91 42.2549 214.91 41.5875C214.91 41.0535 215.444 40.6531 215.978 40.6531H217.847C218.381 40.6531 218.915 41.0535 218.915 41.721C218.781 42.2549 218.381 42.6554 217.847 42.6554Z" fill="#D1D6DD"/>
<path d="M213.845 46.6602C213.311 46.6602 212.777 46.2597 212.777 45.5923V43.7234C212.777 43.1895 213.178 42.6555 213.845 42.6555C214.379 42.6555 214.913 43.056 214.913 43.7234V45.5923C214.78 46.2597 214.379 46.6602 213.845 46.6602Z" fill="#D1D6DD"/>
<path d="M213.845 40.5193C213.311 40.5193 212.777 40.1189 212.777 39.4514V37.5826C212.777 37.0487 213.178 36.6482 213.845 36.6482C214.379 36.6482 214.913 37.0487 214.913 37.7161V39.5849C214.78 40.1189 214.379 40.5193 213.845 40.5193Z" fill="#D1D6DD"/>
<path d="M240.941 22.6317H239.072C238.538 22.6317 238.004 22.2312 238.004 21.6973C238.004 21.1633 238.404 20.6294 239.072 20.6294H240.941C241.475 20.6294 242.009 21.0299 242.009 21.6973C242.009 22.2312 241.608 22.6317 240.941 22.6317Z" fill="#D1D6DD"/>
<path d="M247.222 22.6317H245.353C244.819 22.6317 244.285 22.2312 244.285 21.6973C244.285 21.1633 244.686 20.6294 245.353 20.6294H247.222C247.756 20.6294 248.29 21.0299 248.29 21.6973C248.156 22.2312 247.756 22.6317 247.222 22.6317Z" fill="#D1D6DD"/>
<path d="M243.212 26.6365C242.678 26.6365 242.145 26.236 242.145 25.5686V23.6997C242.145 23.1658 242.545 22.6318 243.212 22.6318C243.746 22.6318 244.28 23.0323 244.28 23.6997V25.5686C244.147 26.236 243.746 26.6365 243.212 26.6365Z" fill="#D1D6DD"/>
<path d="M243.212 20.4961C242.678 20.4961 242.145 20.0956 242.145 19.4282V17.5594C242.145 17.0254 242.545 16.4915 243.212 16.4915C243.746 16.4915 244.28 16.8919 244.28 17.5594V19.4282C244.147 19.9621 243.746 20.4961 243.212 20.4961Z" fill="#D1D6DD"/>
<path d="M230.261 6.61365H228.392C227.858 6.61365 227.324 6.21318 227.324 5.54574C227.458 5.01179 227.858 4.61133 228.526 4.61133H230.394C230.928 4.61133 231.462 5.01179 231.462 5.67923C231.329 6.21318 230.795 6.61365 230.261 6.61365Z" fill="#D1D6DD"/>
<path d="M236.542 6.61365H234.673C234.139 6.61365 233.605 6.21318 233.605 5.54574C233.605 5.01179 234.139 4.61133 234.673 4.61133H236.542C237.076 4.61133 237.61 5.01179 237.61 5.67923C237.477 6.21318 237.076 6.61365 236.542 6.61365Z" fill="#D1D6DD"/>
<path d="M232.533 10.6182C231.999 10.6182 231.465 10.2178 231.465 9.55032V7.81497C231.465 7.28102 231.865 6.74707 232.533 6.74707C233.067 6.74707 233.601 7.14753 233.601 7.81497V9.6838C233.467 10.2178 233.067 10.6182 232.533 10.6182Z" fill="#D1D6DD"/>
<path d="M232.533 4.47759C231.999 4.47759 231.465 4.07713 231.465 3.40969V1.67435C231.465 1.00691 231.865 0.606445 232.533 0.606445C233.067 0.606445 233.601 1.00691 233.601 1.67435V3.54318C233.467 3.94364 233.067 4.47759 232.533 4.47759Z" fill="#D1D6DD"/>
<path d="M280.991 37.3155H279.123C278.589 37.3155 278.055 36.915 278.055 36.2476C278.055 35.7136 278.455 35.1797 279.123 35.1797H280.991C281.525 35.1797 282.059 35.5802 282.059 36.2476C282.059 36.915 281.659 37.3155 280.991 37.3155Z" fill="#D1D6DD"/>
<path d="M287.265 37.3155H285.396C284.862 37.3155 284.328 36.915 284.328 36.2476C284.328 35.7136 284.729 35.1797 285.396 35.1797H287.265C287.799 35.1797 288.333 35.5802 288.333 36.2476C288.199 36.915 287.799 37.3155 287.265 37.3155Z" fill="#D1D6DD"/>
<path d="M283.263 41.3203C282.729 41.3203 282.195 40.9198 282.195 40.2524V38.3836C282.195 37.8496 282.596 37.3157 283.263 37.3157C283.797 37.3157 284.331 37.7161 284.331 38.3836V40.2524C284.198 40.9198 283.797 41.3203 283.263 41.3203Z" fill="#D1D6DD"/>
<path d="M283.263 35.1797C282.729 35.1797 282.195 34.7792 282.195 34.1118V32.243C282.195 31.709 282.596 31.175 283.263 31.175C283.797 31.175 284.331 31.5755 284.331 32.243V34.1118C284.198 34.7792 283.797 35.1797 283.263 35.1797Z" fill="#D1D6DD"/>
<path d="M257.364 82.7012H238.943C238.409 82.7012 237.875 82.3008 237.875 81.6333C237.875 81.0994 238.275 80.5654 238.943 80.5654H257.364C257.898 80.5654 258.432 80.9659 258.432 81.6333C258.299 82.3008 257.898 82.7012 257.364 82.7012Z" fill="#D1D6DD"/>
<path d="M233.598 82.7012H230.662C230.128 82.7012 229.594 82.3008 229.594 81.6333C229.594 81.0994 229.994 80.5654 230.662 80.5654H233.598C234.132 80.5654 234.666 80.9659 234.666 81.6333C234.533 82.3008 234.132 82.7012 233.598 82.7012Z" fill="#D1D6DD"/>
</g>
<rect x="5.55828" y="12.6415" width="303.439" height="187.848" rx="11.3006" stroke="#D1D6DD" stroke-width="0.35875"/>
<path d="M36.9848 172.383C59.8255 159.822 88.4762 147.597 111.317 135.036C118.879 130.846 122.045 140.723 123.413 146.266C123.995 148.632 123.786 152.721 121.167 154.277C120.14 154.873 119.131 155.293 118.039 155.921C83.2609 174.939 49.2859 194.054 44.0215 194.856C38.8471 195.695 35.2442 191.931 33.4165 186.617C31.5474 181.406 33.1833 174.53 36.9848 172.383Z" fill="white"/>
<path d="M54.2083 191.202C49.0843 193.761 45.5294 195.287 44.0036 195.551C39.1146 196.331 35.0411 193.213 32.8302 187.005C30.7899 181.293 32.6817 174.033 36.7716 171.824C48.2042 165.449 61.2846 159.166 73.9708 153.08C86.657 146.994 99.713 140.64 111.104 134.369C113.313 133.183 115.307 132.935 117.132 133.768C121.054 135.549 122.971 141.572 124.105 145.991C124.712 148.43 124.583 152.982 121.528 154.84C120.895 155.239 120.238 155.567 119.647 155.863C119.253 156.06 118.793 156.289 118.399 156.486C111.795 160.116 105.258 163.713 98.8275 167.174C80.2005 177.474 64.1937 186.216 54.2083 191.202ZM37.2517 172.997C33.753 174.91 32.2161 181.411 33.9226 186.376C35.9385 192.017 39.5372 194.873 43.942 194.252C48.1009 193.588 71.3434 180.817 98.2817 166.034C104.622 162.535 111.225 158.905 117.853 155.346C118.313 155.116 118.707 154.919 119.167 154.69C119.758 154.395 120.349 154.099 120.982 153.7C123.208 152.339 123.473 148.633 122.898 146.511C121.861 142.375 120.042 136.636 116.595 135.117C115.13 134.436 113.49 134.59 111.609 135.613C100.152 141.916 87.0714 148.199 74.4096 154.357C61.7234 160.443 48.643 166.726 37.2517 172.997Z" fill="#929292"/>
<path d="M72.5466 175.038C73.1038 180.662 73.34 186.274 73.1353 192.457C75.8749 191.416 78.6724 190.781 81.1992 190.282C80.614 188.32 80.5953 186.159 80.534 184.105C80.4191 180.255 80.076 176.434 79.5049 172.642C77.4211 171.874 74.8943 172.372 72.5466 175.038Z" fill="#B8D4F7"/>
<path d="M81.4213 190.944C81.3537 190.978 81.3537 190.978 81.286 191.012C78.9216 191.516 76.0336 192.112 73.2962 193.152C73.0934 193.255 72.908 193.175 72.7225 193.095C72.6047 192.981 72.4619 192.793 72.4542 192.537C72.6817 187.127 72.4959 181.667 71.8911 175.203C71.8835 174.947 71.9685 174.73 72.0787 174.587C74.3568 171.957 77.0517 171.026 79.7325 171.924C79.918 172.003 80.0608 172.191 80.1361 172.414C80.7068 176.204 81.0071 180.131 81.1219 183.978L81.1623 184.565C81.2159 186.361 81.252 188.339 81.7364 190.003C81.8117 190.225 81.7942 190.408 81.7092 190.624C81.599 190.767 81.5565 190.875 81.4213 190.944ZM73.7738 191.521C76.0379 190.721 78.4023 190.217 80.4036 189.81C80.012 188.186 79.9835 186.465 79.9801 184.817L79.9397 184.23C79.8074 180.565 79.5148 176.895 78.9943 173.253C77.5186 172.872 75.417 172.982 73.2239 175.396C73.7206 181.306 73.9664 186.476 73.7738 191.521Z" fill="#929292"/>
<path d="M84.5859 166.308C87.4438 170.766 90.5222 174.938 94.2424 179.133C91.7037 180.766 89.3582 182.736 87.2834 184.569C86.5628 182.676 85.326 181.132 84.182 179.627C82.0369 176.806 80.0698 173.807 78.2805 170.632C79.3773 168.252 81.3845 166.454 84.5859 166.308Z" fill="#B8D4F7"/>
<path d="M87.5401 185.123C87.4049 185.191 87.2446 185.186 87.1519 185.146C86.9665 185.066 86.8487 184.952 86.7735 184.73C86.1539 183.135 85.1036 181.671 84.0358 180.39L83.725 179.94C81.5819 177.12 79.5914 174.05 77.7361 170.911C77.5932 170.723 77.5856 170.467 77.7382 170.216C79.1143 167.262 81.558 165.589 84.689 165.478C84.9169 165.449 85.0347 165.563 85.1776 165.751C88.4867 170.844 91.5122 174.865 94.8005 178.493C94.9433 178.681 94.9935 178.829 94.9336 179.119C94.9161 179.302 94.7635 179.553 94.5606 179.656C92.0242 181.288 89.6382 183.365 87.6754 185.054C87.6078 185.088 87.5401 185.123 87.5401 185.123ZM78.9608 170.551C80.6982 173.576 82.6135 176.424 84.6388 179.129L84.9497 179.579C85.8996 180.747 86.807 182.023 87.5367 183.475C89.1866 182.032 91.1746 180.417 93.2127 178.95C90.16 175.55 87.3449 171.683 84.254 167C81.3335 167.265 79.784 169.005 78.9608 170.551Z" fill="#929292"/>
<path d="M87.7348 158.18C88.7995 158.071 90.0593 159.934 90.3659 161.072C90.7396 162.176 90.7776 163.451 90.2882 164.562C89.6471 165.922 88.2197 166.818 86.9633 166.593C87.9143 168.008 88.286 169.803 87.5355 171.305C87.0212 172.342 86.0887 173.074 85.0565 173.511C84.5194 173.783 83.9573 173.982 83.4125 174C82.8677 174.017 82.3153 173.78 81.9817 173.259C81.4977 175.316 80.0259 177.011 78.3992 177.318C76.7724 177.626 75.0654 176.766 74.2237 175.209C72.5928 176.899 69.9436 177.207 68.3557 175.77C66.7678 174.333 66.5422 171.342 67.8223 169.313C66.4717 169.739 65.0983 169.4 64.2545 168.535C63.4108 167.669 62.9623 166.344 62.8993 164.995C62.8267 164.084 62.8883 163.104 63.2262 162.242C63.564 161.381 64.2452 160.604 65.0337 160.377C63.1599 159.257 62.3224 156.318 63.3436 153.989C64.2976 151.694 66.9164 150.366 69.4021 151.434C68.9038 149.962 69.6466 148.205 70.6809 147.077C71.2105 146.549 71.765 146.096 72.3942 145.863C73.8541 145.295 75.4691 146.115 76.2436 147.706C77.1609 146.465 78.4464 145.381 79.8717 145.176C81.297 144.971 82.795 145.677 83.2933 147.15C83.7169 148.401 83.8242 148.951 83.4593 150.429C84.5856 149.341 86.8817 149.384 88.5845 151.625C90.1032 153.788 89.172 156.847 87.7348 158.18Z" fill="#B8D4F7"/>
<path d="M79.5223 177.611C79.1866 177.782 78.826 177.878 78.4654 177.975C76.8389 178.282 75.1819 177.57 74.0718 176.15C72.14 177.647 69.5085 177.774 67.8959 176.263C66.3331 174.9 65.9138 172.267 66.6911 170.148C65.6017 170.183 64.522 169.781 63.7953 169.029C62.9516 168.163 62.3862 166.725 62.2236 165.083C62.1434 163.916 62.2473 162.828 62.6522 161.933C62.9056 161.287 63.3181 160.647 63.8054 160.227C62.2599 158.683 61.7908 155.902 62.7696 153.681C63.8328 151.245 66.2249 149.945 68.5782 150.39C68.5402 149.116 69.2905 147.615 70.173 146.736C70.8119 146.067 71.4584 145.653 72.1547 145.386C73.6394 144.892 75.2465 145.457 76.2396 146.764C77.2737 145.636 78.4996 144.842 79.7655 144.631C81.5512 144.329 83.2158 145.296 83.8559 146.955C84.1798 147.912 84.312 148.535 84.2676 149.333C84.6283 149.237 85.056 149.106 85.4664 149.157C86.8071 149.167 88.1034 149.975 89.0966 151.283C89.8309 152.29 90.1624 153.502 89.999 154.878C89.8702 155.892 89.5151 156.935 88.9509 157.825C89.9462 158.441 90.7629 159.924 91.0618 160.807C91.5352 162.206 91.4887 163.695 90.9322 164.84C90.4006 166.058 89.2917 166.966 88.1428 167.289C88.8002 168.767 88.7787 170.33 88.2048 171.656C87.6905 172.693 86.808 173.572 85.4403 174.179C84.9032 174.452 84.274 174.684 83.503 174.73C83.1175 174.753 82.6821 174.629 82.381 174.437C81.6978 175.905 80.7309 176.999 79.5223 177.611ZM73.9342 174.581C74.0013 174.547 74.1356 174.479 74.2276 174.518C74.3868 174.524 74.5709 174.603 74.6457 174.824C75.4125 176.16 76.9102 176.866 78.2433 176.622C79.6435 176.343 80.9635 174.897 81.3207 173.164C81.3803 172.875 81.5568 172.699 81.8253 172.563C82.0517 172.534 82.3029 172.579 82.4448 172.766C82.6116 173.027 83.0047 173.258 83.4574 173.201C83.9349 173.218 84.4721 172.945 84.8749 172.741C85.9491 172.196 86.6129 171.601 87.0005 170.887C87.4899 169.777 87.3101 168.315 86.4512 166.94C86.3093 166.753 86.2768 166.425 86.4284 166.175C86.58 165.926 86.8485 165.79 87.0998 165.835C88.1048 166.015 89.2634 165.255 89.7106 164.252C90.0484 163.391 90.0851 162.338 89.7363 161.307C89.3626 160.203 88.3197 158.748 87.6407 158.834C87.4143 158.862 87.1133 158.67 87.0385 158.449C86.9389 158.155 87.0656 157.832 87.2421 157.656C87.9481 156.953 88.4624 155.916 88.5663 154.829C88.6355 154.104 88.63 153.158 87.9206 152.224C87.1863 151.217 86.191 150.6 85.1438 150.528C84.5742 150.471 84.0122 150.67 83.6592 151.022C83.4155 151.232 83.1892 151.26 82.913 151.141C82.704 150.989 82.6044 150.694 82.6639 150.405C82.9194 149.068 82.8619 148.666 82.4633 147.489C82.0896 146.385 80.8431 145.723 79.6443 145.9C78.5376 146.116 77.3789 146.876 76.3946 148.151C76.2181 148.327 76.0167 148.429 75.8575 148.424C75.9073 148.571 75.6983 148.418 75.6236 148.198C75.0159 146.867 73.6774 146.166 72.4862 146.598C71.9913 146.762 71.4791 147.108 71.0167 147.602C70.2013 148.446 69.451 149.948 69.9167 151.092C70.0164 151.386 69.9568 151.675 69.7803 151.851C69.6038 152.026 69.3353 152.163 69.0591 152.044C66.8249 151.021 64.617 152.399 63.8071 154.19C62.9799 156.162 63.6255 158.766 65.2651 159.66C65.4742 159.812 65.641 160.073 65.5814 160.362C65.5219 160.65 65.3703 160.9 65.0768 160.962C64.5148 161.161 63.9853 161.688 63.6897 162.442C63.4363 163.088 63.3249 163.921 63.3975 164.832C63.5276 166.146 63.9013 167.25 64.6031 167.929C65.3298 168.682 66.4939 168.868 67.6429 168.544C67.9364 168.481 68.1205 168.56 68.2873 168.821C68.4541 169.081 68.3945 169.37 68.2429 169.619C67.1569 171.291 67.325 173.879 68.6787 175.09C70.0325 176.301 72.3207 176.089 73.775 174.575C73.8919 174.689 73.867 174.615 73.9342 174.581Z" fill="#929292"/>
<path d="M78.4043 166.616C81.1838 165.207 82.6009 161.594 81.5695 158.547C80.5381 155.5 77.4488 154.173 74.6694 155.582C71.8899 156.991 70.4728 160.604 71.5042 163.651C72.5356 166.698 75.6249 168.026 78.4043 166.616Z" fill="white"/>
<path d="M78.6244 167.279C75.5377 168.844 72.0416 167.342 70.8963 163.958C69.7509 160.574 71.3546 156.486 74.4412 154.921C77.5279 153.355 81.024 154.858 82.1694 158.242C83.4067 161.665 81.7782 165.68 78.6244 167.279ZM74.8894 156.245C72.4067 157.504 71.1406 160.731 72.0619 163.453C72.9832 166.175 75.7432 167.361 78.226 166.102C80.7087 164.843 81.9748 161.615 81.0535 158.894C80.1073 156.098 77.3722 154.986 74.8894 156.245Z" fill="#929292"/>
<path d="M119.449 157.035C115.215 159.174 110.802 153.014 109.896 151.288C107.938 147.645 107.235 143.456 107.767 139.605C108.115 137.332 108.853 135.736 110.023 134.707C110.339 134.46 110.689 134.546 110.927 134.775C111.122 135.114 111.018 135.516 110.796 135.803C109.941 136.584 109.332 137.853 109.088 139.724C108.548 143.317 109.261 147.064 111.049 150.443C111.074 150.517 111.193 150.632 111.244 150.781C112.43 150.269 113.609 149.499 114.668 148.614C113.463 146.951 112.711 144.972 112.368 142.786C112.251 141.971 112.144 140.714 112.854 139.744C113.496 138.808 114.733 138.445 115.763 138.886C116.606 139.247 117.251 139.969 117.735 140.686C119.975 143.748 121.99 150.857 121.221 154.479C120.892 155.868 120.217 156.472 119.696 156.822C119.585 156.966 119.517 157 119.449 157.035ZM112.041 151.951C113.603 153.958 116.466 156.969 119.061 155.658C119.129 155.623 119.129 155.623 119.197 155.589C119.539 155.416 119.779 154.945 119.968 154.325C120.66 151.18 118.754 144.628 116.751 141.794C116.318 141.227 115.86 140.584 115.23 140.378C114.762 140.178 114.071 140.265 113.738 140.695C113.472 141.092 113.42 141.643 113.562 142.532C113.904 144.718 114.725 146.663 115.998 148.292C116.117 148.406 116.193 148.63 116.176 148.814C116.158 148.998 116.072 149.216 115.936 149.285C114.722 150.422 113.407 151.261 112.041 151.951Z" fill="#929292"/>
<path d="M90.4624 68.3397L95.7874 86.1247L81.9375 76.4939L90.4624 68.3397Z" fill="#EAF2FF"/>
<path d="M86.2 72.4168L95.7874 86.1247L81.9375 76.4939L86.2 72.4168Z" fill="white"/>
<path d="M96.3927 86.9977C96.073 87.3035 95.579 87.3601 95.211 87.0882L81.361 77.4574C81.0802 77.3101 80.9252 76.8343 80.8575 76.4831C80.7897 76.132 81.0223 75.7016 81.2354 75.4977L89.7603 67.3435C89.9734 67.1397 90.3803 66.9585 90.6611 67.1058C90.942 67.2531 91.31 67.5251 91.3778 67.8762L96.7028 85.6612C96.7512 86.2389 96.7124 86.692 96.3927 86.9977ZM83.6084 76.3477L93.7585 83.4858L89.7889 70.4359L83.6084 76.3477Z" fill="#D1D6DD"/>
<path d="M47.5563 9.54247L41.1626 15.6581L38.5479 11.9196C37.5891 10.5488 37.7637 8.5099 38.9359 7.38871L41.0671 5.35017C42.2393 4.22897 43.9828 4.43318 44.9415 5.80397L47.5563 9.54247Z" fill="white"/>
<path d="M48.1654 10.4154L41.7717 16.531C41.3455 16.9387 40.6578 16.9726 40.222 16.3495L37.6072 12.611C36.2998 10.7417 36.5326 8.02322 38.2376 6.39238L40.3688 4.35385C41.9673 2.82494 44.3985 2.99529 45.793 4.98916L48.4078 8.72767C48.6499 9.32807 48.5916 10.0077 48.1654 10.4154ZM41.2103 13.9483L46.0055 9.36157L44.088 6.61999C43.4779 5.74768 42.4028 5.73615 41.7634 6.34772L39.6322 8.38625C38.8862 9.09974 38.8764 10.3571 39.3993 11.1048L41.3168 13.8464L41.2103 13.9483Z" fill="#D1D6DD"/>
<path d="M74.771 45.9091L66.2461 54.0632L81.9347 76.4943L90.4596 68.3401L74.771 45.9091Z" fill="#EAF2FF"/>
<path d="M81.6452 68.4518L78.4483 71.5096L66.2461 54.0632L70.5085 49.9862L81.8392 66.1864C82.275 66.8094 82.178 67.9422 81.6452 68.4518Z" fill="white"/>
<path d="M91.066 69.2124L82.5411 77.3666C82.1149 77.7743 81.4271 77.8081 80.9913 77.1851L65.3027 54.754C64.9541 54.2555 64.9252 53.4513 65.458 52.9417L73.9829 44.7875C74.4091 44.3798 75.0968 44.3459 75.5326 44.969L91.2212 67.4001C91.5505 68.1251 91.4923 68.8047 91.066 69.2124ZM81.9796 74.7838L88.9061 68.1586L74.5249 47.5968L67.5984 54.222L81.9796 74.7838Z" fill="#D1D6DD"/>
<path d="M48.6226 8.52333L40.0977 16.6775L66.2453 54.0626L74.7702 45.9084L48.6226 8.52333Z" fill="#EAF2FF"/>
<path d="M65.9558 46.0201L62.759 49.0779L40.0977 16.6775L44.3601 12.6004L66.1498 43.7546C66.5856 44.3777 66.4886 45.5104 65.9558 46.0201Z" fill="white"/>
<path d="M75.3793 46.7818L66.8544 54.936C66.4282 55.3437 65.7404 55.3776 65.3046 54.7545L39.157 17.3694C38.8084 16.8709 38.8666 16.1913 39.3994 15.6817L47.9243 7.52749C48.3505 7.11979 49.0382 7.08593 49.474 7.70902L75.6217 45.0941C75.8638 45.6945 75.8056 46.3741 75.3793 46.7818ZM66.293 52.3532L73.2194 45.728L48.3792 10.2122L41.4527 16.8374L66.293 52.3532Z" fill="#D1D6DD"/>
<path d="M59.7855 34.6579C59.3592 35.0656 58.6715 35.0995 58.2357 34.4764L43.4187 13.2915C43.0701 12.793 43.1283 12.1134 43.6611 11.6038C44.0873 11.1961 44.775 11.1622 45.2108 11.7853L60.0279 32.9702C60.2699 33.5706 60.2117 34.2502 59.7855 34.6579Z" fill="#D1D6DD"/>
<defs>
<clipPath id="clip0_9860_53145">
<rect width="87.4345" height="87.4345" fill="white" transform="translate(208.777 0.606689)"/>
</clipPath>
</defs>
</svg>