<svg width="500" height="299" viewBox="0 0 500 299" fill="none" xmlns="http://www.w3.org/2000/svg">
<g clip-path="url(#clip0_9531_53365)">
<path d="M37.2776 23.1618L9.74219 144.27L175.43 181.941L202.965 60.8327L37.2776 23.1618Z" fill="#A3AEBB"/>
<path d="M40.4341 28.1541L14.7344 141.189L172.417 177.04L198.117 64.0051L40.4341 28.1541Z" fill="#EAF2FF"/>
<path d="M20.9986 113.481L14.707 141.153L172.39 177.004L178.681 149.332L20.9986 113.481Z" fill="#D1D6DD"/>
<path d="M60.6506 117.582C61.3583 114.539 60.1552 111.567 57.9613 109.727C59.0229 108.665 59.8014 107.392 60.1552 105.835C60.7921 102.862 59.7306 99.9608 57.6075 98.1208C58.1737 97.6254 58.7398 96.9884 59.1644 96.2807C62.1368 95.7146 64.6845 93.45 65.3922 90.2653C66.2414 86.5145 64.2599 82.7637 60.7921 81.2775C60.7921 81.2068 60.7921 81.2068 60.8629 81.136C61.8537 76.8898 59.1644 72.6436 54.9182 71.6528C50.6721 70.6621 46.4259 73.3513 45.4351 77.5975C45.2228 78.5175 45.2228 79.4375 45.2935 80.3575C45.152 80.2868 45.0105 80.2868 44.7982 80.216C40.552 79.2252 36.3058 81.9145 35.315 86.1607C34.6073 89.133 35.7396 92.1053 37.9335 93.9453C36.3058 95.0069 35.0319 96.7054 34.6073 98.7577C34.3242 100.032 34.3242 101.376 34.6781 102.508C31.0688 102.508 27.8134 104.985 27.0349 108.665C26.4688 111.001 27.1057 113.407 28.4503 115.176L57.9613 121.899C59.306 120.838 60.2967 119.352 60.6506 117.582Z" fill="#D1D6DD"/>
<path d="M164.479 159.762C165.186 156.719 163.983 153.746 161.789 151.906C162.851 150.845 163.629 149.571 163.983 148.014C164.62 145.042 163.559 142.14 161.436 140.3C162.002 139.805 162.568 139.168 162.993 138.46C165.965 137.894 168.513 135.629 169.22 132.445C170.07 128.694 168.088 124.943 164.62 123.457C164.62 123.386 164.62 123.386 164.691 123.315C165.682 119.069 162.993 114.823 158.746 113.832C154.5 112.841 150.254 115.531 149.263 119.777C149.051 120.697 149.051 121.617 149.122 122.537C148.98 122.466 148.839 122.466 148.626 122.395C144.38 121.404 140.134 124.094 139.143 128.34C138.435 131.312 139.568 134.285 141.762 136.125C140.134 137.186 138.86 138.885 138.435 140.937C138.152 142.211 138.152 143.555 138.506 144.688C134.897 144.688 131.642 147.165 130.863 150.845C130.297 153.18 130.934 155.586 132.278 157.355L161.789 164.079C163.134 163.017 164.125 161.531 164.479 159.762Z" fill="#D1D6DD"/>
<path d="M150.037 69.8129L89.7412 56.1543L72.9688 129.826L109.769 138.177L133.265 143.555L156.689 148.863L168.579 96.7762L150.037 69.8129Z" fill="#006FFD"/>
<path d="M49.4727 124.518L61.362 72.4314L89.7407 56.1543L108.282 83.1176L96.3931 135.133L49.4727 124.518Z" fill="#636464"/>
<path d="M139.355 73.4927L146.079 83.259L150.962 61.6034L142.469 59.6926L139.355 73.4927Z" fill="#636464"/>
<path d="M150.942 61.6128L146.031 83.2122L150.241 84.1692L155.152 62.5698L150.942 61.6128Z" fill="#D1D6DD"/>
<path d="M108.283 83.1096L96.4531 135.141L156.766 148.854L168.596 96.8223L108.283 83.1096Z" fill="#B8D4F7"/>
<path d="M64.9362 78.527L62.4102 89.6372L66.8266 90.6413L69.3527 79.5311L64.9362 78.527Z" fill="#EAF2FF"/>
<path d="M70.3893 79.7252L67.8633 90.8354L72.2798 91.8396L74.8058 80.7294L70.3893 79.7252Z" fill="#EAF2FF"/>
<path d="M62.1471 90.753L59.6211 101.863L64.0376 102.867L66.5636 91.7572L62.1471 90.753Z" fill="#EAF2FF"/>
<path d="M67.5858 92.0294L65.0586 103.14L69.4751 104.144L72.0023 93.034L67.5858 92.0294Z" fill="#EAF2FF"/>
<path d="M59.3385 103.05L56.8125 114.16L61.229 115.164L63.755 104.054L59.3385 103.05Z" fill="#EAF2FF"/>
<path d="M64.8581 104.262L62.332 115.372L66.7485 116.376L69.2746 105.266L64.8581 104.262Z" fill="#EAF2FF"/>
<path d="M82.7682 82.6112L80.2422 93.7214L84.6587 94.7256L87.1847 83.6153L82.7682 82.6112Z" fill="#EAF2FF"/>
<path d="M88.2928 83.8329L85.7656 94.9431L90.1821 95.9477L92.7093 84.8375L88.2928 83.8329Z" fill="#EAF2FF"/>
<path d="M79.9714 94.8392L77.4453 105.949L81.8618 106.954L84.3878 95.8434L79.9714 94.8392Z" fill="#EAF2FF"/>
<path d="M85.487 96.0509L82.9609 107.161L87.3774 108.165L89.9035 97.055L85.487 96.0509Z" fill="#EAF2FF"/>
<path d="M77.1823 107.065L74.6562 118.175L79.0727 119.179L81.5988 108.069L77.1823 107.065Z" fill="#EAF2FF"/>
<path d="M82.6823 108.346L80.1562 119.456L84.5727 120.46L87.0988 109.35L82.6823 108.346Z" fill="#EAF2FF"/>
<path d="M112.624 89.3739L110.098 100.484L114.514 101.488L117.04 90.378L112.624 89.3739Z" fill="#EAF2FF"/>
<path d="M118.139 90.588L115.613 101.698L120.03 102.702L122.556 91.5921L118.139 90.588Z" fill="#EAF2FF"/>
<path d="M109.827 101.599L107.301 112.709L111.717 113.713L114.243 102.603L109.827 101.599Z" fill="#EAF2FF"/>
<path d="M115.34 102.892L112.812 114.002L117.229 115.007L119.756 103.897L115.34 102.892Z" fill="#EAF2FF"/>
<path d="M107.026 113.896L104.5 125.006L108.916 126.01L111.443 114.9L107.026 113.896Z" fill="#EAF2FF"/>
<path d="M112.542 115.108L110.016 126.218L114.432 127.222L116.958 116.112L112.542 115.108Z" fill="#EAF2FF"/>
<path d="M127.618 92.7309L116.918 139.794L136.654 144.281L147.355 97.2182L127.618 92.7309Z" fill="#636464"/>
<path d="M127.797 102.127L119.121 140.288L134.51 143.787L143.186 105.626L127.797 102.127Z" fill="#A3AEBB"/>
<path d="M139.134 97.4834L134.958 96.4926C131.845 95.7849 128.801 97.6957 128.094 100.81L143.451 104.277C144.159 101.234 142.248 98.1911 139.134 97.4834Z" fill="#EAF2FF"/>
<path d="M127.311 122.112C127.17 122.678 126.603 123.103 125.967 122.961C125.4 122.82 124.976 122.253 125.117 121.616C125.259 121.05 125.825 120.626 126.462 120.767C127.028 120.909 127.453 121.475 127.311 122.112Z" fill="#EAF2FF"/>
<path d="M35.7175 115.461L33.1758 126.64L69.5428 134.909L72.0846 123.729L35.7175 115.461Z" fill="#EAF2FF"/>
<path d="M38.5959 127.903L36.1797 138.53L38.1809 138.985L40.5971 128.358L38.5959 127.903Z" fill="#636464"/>
<path d="M62.0803 133.266L59.6641 143.893L61.6653 144.348L64.0815 133.721L62.0803 133.266Z" fill="#636464"/>
<path d="M41.6153 125.65C41.1907 125.438 40.9076 125.155 40.6953 124.943L41.403 124.023C41.6153 124.235 41.8984 124.518 42.1815 124.66C42.5353 124.872 42.8184 125.014 43.1723 125.084C43.5969 125.155 43.88 125.155 44.0923 125.084C44.3046 125.014 44.4461 124.872 44.4461 124.66C44.4461 124.518 44.4461 124.377 44.3753 124.235C44.3046 124.093 44.163 124.023 44.0215 123.881C43.88 123.81 43.6676 123.669 43.3846 123.527C42.9599 123.315 42.6061 123.103 42.323 122.961C42.0399 122.82 41.8276 122.537 41.6861 122.253C41.5446 121.97 41.4738 121.617 41.6153 121.263C41.6861 120.909 41.8276 120.626 42.1107 120.413C42.3938 120.201 42.6769 119.989 43.1015 119.918C43.5261 119.847 44.0215 119.847 44.5169 119.989C44.8707 120.06 45.2246 120.201 45.5784 120.413C45.9323 120.555 46.2154 120.767 46.4277 121.05L45.7907 121.97C45.2954 121.546 44.8 121.263 44.2338 121.121C43.88 121.05 43.5261 121.05 43.3138 121.121C43.1015 121.192 42.9599 121.333 42.8892 121.546C42.8184 121.758 42.8892 121.9 43.1015 122.041C43.3138 122.183 43.5969 122.395 44.0215 122.537C44.4461 122.749 44.8 122.961 45.083 123.103C45.3661 123.244 45.5784 123.527 45.72 123.81C45.8615 124.093 45.9323 124.447 45.7907 124.801C45.72 125.155 45.5784 125.438 45.2954 125.65C45.0123 125.863 44.7292 126.075 44.3046 126.146C43.88 126.217 43.3846 126.217 42.8892 126.075C42.4646 126.075 42.0399 125.863 41.6153 125.65Z" fill="#B8D4F7"/>
<path d="M50.6731 126.5L47.9131 125.863L47.0638 126.995L45.6484 126.641L49.6823 121.263L51.0269 121.546L52.3716 128.127L50.9562 127.774L50.6731 126.5ZM50.4608 125.297L50.0362 122.82L48.55 124.872L50.4608 125.297Z" fill="#B8D4F7"/>
<path d="M54.3529 122.395L55.7683 122.678L54.636 127.49L57.6083 128.198L57.3252 129.33L52.9375 128.34L54.3529 122.395Z" fill="#B8D4F7"/>
<path d="M62.9886 129.472L62.7055 130.604L58.1055 129.543L59.4501 123.598L63.9794 124.589L63.6963 125.721L60.5824 125.014L60.2993 126.287L63.0594 126.924L62.847 127.986L60.087 127.349L59.8039 128.764L62.9886 129.472Z" fill="#B8D4F7"/>
<path d="M448.108 101.21L277.914 131.656L300.16 256.009L470.353 225.563L448.108 101.21Z" fill="#D1D6DD"/>
<path d="M444.731 106.055L282.758 135.031L303.533 251.163L465.506 222.188L444.731 106.055Z" fill="#EAF2FF"/>
<path d="M458.786 184.77L296.812 213.745L303.517 251.225L465.49 222.25L458.786 184.77Z" fill="#D1D6DD"/>
<path d="M448.466 183.611C452.217 179.294 442.521 167.193 442.521 167.193C442.521 167.193 442.309 167.9 441.955 169.103C441.318 167.829 440.61 166.626 439.903 165.565C443.653 163.088 439.973 156.152 437.143 151.906C438.133 146.74 430.419 137.115 430.419 137.115C430.419 137.115 429.641 139.38 429.075 142.352C427.589 137.257 422.706 131.171 422.706 131.171C422.706 131.171 420.795 136.903 420.582 141.928C419.45 140.3 418.601 139.238 418.601 139.238C418.601 139.238 413.505 154.525 419.026 156.86C418.389 160.469 418.035 164.716 419.592 166.909C418.389 171.863 417.256 179.86 421.715 180.851C421.078 185.239 421.219 189.98 424.475 190.83L449.81 186.3C449.457 185.38 448.961 184.46 448.466 183.611Z" fill="#D1D6DD"/>
<path d="M376.915 140.937L320.512 151.057L333.038 221.119L389.442 210.999L428.011 204.134L417.113 142.848L376.915 140.937Z" fill="#006FFD"/>
<path d="M320.514 151.057L322.849 164.149L305.652 171.439L315.135 224.304L333.04 221.119L353.705 217.439L371.61 214.184L360.641 152.897L320.514 151.057Z" fill="#636464"/>
<path d="M416.788 142.835L360.707 152.867L371.674 214.173L427.755 204.141L416.788 142.835Z" fill="#B8D4F7"/>
<path d="M329.726 173.469L313.285 176.411L314.295 182.054L330.736 179.112L329.726 173.469Z" fill="#EAF2FF"/>
<path d="M331.144 181.398L314.703 184.339L315.713 189.982L332.154 187.041L331.144 181.398Z" fill="#EAF2FF"/>
<path d="M332.558 189.324L316.117 192.266L317.127 197.909L333.568 194.967L332.558 189.324Z" fill="#EAF2FF"/>
<path d="M333.972 197.25L317.531 200.191L318.541 205.834L334.982 202.892L333.972 197.25Z" fill="#EAF2FF"/>
<path d="M335.394 205.178L318.953 208.119L319.963 213.762L336.404 210.821L335.394 205.178Z" fill="#EAF2FF"/>
<path d="M354.707 169.019L338.266 171.96L339.275 177.603L355.716 174.661L354.707 169.019Z" fill="#EAF2FF"/>
<path d="M356.129 176.943L339.688 179.884L340.697 185.527L357.138 182.586L356.129 176.943Z" fill="#EAF2FF"/>
<path d="M357.539 184.87L341.098 187.811L342.107 193.454L358.548 190.513L357.539 184.87Z" fill="#EAF2FF"/>
<path d="M358.957 192.8L342.516 195.741L343.525 201.384L359.966 198.443L358.957 192.8Z" fill="#EAF2FF"/>
<path d="M360.379 200.726L343.938 203.667L344.947 209.31L361.388 206.369L360.379 200.726Z" fill="#EAF2FF"/>
<path d="M412.25 158.758L395.809 161.699L396.818 167.342L413.259 164.401L412.25 158.758Z" fill="#EAF2FF"/>
<path d="M413.664 166.683L397.223 169.624L398.232 175.267L414.673 172.326L413.664 166.683Z" fill="#EAF2FF"/>
<path d="M415.082 174.608L398.641 177.549L399.65 183.192L416.091 180.251L415.082 174.608Z" fill="#EAF2FF"/>
<path d="M416.496 182.536L400.055 185.478L401.064 191.12L417.505 188.179L416.496 182.536Z" fill="#EAF2FF"/>
<path d="M417.914 190.463L401.473 193.404L402.482 199.047L418.923 196.106L417.914 190.463Z" fill="#EAF2FF"/>
<path d="M390.281 162.637L370.078 166.251L378.428 212.927L398.631 209.313L390.281 162.637Z" fill="#636464"/>
<path d="M388.245 165.492L383.09 166.414L390.53 208.005L395.685 207.083L388.245 165.492Z" fill="#EAF2FF"/>
<path d="M378.194 188.919C378.265 189.485 377.911 189.981 377.345 190.122C376.779 190.193 376.283 189.839 376.142 189.273C376.071 188.707 376.425 188.211 376.991 188.07C377.557 187.999 378.123 188.353 378.194 188.919Z" fill="#EAF2FF"/>
<path d="M368.639 197.34C368.639 197.34 362.128 216.873 371.824 215.174C381.519 213.405 368.639 197.34 368.639 197.34Z" fill="#D1D6DD"/>
<path d="M341.534 202.153C341.534 202.153 335.023 221.685 344.718 219.987C354.414 218.288 341.534 202.153 341.534 202.153Z" fill="#D1D6DD"/>
<path d="M436.125 198.504L410 203.177L412.655 218.016L438.779 213.343L436.125 198.504Z" fill="#636464"/>
<path d="M418.194 217.074L415.477 217.559L416.959 225.85L419.676 225.364L418.194 217.074Z" fill="#EAF2FF"/>
<path d="M435.904 213.855L433.188 214.341L434.671 222.631L437.387 222.145L435.904 213.855Z" fill="#EAF2FF"/>
<path d="M415.551 211.353C415.126 211.282 414.773 211.212 414.49 210.999L414.702 209.867C414.985 210.009 415.268 210.15 415.622 210.15C415.976 210.221 416.259 210.221 416.613 210.15C416.966 210.079 417.179 210.009 417.391 209.867C417.533 209.725 417.603 209.584 417.533 209.372C417.533 209.23 417.462 209.089 417.32 209.018C417.179 208.947 417.037 208.876 416.896 208.876C416.754 208.876 416.542 208.805 416.259 208.805C415.834 208.805 415.48 208.735 415.197 208.664C414.914 208.593 414.631 208.452 414.419 208.239C414.206 208.027 414.065 207.744 413.994 207.319C413.923 206.965 413.994 206.612 414.065 206.329C414.206 206.045 414.419 205.762 414.702 205.55C414.985 205.338 415.41 205.196 415.905 205.055C416.259 204.984 416.613 204.984 416.896 204.984C417.25 204.984 417.533 205.125 417.816 205.196L417.603 206.329C417.037 206.116 416.542 206.045 416.046 206.116C415.693 206.187 415.48 206.258 415.339 206.47C415.197 206.612 415.126 206.824 415.197 207.036C415.268 207.249 415.339 207.39 415.551 207.461C415.763 207.532 416.046 207.602 416.471 207.602C416.896 207.602 417.25 207.673 417.533 207.744C417.816 207.815 418.099 207.956 418.311 208.169C418.523 208.381 418.665 208.664 418.736 209.089C418.807 209.442 418.736 209.725 418.665 210.079C418.523 210.362 418.311 210.645 418.028 210.858C417.745 211.07 417.32 211.212 416.825 211.353C416.4 211.424 415.976 211.424 415.551 211.353Z" fill="#EAF2FF"/>
<path d="M423.197 208.735L420.721 209.159L420.508 210.504L419.234 210.716L420.508 204.276L421.711 204.064L425.179 209.655L423.905 209.867L423.197 208.735ZM422.631 207.744L421.357 205.621L420.933 208.098L422.631 207.744Z" fill="#EAF2FF"/>
<path d="M424.68 203.639L425.883 203.427L426.732 208.31L429.421 207.815L429.634 208.947L425.741 209.655L424.68 203.639Z" fill="#EAF2FF"/>
<path d="M434.235 206.965L434.447 208.098L430.343 208.805L429.281 202.79L433.315 202.082L433.527 203.215L430.697 203.71L430.909 204.984L433.386 204.559L433.598 205.621L431.121 206.045L431.334 207.461L434.235 206.965Z" fill="#EAF2FF"/>
<path d="M435.088 209.25L414.676 212.902L415.1 215.271L435.512 211.619L435.088 209.25Z" fill="#EAF2FF"/>
<path d="M296.958 269.739L183.231 269.81C176.508 269.81 171.129 264.36 171.129 257.708L171.059 21.6197C171.059 14.8965 176.508 9.51804 183.16 9.51804L296.887 9.44727C303.611 9.44727 308.989 14.8965 308.989 21.5489L309.06 257.566C309.06 264.289 303.681 269.739 296.958 269.739Z" fill="#A3AEBB"/>
<path d="M298.869 15.3918H264.617C263.06 15.3918 261.857 16.5949 261.857 18.1519C261.857 19.7088 260.654 20.9119 259.097 20.9119H220.881C219.324 20.9119 218.121 19.7088 218.121 18.1519C218.121 16.5949 216.918 15.3918 215.361 15.3918H181.108C178.49 15.3918 176.438 17.5149 176.438 20.0627L176.579 259.123C176.579 261.742 178.702 263.794 181.25 263.794L299.011 263.723C301.629 263.723 303.682 261.6 303.682 259.052L303.54 19.9919C303.611 17.4442 301.488 15.3918 298.869 15.3918Z" fill="#EAF2FF"/>
<path opacity="0.3" d="M230.216 15.3917C230.216 16.7364 229.083 17.8687 227.739 17.8687C226.394 17.8687 225.262 16.7364 225.262 15.3917C225.262 14.0471 226.394 12.9148 227.739 12.9148C229.083 12.9148 230.216 14.0471 230.216 15.3917Z" fill="#EAF2FF"/>
<path opacity="0.3" d="M237.294 15.3917C237.294 16.7364 236.161 17.8687 234.817 17.8687C233.472 17.8687 232.34 16.7364 232.34 15.3917C232.34 14.0471 233.472 12.9148 234.817 12.9148C236.232 12.9148 237.294 14.0471 237.294 15.3917Z" fill="#EAF2FF"/>
<path opacity="0.3" d="M253.973 17.1723C254.94 16.205 254.94 14.6367 253.973 13.6695C253.006 12.7022 251.437 12.7022 250.47 13.6695C249.503 14.6367 249.503 16.205 250.47 17.1723C251.437 18.1396 253.006 18.1396 253.973 17.1723Z" fill="#EAF2FF"/>
<path d="M303.677 47.2378H176.504V243.483H303.677V47.2378Z" fill="#D1D6DD"/>
<path d="M205.871 47.238L205.942 189.202" stroke="#EAF2FF" stroke-width="8.05793" stroke-miterlimit="10"/>
<path d="M205.871 87.9307H303.604" stroke="#EAF2FF" stroke-width="8.05793" stroke-miterlimit="10"/>
<path d="M303.607 127.916H205.944L176.504 127.987" stroke="#EAF2FF" stroke-width="8.05793" stroke-miterlimit="10"/>
<path d="M205.945 188.707H237.438L262.986 163.088V127.916" stroke="#EAF2FF" stroke-width="8.05793" stroke-miterlimit="10"/>
<path d="M262.984 163.089H303.606" stroke="#EAF2FF" stroke-width="8.05793" stroke-miterlimit="10"/>
<path d="M237.438 188.707V243.483" stroke="#EAF2FF" stroke-width="8.05793" stroke-miterlimit="10"/>
<path d="M237.438 218.077H303.678" stroke="#EAF2FF" stroke-width="8.05793" stroke-miterlimit="10"/>
<path d="M249.82 47.238V87.9307" stroke="#EAF2FF" stroke-width="8.05793" stroke-miterlimit="10"/>
<path d="M273.105 47.238V87.9307" stroke="#EAF2FF" stroke-width="8.05793" stroke-miterlimit="10"/>
<path d="M236.239 90.3366C237.23 88.7797 237.796 86.9397 237.796 85.0289C237.796 79.5796 232.984 74.9796 227.534 75.1919C222.227 75.4042 217.98 79.7212 217.98 85.0997C217.98 87.0104 218.547 88.8505 219.537 90.4074L225.977 101.731C226.827 103.217 229.021 103.217 229.87 101.731L236.239 90.3366Z" fill="#006FFD"/>
<path d="M227.885 81.1367L223.852 82.9767V90.0537H226.612V86.3029H229.089V90.0537H231.849V82.9767L227.885 81.1367Z" fill="#EAF2FF"/>
<path d="M271.333 217.44C272.324 215.883 272.89 214.043 272.89 212.132C272.89 206.683 268.077 202.083 262.628 202.295C257.32 202.507 253.074 206.824 253.074 212.203C253.074 214.113 253.64 215.953 254.631 217.51L261.071 228.834C261.92 230.32 264.114 230.32 264.964 228.834L271.333 217.44Z" fill="#B8D4F7"/>
<path d="M262.987 208.24L259.023 210.08V217.157H261.783V213.406H264.19V217.157L267.02 217.086V210.08L262.987 208.24Z" fill="#EAF2FF"/>
<path d="M209.487 200.03C210.831 197.836 211.681 195.289 211.61 192.529C211.539 184.815 204.887 178.375 197.173 178.658C189.671 178.941 183.727 185.098 183.727 192.599C183.727 195.359 184.505 197.907 185.85 200.03L194.908 215.953C196.111 218.076 199.154 218.076 200.357 215.953L209.487 200.03Z" fill="#A3AEBB"/>
<path d="M197.662 187.009L192 189.627V199.535H195.963V194.369H199.36V199.535H203.323V189.556L197.662 187.009Z" fill="#EAF2FF"/>
<path d="M190.87 38.7457L186.836 35.4903L190.87 32.3057" stroke="#A3AEBB" stroke-width="1.42198" stroke-miterlimit="10"/>
<path d="M288.531 32.3059H295.467" stroke="#A3AEBB" stroke-width="1.42198" stroke-miterlimit="10"/>
<path d="M288.531 35.4905H295.467" stroke="#A3AEBB" stroke-width="1.42198" stroke-miterlimit="10"/>
<path d="M288.605 38.675H295.47" stroke="#A3AEBB" stroke-width="1.42198" stroke-miterlimit="10"/>
<path d="M218.686 35.9148C218.332 35.7733 218.049 35.7025 217.766 35.4902L218.19 34.6409C218.403 34.7825 218.686 34.924 218.969 34.9948C219.252 35.0656 219.535 35.1363 219.889 35.1363C220.243 35.1363 220.455 35.0656 220.596 34.9948C220.738 34.924 220.809 34.7825 220.809 34.5702C220.809 34.4286 220.738 34.3579 220.667 34.2871C220.596 34.2163 220.455 34.1456 220.313 34.0748C220.172 34.004 219.959 34.004 219.747 33.9332C219.393 33.8625 219.039 33.7209 218.827 33.6502C218.615 33.5794 218.403 33.4379 218.19 33.2255C218.049 33.0132 217.907 32.7302 217.907 32.4471C217.907 32.164 217.978 31.8809 218.119 31.6686C218.261 31.4563 218.544 31.244 218.827 31.1024C219.11 30.9609 219.535 30.8901 219.959 30.8901C220.313 30.8901 220.596 30.9609 220.879 31.0317C221.163 31.1024 221.446 31.244 221.658 31.3855L221.304 32.2348C220.809 31.9517 220.384 31.8101 219.889 31.8101C219.535 31.8101 219.323 31.8809 219.181 31.9517C219.039 32.0225 218.969 32.164 218.969 32.3763C218.969 32.5178 219.039 32.6594 219.252 32.7302C219.464 32.8009 219.676 32.8717 220.101 32.9425C220.455 33.0132 220.809 33.1548 221.021 33.2255C221.233 33.2963 221.446 33.4379 221.658 33.6502C221.8 33.8625 221.941 34.1456 221.941 34.4286C221.941 34.7117 221.87 34.9948 221.729 35.2071C221.587 35.4194 221.304 35.6317 221.021 35.7733C220.667 35.9148 220.313 35.9856 219.889 35.9856C219.464 36.0563 219.11 35.9856 218.686 35.9148Z" fill="#A3AEBB"/>
<path d="M226.681 35.0658V35.9858H222.789V30.9612H226.611V31.8812H223.992V32.9427H226.328V33.8627H223.992V34.9951L226.681 35.0658Z" fill="#A3AEBB"/>
<path d="M230.858 34.9243H228.522L228.098 35.9858H226.895L229.159 30.9612H230.291L232.556 35.9858H231.353L230.858 34.9243ZM230.504 34.0043L229.725 32.0935L228.947 34.0043H230.504Z" fill="#A3AEBB"/>
<path d="M236.239 35.9858L235.249 34.5704H235.178H234.187V35.9858H233.055V30.9612H235.249C235.673 30.9612 236.098 31.032 236.381 31.1735C236.735 31.315 236.947 31.5273 237.159 31.8104C237.301 32.0935 237.442 32.3766 237.442 32.8012C237.442 33.155 237.372 33.5089 237.159 33.792C236.947 34.0751 236.735 34.2874 236.381 34.4289L237.513 36.0566L236.239 35.9858ZM235.956 32.0935C235.744 31.952 235.532 31.8812 235.178 31.8812H234.258V33.6504H235.178C235.532 33.6504 235.815 33.5797 235.956 33.4381C236.169 33.2966 236.239 33.0843 236.239 32.8012C236.239 32.5181 236.169 32.3058 235.956 32.0935Z" fill="#A3AEBB"/>
<path d="M239.352 35.7027C238.928 35.4904 238.645 35.2073 238.362 34.7827C238.149 34.3581 238.008 33.9335 238.008 33.4381C238.008 32.9427 238.149 32.5181 238.362 32.0934C238.574 31.6688 238.928 31.3857 239.352 31.1734C239.777 30.9611 240.202 30.8196 240.768 30.8196C241.192 30.8196 241.617 30.8903 241.971 31.0319C242.325 31.1734 242.608 31.3857 242.82 31.6688L242.042 32.3765C241.688 31.9519 241.263 31.8104 240.768 31.8104C240.485 31.8104 240.202 31.8811 239.919 32.0227C239.706 32.1642 239.494 32.3765 239.352 32.5888C239.211 32.8011 239.14 33.0842 239.14 33.4381C239.14 33.7211 239.211 34.0042 239.352 34.2873C239.494 34.4996 239.706 34.7119 239.919 34.8535C240.131 34.995 240.414 35.0658 240.768 35.0658C241.263 35.0658 241.688 34.8535 242.042 34.4996L242.82 35.2073C242.608 35.4904 242.254 35.7027 241.9 35.8442C241.546 35.9858 241.122 36.0565 240.697 36.0565C240.202 36.0565 239.777 35.915 239.352 35.7027Z" fill="#A3AEBB"/>
<path d="M248.197 30.9612V35.9858H247.065V33.9335H244.8V35.9858H243.668V30.9612H244.8V32.9427H247.065V30.9612H248.197Z" fill="#A3AEBB"/>
<path d="M249.328 30.9612H250.46V35.9858H249.328V30.9612Z" fill="#A3AEBB"/>
<path d="M256.338 30.9612V35.9858H255.418L252.941 32.9427V35.9858H251.809V30.9612H252.799L255.276 34.0043V30.9612H256.338Z" fill="#A3AEBB"/>
<path d="M260.868 33.3673H261.929V35.4196C261.646 35.6319 261.363 35.7735 261.009 35.915C260.655 36.0565 260.301 36.0565 259.948 36.0565C259.452 36.0565 258.957 35.915 258.532 35.7027C258.108 35.4904 257.824 35.2073 257.541 34.7827C257.329 34.3581 257.188 33.9335 257.188 33.4381C257.188 32.9427 257.329 32.5181 257.541 32.0934C257.754 31.6688 258.108 31.3857 258.532 31.1734C258.957 30.9611 259.452 30.8196 259.948 30.8196C260.372 30.8196 260.797 30.8903 261.151 31.0319C261.504 31.1734 261.788 31.3857 262.071 31.6688L261.292 32.3765C260.938 32.0227 260.514 31.8104 260.018 31.8104C259.664 31.8104 259.381 31.8811 259.169 32.0227C258.886 32.1642 258.744 32.3765 258.603 32.5888C258.461 32.8011 258.391 33.0842 258.391 33.4381C258.391 33.7211 258.461 34.0042 258.603 34.2873C258.744 34.4996 258.957 34.7119 259.169 34.8535C259.381 34.995 259.664 35.0658 260.018 35.0658C260.372 35.0658 260.655 34.995 260.938 34.8535L260.868 33.3673Z" fill="#A3AEBB"/>
<path d="M349.536 86.3737C349.394 87.7891 349.111 89.1337 348.616 90.4075C347.767 92.6722 346.493 94.7245 344.865 96.423C341.539 99.8199 336.726 101.731 331.631 101.306C322.573 100.457 315.92 92.4599 316.699 83.4013C317.477 74.3428 325.545 67.6904 334.603 68.4689C343.662 69.3181 350.314 77.3151 349.536 86.3737Z" stroke="#A3AEBB" stroke-width="2.1231" stroke-miterlimit="10"/>
<path d="M367.367 102.792C375.859 99.8906 381.237 92.0352 381.379 83.5428L421.576 69.8842C421.93 69.7427 422.213 69.4596 422.425 69.1057L425.256 62.2411C425.539 61.6041 425.256 60.8964 424.69 60.5426L418.321 56.7918C417.967 56.5795 417.542 56.5795 417.188 56.6502L412.235 58.3487C411.881 58.4903 411.598 58.7026 411.456 59.0564L409.899 62.1703C409.545 62.8072 408.767 63.0903 408.059 62.8072L405.865 61.7457C405.228 61.3918 404.379 61.6749 404.025 62.3826L402.964 64.5765C402.61 65.2134 401.831 65.4965 401.124 65.2134L398.01 63.6565C397.656 63.5149 397.302 63.4441 396.948 63.5857L393.622 64.718C393.268 64.8595 392.985 65.0718 392.844 65.4257L391.287 68.5396C390.933 69.1765 390.154 69.4596 389.447 69.1765L385.837 67.4073H385.767L384.634 64.0103C384.351 63.1611 383.36 62.8072 382.653 63.3026L374.727 68.2565C369.348 63.1611 361.422 61.1795 353.92 63.7272C343.092 67.4073 337.289 79.155 340.969 89.9121C344.791 100.669 356.539 106.472 367.367 102.792ZM350.099 81.2781C352.859 80.3581 355.831 81.8443 356.751 84.5336C357.671 87.2936 356.185 90.2659 353.496 91.1859C350.736 92.1059 347.763 90.6198 346.843 87.9305C345.852 85.1705 347.339 82.1981 350.099 81.2781Z" fill="#929292"/>
<path d="M362.061 80.6412C368.925 74.8381 371.048 65.4965 368.005 57.5702L400.418 30.1115C400.701 29.8285 400.913 29.4746 400.913 29.1208L400.984 21.7607C400.984 21.053 400.489 20.4868 399.852 20.4161L392.562 19.213C392.209 19.1422 391.784 19.2838 391.501 19.4961L387.467 22.893C387.184 23.1053 387.042 23.4592 386.972 23.813L386.689 27.2808C386.618 28.0592 385.981 28.5546 385.202 28.5546L382.796 28.3423C382.018 28.2715 381.381 28.8377 381.31 29.6162L381.098 32.0223C381.027 32.8008 380.39 33.2962 379.612 33.2962L376.144 33.0131C375.79 33.0131 375.436 33.0839 375.153 33.2962L372.464 35.5608C372.181 35.7731 372.039 36.127 371.968 36.4808L371.685 39.9486C371.615 40.727 370.978 41.2224 370.199 41.2224L366.236 40.8686L363.971 38.1793C363.405 37.5424 362.344 37.5424 361.848 38.2501L356.257 45.7517C349.393 42.9917 341.254 44.0532 335.239 49.1486C326.534 56.5087 325.473 69.6011 332.833 78.3058C340.334 86.9397 353.356 88.0013 362.061 80.6412ZM338.14 66.9119C340.334 65.0011 343.66 65.2842 345.571 67.5488C347.482 69.7427 347.199 73.0689 344.934 74.9796C342.74 76.8904 339.414 76.6073 337.503 74.3427C335.663 72.1488 335.876 68.8227 338.14 66.9119Z" fill="#A3AEBB"/>
<path d="M342.389 115.955L329.297 86.0198C329.226 85.8075 328.943 85.5952 328.731 85.5952L296.531 80.2875C296.248 80.2167 295.964 80.3582 295.823 80.5705L267.444 117.088C267.161 117.442 267.232 117.937 267.586 118.149L282.094 129.402C282.447 129.685 282.943 129.614 283.155 129.26L301.414 105.765C301.697 105.411 302.192 105.34 302.475 105.623L316.346 116.38C316.7 116.663 316.771 117.159 316.488 117.442L298.229 140.937C297.946 141.291 298.017 141.786 298.371 141.999L312.878 153.251C313.232 153.534 313.728 153.463 313.94 153.11L342.319 116.592C342.46 116.522 342.46 116.239 342.389 115.955ZM316.983 101.306C314.718 99.5368 314.294 96.2107 316.063 93.946C317.832 91.6814 321.159 91.2568 323.423 93.026C325.688 94.7953 326.112 98.1215 324.343 100.386C322.574 102.651 319.248 103.075 316.983 101.306Z" fill="#006FFD"/>
<path d="M229.604 229.379C247.375 211.608 247.375 182.796 229.604 165.025C211.833 147.255 183.021 147.255 165.251 165.025C147.48 182.796 147.48 211.608 165.251 229.379C183.021 247.149 211.833 247.149 229.604 229.379Z" stroke="#A3AEBB" stroke-width="10.6155" stroke-miterlimit="10"/>
<path d="M154.633 212.556L122.008 224.233" stroke="#A3AEBB" stroke-width="10.6155" stroke-miterlimit="10"/>
<path d="M122.004 224.233L67.0156 243.907" stroke="#B8D4F7" stroke-width="16.9848" stroke-miterlimit="10" stroke-linecap="round" stroke-linejoin="round"/>
</g>
<defs>
<clipPath id="clip0_9531_53365">
<rect width="498.998" height="298.79" fill="white" transform="translate(0.5 0.104736)"/>
</clipPath>
</defs>
</svg>