<svg width="693" height="609" viewBox="0 0 693 609" fill="none" xmlns="http://www.w3.org/2000/svg">
<g filter="url(#filter0_d_3219_5123)">
<rect x="70" y="45.4337" width="318.272" height="411.362" rx="27.0427" fill="white"/>
<rect x="96.0024" y="243.054" width="116.492" height="8.32084" rx="4.16042" fill="#D9D9D9"/>
<rect x="96.0024" y="126.042" width="101.93" height="3.64037" rx="1.82018" fill="#D9D9D9"/>
<rect x="96.0024" y="195.729" width="101.93" height="3.64037" rx="1.82018" fill="#D9D9D9"/>
<rect x="96.0024" y="207.17" width="266.267" height="3.64037" rx="1.82018" fill="#D9D9D9"/>
<rect x="96.0024" y="263.856" width="101.93" height="3.64037" rx="1.82018" fill="#D9D9D9"/>
<rect x="96.0024" y="279.978" width="170.577" height="3.64037" rx="1.82018" fill="#D9D9D9"/>
<rect x="96.0024" y="296.099" width="170.577" height="3.64037" rx="1.82018" fill="#D9D9D9"/>
<rect x="96.0024" y="135.923" width="276.668" height="3.64037" rx="1.82018" fill="#D9D9D9"/>
<rect x="96.0024" y="145.804" width="276.668" height="3.64037" rx="1.82018" fill="#D9D9D9"/>
<rect x="96.0024" y="155.685" width="276.668" height="3.64037" rx="1.82018" fill="#D9D9D9"/>
<rect x="96.0024" y="165.566" width="223.623" height="3.64037" rx="1.82018" fill="#D9D9D9"/>
<path d="M114.006 89.0175H110.263C110.156 88.4038 109.96 87.8601 109.673 87.3864C109.386 86.9061 109.029 86.4992 108.602 86.1656C108.175 85.832 107.688 85.5819 107.141 85.4151C106.601 85.2416 106.017 85.1549 105.39 85.1549C104.276 85.1549 103.288 85.4351 102.428 85.9955C101.567 86.5492 100.893 87.3631 100.406 88.4371C99.9194 89.5045 99.6759 90.8088 99.6759 92.3498C99.6759 93.9175 99.9194 95.2384 100.406 96.3125C100.9 97.3799 101.574 98.1871 102.428 98.7341C103.288 99.2745 104.272 99.5447 105.38 99.5447C105.994 99.5447 106.567 99.4646 107.101 99.3045C107.641 99.1378 108.125 98.8943 108.552 98.574C108.986 98.2538 109.349 97.8602 109.643 97.3932C109.943 96.9262 110.15 96.3926 110.263 95.7921L114.006 95.8122C113.866 96.7862 113.562 97.7001 113.095 98.554C112.635 99.4079 112.031 100.162 111.284 100.816C110.537 101.463 109.663 101.97 108.662 102.337C107.661 102.697 106.551 102.877 105.33 102.877C103.529 102.877 101.921 102.46 100.507 101.626C99.0922 100.792 97.9781 99.5881 97.1642 98.0137C96.3503 96.4393 95.9434 94.5513 95.9434 92.3498C95.9434 90.1416 96.3537 88.2537 97.1742 86.686C97.9948 85.1116 99.1122 83.9074 100.527 83.0735C101.941 82.2396 103.542 81.8226 105.33 81.8226C106.471 81.8226 107.531 81.9828 108.512 82.303C109.493 82.6232 110.367 83.0935 111.134 83.7139C111.901 84.3277 112.531 85.0815 113.025 85.9755C113.525 86.8627 113.852 87.8768 114.006 89.0175ZM123.95 102.897C122.449 102.897 121.148 102.567 120.047 101.906C118.947 101.246 118.093 100.322 117.486 99.1344C116.885 97.9469 116.585 96.5593 116.585 94.9716C116.585 93.3838 116.885 91.9929 117.486 90.7988C118.093 89.6046 118.947 88.6773 120.047 88.0169C121.148 87.3564 122.449 87.0262 123.95 87.0262C125.451 87.0262 126.752 87.3564 127.853 88.0169C128.953 88.6773 129.804 89.6046 130.404 90.7988C131.011 91.9929 131.315 93.3838 131.315 94.9716C131.315 96.5593 131.011 97.9469 130.404 99.1344C129.804 100.322 128.953 101.246 127.853 101.906C126.752 102.567 125.451 102.897 123.95 102.897ZM123.97 99.995C124.784 99.995 125.464 99.7715 126.011 99.3245C126.558 98.8709 126.965 98.2638 127.232 97.5033C127.506 96.7428 127.642 95.8955 127.642 94.9616C127.642 94.0209 127.506 93.1704 127.232 92.4098C126.965 91.6427 126.558 91.0322 126.011 90.5786C125.464 90.125 124.784 89.8981 123.97 89.8981C123.136 89.8981 122.442 90.125 121.889 90.5786C121.342 91.0322 120.931 91.6427 120.658 92.4098C120.391 93.1704 120.257 94.0209 120.257 94.9616C120.257 95.8955 120.391 96.7428 120.658 97.5033C120.931 98.2638 121.342 98.8709 121.889 99.3245C122.442 99.7715 123.136 99.995 123.97 99.995ZM138.012 93.5906V102.597H134.39V87.2263H137.852V89.8381H138.032C138.386 88.9775 138.949 88.2937 139.723 87.7867C140.504 87.2797 141.468 87.0262 142.615 87.0262C143.676 87.0262 144.6 87.253 145.387 87.7066C146.181 88.1603 146.795 88.8174 147.228 89.678C147.669 90.5386 147.885 91.5826 147.879 92.8101V102.597H144.256V93.3705C144.256 92.3431 143.989 91.5393 143.456 90.9589C142.929 90.3785 142.198 90.0883 141.264 90.0883C140.63 90.0883 140.067 90.2284 139.573 90.5086C139.086 90.7821 138.702 91.179 138.422 91.6994C138.149 92.2197 138.012 92.8501 138.012 93.5906ZM159.236 87.2263V90.0282H150.4V87.2263H159.236ZM152.582 83.5438H156.204V97.9736C156.204 98.4606 156.278 98.8342 156.425 99.0944C156.578 99.3479 156.778 99.5213 157.025 99.6147C157.272 99.7081 157.545 99.7548 157.845 99.7548C158.072 99.7548 158.279 99.7382 158.466 99.7048C158.659 99.6714 158.806 99.6414 158.906 99.6147L159.517 102.447C159.323 102.513 159.046 102.587 158.686 102.667C158.332 102.747 157.899 102.794 157.385 102.807C156.478 102.834 155.661 102.697 154.934 102.397C154.206 102.09 153.629 101.616 153.202 100.976C152.782 100.335 152.575 99.5347 152.582 98.574V83.5438ZM162.266 102.597V87.2263H165.778V89.7881H165.938C166.219 88.9008 166.699 88.217 167.379 87.7367C168.067 87.2497 168.85 87.0062 169.731 87.0062C169.931 87.0062 170.155 87.0162 170.402 87.0362C170.655 87.0495 170.865 87.0729 171.032 87.1062V90.4385C170.879 90.3851 170.635 90.3384 170.301 90.2984C169.975 90.2517 169.658 90.2284 169.351 90.2284C168.69 90.2284 168.097 90.3718 167.57 90.6587C167.049 90.9388 166.639 91.3291 166.339 91.8295C166.039 92.3298 165.888 92.9069 165.888 93.5606V102.597H162.266ZM177.586 102.907C176.612 102.907 175.735 102.734 174.955 102.387C174.181 102.033 173.567 101.513 173.113 100.826C172.666 100.138 172.443 99.2912 172.443 98.2838C172.443 97.4166 172.603 96.6994 172.923 96.1324C173.243 95.5653 173.68 95.1117 174.234 94.7715C174.788 94.4312 175.412 94.1744 176.105 94.0009C176.806 93.8208 177.53 93.6907 178.277 93.6107C179.177 93.5173 179.908 93.4339 180.468 93.3605C181.029 93.2804 181.436 93.1604 181.689 93.0002C181.949 92.8335 182.079 92.5766 182.079 92.2297V92.1697C182.079 91.4158 181.856 90.8321 181.409 90.4185C180.962 90.0049 180.318 89.7981 179.478 89.7981C178.59 89.7981 177.887 89.9915 177.366 90.3785C176.853 90.7654 176.506 91.2224 176.326 91.7494L172.943 91.2691C173.21 90.3351 173.65 89.5546 174.264 88.9275C174.878 88.2937 175.628 87.8201 176.516 87.5065C177.403 87.1863 178.384 87.0262 179.458 87.0262C180.198 87.0262 180.935 87.1129 181.669 87.2864C182.403 87.4598 183.073 87.7467 183.681 88.1469C184.288 88.5405 184.775 89.0776 185.142 89.758C185.515 90.4385 185.702 91.2891 185.702 92.3098V102.597H182.22V100.485H182.099C181.879 100.912 181.569 101.313 181.169 101.686C180.775 102.053 180.278 102.35 179.678 102.577C179.084 102.797 178.387 102.907 177.586 102.907ZM178.527 100.245C179.254 100.245 179.885 100.102 180.418 99.8149C180.952 99.5213 181.362 99.1344 181.649 98.6541C181.943 98.1738 182.089 97.6501 182.089 97.083V95.2718C181.976 95.3652 181.783 95.4519 181.509 95.532C181.242 95.612 180.942 95.6821 180.608 95.7421C180.275 95.8022 179.945 95.8555 179.618 95.9022C179.291 95.9489 179.007 95.9889 178.767 96.0223C178.227 96.0957 177.743 96.2158 177.316 96.3825C176.889 96.5493 176.552 96.7828 176.306 97.083C176.059 97.3766 175.935 97.7568 175.935 98.2238C175.935 98.8909 176.179 99.3946 176.666 99.7348C177.153 100.075 177.773 100.245 178.527 100.245ZM196.049 102.897C194.515 102.897 193.197 102.56 192.096 101.886C191.002 101.212 190.158 100.282 189.565 99.0944C188.977 97.9002 188.684 96.526 188.684 94.9716C188.684 93.4105 188.984 92.0329 189.585 90.8388C190.185 89.638 191.032 88.704 192.126 88.0369C193.227 87.3631 194.528 87.0262 196.029 87.0262C197.276 87.0262 198.381 87.2563 199.341 87.7167C200.309 88.1703 201.079 88.8141 201.653 89.648C202.226 90.4752 202.553 91.4425 202.633 92.5499H199.171C199.031 91.8094 198.697 91.1924 198.17 90.6987C197.65 90.1983 196.953 89.9482 196.079 89.9482C195.338 89.9482 194.688 90.1483 194.128 90.5486C193.567 90.9422 193.13 91.5092 192.817 92.2497C192.51 92.9902 192.356 93.8775 192.356 94.9115C192.356 95.9589 192.51 96.8595 192.817 97.6134C193.124 98.3606 193.554 98.9376 194.108 99.3446C194.668 99.7448 195.325 99.945 196.079 99.945C196.613 99.945 197.09 99.8449 197.51 99.6448C197.937 99.438 198.294 99.1411 198.581 98.7542C198.868 98.3672 199.064 97.8969 199.171 97.3432H202.633C202.547 98.4306 202.226 99.3946 201.673 100.235C201.119 101.069 200.365 101.723 199.411 102.196C198.457 102.663 197.336 102.897 196.049 102.897ZM213.283 87.2263V90.0282H204.447V87.2263H213.283ZM206.629 83.5438H210.251V97.9736C210.251 98.4606 210.324 98.8342 210.471 99.0944C210.625 99.3479 210.825 99.5213 211.072 99.6147C211.319 99.7081 211.592 99.7548 211.892 99.7548C212.119 99.7548 212.326 99.7382 212.513 99.7048C212.706 99.6714 212.853 99.6414 212.953 99.6147L213.563 102.447C213.37 102.513 213.093 102.587 212.733 102.667C212.379 102.747 211.946 102.794 211.432 102.807C210.525 102.834 209.707 102.697 208.98 102.397C208.253 102.09 207.676 101.616 207.249 100.976C206.829 100.335 206.622 99.5347 206.629 98.574V83.5438Z" fill="#636464"/>
<path fill-rule="evenodd" clip-rule="evenodd" d="M128.293 361.251C124.858 356.855 120.046 355.178 115.945 356.102C111.776 357.041 108.64 360.614 108.64 365.971C108.64 374.221 113.555 379.919 119.332 384.044C116.538 386.584 114.417 389.539 113.151 392.407C113.017 392.709 112.892 393.013 112.777 393.316H97.0902C96.317 393.316 95.6902 393.944 95.6902 394.719C95.6902 395.493 96.317 396.121 97.0902 396.121H111.986C111.793 397.212 111.747 398.276 111.874 399.277C112.152 401.452 113.262 403.334 115.364 404.387C117.603 405.508 119.757 405.407 121.671 404.516C123.516 403.658 125.073 402.1 126.342 400.401C127.337 399.069 128.207 397.58 128.94 396.121H160.09C160.863 396.121 161.49 395.493 161.49 394.719C161.49 393.944 160.863 393.316 160.09 393.316H130.212C130.701 392.12 131.075 391.045 131.328 390.223C131.959 388.168 132.695 384.236 132.853 379.757C133.155 379.661 133.449 379.575 133.732 379.497C135.65 378.972 137.037 378.871 137.946 379.016C138.821 379.157 139.069 379.478 139.162 379.706C139.294 380.031 139.337 380.718 138.846 381.914C138.214 383.45 137.894 384.857 138.198 385.981C138.368 386.608 138.738 387.158 139.323 387.509C139.876 387.84 140.485 387.912 141.015 387.879C142.046 387.814 143.172 387.331 144.21 386.705C145.281 386.059 146.397 385.175 147.43 384.14C148.359 383.21 149.313 382.361 150.21 381.696C151.126 381.017 151.902 380.591 152.482 380.418C152.765 380.333 152.938 380.329 153.023 380.34C153.082 380.347 153.093 380.358 153.099 380.365C153.158 380.422 153.439 380.8 153.439 382.097C153.439 384.5 154.08 386.389 155.807 387.081C156.59 387.394 157.396 387.36 158.078 387.218C158.765 387.074 159.432 386.8 160.016 386.507C160.707 386.161 160.988 385.319 160.642 384.626C160.296 383.933 159.455 383.653 158.764 383.999C158.298 384.232 157.87 384.396 157.507 384.472C157.139 384.549 156.94 384.514 156.847 384.477C156.815 384.464 156.239 384.236 156.239 382.097C156.239 380.59 155.95 379.214 155.035 378.339C154.027 377.374 152.72 377.421 151.685 377.729C150.647 378.038 149.564 378.685 148.544 379.441C147.505 380.211 146.447 381.159 145.45 382.157C144.558 383.05 143.619 383.788 142.765 384.303C142.571 384.42 142.387 384.522 142.214 384.61C141.532 384.959 140.924 384.419 141.168 383.693C141.239 383.481 141.327 383.244 141.435 382.982C142.046 381.495 142.291 379.964 141.755 378.647C141.179 377.233 139.89 376.488 138.389 376.247C136.922 376.012 135.095 376.216 132.993 376.792C132.952 376.803 132.91 376.815 132.868 376.826C132.731 371.484 131.636 365.529 128.293 361.251ZM127.168 393.316C127.84 391.804 128.343 390.405 128.652 389.398C129.154 387.762 129.778 384.568 130 380.81C128.996 381.228 127.918 381.724 126.766 382.301C125.848 382.761 124.97 383.275 124.138 383.832C124.452 384.019 124.767 384.203 125.085 384.385C125.756 384.769 125.989 385.626 125.605 386.298C125.222 386.971 124.367 387.204 123.695 386.82C123.044 386.447 122.392 386.059 121.743 385.653C119.049 387.968 117.011 390.705 115.813 393.316H127.168ZM114.842 396.121C114.608 397.16 114.548 398.106 114.652 398.921C114.83 400.315 115.473 401.305 116.616 401.878C118.052 402.597 119.31 402.523 120.492 401.973C121.742 401.391 122.964 400.242 124.1 398.721C124.706 397.91 125.265 397.025 125.771 396.121H114.842ZM125.514 379.792C127.156 378.97 128.68 378.294 130.083 377.757C130.082 377.605 130.08 377.453 130.078 377.3C129.992 372.058 128.955 366.649 126.088 362.979C123.222 359.312 119.459 358.185 116.56 358.838C113.729 359.476 111.44 361.863 111.44 365.971C111.44 373.195 115.881 378.29 121.584 382.201C122.803 381.305 124.116 380.492 125.514 379.792Z" fill="#636464"/>
<rect x="93" y="259.279" width="114" height="12" fill="#F8C07F" fill-opacity="0.3"/>
<rect x="93" y="191.279" width="114" height="12" fill="#E8178A" fill-opacity="0.24"/>
<rect x="93" y="275.279" width="184" height="12" fill="#F8C07F" fill-opacity="0.3"/>
</g>
<circle cx="550.5" cy="163.779" r="37.5" fill="#EAF2FF"/>
<path d="M537.08 161.519C527.72 162.179 527.72 175.799 537.08 176.459H540.92" stroke="#006FFD" stroke-width="3.5625" stroke-miterlimit="10" stroke-linecap="round" stroke-linejoin="round"/>
<path d="M537.18 161.519C530.76 143.659 557.84 136.519 560.94 155.279C569.6 156.379 573.1 167.919 566.54 173.659C564.54 175.479 561.96 176.479 559.26 176.459H559.08" stroke="#006FFD" stroke-width="3.5625" stroke-miterlimit="10" stroke-linecap="round" stroke-linejoin="round"/>
<path d="M560 172.339C560 173.819 559.68 175.219 559.08 176.459C558.92 176.819 558.74 177.159 558.54 177.479C556.82 180.379 553.64 182.339 550 182.339C546.36 182.339 543.18 180.379 541.46 177.479C541.26 177.159 541.08 176.819 540.92 176.459C540.32 175.219 540 173.819 540 172.339C540 166.819 544.48 162.339 550 162.339C555.52 162.339 560 166.819 560 172.339Z" stroke="#006FFD" stroke-width="3.5625" stroke-miterlimit="10" stroke-linecap="round" stroke-linejoin="round"/>
<path d="M546.88 172.339L548.86 174.319L553.12 170.379" stroke="#006FFD" stroke-width="3.5625" stroke-linecap="round" stroke-linejoin="round"/>
<ellipse cx="481.998" cy="329.806" rx="117.003" ry="116.067" fill="#006FFD"/>
<g filter="url(#filter1_d_3219_5123)">
<rect x="366.91" y="214.849" width="223.258" height="224.05" rx="111.629" fill="white"/>
</g>
<path d="M529.624 278.628C529.918 288.309 536.078 298.137 544.88 301.218C549.72 302.831 554.854 302.538 559.842 303.858C564.829 305.178 569.963 308.845 570.256 314.126C570.256 315.446 570.11 316.767 570.403 318.087C571.283 321.607 575.39 322.781 578.618 324.248C595.633 331.729 586.832 350.211 569.67 356.519C561.895 359.306 558.521 359.746 550.307 358.572C542.239 357.399 534.612 352.705 528.891 346.544C523.023 340.383 518.769 332.755 515.249 324.981C511.288 315.886 508.355 305.912 510.115 296.377C511.728 286.696 519.356 277.895 529.624 278.628Z" fill="#ACD4F7"/>
<path d="M485.912 280.682C484.299 278.775 480.191 280.095 480.191 282.589C480.485 288.456 479.605 293.737 475.204 299.898C473.004 302.978 470.07 305.765 468.163 308.846C465.963 312.513 465.229 316.62 465.083 320.581C464.789 328.062 466.403 335.689 472.27 340.97C478.138 346.251 488.993 348.598 497.794 344.784C505.568 341.41 509.969 334.369 510.555 327.768C511.142 321.167 508.502 315.153 505.715 309.286C500.434 298.284 493.687 289.63 485.912 280.682Z" fill="#ACD4F7"/>
<path d="M501.097 332.185C501.097 325.603 500.412 319.158 499.452 311.753C502.057 310.381 504.8 309.284 507.679 308.736C508.913 308.462 510.422 308.325 511.519 309.147C512.205 309.559 512.479 310.381 512.89 311.067C515.221 316.004 517.415 320.803 519.747 325.74C519.884 326.151 520.158 326.563 520.021 326.974C520.021 327.522 519.609 328.071 519.198 328.619C514.947 333.282 507.268 335.064 501.097 332.185Z" fill="white"/>
<path d="M507.679 334.242C505.348 334.242 503.017 333.693 500.96 332.733C500.686 332.596 500.549 332.322 500.549 332.185C500.549 325.877 499.863 319.432 498.903 311.89C498.903 311.616 499.04 311.341 499.315 311.204C501.92 309.833 504.8 308.736 507.817 308.187C509.188 307.913 510.833 307.776 512.068 308.736C512.89 309.284 513.302 310.244 513.576 310.93L520.432 325.603C520.569 326.014 520.844 326.562 520.844 327.111C520.844 327.934 520.295 328.619 519.884 329.168C516.593 332.322 512.205 334.242 507.679 334.242ZM501.783 331.636C507.405 334.104 514.536 332.596 518.65 328.071C518.924 327.659 519.335 327.248 519.335 326.974C519.335 326.7 519.198 326.425 519.061 326.151L512.205 311.478C511.93 310.93 511.656 310.244 511.108 309.833C510.285 309.147 508.914 309.422 507.817 309.559C505.074 310.107 502.606 310.93 500.137 312.301C501.097 319.295 501.783 325.465 501.783 331.636Z" fill="#636464"/>
<path d="M588.299 390.696C585.219 377.935 572.017 346.104 560.869 335.396C552.508 327.181 533.145 324.101 521.117 323.367C519.063 328.355 513.196 334.075 507.915 333.489C505.128 333.195 502.488 331.288 500.874 328.355C491.486 333.195 481.805 338.036 474.471 345.957C463.909 357.252 459.069 375.294 454.668 390.99C465.083 390.55 474.617 391.577 485.032 391.137C490.606 390.843 497.5 390.403 503.075 390.403C521.41 390.256 591.82 405.365 588.299 390.696Z" fill="white"/>
<path d="M473.004 272.321C475.058 278.482 477.551 284.936 477.111 291.537C476.818 295.204 480.192 312.659 495.154 315.006C503.075 316.18 511.436 314.126 518.183 308.112C522.731 304.005 527.131 293.15 524.198 283.616C528.745 284.056 532.412 280.388 531.679 276.428C531.238 274.228 528.305 271.881 525.811 272.467C523.904 272.907 523.611 273.054 522.291 274.521C520.384 270.12 518.917 265.72 518.037 260.439C512.169 256.038 503.808 254.718 495.887 255.012C493.247 255.158 490.606 255.305 487.966 256.185C480.632 258.679 470.95 266.013 473.004 272.321Z" fill="white"/>
<path d="M499.554 316.033C498.087 316.033 496.62 315.887 495.007 315.74C479.898 313.393 475.938 295.937 476.378 291.537C476.818 285.816 474.911 280.242 473.004 274.814C472.711 274.081 472.564 273.347 472.271 272.614C471.684 270.854 471.83 268.8 473.004 266.747C475.498 261.759 482.539 257.212 487.673 255.598C490.46 254.718 493.54 254.425 495.74 254.425C502.341 254.132 511.729 255.012 518.33 259.999C518.477 260.146 518.623 260.292 518.623 260.439C519.357 264.84 520.53 268.947 522.437 273.347C523.317 272.467 523.904 272.321 525.518 271.881C526.838 271.587 528.305 271.881 529.625 272.761C530.945 273.641 531.972 275.108 532.265 276.428C532.559 278.335 531.972 280.388 530.505 281.855C529.038 283.322 527.131 284.349 524.931 284.349C527.571 294.03 523.024 304.592 518.477 308.552C513.196 313.54 506.595 316.033 499.554 316.033ZM497.941 255.745C497.207 255.745 496.474 255.745 495.887 255.745C493.687 255.892 490.9 256.038 488.259 256.919C483.272 258.532 476.818 262.639 474.471 267.333C473.591 269.094 473.444 270.707 473.884 272.174C474.177 272.907 474.324 273.641 474.618 274.374C476.524 279.948 478.431 285.669 477.991 291.537C477.845 294.03 480.338 311.779 495.447 314.273C503.661 315.593 511.582 313.1 517.89 307.525C522.144 303.712 526.691 293.15 523.611 283.909C523.464 283.616 523.611 283.469 523.757 283.175C523.904 283.029 524.198 282.882 524.344 282.882C526.398 283.029 528.451 282.295 529.772 280.828C530.945 279.655 531.385 278.041 531.092 276.575C530.945 275.694 530.212 274.668 529.038 273.934C528.011 273.201 526.985 273.054 525.958 273.201C524.051 273.641 523.904 273.641 522.877 274.961C522.731 275.108 522.437 275.254 522.291 275.254C521.997 275.254 521.851 275.108 521.704 274.814C519.65 269.974 518.183 265.573 517.45 260.879C511.729 256.772 504.101 255.745 497.941 255.745Z" fill="#636464"/>
<path d="M513.876 247.54C520.843 241.727 521.778 231.366 515.964 224.4C510.151 217.433 499.791 216.498 492.824 222.312C485.858 228.125 484.923 238.485 490.736 245.452C496.549 252.418 506.909 253.353 513.876 247.54Z" fill="#ACD4F7"/>
<path d="M521.997 274.814C515.836 270.267 510.262 264.253 506.155 257.359C494.86 271.294 480.632 274.961 466.55 279.508C465.376 277.308 464.936 274.668 465.083 272.027C465.376 265.72 466.696 259.852 473.591 252.958C478.431 248.117 485.619 243.423 492.367 242.103C498.967 240.636 505.715 242.103 511.582 244.45C516.276 246.357 521.264 250.611 524.344 255.452C526.985 259.559 528.598 267.333 528.305 272.614C527.425 272.174 526.398 272.027 524.784 272.614C524.051 273.054 522.877 273.934 521.997 274.814Z" fill="#ACD4F7"/>
<path d="M509.088 293.59C504.981 293.59 501.02 290.656 499.553 286.256C497.793 280.828 500.434 275.108 505.274 273.494C507.621 272.761 510.262 273.054 512.609 274.374C514.956 275.694 516.569 277.895 517.449 280.535C518.329 283.175 518.183 285.962 517.156 288.309C516.129 290.803 514.076 292.563 511.729 293.297C510.848 293.443 509.968 293.59 509.088 293.59ZM507.915 274.374C507.181 274.374 506.448 274.521 505.714 274.668C501.46 275.988 499.26 280.975 500.874 285.669C502.341 290.363 507.034 293.15 511.288 291.683C513.342 291.097 514.956 289.483 515.836 287.429C516.716 285.376 516.863 282.882 516.129 280.682C515.396 278.335 513.929 276.575 511.875 275.401C510.702 274.814 509.235 274.374 507.915 274.374Z" fill="#636464"/>
<path d="M483.858 299.458C479.751 299.458 475.791 296.524 474.324 292.123C473.444 289.483 473.59 286.696 474.617 284.349C475.644 281.855 477.698 280.095 480.045 279.362C485.032 277.748 490.459 280.828 492.22 286.402C493.98 291.83 491.339 297.551 486.499 299.164C485.619 299.311 484.738 299.458 483.858 299.458ZM482.832 280.242C482.098 280.242 481.365 280.388 480.631 280.535C478.578 281.122 476.964 282.735 476.084 284.789C475.204 286.843 475.057 289.336 475.791 291.537C477.257 296.23 481.951 299.018 486.205 297.551C490.459 296.23 492.66 291.243 491.046 286.549C489.726 282.882 486.352 280.242 482.832 280.242Z" fill="#636464"/>
<path d="M491.192 285.522C490.899 285.522 490.606 285.229 490.459 284.936C490.165 283.469 491.339 282.149 492.806 281.415C495.006 280.388 497.646 280.535 499.7 281.709C499.993 281.855 500.14 282.295 499.993 282.735C499.847 283.029 499.407 283.175 498.967 283.029C497.353 282.002 495.153 282.002 493.393 282.882C492.512 283.322 491.779 284.056 491.926 284.789C491.926 285.082 491.632 285.522 491.192 285.522Z" fill="#636464"/>
<g opacity="0.1294">
<path d="M473.297 278.188C473.297 277.601 473.737 277.161 474.324 277.015C474.471 277.015 475.497 276.721 475.644 276.575C477.111 276.134 478.578 275.694 480.045 275.254C482.685 274.228 485.472 273.201 488.112 271.881C491.34 270.414 493.98 268.653 497.354 266.306C500.287 264.106 502.194 261.906 504.541 258.532C504.981 257.945 505.275 257.212 506.008 257.065C506.888 256.919 507.622 258.092 507.035 258.825C504.395 262.493 501.608 266.16 497.94 268.8C495.887 270.414 493.687 271.881 491.34 273.201C489.433 274.228 487.526 274.961 485.619 275.841C482.685 277.015 479.751 278.335 476.671 279.362C476.231 279.508 475.644 279.655 475.204 279.802C474.911 279.802 474.617 279.948 474.324 279.802C473.737 279.655 473.297 278.922 473.297 278.188Z" fill="#636464"/>
</g>
<path d="M471.097 423.261C470.803 422.968 470.95 420.767 470.95 420.327C469.043 420.327 468.603 420.327 466.403 420.327C466.256 418.42 466.256 416.367 466.256 414.46C467.576 414.46 469.483 414.313 470.657 414.46C471.244 408.886 471.244 404.632 471.097 399.498C464.643 400.378 463.909 392.604 463.909 390.697C464.056 384.096 471.39 382.776 472.71 382.629C477.404 382.042 482.538 386.443 482.685 389.377C482.832 390.99 482.392 398.618 477.404 398.764C476.964 402.285 476.671 422.821 476.378 422.968C476.084 423.701 471.39 423.554 471.097 423.261ZM474.911 396.711C479.165 395.684 478.871 391.87 478.578 390.843C477.991 388.056 476.231 386.883 472.124 387.616C468.163 388.35 467.87 390.99 467.87 392.457C468.456 397.591 474.031 396.858 474.911 396.711Z" fill="white"/>
<path d="M473.737 424.288C472.27 424.288 470.95 424.141 470.657 423.701C470.363 423.261 470.363 421.941 470.363 421.061C469.776 421.061 469.483 421.061 469.043 421.061C468.456 421.061 467.723 421.061 466.549 421.061C466.109 421.061 465.816 420.767 465.816 420.327C465.669 418.567 465.669 416.807 465.669 415.047V414.46C465.669 414.02 465.963 413.726 466.403 413.726C466.843 413.726 467.136 413.726 467.576 413.726C468.456 413.726 469.336 413.726 470.216 413.726C470.803 408.739 470.657 404.632 470.657 400.231C469.043 400.231 467.576 399.791 466.403 398.764C463.322 396.124 463.469 390.843 463.469 390.697C463.616 383.362 471.977 382.042 472.857 381.895C475.35 381.602 478.284 382.482 480.631 384.536C482.391 386.003 483.565 387.91 483.565 389.377C483.712 392.017 482.978 398.764 478.138 399.498C477.991 401.992 477.697 408.592 477.551 414.02C477.257 423.408 477.257 423.408 476.817 423.701C476.671 423.995 475.204 424.288 473.737 424.288ZM471.683 422.674C472.563 422.821 474.91 422.821 475.937 422.674C476.084 421.501 476.084 417.687 476.231 414.02C476.377 407.859 476.671 400.818 476.817 398.764C476.817 398.471 477.111 398.178 477.551 398.178C482.391 397.884 482.245 389.523 482.245 389.523C482.245 388.35 481.218 387.03 479.751 385.709C477.697 383.949 475.204 383.069 473.15 383.362C472.27 383.509 465.082 384.536 464.936 390.697C464.936 392.31 465.376 395.831 467.429 397.738C468.456 398.618 469.776 399.058 471.39 398.764C471.537 398.764 471.83 398.764 471.977 398.911C472.123 399.058 472.27 399.205 472.27 399.498C472.417 404.339 472.417 408.886 471.83 414.607C471.83 415.047 471.39 415.34 471.097 415.193C470.216 415.047 469.043 415.193 468.016 415.193C467.869 415.193 467.576 415.193 467.429 415.193C467.429 416.66 467.429 418.127 467.429 419.594C468.163 419.594 468.603 419.594 469.19 419.594C469.776 419.594 470.363 419.594 471.39 419.594C471.537 419.594 471.83 419.741 471.977 419.887C472.123 420.034 472.123 420.327 472.123 420.474C471.683 420.767 471.683 422.088 471.683 422.674ZM473.15 397.591C471.977 397.591 470.51 397.444 469.336 396.417C468.163 395.537 467.576 394.217 467.429 392.457C467.283 389.377 469.043 387.47 472.27 386.883C476.524 386.149 478.871 387.323 479.458 390.697C479.898 392.75 479.458 396.271 475.204 397.444C475.204 397.298 474.324 397.591 473.15 397.591ZM474.47 388.056C473.884 388.056 473.297 388.056 472.563 388.203C470.07 388.643 468.896 389.963 468.896 392.31C468.896 393.63 469.336 394.511 470.216 395.244C471.683 396.417 474.177 396.124 474.764 395.977C478.578 395.097 478.138 391.577 477.991 390.99C477.697 389.376 476.964 388.056 474.47 388.056Z" fill="#636464"/>
<path d="M468.163 419.301C468.016 419.301 467.869 419.154 467.869 419.007C467.869 418.861 468.016 418.714 468.163 418.714L471.83 418.567C471.977 418.567 472.123 418.714 472.123 418.861C472.123 419.007 471.977 419.154 471.83 419.154L468.163 419.301Z" fill="#636464"/>
<path d="M468.603 417.98C468.457 417.98 468.31 417.98 468.017 417.98C467.87 417.98 467.723 417.834 467.723 417.687C467.723 417.54 467.87 417.394 468.017 417.394C468.897 417.394 469.777 417.394 470.657 417.247C470.804 417.247 470.95 417.394 470.95 417.394C470.95 417.54 470.804 417.687 470.804 417.687C470.07 417.98 469.337 417.98 468.603 417.98Z" fill="#636464"/>
<path d="M473.884 389.083C473.15 389.083 472.417 388.79 471.83 388.35C470.51 387.47 470.07 385.856 469.777 384.829C469.337 382.776 469.19 380.429 469.63 378.375C470.07 376.175 470.803 374.561 472.124 373.534C473.59 372.361 476.084 371.774 477.698 373.241C478.284 373.681 478.725 374.414 479.165 375.295C480.338 378.082 480.045 381.309 478.578 383.949C478.431 384.242 477.991 384.389 477.551 384.242C477.258 384.096 477.111 383.656 477.258 383.216C478.578 381.015 478.725 378.228 477.844 375.881C477.551 375.148 477.258 374.708 476.818 374.414C475.791 373.534 474.031 373.828 473.004 374.708C471.977 375.588 471.39 376.908 470.95 378.815C470.657 380.722 470.657 382.776 471.097 384.683C471.39 386.003 471.83 386.883 472.564 387.47C473.004 387.763 473.591 387.91 474.031 387.763C474.324 387.763 474.617 387.616 474.764 387.323C474.911 387.03 475.497 386.883 475.791 387.176C476.084 387.323 476.231 387.91 475.937 388.203C475.497 388.79 474.911 389.23 474.177 389.23C474.177 389.083 474.031 389.083 473.884 389.083Z" fill="#636464"/>
<path d="M489.432 388.643C486.499 387.616 483.418 384.242 480.338 381.162C479.604 380.429 478.871 379.842 478.138 379.255C476.084 377.935 473.737 377.202 471.683 375.881C471.243 375.588 470.803 375.148 470.363 374.708C470.217 374.415 470.07 374.121 470.07 373.828C470.07 373.388 470.363 373.094 470.657 372.801C471.683 372.068 473.15 372.068 474.47 372.361C478.138 372.948 481.511 374.121 485.032 375.148C485.619 375.295 486.059 375.441 486.499 375.881C486.939 376.175 487.232 376.761 487.379 377.202C487.966 378.375 488.259 379.549 488.552 380.722C489.579 384.389 495.153 385.123 494.273 388.79C494.273 389.67 489.286 388.936 489.432 388.643Z" fill="white"/>
<path d="M487.819 388.056C484.738 387.763 482.538 385.416 480.338 383.069C478.724 381.309 477.111 379.549 475.204 378.522C474.91 378.375 474.47 378.228 474.177 378.082C472.71 377.348 471.097 376.761 470.07 375.295C469.63 374.708 469.336 374.121 469.483 373.534C469.63 372.068 471.243 371.481 472.857 371.627C477.111 371.921 481.218 372.948 485.178 374.561C485.472 374.708 485.765 375.148 485.619 375.441C485.472 375.735 485.032 376.028 484.738 375.881C480.925 374.268 476.964 373.388 472.857 372.948C471.977 372.801 470.95 373.094 470.95 373.534C470.95 373.681 471.097 373.974 471.243 374.268C472.123 375.295 473.444 375.881 474.764 376.615C475.057 376.761 475.497 376.908 475.79 377.055C477.991 378.082 479.751 379.989 481.365 381.895C483.418 384.096 485.325 386.296 487.819 386.443C488.259 386.443 488.552 386.883 488.406 387.176C488.552 387.763 488.259 388.056 487.819 388.056Z" fill="#636464"/>
<path d="M489.139 388.496C489.432 390.55 502.487 401.551 504.541 395.537C505.128 393.777 503.514 387.616 503.661 385.709C503.808 382.189 498.967 377.642 500.58 374.561C502.781 370.307 506.741 367.52 509.382 363.56C509.675 363.12 509.968 362.68 509.822 362.093C509.528 361.213 508.355 361.213 507.475 361.506C503.808 362.973 502.047 367.374 498.38 369.134C498.087 368.84 497.793 368.547 497.353 368.254C497.647 364.44 497.647 360.186 497.353 356.079C497.207 354.465 497.06 352.705 496.18 351.238C496.033 350.945 495.886 350.798 495.593 350.651C495.006 350.358 494.126 350.798 493.833 351.385C493.539 351.971 493.539 352.705 493.686 353.438C493.98 358.132 493.686 362.68 492.806 367.227C492.366 362.68 489.432 358.719 486.499 355.199C486.205 354.758 485.765 354.318 485.325 353.878C484.885 353.585 484.151 353.438 483.711 353.585C482.831 353.878 482.538 355.052 482.685 355.932C482.978 356.812 483.565 357.546 484.152 358.279C486.058 360.773 487.232 363.853 487.672 367.08C486.792 365.907 485.912 364.586 484.885 363.706C483.858 362.826 482.391 362.093 481.071 362.239C477.257 365.173 474.324 369.28 472.857 373.828C472.71 374.414 472.563 375.148 473.003 375.735C473.297 376.175 474.03 376.175 474.47 375.881C474.91 375.735 475.35 375.295 475.644 374.855C477.257 373.094 478.137 370.601 479.898 369.134C480.338 368.694 480.924 368.4 481.364 367.96C481.951 367.52 482.538 367.374 483.125 367.52C484.298 367.96 484.592 369.28 484.592 370.454C484.738 371.921 484.885 373.534 484.885 375.441C484.445 380.869 488.699 384.683 489.139 388.496Z" fill="white"/>
<path d="M478.724 364.587C476.231 367.52 473.737 370.601 472.71 374.415C472.563 374.855 472.563 375.295 472.71 375.735C473.003 376.321 473.884 376.468 474.324 376.175C474.91 375.881 475.35 375.441 475.644 374.855C477.111 372.948 478.724 371.041 480.338 369.134C480.485 368.987 480.778 368.694 480.778 368.4C480.925 367.814 480.631 367.227 480.338 366.787C480.044 366.347 479.898 365.907 479.458 365.613C479.311 365.173 478.871 364.88 478.724 364.587Z" fill="white"/>
<path d="M502.048 398.324C498.674 398.324 493.833 393.777 490.166 390.403C488.993 389.377 487.966 388.35 487.379 387.91C487.086 387.616 486.939 387.176 487.232 386.883C487.526 386.589 487.966 386.443 488.259 386.736C488.993 387.176 489.873 388.203 491.193 389.377C494.567 392.604 501.021 398.471 503.074 396.564C504.395 395.391 503.661 391.283 502.781 386.883C502.048 383.069 501.168 380.869 500.434 379.255C499.701 377.495 499.114 376.175 499.847 374.414C500.581 372.067 502.928 369.721 505.128 367.374C506.595 365.907 507.915 364.586 508.795 363.266C508.942 363.12 509.235 362.68 509.089 362.386C509.089 362.386 509.089 362.24 508.942 362.24C508.649 362.093 508.062 362.093 507.622 362.24C505.861 362.973 504.541 364.44 503.221 365.907C501.901 367.374 500.581 368.84 498.674 369.721C498.38 369.867 498.087 369.867 497.94 369.574L496.914 368.694C496.767 368.547 496.62 368.4 496.767 368.107C497.06 364 497.06 360.039 496.767 356.079C496.62 354.465 496.474 352.852 495.593 351.678C495.593 351.531 495.447 351.385 495.3 351.385C495.3 351.385 495.153 351.385 495.007 351.385C494.86 351.385 494.567 351.678 494.567 351.825C494.42 352.265 494.42 352.852 494.42 353.438C494.713 358.132 494.42 362.826 493.54 367.52C493.54 367.814 493.1 368.107 492.806 368.107C492.513 368.107 492.22 367.814 492.073 367.52C491.633 362.973 488.406 359.012 485.912 355.785C485.619 355.345 485.325 354.905 484.885 354.612C484.592 354.318 484.152 354.318 483.858 354.465C483.418 354.612 483.125 355.345 483.272 355.932C483.418 356.519 483.859 357.105 484.299 357.839L484.592 358.132C486.499 360.773 487.819 364 488.259 367.227C488.259 367.52 488.112 367.814 487.819 367.96C487.526 368.107 487.232 367.96 486.939 367.667L486.646 367.227C485.912 366.2 485.179 365.173 484.299 364.44C483.418 363.706 481.805 363.266 480.925 363.706C477.551 365.613 475.057 369.134 473.297 374.268C473.004 375.001 473.15 375.295 473.297 375.441C473.444 375.588 473.737 375.588 473.884 375.441C474.177 375.295 474.471 375.001 474.764 374.561C475.644 373.534 476.084 372.801 476.671 371.921C477.111 371.334 477.551 370.601 478.138 369.721C478.578 368.987 480.338 367.814 480.778 367.52C481.511 366.933 482.538 366.787 483.272 367.08C484.739 367.667 485.179 369.28 485.325 370.601L485.765 375.148C485.765 375.588 485.472 375.881 485.179 375.881C484.739 375.881 484.445 375.588 484.445 375.295L484.005 370.747C483.858 369.427 483.565 368.547 482.978 368.4C482.538 368.254 482.098 368.4 481.805 368.694C481.218 369.134 479.898 370.161 479.605 370.601C479.018 371.334 478.578 372.067 478.284 372.654C477.698 373.534 477.258 374.414 476.231 375.441C475.937 375.881 475.497 376.321 474.764 376.615C474.031 376.908 473.15 376.908 472.564 376.321C471.83 375.441 472.124 374.121 472.27 373.828C474.031 368.254 476.818 364.44 480.485 362.386C482.098 361.506 484.299 362.093 485.472 363.266C485.765 363.56 486.206 363.853 486.499 364.293C485.912 362.386 485.032 360.479 483.712 358.866L483.565 358.572C482.978 357.839 482.538 357.105 482.245 356.225C481.952 355.052 482.392 353.438 483.712 352.998C484.445 352.705 485.325 352.852 486.059 353.292C486.646 353.732 487.086 354.172 487.379 354.758C489.286 357.252 491.633 360.186 492.953 363.706C493.393 360.333 493.54 356.959 493.246 353.438C493.246 352.705 493.1 351.825 493.54 351.091C493.833 350.505 494.273 350.065 494.86 349.918C495.3 349.771 495.887 349.771 496.18 350.065C496.62 350.211 496.767 350.651 496.914 350.945C497.94 352.558 498.087 354.318 498.234 356.079C498.527 360.039 498.527 364 498.234 367.96L498.527 368.254C499.847 367.52 501.021 366.2 502.194 364.88C503.661 363.266 505.128 361.653 507.182 360.773C507.768 360.479 508.795 360.333 509.675 360.773C510.115 361.066 510.409 361.359 510.555 361.799C510.849 362.68 510.262 363.413 509.969 363.853C508.942 365.173 507.622 366.64 506.155 368.107C504.101 370.307 501.901 372.508 501.168 374.561C500.727 375.881 501.021 376.615 501.754 378.375C502.488 379.989 503.368 382.336 504.101 386.296C505.128 391.43 505.861 395.537 503.808 397.298C503.514 398.178 502.781 398.324 502.048 398.324Z" fill="#636464"/>
<path d="M549.281 365.76C552.655 376.761 561.162 393.777 562.629 397.297C539.306 390.11 517.45 383.802 502.194 378.962C506.448 387.029 500.728 394.07 494.86 397.297C506.742 404.485 576.418 441.157 589.033 418.42C593.14 410.939 587.713 392.75 585.366 384.536C582.139 372.947 569.67 344.05 559.109 335.102C553.095 337.303 547.521 341.703 545.76 347.864C544 353.732 547.521 359.599 549.281 365.76Z" fill="white"/>
<path d="M423.57 322.194L462.296 397.298L412.422 397.151L375.311 322.047L423.57 322.194Z" fill="white"/>
<path d="M462.295 398.031C462.149 398.031 462.149 398.031 462.295 398.031L412.422 397.884C412.129 397.884 411.835 397.738 411.835 397.444L374.724 322.341C374.577 322.047 374.577 321.901 374.724 321.607C374.87 321.461 375.164 321.314 375.31 321.314L423.57 321.461C423.864 321.461 424.01 321.607 424.157 321.901L462.735 397.004C462.882 397.298 462.882 397.444 462.735 397.738C462.735 397.884 462.442 398.031 462.295 398.031ZM412.862 396.417L461.122 396.564L423.13 322.928L376.484 322.781L412.862 396.417Z" fill="#636464"/>
<path d="M389.686 351.678C393.06 351.238 396.433 350.798 399.807 350.358C400.687 350.211 401.421 350.064 402.301 350.211C403.181 350.358 403.914 350.651 404.354 351.385C404.501 351.678 404.501 352.705 403.768 353.145C400.981 354.758 398.194 355.345 394.966 356.225C395.113 356.812 395.847 357.105 396.58 357.252C398.047 357.399 399.514 357.692 400.981 357.692C404.648 357.545 405.235 359.306 404.061 360.333C403.474 360.773 398.78 361.946 396.58 361.799C397.313 362.386 398.34 362.386 399.367 362.533C400.394 362.68 401.274 362.826 402.154 363.413C402.888 364 403.328 365.173 402.888 365.907C402.447 366.493 401.714 366.787 400.981 366.933C399.954 367.08 398.927 367.227 397.9 367.373C398.34 367.667 398.78 367.96 399.074 368.254C399.367 368.694 399.514 369.28 399.367 369.72C399.074 370.307 398.487 370.454 397.9 370.601C396.433 370.894 394.966 370.601 393.793 370.014C392.473 369.28 391.446 368.107 390.566 366.787C388.512 363.853 387.045 360.333 386.312 356.665C386.165 356.079 386.019 355.345 386.165 354.758C386.459 352.998 388.072 351.971 389.686 351.678Z" fill="white"/>
<path d="M396.873 371.334C395.7 371.334 394.526 371.041 393.5 370.454C391.886 369.574 390.859 368.107 389.979 367.08C387.779 364 386.312 360.479 385.579 356.812C385.432 356.225 385.285 355.492 385.432 354.612C385.725 352.558 387.779 351.238 389.539 351.091L399.66 349.771C400.541 349.624 401.421 349.478 402.301 349.624C403.474 349.771 404.354 350.358 404.941 351.091C405.235 351.385 405.235 351.971 405.088 352.558C404.941 353.145 404.648 353.585 404.061 353.878C401.714 355.198 399.22 355.932 396.727 356.665C397.02 356.665 397.313 356.812 397.607 356.812C398.78 356.959 399.807 357.105 400.981 357.105C404.208 356.959 404.941 358.132 405.235 358.719C405.528 359.452 405.235 360.333 404.501 360.919C404.061 361.359 402.448 361.799 400.687 362.093C401.421 362.239 402.007 362.533 402.594 362.826C403.621 363.56 404.208 365.173 403.474 366.347C402.888 367.227 402.007 367.52 401.127 367.667C400.687 367.814 400.247 367.814 399.807 367.814C400.247 368.4 400.394 369.28 400.101 370.014C399.807 370.601 399.22 371.041 398.194 371.334C397.754 371.334 397.313 371.334 396.873 371.334ZM389.832 352.411C388.512 352.558 387.045 353.438 386.899 354.758C386.752 355.345 386.899 355.932 387.045 356.372C387.779 359.892 389.246 363.266 391.299 366.2C392.033 367.227 393.06 368.4 394.38 369.134C395.407 369.72 396.873 369.867 398.047 369.72C398.487 369.574 398.78 369.427 398.927 369.28C399.074 369.134 398.927 368.84 398.78 368.547C398.487 368.254 398.194 367.96 397.754 367.814C397.46 367.667 397.313 367.373 397.46 367.08C397.46 366.787 397.754 366.493 398.047 366.493C399.074 366.347 400.101 366.347 400.981 366.053C401.567 365.907 402.154 365.76 402.447 365.32C402.741 364.88 402.448 364.146 402.007 363.706C401.421 363.266 400.541 363.12 399.66 362.973C398.634 362.826 397.607 362.68 396.58 362.093C396.287 361.946 396.14 361.653 396.287 361.213C396.433 360.919 396.727 360.773 397.02 360.773C399.074 360.773 403.474 359.892 404.061 359.452C404.208 359.452 404.354 359.159 404.354 358.866C404.208 358.572 403.474 357.986 401.567 358.132C400.247 358.132 399.074 357.986 397.9 357.839C397.607 357.839 397.313 357.692 397.02 357.692C395.407 357.545 394.967 356.812 394.82 356.225C394.673 355.785 394.966 355.492 395.26 355.345C395.7 355.198 395.993 355.198 396.433 355.052C399.074 354.318 401.567 353.732 403.914 352.411C404.208 352.265 404.208 351.678 404.208 351.678C403.914 351.238 403.328 350.945 402.594 350.798C401.861 350.651 401.127 350.798 400.247 350.945L389.832 352.411Z" fill="#636464"/>
<path d="M416.676 335.102H390.859C390.419 335.102 390.126 334.809 390.126 334.369C390.126 333.929 390.419 333.636 390.859 333.636H416.823C417.263 333.636 417.556 333.929 417.556 334.369C417.409 334.809 417.116 335.102 416.676 335.102Z" fill="#636464"/>
<path d="M421.517 345.077H395.553C395.113 345.077 394.82 344.784 394.82 344.344C394.82 343.904 395.113 343.61 395.553 343.61H421.517C421.957 343.61 422.25 343.904 422.25 344.344C422.25 344.784 421.957 345.077 421.517 345.077Z" fill="#636464"/>
<path d="M434.865 372.361H408.902C408.462 372.361 408.168 372.067 408.168 371.627C408.168 371.187 408.462 370.894 408.902 370.894H434.865C435.305 370.894 435.599 371.187 435.599 371.627C435.599 372.067 435.305 372.361 434.865 372.361Z" fill="#636464"/>
<path d="M440.586 382.189H414.622C414.182 382.189 413.889 381.895 413.889 381.455C413.889 381.015 414.182 380.722 414.622 380.722H440.586C441.026 380.722 441.319 381.015 441.319 381.455C441.173 381.895 440.879 382.189 440.586 382.189Z" fill="#636464"/>
<g opacity="0.1294">
<path d="M405.381 358.719C404.501 358.279 403.474 359.159 403.621 360.186C403.621 360.186 403.621 360.186 403.474 360.186C403.181 360.332 402.887 360.332 402.447 360.479C402.007 360.479 401.42 360.332 400.98 360.626C399.514 361.212 399.954 363.413 401.567 363.413C402.007 363.413 402.301 363.413 402.741 363.413C402.301 363.853 402.301 364.44 402.594 365.026C402.594 365.173 402.741 365.32 402.741 365.466C402.741 365.466 402.741 365.613 402.594 365.613C402.447 365.76 402.301 365.906 402.154 366.053C402.154 366.053 402.007 366.053 402.007 366.2C401.861 366.346 401.567 366.346 401.42 366.346C400.834 366.493 400.1 366.493 399.66 367.08C399.073 367.373 398.78 367.96 398.927 368.693C399.367 369.72 399.22 371.481 400.54 371.627C401.567 371.774 402.301 370.747 402.154 369.867C402.154 369.72 402.007 369.427 402.007 369.28C402.594 369.134 403.327 368.987 403.767 368.693C404.794 367.96 405.528 366.64 405.234 365.32C405.234 365.32 405.234 365.466 405.234 365.613C405.234 365.173 405.088 364.733 404.794 364.293C404.648 363.853 404.354 363.413 403.914 363.266C404.648 362.973 405.381 362.533 405.821 361.799C406.261 360.919 406.554 359.306 405.381 358.719Z" fill="#636464"/>
</g>
<g opacity="0.1294">
<path d="M405.674 352.118C405.088 351.531 403.914 351.825 403.621 352.705V352.851C403.621 352.851 403.621 352.851 403.621 352.705C403.621 352.851 403.621 352.851 403.621 352.851C403.474 352.998 403.327 353.145 403.181 353.291C403.034 353.291 403.034 353.438 402.887 353.438C401.861 354.025 402.447 353.731 401.567 354.025C400.54 354.318 399.66 354.612 398.633 354.905C398.047 355.052 397.313 355.052 396.873 355.492C395.7 356.372 396.727 358.279 398.047 357.839C400.394 357.252 403.181 356.959 404.941 355.052C405.674 354.171 406.555 352.998 405.674 352.118Z" fill="#636464"/>
</g>
<path d="M572.457 426.488C562.629 426.488 549.134 423.114 532.412 416.367C514.223 409.032 498.674 400.378 494.567 397.884C494.42 397.738 494.274 397.444 494.274 397.298C494.274 397.004 494.42 396.858 494.714 396.711C500.874 393.484 505.715 386.589 501.754 379.402C501.608 379.108 501.608 378.815 501.901 378.668C502.048 378.375 502.341 378.375 502.635 378.375C509.529 380.575 517.89 383.069 526.691 385.709C537.253 388.936 549.281 392.457 561.456 396.271C561.309 396.124 561.309 395.831 561.163 395.684C558.229 389.67 551.628 375.735 548.694 366.2C548.547 365.76 548.841 365.467 549.134 365.32C549.574 365.173 549.868 365.467 550.014 365.76C552.801 375.148 559.549 389.083 562.336 394.951C562.776 395.831 563.069 396.564 563.363 397.151C563.51 397.444 563.51 397.738 563.216 397.884C563.069 398.031 562.776 398.178 562.483 398.031C549.574 394.07 537.106 390.257 526.104 387.03C517.89 384.536 510.116 382.189 503.515 380.282C506.302 387.323 502.048 393.924 496.18 397.444C507.915 404.339 557.642 430.155 579.792 424.288C583.752 423.261 586.686 421.207 588.446 418.127C592.26 411.233 587.419 393.924 584.926 385.709L584.632 384.829C581.259 372.948 568.937 344.637 558.522 334.956C549.721 326.741 528.305 324.688 521.117 324.248C518.77 329.088 513.049 333.929 507.915 333.342C505.275 333.049 502.635 331.435 501.021 328.795C492.22 333.049 483.272 337.303 476.378 344.344C466.55 354.318 461.122 372.508 457.308 385.709L457.162 386.296C457.015 386.736 456.722 386.883 456.282 386.736C455.842 386.589 455.695 386.296 455.842 385.856L455.988 385.269C460.096 371.041 465.376 353.438 475.498 343.317C482.832 335.983 492.073 331.582 501.168 327.181C501.461 327.035 501.901 327.181 502.048 327.475C503.515 329.968 505.862 331.582 508.209 331.875C512.903 332.315 518.183 327.621 520.09 323.221C520.237 322.928 520.53 322.781 520.824 322.781C527.571 323.221 550.161 325.275 559.549 333.929C570.257 343.757 582.725 372.508 586.099 384.536L586.393 385.416C589.033 394.511 593.874 411.526 589.766 419.007C587.859 422.381 584.632 424.728 580.232 425.901C577.885 426.195 575.391 426.488 572.457 426.488Z" fill="#636464"/>
<circle cx="459" cy="92.7788" r="40" fill="#EAF2FF"/>
<path d="M460.042 112.362H445.042C441.292 112.362 439.417 110.487 439.417 106.737V91.7372C439.417 87.9872 441.292 86.1122 445.042 86.1122H454.417V106.737C454.417 110.487 456.292 112.362 460.042 112.362Z" stroke="#006FFD" stroke-width="2.8125" stroke-miterlimit="10" stroke-linecap="round" stroke-linejoin="round"/>
<path d="M454.623 78.6122C454.473 79.1747 454.417 79.7934 454.417 80.4872V86.1122H445.042V82.3622C445.042 80.2997 446.729 78.6122 448.792 78.6122H454.623Z" stroke="#006FFD" stroke-width="2.8125" stroke-miterlimit="10" stroke-linecap="round" stroke-linejoin="round"/>
<path d="M461.917 86.1122V95.4872" stroke="#006FFD" stroke-width="2.8125" stroke-miterlimit="10" stroke-linecap="round" stroke-linejoin="round"/>
<path d="M469.417 86.1122V95.4872" stroke="#006FFD" stroke-width="2.8125" stroke-miterlimit="10" stroke-linecap="round" stroke-linejoin="round"/>
<path d="M467.542 102.987H463.792C462.76 102.987 461.917 103.831 461.917 104.862V112.362H469.417V104.862C469.417 103.831 468.573 102.987 467.542 102.987Z" stroke="#006FFD" stroke-width="2.8125" stroke-miterlimit="10" stroke-linecap="round" stroke-linejoin="round"/>
<path d="M446.917 95.4872V102.987" stroke="#006FFD" stroke-width="2.8125" stroke-miterlimit="10" stroke-linecap="round" stroke-linejoin="round"/>
<path d="M454.417 106.737V80.4872C454.417 76.7372 456.292 74.8622 460.042 74.8622H471.292C475.042 74.8622 476.917 76.7372 476.917 80.4872V106.737C476.917 110.487 475.042 112.362 471.292 112.362H460.042C456.292 112.362 454.417 110.487 454.417 106.737Z" stroke="#006FFD" stroke-width="2.8125" stroke-miterlimit="10" stroke-linecap="round" stroke-linejoin="round"/>
<defs>
<filter id="filter0_d_3219_5123" x="0.48559" y="0.453804" width="514.548" height="607.638" filterUnits="userSpaceOnUse" color-interpolation-filters="sRGB">
<feFlood flood-opacity="0" result="BackgroundImageFix"/>
<feColorMatrix in="SourceAlpha" type="matrix" values="0 0 0 0 0 0 0 0 0 0 0 0 0 0 0 0 0 0 127 0" result="hardAlpha"/>
<feOffset dx="28.6236" dy="53.1581"/>
<feGaussianBlur stdDeviation="49.069"/>
<feComposite in2="hardAlpha" operator="out"/>
<feColorMatrix type="matrix" values="0 0 0 0 0.145104 0 0 0 0 0.286634 0 0 0 0 0.829167 0 0 0 0.1 0"/>
<feBlend mode="normal" in2="BackgroundImageFix" result="effect1_dropShadow_3219_5123"/>
<feBlend mode="normal" in="SourceGraphic" in2="effect1_dropShadow_3219_5123" result="shape"/>
</filter>
<filter id="filter1_d_3219_5123" x="310.627" y="178.43" width="382.175" height="382.966" filterUnits="userSpaceOnUse" color-interpolation-filters="sRGB">
<feFlood flood-opacity="0" result="BackgroundImageFix"/>
<feColorMatrix in="SourceAlpha" type="matrix" values="0 0 0 0 0 0 0 0 0 0 0 0 0 0 0 0 0 0 127 0" result="hardAlpha"/>
<feOffset dx="23.1753" dy="43.0399"/>
<feGaussianBlur stdDeviation="39.7291"/>
<feComposite in2="hardAlpha" operator="out"/>
<feColorMatrix type="matrix" values="0 0 0 0 0.145104 0 0 0 0 0.286634 0 0 0 0 0.829167 0 0 0 0.1 0"/>
<feBlend mode="normal" in2="BackgroundImageFix" result="effect1_dropShadow_3219_5123"/>
<feBlend mode="normal" in="SourceGraphic" in2="effect1_dropShadow_3219_5123" result="shape"/>
</filter>
</defs>
</svg>