<svg width="518" height="343" viewBox="0 0 518 343" fill="none" xmlns="http://www.w3.org/2000/svg">
<g opacity="0.4" filter="url(#filter0_f_9312_48974)">
<ellipse cx="308.804" cy="322.62" rx="187.226" ry="2.06879" fill="black"/>
<path d="M122.514 322.62C122.531 322.618 122.549 322.616 122.567 322.614C123.201 322.545 124.147 322.477 125.393 322.41C127.884 322.275 131.56 322.145 136.297 322.022C145.769 321.774 159.477 321.551 176.418 321.364C210.298 320.99 257.103 320.758 308.804 320.758C360.504 320.758 407.31 320.99 441.19 321.364C458.13 321.551 471.839 321.774 481.311 322.022C486.048 322.145 489.724 322.275 492.215 322.41C493.461 322.477 494.407 322.545 495.041 322.614C495.059 322.616 495.076 322.618 495.094 322.62C495.076 322.622 495.059 322.624 495.041 322.626C494.407 322.695 493.461 322.763 492.215 322.83C489.724 322.965 486.048 323.095 481.311 323.219C471.839 323.466 458.13 323.689 441.19 323.876C407.31 324.25 360.504 324.482 308.804 324.482C257.103 324.482 210.298 324.25 176.418 323.876C159.477 323.689 145.769 323.466 136.297 323.219C131.56 323.095 127.884 322.965 125.393 322.83C124.147 322.763 123.201 322.695 122.567 322.626C122.549 322.624 122.531 322.622 122.514 322.62Z" stroke="#EDEFF1" stroke-width="0.413759"/>
</g>
<path d="M141.023 96.708C141.023 90.5382 146.025 85.5366 152.195 85.5366H466.651C472.821 85.5366 477.823 90.5382 477.823 96.708V312.69C477.823 313.376 477.267 313.931 476.581 313.931H142.264C141.579 313.931 141.023 313.376 141.023 312.69V96.708Z" fill="#E2E8F0" stroke="#EDEFF1" stroke-width="0.827517"/>
<path d="M143.507 96.2943C143.507 91.7241 147.212 88.0192 151.782 88.0192H467.066C471.637 88.0192 475.342 91.7241 475.342 96.2943V304.829H143.507V96.2943Z" fill="#E2E8F0" stroke="#EDEFF1" stroke-width="1.65503"/>
<rect x="152.191" y="99.6044" width="313.215" height="196.122" fill="white" stroke="#EDEFF1" stroke-width="1.65503"/>
<path d="M100.269 313.518C100.269 313.175 100.547 312.897 100.89 312.897H516.304C516.646 312.897 516.924 313.175 516.924 313.518V314.966H100.269V313.518Z" fill="#E2E8F0"/>
<path d="M100.269 313.518C100.269 313.175 100.547 312.897 100.89 312.897H516.304C516.646 312.897 516.924 313.175 516.924 313.518V314.966H100.269V313.518Z" fill="url(#paint0_linear_9312_48974)"/>
<path d="M100.269 313.518C100.269 313.175 100.547 312.897 100.89 312.897H516.304C516.646 312.897 516.924 313.175 516.924 313.518V314.966H100.269V313.518Z" stroke="#EDEFF1" stroke-width="0.413759"/>
<path d="M104.715 315.995L101.947 315.38H515.059L508.669 316.669C497.911 318.838 486.964 319.931 475.989 319.931H140.573C128.513 319.931 116.489 318.611 104.715 315.995Z" fill="#E2E8F0"/>
<path d="M104.715 315.995L101.947 315.38H515.059L508.669 316.669C497.911 318.838 486.964 319.931 475.989 319.931H140.573C128.513 319.931 116.489 318.611 104.715 315.995Z" fill="url(#paint1_linear_9312_48974)"/>
<path d="M104.715 315.995L101.947 315.38H515.059L508.669 316.669C497.911 318.838 486.964 319.931 475.989 319.931H140.573C128.513 319.931 116.489 318.611 104.715 315.995Z" stroke="#EDEFF1" stroke-width="0.413759"/>
<path d="M280.461 314.966C279.646 314.966 279.121 314.897 278.784 314.784C278.457 314.674 278.327 314.528 278.265 314.374C278.195 314.2 278.196 313.979 278.212 313.674C278.213 313.648 278.215 313.622 278.216 313.595C278.228 313.385 278.241 313.148 278.223 312.897H339.384C339.367 313.148 339.38 313.385 339.391 313.595C339.393 313.622 339.394 313.648 339.395 313.674C339.411 313.979 339.412 314.2 339.342 314.374C339.28 314.528 339.15 314.674 338.823 314.784C338.487 314.897 337.962 314.966 337.146 314.966H280.461Z" fill="#E2E8F0"/>
<path d="M280.461 314.966C279.646 314.966 279.121 314.897 278.784 314.784C278.457 314.674 278.327 314.528 278.265 314.374C278.195 314.2 278.196 313.979 278.212 313.674C278.213 313.648 278.215 313.622 278.216 313.595C278.228 313.385 278.241 313.148 278.223 312.897H339.384C339.367 313.148 339.38 313.385 339.391 313.595C339.393 313.622 339.394 313.648 339.395 313.674C339.411 313.979 339.412 314.2 339.342 314.374C339.28 314.528 339.15 314.674 338.823 314.784C338.487 314.897 337.962 314.966 337.146 314.966H280.461Z" fill="url(#paint2_linear_9312_48974)"/>
<path d="M280.461 314.966C279.646 314.966 279.121 314.897 278.784 314.784C278.457 314.674 278.327 314.528 278.265 314.374C278.195 314.2 278.196 313.979 278.212 313.674C278.213 313.648 278.215 313.622 278.216 313.595C278.228 313.385 278.241 313.148 278.223 312.897H339.384C339.367 313.148 339.38 313.385 339.391 313.595C339.393 313.622 339.394 313.648 339.395 313.674C339.411 313.979 339.412 314.2 339.342 314.374C339.28 314.528 339.15 314.674 338.823 314.784C338.487 314.897 337.962 314.966 337.146 314.966H280.461Z" stroke="#EDEFF1" stroke-width="0.413759"/>
<path fill-rule="evenodd" clip-rule="evenodd" d="M244.466 256.185C241.9 252.901 238.305 251.648 235.242 252.338C232.127 253.04 229.784 255.709 229.784 259.711C229.784 265.875 233.456 270.132 237.772 273.213C235.685 275.11 234.1 277.318 233.154 279.461C233.054 279.687 232.961 279.914 232.875 280.14H221.155C220.578 280.14 220.109 280.609 220.109 281.188C220.109 281.767 220.578 282.236 221.155 282.236H232.284C232.139 283.051 232.105 283.845 232.2 284.593C232.408 286.218 233.237 287.624 234.807 288.411C236.48 289.248 238.09 289.173 239.52 288.508C240.898 287.866 242.061 286.703 243.009 285.433C243.753 284.438 244.402 283.326 244.95 282.236H268.221C268.799 282.236 269.267 281.767 269.267 281.188C269.267 280.609 268.799 280.14 268.221 280.14H245.9C246.265 279.247 246.545 278.444 246.734 277.829C247.206 276.294 247.755 273.357 247.873 270.01C248.099 269.939 248.318 269.874 248.53 269.816C249.963 269.424 250.999 269.348 251.678 269.457C252.332 269.562 252.517 269.802 252.587 269.972C252.685 270.215 252.718 270.729 252.35 271.622C251.879 272.769 251.639 273.821 251.867 274.66C251.994 275.129 252.27 275.54 252.707 275.802C253.12 276.049 253.575 276.103 253.971 276.078C254.741 276.03 255.583 275.669 256.358 275.201C257.158 274.719 257.992 274.058 258.764 273.285C259.458 272.59 260.17 271.956 260.84 271.459C261.524 270.952 262.104 270.633 262.538 270.504C262.749 270.441 262.878 270.438 262.942 270.446C262.986 270.451 262.994 270.46 262.999 270.465C263.043 270.507 263.253 270.79 263.253 271.758C263.253 273.554 263.732 274.965 265.022 275.482C265.606 275.716 266.209 275.69 266.719 275.584C267.232 275.477 267.73 275.272 268.166 275.054C268.683 274.795 268.892 274.166 268.634 273.648C268.376 273.131 267.747 272.921 267.231 273.18C266.883 273.354 266.563 273.476 266.292 273.533C266.017 273.59 265.868 273.564 265.799 273.537C265.775 273.527 265.345 273.357 265.345 271.758C265.345 270.632 265.128 269.605 264.445 268.951C263.692 268.23 262.716 268.265 261.942 268.496C261.167 268.726 260.358 269.21 259.596 269.775C258.82 270.35 258.029 271.058 257.285 271.803C256.618 272.471 255.916 273.022 255.278 273.407C255.133 273.494 254.996 273.57 254.867 273.636C254.357 273.897 253.903 273.493 254.085 272.951C254.138 272.792 254.204 272.616 254.285 272.42C254.741 271.309 254.924 270.165 254.524 269.182C254.094 268.125 253.13 267.568 252.009 267.388C250.913 267.213 249.548 267.365 247.978 267.795C247.947 267.804 247.916 267.812 247.885 267.821C247.782 263.83 246.964 259.381 244.466 256.185ZM243.626 280.14C244.128 279.011 244.504 277.966 244.735 277.213C245.11 275.991 245.576 273.605 245.742 270.797C244.992 271.11 244.186 271.48 243.326 271.911C242.64 272.254 241.984 272.638 241.363 273.055C241.597 273.194 241.833 273.332 242.07 273.468C242.571 273.755 242.745 274.395 242.459 274.897C242.172 275.4 241.533 275.574 241.032 275.287C240.545 275.009 240.058 274.718 239.573 274.415C237.561 276.145 236.038 278.189 235.143 280.14H243.626ZM234.417 282.236C234.243 283.012 234.198 283.719 234.275 284.328C234.408 285.369 234.889 286.109 235.743 286.537C236.816 287.074 237.756 287.018 238.638 286.608C239.572 286.173 240.485 285.315 241.334 284.178C241.787 283.572 242.204 282.911 242.582 282.236H234.417ZM242.39 270.037C243.617 269.422 244.756 268.917 245.804 268.516C245.803 268.403 245.802 268.289 245.8 268.175C245.736 264.258 244.961 260.218 242.819 257.476C240.678 254.736 237.867 253.894 235.701 254.382C233.586 254.859 231.876 256.642 231.876 259.711C231.876 265.108 235.193 268.914 239.455 271.836C240.365 271.167 241.346 270.56 242.39 270.037Z" fill="#636464"/>
<rect x="198.355" y="120.042" width="145.221" height="9.74046" rx="4.87023" fill="#006FFD"/>
<rect x="194.594" y="143.292" width="255.998" height="5.95343" rx="2.97672" fill="#D1D6DD"/>
<rect x="186.09" y="161.152" width="237.287" height="5.95343" rx="2.97672" fill="#D1D6DD"/>
<rect x="194.594" y="179.012" width="255.998" height="5.95343" rx="2.97672" fill="#D1D6DD"/>
<rect x="186.09" y="196.873" width="225.38" height="5.95343" rx="2.97672" fill="#D1D6DD"/>
<rect x="191.191" y="218.985" width="152.238" height="5.95343" rx="2.97672" fill="#D1D6DD"/>
<rect x="186.09" y="236.846" width="255.998" height="5.95343" rx="2.97672" fill="#D1D6DD"/>
<rect x="211.637" y="156.347" width="230.229" height="15.0534" fill="#E8178A" fill-opacity="0.24"/>
<rect x="185.957" y="212.134" width="191.267" height="17.7099" fill="#F8C07F" fill-opacity="0.3"/>
<g filter="url(#filter1_d_9312_48974)">
<rect x="54.9023" y="40.3474" width="156.922" height="202.819" rx="13.3332" fill="white"/>
<rect x="67.7227" y="137.782" width="57.4354" height="4.10253" rx="2.05127" fill="#D9D9D9"/>
<rect x="67.7227" y="80.0906" width="50.256" height="1.79486" rx="0.897429" fill="#D9D9D9"/>
<rect x="67.7227" y="114.449" width="50.256" height="1.79486" rx="0.897429" fill="#D9D9D9"/>
<rect x="67.7227" y="120.09" width="131.281" height="1.79486" rx="0.897429" fill="#D9D9D9"/>
<rect x="67.7227" y="148.039" width="50.256" height="1.79486" rx="0.897429" fill="#D9D9D9"/>
<rect x="67.7227" y="155.988" width="84.1019" height="1.79486" rx="0.897429" fill="#D9D9D9"/>
<rect x="67.7227" y="163.936" width="84.1019" height="1.79486" rx="0.897429" fill="#D9D9D9"/>
<rect x="67.7227" y="84.9624" width="136.409" height="1.79486" rx="0.897429" fill="#D9D9D9"/>
<rect x="67.7227" y="89.8342" width="136.409" height="1.79486" rx="0.897429" fill="#D9D9D9"/>
<rect x="67.7227" y="94.7058" width="136.409" height="1.79486" rx="0.897429" fill="#D9D9D9"/>
<rect x="67.7227" y="99.5776" width="110.256" height="1.79486" rx="0.897429" fill="#D9D9D9"/>
<path d="M76.5987 62.5239H74.7534C74.7008 62.2212 74.6038 61.9532 74.4623 61.7196C74.3209 61.4828 74.1449 61.2822 73.9344 61.1177C73.7239 60.9533 73.4838 60.8299 73.2141 60.7477C72.9477 60.6622 72.6599 60.6194 72.3507 60.6194C71.8014 60.6194 71.3146 60.7576 70.8903 61.0339C70.466 61.3069 70.1338 61.7081 69.8937 62.2377C69.6535 62.764 69.5335 63.407 69.5335 64.1668C69.5335 64.9398 69.6535 65.591 69.8937 66.1206C70.1371 66.6469 70.4693 67.0448 70.8903 67.3146C71.3146 67.581 71.7997 67.7142 72.3457 67.7142C72.6484 67.7142 72.9312 67.6747 73.1944 67.5958C73.4608 67.5136 73.6992 67.3935 73.9098 67.2356C74.1236 67.0777 74.3028 66.8837 74.4475 66.6534C74.5956 66.4232 74.6975 66.1601 74.7534 65.864L76.5987 65.8739C76.5296 66.3541 76.3799 66.8047 76.1497 67.2257C75.9227 67.6468 75.6251 68.0184 75.2567 68.3408C74.8883 68.6598 74.4574 68.9098 73.964 69.0907C73.4706 69.2683 72.923 69.3571 72.3211 69.3571C71.433 69.3571 70.6403 69.1516 69.943 68.7404C69.2457 68.3293 68.6964 67.7356 68.2951 66.9593C67.8938 66.1831 67.6932 65.2522 67.6932 64.1668C67.6932 63.0781 67.8955 62.1472 68.3 61.3743C68.7046 60.598 69.2556 60.0043 69.9529 59.5932C70.6502 59.182 71.4396 58.9765 72.3211 58.9765C72.8835 58.9765 73.4065 59.0554 73.89 59.2133C74.3735 59.3712 74.8044 59.6031 75.1827 59.909C75.5609 60.2116 75.8718 60.5832 76.1152 61.024C76.3618 61.4614 76.523 61.9614 76.5987 62.5239ZM81.5016 69.367C80.7615 69.367 80.1201 69.2042 79.5774 68.8786C79.0347 68.5529 78.6137 68.0974 78.3144 67.5119C78.0184 66.9264 77.8703 66.2423 77.8703 65.4595C77.8703 64.6766 78.0184 63.9908 78.3144 63.4021C78.6137 62.8133 79.0347 62.3561 79.5774 62.0305C80.1201 61.7048 80.7615 61.542 81.5016 61.542C82.2417 61.542 82.8831 61.7048 83.4258 62.0305C83.9685 62.3561 84.3879 62.8133 84.6839 63.4021C84.9832 63.9908 85.1329 64.6766 85.1329 65.4595C85.1329 66.2423 84.9832 66.9264 84.6839 67.5119C84.3879 68.0974 83.9685 68.5529 83.4258 68.8786C82.8831 69.2042 82.2417 69.367 81.5016 69.367ZM81.5115 67.9362C81.9128 67.9362 82.2483 67.826 82.518 67.6056C82.7877 67.382 82.9883 67.0827 83.1199 66.7077C83.2547 66.3327 83.3222 65.915 83.3222 65.4545C83.3222 64.9907 83.2547 64.5714 83.1199 64.1964C82.9883 63.8181 82.7877 63.5172 82.518 63.2935C82.2483 63.0699 81.9128 62.958 81.5115 62.958C81.1003 62.958 80.7583 63.0699 80.4852 63.2935C80.2155 63.5172 80.0133 63.8181 79.8784 64.1964C79.7468 64.5714 79.681 64.9907 79.681 65.4545C79.681 65.915 79.7468 66.3327 79.8784 66.7077C80.0133 67.0827 80.2155 67.382 80.4852 67.6056C80.7583 67.826 81.1003 67.9362 81.5115 67.9362ZM88.4348 64.7786V69.219H86.6488V61.6407H88.3559V62.9284H88.4447C88.619 62.5041 88.8969 62.167 89.2785 61.917C89.6633 61.667 90.1386 61.542 90.7043 61.542C91.2273 61.542 91.6829 61.6539 92.071 61.8775C92.4624 62.1012 92.765 62.4252 92.9788 62.8495C93.1959 63.2738 93.3028 63.7885 93.2995 64.3938V69.219H91.5135V64.67C91.5135 64.1635 91.3819 63.7672 91.1188 63.481C90.8589 63.1948 90.4988 63.0518 90.0383 63.0518C89.7258 63.0518 89.4479 63.1208 89.2045 63.259C88.9644 63.3938 88.7752 63.5896 88.6371 63.8461C88.5022 64.1027 88.4348 64.4135 88.4348 64.7786ZM98.8993 61.6407V63.0222H94.5428V61.6407H98.8993ZM95.6184 59.8251H97.4044V66.9396C97.4044 67.1797 97.4406 67.3639 97.513 67.4922C97.5886 67.6172 97.6873 67.7027 97.809 67.7487C97.9307 67.7948 98.0655 67.8178 98.2136 67.8178C98.3254 67.8178 98.4274 67.8096 98.5194 67.7931C98.6148 67.7767 98.6872 67.7619 98.7365 67.7487L99.0375 69.145C98.9421 69.1779 98.8056 69.2141 98.628 69.2535C98.4537 69.293 98.2399 69.316 97.9866 69.3226C97.5393 69.3358 97.1363 69.2683 96.7778 69.1203C96.4193 68.969 96.1348 68.7355 95.9243 68.4197C95.7171 68.104 95.6151 67.7093 95.6184 67.2356V59.8251ZM100.393 69.219V61.6407H102.125V62.9038H102.204C102.342 62.4663 102.579 62.1292 102.914 61.8923C103.253 61.6522 103.639 61.5322 104.074 61.5322C104.172 61.5322 104.283 61.5371 104.404 61.547C104.529 61.5535 104.633 61.5651 104.715 61.5815V63.2245C104.639 63.1981 104.519 63.1751 104.355 63.1554C104.194 63.1324 104.037 63.1208 103.886 63.1208C103.561 63.1208 103.268 63.1916 103.008 63.333C102.751 63.4711 102.549 63.6636 102.401 63.9102C102.253 64.1569 102.179 64.4415 102.179 64.7638V69.219H100.393ZM107.947 69.3719C107.466 69.3719 107.034 69.2864 106.649 69.1154C106.268 68.9411 105.965 68.6845 105.741 68.3457C105.521 68.0069 105.411 67.5892 105.411 67.0925C105.411 66.6649 105.49 66.3114 105.648 66.0318C105.805 65.7522 106.021 65.5285 106.294 65.3608C106.567 65.193 106.874 65.0664 107.216 64.9809C107.562 64.8921 107.919 64.8279 108.287 64.7885C108.731 64.7424 109.091 64.7013 109.368 64.6651C109.644 64.6256 109.845 64.5664 109.97 64.4875C110.098 64.4053 110.162 64.2786 110.162 64.1076V64.078C110.162 63.7063 110.052 63.4185 109.831 63.2146C109.611 63.0107 109.294 62.9087 108.879 62.9087C108.442 62.9087 108.095 63.0041 107.838 63.1948C107.585 63.3856 107.414 63.6109 107.325 63.8708L105.657 63.634C105.789 63.1735 106.006 62.7886 106.309 62.4795C106.611 62.167 106.981 61.9334 107.419 61.7789C107.856 61.621 108.34 61.542 108.869 61.542C109.234 61.542 109.598 61.5848 109.96 61.6703C110.321 61.7558 110.652 61.8973 110.951 62.0946C111.251 62.2887 111.491 62.5535 111.672 62.889C111.856 63.2245 111.948 63.6438 111.948 64.1471V69.219H110.231V68.178H110.172C110.063 68.3885 109.91 68.5858 109.713 68.77C109.519 68.9509 109.274 69.0973 108.978 69.2091C108.685 69.3177 108.341 69.3719 107.947 69.3719ZM108.41 68.0596C108.769 68.0596 109.08 67.9888 109.343 67.8474C109.606 67.7027 109.808 67.5119 109.95 67.2751C110.095 67.0383 110.167 66.7801 110.167 66.5005V65.6075C110.111 65.6535 110.016 65.6963 109.881 65.7357C109.749 65.7752 109.601 65.8098 109.437 65.8394C109.272 65.869 109.109 65.8953 108.948 65.9183C108.787 65.9413 108.647 65.9611 108.529 65.9775C108.262 66.0137 108.024 66.0729 107.813 66.1551C107.603 66.2373 107.437 66.3525 107.315 66.5005C107.193 66.6452 107.133 66.8327 107.133 67.0629C107.133 67.3919 107.253 67.6402 107.493 67.8079C107.733 67.9757 108.039 68.0596 108.41 68.0596ZM117.049 69.367C116.293 69.367 115.643 69.2009 115.101 68.8687C114.561 68.5365 114.145 68.0776 113.852 67.4922C113.563 66.9034 113.418 66.2258 113.418 65.4595C113.418 64.6898 113.566 64.0106 113.862 63.4218C114.158 62.8297 114.576 62.3693 115.115 62.0403C115.658 61.7081 116.3 61.542 117.04 61.542C117.655 61.542 118.199 61.6555 118.673 61.8825C119.15 62.1061 119.53 62.4235 119.812 62.8347C120.095 63.2425 120.256 63.7195 120.296 64.2655H118.589C118.52 63.9004 118.355 63.5961 118.095 63.3527C117.839 63.106 117.495 62.9827 117.064 62.9827C116.699 62.9827 116.378 63.0814 116.102 63.2787C115.826 63.4728 115.61 63.7524 115.456 64.1175C115.305 64.4826 115.229 64.92 115.229 65.4299C115.229 65.9463 115.305 66.3903 115.456 66.762C115.607 67.1304 115.819 67.4149 116.092 67.6155C116.369 67.8129 116.693 67.9115 117.064 67.9115C117.327 67.9115 117.563 67.8622 117.77 67.7635C117.98 67.6616 118.156 67.5152 118.298 67.3244C118.439 67.1336 118.536 66.9018 118.589 66.6288H120.296C120.253 67.1649 120.095 67.6402 119.822 68.0546C119.549 68.4658 119.178 68.7881 118.707 69.0216C118.237 69.2519 117.684 69.367 117.049 69.367ZM125.547 61.6407V63.0222H121.19V61.6407H125.547ZM122.266 59.8251H124.052V66.9396C124.052 67.1797 124.088 67.3639 124.16 67.4922C124.236 67.6172 124.335 67.7027 124.456 67.7487C124.578 67.7948 124.713 67.8178 124.861 67.8178C124.973 67.8178 125.075 67.8096 125.167 67.7931C125.262 67.7767 125.335 67.7619 125.384 67.7487L125.685 69.145C125.589 69.1779 125.453 69.2141 125.275 69.2535C125.101 69.293 124.887 69.316 124.634 69.3226C124.187 69.3358 123.784 69.2683 123.425 69.1203C123.067 68.969 122.782 68.7355 122.572 68.4197C122.364 68.104 122.262 67.7093 122.266 67.2356V59.8251Z" fill="#636464"/>
</g>
<circle cx="54.9025" cy="239.584" r="45.1603" fill="#EAF2FF"/>
<path d="M49.0022 258.193H60.8065C70.6434 258.193 74.5782 254.258 74.5782 244.421V232.617C74.5782 222.78 70.6434 218.845 60.8065 218.845H49.0022C39.1652 218.845 35.2305 222.78 35.2305 232.617V244.421C35.2305 254.258 39.1652 258.193 49.0022 258.193Z" stroke="#006FFD" stroke-width="4.21582" stroke-linecap="round" stroke-linejoin="round"/>
<path d="M45.0938 218.845V213.926" stroke="#006FFD" stroke-width="4.21582" stroke-linecap="round" stroke-linejoin="round"/>
<path d="M54.9023 219.091V214.172" stroke="#006FFD" stroke-width="4.21582" stroke-linecap="round" stroke-linejoin="round"/>
<path d="M64.7383 218.845V213.926" stroke="#006FFD" stroke-width="4.21582" stroke-linecap="round" stroke-linejoin="round"/>
<path d="M74.5781 228.682H79.4966" stroke="#006FFD" stroke-width="4.21582" stroke-linecap="round" stroke-linejoin="round"/>
<path d="M74.5781 238.519H79.4966" stroke="#006FFD" stroke-width="4.21582" stroke-linecap="round" stroke-linejoin="round"/>
<path d="M74.5781 248.356H79.4966" stroke="#006FFD" stroke-width="4.21582" stroke-linecap="round" stroke-linejoin="round"/>
<path d="M64.7383 258.193V263.111" stroke="#006FFD" stroke-width="4.21582" stroke-linecap="round" stroke-linejoin="round"/>
<path d="M54.9258 258.193V263.111" stroke="#006FFD" stroke-width="4.21582" stroke-linecap="round" stroke-linejoin="round"/>
<path d="M45.0938 258.193V263.111" stroke="#006FFD" stroke-width="4.21582" stroke-linecap="round" stroke-linejoin="round"/>
<path d="M30.3125 228.682H35.231" stroke="#006FFD" stroke-width="4.21582" stroke-linecap="round" stroke-linejoin="round"/>
<path d="M30.3125 238.519H35.231" stroke="#006FFD" stroke-width="4.21582" stroke-linecap="round" stroke-linejoin="round"/>
<path d="M30.3125 248.356H35.231" stroke="#006FFD" stroke-width="4.21582" stroke-linecap="round" stroke-linejoin="round"/>
<path d="M44.207 247.126L51.2005 231.141L58.3937 247.126" stroke="#006FFD" stroke-width="3.42536" stroke-miterlimit="10" stroke-linecap="round" stroke-linejoin="round"/>
<path d="M45.8047 241.731H56.5946" stroke="#006FFD" stroke-width="3.42536" stroke-miterlimit="10"/>
<path d="M63.3906 247.126V236.536" stroke="#006FFD" stroke-width="3.42536" stroke-miterlimit="10" stroke-linecap="round" stroke-linejoin="round"/>
<path d="M63.4688 231.209V231.209" stroke="#006FFD" stroke-width="4.56714" stroke-linecap="round" stroke-linejoin="round"/>
<defs>
<filter id="filter0_f_9312_48974" x="103.373" y="302.346" width="410.864" height="40.5483" filterUnits="userSpaceOnUse" color-interpolation-filters="sRGB">
<feFlood flood-opacity="0" result="BackgroundImageFix"/>
<feBlend mode="normal" in="SourceGraphic" in2="BackgroundImageFix" result="shape"/>
<feGaussianBlur stdDeviation="9.10269" result="effect1_foregroundBlur_9312_48974"/>
</filter>
<filter id="filter1_d_9312_48974" x="20.6288" y="18.1704" width="253.694" height="299.591" filterUnits="userSpaceOnUse" color-interpolation-filters="sRGB">
<feFlood flood-opacity="0" result="BackgroundImageFix"/>
<feColorMatrix in="SourceAlpha" type="matrix" values="0 0 0 0 0 0 0 0 0 0 0 0 0 0 0 0 0 0 127 0" result="hardAlpha"/>
<feOffset dx="14.1126" dy="26.2092"/>
<feGaussianBlur stdDeviation="24.1931"/>
<feComposite in2="hardAlpha" operator="out"/>
<feColorMatrix type="matrix" values="0 0 0 0 0.145104 0 0 0 0 0.286634 0 0 0 0 0.829167 0 0 0 0.1 0"/>
<feBlend mode="normal" in2="BackgroundImageFix" result="effect1_dropShadow_9312_48974"/>
<feBlend mode="normal" in="SourceGraphic" in2="effect1_dropShadow_9312_48974" result="shape"/>
</filter>
<linearGradient id="paint0_linear_9312_48974" x1="100.062" y1="313.931" x2="517.131" y2="313.931" gradientUnits="userSpaceOnUse">
<stop stop-color="#B7C2D0"/>
<stop offset="0.0295345" stop-color="#CAD4DB"/>
<stop offset="0.0625" stop-color="#BECCDE"/>
<stop offset="0.133609" stop-color="#B7C2D0" stop-opacity="0.3"/>
<stop offset="0.865967" stop-color="#B7C2D0" stop-opacity="0.3"/>
<stop offset="0.941937" stop-color="#BECCDE"/>
<stop offset="0.971275" stop-color="#CAD4DB"/>
<stop offset="0.996436" stop-color="#B7C2D0"/>
</linearGradient>
<linearGradient id="paint1_linear_9312_48974" x1="308.597" y1="315.173" x2="308.597" y2="320.138" gradientUnits="userSpaceOnUse">
<stop stop-color="#D1DBE9" stop-opacity="0.6"/>
<stop offset="1" stop-color="#AAB5C6" stop-opacity="0.6"/>
</linearGradient>
<linearGradient id="paint2_linear_9312_48974" x1="284.071" y1="314.198" x2="334.644" y2="314.198" gradientUnits="userSpaceOnUse">
<stop stop-color="#CFD9E7"/>
<stop offset="0.317518" stop-color="#CFD9E7" stop-opacity="0"/>
<stop offset="0.660584" stop-color="#CFD9E7" stop-opacity="0"/>
<stop offset="1" stop-color="#CFD9E7"/>
</linearGradient>
</defs>
</svg>