<svg width="500" height="299" viewBox="0 0 500 299" fill="none" xmlns="http://www.w3.org/2000/svg">
<g clip-path="url(#clip0_9533_52117)">
<path d="M53.1216 6.66087L18.5938 158.524L226.357 205.761L260.884 53.8981L53.1216 6.66087Z" fill="#A3AEBB"/>
<path d="M57.0775 12.9208L24.8516 154.66L222.577 199.615L254.803 57.8758L57.0775 12.9208Z" fill="#EAF2FF"/>
<path d="M32.7057 119.916L24.8164 154.615L222.541 199.57L230.431 164.871L32.7057 119.916Z" fill="#D1D6DD"/>
<path d="M82.4271 125.059C83.3145 121.243 81.8059 117.516 79.0549 115.209C80.3861 113.877 81.3622 112.28 81.8059 110.328C82.6046 106.601 81.2735 102.962 78.6112 100.655C79.3212 100.034 80.0311 99.2351 80.5635 98.3477C84.2907 97.6377 87.4854 94.798 88.3728 90.8047C89.4377 86.1014 86.9529 81.3981 82.6046 79.5345C82.6046 79.4457 82.6046 79.4457 82.6933 79.357C83.9357 74.0325 80.5635 68.708 75.2391 67.4657C69.9146 66.2233 64.5901 69.5955 63.3477 74.9199C63.0815 76.0736 63.0815 77.2272 63.1702 78.3809C62.9927 78.2921 62.8153 78.2921 62.549 78.2034C57.2245 76.961 51.9001 80.3332 50.6577 85.6576C49.7703 89.3848 51.1901 93.1119 53.9411 95.4192C51.9001 96.7503 50.3027 98.8801 49.7703 101.454C49.4153 103.051 49.4153 104.737 49.859 106.157C45.3332 106.157 41.2511 109.263 40.2749 113.877C39.565 116.806 40.3637 119.823 42.0498 122.042L79.0549 130.472C80.741 129.141 81.9834 127.277 82.4271 125.059Z" fill="#D1D6DD"/>
<path d="M212.619 177.949C213.506 174.133 211.997 170.406 209.246 168.099C210.577 166.768 211.554 165.17 211.997 163.218C212.796 159.491 211.465 155.853 208.803 153.545C209.513 152.924 210.223 152.125 210.755 151.238C214.482 150.528 217.677 147.688 218.564 143.695C219.629 138.992 217.144 134.288 212.796 132.425C212.796 132.336 212.796 132.336 212.885 132.247C214.127 126.923 210.755 121.598 205.43 120.356C200.106 119.114 194.781 122.486 193.539 127.81C193.273 128.964 193.273 130.118 193.362 131.271C193.184 131.182 193.007 131.182 192.74 131.094C187.416 129.851 182.091 133.224 180.849 138.548C179.962 142.275 181.382 146.002 184.133 148.31C182.091 149.641 180.494 151.771 179.962 154.344C179.607 155.941 179.607 157.627 180.05 159.047C175.525 159.047 171.442 162.153 170.466 166.768C169.756 169.696 170.555 172.713 172.241 174.932L209.246 183.362C210.932 182.031 212.175 180.168 212.619 177.949Z" fill="#D1D6DD"/>
<path d="M194.514 65.1583L118.907 48.0312L97.875 140.411L144.021 150.883L173.483 157.627L202.856 164.283L217.765 98.9688L194.514 65.1583Z" fill="#006FFD"/>
<path d="M68.4102 133.756L83.3187 68.442L118.904 48.0315L142.154 81.842L127.246 147.067L68.4102 133.756Z" fill="#636464"/>
<path d="M181.121 69.773L189.552 82.0193L195.675 54.8644L185.026 52.4684L181.121 69.773Z" fill="#636464"/>
<path d="M195.65 54.8759L189.492 81.9603L194.771 83.1604L200.929 56.076L195.65 54.8759Z" fill="#D1D6DD"/>
<path d="M142.154 81.8316L127.32 147.077L202.949 164.272L217.783 99.0267L142.154 81.8316Z" fill="#B8D4F7"/>
<path d="M87.8003 76.0852L84.6328 90.0168L90.1708 91.276L93.3384 77.3444L87.8003 76.0852Z" fill="#EAF2FF"/>
<path d="M94.6363 77.5879L91.4688 91.5195L97.0068 92.7787L100.174 78.8471L94.6363 77.5879Z" fill="#EAF2FF"/>
<path d="M84.3003 91.416L81.1328 105.348L86.6708 106.607L89.8383 92.6752L84.3003 91.416Z" fill="#EAF2FF"/>
<path d="M91.1221 93.0168L87.9531 106.948L93.4912 108.208L96.6601 94.2765L91.1221 93.0168Z" fill="#EAF2FF"/>
<path d="M80.7808 106.836L77.6133 120.767L83.1513 122.026L86.3188 108.095L80.7808 106.836Z" fill="#EAF2FF"/>
<path d="M87.7027 108.355L84.5352 122.287L90.0732 123.546L93.2407 109.614L87.7027 108.355Z" fill="#EAF2FF"/>
<path d="M110.16 81.2071L106.992 95.1387L112.53 96.3978L115.698 82.4662L110.16 81.2071Z" fill="#EAF2FF"/>
<path d="M117.087 82.7388L113.918 96.6704L119.456 97.9301L122.625 83.9985L117.087 82.7388Z" fill="#EAF2FF"/>
<path d="M106.656 96.5402L103.488 110.472L109.026 111.731L112.194 97.7993L106.656 96.5402Z" fill="#EAF2FF"/>
<path d="M113.57 98.0597L110.402 111.991L115.94 113.25L119.108 99.3189L113.57 98.0597Z" fill="#EAF2FF"/>
<path d="M103.156 111.87L99.9883 125.802L105.526 127.061L108.694 113.129L103.156 111.87Z" fill="#EAF2FF"/>
<path d="M110.05 113.477L106.883 127.408L112.421 128.667L115.588 114.736L110.05 113.477Z" fill="#EAF2FF"/>
<path d="M147.601 89.6867L144.434 103.618L149.972 104.877L153.139 90.9458L147.601 89.6867Z" fill="#EAF2FF"/>
<path d="M154.515 91.209L151.348 105.141L156.886 106.4L160.053 92.4681L154.515 91.209Z" fill="#EAF2FF"/>
<path d="M144.093 105.017L140.926 118.948L146.464 120.207L149.631 106.276L144.093 105.017Z" fill="#EAF2FF"/>
<path d="M151.005 106.638L147.836 120.57L153.374 121.83L156.543 107.898L151.005 106.638Z" fill="#EAF2FF"/>
<path d="M140.582 120.436L137.414 134.368L142.952 135.627L146.12 121.695L140.582 120.436Z" fill="#EAF2FF"/>
<path d="M147.496 121.956L144.328 135.887L149.866 137.146L153.034 123.215L147.496 121.956Z" fill="#EAF2FF"/>
<path d="M166.398 93.8967L152.98 152.911L177.729 158.538L191.146 99.5235L166.398 93.8967Z" fill="#636464"/>
<path d="M166.626 105.679L155.746 153.531L175.043 157.918L185.922 110.066L166.626 105.679Z" fill="#A3AEBB"/>
<path d="M180.84 99.8561L175.604 98.6137C171.699 97.7263 167.884 100.122 166.996 104.027L186.253 108.375C187.14 104.559 184.744 100.744 180.84 99.8561Z" fill="#EAF2FF"/>
<path d="M166.016 130.739C165.838 131.448 165.128 131.981 164.33 131.803C163.62 131.626 163.087 130.916 163.265 130.117C163.442 129.407 164.152 128.875 164.951 129.052C165.661 129.23 166.193 129.94 166.016 130.739Z" fill="#EAF2FF"/>
<path d="M51.1677 122.399L47.9805 136.417L93.5827 146.785L96.7699 132.767L51.1677 122.399Z" fill="#EAF2FF"/>
<path d="M54.7759 138.001L51.7461 151.326L54.2555 151.897L57.2853 138.571L54.7759 138.001Z" fill="#636464"/>
<path d="M84.2251 144.725L81.1953 158.051L83.7047 158.621L86.7345 145.295L84.2251 144.725Z" fill="#636464"/>
<path d="M58.5638 135.176C58.0313 134.91 57.6764 134.555 57.4102 134.288L58.2976 133.135C58.5638 133.401 58.9188 133.756 59.2737 133.933C59.7174 134.2 60.0724 134.377 60.5161 134.466C61.0486 134.555 61.4035 134.555 61.6697 134.466C61.936 134.377 62.1135 134.2 62.1135 133.933C62.1135 133.756 62.1135 133.578 62.0247 133.401C61.936 133.223 61.7585 133.135 61.581 132.957C61.4035 132.869 61.1373 132.691 60.7823 132.514C60.2499 132.247 59.8062 131.981 59.4512 131.804C59.0962 131.626 58.83 131.271 58.6525 130.916C58.4751 130.561 58.3863 130.118 58.5638 129.674C58.6525 129.23 58.83 128.875 59.185 128.609C59.54 128.343 59.8949 128.076 60.4274 127.988C60.9598 127.899 61.581 127.899 62.2022 128.076C62.6459 128.165 63.0896 128.343 63.5333 128.609C63.977 128.786 64.332 129.053 64.5982 129.408L63.7995 130.561C63.1783 130.029 62.5572 129.674 61.8472 129.496C61.4035 129.408 60.9598 129.408 60.6936 129.496C60.4274 129.585 60.2499 129.763 60.1611 130.029C60.0724 130.295 60.1611 130.472 60.4274 130.65C60.6936 130.827 61.0486 131.094 61.581 131.271C62.1135 131.537 62.5572 131.804 62.9121 131.981C63.2671 132.159 63.5333 132.514 63.7108 132.869C63.8883 133.223 63.977 133.667 63.7995 134.111C63.7108 134.555 63.5333 134.91 63.1783 135.176C62.8234 135.442 62.4684 135.708 61.936 135.797C61.4035 135.886 60.7823 135.886 60.1611 135.708C59.6287 135.708 59.0962 135.442 58.5638 135.176Z" fill="#B8D4F7"/>
<path d="M69.9217 136.241L66.4608 135.442L65.3959 136.862L63.6211 136.418L68.6794 129.674L70.3654 130.029L72.0515 138.282L70.2767 137.838L69.9217 136.241ZM69.6555 134.732L69.1231 131.626L67.2595 134.2L69.6555 134.732Z" fill="#B8D4F7"/>
<path d="M74.5365 131.094L76.3114 131.449L74.8915 137.483L78.6187 138.371L78.2637 139.79L72.7617 138.548L74.5365 131.094Z" fill="#B8D4F7"/>
<path d="M85.3653 139.968L85.0104 141.388L79.2422 140.057L80.9283 132.603L86.6077 133.845L86.2528 135.265L82.3481 134.377L81.9932 135.975L85.4541 136.773L85.1879 138.105L81.7269 137.306L81.372 139.081L85.3653 139.968Z" fill="#B8D4F7"/>
<path d="M448.042 102.235L279.316 132.418L301.37 255.699L470.096 225.515L448.042 102.235Z" fill="#D1D6DD"/>
<path d="M444.697 107.038L284.121 135.763L304.717 250.895L465.293 222.169L444.697 107.038Z" fill="#EAF2FF"/>
<path d="M458.626 185.074L298.051 213.799L304.698 250.956L465.273 222.231L458.626 185.074Z" fill="#D1D6DD"/>
<path d="M448.397 183.925C452.115 179.645 442.503 167.648 442.503 167.648C442.503 167.648 442.293 168.35 441.942 169.543C441.311 168.28 440.609 167.087 439.907 166.035C443.626 163.579 439.978 156.703 437.171 152.494C438.153 147.372 430.506 137.831 430.506 137.831C430.506 137.831 429.734 140.076 429.173 143.022C427.7 137.971 422.859 131.937 422.859 131.937C422.859 131.937 420.964 137.62 420.754 142.601C419.631 140.988 418.789 139.935 418.789 139.935C418.789 139.935 413.738 155.09 419.21 157.405C418.579 160.983 418.228 165.193 419.772 167.368C418.579 172.279 417.456 180.207 421.876 181.189C421.245 185.539 421.385 190.24 424.613 191.081L449.73 186.591C449.379 185.679 448.888 184.767 448.397 183.925Z" fill="#D1D6DD"/>
<path d="M377.464 141.619L321.547 151.652L333.965 221.11L389.882 211.077L428.119 204.271L417.314 143.513L377.464 141.619Z" fill="#006FFD"/>
<path d="M321.55 151.652L323.865 164.631L306.816 171.858L316.218 224.267L333.968 221.109L354.455 217.461L372.205 214.234L361.33 153.476L321.55 151.652Z" fill="#636464"/>
<path d="M416.996 143.5L361.398 153.446L372.271 214.223L427.868 204.277L416.996 143.5Z" fill="#B8D4F7"/>
<path d="M330.686 173.871L314.387 176.787L315.387 182.381L331.687 179.465L330.686 173.871Z" fill="#EAF2FF"/>
<path d="M332.092 181.731L315.793 184.647L316.794 190.241L333.093 187.325L332.092 181.731Z" fill="#EAF2FF"/>
<path d="M333.495 189.589L317.195 192.505L318.196 198.099L334.495 195.184L333.495 189.589Z" fill="#EAF2FF"/>
<path d="M334.897 197.446L318.598 200.362L319.598 205.956L335.898 203.04L334.897 197.446Z" fill="#EAF2FF"/>
<path d="M336.307 205.306L320.008 208.222L321.009 213.816L337.308 210.9L336.307 205.306Z" fill="#EAF2FF"/>
<path d="M355.448 169.459L339.148 172.374L340.149 177.969L356.448 175.053L355.448 169.459Z" fill="#EAF2FF"/>
<path d="M356.858 177.315L340.559 180.231L341.559 185.825L357.859 182.909L356.858 177.315Z" fill="#EAF2FF"/>
<path d="M358.256 185.174L341.957 188.089L342.958 193.684L359.257 190.768L358.256 185.174Z" fill="#EAF2FF"/>
<path d="M359.659 193.035L343.359 195.95L344.36 201.545L360.659 198.629L359.659 193.035Z" fill="#EAF2FF"/>
<path d="M361.073 200.893L344.773 203.809L345.774 209.403L362.073 206.487L361.073 200.893Z" fill="#EAF2FF"/>
<path d="M412.499 159.287L396.199 162.202L397.2 167.797L413.499 164.881L412.499 159.287Z" fill="#EAF2FF"/>
<path d="M413.897 167.143L397.598 170.059L398.598 175.653L414.898 172.737L413.897 167.143Z" fill="#EAF2FF"/>
<path d="M415.299 174.999L399 177.915L400.001 183.51L416.3 180.594L415.299 174.999Z" fill="#EAF2FF"/>
<path d="M416.709 182.86L400.41 185.775L401.411 191.37L417.71 188.454L416.709 182.86Z" fill="#EAF2FF"/>
<path d="M418.108 190.718L401.809 193.634L402.809 199.228L419.109 196.312L418.108 190.718Z" fill="#EAF2FF"/>
<path d="M390.72 163.131L370.691 166.714L378.969 212.988L398.998 209.405L390.72 163.131Z" fill="#636464"/>
<path d="M388.701 165.962L383.59 166.877L390.966 208.108L396.077 207.194L388.701 165.962Z" fill="#EAF2FF"/>
<path d="M378.735 189.187C378.805 189.748 378.454 190.239 377.893 190.38C377.332 190.45 376.841 190.099 376.7 189.538C376.63 188.977 376.981 188.486 377.542 188.345C378.103 188.275 378.665 188.626 378.735 189.187Z" fill="#EAF2FF"/>
<path d="M369.261 197.536C369.261 197.536 362.807 216.9 372.419 215.216C382.03 213.462 369.261 197.536 369.261 197.536Z" fill="#D1D6DD"/>
<path d="M342.39 202.307C342.39 202.307 335.936 221.671 345.547 219.987C355.159 218.303 342.39 202.307 342.39 202.307Z" fill="#D1D6DD"/>
<path d="M436.161 198.689L410.262 203.322L412.893 218.033L438.793 213.4L436.161 198.689Z" fill="#636464"/>
<path d="M418.385 217.099L415.691 217.581L417.161 225.799L419.854 225.318L418.385 217.099Z" fill="#EAF2FF"/>
<path d="M435.947 213.908L433.254 214.39L434.724 222.608L437.418 222.126L435.947 213.908Z" fill="#EAF2FF"/>
<path d="M415.764 211.428C415.343 211.358 414.992 211.288 414.712 211.077L414.922 209.955C415.203 210.095 415.483 210.235 415.834 210.235C416.185 210.305 416.466 210.305 416.816 210.235C417.167 210.165 417.378 210.095 417.588 209.955C417.728 209.814 417.799 209.674 417.728 209.463C417.728 209.323 417.658 209.183 417.518 209.113C417.378 209.043 417.237 208.972 417.097 208.972C416.957 208.972 416.746 208.902 416.466 208.902C416.045 208.902 415.694 208.832 415.413 208.762C415.133 208.692 414.852 208.551 414.641 208.341C414.431 208.13 414.291 207.85 414.22 207.429C414.15 207.078 414.22 206.727 414.291 206.447C414.431 206.166 414.641 205.885 414.922 205.675C415.203 205.464 415.624 205.324 416.115 205.184C416.466 205.114 416.816 205.114 417.097 205.114C417.448 205.114 417.728 205.254 418.009 205.324L417.799 206.447C417.237 206.236 416.746 206.166 416.255 206.236C415.904 206.306 415.694 206.376 415.554 206.587C415.413 206.727 415.343 206.938 415.413 207.148C415.483 207.359 415.553 207.499 415.764 207.569C415.974 207.639 416.255 207.709 416.676 207.709C417.097 207.709 417.448 207.78 417.728 207.85C418.009 207.92 418.29 208.06 418.5 208.271C418.711 208.481 418.851 208.762 418.921 209.183C418.991 209.534 418.921 209.814 418.851 210.165C418.711 210.446 418.5 210.726 418.22 210.937C417.939 211.147 417.518 211.288 417.027 211.428C416.606 211.498 416.185 211.498 415.764 211.428Z" fill="#EAF2FF"/>
<path d="M423.343 208.832L420.887 209.253L420.677 210.586L419.414 210.796L420.677 204.412L421.87 204.201L425.307 209.744L424.045 209.954L423.343 208.832ZM422.782 207.85L421.519 205.745L421.098 208.2L422.782 207.85Z" fill="#EAF2FF"/>
<path d="M424.816 203.78L426.009 203.57L426.851 208.411L429.517 207.92L429.728 209.042L425.869 209.744L424.816 203.78Z" fill="#EAF2FF"/>
<path d="M434.286 207.078L434.497 208.201L430.427 208.902L429.375 202.939L433.374 202.237L433.585 203.36L430.778 203.851L430.989 205.114L433.444 204.693L433.655 205.745L431.199 206.166L431.41 207.569L434.286 207.078Z" fill="#EAF2FF"/>
<path d="M435.131 209.343L414.895 212.963L415.315 215.312L435.551 211.692L435.131 209.343Z" fill="#EAF2FF"/>
<path d="M346.781 64.0303C346.663 65.2162 346.425 66.3429 346.01 67.4103C345.299 69.3078 344.231 71.0275 342.867 72.4506C340.08 75.2969 336.048 76.898 331.779 76.5422C324.188 75.8306 318.614 69.1299 319.267 61.5397C319.919 53.9496 326.679 48.3755 334.269 49.0278C341.859 49.7394 347.433 56.4401 346.781 64.0303Z" stroke="#A3AEBB" stroke-width="1.77895" stroke-miterlimit="10"/>
<path d="M361.721 77.7875C368.837 75.3563 373.343 68.7742 373.462 61.6584L407.143 50.2138C407.44 50.0952 407.677 49.858 407.855 49.5615L410.227 43.8096C410.464 43.2759 410.227 42.683 409.752 42.3865L404.416 39.2437C404.119 39.0658 403.763 39.0658 403.467 39.1251L399.316 40.5482C399.019 40.6668 398.782 40.8447 398.664 41.1412L397.359 43.7503C397.063 44.284 396.41 44.5212 395.817 44.284L393.979 43.3945C393.445 43.098 392.734 43.3352 392.437 43.9282L391.548 45.7665C391.251 46.3001 390.599 46.5373 390.006 46.3001L387.397 44.9956C387.1 44.877 386.804 44.8177 386.507 44.9363L383.72 45.8851C383.424 46.0037 383.187 46.1816 383.068 46.478L381.764 49.0872C381.467 49.6208 380.815 49.858 380.222 49.6208L377.198 48.1384H377.138L376.19 45.2921C375.952 44.5805 375.122 44.284 374.529 44.6991L367.888 48.85C363.381 44.5805 356.74 42.9202 350.454 45.0549C341.382 48.1384 336.519 57.9819 339.603 66.9952C342.805 76.0085 352.648 80.871 361.721 77.7875ZM347.252 59.7608C349.565 58.99 352.055 60.2352 352.826 62.4886C353.597 64.8012 352.352 67.2917 350.098 68.0626C347.786 68.8335 345.295 67.5882 344.524 65.3349C343.694 63.0222 344.939 60.5317 347.252 59.7608Z" fill="#929292"/>
<path d="M357.276 59.2271C363.028 54.3647 364.807 46.5373 362.257 39.8959L389.416 16.8882C389.653 16.651 389.831 16.3545 389.831 16.058L389.89 9.89101C389.89 9.29802 389.475 8.82364 388.941 8.76434L382.834 7.75627C382.537 7.69697 382.181 7.81557 381.944 7.99346L378.564 10.8398C378.327 11.0177 378.208 11.3142 378.149 11.6107L377.912 14.5163C377.853 15.1685 377.319 15.5836 376.667 15.5836L374.65 15.4057C373.998 15.3464 373.464 15.8208 373.405 16.4731L373.227 18.4892C373.168 19.1415 372.634 19.5566 371.982 19.5566L369.076 19.3194C368.78 19.3194 368.483 19.3787 368.246 19.5566L365.993 21.4542C365.756 21.632 365.637 21.9285 365.578 22.225L365.341 25.1306C365.281 25.7829 364.748 26.198 364.095 26.198L360.775 25.9015L358.877 23.6482C358.403 23.1145 357.513 23.1145 357.098 23.7075L352.414 29.9931C346.662 27.6805 339.842 28.5699 334.802 32.8394C327.508 39.0064 326.619 49.9766 332.786 57.2703C339.071 64.5047 349.982 65.3941 357.276 59.2271ZM337.233 47.7233C339.071 46.1222 341.859 46.3594 343.46 48.2569C345.061 50.0952 344.823 52.8822 342.926 54.4833C341.088 56.0843 338.301 55.8471 336.7 53.9496C335.158 52.1113 335.336 49.3243 337.233 47.7233Z" fill="#A3AEBB"/>
<path d="M340.795 88.817L329.825 63.7339C329.765 63.556 329.528 63.3781 329.35 63.3781L302.369 58.9307C302.132 58.8714 301.895 58.99 301.776 59.1679L277.998 89.7658C277.761 90.0623 277.82 90.4774 278.117 90.6552L290.273 100.084C290.569 100.321 290.984 100.262 291.162 99.9651L306.461 80.2781C306.698 79.9816 307.113 79.9223 307.351 80.1595L318.973 89.1728C319.269 89.41 319.329 89.8251 319.092 90.0623L303.793 109.749C303.555 110.046 303.615 110.461 303.911 110.639L316.067 120.067C316.364 120.304 316.779 120.245 316.957 119.949L340.735 89.3507C340.854 89.2914 340.854 89.0542 340.795 88.817ZM319.507 76.5423C317.609 75.0598 317.253 72.2728 318.736 70.3753C320.218 68.4777 323.005 68.1219 324.903 69.6044C326.8 71.0868 327.156 73.8739 325.674 75.7714C324.191 77.6689 321.404 78.0247 319.507 76.5423Z" fill="#006FFD"/>
<path d="M286.447 260.834C303.537 243.743 303.537 216.035 286.447 198.945C269.357 181.854 241.648 181.854 224.558 198.945C207.468 216.035 207.468 243.743 224.558 260.834C241.648 277.924 269.357 277.924 286.447 260.834Z" stroke="#A3AEBB" stroke-width="10.209" stroke-miterlimit="10"/>
<path d="M214.348 244.655L182.973 255.885" stroke="#A3AEBB" stroke-width="10.209" stroke-miterlimit="10"/>
<path d="M182.965 255.885L130.082 274.806" stroke="#B8D4F7" stroke-width="16.3344" stroke-miterlimit="10" stroke-linecap="round" stroke-linejoin="round"/>
<path d="M273.933 187.244C272.955 186.755 271.766 187.152 271.277 188.131L254.984 220.765C254.495 221.743 253.306 222.14 252.328 221.652L219.694 205.358C218.716 204.87 217.527 205.267 217.038 206.245L214.251 211.827C213.763 212.806 214.16 213.995 215.138 214.483L247.772 230.777C248.75 231.265 249.148 232.454 248.659 233.433L232.366 266.067C231.877 267.045 232.274 268.234 233.253 268.723L238.835 271.51C239.813 271.998 241.002 271.601 241.491 270.623L257.784 237.989C258.273 237.01 259.462 236.613 260.44 237.102L293.074 253.395C294.052 253.883 295.242 253.486 295.73 252.508L298.517 246.926C299.006 245.947 298.608 244.758 297.63 244.27L264.996 227.976C264.018 227.488 263.621 226.299 264.109 225.321L280.402 192.687C280.891 191.708 280.494 190.519 279.515 190.031L273.933 187.244Z" fill="#A3AEBB"/>
</g>
<defs>
<clipPath id="clip0_9533_52117">
<rect width="498.998" height="298.79" fill="white" transform="translate(0.5 0.104858)"/>
</clipPath>
</defs>
</svg>