<svg width="366" height="495" viewBox="0 0 366 495" fill="none" xmlns="http://www.w3.org/2000/svg">
<path d="M375 501V-12L316.329 140.798C293.144 201.179 242.21 246.633 179.591 262.825C117.383 278.91 66.6806 323.885 43.2877 383.729L0 494.468L375 501Z" fill="#EAF2FF"/>
<path d="M419.867 478.952C369.856 477.994 319.844 478.234 270.043 479.431C270.043 438.481 269.413 397.531 268.782 357.06C284.332 355.384 300.092 355.145 315.221 357.06C315.642 337.902 315.642 318.984 314.801 299.587C332.452 300.305 350.103 300.305 367.124 298.868C368.174 286.176 368.385 273.245 367.334 260.792C384.355 259.116 401.585 259.116 419.026 259.116C420.077 332.874 420.077 406.631 419.867 478.952Z" fill="white"/>
<path d="M419.867 517.098C369.856 516.14 319.844 516.38 270.043 517.577C270.043 476.627 269.413 435.677 268.782 395.206C284.332 393.53 300.092 393.291 315.221 395.206C315.642 376.048 315.642 357.13 314.801 337.733C332.452 338.451 350.103 338.451 367.124 337.014C368.174 324.322 368.385 311.391 367.334 298.938C384.355 297.262 401.585 297.262 419.026 297.262C420.077 371.019 420.077 444.777 419.867 517.098Z" fill="white"/>
<path d="M270.043 515.596C324.887 514.398 373.848 514.159 419.867 515.117C420.077 515.117 420.497 515.117 420.707 514.877C420.917 514.638 420.917 514.398 420.917 514.159C421.337 433.456 420.917 326.647 420.077 259.355C420.077 258.637 419.656 258.158 419.026 258.158C401.585 258.158 384.354 258.158 367.334 259.834C367.124 259.834 366.703 260.074 366.703 260.313C366.493 260.553 366.493 260.792 366.493 261.271C367.544 272.047 367.544 284.021 366.493 298.15C351.784 299.347 334.973 299.587 315.221 298.868C315.011 298.868 314.591 298.868 314.381 299.108C314.171 299.347 314.171 299.587 314.171 300.066C314.801 317.308 315.011 335.268 314.591 356.342C300.512 354.666 285.172 354.666 268.992 356.342C268.362 356.342 268.152 356.821 268.152 357.539C268.362 367.358 268.362 377.176 268.572 386.995C268.992 417.408 269.413 483.746 269.413 514.877C269.413 515.117 269.623 515.596 269.623 515.596C269.413 515.356 269.623 515.596 270.043 515.596ZM356.827 512.243C329.72 512.243 301.142 512.483 270.883 513.201C270.883 482.548 270.463 416.45 270.043 386.516C269.833 377.176 269.833 367.597 269.623 358.258C285.803 356.581 300.932 356.581 315.011 358.497C315.221 358.497 315.641 358.497 315.852 358.258C316.062 358.018 316.272 357.779 316.272 357.3C316.692 336.226 316.692 318.266 316.062 301.024C335.814 301.742 352.625 301.502 367.334 300.066C367.754 300.066 368.174 299.587 368.174 299.108C369.225 285.218 369.225 273.005 368.384 261.989C384.775 260.553 401.165 260.553 417.765 260.553C418.816 327.126 419.026 433.217 418.606 512.961C398.853 512.243 378.261 512.243 356.827 512.243Z" fill="#636464"/>
<path d="M333.92 356.342C340.223 356.342 347.578 356.103 353.672 355.863C353.672 348.918 353.672 341.495 353.672 334.311C347.158 333.832 340.644 333.832 333.709 334.311C333.499 341.495 333.709 348.439 333.92 356.342Z" fill="#B8D4F7"/>
<path d="M333.924 357.539C337.076 357.539 340.438 357.539 343.8 357.3C347.162 357.3 350.524 357.06 353.676 357.06C354.306 357.06 354.727 356.582 354.727 355.863V353.947C354.727 347.482 354.727 340.776 354.727 334.31C354.727 333.592 354.306 333.113 353.676 333.113C347.162 332.634 340.648 332.634 333.713 333.113C333.083 333.113 332.663 333.592 332.663 334.31C332.453 341.255 332.663 348.2 332.873 356.342C332.873 356.821 333.293 357.539 333.924 357.539ZM352.625 354.666C349.683 354.666 346.742 354.666 343.8 354.905C340.858 354.905 337.706 355.145 334.974 355.145C334.764 347.96 334.764 341.734 334.764 335.508C341.068 335.268 346.952 335.268 352.625 335.508C352.625 341.734 352.625 347.96 352.625 354.187V354.666Z" fill="#636464"/>
<path d="M334.552 402.321C340.856 402.321 348.211 402.081 354.305 401.842C354.305 394.897 354.305 387.474 354.305 380.289C347.791 379.81 341.277 379.81 334.342 380.289C334.132 387.474 334.132 394.658 334.552 402.321Z" fill="#B8D4F7"/>
<path d="M334.556 403.518C337.708 403.518 341.07 403.518 344.433 403.279C347.795 403.279 351.157 403.039 354.309 403.039C354.939 403.039 355.359 402.56 355.359 401.842V399.926C355.359 393.46 355.359 386.755 355.359 380.289C355.359 379.571 354.939 379.092 354.309 379.092C347.795 378.613 341.281 378.613 334.346 379.092C333.716 379.092 333.296 379.571 333.296 380.289C333.085 387.234 333.296 394.179 333.506 402.321C333.506 403.039 333.926 403.518 334.556 403.518ZM353.258 400.884C350.316 400.884 347.374 400.884 344.222 401.123C341.281 401.123 338.129 401.363 335.397 401.363C335.187 394.179 335.187 387.952 335.187 381.726C341.491 381.487 347.374 381.487 353.048 381.726C353.048 387.952 353.048 394.179 353.048 400.166L353.258 400.884Z" fill="#636464"/>
<path d="M334.552 448.539C340.856 448.539 348.211 448.3 354.305 448.06C354.305 441.115 354.305 433.692 354.305 426.508C347.791 426.029 341.277 426.029 334.342 426.508C334.132 433.692 334.132 440.636 334.552 448.539Z" fill="#B8D4F7"/>
<path d="M334.556 449.736C337.708 449.736 341.07 449.736 344.433 449.497C347.795 449.497 351.157 449.257 354.309 449.257C354.939 449.257 355.359 448.778 355.359 448.06V446.144C355.359 439.678 355.359 432.973 355.359 426.507C355.359 425.789 354.939 425.31 354.309 425.31C347.795 424.831 341.281 424.831 334.346 425.31C333.716 425.31 333.296 425.789 333.296 426.507C333.085 433.452 333.296 440.397 333.506 448.539C333.506 449.257 333.926 449.736 334.556 449.736ZM353.258 447.102C350.316 447.102 347.374 447.102 344.433 447.341C341.491 447.341 338.339 447.581 335.607 447.581C335.397 440.397 335.397 434.17 335.397 427.944C341.701 427.705 347.585 427.705 353.258 427.944C353.258 434.17 353.258 440.397 353.258 446.384V447.102Z" fill="#636464"/>
<path d="M333.93 342.213C338.553 341.973 343.806 341.973 349.059 341.973C350.74 341.973 352.211 341.973 353.892 341.973C354.102 341.973 354.312 341.734 354.312 341.494C354.312 341.255 354.102 341.015 353.892 341.015C352.421 341.015 350.74 341.015 349.059 341.015C343.806 341.015 338.343 341.015 333.93 341.255C333.72 341.255 333.51 341.494 333.51 341.734C333.51 341.973 333.72 342.213 333.93 342.213Z" fill="#636464"/>
<path d="M334.555 387.234C338.968 386.995 346.113 386.995 353.677 386.995C353.888 386.995 354.098 386.755 354.098 386.516C354.098 386.276 353.888 386.037 353.677 386.037C350.105 386.037 340.859 386.037 334.555 386.276C334.345 386.276 334.135 386.516 334.135 386.755C334.345 387.234 334.345 387.234 334.555 387.234Z" fill="#636464"/>
<path d="M353.892 432.974C354.102 432.974 354.312 432.734 354.312 432.495C354.312 432.255 354.102 432.016 353.892 432.016C347.588 431.776 341.074 431.776 334.56 431.776C334.35 431.776 334.14 432.016 334.14 432.255C334.14 432.495 334.35 432.734 334.56 432.734C341.074 432.734 347.588 432.734 353.892 432.974Z" fill="#636464"/>
<path d="M292.74 402.321C299.044 402.321 306.398 402.081 312.492 401.842C312.492 394.897 312.492 387.473 312.492 380.289C305.978 379.81 299.464 379.81 292.53 380.289C292.53 387.473 292.53 394.658 292.74 402.321Z" fill="#B8D4F7"/>
<path d="M292.744 403.518C295.896 403.518 299.258 403.518 302.62 403.279C305.982 403.279 309.344 403.039 312.496 403.039C313.127 403.039 313.547 402.56 313.547 401.842V399.926C313.547 393.46 313.547 386.755 313.547 380.289C313.547 379.571 313.127 379.092 312.496 379.092C305.982 378.613 299.468 378.613 292.534 379.092C291.903 379.092 291.483 379.571 291.483 380.289C291.273 387.234 291.483 394.179 291.693 402.321C291.903 403.039 292.324 403.518 292.744 403.518ZM311.656 400.884C308.714 400.884 305.772 400.884 302.62 401.123C299.678 401.123 296.526 401.363 293.795 401.363C293.584 394.179 293.584 387.952 293.584 381.726C299.888 381.487 305.772 381.487 311.446 381.726C311.446 387.952 311.446 394.179 311.446 400.405L311.656 400.884Z" fill="#636464"/>
<path d="M292.74 448.539C299.044 448.539 306.398 448.3 312.492 448.06C312.492 441.115 312.492 433.692 312.492 426.508C305.978 426.029 299.464 426.029 292.53 426.508C292.53 433.692 292.53 440.636 292.74 448.539Z" fill="#B8D4F7"/>
<path d="M292.744 449.736C295.896 449.736 299.258 449.736 302.62 449.497C305.982 449.497 309.344 449.257 312.496 449.257C313.127 449.257 313.547 448.778 313.547 448.06V446.144C313.547 439.678 313.547 432.973 313.547 426.507C313.547 425.789 313.127 425.31 312.496 425.31C305.982 424.831 299.468 424.831 292.534 425.31C291.903 425.31 291.483 425.789 291.483 426.507C291.273 433.452 291.483 440.397 291.693 448.539C291.903 449.257 292.324 449.736 292.744 449.736ZM311.656 447.102C308.714 447.102 305.772 447.102 302.83 447.341C299.888 447.341 296.736 447.581 294.005 447.581C293.795 440.397 293.795 434.17 293.795 427.944C300.098 427.705 305.982 427.705 311.656 427.944C311.656 434.17 311.656 440.397 311.656 446.623V447.102Z" fill="#636464"/>
<path d="M292.958 387.234C297.371 386.995 304.515 386.995 312.08 386.995C312.29 386.995 312.5 386.755 312.5 386.516C312.5 386.276 312.29 386.037 312.08 386.037C308.508 386.037 299.262 386.037 292.958 386.276C292.748 386.276 292.538 386.516 292.538 386.755C292.748 387.234 292.748 387.234 292.958 387.234Z" fill="#636464"/>
<path d="M312.291 432.974C312.501 432.974 312.711 432.734 312.711 432.495C312.711 432.255 312.501 432.016 312.291 432.016C305.987 431.776 299.473 431.776 292.959 431.776C292.748 431.776 292.538 432.016 292.538 432.255C292.538 432.495 292.748 432.734 292.959 432.734C299.473 432.734 305.777 432.734 312.291 432.974Z" fill="#636464"/>
<path d="M363.212 394.546C376.106 392.747 389.527 401.144 395.842 414.039C402.158 426.934 401.894 443.728 395.579 456.923C392.684 463.221 388.211 468.619 382.685 471.618C377.948 474.017 372.685 474.317 367.423 474.617C363.475 474.617 359.265 474.617 355.581 472.817C352.423 471.318 349.792 468.919 347.424 466.22C337.95 455.424 333.477 439.23 336.371 424.535C339.266 409.241 350.318 396.046 363.212 394.546Z" fill="white"/>
<path d="M365.852 475.816C366.378 475.816 366.904 475.816 367.43 475.816C372.43 475.816 377.956 475.516 382.956 472.817C389.798 469.219 394.008 462.621 396.64 457.523C403.218 443.728 403.481 426.335 396.903 413.439C390.061 399.644 376.114 391.248 362.957 393.047C349.8 394.846 338.221 407.741 334.801 423.935C331.906 438.63 336.379 455.724 346.379 467.12C349.274 470.418 352.168 472.817 355.063 474.017C358.747 475.516 362.431 475.816 365.852 475.816ZM366.641 395.746C377.693 395.746 389.008 403.243 394.798 414.939C400.85 427.234 400.587 443.428 394.534 456.324C392.429 461.122 388.482 467.12 382.167 470.418C377.43 472.817 372.167 473.117 367.43 473.117C363.746 473.117 359.536 473.117 356.115 471.618C353.484 470.418 351.116 468.319 348.484 465.32C339.274 454.524 335.064 438.63 337.695 424.835C340.59 409.841 351.642 397.845 363.483 396.346C364.536 395.746 365.588 395.746 366.641 395.746Z" fill="#D1D6DD"/>
<path d="M367.958 456.624C368.221 456.624 368.221 456.624 368.484 456.624C369.011 456.324 369.537 455.424 369.274 454.824C366.116 446.427 360.853 438.93 354.011 433.832C353.485 433.532 352.696 433.532 352.169 434.132C351.906 434.732 351.906 435.631 352.433 436.231C358.748 441.029 363.748 447.927 366.642 456.024C367.169 456.324 367.432 456.624 367.958 456.624Z" fill="#D1D6DD"/>
<path d="M352.436 462.022C352.436 462.022 352.699 462.022 352.699 461.722C352.963 461.422 352.699 461.122 352.699 461.122C349.805 458.723 347.7 455.424 346.384 451.526C346.384 451.226 346.121 451.226 345.858 451.226C345.595 451.226 345.595 451.526 345.595 451.825C347.173 455.724 349.279 459.323 352.436 462.022Z" fill="#D1D6DD"/>
<g opacity="0.1294">
<path d="M344.013 455.724C345.066 455.724 345.592 456.623 346.382 457.523C347.698 459.023 348.75 460.522 350.066 462.021C351.382 463.221 354.013 465.32 356.644 466.82C356.908 467.12 357.171 467.12 357.434 467.12C358.486 467.419 359.802 468.019 360.855 468.019H361.118C361.381 468.019 361.381 468.019 361.381 468.019C365.328 468.619 369.012 467.719 376.38 465.92C379.275 465.02 378.222 465.32 380.854 464.121C381.38 464.121 382.959 463.221 383.485 462.921C386.117 461.422 387.432 460.522 388.485 459.322C389.537 458.423 390.064 457.223 391.116 456.623C393.485 455.424 395.59 459.023 393.748 461.122C391.643 463.521 389.274 465.62 386.643 467.12C386.117 467.419 383.748 468.619 382.959 468.919C379.801 470.718 379.275 471.318 376.643 472.218C374.012 473.417 371.381 474.017 368.749 474.317C366.118 474.917 363.486 474.917 360.855 474.317C358.75 473.717 356.908 472.817 355.066 471.618C351.382 469.519 347.698 467.12 345.066 463.521C344.013 462.321 342.961 460.822 341.908 459.622C341.382 459.023 341.382 458.423 341.382 457.823C341.645 456.923 342.698 455.724 344.013 455.724Z" fill="#D1D6DD"/>
</g>
<path d="M162.464 293.617L164 493.149H71.8507L70.6988 294.055L162.464 293.617Z" fill="white"/>
<path d="M71.8484 494.243H163.998C164.19 494.243 164.574 494.024 164.574 494.024C164.766 493.806 164.766 493.587 164.766 493.368L163.422 293.836C163.422 293.18 163.038 292.742 162.462 292.742L70.6965 293.18C70.5046 293.18 70.1205 293.398 70.1205 293.398C69.9285 293.617 69.9286 293.836 69.9286 294.055L71.0804 492.93C70.8884 493.806 71.2724 494.243 71.8484 494.243ZM163.038 492.055H72.8083L71.6564 295.149L161.502 294.711L163.038 492.055Z" fill="#636464"/>
<path d="M127.329 357.502C133.088 357.502 139.807 357.284 145.566 357.065C145.566 350.501 145.566 343.281 145.566 336.28C139.615 335.843 133.664 335.843 127.329 336.28C126.945 343.281 127.137 350.064 127.329 357.502Z" fill="#006FFD"/>
<path d="M127.326 358.596C130.206 358.596 133.278 358.596 136.349 358.377C139.421 358.377 142.492 358.159 145.372 358.159C145.948 358.159 146.332 357.721 146.332 357.065V355.314C146.332 349.188 146.332 342.625 146.332 336.28C146.332 335.624 145.948 335.186 145.372 335.186C139.421 334.749 133.47 334.749 126.942 335.186C126.366 335.186 125.982 335.624 125.982 336.28C125.79 342.844 125.982 349.626 126.174 357.502C126.366 358.159 126.75 358.596 127.326 358.596ZM144.604 356.189C141.917 356.189 139.229 356.19 136.349 356.408C133.661 356.408 130.782 356.627 128.286 356.627C128.094 349.626 128.094 343.5 128.094 337.593C133.853 337.374 139.229 337.374 144.604 337.593C144.604 343.5 144.604 349.626 144.604 355.533V356.189Z" fill="#636464"/>
<path d="M89.3207 357.502C95.08 357.502 101.799 357.284 107.559 357.065C107.559 350.501 107.559 343.281 107.559 336.28C101.607 335.843 95.656 335.843 89.3207 336.28C88.9368 343.281 89.1287 350.064 89.3207 357.502Z" fill="#006FFD"/>
<path d="M89.3184 358.596C92.198 358.596 95.2697 358.596 98.3414 358.377C101.413 358.377 104.485 358.159 107.364 358.159C107.94 358.159 108.324 357.721 108.324 357.065V355.314C108.324 349.188 108.324 342.625 108.324 336.28C108.324 335.624 107.94 335.186 107.364 335.186C101.413 334.749 95.4618 334.749 88.9345 335.186C88.3586 335.186 87.9746 335.624 87.9746 336.28C87.7826 342.844 87.9746 349.626 88.1666 357.502C88.3585 358.159 88.7424 358.596 89.3184 358.596ZM106.596 356.189C103.909 356.189 101.221 356.19 98.3414 356.408C95.6537 356.408 92.774 356.627 90.2783 356.627C90.0863 349.626 90.0863 343.5 90.0863 337.593C95.8457 337.374 101.221 337.374 106.596 337.593C106.596 343.5 106.596 349.626 106.596 355.533V356.189Z" fill="#636464"/>
<path d="M127.907 401.916C133.666 401.916 140.385 401.697 146.145 401.479C146.145 394.915 146.145 387.695 146.145 380.694C140.193 380.256 134.242 380.256 127.907 380.694C127.523 387.695 127.523 394.478 127.907 401.916Z" fill="#006FFD"/>
<path d="M127.904 403.01C130.784 403.01 133.856 403.01 136.927 402.791C139.999 402.791 143.071 402.572 145.95 402.572C146.526 402.572 146.91 402.135 146.91 401.478V399.728C146.91 393.602 146.91 387.039 146.91 380.694C146.91 380.038 146.526 379.6 145.95 379.6C139.999 379.162 134.048 379.162 127.52 379.6C126.945 379.6 126.561 380.038 126.561 380.694C126.369 387.257 126.561 394.04 126.752 401.916C126.944 402.572 127.328 403.01 127.904 403.01ZM144.99 400.603C142.303 400.603 139.615 400.603 136.735 400.822C134.048 400.822 131.168 401.041 128.672 401.041C128.48 394.04 128.48 387.914 128.48 382.007C134.24 381.788 139.615 381.788 144.99 382.007C144.99 387.914 144.99 394.04 144.99 399.947V400.603Z" fill="#636464"/>
<path d="M89.8949 401.916C95.6543 401.916 102.373 401.697 108.133 401.479C108.133 394.915 108.133 387.695 108.133 380.694C102.182 380.256 96.2302 380.256 89.8949 380.694C89.511 387.695 89.511 394.478 89.8949 401.916Z" fill="#006FFD"/>
<path d="M89.8927 403.01C92.7724 403.01 95.8439 403.01 98.9156 402.791C101.987 402.791 105.059 402.572 107.939 402.572C108.514 402.572 108.898 402.135 108.898 401.478V399.728C108.898 393.602 108.898 387.039 108.898 380.694C108.898 380.038 108.514 379.6 107.939 379.6C101.987 379.162 96.036 379.162 89.5087 379.6C88.9328 379.6 88.5488 380.038 88.5488 380.694C88.3569 387.257 88.5488 394.04 88.7408 401.916C88.9328 402.572 89.3168 403.01 89.8927 403.01ZM106.979 400.603C104.291 400.603 101.603 400.603 98.7236 400.822C96.036 400.822 93.1563 401.041 90.6606 401.041C90.4686 394.04 90.4686 387.914 90.4686 382.007C96.228 381.788 101.603 381.788 106.979 382.007C106.979 387.914 106.979 394.04 106.979 399.947V400.603Z" fill="#636464"/>
<path d="M127.907 446.548C133.666 446.548 140.385 446.329 146.145 446.111C146.145 439.547 146.145 432.327 146.145 425.326C140.193 424.888 134.242 424.888 127.907 425.326C127.523 432.108 127.523 438.891 127.907 446.548Z" fill="#006FFD"/>
<path d="M127.904 447.642C130.784 447.642 133.856 447.642 136.927 447.423C139.999 447.423 143.071 447.205 145.95 447.205C146.526 447.205 146.91 446.767 146.91 446.111V444.36C146.91 438.234 146.91 431.671 146.91 425.326C146.91 424.67 146.526 424.232 145.95 424.232C139.999 423.795 134.048 423.795 127.52 424.232C126.945 424.232 126.561 424.67 126.561 425.326C126.369 431.89 126.561 438.672 126.752 446.548C126.944 446.986 127.328 447.642 127.904 447.642ZM144.99 445.017C142.303 445.017 139.615 445.017 136.735 445.235C134.048 445.235 131.168 445.454 128.672 445.454C128.48 438.453 128.48 432.327 128.48 426.42C134.24 426.201 139.615 426.201 144.99 426.42C144.99 432.327 144.99 438.453 144.99 444.36V445.017Z" fill="#636464"/>
<path d="M89.8949 446.548C95.6543 446.548 102.373 446.329 108.133 446.111C108.133 439.547 108.133 432.327 108.133 425.326C102.182 424.888 96.2302 424.888 89.8949 425.326C89.511 432.108 89.511 438.891 89.8949 446.548Z" fill="#006FFD"/>
<path d="M89.8927 447.642C92.7724 447.642 95.8439 447.642 98.9156 447.423C101.987 447.423 105.059 447.205 107.939 447.205C108.514 447.205 108.898 446.767 108.898 446.111V444.36C108.898 438.234 108.898 431.671 108.898 425.326C108.898 424.67 108.514 424.232 107.939 424.232C101.987 423.795 96.036 423.795 89.5087 424.232C88.9328 424.232 88.5488 424.67 88.5488 425.326C88.3569 431.89 88.5488 438.672 88.7408 446.548C88.9328 446.986 89.3168 447.642 89.8927 447.642ZM106.979 445.017C104.291 445.017 101.603 445.017 98.7236 445.235C96.036 445.235 93.1563 445.454 90.6606 445.454C90.4686 438.453 90.4686 432.327 90.4686 426.42C96.228 426.201 101.603 426.201 106.979 426.42C106.979 432.327 106.979 438.453 106.979 444.36V445.017Z" fill="#636464"/>
<path d="M71.4601 306.088C102.177 304.994 132.893 304.775 162.649 305.431C163.225 305.431 163.609 304.994 163.609 304.338C163.609 303.681 163.225 303.244 162.649 303.244C132.893 302.368 102.177 302.587 71.4601 303.9C70.8841 303.9 70.5002 304.337 70.5002 304.994C70.5002 305.65 70.8841 306.088 71.4601 306.088Z" fill="#636464"/>
<path d="M127.904 343.938L145.182 343.719C145.374 343.719 145.566 343.5 145.566 343.281C145.566 343.062 145.374 342.844 145.182 342.844L127.904 343.062C127.712 343.062 127.52 343.281 127.52 343.5C127.52 343.719 127.712 343.938 127.904 343.938Z" fill="#EDEFF1"/>
<path d="M89.3195 343.938C93.5431 343.719 98.3425 343.719 103.142 343.719C104.678 343.719 106.022 343.719 107.557 343.719C107.749 343.719 107.941 343.5 107.941 343.281C107.941 343.062 107.749 342.844 107.557 342.844C106.214 342.844 104.678 342.844 103.142 342.844C98.3425 342.844 93.3511 342.844 89.1276 343.062C88.9356 343.062 88.7436 343.281 88.7436 343.5C88.9356 343.719 89.1276 343.938 89.3195 343.938Z" fill="#EDEFF1"/>
<path d="M128.288 387.476C130.784 387.476 133.664 387.476 136.543 387.476C139.423 387.476 142.495 387.476 145.182 387.476C145.374 387.476 145.566 387.257 145.566 387.039C145.566 386.82 145.374 386.82 145.182 386.601C142.495 386.82 139.615 386.601 136.543 386.601C133.664 386.601 130.592 386.601 128.096 386.601C127.904 386.601 127.712 386.82 127.712 387.039C128.096 387.476 128.096 387.476 128.288 387.476Z" fill="#EDEFF1"/>
<path d="M89.8922 387.476C93.9237 387.257 100.451 387.257 107.362 387.257C107.554 387.257 107.746 387.038 107.746 386.82C107.746 386.601 107.554 386.382 107.362 386.382C100.259 386.382 93.9237 386.382 89.8922 386.601C89.7002 386.601 89.5082 386.82 89.5082 387.038C89.7002 387.257 89.8922 387.476 89.8922 387.476Z" fill="#EDEFF1"/>
<path d="M136.162 431.671C139.425 431.671 142.689 431.671 145.761 431.452C145.953 431.452 146.145 431.233 146.145 431.014C146.145 430.795 145.953 430.795 145.761 430.577C141.345 430.795 136.738 430.795 132.322 430.795C130.978 430.795 129.826 430.795 128.483 430.795C128.291 430.795 128.099 431.014 128.099 431.233C128.099 431.452 128.291 431.671 128.483 431.671C129.826 431.671 130.978 431.671 132.322 431.671C133.666 431.671 135.01 431.671 136.162 431.671Z" fill="#EDEFF1"/>
<path d="M107.557 431.452C107.749 431.452 107.941 431.233 107.941 431.014C107.941 430.795 107.749 430.577 107.557 430.577C101.798 430.358 95.8469 430.358 89.8956 430.358C89.7036 430.358 89.5116 430.577 89.5116 430.795C89.5116 431.014 89.7036 431.233 89.8956 431.233C95.8469 431.233 101.798 431.233 107.557 431.452Z" fill="#EDEFF1"/>
<g opacity="0.1294">
<path d="M72.6181 304.775C73.386 304.775 73.9619 304.775 74.7298 304.775C77.2255 304.775 79.9132 304.775 82.4089 304.556C88.7441 304.119 102.567 303.681 111.59 304.119C118.501 303.681 125.412 303.681 132.323 303.462C137.89 303.462 143.458 303.681 149.025 303.681C153.057 303.681 157.088 303.681 160.928 304.119C164.383 304.119 164.383 310.464 160.928 310.682C155.744 309.807 150.561 310.026 145.378 310.026C136.739 310.026 128.292 310.026 119.653 310.245C110.63 310.682 101.607 310.682 92.5837 310.682C90.088 310.682 87.5923 311.12 85.0966 310.901C82.025 310.901 82.4088 310.901 79.7211 310.901C77.4174 311.12 75.1137 311.12 73.0019 310.901C73.1939 310.901 73.386 310.901 73.5779 311.12C71.8501 311.339 70.1223 310.464 70.1223 308.057C70.1223 306.307 71.2742 304.775 72.6181 304.775Z" fill="#636464"/>
</g>
<path d="M58.8124 471.857C61.9058 474.901 63.8745 474.26 67.3898 471.696C70.9051 469.132 72.5924 464.005 71.0457 459.838C78.6388 461.761 86.2319 454.71 88.2005 446.858C89.6066 441.249 87.9193 433.878 82.4354 432.596C87.0756 428.269 88.0598 420.097 84.4039 414.809C80.748 409.52 73.1549 407.918 67.671 411.123C68.5147 404.232 65.843 397.181 60.781 392.855C58.953 391.252 56.7032 389.97 54.3128 389.81C49.3914 389.65 45.173 394.457 44.1887 399.585C43.2044 404.713 44.4699 409.841 45.8761 414.969C42.642 412.084 36.8769 413.366 34.6271 417.212C32.3773 421.058 33.3615 426.507 36.5956 429.551C31.5335 432.596 28.4401 438.685 28.7213 444.615C29.0025 450.544 32.6584 456.152 38.0017 458.556C39.4078 459.197 41.2359 459.838 41.6577 461.441C41.9389 462.402 40.5327 469.453 48.9695 474.26C51.6411 475.863 55.2971 474.581 58.8124 471.857Z" fill="white"/>
<path d="M51.4999 475.863C54.0309 475.863 56.7025 474.42 58.8117 472.978C61.9052 475.863 64.155 475.061 67.8109 472.497C71.3262 470.094 73.0136 465.286 72.1699 460.96C72.7323 460.96 73.1542 461.12 73.7167 461.12C80.7473 461.12 87.2155 454.389 88.9028 447.178C89.8871 443.493 89.4653 439.166 87.7779 436.121C86.7937 434.358 85.5282 432.916 83.8408 432.275C87.9186 427.468 88.6216 419.616 84.9657 414.488C81.4504 409.36 74.1385 407.437 68.514 410.001C68.9358 403.431 66.1236 396.54 61.3428 392.374C59.093 390.451 56.7025 389.329 54.4527 389.169C48.9688 389.008 44.6098 394.297 43.6255 399.585C42.6412 404.232 43.6255 409.039 44.7504 413.366C43.3443 412.725 41.7976 412.565 40.1102 412.725C37.5792 413.206 35.3294 414.648 34.0639 416.731C31.8141 420.577 32.3765 425.865 35.47 429.231C30.6892 432.596 27.7363 438.525 28.0176 444.614C28.2988 450.864 32.2359 456.793 37.7198 459.357L38.1417 459.517C39.4072 459.998 40.6727 460.639 40.9539 461.761C40.9539 461.761 40.9539 462.081 40.9539 462.242C40.9539 464.485 40.9539 470.735 48.547 474.901C49.5313 475.542 50.5156 475.863 51.4999 475.863ZM58.8117 471.055C58.6711 471.055 58.5305 471.055 58.3899 471.215C54.5933 473.94 51.3593 474.901 49.1095 473.619C42.2194 469.773 42.2194 464.325 42.2194 462.242C42.2194 461.761 42.2194 461.44 42.0788 461.28C41.5164 459.517 39.9696 458.716 38.4228 458.075L38.001 457.915C32.939 455.671 29.4237 450.223 29.1424 444.614C28.8612 438.845 31.9547 433.077 36.7356 430.192C36.8762 430.032 37.0168 429.872 37.1574 429.551C37.1574 429.231 37.0168 429.07 36.8761 428.91C33.7827 426.026 32.939 421.058 35.0482 417.693C36.0325 415.93 38.001 414.648 40.1102 414.328C42.0788 414.007 44.0474 414.488 45.3129 415.61C45.5941 415.77 45.8753 415.77 46.1565 415.61C46.4378 415.449 46.5784 415.129 46.4378 414.808C45.1723 410.161 43.7661 404.873 44.7504 399.905C45.5941 395.258 49.25 390.771 53.8902 390.771C54.0308 390.771 54.0309 390.771 54.1715 390.771C56.1401 390.931 58.2493 391.733 60.3585 393.656C65.1393 397.822 67.811 404.713 66.9673 411.283C66.9673 411.603 67.1078 411.924 67.2484 412.084C67.5297 412.244 67.6703 412.244 67.9515 412.084C73.1542 409.039 80.3255 410.482 83.8408 415.449C87.2155 420.417 86.3718 427.949 82.0128 432.115C81.8722 432.275 81.7316 432.596 81.7316 432.916C81.7316 433.237 82.0128 433.397 82.294 433.557C84.122 434.038 85.5281 435.16 86.5124 437.083C87.9185 439.807 88.3404 443.493 87.4967 446.858C85.6687 454.229 78.4975 461.12 71.1857 459.357C70.9044 459.357 70.6232 459.357 70.4826 459.678C70.342 459.838 70.3419 460.158 70.3419 460.479C71.7481 464.325 70.2014 468.972 66.9673 471.376C63.452 473.94 61.9052 474.26 59.2336 471.536C59.093 471.215 58.9523 471.055 58.8117 471.055Z" fill="#A3AEBB"/>
<path d="M58.9518 497.015C59.3736 497.015 59.6548 496.695 59.6548 496.214C60.0767 469.453 60.4985 441.73 57.5456 414.648C57.5456 414.167 57.1238 413.847 56.8426 414.007C56.4207 414.007 56.1395 414.488 56.2801 414.808C59.233 441.73 58.8111 469.453 58.3893 496.214C58.2487 496.695 58.5299 497.015 58.9518 497.015Z" fill="#A3AEBB"/>
<path d="M57.8316 429.711C57.9722 429.711 58.1128 429.711 58.2534 429.551C58.5347 429.391 58.6753 428.91 58.5347 428.429C56.9879 425.705 55.3006 423.141 53.332 420.898C53.0508 420.577 52.6289 420.577 52.3477 420.898C52.0665 421.218 52.0665 421.699 52.3477 422.019C54.3163 424.263 56.0036 426.667 57.4097 429.391C57.4097 429.551 57.691 429.711 57.8316 429.711Z" fill="#A3AEBB"/>
<path d="M59.0988 453.107C59.38 453.107 59.6612 452.947 59.8018 452.627C62.8953 443.973 65.9888 435.961 71.7539 428.91C72.0352 428.589 72.0352 428.109 71.7539 427.788C71.4727 427.468 71.0508 427.468 70.7696 427.788C64.7233 435.16 61.7705 443.332 58.5364 451.986C58.3958 452.306 58.5364 452.787 58.9582 452.947C58.9582 453.107 59.0988 453.107 59.0988 453.107Z" fill="#A3AEBB"/>
<path d="M64.5775 439.807C64.7182 439.807 64.8588 439.807 64.8588 439.647C67.3898 438.044 70.202 436.922 73.0143 436.602C73.4361 436.602 73.7173 436.121 73.5767 435.801C73.5767 435.32 73.1549 434.999 72.8736 435.16C69.7802 435.48 66.8274 436.762 64.1557 438.525C63.8745 438.685 63.7339 439.166 63.8745 439.647C64.1557 439.647 64.2963 439.807 64.5775 439.807Z" fill="#A3AEBB"/>
<path d="M58.8142 465.286C58.9548 465.286 58.9549 465.286 59.0955 465.286C59.3767 465.126 59.6579 464.645 59.5173 464.324C56.002 455.03 50.6587 446.697 44.0499 439.967C43.7687 439.646 43.3469 439.646 43.0657 439.967C42.7844 440.287 42.7844 440.768 43.0657 441.089C49.5339 447.659 54.7365 455.831 58.1112 464.805C58.2518 464.965 58.533 465.286 58.8142 465.286Z" fill="#A3AEBB"/>
<g opacity="0.1294">
<path d="M41.6525 460.639C42.215 459.517 43.6211 459.837 43.9023 460.959C44.1835 463.042 44.4647 464.324 45.0272 465.606C46.2927 467.85 47.277 469.452 48.2612 470.093C49.2455 470.734 48.6831 470.414 49.808 470.734C49.9486 470.734 49.9487 470.734 50.0893 470.734C51.3548 470.894 52.6202 471.055 53.8857 470.894C54.0264 470.894 54.0264 470.894 54.167 470.894C55.0107 470.734 55.8543 470.574 56.698 470.093C56.698 470.093 56.6981 470.093 56.8387 470.093C57.4011 469.773 57.9635 469.292 58.6666 469.132C59.6509 468.971 61.057 469.132 61.4789 470.253C61.6195 470.093 61.7601 470.093 61.9007 469.933C63.0256 469.292 62.4631 469.933 63.7286 469.292C65.416 468.33 65.9785 467.85 66.9628 467.049C68.6501 465.126 68.9314 464.164 69.072 462.401C69.2126 461.28 68.9313 460.158 69.2126 459.036C69.6344 457.754 70.8999 457.434 71.7436 458.075C72.0248 457.754 72.306 457.434 72.7279 457.273C72.7279 457.273 72.7278 457.273 72.8685 457.273C73.8527 457.113 74.8371 457.273 75.8214 457.113C76.6651 457.113 78.2118 456.793 78.9149 456.312C80.7428 455.19 82.0083 454.068 82.1489 453.748C83.1332 452.786 84.1175 451.985 84.9612 450.703C85.383 450.062 85.9455 449.261 86.6486 449.261C87.7735 449.261 88.3359 450.864 87.4922 451.665C86.7892 452.466 86.7892 452.626 85.9455 453.908C85.2424 454.87 84.3987 455.831 83.6957 456.632C82.4301 457.754 81.1647 459.036 79.6179 459.837C78.6336 460.478 77.3681 460.639 76.2432 460.799C75.6807 460.959 75.1183 460.799 74.5558 460.959C73.8528 461.119 73.1498 461.119 72.5873 460.959C72.5873 465.446 71.3218 468.651 67.8064 471.375C66.4003 472.497 62.885 474.901 61.4789 473.138C61.1976 472.817 61.057 472.497 61.057 472.176C60.6352 472.497 60.0727 472.817 59.5103 472.497C59.3696 472.497 59.3697 472.337 59.2291 472.337C58.9479 472.497 58.2448 472.978 57.9635 473.138C55.7137 474.42 53.1827 474.58 50.9329 473.939C49.2456 473.619 47.6988 473.298 46.4333 472.016C45.5896 471.215 45.0272 470.253 44.3241 469.292C43.4804 468.01 42.7774 466.408 42.3556 464.805C42.0743 464.004 42.0743 463.042 41.9337 462.241C41.5118 461.921 41.3713 461.28 41.6525 460.639Z" fill="#A3AEBB"/>
</g>
<path d="M273.439 403.19L275.414 493.897H140.676L139.14 403.444L273.439 403.19Z" fill="#EAF2FF"/>
<path d="M140.677 495.171H275.415C275.635 495.171 276.073 494.916 276.073 494.916C276.293 494.661 276.293 494.406 276.293 493.897L274.318 403.189C274.318 402.425 273.879 401.915 273.221 401.915L138.922 402.17C138.702 402.17 138.264 402.425 138.264 402.425C138.044 402.68 138.044 402.935 138.044 403.444L139.58 493.897C139.58 494.406 140.019 495.171 140.677 495.171ZM274.318 492.623H141.775L140.239 404.718L272.343 404.463L274.318 492.623Z" fill="#23274D"/>
<path d="M217.927 493.896C256.33 493.896 296.488 494.661 334.89 494.151C334.89 449.562 335.329 403.699 337.523 354.013C302.413 352.994 258.963 352.485 215.075 351.975C217.488 401.66 219.902 461.028 217.927 493.896Z" fill="#EAF2FF"/>
<path d="M313.82 495.425C320.842 495.425 327.865 495.425 334.887 495.425C335.545 495.425 335.984 494.916 335.984 494.151C335.984 454.658 336.203 407.011 338.617 354.013C338.617 353.759 338.617 353.249 338.398 352.994C338.178 352.739 337.959 352.485 337.739 352.485C304.823 351.465 265.543 351.211 223.849 350.701H215.29C215.071 350.701 214.632 350.956 214.413 351.211C214.193 351.465 214.193 351.72 214.193 352.23C216.388 400.641 219.021 460.773 216.827 493.896C216.827 494.151 216.827 494.661 217.046 494.916C217.266 495.17 217.485 495.17 217.924 495.425C234.382 495.425 251.279 495.425 267.957 495.68C282.879 495.425 298.459 495.425 313.82 495.425ZM333.789 492.877C312.065 493.132 289.682 492.877 267.737 492.622C251.718 492.622 235.04 492.368 219.021 492.368C220.996 459.244 218.363 400.641 216.388 352.994H223.849C265.104 353.504 303.945 353.759 336.642 354.778C334.228 407.266 333.789 453.893 333.789 492.877Z" fill="#23274D"/>
<path d="M196.638 362.677C252.595 362.677 302.848 363.696 353.539 363.696C328.962 333.121 302.409 298.723 277.393 268.402C251.279 298.213 226.043 332.866 196.638 362.677Z" fill="#EAF2FF"/>
<path d="M353.543 365.225C353.982 365.225 354.421 364.97 354.421 364.46C354.64 363.951 354.421 363.441 354.201 363.186C344.985 351.721 335.329 339.49 325.893 327.515C310.093 307.386 293.635 286.748 278.055 267.893C277.835 267.638 277.616 267.638 277.397 267.638C277.177 267.638 276.738 267.638 276.738 267.893C266.644 279.358 256.769 291.334 246.455 304.074C230.436 323.693 213.978 343.822 196.203 362.167C195.764 362.422 195.764 362.932 195.983 363.441C196.203 363.951 196.642 364.206 197.081 364.206C225.828 364.206 253.038 364.46 279.371 364.715C304.607 364.97 328.966 365.225 353.543 365.225ZM277.397 270.441C292.977 289.041 308.996 309.424 324.577 329.044C333.354 340.255 342.571 351.721 351.129 362.677C327.21 362.677 303.949 362.422 279.152 362.167C253.697 361.912 227.364 361.658 199.714 361.658C216.83 344.077 232.63 324.457 247.991 305.602C258.086 293.117 267.522 281.652 277.397 270.441Z" fill="#23274D"/>
<path d="M256.774 445.995C269.501 445.995 282.229 445.74 294.957 445.74C296.273 430.707 296.932 415.929 296.712 400.896C283.546 400.132 270.379 400.132 256.335 400.896C256.115 415.674 256.115 429.943 256.774 445.995Z" fill="#B8D4F7"/>
<path d="M256.771 447.269L294.954 447.014C295.392 447.014 296.051 446.505 296.051 445.995C297.587 428.924 298.026 414.655 297.806 401.151C297.806 400.387 297.368 399.877 296.709 399.877C283.543 399.113 270.376 399.113 256.332 399.877C255.673 399.877 255.235 400.387 255.235 401.151C255.015 415.42 255.235 429.688 255.673 446.25C255.673 446.76 256.112 447.269 256.771 447.269ZM293.856 444.466L257.868 444.721C257.429 429.179 257.209 415.674 257.429 402.17C270.815 401.406 283.323 401.406 295.612 402.17C295.612 414.91 295.173 428.414 293.856 444.466Z" fill="#23274D"/>
<path d="M270.157 322.929C274.545 319.616 281.129 321.145 284.201 326.241C287.273 331.337 285.957 339.236 281.787 342.803C277.618 346.37 270.815 345.096 267.743 340.255C264.451 335.159 264.89 327.005 270.157 322.929Z" fill="#EAF2FF"/>
<path d="M275.863 346.115C278.057 346.115 280.471 345.351 282.227 343.822C287.054 339.745 288.371 331.337 284.86 325.476C281.568 319.871 274.327 318.087 269.499 321.909C266.866 323.948 265.33 327.005 264.671 330.572C264.013 334.14 264.891 338.216 266.646 341.019C268.841 344.331 272.352 346.115 275.863 346.115ZM275.424 322.419C278.496 322.419 281.568 323.948 283.105 327.005C285.738 331.592 284.641 338.726 280.91 341.783C277.18 345.096 271.035 343.822 268.402 339.49C266.866 337.197 266.427 334.14 266.866 331.082C267.305 328.024 268.621 325.731 270.816 323.948C272.132 322.929 273.888 322.419 275.424 322.419Z" fill="#23274D"/>
<path d="M201.91 495.171C202.568 495.171 203.007 494.661 203.007 493.897C202.568 473.513 203.007 453.384 203.227 436.313C203.227 436.058 203.227 435.548 203.007 435.294C202.788 435.039 202.568 435.039 202.349 435.039C187.646 435.039 172.285 435.039 156.924 435.039C156.705 435.039 156.266 435.294 156.266 435.294C156.047 435.548 156.046 435.803 156.046 436.058C156.046 441.154 156.046 446.25 156.046 451.091C156.046 466.379 156.046 480.647 156.485 492.877C156.485 493.642 156.924 494.151 157.583 494.151C158.241 494.151 158.68 493.642 158.68 492.877C158.241 480.647 158.241 466.379 158.241 451.091C158.241 446.505 158.241 442.173 158.241 437.332C172.724 437.332 187.207 437.332 201.471 437.332C201.252 454.149 200.813 473.768 201.252 493.642C200.813 494.661 201.252 495.171 201.91 495.171Z" fill="#23274D"/>
<path d="M201.034 444.721C201.253 444.721 201.473 444.466 201.473 444.211C201.473 443.956 201.253 443.702 201.034 443.702C186.77 442.937 172.506 442.682 158.242 442.937C158.023 442.937 157.804 443.192 157.804 443.447C157.804 443.702 158.023 443.956 158.242 443.956C172.506 443.447 186.77 443.702 201.034 444.721Z" fill="#23274D"/>
<path d="M192.25 451.091C195.322 451.091 198.395 451.091 201.686 451.091C201.906 451.091 202.125 450.836 202.125 450.581C202.125 450.327 201.906 450.072 201.686 450.072C186.984 450.327 172.061 450.072 157.359 449.053C157.139 449.053 156.92 449.307 156.92 449.562C156.92 449.817 157.139 450.072 157.359 450.072C168.989 450.836 180.62 451.091 192.25 451.091Z" fill="#23274D"/>
<path d="M201.905 459.499C202.124 459.499 202.344 459.245 202.344 458.99C202.344 458.735 202.124 458.48 201.905 458.48C186.983 457.206 171.841 456.951 156.919 457.461C156.7 457.461 156.48 457.716 156.48 457.971C156.48 458.225 156.7 458.48 156.919 458.48C171.841 457.716 186.983 458.225 201.905 459.499Z" fill="#23274D"/>
<path d="M201.471 467.398C201.691 467.398 201.91 467.143 201.91 466.888C201.91 466.634 201.691 466.379 201.471 466.379L156.924 464.85C156.705 464.85 156.486 465.105 156.486 465.36C156.486 465.614 156.705 465.869 156.924 465.869L201.471 467.398Z" fill="#23274D"/>
<path d="M186.544 474.023C191.591 474.023 196.858 474.023 201.905 474.023C202.124 474.023 202.344 473.768 202.344 473.513C202.344 473.258 202.124 473.003 201.905 473.003C187.202 473.003 172.061 473.003 157.358 472.749C157.139 472.749 156.919 473.003 156.919 473.258C156.919 473.513 157.139 473.768 157.358 473.768C166.794 473.768 176.669 474.023 186.544 474.023Z" fill="#23274D"/>
<path d="M201.686 480.647C201.906 480.647 202.125 480.393 202.125 480.138C202.125 479.883 201.906 479.628 201.686 479.628H158.017C157.798 479.628 157.578 479.883 157.578 480.138C157.578 480.393 157.798 480.647 158.017 480.647H201.686Z" fill="#23274D"/>
<path d="M181.275 487.017C187.859 487.017 194.661 486.762 201.245 486.508C201.464 486.508 201.684 486.253 201.684 485.998C201.684 485.743 201.464 485.488 201.245 485.488C186.542 485.998 171.839 485.998 157.137 485.234C156.917 485.234 156.698 485.488 156.698 485.743C156.698 485.998 156.917 486.253 157.137 486.253C165.037 486.762 173.156 487.017 181.275 487.017Z" fill="#23274D"/>
<path d="M295.827 415.674C296.046 415.674 296.266 415.42 296.266 415.165C296.266 414.91 296.046 414.655 295.827 414.655C282.88 414.4 269.713 414.146 256.547 413.891C256.327 413.891 256.108 414.146 256.108 414.4C256.108 414.655 256.327 414.91 256.547 414.91C269.494 414.91 282.66 415.165 295.827 415.674Z" fill="#23274D"/>
<path d="M276.522 445.74C276.741 445.74 276.961 445.485 276.961 445.231L276.303 414.91C276.303 414.655 276.083 414.4 275.864 414.4C275.644 414.4 275.425 414.655 275.425 414.91L276.083 445.231C276.303 445.485 276.303 445.74 276.522 445.74Z" fill="#23274D"/>
<path d="M274.771 345.86C274.991 345.86 275.21 345.606 275.21 345.351C275.43 337.707 276.088 329.808 276.746 322.164C276.746 321.91 276.527 321.655 276.527 321.655C276.307 321.655 276.088 321.91 276.088 321.91C275.429 329.553 274.771 337.452 274.552 345.351C274.552 345.606 274.552 345.86 274.771 345.86Z" fill="#23274D"/>
<path d="M285.288 333.63C285.507 333.63 285.727 333.375 285.727 333.12C285.727 332.866 285.507 332.611 285.288 332.611L265.538 331.082C265.318 331.082 265.099 331.337 265.099 331.592C265.099 331.846 265.318 332.101 265.538 332.101L285.288 333.63Z" fill="#23274D"/>
<path d="M329.18 395.036C329.4 395.036 329.619 394.781 329.619 394.526L330.277 371.595C330.277 371.34 330.058 371.085 329.838 371.085C329.619 371.085 329.4 371.34 329.4 371.595L328.741 394.526C328.741 394.781 328.961 395.036 329.18 395.036Z" fill="#23274D"/>
<path d="M323.915 380.512C324.135 380.512 324.354 380.258 324.354 380.003L324.793 370.575C324.793 370.321 324.573 370.066 324.354 370.066C324.135 370.066 323.915 370.321 323.915 370.575L323.476 380.003C323.696 380.512 323.696 380.512 323.915 380.512Z" fill="#23274D"/>
<path d="M333.579 485.488C334.237 485.488 334.676 484.979 334.676 484.214C334.676 483.45 334.237 482.94 333.579 482.94L219.03 481.412C218.371 481.412 217.932 481.921 217.932 482.686C217.932 483.45 218.371 483.96 219.03 483.96L333.579 485.488Z" fill="#23274D"/>
<g opacity="0.1294">
<path d="M215.29 367.773C215.51 367.263 215.729 366.754 215.949 366.499C215.949 364.715 217.046 362.932 218.802 362.932C222.752 363.441 226.921 362.932 230.871 363.187C234.821 363.187 238.99 363.696 242.94 364.206C243.818 364.206 244.696 364.206 245.574 364.715C246.671 364.715 247.548 364.715 248.646 364.715C255.229 364.97 261.593 364.715 268.176 364.715C278.051 364.715 287.926 364.97 297.801 364.97C303.506 364.97 309.212 364.46 314.917 364.715C321.281 364.715 327.426 365.734 333.789 364.97C337.959 364.46 338.398 371.85 334.228 372.104C326.987 372.869 319.965 371.85 312.723 371.85C297.581 372.614 282.44 372.104 267.298 371.85C260.934 371.85 254.571 372.104 248.207 372.104C239.429 372.614 230.651 373.124 221.654 372.869C221.215 372.869 220.777 372.869 220.557 372.869C220.338 372.869 220.118 372.869 219.899 372.869C219.021 373.124 218.363 372.869 217.485 372.869C215.949 371.595 214.852 369.556 215.29 367.773Z" fill="#23274D"/>
</g>
<g opacity="0.1294">
<path d="M157.803 436.568C158.461 436.058 159.339 436.058 159.997 436.058C162.411 436.058 164.605 436.058 167.019 436.058C171.627 436.058 176.455 435.803 181.063 435.803C186.988 436.058 192.913 436.058 198.838 435.549C200.155 435.549 201.471 435.294 202.569 436.568C204.324 438.606 203.008 442.428 200.594 442.428C194.011 443.192 187.208 442.938 180.624 442.428C174.261 442.428 167.677 442.938 161.314 442.938C160.436 442.938 159.339 443.192 158.461 442.683C155.828 441.918 155.828 437.842 157.803 436.568Z" fill="#23274D"/>
</g>
<circle r="20.3203" transform="matrix(-1 0 0 1 245.477 156.264)" fill="#EAF2FF"/>
<path d="M255.16 166.202H234.606" stroke="#006FFD" stroke-width="1.4014" stroke-miterlimit="10" stroke-linecap="round" stroke-linejoin="round"/>
<path d="M237.613 166.211V162.044" stroke="#006FFD" stroke-width="1.4014" stroke-miterlimit="10" stroke-linecap="round" stroke-linejoin="round"/>
<path d="M237.593 155.822C238.733 155.822 239.648 156.738 239.648 157.877V159.998C239.648 161.138 238.733 162.054 237.593 162.054C236.453 162.054 235.538 161.138 235.538 159.998V157.877C235.538 156.738 236.453 155.822 237.593 155.822Z" stroke="#006FFD" stroke-width="1.4014" stroke-miterlimit="10" stroke-linecap="round" stroke-linejoin="round"/>
<path d="M254.133 166.202V151.281C254.133 149.404 253.198 148.46 251.339 148.46H245.519C243.66 148.46 242.735 149.404 242.735 151.281V166.202" stroke="#006FFD" stroke-width="1.4014" stroke-miterlimit="10" stroke-linecap="round" stroke-linejoin="round"/>
<path d="M250.676 153.356H246.051" stroke="#006FFD" stroke-width="1.4014" stroke-miterlimit="10" stroke-linecap="round" stroke-linejoin="round"/>
<path d="M250.676 156.859H246.051" stroke="#006FFD" stroke-width="1.4014" stroke-miterlimit="10" stroke-linecap="round" stroke-linejoin="round"/>
<path d="M248.387 166.202V162.698" stroke="#006FFD" stroke-width="1.4014" stroke-miterlimit="10" stroke-linecap="round" stroke-linejoin="round"/>
</svg>