<svg width="688" height="826" viewBox="0 0 688 826" fill="none" xmlns="http://www.w3.org/2000/svg">
<path d="M704 825V-23L605.678 205.039C558.807 313.748 462.981 393.65 347.617 420.216C236.485 445.807 143.237 520.97 94.6331 624.135L0 825H704Z" fill="#EAF2FF"/>
<path d="M785.372 767.315C694.973 765.776 604.573 766.161 514.554 768.085C514.554 702.286 513.414 636.488 512.275 571.459C540.382 568.765 568.869 568.381 596.217 571.459C596.977 540.676 596.977 510.278 595.457 479.11C627.363 480.265 659.269 480.265 690.035 477.956C691.934 457.562 692.314 436.784 690.415 416.775C721.181 414.082 752.327 414.082 783.853 414.082C785.752 532.596 785.752 651.11 785.372 767.315Z" fill="white"/>
<path d="M785.372 828.608C694.973 827.069 604.573 827.454 514.554 829.377C514.554 763.579 513.414 697.781 512.275 632.752C540.382 630.058 568.869 629.674 596.217 632.752C596.977 601.969 596.977 571.571 595.457 540.403C627.363 541.558 659.269 541.558 690.035 539.249C691.934 518.855 692.314 498.077 690.415 478.068C721.181 475.374 752.327 475.374 783.853 475.374C785.752 593.888 785.752 712.402 785.372 828.608Z" fill="white"/>
<path d="M514.555 826.193C613.69 824.269 702.191 823.885 785.373 825.424C785.753 825.424 786.513 825.424 786.892 825.039C787.272 824.654 787.272 824.269 787.272 823.885C788.032 694.212 787.272 522.591 785.753 414.466C785.753 413.312 784.993 412.542 783.854 412.542C752.328 412.542 721.182 412.542 690.416 415.236C690.036 415.236 689.276 415.62 689.276 416.005C688.897 416.39 688.897 416.775 688.897 417.544C690.796 434.86 690.796 454.099 688.897 476.801C662.309 478.725 631.922 479.11 596.218 477.956C595.838 477.956 595.079 477.956 594.699 478.341C594.319 478.725 594.319 479.11 594.319 479.88C595.459 507.584 595.838 536.443 595.079 570.304C569.63 567.611 541.903 567.611 512.656 570.304C511.516 570.304 511.137 571.074 511.137 572.228C511.516 588.005 511.516 603.781 511.896 619.557C512.656 668.425 513.416 775.017 513.416 825.039C513.416 825.424 513.795 826.193 513.795 826.193C513.416 825.809 513.795 826.193 514.555 826.193ZM671.424 820.806C622.426 820.806 570.77 821.191 516.074 822.345C516.074 773.093 515.315 666.886 514.555 618.787C514.175 603.781 514.175 588.389 513.795 573.383C543.042 570.689 570.39 570.689 595.838 573.768C596.218 573.768 596.978 573.767 597.358 573.383C597.738 572.998 598.117 572.613 598.117 571.844C598.877 537.982 598.877 509.123 597.738 481.419C633.442 482.573 663.828 482.188 690.416 479.88C691.176 479.88 691.935 479.11 691.935 478.341C693.834 456.023 693.834 436.399 692.315 418.699C721.942 416.39 751.568 416.39 781.575 416.39C783.474 523.361 783.854 693.827 783.094 821.961C747.39 820.806 710.167 820.806 671.424 820.806Z" fill="#636464"/>
<path d="M630.019 570.305C641.414 570.305 654.708 569.92 665.723 569.535C665.723 558.377 665.723 546.448 665.723 534.905C653.948 534.135 642.173 534.135 629.639 534.905C629.259 546.448 629.639 557.607 630.019 570.305Z" fill="#B8D4F7"/>
<path d="M630.026 572.229C635.723 572.229 641.801 572.229 647.878 571.844C653.955 571.844 660.032 571.459 665.73 571.459C666.869 571.459 667.629 570.69 667.629 569.535V566.457C667.629 556.068 667.629 545.294 667.629 534.904C667.629 533.75 666.869 532.981 665.73 532.981C653.955 532.211 642.18 532.211 629.646 532.981C628.507 532.981 627.747 533.75 627.747 534.904C627.367 546.063 627.747 557.222 628.127 570.305C628.127 571.074 628.886 572.229 630.026 572.229ZM663.831 567.611C658.513 567.611 653.195 567.611 647.878 567.996C642.56 567.996 636.863 568.381 631.925 568.381C631.545 556.837 631.545 546.833 631.545 536.828C642.94 536.444 653.575 536.444 663.831 536.828C663.831 546.833 663.831 556.837 663.831 566.842V567.611Z" fill="#636464"/>
<path d="M631.167 644.183C642.562 644.183 655.856 643.799 666.871 643.414C666.871 632.255 666.871 620.327 666.871 608.783C655.096 608.014 643.322 608.014 630.787 608.783C630.407 620.327 630.407 631.87 631.167 644.183Z" fill="#B8D4F7"/>
<path d="M631.174 646.107C636.872 646.107 642.949 646.107 649.026 645.723C655.103 645.723 661.181 645.338 666.878 645.338C668.018 645.338 668.777 644.568 668.777 643.414V640.335C668.777 629.946 668.777 619.172 668.777 608.783C668.777 607.629 668.018 606.859 666.878 606.859C655.103 606.09 643.329 606.09 630.794 606.859C629.655 606.859 628.895 607.629 628.895 608.783C628.515 619.942 628.895 631.101 629.275 644.183C629.275 645.338 630.035 646.107 631.174 646.107ZM664.979 641.875C659.661 641.875 654.344 641.875 648.646 642.259C643.329 642.259 637.631 642.644 632.694 642.644C632.314 631.101 632.314 621.096 632.314 611.092C643.709 610.707 654.344 610.707 664.599 611.092C664.599 621.096 664.599 631.101 664.599 640.72L664.979 641.875Z" fill="#636464"/>
<path d="M631.167 718.447C642.562 718.447 655.856 718.062 666.871 717.677C666.871 706.519 666.871 694.59 666.871 683.047C655.096 682.277 643.322 682.277 630.787 683.047C630.407 694.59 630.407 705.749 631.167 718.447Z" fill="#B8D4F7"/>
<path d="M631.174 720.371C636.872 720.371 642.949 720.371 649.026 719.986C655.103 719.986 661.181 719.601 666.878 719.601C668.018 719.601 668.777 718.831 668.777 717.677V714.599C668.777 704.21 668.777 693.436 668.777 683.046C668.777 681.892 668.018 681.122 666.878 681.122C655.103 680.353 643.329 680.353 630.794 681.122C629.655 681.122 628.895 681.892 628.895 683.046C628.515 694.205 628.895 705.364 629.275 718.447C629.275 719.601 630.035 720.371 631.174 720.371ZM664.979 716.138C659.661 716.138 654.344 716.138 649.026 716.523C643.709 716.523 638.011 716.908 633.073 716.908C632.694 705.364 632.694 695.36 632.694 685.355C644.088 684.97 654.724 684.97 664.979 685.355C664.979 695.36 664.979 705.364 664.979 714.984V716.138Z" fill="#636464"/>
<path d="M630.028 547.601C638.384 547.217 647.88 547.217 657.375 547.217C660.414 547.217 663.073 547.217 666.111 547.217C666.491 547.217 666.871 546.832 666.871 546.447C666.871 546.062 666.491 545.678 666.111 545.678C663.453 545.678 660.414 545.678 657.375 545.678C647.88 545.678 638.004 545.678 630.028 546.062C629.648 546.062 629.268 546.447 629.268 546.832C629.268 547.217 629.648 547.601 630.028 547.601Z" fill="#636464"/>
<path d="M631.172 619.942C639.148 619.557 652.063 619.557 665.736 619.557C666.116 619.557 666.496 619.173 666.496 618.788C666.496 618.403 666.116 618.018 665.736 618.018C659.279 618.018 642.567 618.018 631.172 618.403C630.792 618.403 630.412 618.788 630.412 619.173C630.792 619.942 630.792 619.942 631.172 619.942Z" fill="#636464"/>
<path d="M666.111 693.436C666.491 693.436 666.871 693.051 666.871 692.667C666.871 692.282 666.491 691.897 666.111 691.897C654.717 691.512 642.942 691.512 631.167 691.512C630.787 691.512 630.408 691.897 630.408 692.282C630.408 692.667 630.787 693.051 631.167 693.051C642.942 693.051 654.717 693.051 666.111 693.436Z" fill="#636464"/>
<path d="M555.577 644.183C566.972 644.183 580.266 643.798 591.281 643.414C591.281 632.255 591.281 620.327 591.281 608.783C579.507 608.013 567.732 608.013 555.197 608.783C555.197 620.327 555.197 631.87 555.577 644.183Z" fill="#B8D4F7"/>
<path d="M555.584 646.107C561.282 646.107 567.359 646.107 573.436 645.722C579.514 645.722 585.591 645.338 591.288 645.338C592.428 645.338 593.188 644.568 593.188 643.414V640.335C593.188 629.946 593.188 619.172 593.188 608.783C593.188 607.629 592.428 606.859 591.288 606.859C579.514 606.089 567.739 606.089 555.205 606.859C554.065 606.859 553.305 607.629 553.305 608.783C552.926 619.942 553.305 631.101 553.685 644.183C554.065 645.338 554.825 646.107 555.584 646.107ZM589.769 641.875C584.451 641.875 579.134 641.875 573.436 642.259C568.119 642.259 562.421 642.644 557.484 642.644C557.104 631.101 557.104 621.096 557.104 611.092C568.499 610.707 579.134 610.707 589.389 611.092C589.389 621.096 589.389 631.101 589.389 641.105L589.769 641.875Z" fill="#636464"/>
<path d="M555.577 718.447C566.972 718.447 580.266 718.062 591.281 717.677C591.281 706.519 591.281 694.59 591.281 683.047C579.507 682.277 567.732 682.277 555.197 683.047C555.197 694.59 555.197 705.749 555.577 718.447Z" fill="#B8D4F7"/>
<path d="M555.584 720.37C561.282 720.37 567.359 720.371 573.436 719.986C579.514 719.986 585.591 719.601 591.288 719.601C592.428 719.601 593.188 718.831 593.188 717.677V714.599C593.188 704.209 593.188 693.435 593.188 683.046C593.188 681.892 592.428 681.122 591.288 681.122C579.514 680.353 567.739 680.353 555.205 681.122C554.065 681.122 553.305 681.892 553.305 683.046C552.926 694.205 553.305 705.364 553.685 718.447C554.065 719.601 554.825 720.37 555.584 720.37ZM589.769 716.138C584.451 716.138 579.134 716.138 573.816 716.523C568.499 716.523 562.801 716.907 557.863 716.907C557.484 705.364 557.484 695.359 557.484 685.355C568.878 684.97 579.514 684.97 589.769 685.355C589.769 695.359 589.769 705.364 589.769 715.368V716.138Z" fill="#636464"/>
<path d="M555.969 619.942C563.945 619.557 576.859 619.557 590.533 619.557C590.913 619.557 591.293 619.173 591.293 618.788C591.293 618.403 590.913 618.018 590.533 618.018C584.076 618.018 567.364 618.018 555.969 618.403C555.589 618.403 555.209 618.788 555.209 619.173C555.589 619.942 555.589 619.942 555.969 619.942Z" fill="#636464"/>
<path d="M590.916 693.436C591.296 693.436 591.676 693.051 591.676 692.667C591.676 692.282 591.296 691.897 590.916 691.897C579.521 691.512 567.747 691.512 555.972 691.512C555.592 691.512 555.212 691.897 555.212 692.282C555.212 692.667 555.592 693.051 555.972 693.051C567.747 693.051 579.141 693.051 590.916 693.436Z" fill="#636464"/>
<path d="M793.451 824.682C696.215 824.682 604.676 823.912 511.238 824.682C508.579 824.682 508.579 803.518 508.579 803.518C538.966 805.827 713.307 800.825 793.831 804.673C794.211 810.445 794.591 817.371 793.451 824.682Z" fill="white"/>
<path d="M793.458 826.221C794.218 826.221 794.978 825.451 795.358 824.682C796.497 816.601 796.117 809.29 795.737 803.903C795.737 803.134 794.978 802.364 793.838 801.98C748.639 800.056 672.293 800.825 611.14 801.21C563.282 801.595 521.88 801.98 508.586 800.825C508.207 800.825 507.447 800.825 507.067 801.21C506.687 801.595 506.308 801.98 506.308 802.749C506.308 825.836 508.966 825.836 510.486 825.836C572.018 825.451 632.031 825.451 695.083 825.836C727.368 826.221 760.413 826.221 793.458 826.221ZM792.319 806.212C792.699 810.83 792.699 816.601 791.939 822.758C759.274 822.758 726.988 822.758 695.842 822.758C632.791 822.758 573.537 822.373 512.005 822.758C511.245 820.449 510.865 812.754 510.486 805.443C525.679 806.212 565.561 805.827 611.14 805.443C671.533 804.673 746.739 803.903 792.319 806.212Z" fill="#636464"/>
<path d="M682.965 631.691C706.272 628.8 730.53 642.292 741.946 663.012C753.361 683.732 752.886 710.716 741.47 731.918C736.238 742.037 728.152 750.711 718.163 755.53C709.601 759.384 700.088 759.866 690.575 760.348C683.44 760.348 675.83 760.348 669.171 757.457C663.463 755.048 658.706 751.193 654.425 746.856C637.302 729.509 629.216 703.488 634.448 679.877C639.68 655.302 659.657 634.1 682.965 631.691Z" fill="white"/>
<path d="M687.728 762.276C688.679 762.276 689.63 762.276 690.581 762.276C699.619 762.276 709.608 761.794 718.645 757.457C731.012 751.675 738.623 741.074 743.379 732.882C755.271 710.717 755.746 682.769 743.855 662.049C731.488 639.883 706.278 626.391 682.495 629.282C658.713 632.173 637.784 652.893 631.6 678.914C626.368 702.525 634.454 729.991 652.529 748.302C657.761 753.602 662.993 757.457 668.226 759.385C674.885 761.794 681.544 762.276 687.728 762.276ZM689.154 633.619C709.132 633.619 729.585 645.665 740.05 664.458C750.99 684.214 750.514 710.235 739.574 730.955C735.769 738.665 728.634 748.302 717.218 753.602C708.656 757.457 699.143 757.939 690.581 757.939C683.922 757.939 676.312 757.939 670.128 755.53C665.372 753.602 661.091 750.229 656.334 745.411C639.686 728.064 632.076 702.525 636.832 680.359C642.065 656.266 662.042 636.992 683.447 634.582C685.349 633.619 687.252 633.619 689.154 633.619Z" fill="#D1D6DD"/>
<path d="M691.542 731.437C692.018 731.437 692.018 731.437 692.493 731.437C693.445 730.955 694.396 729.51 693.92 728.546C688.212 715.054 678.699 703.007 666.332 694.816C665.381 694.334 663.954 694.334 663.003 695.297C662.527 696.261 662.527 697.707 663.478 698.67C674.894 706.38 683.932 717.463 689.164 730.473C690.115 730.955 690.591 731.437 691.542 731.437Z" fill="#D1D6DD"/>
<path d="M663.481 740.111C663.481 740.111 663.957 740.111 663.957 739.629C664.432 739.147 663.957 738.665 663.957 738.665C658.724 734.81 654.919 729.51 652.541 723.245C652.541 722.764 652.065 722.764 651.59 722.764C651.114 722.764 651.114 723.245 651.114 723.727C653.968 729.992 657.773 735.774 663.481 740.111Z" fill="#D1D6DD"/>
<g opacity="0.1294">
<path d="M648.251 729.991C650.154 729.991 651.105 731.437 652.532 732.882C654.911 735.292 656.813 737.701 659.191 740.11C661.57 742.038 666.326 745.411 671.083 747.82C671.558 748.302 672.034 748.302 672.51 748.302C674.412 748.784 676.791 749.748 678.693 749.748H679.169C679.645 749.748 679.645 749.748 679.645 749.748C686.779 750.711 693.439 749.266 706.757 746.375C711.989 744.929 710.086 745.411 714.843 743.483C715.794 743.483 718.648 742.038 719.6 741.556C724.356 739.147 726.734 737.701 728.637 735.774C730.54 734.328 731.491 732.401 733.394 731.437C737.674 729.509 741.48 735.292 738.15 738.665C734.345 742.52 730.064 745.893 725.307 748.302C724.356 748.784 720.075 750.711 718.648 751.193C712.94 754.084 711.989 755.048 707.233 756.494C702.476 758.421 697.719 759.385 692.963 759.867C688.206 760.83 683.45 760.83 678.693 759.867C674.888 758.903 671.558 757.457 668.229 755.53C661.57 752.157 654.911 748.302 650.154 742.52C648.251 740.592 646.349 738.183 644.446 736.255C643.495 735.292 643.495 734.328 643.495 733.364C643.97 731.919 645.873 729.991 648.251 729.991Z" fill="#D1D6DD"/>
</g>
<path d="M318.794 499.206L321.57 819.814H155.003L152.921 499.909L318.794 499.206Z" fill="white"/>
<path d="M155.002 821.572H321.569C321.916 821.572 322.61 821.22 322.61 821.22C322.957 820.869 322.957 820.517 322.957 820.166L320.528 499.558C320.528 498.503 319.834 497.8 318.793 497.8L152.92 498.503C152.573 498.503 151.878 498.855 151.878 498.855C151.531 499.206 151.531 499.558 151.531 499.909L153.613 819.463C153.266 820.869 153.961 821.572 155.002 821.572ZM319.834 818.056H156.737L154.655 501.667L317.058 500.964L319.834 818.056Z" fill="#636464"/>
<path d="M255.295 601.857C265.706 601.857 277.851 601.505 288.262 601.154C288.262 590.608 288.262 579.007 288.262 567.757C277.504 567.054 266.747 567.054 255.295 567.757C254.601 579.007 254.948 589.904 255.295 601.857Z" fill="#006FFD"/>
<path d="M255.294 603.614C260.499 603.614 266.051 603.614 271.604 603.263C277.156 603.263 282.708 602.911 287.913 602.911C288.954 602.911 289.648 602.208 289.648 601.154V598.341C289.648 588.498 289.648 577.952 289.648 567.757C289.648 566.702 288.954 565.999 287.913 565.999C277.156 565.296 266.399 565.296 254.6 565.999C253.559 565.999 252.865 566.702 252.865 567.757C252.518 578.303 252.865 589.201 253.212 601.857C253.559 602.911 254.253 603.614 255.294 603.614ZM286.525 599.747C281.667 599.747 276.809 599.747 271.604 600.099C266.745 600.099 261.54 600.45 257.029 600.45C256.682 589.201 256.682 579.358 256.682 569.866C267.092 569.515 276.809 569.515 286.525 569.866C286.525 579.358 286.525 589.201 286.525 598.693V599.747Z" fill="#636464"/>
<path d="M186.584 601.857C196.995 601.857 209.14 601.505 219.551 601.154C219.551 590.608 219.551 579.007 219.551 567.757C208.793 567.054 198.036 567.054 186.584 567.757C185.89 579.007 186.237 589.904 186.584 601.857Z" fill="#006FFD"/>
<path d="M186.583 603.614C191.788 603.614 197.34 603.614 202.893 603.263C208.445 603.263 213.997 602.911 219.202 602.911C220.243 602.911 220.938 602.208 220.938 601.154V598.341C220.938 588.498 220.938 577.952 220.938 567.757C220.938 566.702 220.243 565.999 219.202 565.999C208.445 565.296 197.688 565.296 185.889 565.999C184.848 565.999 184.154 566.702 184.154 567.757C183.807 578.303 184.154 589.201 184.501 601.857C184.848 602.911 185.542 603.614 186.583 603.614ZM217.814 599.747C212.956 599.747 208.098 599.747 202.893 600.099C198.034 600.099 192.829 600.45 188.318 600.45C187.971 589.201 187.971 579.358 187.971 569.866C198.382 569.515 208.098 569.515 217.814 569.866C217.814 579.358 217.814 589.201 217.814 598.693V599.747Z" fill="#636464"/>
<path d="M256.33 673.221C266.741 673.221 278.886 672.869 289.297 672.518C289.297 661.971 289.297 650.37 289.297 639.121C278.539 638.418 267.782 638.418 256.33 639.121C255.636 650.37 255.636 661.268 256.33 673.221Z" fill="#006FFD"/>
<path d="M256.329 674.978C261.534 674.978 267.087 674.978 272.639 674.627C278.191 674.627 283.743 674.275 288.949 674.275C289.99 674.275 290.684 673.572 290.684 672.518V669.705C290.684 659.862 290.684 649.316 290.684 639.121C290.684 638.066 289.99 637.363 288.949 637.363C278.191 636.66 267.434 636.66 255.635 637.363C254.594 637.363 253.9 638.066 253.9 639.121C253.553 649.667 253.9 660.565 254.247 673.221C254.594 674.275 255.288 674.978 256.329 674.978ZM287.213 671.111C282.355 671.111 277.497 671.111 272.292 671.463C267.434 671.463 262.228 671.814 257.717 671.814C257.37 660.565 257.37 650.722 257.37 641.23C267.781 640.879 277.497 640.879 287.213 641.23C287.213 650.722 287.213 660.565 287.213 670.057V671.111Z" fill="#636464"/>
<path d="M187.623 673.221C198.034 673.221 210.179 672.869 220.59 672.518C220.59 661.971 220.59 650.37 220.59 639.121C209.832 638.418 199.075 638.418 187.623 639.121C186.929 650.37 186.929 661.268 187.623 673.221Z" fill="#006FFD"/>
<path d="M187.622 674.978C192.827 674.978 198.379 674.978 203.932 674.627C209.484 674.627 215.036 674.275 220.241 674.275C221.283 674.275 221.977 673.572 221.977 672.518V669.705C221.977 659.862 221.977 649.316 221.977 639.121C221.977 638.066 221.283 637.363 220.241 637.363C209.484 636.66 198.727 636.66 186.928 637.363C185.887 637.363 185.193 638.066 185.193 639.121C184.846 649.667 185.193 660.565 185.54 673.221C185.887 674.275 186.581 674.978 187.622 674.978ZM218.506 671.111C213.648 671.111 208.79 671.111 203.585 671.463C198.727 671.463 193.521 671.814 189.01 671.814C188.663 660.565 188.663 650.722 188.663 641.23C199.074 640.879 208.79 640.879 218.506 641.23C218.506 650.722 218.506 660.565 218.506 670.057V671.111Z" fill="#636464"/>
<path d="M256.33 744.936C266.741 744.936 278.886 744.584 289.297 744.232C289.297 733.686 289.297 722.085 289.297 710.836C278.539 710.133 267.782 710.133 256.33 710.836C255.636 721.734 255.636 732.632 256.33 744.936Z" fill="#006FFD"/>
<path d="M256.329 746.693C261.534 746.693 267.087 746.693 272.639 746.342C278.191 746.342 283.743 745.99 288.949 745.99C289.99 745.99 290.684 745.287 290.684 744.233V741.42C290.684 731.577 290.684 721.031 290.684 710.836C290.684 709.781 289.99 709.078 288.949 709.078C278.191 708.375 267.434 708.375 255.635 709.078C254.594 709.078 253.9 709.781 253.9 710.836C253.553 721.382 253.9 732.28 254.247 744.936C254.594 745.639 255.288 746.693 256.329 746.693ZM287.213 742.475C282.355 742.475 277.497 742.475 272.292 742.826C267.434 742.826 262.228 743.178 257.717 743.178C257.37 731.929 257.37 722.085 257.37 712.594C267.781 712.242 277.497 712.242 287.213 712.594C287.213 722.085 287.213 731.929 287.213 741.42V742.475Z" fill="#636464"/>
<path d="M187.623 744.936C198.034 744.936 210.179 744.584 220.59 744.232C220.59 733.686 220.59 722.085 220.59 710.836C209.832 710.133 199.075 710.133 187.623 710.836C186.929 721.734 186.929 732.632 187.623 744.936Z" fill="#006FFD"/>
<path d="M187.622 746.693C192.827 746.693 198.379 746.693 203.932 746.342C209.484 746.342 215.036 745.99 220.241 745.99C221.283 745.99 221.977 745.287 221.977 744.233V741.42C221.977 731.577 221.977 721.031 221.977 710.836C221.977 709.781 221.283 709.078 220.241 709.078C209.484 708.375 198.727 708.375 186.928 709.078C185.887 709.078 185.193 709.781 185.193 710.836C184.846 721.382 185.193 732.28 185.54 744.936C185.887 745.639 186.581 746.693 187.622 746.693ZM218.506 742.475C213.648 742.475 208.79 742.475 203.585 742.826C198.727 742.826 193.521 743.178 189.01 743.178C188.663 731.929 188.663 722.085 188.663 712.594C199.074 712.242 208.79 712.242 218.506 712.594C218.506 722.085 218.506 731.929 218.506 741.42V742.475Z" fill="#636464"/>
<path d="M154.308 519.244C209.83 517.486 265.353 517.135 319.14 518.189C320.181 518.189 320.875 517.486 320.875 516.432C320.875 515.377 320.181 514.674 319.14 514.674C265.353 513.268 209.83 513.619 154.308 515.729C153.267 515.729 152.573 516.432 152.573 517.486C152.573 518.541 153.267 519.244 154.308 519.244Z" fill="#636464"/>
<path d="M256.328 580.061L287.56 579.71C287.907 579.71 288.254 579.358 288.254 579.006C288.254 578.655 287.907 578.303 287.56 578.303L256.328 578.655C255.981 578.655 255.634 579.006 255.634 579.358C255.634 579.709 255.981 580.061 256.328 580.061Z" fill="#EDEFF1"/>
<path d="M186.582 580.061C194.216 579.709 202.891 579.71 211.567 579.71C214.343 579.71 216.772 579.71 219.548 579.71C219.895 579.71 220.242 579.358 220.242 579.006C220.242 578.655 219.895 578.303 219.548 578.303C217.119 578.303 214.343 578.303 211.567 578.303C202.891 578.303 193.869 578.303 186.235 578.655C185.888 578.655 185.541 579.006 185.541 579.358C185.888 579.709 186.235 580.061 186.582 580.061Z" fill="#EDEFF1"/>
<path d="M257.023 650.019C261.534 650.019 266.739 650.019 271.944 650.019C277.149 650.019 282.702 650.019 287.56 650.019C287.907 650.019 288.254 649.667 288.254 649.316C288.254 648.964 287.907 648.964 287.56 648.613C282.702 648.964 277.496 648.613 271.944 648.613C266.739 648.613 261.187 648.613 256.675 648.613C256.328 648.613 255.981 648.964 255.981 649.316C256.675 650.019 256.676 650.019 257.023 650.019Z" fill="#EDEFF1"/>
<path d="M187.626 650.019C194.913 649.667 206.712 649.667 219.204 649.667C219.551 649.667 219.898 649.315 219.898 648.964C219.898 648.612 219.551 648.261 219.204 648.261C206.365 648.261 194.913 648.261 187.626 648.612C187.279 648.612 186.932 648.964 186.932 649.315C187.279 649.667 187.626 650.019 187.626 650.019Z" fill="#EDEFF1"/>
<path d="M271.26 721.03C277.159 721.03 283.058 721.03 288.611 720.679C288.958 720.679 289.305 720.327 289.305 719.976C289.305 719.624 288.958 719.624 288.611 719.273C280.629 719.624 272.301 719.624 264.32 719.624C261.89 719.624 259.808 719.624 257.379 719.624C257.032 719.624 256.685 719.976 256.685 720.327C256.685 720.679 257.032 721.03 257.379 721.03C259.808 721.03 261.89 721.03 264.32 721.03C266.749 721.03 269.178 721.03 271.26 721.03Z" fill="#EDEFF1"/>
<path d="M219.548 720.679C219.895 720.679 220.242 720.327 220.242 719.976C220.242 719.624 219.895 719.272 219.548 719.272C209.138 718.921 198.38 718.921 187.623 718.921C187.276 718.921 186.929 719.272 186.929 719.624C186.929 719.976 187.276 720.327 187.623 720.327C198.38 720.327 209.138 720.327 219.548 720.679Z" fill="#EDEFF1"/>
<g opacity="0.1294">
<path d="M156.395 517.135C157.783 517.135 158.824 517.135 160.212 517.135C164.724 517.135 169.582 517.135 174.093 516.783C185.545 516.08 210.53 515.377 226.839 516.08C239.332 515.377 251.824 515.377 264.317 515.025C274.38 515.025 284.444 515.377 294.507 515.377C301.795 515.377 309.082 515.377 316.022 516.08C322.269 516.08 322.269 526.275 316.022 526.626C306.653 525.22 297.283 525.572 287.914 525.572C272.298 525.572 257.03 525.572 241.414 525.923C225.104 526.626 208.794 526.626 192.485 526.626C187.974 526.626 183.463 527.329 178.951 526.978C173.399 526.978 174.093 526.978 169.235 526.978C165.071 527.329 160.906 527.329 157.089 526.978C157.436 526.978 157.783 526.978 158.13 527.329C155.007 527.681 151.884 526.275 151.884 522.408C151.884 519.596 153.966 517.135 156.395 517.135Z" fill="#636464"/>
</g>
<path d="M131.448 785.601C137.04 790.494 140.599 789.464 146.953 785.344C153.307 781.224 156.357 772.985 153.561 766.29C167.286 769.38 181.011 758.05 184.57 745.434C187.111 736.422 184.061 724.577 174.149 722.517C182.536 715.565 184.316 702.433 177.707 693.936C171.099 685.439 157.374 682.865 147.461 688.014C148.986 676.942 144.157 665.613 135.007 658.661C131.703 656.086 127.636 654.026 123.315 653.769C114.419 653.511 106.794 661.236 105.015 669.475C103.236 677.715 105.523 685.954 108.065 694.194C102.219 689.559 91.7982 691.619 87.7315 697.799C83.6648 703.978 85.4439 712.733 91.2898 717.625C82.1397 722.517 76.5481 732.302 77.0564 741.829C77.5648 751.356 84.1731 760.368 93.8315 764.23C96.3732 765.26 99.6775 766.29 100.44 768.865C100.948 770.41 98.4065 781.739 113.657 789.464C118.486 792.038 125.094 789.979 131.448 785.601Z" fill="white"/>
<path d="M118.235 792.038C122.81 792.038 127.639 789.721 131.452 787.404C137.043 792.038 141.11 790.751 147.718 786.631C154.073 782.769 157.123 775.044 155.598 768.092C156.614 768.092 157.377 768.35 158.394 768.35C171.102 768.35 182.794 757.535 185.844 745.948C187.623 740.026 186.86 733.074 183.81 728.182C182.031 725.349 179.744 723.032 176.694 722.002C184.065 714.278 185.335 701.661 178.727 693.421C172.373 685.182 159.156 682.092 148.989 686.212C149.752 675.655 144.669 664.583 136.027 657.888C131.96 654.798 127.639 652.996 123.572 652.739C113.66 652.481 105.781 660.978 104.001 669.475C102.222 676.942 104.001 684.667 106.035 691.619C103.493 690.589 100.697 690.331 97.6472 690.589C93.0722 691.361 89.0055 693.679 86.718 697.026C82.6513 703.206 83.668 711.703 89.2597 717.11C80.618 722.517 75.2804 732.044 75.7888 741.829C76.2971 751.871 83.4137 761.397 93.3263 765.517L94.089 765.775C96.3765 766.547 98.664 767.577 99.1723 769.38C99.1723 769.38 99.1723 769.895 99.1723 770.152C99.1723 773.757 99.1722 783.799 112.897 790.493C114.677 791.523 116.456 792.038 118.235 792.038ZM131.452 784.314C131.197 784.314 130.943 784.314 130.689 784.571C123.827 788.948 117.981 790.493 113.914 788.434C101.46 782.254 101.46 773.499 101.46 770.152C101.46 769.38 101.46 768.865 101.206 768.607C100.189 765.775 97.393 764.487 94.5972 763.457L93.8347 763.2C84.6846 759.595 78.3304 750.841 77.8221 741.829C77.3138 732.559 82.9055 723.29 91.5473 718.655C91.8014 718.397 92.0556 718.14 92.3097 717.625C92.3097 717.11 92.0555 716.852 91.8014 716.595C86.2097 711.96 84.6847 703.978 88.4972 698.571C90.2764 695.739 93.8347 693.679 97.6472 693.164C101.206 692.649 104.764 693.421 107.051 695.224C107.56 695.481 108.068 695.481 108.576 695.224C109.085 694.966 109.339 694.451 109.085 693.936C106.797 686.469 104.256 677.972 106.035 669.99C107.56 662.523 114.168 655.313 122.556 655.313C122.81 655.313 122.81 655.313 123.064 655.313C126.622 655.571 130.435 656.858 134.248 659.948C142.889 666.643 147.719 677.715 146.194 688.272C146.194 688.787 146.448 689.301 146.702 689.559C147.21 689.816 147.464 689.816 147.973 689.559C157.377 684.667 170.34 686.984 176.694 694.966C182.794 702.948 181.269 715.05 173.389 721.745C173.135 722.002 172.881 722.517 172.881 723.032C172.881 723.547 173.389 723.805 173.898 724.062C177.202 724.835 179.744 726.637 181.523 729.727C184.065 734.104 184.827 740.026 183.302 745.433C179.998 757.278 167.035 768.35 153.819 765.517C153.31 765.517 152.802 765.517 152.548 766.032C152.294 766.29 152.293 766.805 152.293 767.32C154.835 773.499 152.039 780.966 146.194 784.829C139.839 788.948 137.043 789.463 132.214 785.086C131.96 784.571 131.706 784.314 131.452 784.314Z" fill="#A3AEBB"/>
<path d="M131.702 826.026C132.464 826.026 132.973 825.511 132.973 824.739C133.735 781.739 134.498 737.194 129.16 693.679C129.16 692.906 128.398 692.391 127.889 692.649C127.127 692.649 126.618 693.421 126.872 693.936C132.21 737.194 131.447 781.739 130.685 824.739C130.431 825.511 130.939 826.026 131.702 826.026Z" fill="#A3AEBB"/>
<path d="M129.676 717.882C129.93 717.882 130.185 717.882 130.439 717.625C130.947 717.367 131.201 716.595 130.947 715.822C128.151 711.445 125.101 707.325 121.543 703.72C121.035 703.205 120.272 703.205 119.764 703.72C119.255 704.235 119.255 705.008 119.764 705.523C123.322 709.128 126.372 712.99 128.914 717.367C128.914 717.625 129.422 717.882 129.676 717.882Z" fill="#A3AEBB"/>
<path d="M131.962 755.475C132.471 755.475 132.979 755.218 133.233 754.703C138.825 740.798 144.417 727.924 154.837 716.595C155.346 716.08 155.346 715.307 154.837 714.792C154.329 714.277 153.567 714.277 153.058 714.792C142.129 726.637 136.792 739.768 130.946 753.673C130.692 754.188 130.946 754.96 131.708 755.217C131.708 755.475 131.962 755.475 131.962 755.475Z" fill="#A3AEBB"/>
<path d="M141.87 734.104C142.124 734.104 142.379 734.104 142.379 733.846C146.954 731.271 152.037 729.469 157.12 728.954C157.883 728.954 158.391 728.182 158.137 727.667C158.137 726.894 157.374 726.379 156.866 726.637C151.274 727.152 145.937 729.211 141.108 732.044C140.599 732.301 140.345 733.074 140.599 733.846C141.108 733.846 141.362 734.104 141.87 734.104Z" fill="#A3AEBB"/>
<path d="M131.451 775.044C131.705 775.044 131.705 775.044 131.959 775.044C132.467 774.786 132.976 774.014 132.721 773.499C126.367 758.565 116.709 745.175 104.763 734.361C104.255 733.846 103.492 733.846 102.984 734.361C102.476 734.876 102.476 735.648 102.984 736.163C114.676 746.72 124.08 759.852 130.18 774.271C130.434 774.529 130.942 775.044 131.451 775.044Z" fill="#A3AEBB"/>
<g opacity="0.1294">
<path d="M100.438 767.576C101.455 765.774 103.996 766.289 104.505 768.091C105.013 771.439 105.521 773.499 106.538 775.558C108.826 779.163 110.605 781.738 112.384 782.768C114.163 783.798 113.146 783.283 115.18 783.798C115.434 783.798 115.434 783.798 115.688 783.798C117.976 784.055 120.263 784.313 122.551 784.055C122.805 784.055 122.805 784.055 123.059 784.055C124.584 783.798 126.109 783.54 127.634 782.768C127.634 782.768 127.634 782.768 127.888 782.768C128.905 782.253 129.922 781.481 131.192 781.223C132.972 780.966 135.513 781.223 136.276 783.025C136.53 782.768 136.784 782.768 137.038 782.51C139.072 781.481 138.055 782.511 140.342 781.481C143.392 779.936 144.409 779.163 146.188 777.876C149.238 774.786 149.747 773.241 150.001 770.409C150.255 768.606 149.747 766.804 150.255 765.001C151.018 762.942 153.305 762.427 154.83 763.457C155.338 762.942 155.847 762.427 156.609 762.169C156.609 762.169 156.609 762.169 156.863 762.169C158.643 761.912 160.422 762.169 162.201 761.912C163.726 761.912 166.522 761.397 167.793 760.624C171.097 758.822 173.384 757.019 173.639 756.504C175.418 754.96 177.197 753.672 178.722 751.612C179.484 750.582 180.501 749.295 181.772 749.295C183.805 749.295 184.822 751.87 183.297 753.157C182.026 754.445 182.026 754.702 180.501 756.762C179.23 758.307 177.705 759.852 176.434 761.139C174.147 762.942 171.859 765.001 169.064 766.289C167.284 767.319 164.997 767.576 162.963 767.834C161.947 768.091 160.93 767.834 159.913 768.091C158.643 768.349 157.372 768.349 156.355 768.091C156.355 775.301 154.068 780.451 147.713 784.828C145.172 786.63 138.817 790.493 136.276 787.66C135.767 787.145 135.513 786.63 135.513 786.115C134.751 786.63 133.734 787.145 132.717 786.63C132.463 786.63 132.463 786.373 132.209 786.373C131.701 786.63 130.43 787.403 129.922 787.66C125.855 789.72 121.28 789.978 117.213 788.948C114.163 788.433 111.367 787.918 109.08 785.858C107.555 784.57 106.538 783.025 105.267 781.481C103.742 779.421 102.471 776.846 101.709 774.271C101.201 772.984 101.2 771.439 100.946 770.151C100.184 769.636 99.9297 768.606 100.438 767.576Z" fill="#A3AEBB"/>
</g>
<path d="M519.407 675.267L522.977 821.016H279.427L276.651 675.677L519.407 675.267Z" fill="#EAF2FF"/>
<path d="M279.427 823.063H522.976C523.372 823.063 524.166 822.653 524.166 822.653C524.562 822.244 524.562 821.834 524.562 821.016L520.992 675.267C520.992 674.039 520.199 673.22 519.009 673.22L276.253 673.629C275.857 673.629 275.063 674.039 275.063 674.039C274.667 674.448 274.667 674.858 274.667 675.676L277.443 821.016C277.443 821.834 278.237 823.063 279.427 823.063ZM520.992 818.969H281.41L278.633 677.724L517.422 677.314L520.992 818.969Z" fill="#23274D"/>
<path d="M419.055 821.015C488.47 821.015 561.059 822.243 630.475 821.425C630.475 749.779 631.268 676.085 635.234 596.251C571.769 594.614 493.23 593.795 413.898 592.976C418.262 672.81 422.625 768.202 419.055 821.015Z" fill="#EAF2FF"/>
<path d="M592.392 823.472C605.085 823.472 617.779 823.472 630.472 823.472C631.662 823.472 632.455 822.653 632.455 821.425C632.455 757.967 632.852 681.408 637.215 596.251C637.215 595.842 637.215 595.023 636.818 594.614C636.422 594.204 636.025 593.795 635.628 593.795C576.129 592.157 505.127 591.748 429.762 590.929H414.292C413.895 590.929 413.102 591.338 412.705 591.748C412.309 592.157 412.309 592.567 412.309 593.385C416.275 671.173 421.035 767.792 417.069 821.015C417.069 821.425 417.069 822.243 417.465 822.653C417.862 823.062 418.259 823.062 419.052 823.472C448.801 823.472 479.344 823.472 509.49 823.881C536.463 823.472 564.626 823.472 592.392 823.472ZM628.488 819.378C589.219 819.787 548.76 819.378 509.094 818.968C480.138 818.968 449.991 818.559 421.035 818.559C424.605 765.336 419.845 671.173 416.275 594.614H429.762C504.334 595.432 574.543 595.842 633.645 597.479C629.282 681.817 628.488 756.738 628.488 819.378Z" fill="#23274D"/>
<path d="M380.576 610.172C481.724 610.172 572.559 611.809 664.188 611.809C619.762 562.681 571.766 507.411 526.547 458.691C479.344 506.592 433.728 562.271 380.576 610.172Z" fill="#EAF2FF"/>
<path d="M664.19 614.265C664.984 614.265 665.777 613.856 665.777 613.037C666.174 612.218 665.777 611.4 665.38 610.99C648.721 592.567 631.268 572.915 614.211 553.673C585.652 521.33 555.902 488.168 527.74 457.872C527.343 457.463 526.946 457.463 526.55 457.463C526.153 457.463 525.359 457.463 525.359 457.872C507.113 476.296 489.263 495.538 470.62 516.008C441.664 547.532 411.915 579.875 379.785 609.353C378.992 609.762 378.992 610.581 379.389 611.4C379.785 612.218 380.579 612.628 381.372 612.628C433.334 612.628 482.52 613.037 530.119 613.447C575.735 613.856 619.765 614.265 664.19 614.265ZM526.55 461.966C554.712 491.853 583.668 524.605 611.831 556.13C627.698 574.144 644.357 592.567 659.827 610.171C616.591 610.171 574.545 609.762 529.723 609.353C483.71 608.943 436.111 608.534 386.132 608.534C417.071 580.285 445.631 548.76 473.397 518.464C491.643 498.403 508.7 479.98 526.55 461.966Z" fill="#23274D"/>
<path d="M489.272 744.047C512.278 744.047 535.284 743.638 558.291 743.638C560.671 719.483 561.861 695.737 561.464 671.582C537.664 670.354 513.865 670.354 488.478 671.582C488.082 695.328 488.082 718.255 489.272 744.047Z" fill="#B8D4F7"/>
<path d="M489.272 746.094L558.291 745.685C559.084 745.685 560.274 744.866 560.274 744.047C563.05 716.617 563.844 693.69 563.447 671.992C563.447 670.764 562.654 669.945 561.464 669.945C537.664 668.716 513.865 668.716 488.478 669.945C487.288 669.945 486.495 670.764 486.495 671.992C486.098 694.918 486.495 717.845 487.288 744.457C487.288 745.275 488.082 746.094 489.272 746.094ZM556.307 741.591L491.255 742C490.462 717.026 490.065 695.328 490.462 673.629C514.658 672.401 537.268 672.401 559.481 673.629C559.481 694.1 558.687 715.798 556.307 741.591Z" fill="#23274D"/>
<path d="M513.457 546.304C521.39 540.982 533.29 543.438 538.844 551.626C544.397 559.814 542.017 572.506 534.48 578.238C526.944 583.969 514.647 581.922 509.094 574.144C503.144 565.955 503.937 552.854 513.457 546.304Z" fill="#EAF2FF"/>
<path d="M523.772 583.56C527.739 583.56 532.102 582.332 535.275 579.875C544.002 573.325 546.382 559.814 540.035 550.398C534.086 541.391 520.996 538.525 512.269 544.666C507.509 547.941 504.733 552.854 503.543 558.586C502.353 564.318 503.939 570.868 507.113 575.372C511.079 580.694 517.426 583.56 523.772 583.56ZM522.979 545.485C528.532 545.485 534.086 547.941 536.862 552.854C541.622 560.224 539.639 571.687 532.896 576.6C526.152 581.922 515.046 579.875 510.286 572.915C507.509 569.231 506.716 564.318 507.509 559.405C508.303 554.492 510.683 550.807 514.649 547.941C517.029 546.304 520.203 545.485 522.979 545.485Z" fill="#23274D"/>
<path d="M390.101 823.062C391.291 823.062 392.084 822.244 392.084 821.015C391.291 788.263 392.084 755.92 392.48 728.49C392.48 728.08 392.481 727.261 392.084 726.852C391.687 726.443 391.291 726.443 390.894 726.443C364.318 726.443 336.552 726.443 308.785 726.443C308.389 726.443 307.595 726.852 307.595 726.852C307.199 727.261 307.199 727.671 307.199 728.08C307.199 736.268 307.199 744.456 307.199 752.235C307.199 776.8 307.199 799.726 307.992 819.378C307.992 820.606 308.785 821.425 309.975 821.425C311.165 821.425 311.959 820.606 311.959 819.378C311.165 799.726 311.165 776.8 311.165 752.235C311.165 744.866 311.165 737.906 311.165 730.127C337.345 730.127 363.524 730.127 389.307 730.127C388.911 757.148 388.117 788.672 388.911 820.606C388.117 822.244 388.911 823.062 390.101 823.062Z" fill="#23274D"/>
<path d="M388.511 742C388.908 742 389.305 741.59 389.305 741.181C389.305 740.772 388.908 740.362 388.511 740.362C362.728 739.134 336.946 738.724 311.163 739.134C310.766 739.134 310.37 739.543 310.37 739.953C310.37 740.362 310.766 740.771 311.163 740.771C336.946 739.953 362.728 740.362 388.511 742Z" fill="#23274D"/>
<path d="M372.642 752.235C378.196 752.235 383.749 752.235 389.699 752.235C390.096 752.235 390.492 751.826 390.492 751.416C390.492 751.007 390.096 750.598 389.699 750.598C363.123 751.007 336.15 750.598 309.574 748.96C309.177 748.96 308.78 749.369 308.78 749.779C308.78 750.188 309.177 750.598 309.574 750.598C330.597 751.826 351.62 752.235 372.642 752.235Z" fill="#23274D"/>
<path d="M390.093 765.746C390.49 765.746 390.887 765.337 390.887 764.927C390.887 764.518 390.49 764.108 390.093 764.108C363.12 762.061 335.751 761.652 308.778 762.471C308.381 762.471 307.985 762.88 307.985 763.289C307.985 763.699 308.381 764.108 308.778 764.108C335.751 762.88 363.12 763.699 390.093 765.746Z" fill="#23274D"/>
<path d="M389.308 778.437C389.705 778.437 390.102 778.028 390.102 777.619C390.102 777.209 389.705 776.8 389.308 776.8L308.786 774.343C308.39 774.343 307.993 774.753 307.993 775.162C307.993 775.572 308.39 775.981 308.786 775.981L389.308 778.437Z" fill="#23274D"/>
<path d="M362.327 789.082C371.45 789.082 380.97 789.082 390.093 789.082C390.49 789.082 390.887 788.672 390.887 788.263C390.887 787.853 390.49 787.444 390.093 787.444C363.517 787.444 336.148 787.444 309.571 787.035C309.175 787.035 308.778 787.444 308.778 787.853C308.778 788.263 309.175 788.672 309.571 788.672C326.628 788.672 344.477 789.082 362.327 789.082Z" fill="#23274D"/>
<path d="M389.699 799.726C390.096 799.726 390.492 799.317 390.492 798.907C390.492 798.498 390.096 798.089 389.699 798.089H310.764C310.367 798.089 309.97 798.498 309.97 798.907C309.97 799.317 310.367 799.726 310.764 799.726H389.699Z" fill="#23274D"/>
<path d="M352.806 809.962C364.706 809.962 377.002 809.552 388.902 809.143C389.299 809.143 389.695 808.733 389.695 808.324C389.695 807.914 389.299 807.505 388.902 807.505C362.326 808.324 335.749 808.324 309.173 807.096C308.777 807.096 308.38 807.505 308.38 807.915C308.38 808.324 308.777 808.733 309.173 808.733C323.453 809.552 338.129 809.962 352.806 809.962Z" fill="#23274D"/>
<path d="M559.867 695.328C560.263 695.328 560.66 694.918 560.66 694.509C560.66 694.1 560.263 693.69 559.867 693.69C536.464 693.281 512.664 692.871 488.865 692.462C488.468 692.462 488.071 692.871 488.071 693.281C488.071 693.69 488.468 694.1 488.865 694.1C512.268 694.1 536.067 694.509 559.867 695.328Z" fill="#23274D"/>
<path d="M524.968 743.638C525.365 743.638 525.762 743.228 525.762 742.819L524.572 694.099C524.572 693.69 524.175 693.281 523.778 693.281C523.382 693.281 522.985 693.69 522.985 694.099L524.175 742.819C524.572 743.228 524.572 743.638 524.968 743.638Z" fill="#23274D"/>
<path d="M521.797 583.151C522.194 583.151 522.591 582.741 522.591 582.332C522.987 570.05 524.177 557.358 525.367 545.076C525.367 544.667 524.971 544.257 524.971 544.257C524.574 544.257 524.177 544.667 524.177 544.667C522.987 556.949 521.797 569.64 521.401 582.332C521.401 582.741 521.401 583.151 521.797 583.151Z" fill="#23274D"/>
<path d="M540.82 563.499C541.217 563.499 541.613 563.09 541.613 562.68C541.613 562.271 541.217 561.862 540.82 561.862L505.121 559.405C504.724 559.405 504.327 559.815 504.327 560.224C504.327 560.633 504.724 561.043 505.121 561.043L540.82 563.499Z" fill="#23274D"/>
<path d="M620.161 662.166C620.558 662.166 620.955 661.757 620.955 661.347L622.145 624.501C622.145 624.091 621.748 623.682 621.351 623.682C620.955 623.682 620.558 624.091 620.558 624.501L619.368 661.347C619.368 661.757 619.765 662.166 620.161 662.166Z" fill="#23274D"/>
<path d="M610.636 638.83C611.033 638.83 611.429 638.42 611.429 638.011L612.223 622.863C612.223 622.454 611.826 622.044 611.429 622.044C611.033 622.044 610.636 622.454 610.636 622.863L609.843 638.011C610.239 638.83 610.239 638.83 610.636 638.83Z" fill="#23274D"/>
<path d="M628.091 807.505C629.281 807.505 630.074 806.686 630.074 805.458C630.074 804.23 629.281 803.411 628.091 803.411L421.034 800.955C419.844 800.955 419.051 801.774 419.051 803.002C419.051 804.23 419.844 805.049 421.034 805.049L628.091 807.505Z" fill="#23274D"/>
<g opacity="0.1294">
<path d="M414.301 618.36C414.698 617.541 415.095 616.722 415.492 616.313C415.492 613.447 417.475 610.581 420.648 610.581C427.788 611.4 435.325 610.581 442.464 610.99C449.604 610.99 457.141 611.809 464.281 612.628C465.867 612.628 467.454 612.628 469.041 613.447C471.024 613.447 472.61 613.447 474.594 613.447C486.494 613.856 497.997 613.447 509.897 613.447C527.746 613.447 545.596 613.856 563.446 613.856C573.759 613.856 584.072 613.037 594.385 613.447C605.888 613.447 616.995 615.085 628.498 613.856C636.034 613.037 636.828 624.91 629.291 625.32C616.201 626.548 603.508 624.91 590.418 624.91C563.049 626.138 535.679 625.32 508.31 624.91C496.807 624.91 485.304 625.32 473.8 625.32C457.934 626.138 442.068 626.957 425.805 626.548C425.011 626.548 424.218 626.548 423.821 626.548C423.425 626.548 423.028 626.548 422.631 626.548C421.045 626.957 419.855 626.548 418.268 626.548C415.491 624.501 413.508 621.226 414.301 618.36Z" fill="#23274D"/>
</g>
<g opacity="0.1294">
<path d="M310.37 728.899C311.56 728.08 313.147 728.08 314.337 728.08C318.7 728.08 322.666 728.08 327.03 728.08C335.36 728.08 344.086 727.671 352.416 727.671C363.126 728.08 373.836 728.08 384.545 727.261C386.925 727.261 389.305 726.852 391.289 728.899C394.462 732.174 392.082 738.315 387.719 738.315C375.819 739.544 363.522 739.134 351.623 738.315C340.12 738.315 328.22 739.134 316.717 739.134C315.13 739.134 313.147 739.544 311.56 738.725C306.8 737.497 306.8 730.946 310.37 728.899Z" fill="#23274D"/>
</g>
<circle r="36.7306" transform="matrix(-1 0 0 1 470.152 270.509)" fill="#EAF2FF"/>
<path d="M488.684 287.445H451.531" stroke="#006FFD" stroke-width="2.53315" stroke-miterlimit="10" stroke-linecap="round" stroke-linejoin="round"/>
<path d="M456.965 287.462V279.931" stroke="#006FFD" stroke-width="2.53315" stroke-miterlimit="10" stroke-linecap="round" stroke-linejoin="round"/>
<path d="M456.929 268.683C458.99 268.683 460.645 270.338 460.645 272.399V276.232C460.645 278.292 458.99 279.947 456.929 279.947C454.869 279.947 453.214 278.292 453.214 276.232V272.399C453.214 270.338 454.869 268.683 456.929 268.683Z" stroke="#006FFD" stroke-width="2.53315" stroke-miterlimit="10" stroke-linecap="round" stroke-linejoin="round"/>
<path d="M486.824 287.446V260.476C486.824 257.082 485.135 255.376 481.775 255.376H471.254C467.893 255.376 466.221 257.082 466.221 260.476V287.446" stroke="#006FFD" stroke-width="2.53315" stroke-miterlimit="10" stroke-linecap="round" stroke-linejoin="round"/>
<path d="M480.574 264.225H472.215" stroke="#006FFD" stroke-width="2.53315" stroke-miterlimit="10" stroke-linecap="round" stroke-linejoin="round"/>
<path d="M480.574 270.558H472.215" stroke="#006FFD" stroke-width="2.53315" stroke-miterlimit="10" stroke-linecap="round" stroke-linejoin="round"/>
<path d="M476.438 287.446V281.113" stroke="#006FFD" stroke-width="2.53315" stroke-miterlimit="10" stroke-linecap="round" stroke-linejoin="round"/>
</svg>