<svg width="71" height="70" viewBox="0 0 71 70" fill="none" xmlns="http://www.w3.org/2000/svg">
<path d="M35.8721 4.8949e-06C28.6799 0.000604646 21.6625 2.2169 15.7746 6.34735C9.88674 10.4778 5.41429 16.3219 2.96575 23.0844C0.517201 29.847 0.211452 37.1997 2.0901 44.1422C3.96874 51.0847 7.94056 57.2799 13.4652 61.8849C18.9898 66.4899 25.799 69.2812 32.9663 69.8789C40.1336 70.4766 47.311 68.8518 53.5221 65.2254C59.7332 61.5991 64.6763 56.1474 67.6789 49.6119C70.6815 43.0765 71.5979 35.7747 70.3033 28.7C70.229 28.2962 70.0426 27.9214 69.7654 27.6185C69.4881 27.3157 69.1312 27.097 68.7355 26.9874C68.3398 26.8779 67.9212 26.8819 67.5277 26.9991C67.1341 27.1163 66.7815 27.3418 66.5102 27.65C65.3364 28.9871 63.7829 29.9345 62.0568 30.3661C60.3307 30.7976 58.5141 30.6927 56.8492 30.0653C55.1843 29.4379 53.7501 28.3179 52.7381 26.8546C51.726 25.3913 51.1841 23.6542 51.1846 21.875C51.184 21.3161 50.993 20.774 50.643 20.3382C50.2931 19.9024 49.8052 19.5988 49.2596 19.4775C47.7213 19.1312 46.3052 18.3756 45.1609 17.2907C44.0167 16.2057 43.1869 14.8318 42.7593 13.3141C42.3317 11.7964 42.3222 10.1913 42.7317 8.66863C43.1412 7.14594 43.9546 5.76221 45.0858 4.66375C45.3669 4.39086 45.5695 4.04751 45.6725 3.66957C45.7755 3.29163 45.7751 2.89296 45.6714 2.51521C45.5677 2.13746 45.3644 1.79449 45.0829 1.52213C44.8013 1.24977 44.4518 1.05801 44.0708 0.966879C41.3855 0.323083 38.6335 -0.00145373 35.8721 4.8949e-06ZM5.24708 35C5.24684 30.6564 6.17057 26.3624 7.95695 22.4032C9.74333 18.4439 12.3515 14.91 15.6083 12.0359C18.8651 9.16186 22.696 7.01348 26.8467 5.73339C30.9973 4.45329 35.3729 4.07078 39.6827 4.61125C38.7607 6.28592 38.2156 8.1418 38.0856 10.0491C37.9556 11.9564 38.2438 13.8691 38.9301 15.6533C39.6164 17.4376 40.6842 19.0505 42.0588 20.379C43.4334 21.7076 45.0817 22.7199 46.8883 23.345C47.1312 25.5066 47.9075 27.5739 49.1473 29.361C50.3872 31.1482 52.0518 32.5992 53.9915 33.5836C55.9312 34.568 58.0851 35.0548 60.2596 35.0004C62.4341 34.946 64.5609 34.352 66.4489 33.2719C66.6783 37.3589 66.086 41.4505 64.7071 45.3047C63.3281 49.1589 61.1904 52.6976 58.4204 55.7115C55.6504 58.7254 52.3043 61.1534 48.5799 62.852C44.8555 64.5506 40.8283 65.4853 36.7365 65.6008C32.6446 65.7163 28.5711 65.0104 24.7568 63.5247C20.9424 62.0389 17.4647 59.8036 14.529 56.9508C11.5934 54.098 9.25944 50.6856 7.66518 46.9153C6.07092 43.1451 5.24868 39.0935 5.24708 35Z" fill="#006FFD"/>
<path d="M21.4686 29.3436C20.6481 30.1641 19.5353 30.625 18.375 30.625C17.2147 30.625 16.1019 30.1641 15.2814 29.3436C14.4609 28.5231 14 27.4103 14 26.25C14 25.0897 14.4609 23.9769 15.2814 23.1564C16.1019 22.3359 17.2147 21.875 18.375 21.875C19.5353 21.875 20.6481 22.3359 21.4686 23.1564C22.2891 23.9769 22.75 25.0897 22.75 26.25C22.75 27.4103 22.2891 28.5231 21.4686 29.3436Z" fill="#23274D"/>
<path d="M38.9686 38.0936C38.1481 38.9141 37.0353 39.375 35.875 39.375C34.7147 39.375 33.6019 38.9141 32.7814 38.0936C31.9609 37.2731 31.5 36.1603 31.5 35C31.5 33.8397 31.9609 32.7269 32.7814 31.9064C33.6019 31.0859 34.7147 30.625 35.875 30.625C37.0353 30.625 38.1481 31.0859 38.9686 31.9064C39.7891 32.7269 40.25 33.8397 40.25 35C40.25 36.1603 39.7891 37.2731 38.9686 38.0936Z" fill="#23274D"/>
<path d="M47.7186 55.5936C48.539 54.7731 49 53.6603 49 52.5C49 51.3397 48.539 50.2269 47.7186 49.4064C46.8981 48.5859 45.7853 48.125 44.625 48.125C43.4647 48.125 42.3519 48.5859 41.5314 49.4064C40.7109 50.2269 40.25 51.3397 40.25 52.5C40.25 53.6603 40.7109 54.7731 41.5314 55.5936C42.3519 56.414 43.4647 56.875 44.625 56.875C45.7853 56.875 46.8981 56.414 47.7186 55.5936Z" fill="#23274D"/>
<path d="M25.8436 51.2186C25.0231 52.0391 23.9103 52.5 22.75 52.5C21.5897 52.5 20.4769 52.0391 19.6564 51.2186C18.8359 50.3981 18.375 49.2853 18.375 48.125C18.375 46.9647 18.8359 45.8519 19.6564 45.0314C20.4769 44.2109 21.5897 43.75 22.75 43.75C23.9103 43.75 25.0231 44.2109 25.8436 45.0314C26.6641 45.8519 27.125 46.9647 27.125 48.125C27.125 49.2853 26.6641 50.3981 25.8436 51.2186Z" fill="#23274D"/>
</svg>