<svg width="406" height="297" viewBox="0 0 406 297" fill="none" xmlns="http://www.w3.org/2000/svg">
<rect width="406" height="297" rx="12" fill="#EAF2FF"/>
<path d="M201.148 74.7481L202.645 245.324H112.868L111.745 75.1222L201.148 74.7481Z" fill="white"/>
<path d="M112.869 246.26H202.646C202.833 246.26 203.207 246.073 203.207 246.073C203.394 245.885 203.395 245.698 203.395 245.511L202.085 74.9352C202.085 74.3741 201.711 74 201.15 74L111.747 74.3741C111.56 74.3741 111.186 74.5611 111.186 74.5611C110.999 74.7481 110.999 74.9352 110.999 75.1222L112.121 245.137C111.934 245.885 112.308 246.26 112.869 246.26ZM201.711 244.389H113.805L112.682 76.0574L200.215 75.6833L201.711 244.389Z" fill="#636464"/>
<path d="M166.919 129.362C172.53 129.362 179.076 129.175 184.688 128.988C184.688 123.377 184.688 117.205 184.688 111.22C178.889 110.846 173.091 110.846 166.919 111.22C166.545 117.205 166.732 123.003 166.919 129.362Z" fill="#006FFD"/>
<path d="M166.921 130.297C169.727 130.297 172.719 130.297 175.712 130.11C178.704 130.11 181.697 129.923 184.502 129.923C185.063 129.923 185.438 129.549 185.438 128.988V127.492C185.438 122.255 185.438 116.644 185.438 111.22C185.438 110.659 185.063 110.285 184.502 110.285C178.704 109.911 172.906 109.911 166.547 110.285C165.986 110.285 165.612 110.659 165.612 111.22C165.425 116.831 165.612 122.629 165.799 129.362C165.986 129.923 166.36 130.297 166.921 130.297ZM183.754 128.24C181.136 128.24 178.517 128.24 175.712 128.427C173.093 128.427 170.288 128.614 167.856 128.614C167.669 122.629 167.669 117.392 167.669 112.342C173.28 112.155 178.517 112.155 183.754 112.342C183.754 117.392 183.754 122.629 183.754 127.679V128.24Z" fill="#636464"/>
<path d="M129.884 129.362C135.495 129.362 142.041 129.175 147.652 128.988C147.652 123.377 147.652 117.205 147.652 111.22C141.854 110.846 136.056 110.846 129.884 111.22C129.51 117.205 129.697 123.003 129.884 129.362Z" fill="#006FFD"/>
<path d="M129.886 130.297C132.691 130.297 135.684 130.297 138.676 130.11C141.669 130.11 144.662 129.923 147.467 129.923C148.028 129.923 148.402 129.549 148.402 128.988V127.492C148.402 122.255 148.402 116.644 148.402 111.22C148.402 110.659 148.028 110.285 147.467 110.285C141.669 109.911 135.871 109.911 129.512 110.285C128.951 110.285 128.577 110.659 128.577 111.22C128.39 116.831 128.577 122.629 128.764 129.362C128.951 129.923 129.325 130.297 129.886 130.297ZM146.719 128.24C144.1 128.24 141.482 128.24 138.676 128.427C136.058 128.427 133.252 128.614 130.821 128.614C130.634 122.629 130.634 117.392 130.634 112.342C136.245 112.155 141.482 112.155 146.719 112.342C146.719 117.392 146.719 122.629 146.719 127.679V128.24Z" fill="#636464"/>
<path d="M167.482 167.331C173.093 167.331 179.639 167.144 185.25 166.957C185.25 161.346 185.25 155.174 185.25 149.188C179.452 148.814 173.654 148.814 167.482 149.188C167.108 155.174 167.108 160.972 167.482 167.331Z" fill="#006FFD"/>
<path d="M167.484 168.266C170.289 168.266 173.282 168.266 176.274 168.079C179.267 168.079 182.259 167.892 185.065 167.892C185.626 167.892 186 167.518 186 166.957V165.46C186 160.223 186 154.612 186 149.188C186 148.627 185.626 148.253 185.065 148.253C179.267 147.879 173.469 147.879 167.109 148.253C166.548 148.253 166.174 148.627 166.174 149.188C165.987 154.799 166.174 160.598 166.361 167.331C166.548 167.892 166.922 168.266 167.484 168.266ZM184.13 166.209C181.511 166.209 178.893 166.209 176.087 166.396C173.469 166.396 170.663 166.583 168.232 166.583C168.045 160.597 168.045 155.361 168.045 150.311C173.656 150.124 178.893 150.124 184.13 150.311C184.13 155.361 184.13 160.597 184.13 165.647V166.209Z" fill="#636464"/>
<path d="M130.443 167.331C136.054 167.331 142.6 167.144 148.211 166.957C148.211 161.346 148.211 155.174 148.211 149.188C142.413 148.814 136.615 148.814 130.443 149.188C130.069 155.174 130.069 160.972 130.443 167.331Z" fill="#006FFD"/>
<path d="M130.445 168.266C133.25 168.266 136.243 168.266 139.235 168.079C142.228 168.079 145.22 167.892 148.026 167.892C148.587 167.892 148.961 167.518 148.961 166.957V165.46C148.961 160.223 148.961 154.612 148.961 149.188C148.961 148.627 148.587 148.253 148.026 148.253C142.228 147.879 136.43 147.879 130.07 148.253C129.509 148.253 129.135 148.627 129.135 149.188C128.948 154.799 129.135 160.598 129.322 167.331C129.509 167.892 129.883 168.266 130.445 168.266ZM147.091 166.209C144.472 166.209 141.854 166.209 139.048 166.396C136.43 166.396 133.624 166.583 131.193 166.583C131.006 160.597 131.006 155.361 131.006 150.311C136.617 150.124 141.854 150.124 147.091 150.311C147.091 155.361 147.091 160.597 147.091 165.647V166.209Z" fill="#636464"/>
<path d="M167.482 205.486C173.093 205.486 179.639 205.299 185.25 205.112C185.25 199.501 185.25 193.329 185.25 187.343C179.452 186.969 173.654 186.969 167.482 187.343C167.108 193.142 167.108 198.94 167.482 205.486Z" fill="#006FFD"/>
<path d="M167.484 206.421C170.289 206.421 173.282 206.421 176.274 206.234C179.267 206.234 182.259 206.047 185.065 206.047C185.626 206.047 186 205.673 186 205.112V203.616C186 198.379 186 192.768 186 187.344C186 186.782 185.626 186.408 185.065 186.408C179.267 186.034 173.469 186.034 167.109 186.408C166.548 186.408 166.174 186.782 166.174 187.344C165.987 192.955 166.174 198.753 166.361 205.486C166.548 205.86 166.922 206.421 167.484 206.421ZM184.13 204.177C181.511 204.177 178.893 204.177 176.087 204.364C173.469 204.364 170.663 204.551 168.232 204.551C168.045 198.566 168.045 193.329 168.045 188.279C173.656 188.092 178.893 188.092 184.13 188.279C184.13 193.329 184.13 198.566 184.13 203.616V204.177Z" fill="#636464"/>
<path d="M130.443 205.486C136.054 205.486 142.6 205.299 148.211 205.112C148.211 199.501 148.211 193.329 148.211 187.343C142.413 186.969 136.615 186.969 130.443 187.343C130.069 193.142 130.069 198.94 130.443 205.486Z" fill="#006FFD"/>
<path d="M130.445 206.421C133.25 206.421 136.243 206.421 139.235 206.234C142.228 206.234 145.22 206.047 148.026 206.047C148.587 206.047 148.961 205.673 148.961 205.112V203.616C148.961 198.379 148.961 192.768 148.961 187.344C148.961 186.782 148.587 186.408 148.026 186.408C142.228 186.034 136.43 186.034 130.07 186.408C129.509 186.408 129.135 186.782 129.135 187.344C128.948 192.955 129.135 198.753 129.322 205.486C129.509 205.86 129.883 206.421 130.445 206.421ZM147.091 204.177C144.472 204.177 141.854 204.177 139.048 204.364C136.43 204.364 133.624 204.551 131.193 204.551C131.006 198.566 131.006 193.329 131.006 188.279C136.617 188.092 141.854 188.092 147.091 188.279C147.091 193.329 147.091 198.566 147.091 203.616V204.177Z" fill="#636464"/>
<path d="M112.496 85.4091C142.422 84.474 172.348 84.2869 201.338 84.8481C201.899 84.8481 202.273 84.474 202.273 83.9129C202.273 83.3518 201.899 82.9777 201.338 82.9777C172.348 82.2296 142.422 82.4166 112.496 83.5388C111.935 83.5388 111.561 83.9129 111.561 84.474C111.561 85.0351 111.935 85.4091 112.496 85.4091Z" fill="#636464"/>
<path d="M167.484 117.766L184.317 117.579C184.504 117.579 184.691 117.392 184.691 117.205C184.691 117.018 184.504 116.831 184.317 116.831L167.484 117.018C167.297 117.018 167.11 117.205 167.11 117.392C167.11 117.579 167.297 117.766 167.484 117.766Z" fill="#EDEFF1"/>
<path d="M129.889 117.766C134.004 117.579 138.679 117.579 143.355 117.579C144.852 117.579 146.161 117.579 147.657 117.579C147.844 117.579 148.031 117.392 148.031 117.205C148.031 117.018 147.844 116.831 147.657 116.831C146.348 116.831 144.852 116.831 143.355 116.831C138.679 116.831 133.817 116.831 129.702 117.018C129.515 117.018 129.328 117.205 129.328 117.392C129.515 117.579 129.702 117.766 129.889 117.766Z" fill="#EDEFF1"/>
<path d="M167.858 154.986C170.29 154.986 173.095 154.986 175.901 154.986C178.706 154.986 181.699 154.986 184.317 154.986C184.504 154.986 184.691 154.799 184.691 154.612C184.691 154.425 184.504 154.425 184.317 154.238C181.699 154.425 178.893 154.238 175.901 154.238C173.095 154.238 170.103 154.238 167.671 154.238C167.484 154.238 167.297 154.425 167.297 154.612C167.671 154.986 167.671 154.986 167.858 154.986Z" fill="#EDEFF1"/>
<path d="M130.453 154.986C134.381 154.799 140.74 154.799 147.474 154.799C147.661 154.799 147.848 154.612 147.848 154.425C147.848 154.238 147.661 154.051 147.474 154.051C140.553 154.051 134.381 154.051 130.453 154.238C130.266 154.238 130.079 154.425 130.079 154.612C130.266 154.799 130.453 154.986 130.453 154.986Z" fill="#EDEFF1"/>
<path d="M175.524 192.767C178.704 192.767 181.883 192.767 184.876 192.58C185.063 192.58 185.25 192.393 185.25 192.206C185.25 192.019 185.063 192.019 184.876 191.832C180.574 192.019 176.085 192.019 171.783 192.019C170.474 192.019 169.352 192.019 168.043 192.019C167.856 192.019 167.669 192.206 167.669 192.393C167.669 192.58 167.856 192.767 168.043 192.767C169.352 192.767 170.474 192.767 171.783 192.767C173.093 192.767 174.402 192.767 175.524 192.767Z" fill="#EDEFF1"/>
<path d="M147.657 192.58C147.844 192.58 148.031 192.393 148.031 192.206C148.031 192.019 147.844 191.832 147.657 191.832C142.046 191.645 136.248 191.645 130.45 191.645C130.263 191.645 130.076 191.832 130.076 192.019C130.076 192.206 130.263 192.393 130.45 192.393C136.248 192.393 142.046 192.393 147.657 192.58Z" fill="#EDEFF1"/>
<g opacity="0.1294">
<path d="M113.615 84.287C114.363 84.287 114.924 84.287 115.672 84.287C118.103 84.287 120.722 84.2869 123.153 84.0999C129.325 83.7258 142.792 83.3518 151.583 83.7258C158.316 83.3518 165.049 83.3518 171.782 83.1647C177.207 83.1647 182.631 83.3518 188.055 83.3518C191.982 83.3518 195.91 83.3518 199.651 83.7258C203.017 83.7258 203.017 89.1499 199.651 89.3369C194.601 88.5888 189.551 88.7758 184.501 88.7758C176.084 88.7758 167.855 88.7758 159.438 88.9628C150.648 89.3369 141.857 89.3369 133.066 89.3369C130.635 89.3369 128.203 89.711 125.772 89.524C122.779 89.524 123.153 89.524 120.535 89.524C118.29 89.711 116.046 89.711 113.989 89.524C114.176 89.524 114.363 89.5239 114.55 89.711C112.866 89.898 111.183 89.1499 111.183 87.0925C111.183 85.5962 112.305 84.287 113.615 84.287Z" fill="#636464"/>
</g>
<path d="M99.0186 224.691C102.032 227.294 103.95 226.746 107.375 224.554C110.8 222.362 112.444 217.979 110.937 214.417C118.335 216.061 125.732 210.033 127.65 203.32C129.02 198.526 127.376 192.224 122.033 191.128C126.554 187.429 127.513 180.443 123.951 175.922C120.389 171.401 112.992 170.031 107.649 172.771C108.471 166.88 105.868 160.853 100.937 157.154C99.1556 155.784 96.9638 154.688 94.6349 154.551C89.8401 154.414 85.7303 158.524 84.7714 162.908C83.8124 167.291 85.0454 171.675 86.4153 176.059C83.2645 173.593 77.6478 174.689 75.4559 177.977C73.264 181.265 74.2229 185.922 77.3738 188.525C72.442 191.128 69.4282 196.334 69.7022 201.403C69.9762 206.471 73.538 211.266 78.7437 213.321C80.1136 213.869 81.8946 214.417 82.3055 215.787C82.5795 216.609 81.2095 222.636 89.4291 226.746C92.032 228.116 95.5938 227.02 99.0186 224.691Z" fill="white"/>
<path d="M91.8942 228.116C94.3601 228.116 96.9629 226.883 99.0178 225.65C102.032 228.116 104.224 227.431 107.785 225.239C111.21 223.184 112.854 219.075 112.032 215.376C112.58 215.376 112.991 215.513 113.539 215.513C120.389 215.513 126.69 209.759 128.334 203.594C129.293 200.444 128.882 196.745 127.238 194.142C126.279 192.635 125.046 191.402 123.403 190.854C127.375 186.744 128.06 180.032 124.498 175.648C121.074 171.264 113.95 169.62 108.47 171.812C108.881 166.195 106.141 160.305 101.484 156.743C99.2918 155.099 96.9629 154.14 94.7711 154.003C89.4283 153.866 85.1815 158.387 84.2226 162.908C83.2637 166.88 84.2226 170.99 85.3185 174.689C83.9486 174.141 82.4417 174.004 80.7978 174.141C78.3319 174.552 76.14 175.785 74.9071 177.566C72.7152 180.854 73.2632 185.374 76.277 188.251C71.6193 191.128 68.7425 196.197 69.0164 201.403C69.2904 206.745 73.1262 211.814 78.4689 214.006L78.8799 214.143C80.1129 214.554 81.3458 215.102 81.6198 216.061C81.6198 216.061 81.6198 216.335 81.6198 216.472C81.6198 218.39 81.6197 223.732 89.0173 227.294C89.9763 227.842 90.9353 228.116 91.8942 228.116ZM99.0178 224.006C98.8808 224.006 98.7438 224.006 98.6068 224.143C94.908 226.472 91.7572 227.294 89.5653 226.198C82.8527 222.91 82.8527 218.253 82.8527 216.472C82.8527 216.061 82.8527 215.787 82.7157 215.65C82.1677 214.143 80.6608 213.458 79.1539 212.91L78.7429 212.773C73.8112 210.855 70.3864 206.197 70.1124 201.403C69.8384 196.471 72.8523 191.539 77.51 189.073C77.647 188.936 77.784 188.799 77.921 188.525C77.921 188.251 77.784 188.114 77.647 187.977C74.6331 185.511 73.8112 181.265 75.8661 178.388C76.825 176.881 78.7429 175.785 80.7978 175.511C82.7157 175.237 84.6336 175.648 85.8665 176.607C86.1405 176.744 86.4145 176.744 86.6884 176.607C86.9624 176.47 87.0994 176.196 86.9625 175.922C85.7295 171.949 84.3596 167.428 85.3185 163.182C86.1405 159.209 89.7023 155.373 94.223 155.373C94.36 155.373 94.3601 155.373 94.4971 155.373C96.4149 155.51 98.4699 156.195 100.525 157.839C105.183 161.401 107.785 167.291 106.963 172.908C106.963 173.182 107.1 173.456 107.237 173.593C107.511 173.73 107.648 173.73 107.922 173.593C112.991 170.99 119.978 172.223 123.403 176.47C126.69 180.717 125.868 187.155 121.622 190.717C121.485 190.854 121.348 191.128 121.348 191.402C121.348 191.676 121.622 191.813 121.896 191.95C123.676 192.361 125.046 193.32 126.005 194.964C127.375 197.293 127.786 200.444 126.964 203.32C125.183 209.622 118.197 215.513 111.073 214.006C110.799 214.006 110.525 214.006 110.388 214.28C110.251 214.417 110.251 214.691 110.251 214.965C111.621 218.253 110.114 222.225 106.963 224.28C103.539 226.472 102.032 226.746 99.4288 224.417C99.2918 224.143 99.1548 224.006 99.0178 224.006Z" fill="#A3AEBB"/>
<path d="M99.1533 246.199C99.5643 246.199 99.8383 245.925 99.8383 245.514C100.249 222.636 100.66 198.937 97.7834 175.785C97.7834 175.374 97.3724 175.1 97.0984 175.237C96.6875 175.237 96.4134 175.648 96.5504 175.922C99.4273 198.937 99.0163 222.636 98.6053 245.514C98.4683 245.925 98.7424 246.199 99.1533 246.199Z" fill="#A3AEBB"/>
<path d="M98.0582 188.662C98.1952 188.662 98.3321 188.662 98.4691 188.525C98.7431 188.388 98.8801 187.977 98.7431 187.566C97.2362 185.237 95.5923 183.046 93.6744 181.128C93.4004 180.854 92.9894 180.854 92.7154 181.128C92.4414 181.402 92.4414 181.813 92.7154 182.087C94.6333 184.005 96.2772 186.059 97.6471 188.388C97.6471 188.525 97.9212 188.662 98.0582 188.662Z" fill="#A3AEBB"/>
<path d="M99.2933 208.663C99.5673 208.663 99.8413 208.526 99.9783 208.252C102.992 200.854 106.006 194.005 111.623 187.977C111.897 187.703 111.897 187.292 111.623 187.018C111.349 186.744 110.938 186.744 110.664 187.018C104.773 193.32 101.896 200.306 98.7454 207.704C98.6084 207.978 98.7454 208.389 99.1563 208.526C99.1563 208.663 99.2933 208.663 99.2933 208.663Z" fill="#A3AEBB"/>
<path d="M104.63 197.293C104.767 197.293 104.904 197.293 104.904 197.156C107.37 195.786 110.11 194.827 112.85 194.553C113.261 194.553 113.535 194.142 113.398 193.868C113.398 193.457 112.987 193.183 112.713 193.32C109.699 193.594 106.822 194.69 104.22 196.197C103.946 196.334 103.809 196.745 103.946 197.156C104.219 197.156 104.356 197.293 104.63 197.293Z" fill="#A3AEBB"/>
<path d="M99.0169 219.074C99.1539 219.074 99.1539 219.074 99.2909 219.074C99.5649 218.937 99.8388 218.526 99.7018 218.252C96.277 210.307 91.0713 203.183 84.6326 197.429C84.3587 197.155 83.9477 197.155 83.6738 197.429C83.3998 197.703 83.3998 198.114 83.6738 198.388C89.9754 204.005 95.0441 210.992 98.3319 218.663C98.4689 218.8 98.7429 219.074 99.0169 219.074Z" fill="#A3AEBB"/>
<g opacity="0.1294">
<path d="M82.304 215.101C82.852 214.143 84.2219 214.417 84.4959 215.375C84.7699 217.156 85.0438 218.252 85.5918 219.348C86.8247 221.266 87.7837 222.636 88.7426 223.184C89.7016 223.732 89.1536 223.458 90.2496 223.732C90.3866 223.732 90.3866 223.732 90.5236 223.732C91.7565 223.869 92.9894 224.006 94.2223 223.869C94.3593 223.869 94.3593 223.869 94.4963 223.869C95.3183 223.732 96.1402 223.595 96.9622 223.184C96.9622 223.184 96.9622 223.184 97.0992 223.184C97.6472 222.91 98.1951 222.499 98.8801 222.362C99.8391 222.225 101.209 222.362 101.62 223.321C101.757 223.184 101.894 223.184 102.031 223.047C103.127 222.499 102.579 223.047 103.812 222.499C105.456 221.677 106.004 221.266 106.963 220.581C108.607 218.937 108.881 218.115 109.018 216.608C109.155 215.649 108.881 214.691 109.155 213.732C109.566 212.636 110.798 212.362 111.62 212.91C111.894 212.636 112.168 212.362 112.579 212.225C112.579 212.225 112.579 212.225 112.716 212.225C113.675 212.088 114.634 212.225 115.593 212.088C116.415 212.088 117.922 211.814 118.607 211.403C120.388 210.444 121.621 209.485 121.758 209.211C122.717 208.389 123.676 207.704 124.498 206.608C124.909 206.06 125.457 205.375 126.142 205.375C127.238 205.375 127.786 206.745 126.964 207.43C126.279 208.115 126.279 208.252 125.457 209.348C124.772 210.17 123.95 210.992 123.265 211.677C122.032 212.636 120.799 213.732 119.292 214.417C118.333 214.964 117.1 215.101 116.004 215.238C115.456 215.375 114.908 215.238 114.36 215.375C113.675 215.512 112.99 215.512 112.442 215.375C112.442 219.211 111.209 221.951 107.785 224.28C106.415 225.239 102.99 227.294 101.62 225.787C101.346 225.513 101.209 225.239 101.209 224.965C100.798 225.239 100.25 225.513 99.702 225.239C99.565 225.239 99.5651 225.102 99.4281 225.102C99.1541 225.239 98.4691 225.65 98.1951 225.787C96.0033 226.883 93.5374 227.02 91.3455 226.472C89.7016 226.198 88.1947 225.924 86.9617 224.828C86.1398 224.143 85.5918 223.321 84.9068 222.499C84.0849 221.403 83.4 220.033 82.989 218.663C82.715 217.978 82.7149 217.156 82.5779 216.471C82.167 216.197 82.03 215.649 82.304 215.101Z" fill="#A3AEBB"/>
</g>
<path d="M203.151 243.424C240.565 243.424 279.689 244.078 317.102 243.642C317.102 205.524 317.53 166.316 319.668 123.841C285.461 122.97 243.13 122.534 200.371 122.098C202.723 164.573 205.075 215.326 203.151 243.424Z" fill="#FAFBFF"/>
<path d="M296.58 244.731C303.421 244.731 310.262 244.731 317.104 244.731C317.745 244.731 318.173 244.296 318.173 243.642C318.173 209.88 318.387 169.148 320.738 123.841C320.738 123.623 320.738 123.188 320.525 122.97C320.311 122.752 320.097 122.534 319.883 122.534C287.814 121.663 249.545 121.445 208.925 121.009H200.587C200.373 121.009 199.945 121.227 199.731 121.445C199.518 121.663 199.518 121.881 199.518 122.316C201.656 163.702 204.221 215.108 202.083 243.424C202.083 243.642 202.083 244.078 202.297 244.296C202.511 244.514 202.725 244.514 203.152 244.731C219.187 244.731 235.649 244.731 251.897 244.949C266.435 244.731 281.614 244.731 296.58 244.731ZM316.035 242.553C294.869 242.771 273.062 242.553 251.683 242.335C236.076 242.335 219.828 242.118 204.221 242.118C206.145 213.801 203.58 163.702 201.656 122.97H208.925C249.118 123.405 286.959 123.623 318.814 124.494C316.462 169.366 316.035 209.227 316.035 242.553Z" fill="#23274D"/>
<path d="M182.411 131.247C236.929 131.247 285.887 132.118 335.273 132.118C311.329 105.98 285.46 76.5742 261.087 50.6536C235.646 76.1386 211.06 105.762 182.411 131.247Z" fill="#FAFBFF"/>
<path d="M335.275 133.425C335.703 133.425 336.13 133.207 336.13 132.772C336.344 132.336 336.13 131.901 335.916 131.683C326.937 121.881 317.53 111.425 308.337 101.188C292.944 83.98 276.91 66.3365 261.73 50.2178C261.516 50 261.303 50 261.089 50C260.875 50 260.447 50 260.447 50.2178C250.613 60.0197 240.992 70.2573 230.944 81.1483C215.337 97.9205 199.303 115.128 181.985 130.811C181.558 131.029 181.558 131.465 181.772 131.9C181.985 132.336 182.413 132.554 182.841 132.554C210.847 132.554 237.358 132.772 263.013 132.99C287.599 133.207 311.33 133.425 335.275 133.425ZM261.089 52.396C276.268 68.2969 291.875 85.7225 307.054 102.495C315.606 112.079 324.585 121.881 332.923 131.247C309.62 131.247 286.958 131.029 262.799 130.811C237.999 130.594 212.344 130.376 185.406 130.376C202.082 115.346 217.475 98.574 232.441 82.4552C242.275 71.782 251.468 61.9801 261.089 52.396Z" fill="#23274D"/>
<path d="M240.991 202.474C253.391 202.474 265.791 202.256 278.191 202.256C279.473 189.405 280.115 176.771 279.901 163.92C267.073 163.267 254.246 163.267 240.563 163.92C240.349 176.554 240.349 188.752 240.991 202.474Z" fill="#B8D4F7"/>
<path d="M240.989 203.563L278.189 203.346C278.616 203.346 279.258 202.91 279.258 202.474C280.754 187.88 281.182 175.682 280.968 164.138C280.968 163.484 280.54 163.049 279.899 163.049C267.071 162.395 254.244 162.395 240.561 163.049C239.92 163.049 239.492 163.484 239.492 164.138C239.278 176.336 239.492 188.534 239.92 202.692C239.92 203.128 240.347 203.563 240.989 203.563ZM277.12 201.167L242.058 201.385C241.63 188.098 241.416 176.554 241.63 165.009C254.671 164.356 266.858 164.356 278.83 165.009C278.83 175.9 278.402 187.445 277.12 201.167Z" fill="#23274D"/>
<path d="M254.034 97.2672C258.31 94.4355 264.724 95.7425 267.717 100.099C270.71 104.455 269.427 111.208 265.365 114.257C261.303 117.307 254.676 116.218 251.683 112.079C248.476 107.723 248.903 100.752 254.034 97.2672Z" fill="#EAF2FF"/>
<path d="M259.595 117.089C261.733 117.089 264.084 116.435 265.795 115.128C270.498 111.643 271.781 104.455 268.36 99.4453C265.153 94.6532 258.098 93.1285 253.395 96.3958C250.829 98.1383 249.333 100.752 248.691 103.802C248.05 106.851 248.905 110.336 250.616 112.732C252.753 115.564 256.174 117.089 259.595 117.089ZM259.167 96.8314C262.16 96.8314 265.153 98.1383 266.65 100.752C269.216 104.673 268.147 110.772 264.512 113.386C260.878 116.217 254.891 115.128 252.326 111.425C250.829 109.465 250.402 106.851 250.829 104.237C251.257 101.623 252.54 99.6631 254.678 98.1383C255.96 97.2671 257.671 96.8314 259.167 96.8314Z" fill="#23274D"/>
<path d="M279.045 176.554C279.259 176.554 279.473 176.336 279.473 176.118C279.473 175.9 279.259 175.682 279.045 175.682C266.431 175.465 253.604 175.247 240.776 175.029C240.562 175.029 240.349 175.247 240.349 175.465C240.349 175.682 240.562 175.9 240.776 175.9C253.39 175.9 266.217 176.118 279.045 176.554Z" fill="#23274D"/>
<path d="M260.233 202.256C260.446 202.256 260.66 202.039 260.66 201.821L260.019 175.9C260.019 175.682 259.805 175.464 259.591 175.464C259.377 175.464 259.164 175.682 259.164 175.9L259.805 201.821C260.019 202.039 260.019 202.256 260.233 202.256Z" fill="#23274D"/>
<path d="M258.521 116.871C258.735 116.871 258.949 116.653 258.949 116.435C259.163 109.901 259.804 103.148 260.445 96.6136C260.445 96.3958 260.232 96.178 260.232 96.178C260.018 96.178 259.804 96.3958 259.804 96.3958C259.163 102.93 258.521 109.683 258.307 116.435C258.307 116.653 258.307 116.871 258.521 116.871Z" fill="#23274D"/>
<path d="M268.783 106.416C268.997 106.416 269.211 106.198 269.211 105.98C269.211 105.762 268.997 105.544 268.783 105.544L249.542 104.237C249.328 104.237 249.114 104.455 249.114 104.673C249.114 104.891 249.328 105.109 249.542 105.109L268.783 106.416Z" fill="#23274D"/>
<path d="M311.544 158.91C311.758 158.91 311.972 158.692 311.972 158.475L312.613 138.871C312.613 138.653 312.399 138.435 312.186 138.435C311.972 138.435 311.758 138.653 311.758 138.871L311.117 158.475C311.117 158.692 311.331 158.91 311.544 158.91Z" fill="#23274D"/>
<path d="M306.41 146.494C306.624 146.494 306.838 146.277 306.838 146.059L307.266 137.999C307.266 137.782 307.052 137.564 306.838 137.564C306.624 137.564 306.41 137.782 306.41 137.999L305.983 146.059C306.197 146.494 306.197 146.494 306.41 146.494Z" fill="#23274D"/>
<path d="M315.818 236.237C316.459 236.237 316.887 235.801 316.887 235.148C316.887 234.494 316.459 234.058 315.818 234.058L204.218 232.751C203.576 232.751 203.149 233.187 203.149 233.841C203.149 234.494 203.576 234.93 204.218 234.93L315.818 236.237Z" fill="#23274D"/>
<g opacity="0.1294">
<path d="M200.588 135.603C200.801 135.168 201.015 134.732 201.229 134.514C201.229 132.99 202.298 131.465 204.008 131.465C207.857 131.9 211.919 131.465 215.767 131.683C219.615 131.683 223.677 132.118 227.526 132.554C228.381 132.554 229.236 132.554 230.091 132.99C231.16 132.99 232.015 132.99 233.084 132.99C239.498 133.207 245.698 132.99 252.112 132.99C261.733 132.99 271.353 133.207 280.974 133.207C286.533 133.207 292.091 132.772 297.65 132.99C303.85 132.99 309.836 133.861 316.036 133.207C320.098 132.772 320.526 139.089 316.463 139.306C309.408 139.96 302.567 139.089 295.512 139.089C280.76 139.742 266.008 139.306 251.257 139.089C245.057 139.089 238.857 139.306 232.657 139.306C224.105 139.742 215.553 140.178 206.788 139.96C206.36 139.96 205.933 139.96 205.719 139.96C205.505 139.96 205.291 139.96 205.077 139.96C204.222 140.178 203.581 139.96 202.726 139.96C201.229 138.871 200.16 137.128 200.588 135.603Z" fill="#23274D"/>
</g>
</svg>