<svg width="585" height="394" viewBox="0 0 585 394" fill="none" xmlns="http://www.w3.org/2000/svg">
<g opacity="0.4" filter="url(#filter0_f_487_4162)">
<ellipse cx="349.426" cy="363.778" rx="211.436" ry="2.33631" fill="black"/>
<path d="M139.046 363.778C139.066 363.776 139.086 363.773 139.106 363.771C139.822 363.693 140.89 363.616 142.298 363.54C145.111 363.388 149.262 363.242 154.611 363.102C165.309 362.822 180.789 362.571 199.92 362.359C238.182 361.937 291.04 361.675 349.426 361.675C407.811 361.675 460.669 361.937 498.931 362.359C518.062 362.571 533.542 362.822 544.24 363.102C549.589 363.242 553.74 363.388 556.553 363.54C557.961 363.616 559.029 363.693 559.745 363.771C559.765 363.773 559.785 363.776 559.805 363.778C559.785 363.78 559.765 363.782 559.745 363.784C559.029 363.862 557.961 363.939 556.553 364.015C553.74 364.167 549.589 364.314 544.24 364.454C533.542 364.733 518.062 364.985 498.931 365.196C460.669 365.619 407.811 365.88 349.426 365.88C291.04 365.88 238.182 365.619 199.92 365.196C180.789 364.985 165.309 364.733 154.611 364.454C149.262 364.314 145.111 364.167 142.298 364.015C140.89 363.939 139.822 363.862 139.106 363.784C139.086 363.782 139.066 363.78 139.046 363.778Z" stroke="#EDEFF1" stroke-width="0.467262"/>
</g>
<path d="M159.951 108.653C159.951 101.685 165.599 96.0368 172.567 96.0368H527.686C534.654 96.0368 540.302 101.685 540.302 108.653V352.564C540.302 353.338 539.674 353.965 538.9 353.965H161.353C160.579 353.965 159.951 353.338 159.951 352.564V108.653Z" fill="#E2E8F0" stroke="#EDEFF1" stroke-width="0.934524"/>
<path d="M162.755 108.186C162.755 103.025 166.939 98.8405 172.1 98.8405H528.153C533.315 98.8405 537.499 103.025 537.499 108.186V343.686H162.755V108.186Z" fill="#E2E8F0" stroke="#EDEFF1" stroke-width="1.86905"/>
<rect x="172.567" y="111.924" width="353.717" height="221.482" fill="white" stroke="#EDEFF1" stroke-width="1.86905"/>
<path d="M113.926 353.498C113.926 353.111 114.239 352.797 114.626 352.797H583.757C584.144 352.797 584.458 353.111 584.458 353.498V355.134H113.926V353.498Z" fill="#E2E8F0"/>
<path d="M113.926 353.498C113.926 353.111 114.239 352.797 114.626 352.797H583.757C584.144 352.797 584.458 353.111 584.458 353.498V355.134H113.926V353.498Z" fill="url(#paint0_linear_487_4162)"/>
<path d="M113.926 353.498C113.926 353.111 114.239 352.797 114.626 352.797H583.757C584.144 352.797 584.458 353.111 584.458 353.498V355.134H113.926V353.498Z" stroke="#EDEFF1" stroke-width="0.467262"/>
<path d="M118.946 356.296L115.82 355.601H582.352L575.135 357.057C562.986 359.507 550.624 360.741 538.23 360.741H159.441C145.821 360.741 132.242 359.25 118.946 356.296Z" fill="#E2E8F0"/>
<path d="M118.946 356.296L115.82 355.601H582.352L575.135 357.057C562.986 359.507 550.624 360.741 538.23 360.741H159.441C145.821 360.741 132.242 359.25 118.946 356.296Z" fill="url(#paint1_linear_487_4162)"/>
<path d="M118.946 356.296L115.82 355.601H582.352L575.135 357.057C562.986 359.507 550.624 360.741 538.23 360.741H159.441C145.821 360.741 132.242 359.25 118.946 356.296Z" stroke="#EDEFF1" stroke-width="0.467262"/>
<path d="M317.418 355.134C316.497 355.134 315.904 355.056 315.524 354.928C315.155 354.803 315.008 354.64 314.938 354.466C314.859 354.268 314.86 354.019 314.878 353.674C314.879 353.645 314.881 353.615 314.883 353.585C314.895 353.349 314.91 353.081 314.89 352.797H383.96C383.941 353.081 383.955 353.349 383.968 353.585C383.97 353.615 383.971 353.645 383.973 353.674C383.991 354.019 383.992 354.268 383.913 354.466C383.843 354.64 383.696 354.803 383.327 354.928C382.947 355.056 382.354 355.134 381.433 355.134H317.418Z" fill="#E2E8F0"/>
<path d="M317.418 355.134C316.497 355.134 315.904 355.056 315.524 354.928C315.155 354.803 315.008 354.64 314.938 354.466C314.859 354.268 314.86 354.019 314.878 353.674C314.879 353.645 314.881 353.615 314.883 353.585C314.895 353.349 314.91 353.081 314.89 352.797H383.96C383.941 353.081 383.955 353.349 383.968 353.585C383.97 353.615 383.971 353.645 383.973 353.674C383.991 354.019 383.992 354.268 383.913 354.466C383.843 354.64 383.696 354.803 383.327 354.928C382.947 355.056 382.354 355.134 381.433 355.134H317.418Z" fill="url(#paint2_linear_487_4162)"/>
<path d="M317.418 355.134C316.497 355.134 315.904 355.056 315.524 354.928C315.155 354.803 315.008 354.64 314.938 354.466C314.859 354.268 314.86 354.019 314.878 353.674C314.879 353.645 314.881 353.615 314.883 353.585C314.895 353.349 314.91 353.081 314.89 352.797H383.96C383.941 353.081 383.955 353.349 383.968 353.585C383.97 353.615 383.971 353.645 383.973 353.674C383.991 354.019 383.992 354.268 383.913 354.466C383.843 354.64 383.696 354.803 383.327 354.928C382.947 355.056 382.354 355.134 381.433 355.134H317.418Z" stroke="#EDEFF1" stroke-width="0.467262"/>
<path fill-rule="evenodd" clip-rule="evenodd" d="M276.764 288.751C273.866 285.043 269.806 283.628 266.347 284.407C262.829 285.2 260.184 288.215 260.184 292.734C260.184 299.694 264.33 304.502 269.204 307.982C266.847 310.125 265.057 312.618 263.989 315.038C263.877 315.293 263.771 315.549 263.674 315.805H250.439C249.787 315.805 249.258 316.335 249.258 316.988C249.258 317.641 249.787 318.171 250.439 318.171H263.007C262.843 319.092 262.805 319.989 262.912 320.834C263.146 322.669 264.083 324.257 265.856 325.145C267.745 326.091 269.563 326.006 271.178 325.254C272.734 324.53 274.048 323.216 275.119 321.782C275.958 320.658 276.692 319.402 277.31 318.171H303.591C304.244 318.171 304.772 317.641 304.772 316.988C304.772 316.335 304.244 315.805 303.591 315.805H278.384C278.796 314.796 279.112 313.889 279.325 313.195C279.858 311.461 280.478 308.144 280.612 304.365C280.867 304.284 281.114 304.211 281.354 304.146C282.972 303.702 284.142 303.617 284.909 303.74C285.647 303.859 285.856 304.13 285.935 304.322C286.046 304.596 286.083 305.176 285.668 306.185C285.135 307.481 284.865 308.668 285.122 309.616C285.265 310.145 285.577 310.609 286.07 310.905C286.537 311.185 287.051 311.245 287.498 311.217C288.367 311.163 289.318 310.755 290.193 310.227C291.097 309.682 292.039 308.936 292.911 308.063C293.694 307.278 294.499 306.562 295.256 306.001C296.028 305.428 296.683 305.068 297.173 304.923C297.412 304.851 297.557 304.848 297.629 304.857C297.679 304.863 297.688 304.872 297.694 304.878C297.743 304.926 297.98 305.245 297.98 306.339C297.98 308.367 298.521 309.96 299.978 310.544C300.638 310.809 301.319 310.78 301.894 310.659C302.474 310.539 303.036 310.307 303.529 310.06C304.112 309.768 304.349 309.057 304.057 308.473C303.765 307.889 303.056 307.652 302.473 307.944C302.079 308.141 301.719 308.279 301.413 308.343C301.102 308.408 300.934 308.379 300.855 308.347C300.829 308.337 300.342 308.144 300.342 306.339C300.342 305.068 300.098 303.907 299.327 303.169C298.476 302.355 297.374 302.394 296.5 302.654C295.624 302.915 294.711 303.461 293.85 304.099C292.974 304.748 292.081 305.548 291.24 306.39C290.488 307.144 289.695 307.766 288.974 308.2C288.81 308.299 288.655 308.385 288.51 308.46C287.935 308.754 287.421 308.298 287.627 307.686C287.687 307.507 287.761 307.307 287.852 307.086C288.368 305.831 288.574 304.54 288.122 303.429C287.637 302.236 286.549 301.607 285.282 301.404C284.045 301.205 282.503 301.378 280.73 301.863C280.695 301.873 280.66 301.883 280.625 301.893C280.509 297.385 279.585 292.361 276.764 288.751ZM275.815 315.805C276.382 314.529 276.806 313.349 277.067 312.499C277.491 311.119 278.017 308.424 278.205 305.253C277.358 305.607 276.448 306.024 275.476 306.511C274.701 306.899 273.961 307.333 273.259 307.803C273.524 307.961 273.79 308.116 274.058 308.27C274.624 308.594 274.821 309.317 274.497 309.884C274.173 310.451 273.452 310.648 272.886 310.324C272.336 310.01 271.786 309.682 271.238 309.339C268.966 311.293 267.246 313.602 266.235 315.805H275.815ZM265.416 318.171C265.219 319.048 265.168 319.846 265.256 320.534C265.406 321.71 265.948 322.545 266.913 323.028C268.125 323.635 269.186 323.572 270.183 323.108C271.237 322.617 272.268 321.648 273.227 320.365C273.738 319.68 274.21 318.934 274.636 318.171H265.416ZM274.42 304.395C275.805 303.701 277.091 303.13 278.275 302.678C278.274 302.55 278.272 302.421 278.27 302.292C278.198 297.869 277.323 293.306 274.904 290.21C272.486 287.116 269.312 286.165 266.865 286.716C264.477 287.254 262.546 289.268 262.546 292.734C262.546 298.829 266.292 303.127 271.105 306.427C272.132 305.671 273.241 304.985 274.42 304.395Z" fill="#636464"/>
<rect x="224.692" y="135.004" width="164" height="11" rx="5.5" fill="#006FFD"/>
<rect x="220.444" y="161.26" width="289.101" height="6.72327" rx="3.36164" fill="#D1D6DD"/>
<rect x="210.839" y="181.43" width="267.97" height="6.72327" rx="3.36164" fill="#D1D6DD"/>
<rect x="220.444" y="201.6" width="289.101" height="6.72327" rx="3.36164" fill="#D1D6DD"/>
<rect x="210.839" y="221.77" width="254.524" height="6.72327" rx="3.36164" fill="#D1D6DD"/>
<rect x="216.602" y="246.742" width="171.924" height="6.72327" rx="3.36164" fill="#D1D6DD"/>
<rect x="210.839" y="266.912" width="289.101" height="6.72327" rx="3.36164" fill="#D1D6DD"/>
<rect x="239.692" y="176.004" width="260" height="17" fill="#E8178A" fill-opacity="0.24"/>
<rect x="210.692" y="239.004" width="216" height="20" fill="#F8C07F" fill-opacity="0.3"/>
<g filter="url(#filter1_d_487_4162)">
<rect x="62.6919" y="45.0042" width="177.213" height="229.045" rx="15.0573" fill="white"/>
<rect x="77.1699" y="155.039" width="64.8624" height="4.63303" rx="2.31652" fill="#D9D9D9"/>
<rect x="77.1699" y="89.8867" width="56.7546" height="2.02695" rx="1.01348" fill="#D9D9D9"/>
<rect x="77.1699" y="128.688" width="56.7546" height="2.02695" rx="1.01348" fill="#D9D9D9"/>
<rect x="77.1699" y="135.059" width="148.257" height="2.02695" rx="1.01348" fill="#D9D9D9"/>
<rect x="77.1699" y="166.621" width="56.7546" height="2.02695" rx="1.01348" fill="#D9D9D9"/>
<rect x="77.1699" y="175.598" width="94.9771" height="2.02695" rx="1.01348" fill="#D9D9D9"/>
<rect x="77.1699" y="184.574" width="94.9771" height="2.02695" rx="1.01348" fill="#D9D9D9"/>
<rect x="77.1699" y="95.3884" width="154.048" height="2.02695" rx="1.01348" fill="#D9D9D9"/>
<rect x="77.1699" y="100.89" width="154.048" height="2.02695" rx="1.01348" fill="#D9D9D9"/>
<rect x="77.1699" y="106.392" width="154.048" height="2.02695" rx="1.01348" fill="#D9D9D9"/>
<rect x="77.1699" y="111.894" width="124.513" height="2.02695" rx="1.01348" fill="#D9D9D9"/>
<path d="M87.1941 69.2381H85.1102C85.0508 68.8963 84.9412 68.5936 84.7815 68.3299C84.6218 68.0624 84.4231 67.8358 84.1853 67.6501C83.9476 67.4644 83.6764 67.3251 83.3718 67.2322C83.071 67.1356 82.7459 67.0874 82.3968 67.0874C81.7765 67.0874 81.2267 67.2434 80.7475 67.5554C80.2684 67.8637 79.8932 68.3169 79.622 68.9149C79.3509 69.5092 79.2153 70.2354 79.2153 71.0935C79.2153 71.9664 79.3509 72.7018 79.622 73.2999C79.8969 73.8942 80.2721 74.3437 80.7475 74.6482C81.2267 74.9491 81.7746 75.0996 82.3912 75.0996C82.7329 75.0996 83.0524 75.055 83.3496 74.9658C83.6504 74.873 83.9197 74.7374 84.1575 74.5591C84.3989 74.3808 84.6013 74.1616 84.7648 73.9016C84.9319 73.6416 85.0471 73.3445 85.1102 73.0101L87.1941 73.0213C87.1161 73.5636 86.9471 74.0725 86.687 74.548C86.4307 75.0234 86.0946 75.4432 85.6786 75.8072C85.2625 76.1675 84.7759 76.4498 84.2188 76.6541C83.6616 76.8547 83.0431 76.955 82.3634 76.955C81.3604 76.955 80.4652 76.7228 79.6778 76.2585C78.8903 75.7942 78.27 75.1237 77.8168 74.2471C77.3636 73.3705 77.137 72.3192 77.137 71.0935C77.137 69.864 77.3655 68.8127 77.8224 67.9398C78.2792 67.0632 78.9014 66.3927 79.6889 65.9284C80.4764 65.4641 81.3679 65.232 82.3634 65.232C82.9985 65.232 83.5891 65.3211 84.1352 65.4994C84.6812 65.6777 85.1678 65.9396 85.595 66.285C86.0221 66.6268 86.3732 67.0465 86.648 67.5442C86.9266 68.0383 87.1086 68.6029 87.1941 69.2381ZM92.731 76.9661C91.8953 76.9661 91.1709 76.7822 90.558 76.4145C89.9451 76.0468 89.4697 75.5323 89.1317 74.8711C88.7974 74.2099 88.6302 73.4373 88.6302 72.5533C88.6302 71.6692 88.7974 70.8947 89.1317 70.2298C89.4697 69.5649 89.9451 69.0486 90.558 68.6809C91.1709 68.3131 91.8953 68.1293 92.731 68.1293C93.5668 68.1293 94.2911 68.3131 94.904 68.6809C95.5169 69.0486 95.9905 69.5649 96.3248 70.2298C96.6628 70.8947 96.8318 71.6692 96.8318 72.5533C96.8318 73.4373 96.6628 74.2099 96.3248 74.8711C95.9905 75.5323 95.5169 76.0468 94.904 76.4145C94.2911 76.7822 93.5668 76.9661 92.731 76.9661ZM92.7422 75.3503C93.1953 75.3503 93.5742 75.2259 93.8788 74.977C94.1834 74.7244 94.41 74.3864 94.5586 73.9629C94.7109 73.5395 94.787 73.0677 94.787 72.5477C94.787 72.0239 94.7109 71.5503 94.5586 71.1269C94.41 70.6997 94.1834 70.3598 93.8788 70.1073C93.5742 69.8547 93.1953 69.7284 92.7422 69.7284C92.2779 69.7284 91.8915 69.8547 91.5832 70.1073C91.2786 70.3598 91.0502 70.6997 90.8979 71.1269C90.7493 71.5503 90.675 72.0239 90.675 72.5477C90.675 73.0677 90.7493 73.5395 90.8979 73.9629C91.0502 74.3864 91.2786 74.7244 91.5832 74.977C91.8915 75.2259 92.2779 75.3503 92.7422 75.3503ZM100.561 71.7844V76.799H98.5438V68.2407H100.472V69.6949H100.572C100.769 69.2158 101.083 68.835 101.514 68.5527C101.948 68.2704 102.485 68.1293 103.124 68.1293C103.714 68.1293 104.229 68.2556 104.667 68.5082C105.109 68.7607 105.451 69.1266 105.692 69.6058C105.938 70.085 106.058 70.6663 106.055 71.3498V76.799H104.038V71.6618C104.038 71.0897 103.889 70.6421 103.592 70.319C103.298 69.9958 102.892 69.8342 102.372 69.8342C102.019 69.8342 101.705 69.9122 101.43 70.0683C101.159 70.2205 100.945 70.4416 100.789 70.7313C100.637 71.021 100.561 71.372 100.561 71.7844ZM112.378 68.2407V69.8008H107.459V68.2407H112.378ZM108.673 66.1903H110.69V74.2248C110.69 74.496 110.731 74.704 110.813 74.8488C110.898 74.99 111.01 75.0866 111.147 75.1386C111.285 75.1906 111.437 75.2166 111.604 75.2166C111.73 75.2166 111.845 75.2073 111.949 75.1887C112.057 75.1701 112.139 75.1534 112.195 75.1386L112.534 76.7154C112.427 76.7525 112.273 76.7934 112.072 76.838C111.875 76.8825 111.634 76.9085 111.348 76.916C110.843 76.9308 110.387 76.8547 109.983 76.6875C109.578 76.5166 109.256 76.2529 109.019 75.8963C108.785 75.5397 108.67 75.094 108.673 74.5591V66.1903ZM114.065 76.799V68.2407H116.021V69.6671H116.11C116.266 69.1731 116.534 68.7923 116.912 68.5249C117.295 68.2537 117.732 68.1181 118.222 68.1181C118.333 68.1181 118.458 68.1237 118.595 68.1348C118.736 68.1423 118.853 68.1553 118.946 68.1739V70.0293C118.861 69.9995 118.725 69.9735 118.539 69.9512C118.357 69.9252 118.181 69.9122 118.01 69.9122C117.642 69.9122 117.312 69.9921 117.018 70.1518C116.729 70.3078 116.5 70.5251 116.333 70.8037C116.166 71.0823 116.082 71.4036 116.082 71.7676V76.799H114.065ZM122.596 76.9717C122.053 76.9717 121.565 76.8751 121.13 76.6819C120.699 76.4851 120.358 76.1953 120.105 75.8127C119.856 75.4302 119.732 74.9584 119.732 74.3975C119.732 73.9146 119.821 73.5153 119.999 73.1996C120.178 72.8839 120.421 72.6313 120.729 72.4418C121.037 72.2524 121.385 72.1094 121.771 72.0128C122.161 71.9125 122.564 71.8401 122.98 71.7955C123.482 71.7435 123.888 71.6971 124.2 71.6562C124.512 71.6116 124.739 71.5448 124.88 71.4556C125.025 71.3628 125.097 71.2198 125.097 71.0266V70.9932C125.097 70.5734 124.973 70.2484 124.724 70.0181C124.475 69.7878 124.117 69.6727 123.649 69.6727C123.155 69.6727 122.763 69.7804 122.473 69.9958C122.187 70.2113 121.994 70.4657 121.894 70.7592L120.01 70.4917C120.159 69.9717 120.404 69.5371 120.746 69.1879C121.088 68.835 121.505 68.5713 122 68.3967C122.494 68.2184 123.04 68.1293 123.638 68.1293C124.05 68.1293 124.46 68.1776 124.869 68.2741C125.278 68.3707 125.651 68.5304 125.989 68.7533C126.327 68.9725 126.598 69.2715 126.802 69.6504C127.01 70.0293 127.114 70.5029 127.114 71.0712V76.799H125.175V75.6233H125.109C124.986 75.861 124.813 76.0839 124.59 76.2919C124.371 76.4962 124.095 76.6615 123.76 76.7878C123.43 76.9104 123.041 76.9717 122.596 76.9717ZM123.119 75.4896C123.524 75.4896 123.875 75.4097 124.173 75.25C124.47 75.0866 124.698 74.8711 124.858 74.6037C125.021 74.3362 125.103 74.0446 125.103 73.7289V72.7204C125.04 72.7724 124.932 72.8207 124.78 72.8653C124.631 72.9099 124.464 72.9489 124.278 72.9823C124.093 73.0157 123.909 73.0454 123.727 73.0714C123.545 73.0974 123.387 73.1197 123.253 73.1383C122.952 73.1792 122.683 73.246 122.445 73.3389C122.208 73.4317 122.02 73.5618 121.883 73.7289C121.745 73.8923 121.676 74.1041 121.676 74.3641C121.676 74.7355 121.812 75.016 122.083 75.2054C122.354 75.3949 122.7 75.4896 123.119 75.4896ZM132.876 76.9661C132.021 76.9661 131.288 76.7785 130.675 76.4034C130.066 76.0282 129.596 75.51 129.265 74.8488C128.938 74.1839 128.775 73.4187 128.775 72.5533C128.775 71.6841 128.942 70.917 129.276 70.2521C129.611 69.5835 130.082 69.0635 130.691 68.692C131.304 68.3169 132.029 68.1293 132.864 68.1293C133.559 68.1293 134.174 68.2574 134.709 68.5137C135.247 68.7663 135.676 69.1248 135.996 69.5891C136.315 70.0497 136.497 70.5883 136.542 71.2049H134.614C134.536 70.7926 134.35 70.449 134.057 70.1741C133.767 69.8955 133.379 69.7562 132.892 69.7562C132.48 69.7562 132.118 69.8677 131.806 70.0905C131.494 70.3097 131.251 70.6254 131.076 71.0377C130.905 71.4501 130.82 71.9441 130.82 72.5198C130.82 73.103 130.905 73.6045 131.076 74.0242C131.247 74.4402 131.486 74.7615 131.795 74.9881C132.107 75.211 132.473 75.3224 132.892 75.3224C133.189 75.3224 133.455 75.2667 133.689 75.1553C133.927 75.0401 134.126 74.8748 134.285 74.6594C134.445 74.4439 134.555 74.1821 134.614 73.8738H136.542C136.494 74.4792 136.315 75.016 136.007 75.484C135.699 75.9483 135.279 76.3123 134.748 76.5761C134.217 76.8361 133.593 76.9661 132.876 76.9661ZM142.472 68.2407V69.8008H137.552V68.2407H142.472ZM138.766 66.1903H140.783V74.2248C140.783 74.496 140.824 74.704 140.906 74.8488C140.991 74.99 141.103 75.0866 141.24 75.1386C141.378 75.1906 141.53 75.2166 141.697 75.2166C141.823 75.2166 141.939 75.2073 142.043 75.1887C142.15 75.1701 142.232 75.1534 142.288 75.1386L142.628 76.7154C142.52 76.7525 142.366 76.7934 142.165 76.838C141.968 76.8825 141.727 76.9085 141.441 76.916C140.936 76.9308 140.481 76.8547 140.076 76.6875C139.671 76.5166 139.35 76.2529 139.112 75.8963C138.878 75.5397 138.763 75.094 138.766 74.5591V66.1903Z" fill="#636464"/>
</g>
<circle cx="62.6919" cy="270.004" r="51" fill="#EAF2FF"/>
<path d="M56.0266 291.019H69.3574C80.4663 291.019 84.9099 286.575 84.9099 275.466V262.136C84.9099 251.027 80.4663 246.583 69.3574 246.583H56.0266C44.9177 246.583 40.4741 251.027 40.4741 262.136V275.466C40.4741 286.575 44.9177 291.019 56.0266 291.019Z" stroke="#006FFD" stroke-width="4.76097" stroke-linecap="round" stroke-linejoin="round"/>
<path d="M51.6108 246.583V241.029" stroke="#006FFD" stroke-width="4.76097" stroke-linecap="round" stroke-linejoin="round"/>
<path d="M62.6919 246.861V241.306" stroke="#006FFD" stroke-width="4.76097" stroke-linecap="round" stroke-linejoin="round"/>
<path d="M73.801 246.583V241.029" stroke="#006FFD" stroke-width="4.76097" stroke-linecap="round" stroke-linejoin="round"/>
<path d="M84.9097 257.692H90.4641" stroke="#006FFD" stroke-width="4.76097" stroke-linecap="round" stroke-linejoin="round"/>
<path d="M84.9097 268.801H90.4641" stroke="#006FFD" stroke-width="4.76097" stroke-linecap="round" stroke-linejoin="round"/>
<path d="M84.9097 279.91H90.4641" stroke="#006FFD" stroke-width="4.76097" stroke-linecap="round" stroke-linejoin="round"/>
<path d="M73.801 291.019V296.574" stroke="#006FFD" stroke-width="4.76097" stroke-linecap="round" stroke-linejoin="round"/>
<path d="M62.7197 291.019V296.574" stroke="#006FFD" stroke-width="4.76097" stroke-linecap="round" stroke-linejoin="round"/>
<path d="M51.6108 291.019V296.574" stroke="#006FFD" stroke-width="4.76097" stroke-linecap="round" stroke-linejoin="round"/>
<path d="M34.9189 257.692H40.4734" stroke="#006FFD" stroke-width="4.76097" stroke-linecap="round" stroke-linejoin="round"/>
<path d="M34.9189 268.801H40.4734" stroke="#006FFD" stroke-width="4.76097" stroke-linecap="round" stroke-linejoin="round"/>
<path d="M34.9189 279.91H40.4734" stroke="#006FFD" stroke-width="4.76097" stroke-linecap="round" stroke-linejoin="round"/>
<path d="M50.6111 278.522L58.5088 260.469L66.6323 278.522" stroke="#006FFD" stroke-width="3.86829" stroke-miterlimit="10" stroke-linecap="round" stroke-linejoin="round"/>
<path d="M52.4167 272.429H64.6019" stroke="#006FFD" stroke-width="3.86829" stroke-miterlimit="10"/>
<path d="M72.2732 278.521V266.562" stroke="#006FFD" stroke-width="3.86829" stroke-miterlimit="10" stroke-linecap="round" stroke-linejoin="round"/>
<path d="M72.3635 260.546V260.546" stroke="#006FFD" stroke-width="5.15772" stroke-linecap="round" stroke-linejoin="round"/>
<defs>
<filter id="filter0_f_487_4162" x="117.43" y="340.882" width="463.991" height="45.7917" filterUnits="userSpaceOnUse" color-interpolation-filters="sRGB">
<feFlood flood-opacity="0" result="BackgroundImageFix"/>
<feBlend mode="normal" in="SourceGraphic" in2="BackgroundImageFix" result="shape"/>
<feGaussianBlur stdDeviation="10.2798" result="effect1_foregroundBlur_487_4162"/>
</filter>
<filter id="filter1_d_487_4162" x="23.9864" y="19.9594" width="286.499" height="338.332" filterUnits="userSpaceOnUse" color-interpolation-filters="sRGB">
<feFlood flood-opacity="0" result="BackgroundImageFix"/>
<feColorMatrix in="SourceAlpha" type="matrix" values="0 0 0 0 0 0 0 0 0 0 0 0 0 0 0 0 0 0 127 0" result="hardAlpha"/>
<feOffset dx="15.9376" dy="29.5983"/>
<feGaussianBlur stdDeviation="27.3215"/>
<feComposite in2="hardAlpha" operator="out"/>
<feColorMatrix type="matrix" values="0 0 0 0 0.145104 0 0 0 0 0.286634 0 0 0 0 0.829167 0 0 0 0.1 0"/>
<feBlend mode="normal" in2="BackgroundImageFix" result="effect1_dropShadow_487_4162"/>
<feBlend mode="normal" in="SourceGraphic" in2="effect1_dropShadow_487_4162" result="shape"/>
</filter>
<linearGradient id="paint0_linear_487_4162" x1="113.692" y1="353.966" x2="584.692" y2="353.966" gradientUnits="userSpaceOnUse">
<stop stop-color="#B7C2D0"/>
<stop offset="0.0295345" stop-color="#CAD4DB"/>
<stop offset="0.0625" stop-color="#BECCDE"/>
<stop offset="0.133609" stop-color="#B7C2D0" stop-opacity="0.3"/>
<stop offset="0.865967" stop-color="#B7C2D0" stop-opacity="0.3"/>
<stop offset="0.941937" stop-color="#BECCDE"/>
<stop offset="0.971275" stop-color="#CAD4DB"/>
<stop offset="0.996436" stop-color="#B7C2D0"/>
</linearGradient>
<linearGradient id="paint1_linear_487_4162" x1="349.192" y1="355.367" x2="349.192" y2="360.975" gradientUnits="userSpaceOnUse">
<stop stop-color="#D1DBE9" stop-opacity="0.6"/>
<stop offset="1" stop-color="#AAB5C6" stop-opacity="0.6"/>
</linearGradient>
<linearGradient id="paint2_linear_487_4162" x1="321.494" y1="354.266" x2="378.607" y2="354.266" gradientUnits="userSpaceOnUse">
<stop stop-color="#CFD9E7"/>
<stop offset="0.317518" stop-color="#CFD9E7" stop-opacity="0"/>
<stop offset="0.660584" stop-color="#CFD9E7" stop-opacity="0"/>
<stop offset="1" stop-color="#CFD9E7"/>
</linearGradient>
</defs>
</svg>