<svg width="333" height="232" viewBox="0 0 333 232" fill="none" xmlns="http://www.w3.org/2000/svg">
<path d="M269.241 0H70.3839C61.2318 0 53.8125 7.41928 53.8125 16.5714V215.429C53.8125 224.581 61.2318 232 70.3839 232H269.241C278.393 232 285.812 224.581 285.812 215.429V16.5714C285.812 7.41928 278.393 0 269.241 0Z" fill="url(#paint0_linear_4790_15311)"/>
<g filter="url(#filter0_d_4790_15311)">
<path d="M242.73 16.5714H19.0162C14.4401 16.5714 10.7305 20.2811 10.7305 24.8572V66.2857C10.7305 70.8618 14.4401 74.5714 19.0162 74.5714H242.73C247.307 74.5714 251.016 70.8618 251.016 66.2857V24.8572C251.016 20.2811 247.307 16.5714 242.73 16.5714Z" fill="white"/>
</g>
<path d="M125.073 29.8287H81.9871C79.2414 29.8287 77.0156 32.0545 77.0156 34.8002C77.0156 37.5458 79.2414 39.7716 81.9871 39.7716H125.073C127.818 39.7716 130.044 37.5458 130.044 34.8002C130.044 32.0545 127.818 29.8287 125.073 29.8287Z" fill="#B4DAFF"/>
<path d="M154.901 51.3716H81.9871C79.2414 51.3716 77.0156 53.5974 77.0156 56.343C77.0156 59.0887 79.2414 61.3144 81.9871 61.3144H154.901C157.647 61.3144 159.873 59.0887 159.873 56.343C159.873 53.5974 157.647 51.3716 154.901 51.3716Z" fill="#DEE9FC"/>
<path d="M55.4706 21.5429H23.9849C19.4089 21.5429 15.6992 25.2525 15.6992 29.8286V61.3143C15.6992 65.8904 19.4089 69.6 23.9849 69.6H55.4706C60.0467 69.6 63.7564 65.8904 63.7564 61.3143V29.8286C63.7564 25.2525 60.0467 21.5429 55.4706 21.5429Z" fill="#1485FD"/>
<path d="M39.7304 46.7177C42.11 46.7177 44.039 44.7887 44.039 42.4092C44.039 40.0296 42.11 38.1006 39.7304 38.1006C37.3509 38.1006 35.4219 40.0296 35.4219 42.4092C35.4219 44.7887 37.3509 46.7177 39.7304 46.7177Z" stroke="white" stroke-width="2.48571"/>
<path d="M28.1555 39.8957C30.876 27.9367 48.5936 27.9505 51.3003 39.9095C52.8884 46.9248 48.5246 52.8629 44.6994 56.5362C41.9236 59.2153 37.5322 59.2153 34.7427 56.5362C30.9313 52.8629 26.5675 46.911 28.1555 39.8957Z" stroke="white" stroke-width="2.48571"/>
<g filter="url(#filter1_d_4790_15311)">
<path d="M90.2662 87.8287H313.98C316.178 87.8287 318.285 88.7017 319.839 90.2556C321.393 91.8094 322.266 93.9169 322.266 96.1144V137.543C322.266 139.741 321.393 141.848 319.839 143.402C318.285 144.956 316.178 145.829 313.98 145.829H90.2662C88.0687 145.829 85.9612 144.956 84.4073 143.402C82.8534 141.848 81.9805 139.741 81.9805 137.543V96.1144C81.9805 93.9169 82.8534 91.8094 84.4073 90.2556C85.9612 88.7017 88.0687 87.8287 90.2662 87.8287V87.8287Z" fill="white"/>
</g>
<path d="M196.327 101.086H153.241C150.495 101.086 148.27 103.312 148.27 106.057C148.27 108.803 150.495 111.029 153.241 111.029H196.327C199.072 111.029 201.298 108.803 201.298 106.057C201.298 103.312 199.072 101.086 196.327 101.086Z" fill="#B4DAFF"/>
<path d="M226.155 122.629H153.241C150.495 122.629 148.27 124.855 148.27 127.6C148.27 130.346 150.495 132.572 153.241 132.572H226.155C228.901 132.572 231.127 130.346 231.127 127.6C231.127 124.855 228.901 122.629 226.155 122.629Z" fill="#DEE9FC"/>
<path d="M126.728 92.8001H95.2427C90.6667 92.8001 86.957 96.5098 86.957 101.086V132.572C86.957 137.148 90.6667 140.857 95.2427 140.857H126.728C131.305 140.857 135.014 137.148 135.014 132.572V101.086C135.014 96.5098 131.305 92.8001 126.728 92.8001Z" fill="#1485FD"/>
<g filter="url(#filter2_d_4790_15311)">
<path d="M19.0162 159.086H242.73C244.928 159.086 247.035 159.959 248.589 161.513C250.143 163.066 251.016 165.174 251.016 167.371V208.8C251.016 210.998 250.143 213.105 248.589 214.659C247.035 216.213 244.928 217.086 242.73 217.086H19.0162C16.8187 217.086 14.7112 216.213 13.1573 214.659C11.6034 213.105 10.7305 210.998 10.7305 208.8V167.371C10.7305 165.174 11.6034 163.066 13.1573 161.513C14.7112 159.959 16.8187 159.086 19.0162 159.086V159.086Z" fill="white"/>
</g>
<path d="M125.073 172.343H81.9871C79.2414 172.343 77.0156 174.569 77.0156 177.314C77.0156 180.06 79.2414 182.286 81.9871 182.286H125.073C127.818 182.286 130.044 180.06 130.044 177.314C130.044 174.569 127.818 172.343 125.073 172.343Z" fill="#B4DAFF"/>
<path d="M154.901 193.886H81.9871C79.2414 193.886 77.0156 196.112 77.0156 198.857C77.0156 201.603 79.2414 203.829 81.9871 203.829H154.901C157.647 203.829 159.873 201.603 159.873 198.857C159.873 196.112 157.647 193.886 154.901 193.886Z" fill="#DEE9FC"/>
<path d="M55.4746 164.057H23.9888C19.4128 164.057 15.7031 167.767 15.7031 172.343V203.829C15.7031 208.405 19.4128 212.114 23.9888 212.114H55.4746C60.0506 212.114 63.7603 208.405 63.7603 203.829V172.343C63.7603 167.767 60.0506 164.057 55.4746 164.057Z" fill="#1485FD"/>
<path d="M39.7344 190.889C42.1139 190.889 44.0429 188.96 44.0429 186.581C44.0429 184.201 42.1139 182.272 39.7344 182.272C37.3548 182.272 35.4258 184.201 35.4258 186.581C35.4258 188.96 37.3548 190.889 39.7344 190.889Z" stroke="white" stroke-width="2.48571"/>
<path d="M28.1595 184.067C30.8799 172.108 48.5975 172.122 51.3042 184.081C52.8923 191.096 48.5285 197.034 44.7033 200.708C41.9275 203.387 37.5361 203.387 34.7466 200.708C30.9352 197.034 26.5714 191.082 28.1595 184.067Z" stroke="white" stroke-width="2.48571"/>
<path d="M110.98 119.632C113.36 119.632 115.289 117.703 115.289 115.323C115.289 112.944 113.36 111.015 110.98 111.015C108.601 111.015 106.672 112.944 106.672 115.323C106.672 117.703 108.601 119.632 110.98 119.632Z" stroke="white" stroke-width="2.48571"/>
<path d="M99.4055 112.81C102.126 100.851 119.844 100.865 122.55 112.824C124.138 119.839 119.775 125.777 115.949 129.45C113.174 132.129 108.782 132.129 105.993 129.45C102.181 125.777 97.8175 119.825 99.4055 112.81Z" stroke="white" stroke-width="2.48571"/>
<defs>
<filter id="filter0_d_4790_15311" x="0.787612" y="11.6" width="260.171" height="77.8857" filterUnits="userSpaceOnUse" color-interpolation-filters="sRGB">
<feFlood flood-opacity="0" result="BackgroundImageFix"/>
<feColorMatrix in="SourceAlpha" type="matrix" values="0 0 0 0 0 0 0 0 0 0 0 0 0 0 0 0 0 0 127 0" result="hardAlpha"/>
<feOffset dy="4.97143"/>
<feGaussianBlur stdDeviation="4.97143"/>
<feColorMatrix type="matrix" values="0 0 0 0 0 0 0 0 0 0 0 0 0 0 0 0 0 0 0.161 0"/>
<feBlend mode="normal" in2="BackgroundImageFix" result="effect1_dropShadow_4790_15311"/>
<feBlend mode="normal" in="SourceGraphic" in2="effect1_dropShadow_4790_15311" result="shape"/>
</filter>
<filter id="filter1_d_4790_15311" x="72.0376" y="82.8573" width="260.171" height="77.8857" filterUnits="userSpaceOnUse" color-interpolation-filters="sRGB">
<feFlood flood-opacity="0" result="BackgroundImageFix"/>
<feColorMatrix in="SourceAlpha" type="matrix" values="0 0 0 0 0 0 0 0 0 0 0 0 0 0 0 0 0 0 127 0" result="hardAlpha"/>
<feOffset dy="4.97143"/>
<feGaussianBlur stdDeviation="4.97143"/>
<feColorMatrix type="matrix" values="0 0 0 0 0 0 0 0 0 0 0 0 0 0 0 0 0 0 0.161 0"/>
<feBlend mode="normal" in2="BackgroundImageFix" result="effect1_dropShadow_4790_15311"/>
<feBlend mode="normal" in="SourceGraphic" in2="effect1_dropShadow_4790_15311" result="shape"/>
</filter>
<filter id="filter2_d_4790_15311" x="0.787612" y="154.114" width="260.171" height="77.8857" filterUnits="userSpaceOnUse" color-interpolation-filters="sRGB">
<feFlood flood-opacity="0" result="BackgroundImageFix"/>
<feColorMatrix in="SourceAlpha" type="matrix" values="0 0 0 0 0 0 0 0 0 0 0 0 0 0 0 0 0 0 127 0" result="hardAlpha"/>
<feOffset dy="4.97143"/>
<feGaussianBlur stdDeviation="4.97143"/>
<feColorMatrix type="matrix" values="0 0 0 0 0 0 0 0 0 0 0 0 0 0 0 0 0 0 0.161 0"/>
<feBlend mode="normal" in2="BackgroundImageFix" result="effect1_dropShadow_4790_15311"/>
<feBlend mode="normal" in="SourceGraphic" in2="effect1_dropShadow_4790_15311" result="shape"/>
</filter>
<linearGradient id="paint0_linear_4790_15311" x1="169.812" y1="0" x2="169.812" y2="232" gradientUnits="userSpaceOnUse">
<stop stop-color="#E3ECFA"/>
<stop offset="1" stop-color="#DAE7FF"/>
</linearGradient>
</defs>
</svg>