<svg width="266" height="269" viewBox="0 0 266 269" fill="none" xmlns="http://www.w3.org/2000/svg">
<path d="M133.348 265C206.525 265 265.848 205.678 265.848 132.5C265.848 59.3223 206.525 0 133.348 0C60.1699 0 0.847656 59.3223 0.847656 132.5C0.847656 205.678 60.1699 265 133.348 265Z" fill="#E1ECFB"/>
<g filter="url(#filter0_d_10816_58895)">
<mask id="mask0_10816_58895" style="mask-type:alpha" maskUnits="userSpaceOnUse" x="0" y="0" width="266" height="265">
<path d="M133.348 265C206.525 265 265.848 205.678 265.848 132.5C265.848 59.3223 206.525 0 133.348 0C60.1699 0 0.847656 59.3223 0.847656 132.5C0.847656 205.678 60.1699 265 133.348 265Z" fill="url(#paint0_linear_10816_58895)"/>
</mask>
<g mask="url(#mask0_10816_58895)">
<path d="M209.314 75.9668H57.3802C52.5017 75.9668 48.5469 79.9216 48.5469 84.8001V270.3C48.5469 275.179 52.5017 279.133 57.3802 279.133H209.314C214.192 279.133 218.147 275.179 218.147 270.3V84.8001C218.147 79.9216 214.192 75.9668 209.314 75.9668Z" fill="white"/>
</g>
</g>
<path d="M117.444 93.6333H71.5109C68.5838 93.6333 66.2109 96.0062 66.2109 98.9333C66.2109 101.86 68.5838 104.233 71.5109 104.233H117.444C120.371 104.233 122.744 101.86 122.744 98.9333C122.744 96.0062 120.371 93.6333 117.444 93.6333Z" fill="#E1EBFA"/>
<rect x="65.8398" y="109.172" width="66.25" height="19.931" rx="2.7993" fill="#FFD2D2"/>
<path d="M117.073 113.838H71.1398C68.2127 113.838 65.8398 116.211 65.8398 119.138C65.8398 122.065 68.2127 124.438 71.1398 124.438H117.073C120 124.438 122.373 122.065 122.373 119.138C122.373 116.211 120 113.838 117.073 113.838Z" fill="white"/>
<rect x="65.8398" y="109.172" width="66.25" height="19.931" rx="2.7993" fill="#FFD2D2"/>
<path d="M122.671 113.838H76.7375C73.8104 113.838 71.4375 116.211 71.4375 119.138C71.4375 122.065 73.8104 124.438 76.7375 124.438H122.671C125.598 124.438 127.971 122.065 127.971 119.138C127.971 116.211 125.598 113.838 122.671 113.838Z" fill="white"/>
<rect x="65.8398" y="138.099" width="134.366" height="19.5951" rx="2.7993" fill="#BBF3EB"/>
<path d="M185.625 142.764H76.6862C73.7874 142.764 71.4375 145.062 71.4375 147.896C71.4375 150.731 73.7874 153.028 76.6862 153.028H185.625C188.524 153.028 190.874 150.731 190.874 147.896C190.874 145.062 188.524 142.764 185.625 142.764Z" fill="white"/>
<path d="M117.444 167.833H71.5109C68.5838 167.833 66.2109 170.206 66.2109 173.133C66.2109 176.06 68.5838 178.433 71.5109 178.433H117.444C120.371 178.433 122.744 176.06 122.744 173.133C122.744 170.206 120.371 167.833 117.444 167.833Z" fill="#E1EBFA"/>
<path d="M191.644 192.567H75.0443C70.1658 192.567 66.2109 196.522 66.2109 201.4V215.534C66.2109 220.412 70.1658 224.367 75.0443 224.367H191.644C196.523 224.367 200.478 220.412 200.478 215.534V201.4C200.478 196.522 196.523 192.567 191.644 192.567Z" fill="#DFEAFB"/>
<path d="M94.4807 56.5337C98.3835 56.5337 101.547 53.3699 101.547 49.4671C101.547 45.5642 98.3835 42.4004 94.4807 42.4004C90.5779 42.4004 87.4141 45.5642 87.4141 49.4671C87.4141 53.3699 90.5779 56.5337 94.4807 56.5337Z" fill="#F9FBFF"/>
<path d="M133.348 56.5337C137.251 56.5337 140.415 53.3699 140.415 49.4671C140.415 45.5642 137.251 42.4004 133.348 42.4004C129.445 42.4004 126.281 45.5642 126.281 49.4671C126.281 53.3699 129.445 56.5337 133.348 56.5337Z" fill="#1485FD"/>
<path d="M172.215 56.5337C176.118 56.5337 179.282 53.3699 179.282 49.4671C179.282 45.5642 176.118 42.4004 172.215 42.4004C168.312 42.4004 165.148 45.5642 165.148 49.4671C165.148 53.3699 168.312 56.5337 172.215 56.5337Z" fill="#F9FBFF"/>
<path d="M152.783 155.466C157.661 155.466 161.616 151.512 161.616 146.633C161.616 141.755 157.661 137.8 152.783 137.8C147.904 137.8 143.949 141.755 143.949 146.633C143.949 151.512 147.904 155.466 152.783 155.466Z" fill="#DFEAFB"/>
<path d="M159.681 184.387C158.268 184.387 156.948 184.387 155.747 184.311C154.267 184.211 152.844 183.705 151.633 182.848C150.423 181.991 149.472 180.817 148.885 179.455L141.432 164.724C140.885 164.088 140.612 163.261 140.672 162.424C140.732 161.587 141.121 160.808 141.753 160.256C142.271 159.84 142.917 159.616 143.582 159.622C144.071 159.636 144.551 159.756 144.989 159.974C145.428 160.192 145.814 160.502 146.12 160.883L149.505 165.503L149.557 165.563V148.011C149.557 147.141 149.903 146.305 150.518 145.69C151.134 145.074 151.969 144.728 152.84 144.728C153.711 144.728 154.546 145.074 155.162 145.69C155.777 146.305 156.123 147.141 156.123 148.011V159.495C156.085 159.072 156.135 158.646 156.271 158.244C156.407 157.842 156.624 157.473 156.911 157.16C157.197 156.846 157.545 156.596 157.933 156.425C158.322 156.254 158.741 156.166 159.165 156.166C159.59 156.166 160.009 156.254 160.398 156.425C160.786 156.596 161.134 156.846 161.42 157.16C161.707 157.473 161.924 157.842 162.06 158.244C162.196 158.646 162.246 159.072 162.208 159.495V161.889C162.17 161.466 162.22 161.04 162.355 160.638C162.491 160.236 162.709 159.867 162.995 159.553C163.281 159.24 163.63 158.99 164.018 158.819C164.406 158.648 164.826 158.559 165.25 158.559C165.674 158.559 166.094 158.648 166.482 158.819C166.87 158.99 167.219 159.24 167.505 159.553C167.791 159.867 168.009 160.236 168.144 160.638C168.28 161.04 168.33 161.466 168.292 161.889V163.733C168.254 163.31 168.304 162.885 168.44 162.482C168.575 162.08 168.793 161.711 169.079 161.398C169.366 161.085 169.714 160.834 170.102 160.663C170.49 160.492 170.91 160.404 171.334 160.404C171.759 160.404 172.178 160.492 172.566 160.663C172.955 160.834 173.303 161.085 173.589 161.398C173.875 161.711 174.093 162.08 174.229 162.482C174.364 162.885 174.415 163.31 174.376 163.733V174.928C174.316 178.372 172.76 184.177 167.285 184.177C166.888 184.194 163.52 184.389 159.688 184.389L159.681 184.387Z" fill="#1485FD" stroke="white" stroke-width="1.25035"/>
<defs>
<filter id="filter0_d_10816_58895" x="41.0448" y="64.7136" width="184.606" height="204.037" filterUnits="userSpaceOnUse" color-interpolation-filters="sRGB">
<feFlood flood-opacity="0" result="BackgroundImageFix"/>
<feColorMatrix in="SourceAlpha" type="matrix" values="0 0 0 0 0 0 0 0 0 0 0 0 0 0 0 0 0 0 127 0" result="hardAlpha"/>
<feOffset dy="-3.75106"/>
<feGaussianBlur stdDeviation="3.75106"/>
<feColorMatrix type="matrix" values="0 0 0 0 0.788235 0 0 0 0 0.803922 0 0 0 0 0.85098 0 0 0 0.349 0"/>
<feBlend mode="normal" in2="BackgroundImageFix" result="effect1_dropShadow_10816_58895"/>
<feBlend mode="normal" in="SourceGraphic" in2="effect1_dropShadow_10816_58895" result="shape"/>
</filter>
<linearGradient id="paint0_linear_10816_58895" x1="133.348" y1="0" x2="133.348" y2="265" gradientUnits="userSpaceOnUse">
<stop stop-color="#E3ECFA"/>
<stop offset="1" stop-color="#DAE7FF"/>
</linearGradient>
</defs>
</svg>
