<svg width="40" height="40" viewBox="0 0 40 40" fill="none" xmlns="http://www.w3.org/2000/svg">
<g clip-path="url(#clip0_11927_72608)">
<path fill-rule="evenodd" clip-rule="evenodd" d="M19.9984 35.2C29.7186 35.2 37.5984 27.3202 37.5984 17.6C37.5984 7.87979 29.7186 0 19.9984 0C10.2782 0 2.39844 7.87979 2.39844 17.6C2.39844 22.533 4.42791 26.992 7.69746 30.1875C8.19023 30.6692 8.49304 31.3201 8.48566 32.0091L8.43383 36.8494C8.41384 38.7154 10.4781 39.8538 12.0456 38.8413L17.1684 35.5323C17.6273 35.2359 18.1751 35.1152 18.72 35.1543C19.1422 35.1846 19.5685 35.2 19.9984 35.2Z" fill="#F14B4B"/>
<path d="M25.5714 13.1777C26.0563 12.6928 26.0563 11.9066 25.5714 11.4217L25.3071 11.1574C24.8222 10.6725 24.036 10.6725 23.5511 11.1574L19.8269 14.8815L16.1028 11.1574C15.6179 10.6725 14.8316 10.6725 14.3467 11.1574L14.0824 11.4217C13.5975 11.9066 13.5975 12.6928 14.0824 13.1777L17.8066 16.9019L14.0824 20.626C13.5975 21.1109 13.5975 21.8971 14.0824 22.3821L14.3467 22.6463C14.8316 23.1313 15.6179 23.1313 16.1028 22.6463L19.8269 18.9222L23.5511 22.6463C24.036 23.1313 24.8222 23.1313 25.3071 22.6463L25.5714 22.3821C26.0563 21.8971 26.0563 21.1109 25.5714 20.626L21.8473 16.9019L25.5714 13.1777Z" fill="white"/>
</g>
<defs>
<clipPath id="clip0_11927_72608">
<rect width="40" height="40" fill="white"/>
</clipPath>
</defs>
</svg>
