<svg width="19" height="20" viewBox="0 0 19 20" fill="none" xmlns="http://www.w3.org/2000/svg">
<path d="M4.68865 11.8966L4.05577 14.2593L1.7426 14.3082C1.0513 13.026 0.65918 11.559 0.65918 10C0.65918 8.49254 1.0258 7.07095 1.67566 5.81921H1.67615L3.73553 6.19677L4.63766 8.24379C4.44885 8.79425 4.34593 9.38516 4.34593 10C4.34601 10.6674 4.46689 11.3067 4.68865 11.8966Z" fill="#FBBB00"/>
<path d="M18.6824 8.3017C18.7868 8.85163 18.8412 9.41956 18.8412 9.99999C18.8412 10.6508 18.7728 11.2857 18.6425 11.8981C18.1999 13.982 17.0436 15.8017 15.4417 17.0894L15.4412 17.0889L12.8473 16.9566L12.4802 14.6648C13.5431 14.0415 14.3738 13.0659 14.8113 11.8981H9.9502V8.3017H14.8823H18.6824Z" fill="#518EF8"/>
<path d="M15.4405 17.089L15.441 17.0895C13.8831 18.3417 11.904 19.0909 9.74968 19.0909C6.28764 19.0909 3.27766 17.1559 1.74219 14.3082L4.68825 11.8967C5.45597 13.9456 7.43249 15.4042 9.74968 15.4042C10.7457 15.4042 11.6788 15.1349 12.4794 14.6649L15.4405 17.089Z" fill="#28B446"/>
<path d="M15.5529 3.00202L12.6079 5.4131C11.7792 4.89513 10.7996 4.59591 9.75021 4.59591C7.38058 4.59591 5.36708 6.12137 4.63782 8.24378L1.67628 5.8192H1.67578C3.18878 2.90212 6.23672 0.909119 9.75021 0.909119C11.956 0.909119 13.9785 1.69484 15.5529 3.00202Z" fill="#F14336"/>
</svg>