<svg width="225" height="139" viewBox="0 0 225 139" fill="none" xmlns="http://www.w3.org/2000/svg">
<rect opacity="0.5" x="9.32349" y="0.545044" width="215" height="125.951" rx="16.847" fill="#B8D4F7"/>
<path d="M202.636 29.0753H0.921631V137.988H202.636V29.0753Z" fill="#F7F8F9"/>
<path d="M202.506 138.515H0.917138C0.540806 138.515 0.289917 138.304 0.289917 137.989V29.0753C0.289917 28.7597 0.540806 28.5492 0.917138 28.5492H202.506C202.882 28.5492 203.133 28.7597 203.133 29.0753V137.989C203.133 138.199 202.882 138.515 202.506 138.515ZM1.54436 137.462H202.004V29.6015H1.54436V137.462Z" fill="#636464"/>
<path d="M202.636 29.0753H0.921631V40.7559H202.636V29.0753Z" fill="#F7F8F9"/>
<path d="M202.506 41.1768H0.917138C0.540806 41.1768 0.289917 40.9663 0.289917 40.6507V29.0753C0.289917 28.7597 0.540806 28.5492 0.917138 28.5492H202.506C202.882 28.5492 203.133 28.7597 203.133 29.0753V40.7559C203.133 40.9663 202.882 41.1768 202.506 41.1768ZM1.54436 40.2297H202.004V29.6015H1.54436V40.2297Z" fill="#636464"/>
<g opacity="0.1294">
<path d="M200.756 40.6509C200.505 40.6509 200.254 40.6509 199.878 40.6509C199.753 40.6509 199.752 40.6509 199.752 40.6509H199.627C196.867 40.3352 194.107 40.4404 191.348 40.4404C187.961 40.4404 184.699 40.3352 181.312 40.4404C177.674 40.4404 174.162 40.6509 170.524 40.6509C167.513 40.6509 164.503 40.6509 161.492 40.7561C155.972 40.9666 150.327 40.6509 144.808 40.6509C139.916 40.5457 135.023 40.7561 130.131 40.8614C122.102 40.8614 114.199 40.6509 106.171 40.8614C102.282 40.9666 98.268 41.1771 94.3793 41.1771C90.8668 41.1771 87.3544 41.0718 83.842 41.0718C79.0751 41.0718 74.3082 41.2823 69.4159 41.1771C65.0253 40.9666 60.7602 41.2823 56.3697 41.2823C55.1152 41.2823 53.7354 41.3875 52.4809 41.3875C51.9791 40.8614 51.101 40.7561 50.3483 40.7561C49.2193 40.7561 48.2157 40.7561 47.0868 40.8614C43.9506 40.9666 40.8145 40.9666 37.6784 40.8614C34.5423 40.8614 31.4062 40.6509 28.1447 40.6509C25.134 40.6509 22.2488 40.7561 19.2382 40.6509C18.8618 40.4404 18.2346 40.3352 17.7328 40.4404C16.7293 40.6509 16.2275 41.4927 16.4784 42.3346C16.4784 42.4398 16.4784 42.4398 16.4784 42.545C16.6038 42.966 16.6038 43.3869 16.6038 43.913C15.0985 43.913 13.5932 43.913 12.0878 44.0183C9.82984 44.0183 7.57181 44.0183 5.31382 44.0183C4.05937 44.0183 2.55407 43.8078 1.42507 44.1235C-0.331146 44.6496 0.296076 46.9647 2.0523 46.8595C6.19196 46.7542 10.2062 46.9647 14.3458 46.7543C15.4748 46.7543 16.7292 46.649 17.8582 46.5438C17.8582 46.5438 17.8583 46.5438 17.9837 46.5438C19.3636 46.5438 19.8654 45.702 19.8654 44.6496V44.5444C19.8654 44.5444 19.8654 44.5444 19.8654 44.6496V44.5444C19.8654 44.4392 19.8654 44.4392 19.8654 44.334C19.8654 44.0183 19.9908 43.8078 19.9908 43.4921C24.005 43.7026 28.0192 43.5973 31.908 43.5973C36.6749 43.7026 41.4418 43.8078 46.2087 43.7026C46.7105 43.7026 47.2122 43.7026 47.714 43.7026C47.9649 43.8078 48.0904 43.8078 48.4667 43.8078C53.359 43.8078 58.1259 43.8078 63.0182 43.7026C65.9034 43.5973 68.9141 43.8078 71.7993 43.8078C76.8171 43.8078 81.9603 43.7026 86.9781 43.7026C90.9923 43.7026 94.8811 43.8078 98.8953 43.7026C110.687 43.2817 122.479 43.8078 134.271 43.7026C137.407 43.7026 140.543 43.5973 143.679 43.7026C148.571 43.913 155.596 44.1235 161.868 44.0183C172.28 44.1235 182.567 43.7026 192.979 43.913C196.742 43.913 200.505 44.0183 201.885 43.5973C204.018 42.6503 202.889 40.1248 200.756 40.6509Z" fill="#23274D"/>
</g>
<g opacity="0.1294">
<path d="M16.4667 68.642C16.3412 68.642 16.0903 68.642 15.9649 68.5367C15.3376 68.5367 15.714 68.642 14.8359 68.642C12.8288 68.642 10.8216 68.7472 8.81451 68.7472C7.05829 68.7472 5.42755 68.642 3.67133 68.642C3.04411 68.642 2.16603 68.4315 1.66425 68.9577C0.911585 69.589 1.53874 70.7466 2.5423 70.6413C4.92574 70.6413 7.3092 70.7466 9.69264 70.7466C11.5743 70.7466 16.0903 70.7466 15.5885 70.8518C15.8394 70.957 16.2158 70.957 16.4667 70.8518H16.5921C16.5921 70.8518 16.5921 70.8518 16.7176 70.8518H16.843C16.843 70.8518 16.8429 70.8518 16.9684 70.8518C16.9684 70.8518 16.9684 70.8518 17.0939 70.8518C17.972 70.2204 17.5957 68.7472 16.4667 68.642Z" fill="#23274D"/>
</g>
<path d="M154.462 137.906V118.468H169.321V137.906H154.462Z" fill="#ACD4F7"/>
<path d="M155.181 137.186H168.586V119.203H155.181V137.186ZM169.32 138.64H154.461C154.058 138.64 153.742 138.309 153.742 137.92V118.483C153.742 118.08 154.058 117.763 154.461 117.763H169.32C169.723 117.763 170.04 118.094 170.04 118.483V137.92C170.04 138.323 169.723 138.64 169.32 138.64Z" fill="black"/>
<path d="M183.848 138.626H139.833C139.43 138.626 139.113 138.295 139.113 137.906C139.113 137.517 139.43 137.186 139.833 137.186H183.848C184.252 137.186 184.568 137.517 184.568 137.906C184.568 138.295 184.237 138.626 183.848 138.626Z" fill="black"/>
<path d="M110.029 119.404V47.6577H213.668V119.404H110.029Z" fill="#F7F8F9"/>
<g filter="url(#filter0_d_13600_78343)">
<rect x="118.503" y="64.0132" width="28.3218" height="30.21" rx="3.22723" fill="white"/>
<rect x="124.167" y="77.2302" width="16.9931" height="1.88812" rx="0.944061" fill="#D9D9D9"/>
<rect x="120.391" y="80.6981" width="24.5456" height="0.405712" rx="0.202856" fill="#D9D9D9"/>
<rect x="120.391" y="82.2695" width="24.5456" height="0.304284" rx="0.152142" fill="#D9D9D9"/>
<rect x="120.391" y="86.6708" width="11.9954" height="4.55387" rx="0.944062" fill="#EAF2FF"/>
<path d="M123.516 89.7993H123.267L123.722 88.5068H124.011L124.466 89.7993H124.216L123.871 88.7719H123.861L123.516 89.7993ZM123.525 89.2925H124.206V89.4806H123.525V89.2925ZM125.02 89.8182C124.923 89.8182 124.84 89.797 124.77 89.7545C124.701 89.712 124.648 89.6533 124.611 89.5784C124.574 89.5031 124.555 89.4165 124.555 89.3184C124.555 89.22 124.574 89.1331 124.612 89.0578C124.65 88.982 124.703 88.9231 124.772 88.8811C124.842 88.8386 124.924 88.8173 125.018 88.8173C125.097 88.8173 125.167 88.8318 125.227 88.8609C125.288 88.8895 125.337 88.9301 125.373 88.9827C125.409 89.0348 125.43 89.0959 125.435 89.1657H125.217C125.208 89.119 125.187 89.0801 125.154 89.0489C125.121 89.0174 125.077 89.0016 125.022 89.0016C124.975 89.0016 124.934 89.0142 124.899 89.0395C124.863 89.0643 124.836 89.1001 124.816 89.1468C124.797 89.1935 124.787 89.2494 124.787 89.3146C124.787 89.3807 124.797 89.4375 124.816 89.485C124.835 89.5322 124.862 89.5685 124.897 89.5942C124.933 89.6195 124.974 89.6321 125.022 89.6321C125.055 89.6321 125.085 89.6258 125.112 89.6131C125.139 89.6001 125.161 89.5814 125.179 89.557C125.198 89.5326 125.21 89.5029 125.217 89.468H125.435C125.43 89.5366 125.409 89.5974 125.374 89.6504C125.34 89.703 125.292 89.7442 125.232 89.7741C125.172 89.8035 125.101 89.8182 125.02 89.8182ZM126.045 89.8182C125.949 89.8182 125.866 89.797 125.796 89.7545C125.727 89.712 125.674 89.6533 125.636 89.5784C125.599 89.5031 125.581 89.4165 125.581 89.3184C125.581 89.22 125.6 89.1331 125.638 89.0578C125.676 88.982 125.729 88.9231 125.798 88.8811C125.867 88.8386 125.95 88.8173 126.044 88.8173C126.123 88.8173 126.192 88.8318 126.253 88.8609C126.314 88.8895 126.363 88.9301 126.399 88.9827C126.435 89.0348 126.456 89.0959 126.461 89.1657H126.242C126.234 89.119 126.212 89.0801 126.179 89.0489C126.146 89.0174 126.102 89.0016 126.047 89.0016C126.001 89.0016 125.96 89.0142 125.924 89.0395C125.889 89.0643 125.861 89.1001 125.842 89.1468C125.822 89.1935 125.813 89.2494 125.813 89.3146C125.813 89.3807 125.822 89.4375 125.842 89.485C125.861 89.5322 125.888 89.5685 125.923 89.5942C125.958 89.6195 126 89.6321 126.047 89.6321C126.081 89.6321 126.111 89.6258 126.138 89.6131C126.165 89.6001 126.187 89.5814 126.205 89.557C126.223 89.5326 126.236 89.5029 126.242 89.468H126.461C126.455 89.5366 126.435 89.5974 126.4 89.6504C126.365 89.703 126.318 89.7442 126.257 89.7741C126.197 89.8035 126.127 89.8182 126.045 89.8182ZM127.077 89.8182C126.98 89.8182 126.896 89.7981 126.826 89.7577C126.755 89.7169 126.701 89.6592 126.663 89.5847C126.626 89.5099 126.607 89.4217 126.607 89.3203C126.607 89.2206 126.626 89.1331 126.663 89.0578C126.702 88.982 126.755 88.9231 126.824 88.8811C126.892 88.8386 126.973 88.8173 127.065 88.8173C127.125 88.8173 127.182 88.827 127.235 88.8464C127.288 88.8653 127.335 88.8947 127.376 88.9347C127.417 88.9747 127.45 89.0256 127.473 89.0874C127.497 89.1489 127.508 89.2221 127.508 89.3071V89.3771H126.714V89.2231H127.289C127.289 89.1794 127.28 89.1405 127.261 89.1064C127.243 89.0719 127.217 89.0447 127.183 89.025C127.151 89.0052 127.112 88.9953 127.069 88.9953C127.022 88.9953 126.981 89.0067 126.946 89.0294C126.91 89.0517 126.883 89.0811 126.863 89.1177C126.844 89.1539 126.834 89.1937 126.833 89.237V89.3714C126.833 89.4278 126.844 89.4762 126.864 89.5166C126.885 89.5566 126.914 89.5873 126.951 89.6087C126.988 89.6298 127.031 89.6403 127.081 89.6403C127.114 89.6403 127.144 89.6357 127.171 89.6264C127.198 89.6167 127.221 89.6026 127.241 89.5841C127.261 89.5656 127.276 89.5427 127.286 89.5153L127.499 89.5393C127.486 89.5957 127.46 89.6449 127.422 89.687C127.385 89.7286 127.337 89.761 127.278 89.7842C127.22 89.8069 127.153 89.8182 127.077 89.8182ZM127.702 90.1628V88.83H127.926V88.9903H127.94C127.951 88.9667 127.968 88.9417 127.99 88.9152C128.011 88.8882 128.04 88.8653 128.077 88.8464C128.113 88.827 128.16 88.8173 128.217 88.8173C128.292 88.8173 128.359 88.8365 128.419 88.8748C128.48 88.9126 128.528 88.9688 128.563 89.0433C128.599 89.1173 128.617 89.2082 128.617 89.3159C128.617 89.4223 128.599 89.5128 128.564 89.5873C128.53 89.6617 128.482 89.7185 128.422 89.7577C128.362 89.7968 128.294 89.8164 128.217 89.8164C128.162 89.8164 128.116 89.8071 128.079 89.7886C128.043 89.7701 128.013 89.7478 127.991 89.7217C127.969 89.6952 127.952 89.6702 127.94 89.6466H127.93V90.1628H127.702ZM127.926 89.3146C127.926 89.3773 127.935 89.4322 127.952 89.4794C127.97 89.5265 127.996 89.5633 128.03 89.5898C128.064 89.6159 128.105 89.6289 128.154 89.6289C128.204 89.6289 128.246 89.6155 128.28 89.5885C128.315 89.5612 128.34 89.5239 128.357 89.4768C128.375 89.4293 128.384 89.3752 128.384 89.3146C128.384 89.2545 128.375 89.201 128.358 89.1543C128.341 89.1076 128.315 89.071 128.281 89.0445C128.247 89.018 128.205 89.0048 128.154 89.0048C128.105 89.0048 128.063 89.0176 128.029 89.0433C127.995 89.0689 127.969 89.1049 127.952 89.1512C127.934 89.1975 127.926 89.2519 127.926 89.3146ZM129.297 88.83V89.0067H128.739V88.83H129.297ZM128.877 88.5977H129.105V89.5078C129.105 89.5385 129.11 89.562 129.119 89.5784C129.129 89.5944 129.141 89.6054 129.157 89.6112C129.173 89.6171 129.19 89.6201 129.209 89.6201C129.223 89.6201 129.236 89.619 129.248 89.6169C129.26 89.6148 129.269 89.6129 129.276 89.6112L129.314 89.7898C129.302 89.7941 129.285 89.7987 129.262 89.8037C129.24 89.8088 129.212 89.8117 129.18 89.8126C129.123 89.8143 129.071 89.8056 129.025 89.7867C128.979 89.7673 128.943 89.7375 128.916 89.6971C128.889 89.6567 128.876 89.6062 128.877 89.5456V88.5977Z" fill="#006FFD"/>
<rect x="135.07" y="86.6708" width="10.1073" height="4.55387" rx="0.944062" fill="#F14B4B" fill-opacity="0.3"/>
<path d="M137.511 89.8862V88.5937H137.996C138.095 88.5937 138.179 88.611 138.246 88.6455C138.314 88.68 138.365 88.7284 138.399 88.7906C138.434 88.8525 138.452 88.9247 138.452 89.0071C138.452 89.09 138.434 89.1619 138.399 89.2229C138.364 89.2835 138.312 89.3304 138.244 89.3637C138.176 89.3965 138.092 89.4129 137.993 89.4129H137.648V89.2185H137.961C138.019 89.2185 138.067 89.2105 138.104 89.1945C138.141 89.1781 138.168 89.1544 138.186 89.1232C138.204 89.0917 138.213 89.053 138.213 89.0071C138.213 88.9613 138.204 88.9221 138.186 88.8897C138.168 88.8569 138.14 88.8321 138.103 88.8153C138.066 88.798 138.018 88.7894 137.96 88.7894H137.745V89.8862H137.511ZM138.179 89.3006L138.499 89.8862H138.238L137.923 89.3006H138.179ZM139.072 89.9052C138.975 89.9052 138.891 89.885 138.82 89.8446C138.75 89.8038 138.696 89.7461 138.658 89.6717C138.62 89.5968 138.601 89.5086 138.601 89.4072C138.601 89.3075 138.62 89.22 138.658 89.1447C138.697 89.069 138.75 89.0101 138.819 88.968C138.887 88.9255 138.968 88.9042 139.06 88.9042C139.12 88.9042 139.176 88.9139 139.229 88.9333C139.283 88.9522 139.33 88.9817 139.371 89.0216C139.412 89.0616 139.444 89.1125 139.468 89.1744C139.492 89.2358 139.503 89.309 139.503 89.394V89.464H138.709V89.31H139.284C139.284 89.2663 139.274 89.2274 139.256 89.1933C139.237 89.1588 139.212 89.1317 139.178 89.1119C139.145 89.0921 139.107 89.0822 139.063 89.0822C139.017 89.0822 138.976 89.0936 138.94 89.1163C138.905 89.1386 138.877 89.168 138.858 89.2046C138.838 89.2408 138.828 89.2806 138.828 89.3239V89.4583C138.828 89.5147 138.838 89.5631 138.859 89.6035C138.88 89.6435 138.908 89.6742 138.945 89.6956C138.982 89.7167 139.026 89.7272 139.075 89.7272C139.109 89.7272 139.139 89.7226 139.166 89.7133C139.193 89.7036 139.216 89.6895 139.236 89.671C139.256 89.6525 139.27 89.6296 139.281 89.6022L139.494 89.6262C139.48 89.6826 139.455 89.7318 139.417 89.7739C139.379 89.8155 139.331 89.8479 139.273 89.8711C139.214 89.8938 139.148 89.9052 139.072 89.9052ZM139.697 88.9169H139.925V89.9418C139.925 90.0116 139.912 90.0692 139.885 90.1147C139.859 90.1601 139.821 90.194 139.77 90.2163C139.72 90.2386 139.66 90.2497 139.588 90.2497C139.58 90.2497 139.572 90.2495 139.565 90.2491C139.558 90.2491 139.55 90.2489 139.541 90.2485V90.0623C139.548 90.0627 139.553 90.0629 139.558 90.0629C139.563 90.0634 139.569 90.0636 139.574 90.0636C139.618 90.0636 139.649 90.0528 139.668 90.0314C139.687 90.0103 139.697 89.9794 139.697 89.9386V88.9169ZM139.81 88.7793C139.774 88.7793 139.742 88.7673 139.716 88.7433C139.69 88.7189 139.678 88.6897 139.678 88.6556C139.678 88.6211 139.69 88.5919 139.716 88.5679C139.742 88.5435 139.774 88.5313 139.81 88.5313C139.846 88.5313 139.877 88.5435 139.903 88.5679C139.929 88.5919 139.942 88.6211 139.942 88.6556C139.942 88.6897 139.929 88.7189 139.903 88.7433C139.877 88.7673 139.846 88.7793 139.81 88.7793ZM140.589 89.9052C140.492 89.9052 140.408 89.885 140.337 89.8446C140.267 89.8038 140.213 89.7461 140.175 89.6717C140.137 89.5968 140.118 89.5086 140.118 89.4072C140.118 89.3075 140.137 89.22 140.175 89.1447C140.213 89.069 140.267 89.0101 140.335 88.968C140.404 88.9255 140.485 88.9042 140.577 88.9042C140.637 88.9042 140.693 88.9139 140.746 88.9333C140.8 88.9522 140.847 88.9817 140.888 89.0216C140.929 89.0616 140.961 89.1125 140.985 89.1744C141.008 89.2358 141.02 89.309 141.02 89.394V89.464H140.226V89.31H140.801C140.801 89.2663 140.791 89.2274 140.773 89.1933C140.754 89.1588 140.728 89.1317 140.695 89.1119C140.662 89.0921 140.624 89.0822 140.58 89.0822C140.534 89.0822 140.493 89.0936 140.457 89.1163C140.422 89.1386 140.394 89.168 140.375 89.2046C140.355 89.2408 140.345 89.2806 140.345 89.3239V89.4583C140.345 89.5147 140.355 89.5631 140.376 89.6035C140.396 89.6435 140.425 89.6742 140.462 89.6956C140.499 89.7167 140.543 89.7272 140.592 89.7272C140.626 89.7272 140.656 89.7226 140.683 89.7133C140.709 89.7036 140.733 89.6895 140.753 89.671C140.772 89.6525 140.787 89.6296 140.797 89.6022L141.011 89.6262C140.997 89.6826 140.972 89.7318 140.934 89.7739C140.896 89.8155 140.848 89.8479 140.79 89.8711C140.731 89.8938 140.664 89.9052 140.589 89.9052ZM141.636 89.9052C141.54 89.9052 141.456 89.8839 141.387 89.8414C141.318 89.7989 141.265 89.7402 141.227 89.6653C141.19 89.59 141.172 89.5034 141.172 89.4053C141.172 89.3069 141.191 89.22 141.229 89.1447C141.266 89.069 141.32 89.0101 141.389 88.968C141.458 88.9255 141.54 88.9042 141.635 88.9042C141.714 88.9042 141.783 88.9188 141.844 88.9478C141.905 88.9764 141.954 89.017 141.99 89.0696C142.026 89.1218 142.046 89.1828 142.052 89.2526H141.833C141.824 89.2059 141.803 89.167 141.77 89.1359C141.737 89.1043 141.693 89.0885 141.638 89.0885C141.591 89.0885 141.55 89.1011 141.515 89.1264C141.48 89.1512 141.452 89.187 141.432 89.2337C141.413 89.2804 141.403 89.3363 141.403 89.4015C141.403 89.4676 141.413 89.5244 141.432 89.5719C141.452 89.6191 141.479 89.6555 141.514 89.6811C141.549 89.7064 141.591 89.719 141.638 89.719C141.672 89.719 141.702 89.7127 141.728 89.7001C141.755 89.687 141.778 89.6683 141.796 89.6439C141.814 89.6195 141.826 89.5898 141.833 89.5549H142.052C142.046 89.6235 142.026 89.6843 141.991 89.7373C141.956 89.7899 141.908 89.8311 141.848 89.861C141.788 89.8904 141.717 89.9052 141.636 89.9052ZM142.723 88.9169V89.0936H142.166V88.9169H142.723ZM142.303 88.6846H142.532V89.5947C142.532 89.6254 142.537 89.6489 142.546 89.6653C142.556 89.6813 142.568 89.6923 142.584 89.6982C142.599 89.7041 142.617 89.707 142.635 89.707C142.65 89.707 142.663 89.7059 142.675 89.7038C142.687 89.7017 142.696 89.6998 142.702 89.6982L142.741 89.8768C142.729 89.881 142.711 89.8856 142.688 89.8906C142.666 89.8957 142.639 89.8986 142.606 89.8995C142.549 89.9012 142.498 89.8925 142.452 89.8736C142.406 89.8543 142.37 89.8244 142.343 89.784C142.316 89.7436 142.303 89.6931 142.303 89.6325V88.6846Z" fill="#F14B4B"/>
<path d="M132.694 75.2708C135.245 75.2708 137.314 73.1779 137.314 70.5962C137.314 68.0145 135.245 65.9216 132.694 65.9216C130.143 65.9216 128.074 68.0145 128.074 70.5962C128.074 73.1779 130.143 75.2708 132.694 75.2708Z" fill="white"/>
<path d="M132.79 75.183C133.123 75.183 133.45 75.1409 133.77 75.0513C133.9 75.0147 134.028 74.9727 134.151 74.9196C134.012 74.0217 133.801 73.1402 133.527 72.2806C133.397 71.8764 133.194 71.4192 132.781 71.3241C132.505 71.2619 132.212 71.3936 132.015 71.5984C131.819 71.8033 131.702 72.0703 131.599 72.3355C131.292 73.1365 131.089 73.9778 130.992 74.83C131.559 75.0495 132.188 75.1812 132.79 75.1812V75.183Z" fill="#ACD4F7"/>
<path d="M134.213 75.0347C134.16 75.0347 134.11 75.0054 134.086 74.9542C134.07 74.9177 134.07 74.8793 134.083 74.8445C133.958 74.016 133.765 73.2113 133.507 72.4523C133.298 71.8378 133.051 71.5068 132.753 71.4373C132.484 71.3751 132.217 71.5507 132.058 71.7354C131.853 71.9714 131.729 72.2859 131.625 72.5913C131.38 73.3083 131.217 74.0672 131.14 74.8482C131.133 74.925 131.063 74.9798 130.988 74.9725C130.911 74.9652 130.857 74.8975 130.864 74.8207C130.943 74.0179 131.111 73.2369 131.363 72.4999C131.477 72.1689 131.614 71.825 131.85 71.5525C132.12 71.2398 132.492 71.0917 132.819 71.1666C133.351 71.2892 133.62 71.9073 133.774 72.3627C134.044 73.1565 134.246 73.9996 134.372 74.8664C134.381 74.9268 134.35 74.9853 134.293 75.0128L134.273 75.0219C134.255 75.031 134.235 75.0347 134.214 75.0347H134.213Z" fill="black"/>
<g opacity="0.13">
<path d="M133.78 69.5282C133.736 69.402 133.546 69.3928 133.482 69.508C133.423 69.6489 133.483 69.8098 133.467 69.9598C133.476 69.9872 133.401 70.2579 133.359 70.3128C133.344 70.3384 133.372 70.3 133.381 70.289C133.368 70.3036 133.35 70.331 133.337 70.3475C133.332 70.3548 133.324 70.3621 133.319 70.3694C133.218 70.47 133.112 70.5651 133.008 70.6621C132.821 70.7681 132.863 70.7425 132.704 70.7992C132.662 70.812 132.622 70.8212 132.578 70.8285C132.574 70.8285 132.573 70.8285 132.567 70.8285C132.426 70.823 132.285 70.8376 132.145 70.8248C132.139 70.8248 132.134 70.8248 132.13 70.823C132.057 70.8102 131.98 70.7937 131.912 70.8358C131.757 70.9199 131.788 71.1742 131.962 71.2162C132.152 71.2638 132.348 71.3241 132.545 71.3058C132.79 71.2839 133.017 71.1687 133.225 71.0461C133.8 70.7517 133.946 69.9982 133.778 69.5282H133.78Z" fill="black"/>
</g>
<g opacity="0.13">
<path d="M133.569 74.1933C133.605 74.6725 133.626 74.5884 133.644 74.9029C133.649 74.9614 133.653 75.0218 133.655 75.0803C133.693 75.0712 133.733 75.0639 133.772 75.0529C133.922 75.0108 134.07 74.9614 134.213 74.8974C134.235 74.8883 134.257 74.8773 134.278 74.8645C134.24 74.6432 134.196 74.4036 134.147 74.1897C134.046 73.7324 133.927 73.2825 133.787 72.8363C133.669 72.4486 133.563 72.0535 133.377 71.6914C133.327 71.5908 133.263 71.4976 133.192 71.4116C133.154 71.3586 133.097 71.3129 133.028 71.3147C132.872 71.3092 132.786 71.5159 132.9 71.6238C133.424 72.2803 133.463 73.4197 133.569 74.1951V74.1933Z" fill="black"/>
</g>
<path d="M132.636 71.3935C132.442 71.3935 132.244 71.3624 132.056 71.2984C131.93 71.2563 131.833 71.2087 131.749 71.1484C131.577 71.0259 131.449 70.8393 131.359 70.5778C131.302 70.4168 131.273 70.2724 131.271 70.1315C131.268 69.9615 131.301 69.7822 131.372 69.5847C131.495 69.2519 131.688 68.9739 131.937 68.78C132.222 68.5569 132.577 68.4472 132.912 68.4819C133.241 68.5148 133.561 68.7343 133.786 69.0799C133.962 69.3506 134.055 69.6871 134.057 70.0529C134.057 70.1992 134.042 70.3272 134.011 70.4406C133.912 70.8101 133.609 71.1338 133.221 71.2874C133.04 71.3587 132.841 71.3935 132.636 71.3935ZM132.789 68.7544C132.553 68.7544 132.31 68.8422 132.109 68.9995C131.902 69.1622 131.738 69.3982 131.634 69.6816C131.573 69.8462 131.546 69.9907 131.549 70.1261C131.551 70.2358 131.575 70.3547 131.623 70.4863C131.694 70.6912 131.789 70.8338 131.911 70.9216C131.972 70.9655 132.045 71.0003 132.146 71.0332C132.473 71.1447 132.828 71.1411 133.119 71.0277C133.426 70.907 133.665 70.6528 133.742 70.3675C133.766 70.2779 133.779 70.1754 133.777 70.0529C133.777 69.7402 133.698 69.4567 133.552 69.2317C133.466 69.1019 133.232 68.7928 132.883 68.7581C132.852 68.7544 132.82 68.7526 132.789 68.7526V68.7544Z" fill="black"/>
<path d="M132.664 75.3421C130.061 75.3421 127.943 73.2243 127.943 70.6218C127.943 68.0193 130.061 65.9015 132.664 65.9015C135.266 65.9015 137.384 68.0193 137.384 70.6218C137.384 73.2243 135.266 75.3421 132.664 75.3421ZM132.664 66.1795C130.215 66.1795 128.221 68.1729 128.221 70.6218C128.221 73.0707 130.215 75.0641 132.664 75.0641C135.113 75.0641 137.106 73.0707 137.106 70.6218C137.106 68.1729 135.113 66.1795 132.664 66.1795Z" fill="black"/>
</g>
<g filter="url(#filter1_d_13600_78343)">
<rect x="19.9921" y="53.5054" width="65.2634" height="69.6143" rx="7.43667" fill="white"/>
<rect x="33.0444" y="83.9617" width="39.158" height="4.35089" rx="2.17545" fill="#D9D9D9"/>
<rect x="24.3428" y="91.9529" width="56.5616" height="0.934902" rx="0.467451" fill="#D9D9D9"/>
<rect x="24.3428" y="95.5737" width="56.5616" height="0.701177" rx="0.350588" fill="#D9D9D9"/>
<rect x="23.9323" y="106.044" width="53.8525" height="10.5078" rx="2.17545" fill="#EAF2FF"/>
<path d="M41.3039 112.671H40.728L41.7765 109.693H42.4426L43.4925 112.671H42.9167L42.1212 110.304H42.0979L41.3039 112.671ZM41.3228 111.504H42.8934V111.937H41.3228V111.504ZM44.7679 112.715C44.5449 112.715 44.3535 112.666 44.1935 112.568C44.0345 112.47 43.9119 112.335 43.8256 112.162C43.7402 111.989 43.6976 111.789 43.6976 111.563C43.6976 111.336 43.7412 111.136 43.8285 110.963C43.9157 110.788 44.0389 110.652 44.1979 110.555C44.3578 110.458 44.5469 110.409 44.765 110.409C44.9463 110.409 45.1068 110.442 45.2464 110.509C45.387 110.575 45.4989 110.668 45.5823 110.79C45.6657 110.91 45.7132 111.05 45.7248 111.211H45.2217C45.2013 111.104 45.1528 111.014 45.0762 110.942C45.0006 110.87 44.8993 110.833 44.7723 110.833C44.6647 110.833 44.5701 110.862 44.4887 110.92C44.4073 110.978 44.3438 111.06 44.2982 111.168C44.2536 111.275 44.2313 111.404 44.2313 111.555C44.2313 111.707 44.2536 111.838 44.2982 111.947C44.3428 112.056 44.4053 112.14 44.4858 112.199C44.5672 112.257 44.6627 112.286 44.7723 112.286C44.8499 112.286 44.9192 112.271 44.9803 112.242C45.0423 112.212 45.0942 112.169 45.1359 112.113C45.1775 112.057 45.2061 111.988 45.2217 111.908H45.7248C45.7122 112.066 45.6657 112.206 45.5852 112.328C45.5048 112.449 45.3952 112.544 45.2566 112.613C45.1179 112.681 44.955 112.715 44.7679 112.715ZM47.1315 112.715C46.9085 112.715 46.717 112.666 46.557 112.568C46.398 112.47 46.2754 112.335 46.1891 112.162C46.1038 111.989 46.0611 111.789 46.0611 111.563C46.0611 111.336 46.1048 111.136 46.192 110.963C46.2793 110.788 46.4024 110.652 46.5614 110.555C46.7214 110.458 46.9104 110.409 47.1286 110.409C47.3099 110.409 47.4703 110.442 47.6099 110.509C47.7505 110.575 47.8625 110.668 47.9459 110.79C48.0292 110.91 48.0767 111.05 48.0884 111.211H47.5852C47.5648 111.104 47.5164 111.014 47.4398 110.942C47.3642 110.87 47.2628 110.833 47.1358 110.833C47.0282 110.833 46.9337 110.862 46.8523 110.92C46.7708 110.978 46.7073 111.06 46.6617 111.168C46.6171 111.275 46.5948 111.404 46.5948 111.555C46.5948 111.707 46.6171 111.838 46.6617 111.947C46.7063 112.056 46.7689 112.14 46.8493 112.199C46.9308 112.257 47.0263 112.286 47.1358 112.286C47.2134 112.286 47.2827 112.271 47.3438 112.242C47.4058 112.212 47.4577 112.169 47.4994 112.113C47.5411 112.057 47.5697 111.988 47.5852 111.908H48.0884C48.0758 112.066 48.0292 112.206 47.9488 112.328C47.8683 112.449 47.7587 112.544 47.6201 112.613C47.4815 112.681 47.3186 112.715 47.1315 112.715ZM49.5096 112.715C49.2856 112.715 49.0922 112.668 48.9293 112.575C48.7674 112.481 48.6428 112.349 48.5556 112.177C48.4683 112.004 48.4247 111.801 48.4247 111.568C48.4247 111.338 48.4683 111.136 48.5556 110.963C48.6438 110.788 48.7669 110.652 48.9249 110.555C49.083 110.458 49.2686 110.409 49.4819 110.409C49.6196 110.409 49.7495 110.431 49.8717 110.475C49.9948 110.519 50.1034 110.587 50.1974 110.679C50.2924 110.771 50.3671 110.888 50.4214 111.031C50.4757 111.173 50.5028 111.341 50.5028 111.537V111.698H48.6719V111.344H49.9982C49.9972 111.243 49.9754 111.153 49.9327 111.075C49.8901 110.995 49.8305 110.933 49.7539 110.887C49.6783 110.841 49.59 110.819 49.4892 110.819C49.3816 110.819 49.2871 110.845 49.2056 110.897C49.1242 110.949 49.0607 111.016 49.0151 111.101C48.9705 111.184 48.9477 111.276 48.9468 111.376V111.685C48.9468 111.815 48.9705 111.927 49.018 112.02C49.0655 112.112 49.1319 112.183 49.2172 112.232C49.3026 112.281 49.4024 112.305 49.5168 112.305C49.5934 112.305 49.6627 112.294 49.7248 112.273C49.7868 112.251 49.8406 112.218 49.8862 112.175C49.9318 112.133 49.9662 112.08 49.9895 112.017L50.481 112.072C50.45 112.202 50.3908 112.316 50.3036 112.413C50.2173 112.509 50.1068 112.583 49.972 112.636C49.8373 112.689 49.6831 112.715 49.5096 112.715ZM50.9482 113.509V110.438H51.4659V110.807H51.4964C51.5236 110.753 51.5619 110.695 51.6113 110.634C51.6608 110.572 51.7277 110.519 51.812 110.475C51.8964 110.431 52.004 110.409 52.1349 110.409C52.3074 110.409 52.463 110.453 52.6017 110.541C52.7413 110.628 52.8518 110.758 52.9333 110.929C53.0157 111.1 53.0569 111.309 53.0569 111.557C53.0569 111.803 53.0166 112.011 52.9362 112.183C52.8557 112.354 52.7461 112.485 52.6075 112.575C52.4689 112.666 52.3118 112.711 52.1363 112.711C52.0083 112.711 51.9022 112.689 51.8178 112.647C51.7335 112.604 51.6656 112.553 51.6142 112.493C51.5638 112.431 51.5246 112.374 51.4964 112.319H51.4746V113.509H50.9482ZM51.4644 111.555C51.4644 111.699 51.4848 111.825 51.5255 111.934C51.5672 112.043 51.6268 112.127 51.7044 112.189C51.7829 112.249 51.8779 112.279 51.9894 112.279C52.1058 112.279 52.2032 112.248 52.2817 112.186C52.3603 112.123 52.4194 112.037 52.4592 111.928C52.4999 111.819 52.5202 111.694 52.5202 111.555C52.5202 111.416 52.5004 111.293 52.4606 111.185C52.4209 111.078 52.3617 110.993 52.2832 110.932C52.2047 110.871 52.1067 110.84 51.9894 110.84C51.877 110.84 51.7815 110.87 51.7029 110.929C51.6244 110.988 51.5648 111.071 51.5241 111.178C51.4843 111.285 51.4644 111.41 51.4644 111.555ZM54.6231 110.438V110.845H53.339V110.438H54.6231ZM53.656 109.902H54.1825V112C54.1825 112.07 54.1931 112.125 54.2145 112.162C54.2368 112.199 54.2658 112.224 54.3017 112.238C54.3376 112.252 54.3773 112.258 54.421 112.258C54.4539 112.258 54.484 112.256 54.5111 112.251C54.5392 112.246 54.5606 112.242 54.5751 112.238L54.6638 112.65C54.6357 112.659 54.5955 112.67 54.5431 112.682C54.4917 112.693 54.4287 112.7 54.3541 112.702C54.2222 112.706 54.1035 112.686 53.9978 112.642C53.8921 112.598 53.8082 112.529 53.7462 112.436C53.6851 112.343 53.6551 112.226 53.656 112.087V109.902ZM56.0283 112.715C55.8043 112.715 55.6109 112.668 55.448 112.575C55.2861 112.481 55.1616 112.349 55.0743 112.177C54.987 112.004 54.9434 111.801 54.9434 111.568C54.9434 111.338 54.987 111.136 55.0743 110.963C55.1625 110.788 55.2857 110.652 55.4437 110.555C55.6017 110.458 55.7874 110.409 56.0007 110.409C56.1383 110.409 56.2682 110.431 56.3904 110.475C56.5135 110.519 56.6221 110.587 56.7162 110.679C56.8112 110.771 56.8858 110.888 56.9401 111.031C56.9944 111.173 57.0216 111.341 57.0216 111.537V111.698H55.1906V111.344H56.5169C56.516 111.243 56.4941 111.153 56.4515 111.075C56.4088 110.995 56.3492 110.933 56.2726 110.887C56.197 110.841 56.1088 110.819 56.0079 110.819C55.9003 110.819 55.8058 110.845 55.7244 110.897C55.6429 110.949 55.5794 111.016 55.5338 111.101C55.4892 111.184 55.4665 111.276 55.4655 111.376V111.685C55.4655 111.815 55.4892 111.927 55.5368 112.02C55.5843 112.112 55.6507 112.183 55.736 112.232C55.8213 112.281 55.9212 112.305 56.0356 112.305C56.1122 112.305 56.1815 112.294 56.2435 112.273C56.3056 112.251 56.3594 112.218 56.4049 112.175C56.4505 112.133 56.4849 112.08 56.5082 112.017L56.9997 112.072C56.9687 112.202 56.9096 112.316 56.8223 112.413C56.736 112.509 56.6255 112.583 56.4908 112.636C56.356 112.689 56.2018 112.715 56.0283 112.715ZM58.2959 112.711C58.1204 112.711 57.9633 112.666 57.8247 112.575C57.686 112.485 57.5765 112.354 57.496 112.183C57.4155 112.011 57.3753 111.803 57.3753 111.557C57.3753 111.309 57.416 111.1 57.4975 110.929C57.5799 110.758 57.6909 110.628 57.8305 110.541C57.9701 110.453 58.1257 110.409 58.2973 110.409C58.4282 110.409 58.5358 110.431 58.6202 110.475C58.7045 110.519 58.7714 110.572 58.8208 110.634C58.8703 110.695 58.9086 110.753 58.9357 110.807H58.9575V109.693H59.4854V112.671H58.9677V112.319H58.9357C58.9086 112.374 58.8693 112.431 58.8179 112.493C58.7666 112.553 58.6987 112.604 58.6143 112.647C58.53 112.689 58.4238 112.711 58.2959 112.711ZM58.4427 112.279C58.5542 112.279 58.6492 112.249 58.7278 112.189C58.8063 112.127 58.8659 112.043 58.9066 111.934C58.9474 111.825 58.9677 111.699 58.9677 111.555C58.9677 111.41 58.9474 111.285 58.9066 111.178C58.8669 111.071 58.8078 110.988 58.7292 110.929C58.6517 110.87 58.5562 110.84 58.4427 110.84C58.3254 110.84 58.2275 110.871 58.149 110.932C58.0704 110.993 58.0113 111.078 57.9716 111.185C57.9318 111.293 57.9119 111.416 57.9119 111.555C57.9119 111.694 57.9318 111.819 57.9716 111.928C58.0123 112.037 58.0719 112.123 58.1504 112.186C58.2299 112.248 58.3274 112.279 58.4427 112.279Z" fill="#006FFD"/>
<path d="M52.693 79.4465C58.5724 79.4465 63.3385 74.6237 63.3385 68.6746C63.3385 62.7254 58.5724 57.9027 52.693 57.9027C46.8137 57.9027 42.0476 62.7254 42.0476 68.6746C42.0476 74.6237 46.8137 79.4465 52.693 79.4465Z" fill="white"/>
<path d="M52.9148 79.2441C53.6818 79.2441 54.4362 79.1472 55.1737 78.9407C55.4729 78.8564 55.7679 78.7595 56.0503 78.6373C55.73 76.568 55.2453 74.5367 54.6132 72.556C54.314 71.6246 53.8462 70.571 52.8937 70.3519C52.2574 70.2086 51.5831 70.512 51.1279 70.984C50.677 71.456 50.4073 72.0713 50.1713 72.6824C49.4633 74.5283 48.9955 76.4669 48.7721 78.4308C50.0785 78.9365 51.5283 79.2399 52.9148 79.2399V79.2441Z" fill="#ACD4F7"/>
<path d="M56.1932 78.9027C56.071 78.9027 55.9572 78.8353 55.9024 78.7173C55.8645 78.633 55.8645 78.5445 55.894 78.4645C55.6074 76.5554 55.1607 74.701 54.5665 72.9521C54.086 71.5361 53.5171 70.7733 52.8301 70.6131C52.2106 70.4698 51.5953 70.8744 51.2287 71.3001C50.7567 71.8437 50.4701 72.5686 50.2299 73.2724C49.6652 74.9244 49.2901 76.6734 49.1131 78.4729C49.0962 78.6499 48.9361 78.7763 48.7633 78.7595C48.5863 78.7426 48.4599 78.5867 48.4767 78.4097C48.6579 76.5596 49.0457 74.76 49.6272 73.0617C49.8885 72.2989 50.2046 71.5066 50.7483 70.8786C51.372 70.158 52.2275 69.8166 52.9819 69.9894C54.2082 70.2718 54.8277 71.6962 55.1818 72.7456C55.8055 74.5746 56.2691 76.5174 56.5598 78.515C56.5809 78.6541 56.5093 78.789 56.3786 78.8522L56.3323 78.8733C56.2901 78.8943 56.2438 78.9027 56.1974 78.9027H56.1932Z" fill="black"/>
<g opacity="0.13">
<path d="M55.1955 66.2135C55.0944 65.9227 54.6561 65.9016 54.5086 66.1672C54.3737 66.4917 54.5128 66.8625 54.4749 67.2081C54.496 67.2713 54.3232 67.895 54.2262 68.0215C54.1925 68.0805 54.2557 67.992 54.2768 67.9667C54.2473 68.0004 54.2052 68.0636 54.1757 68.1015C54.163 68.1184 54.1462 68.1353 54.1335 68.1521C53.9017 68.3839 53.6573 68.6031 53.4171 68.8264C52.9872 69.0708 53.0841 69.0118 52.7175 69.1425C52.6206 69.172 52.5279 69.1931 52.4267 69.2099C52.4183 69.2099 52.4141 69.2099 52.4014 69.2099C52.0769 69.1973 51.7524 69.231 51.4279 69.2015C51.4153 69.2015 51.4026 69.2015 51.3942 69.1973C51.2256 69.1678 51.0486 69.1298 50.8927 69.2268C50.5345 69.4206 50.6061 70.0064 51.0065 70.1034C51.4448 70.2129 51.8957 70.352 52.3509 70.3099C52.9156 70.2593 53.4382 69.9938 53.9186 69.7114C55.2419 69.0329 55.5791 67.2966 55.1913 66.2135H55.1955Z" fill="black"/>
</g>
<g opacity="0.13">
<path d="M54.7093 76.9638C54.7936 78.068 54.84 77.8741 54.8821 78.599C54.8948 78.7339 54.9032 78.8729 54.9074 79.0078C54.9959 78.9867 55.0886 78.9699 55.1771 78.9446C55.5227 78.8476 55.8641 78.7339 56.1928 78.5864C56.2434 78.5653 56.2939 78.54 56.3445 78.5105C56.256 78.0006 56.1549 77.4485 56.0411 76.9554C55.8093 75.9018 55.5354 74.8651 55.2109 73.8368C54.9411 72.9433 54.6967 72.033 54.2668 71.1986C54.1531 70.9668 54.0056 70.7519 53.8412 70.5538C53.7527 70.4316 53.6221 70.3262 53.4619 70.3304C53.1037 70.3178 52.9056 70.794 53.1669 71.0427C54.3764 72.5556 54.4649 75.1812 54.7093 76.968V76.9638Z" fill="black"/>
</g>
<path d="M52.5593 70.512C52.1126 70.512 51.6575 70.4404 51.2234 70.2929C50.9326 70.1959 50.7092 70.0864 50.5154 69.9473C50.1192 69.6649 49.8242 69.2351 49.6177 68.6324C49.4871 68.2616 49.4196 67.9286 49.4154 67.6041C49.407 67.2122 49.4829 66.7992 49.6472 66.344C49.9296 65.577 50.3763 64.9364 50.9495 64.4897C51.6069 63.9756 52.4245 63.7227 53.1957 63.8028C53.9543 63.8786 54.6918 64.3844 55.2102 65.1809C55.6147 65.8046 55.8297 66.58 55.8339 67.4229C55.8339 67.76 55.8002 68.0551 55.7285 68.3163C55.5009 69.1676 54.8014 69.9136 53.9079 70.2676C53.4907 70.4319 53.0313 70.512 52.5593 70.512ZM52.9133 64.4307C52.3697 64.4307 51.8092 64.633 51.3456 64.9954C50.8694 65.3705 50.4901 65.9142 50.2499 66.5674C50.1108 66.9467 50.0476 67.2796 50.056 67.5915C50.0602 67.8443 50.115 68.1183 50.2246 68.4217C50.3889 68.8937 50.6081 69.2224 50.8904 69.4247C51.0295 69.5259 51.1981 69.6059 51.4299 69.6818C52.1843 69.9389 53.0018 69.9304 53.6719 69.6692C54.3799 69.391 54.932 68.8052 55.109 68.1478C55.1638 67.9413 55.1933 67.7053 55.1891 67.4229C55.1891 66.7022 55.0079 66.049 54.6707 65.5307C54.4726 65.2314 53.9332 64.5192 53.1283 64.4391C53.0566 64.4307 52.985 64.4265 52.9133 64.4265V64.4307Z" fill="black"/>
<path d="M52.6236 79.6107C46.6266 79.6107 41.7463 74.7305 41.7463 68.7334C41.7463 62.7364 46.6266 57.8562 52.6236 57.8562C58.6206 57.8562 63.5008 62.7364 63.5008 68.7334C63.5008 74.7305 58.6206 79.6107 52.6236 79.6107ZM52.6236 58.4968C46.9806 58.4968 42.3869 63.0904 42.3869 68.7334C42.3869 74.3764 46.9806 78.9701 52.6236 78.9701C58.2666 78.9701 62.8602 74.3764 62.8602 68.7334C62.8602 63.0904 58.2666 58.4968 52.6236 58.4968Z" fill="black"/>
</g>
<g filter="url(#filter2_d_13600_78343)">
<rect x="148.713" y="64.0132" width="28.3218" height="30.21" rx="3.22723" fill="white"/>
<rect x="154.377" y="77.2302" width="16.9931" height="1.88812" rx="0.944061" fill="#D9D9D9"/>
<rect x="150.601" y="80.6981" width="24.5456" height="0.405712" rx="0.202856" fill="#D9D9D9"/>
<rect x="150.601" y="82.2695" width="24.5456" height="0.304284" rx="0.152142" fill="#D9D9D9"/>
<rect x="150.601" y="86.6708" width="11.9954" height="4.55387" rx="0.944062" fill="#EAF2FF"/>
<path d="M153.727 89.7993H153.477L153.932 88.5068H154.221L154.676 89.7993H154.426L154.081 88.7719H154.071L153.727 89.7993ZM153.735 89.2925H154.416V89.4806H153.735V89.2925ZM155.23 89.8182C155.133 89.8182 155.05 89.797 154.981 89.7545C154.912 89.712 154.858 89.6533 154.821 89.5784C154.784 89.5031 154.765 89.4165 154.765 89.3184C154.765 89.22 154.784 89.1331 154.822 89.0578C154.86 88.982 154.913 88.9231 154.982 88.8811C155.052 88.8386 155.134 88.8173 155.229 88.8173C155.307 88.8173 155.377 88.8318 155.437 88.8609C155.498 88.8895 155.547 88.9301 155.583 88.9827C155.619 89.0348 155.64 89.0959 155.645 89.1657H155.427C155.418 89.119 155.397 89.0801 155.364 89.0489C155.331 89.0174 155.287 89.0016 155.232 89.0016C155.185 89.0016 155.144 89.0142 155.109 89.0395C155.073 89.0643 155.046 89.1001 155.026 89.1468C155.007 89.1935 154.997 89.2494 154.997 89.3146C154.997 89.3807 155.007 89.4375 155.026 89.485C155.045 89.5322 155.072 89.5685 155.107 89.5942C155.143 89.6195 155.184 89.6321 155.232 89.6321C155.265 89.6321 155.295 89.6258 155.322 89.6131C155.349 89.6001 155.371 89.5814 155.39 89.557C155.408 89.5326 155.42 89.5029 155.427 89.468H155.645C155.64 89.5366 155.619 89.5974 155.585 89.6504C155.55 89.703 155.502 89.7442 155.442 89.7741C155.382 89.8035 155.311 89.8182 155.23 89.8182ZM156.256 89.8182C156.159 89.8182 156.076 89.797 156.006 89.7545C155.937 89.712 155.884 89.6533 155.847 89.5784C155.81 89.5031 155.791 89.4165 155.791 89.3184C155.791 89.22 155.81 89.1331 155.848 89.0578C155.886 88.982 155.939 88.9231 156.008 88.8811C156.078 88.8386 156.16 88.8173 156.254 88.8173C156.333 88.8173 156.403 88.8318 156.463 88.8609C156.524 88.8895 156.573 88.9301 156.609 88.9827C156.645 89.0348 156.666 89.0959 156.671 89.1657H156.452C156.444 89.119 156.423 89.0801 156.389 89.0489C156.356 89.0174 156.313 89.0016 156.257 89.0016C156.211 89.0016 156.17 89.0142 156.134 89.0395C156.099 89.0643 156.071 89.1001 156.052 89.1468C156.032 89.1935 156.023 89.2494 156.023 89.3146C156.023 89.3807 156.032 89.4375 156.052 89.485C156.071 89.5322 156.098 89.5685 156.133 89.5942C156.168 89.6195 156.21 89.6321 156.257 89.6321C156.291 89.6321 156.321 89.6258 156.348 89.6131C156.375 89.6001 156.397 89.5814 156.415 89.557C156.433 89.5326 156.446 89.5029 156.452 89.468H156.671C156.665 89.5366 156.645 89.5974 156.61 89.6504C156.575 89.703 156.528 89.7442 156.468 89.7741C156.407 89.8035 156.337 89.8182 156.256 89.8182ZM157.288 89.8182C157.19 89.8182 157.106 89.7981 157.036 89.7577C156.965 89.7169 156.911 89.6592 156.874 89.5847C156.836 89.5099 156.817 89.4217 156.817 89.3203C156.817 89.2206 156.836 89.1331 156.874 89.0578C156.912 88.982 156.965 88.9231 157.034 88.8811C157.102 88.8386 157.183 88.8173 157.276 88.8173C157.335 88.8173 157.392 88.827 157.445 88.8464C157.498 88.8653 157.545 88.8947 157.586 88.9347C157.627 88.9747 157.66 89.0256 157.683 89.0874C157.707 89.1489 157.719 89.2221 157.719 89.3071V89.3771H156.924V89.2231H157.5C157.499 89.1794 157.49 89.1405 157.471 89.1064C157.453 89.0719 157.427 89.0447 157.394 89.025C157.361 89.0052 157.322 88.9953 157.279 88.9953C157.232 88.9953 157.191 89.0067 157.156 89.0294C157.12 89.0517 157.093 89.0811 157.073 89.1177C157.054 89.1539 157.044 89.1937 157.043 89.237V89.3714C157.043 89.4278 157.054 89.4762 157.074 89.5166C157.095 89.5566 157.124 89.5873 157.161 89.6087C157.198 89.6298 157.241 89.6403 157.291 89.6403C157.324 89.6403 157.354 89.6357 157.381 89.6264C157.408 89.6167 157.431 89.6026 157.451 89.5841C157.471 89.5656 157.486 89.5427 157.496 89.5153L157.709 89.5393C157.696 89.5957 157.67 89.6449 157.632 89.687C157.595 89.7286 157.547 89.761 157.488 89.7842C157.43 89.8069 157.363 89.8182 157.288 89.8182ZM157.912 90.1628V88.83H158.137V88.9903H158.15C158.162 88.9667 158.178 88.9417 158.2 88.9152C158.221 88.8882 158.25 88.8653 158.287 88.8464C158.323 88.827 158.37 88.8173 158.427 88.8173C158.502 88.8173 158.569 88.8365 158.629 88.8748C158.69 88.9126 158.738 88.9688 158.773 89.0433C158.809 89.1173 158.827 89.2082 158.827 89.3159C158.827 89.4223 158.809 89.5128 158.775 89.5873C158.74 89.6617 158.692 89.7185 158.632 89.7577C158.572 89.7968 158.504 89.8164 158.427 89.8164C158.372 89.8164 158.326 89.8071 158.289 89.7886C158.253 89.7701 158.223 89.7478 158.201 89.7217C158.179 89.6952 158.162 89.6702 158.15 89.6466H158.14V90.1628H157.912ZM158.136 89.3146C158.136 89.3773 158.145 89.4322 158.162 89.4794C158.18 89.5265 158.206 89.5633 158.24 89.5898C158.274 89.6159 158.315 89.6289 158.364 89.6289C158.414 89.6289 158.456 89.6155 158.491 89.5885C158.525 89.5612 158.55 89.5239 158.568 89.4768C158.585 89.4293 158.594 89.3752 158.594 89.3146C158.594 89.2545 158.585 89.201 158.568 89.1543C158.551 89.1076 158.525 89.071 158.491 89.0445C158.457 89.018 158.415 89.0048 158.364 89.0048C158.315 89.0048 158.273 89.0176 158.239 89.0433C158.205 89.0689 158.179 89.1049 158.162 89.1512C158.144 89.1975 158.136 89.2519 158.136 89.3146ZM159.507 88.83V89.0067H158.949V88.83H159.507ZM159.087 88.5977H159.315V89.5078C159.315 89.5385 159.32 89.562 159.329 89.5784C159.339 89.5944 159.352 89.6054 159.367 89.6112C159.383 89.6171 159.4 89.6201 159.419 89.6201C159.433 89.6201 159.446 89.619 159.458 89.6169C159.47 89.6148 159.479 89.6129 159.486 89.6112L159.524 89.7898C159.512 89.7941 159.495 89.7987 159.472 89.8037C159.45 89.8088 159.422 89.8117 159.39 89.8126C159.333 89.8143 159.281 89.8056 159.235 89.7867C159.189 89.7673 159.153 89.7375 159.126 89.6971C159.1 89.6567 159.087 89.6062 159.087 89.5456V88.5977Z" fill="#006FFD"/>
<rect x="165.28" y="86.6708" width="10.1073" height="4.55387" rx="0.944062" fill="#F14B4B" fill-opacity="0.3"/>
<path d="M167.721 89.8862V88.5937H168.206C168.305 88.5937 168.389 88.611 168.456 88.6455C168.524 88.68 168.575 88.7284 168.609 88.7906C168.644 88.8525 168.662 88.9247 168.662 89.0071C168.662 89.09 168.644 89.1619 168.609 89.2229C168.574 89.2835 168.522 89.3304 168.454 89.3637C168.386 89.3965 168.302 89.4129 168.203 89.4129H167.858V89.2185H168.171C168.23 89.2185 168.277 89.2105 168.314 89.1945C168.351 89.1781 168.378 89.1544 168.396 89.1232C168.414 89.0917 168.423 89.053 168.423 89.0071C168.423 88.9613 168.414 88.9221 168.396 88.8897C168.378 88.8569 168.35 88.8321 168.313 88.8153C168.276 88.798 168.229 88.7894 168.17 88.7894H167.956V89.8862H167.721ZM168.389 89.3006L168.709 89.8862H168.448L168.134 89.3006H168.389ZM169.282 89.9052C169.185 89.9052 169.101 89.885 169.031 89.8446C168.96 89.8038 168.906 89.7461 168.868 89.6717C168.831 89.5968 168.812 89.5086 168.812 89.4072C168.812 89.3075 168.831 89.22 168.868 89.1447C168.907 89.069 168.96 89.0101 169.029 88.968C169.097 88.9255 169.178 88.9042 169.27 88.9042C169.33 88.9042 169.387 88.9139 169.44 88.9333C169.493 88.9522 169.54 88.9817 169.581 89.0216C169.622 89.0616 169.655 89.1125 169.678 89.1744C169.702 89.2358 169.714 89.309 169.714 89.394V89.464H168.919V89.31H169.495C169.494 89.2663 169.485 89.2274 169.466 89.1933C169.448 89.1588 169.422 89.1317 169.389 89.1119C169.356 89.0921 169.317 89.0822 169.274 89.0822C169.227 89.0822 169.186 89.0936 169.151 89.1163C169.115 89.1386 169.088 89.168 169.068 89.2046C169.049 89.2408 169.039 89.2806 169.038 89.3239V89.4583C169.038 89.5147 169.049 89.5631 169.069 89.6035C169.09 89.6435 169.119 89.6742 169.156 89.6956C169.193 89.7167 169.236 89.7272 169.286 89.7272C169.319 89.7272 169.349 89.7226 169.376 89.7133C169.403 89.7036 169.426 89.6895 169.446 89.671C169.466 89.6525 169.481 89.6296 169.491 89.6022L169.704 89.6262C169.691 89.6826 169.665 89.7318 169.627 89.7739C169.59 89.8155 169.542 89.8479 169.483 89.8711C169.425 89.8938 169.358 89.9052 169.282 89.9052ZM169.907 88.9169H170.135V89.9418C170.135 90.0116 170.122 90.0692 170.095 90.1147C170.069 90.1601 170.031 90.194 169.981 90.2163C169.931 90.2386 169.87 90.2497 169.798 90.2497C169.79 90.2497 169.782 90.2495 169.775 90.2491C169.768 90.2491 169.76 90.2489 169.752 90.2485V90.0623C169.758 90.0627 169.764 90.0629 169.769 90.0629C169.774 90.0634 169.779 90.0636 169.784 90.0636C169.828 90.0636 169.859 90.0528 169.878 90.0314C169.897 90.0103 169.907 89.9794 169.907 89.9386V88.9169ZM170.02 88.7793C169.984 88.7793 169.952 88.7673 169.926 88.7433C169.901 88.7189 169.888 88.6897 169.888 88.6556C169.888 88.6211 169.901 88.5919 169.926 88.5679C169.952 88.5435 169.984 88.5313 170.02 88.5313C170.057 88.5313 170.088 88.5435 170.113 88.5679C170.139 88.5919 170.152 88.6211 170.152 88.6556C170.152 88.6897 170.139 88.7189 170.113 88.7433C170.088 88.7673 170.057 88.7793 170.02 88.7793ZM170.799 89.9052C170.702 89.9052 170.618 89.885 170.548 89.8446C170.477 89.8038 170.423 89.7461 170.385 89.6717C170.347 89.5968 170.329 89.5086 170.329 89.4072C170.329 89.3075 170.347 89.22 170.385 89.1447C170.424 89.069 170.477 89.0101 170.546 88.968C170.614 88.9255 170.695 88.9042 170.787 88.9042C170.847 88.9042 170.903 88.9139 170.956 88.9333C171.01 88.9522 171.057 88.9817 171.098 89.0216C171.139 89.0616 171.171 89.1125 171.195 89.1744C171.219 89.2358 171.23 89.309 171.23 89.394V89.464H170.436V89.31H171.011C171.011 89.2663 171.001 89.2274 170.983 89.1933C170.964 89.1588 170.939 89.1317 170.905 89.1119C170.873 89.0921 170.834 89.0822 170.79 89.0822C170.744 89.0822 170.703 89.0936 170.667 89.1163C170.632 89.1386 170.605 89.168 170.585 89.2046C170.565 89.2408 170.556 89.2806 170.555 89.3239V89.4583C170.555 89.5147 170.565 89.5631 170.586 89.6035C170.607 89.6435 170.635 89.6742 170.672 89.6956C170.71 89.7167 170.753 89.7272 170.802 89.7272C170.836 89.7272 170.866 89.7226 170.893 89.7133C170.92 89.7036 170.943 89.6895 170.963 89.671C170.983 89.6525 170.997 89.6296 171.008 89.6022L171.221 89.6262C171.207 89.6826 171.182 89.7318 171.144 89.7739C171.106 89.8155 171.058 89.8479 171 89.8711C170.942 89.8938 170.875 89.9052 170.799 89.9052ZM171.846 89.9052C171.75 89.9052 171.667 89.8839 171.597 89.8414C171.528 89.7989 171.475 89.7402 171.438 89.6653C171.401 89.59 171.382 89.5034 171.382 89.4053C171.382 89.3069 171.401 89.22 171.439 89.1447C171.477 89.069 171.53 89.0101 171.599 88.968C171.669 88.9255 171.751 88.9042 171.845 88.9042C171.924 88.9042 171.994 88.9188 172.054 88.9478C172.115 88.9764 172.164 89.017 172.2 89.0696C172.236 89.1218 172.257 89.1828 172.262 89.2526H172.043C172.035 89.2059 172.014 89.167 171.98 89.1359C171.947 89.1043 171.903 89.0885 171.848 89.0885C171.802 89.0885 171.761 89.1011 171.725 89.1264C171.69 89.1512 171.662 89.187 171.643 89.2337C171.623 89.2804 171.614 89.3363 171.614 89.4015C171.614 89.4676 171.623 89.5244 171.643 89.5719C171.662 89.6191 171.689 89.6555 171.724 89.6811C171.759 89.7064 171.801 89.719 171.848 89.719C171.882 89.719 171.912 89.7127 171.939 89.7001C171.966 89.687 171.988 89.6683 172.006 89.6439C172.024 89.6195 172.037 89.5898 172.043 89.5549H172.262C172.256 89.6235 172.236 89.6843 172.201 89.7373C172.166 89.7899 172.119 89.8311 172.059 89.861C171.998 89.8904 171.928 89.9052 171.846 89.9052ZM172.933 88.9169V89.0936H172.376V88.9169H172.933ZM172.514 88.6846H172.742V89.5947C172.742 89.6254 172.747 89.6489 172.756 89.6653C172.766 89.6813 172.778 89.6923 172.794 89.6982C172.809 89.7041 172.827 89.707 172.846 89.707C172.86 89.707 172.873 89.7059 172.885 89.7038C172.897 89.7017 172.906 89.6998 172.913 89.6982L172.951 89.8768C172.939 89.881 172.921 89.8856 172.899 89.8906C172.876 89.8957 172.849 89.8986 172.817 89.8995C172.759 89.9012 172.708 89.8925 172.662 89.8736C172.616 89.8543 172.58 89.8244 172.553 89.784C172.526 89.7436 172.513 89.6931 172.514 89.6325V88.6846Z" fill="#F14B4B"/>
<path d="M164.046 75.5586C163.98 75.5586 163.922 75.5087 163.913 75.441C163.795 74.5878 163.598 73.7507 163.325 72.9527C163.122 72.3543 162.881 72.0319 162.591 71.9642C162.328 71.9036 162.069 72.0746 161.914 72.2545C161.715 72.4843 161.594 72.7906 161.492 73.0881C161.248 73.8023 161.086 74.5789 161.013 75.3947C161.006 75.4695 160.938 75.5247 160.865 75.5176C160.79 75.5105 160.735 75.4446 160.742 75.3698C160.817 74.5326 160.983 73.7346 161.236 72.999C161.346 72.6766 161.48 72.3418 161.709 72.0764C161.973 71.7718 162.335 71.6275 162.653 71.7006C163.172 71.8199 163.434 72.4219 163.583 72.8654C163.861 73.6794 164.062 74.5326 164.184 75.4036C164.194 75.4784 164.143 75.5461 164.068 75.5568C164.061 75.5568 164.055 75.5568 164.048 75.5568L164.046 75.5586Z" fill="black"/>
<path d="M161.733 73.5156C161.722 73.5156 161.712 73.5121 161.703 73.5049C161.685 73.4889 161.683 73.4604 161.699 73.4408C162.029 73.0739 162.369 72.707 162.707 72.3508C162.725 72.3329 162.754 72.3329 162.772 72.3508C162.789 72.3686 162.791 72.3971 162.772 72.4149C162.433 72.7711 162.095 73.1363 161.765 73.5032C161.756 73.5139 161.744 73.5174 161.731 73.5174L161.733 73.5156Z" fill="black"/>
<path d="M161.407 74.6982C161.397 74.6982 161.386 74.6947 161.379 74.6875C161.359 74.6715 161.357 74.643 161.373 74.6234C161.888 74.0125 162.446 73.4265 163.032 72.8832C163.049 72.8654 163.078 72.8672 163.096 72.885C163.114 72.9028 163.112 72.9313 163.094 72.9491C162.512 73.4906 161.956 74.073 161.443 74.6804C161.434 74.6911 161.421 74.6964 161.409 74.6964L161.407 74.6982Z" fill="black"/>
<path d="M161.469 75.5959C161.458 75.5959 161.446 75.5923 161.439 75.5834C161.421 75.5656 161.419 75.5371 161.439 75.5193L163.247 73.6099C163.265 73.592 163.293 73.5903 163.311 73.6099C163.329 73.6277 163.33 73.6562 163.311 73.674L161.503 75.5834C161.494 75.5923 161.482 75.5976 161.471 75.5976L161.469 75.5959Z" fill="black"/>
<path d="M162.431 75.6992C162.42 75.6992 162.408 75.6956 162.399 75.6867C162.381 75.6689 162.381 75.6404 162.399 75.6226C162.775 75.245 163.145 74.8513 163.501 74.4541C163.517 74.4363 163.546 74.4345 163.566 74.4506C163.583 74.4666 163.585 74.4951 163.569 74.5147C163.213 74.9137 162.841 75.3073 162.463 75.6867C162.454 75.6956 162.443 75.6992 162.431 75.6992Z" fill="black"/>
<g opacity="0.13">
<path d="M163.722 70.1402C163.649 70.0654 163.519 70.0654 163.446 70.1402C163.348 70.272 163.409 70.3165 163.336 70.5232C163.257 70.8242 162.867 71.0949 162.718 71.1626C162.493 71.2534 162.42 71.2534 162.305 71.2606C162.08 71.2677 162.119 71.2606 161.872 71.2036C161.809 71.1822 161.841 71.1964 161.726 71.1359C161.686 71.1127 161.637 71.1056 161.592 71.1181C161.448 71.1519 161.419 71.3656 161.551 71.4369C162.301 71.9427 163.029 71.7967 163.573 70.988C163.678 70.8028 163.751 70.5962 163.77 70.3824C163.785 70.2987 163.795 70.2008 163.726 70.1384L163.722 70.1402Z" fill="black"/>
</g>
<g opacity="0.13">
<path d="M163 73.528C163.21 74.3063 163.24 74.6857 163.276 75.4926C163.281 75.5264 163.285 75.5585 163.29 75.5923C163.29 75.6048 163.292 75.6191 163.293 75.6315C163.363 75.6226 163.432 75.6137 163.502 75.6048C163.625 75.5763 163.748 75.5443 163.869 75.5122C163.915 75.489 163.961 75.4659 164.008 75.4427C163.981 75.2486 163.94 75.0562 163.897 74.8638C163.744 74.0356 163.643 73.17 163.229 72.4219C163.106 72.1707 162.948 71.9125 162.697 71.7753C162.43 71.6489 162.184 72.0176 162.396 72.2224C162.618 72.4237 162.577 72.3898 162.72 72.6641C162.887 72.9527 162.891 73.1058 163 73.528Z" fill="black"/>
</g>
<path d="M162.477 71.9214C162.289 71.9214 162.096 71.8911 161.913 71.8287C161.79 71.7878 161.695 71.7415 161.613 71.6827C161.446 71.5633 161.321 71.3817 161.234 71.127C161.179 70.9702 161.15 70.8295 161.149 70.6924C161.145 70.5267 161.177 70.3522 161.247 70.1598C161.366 69.8356 161.555 69.5649 161.797 69.3761C162.075 69.1588 162.42 69.0519 162.746 69.0857C163.067 69.1178 163.379 69.3316 163.598 69.6682C163.769 69.9318 163.86 70.2595 163.861 70.6158C163.861 70.7583 163.847 70.8812 163.817 70.9934C163.721 71.3532 163.425 71.6684 163.047 71.818C162.871 71.8875 162.677 71.9214 162.477 71.9214ZM162.627 69.3511C162.397 69.3511 162.16 69.4366 161.964 69.5898C161.763 69.7483 161.603 69.9781 161.501 70.2542C161.442 70.4145 161.416 70.5552 161.419 70.687C161.421 70.7939 161.444 70.9097 161.491 71.0379C161.56 71.2374 161.653 71.3763 161.772 71.4618C161.831 71.5046 161.902 71.5384 162 71.5705C162.319 71.6791 162.664 71.6756 162.948 71.5651C163.247 71.4476 163.48 71.2 163.555 70.9221C163.578 70.8348 163.591 70.7333 163.589 70.6158C163.589 70.3112 163.512 70.0351 163.37 69.816C163.286 69.6896 163.058 69.3885 162.718 69.3547C162.688 69.3511 162.657 69.3494 162.627 69.3494V69.3511Z" fill="black"/>
<path d="M162.504 75.8346C159.97 75.8346 157.907 73.772 157.907 71.2374C157.907 68.7028 159.97 66.6403 162.504 66.6403C165.039 66.6403 167.101 68.7028 167.101 71.2374C167.101 73.772 165.039 75.8346 162.504 75.8346ZM162.504 66.911C160.119 66.911 158.178 68.8525 158.178 71.2374C158.178 73.6224 160.119 75.5639 162.504 75.5639C164.889 75.5639 166.831 73.6224 166.831 71.2374C166.831 68.8525 164.889 66.911 162.504 66.911Z" fill="black"/>
</g>
<g filter="url(#filter3_d_13600_78343)">
<rect x="178.923" y="64.0132" width="28.3218" height="30.21" rx="3.22723" fill="white"/>
<rect x="184.587" y="77.2302" width="16.9931" height="1.88812" rx="0.944061" fill="#D9D9D9"/>
<rect x="180.811" y="80.6981" width="24.5456" height="0.405712" rx="0.202856" fill="#D9D9D9"/>
<rect x="180.811" y="82.2695" width="24.5456" height="0.304284" rx="0.152142" fill="#D9D9D9"/>
<rect x="180.811" y="86.6708" width="11.9954" height="4.55387" rx="0.944062" fill="#EAF2FF"/>
<path d="M183.937 89.7993H183.687L184.142 88.5068H184.431L184.887 89.7993H184.637L184.291 88.7719H184.281L183.937 89.7993ZM183.945 89.2925H184.627V89.4806H183.945V89.2925ZM185.44 89.8182C185.343 89.8182 185.26 89.797 185.191 89.7545C185.122 89.712 185.069 89.6533 185.031 89.5784C184.994 89.5031 184.976 89.4165 184.976 89.3184C184.976 89.22 184.994 89.1331 185.032 89.0578C185.07 88.982 185.124 88.9231 185.193 88.8811C185.262 88.8386 185.344 88.8173 185.439 88.8173C185.517 88.8173 185.587 88.8318 185.648 88.8609C185.709 88.8895 185.757 88.9301 185.793 88.9827C185.83 89.0348 185.85 89.0959 185.855 89.1657H185.637C185.628 89.119 185.607 89.0801 185.574 89.0489C185.541 89.0174 185.497 89.0016 185.442 89.0016C185.395 89.0016 185.354 89.0142 185.319 89.0395C185.284 89.0643 185.256 89.1001 185.236 89.1468C185.217 89.1935 185.207 89.2494 185.207 89.3146C185.207 89.3807 185.217 89.4375 185.236 89.485C185.256 89.5322 185.283 89.5685 185.318 89.5942C185.353 89.6195 185.394 89.6321 185.442 89.6321C185.476 89.6321 185.506 89.6258 185.532 89.6131C185.559 89.6001 185.582 89.5814 185.6 89.557C185.618 89.5326 185.63 89.5029 185.637 89.468H185.855C185.85 89.5366 185.83 89.5974 185.795 89.6504C185.76 89.703 185.712 89.7442 185.652 89.7741C185.592 89.8035 185.521 89.8182 185.44 89.8182ZM186.466 89.8182C186.369 89.8182 186.286 89.797 186.216 89.7545C186.147 89.712 186.094 89.6533 186.057 89.5784C186.02 89.5031 186.001 89.4165 186.001 89.3184C186.001 89.22 186.02 89.1331 186.058 89.0578C186.096 88.982 186.149 88.9231 186.218 88.8811C186.288 88.8386 186.37 88.8173 186.464 88.8173C186.543 88.8173 186.613 88.8318 186.673 88.8609C186.734 88.8895 186.783 88.9301 186.819 88.9827C186.855 89.0348 186.876 89.0959 186.881 89.1657H186.663C186.654 89.119 186.633 89.0801 186.6 89.0489C186.567 89.0174 186.523 89.0016 186.468 89.0016C186.421 89.0016 186.38 89.0142 186.345 89.0395C186.309 89.0643 186.282 89.1001 186.262 89.1468C186.243 89.1935 186.233 89.2494 186.233 89.3146C186.233 89.3807 186.243 89.4375 186.262 89.485C186.281 89.5322 186.308 89.5685 186.343 89.5942C186.379 89.6195 186.42 89.6321 186.468 89.6321C186.501 89.6321 186.531 89.6258 186.558 89.6131C186.585 89.6001 186.607 89.5814 186.625 89.557C186.643 89.5326 186.656 89.5029 186.663 89.468H186.881C186.876 89.5366 186.855 89.5974 186.82 89.6504C186.785 89.703 186.738 89.7442 186.678 89.7741C186.618 89.8035 186.547 89.8182 186.466 89.8182ZM187.498 89.8182C187.401 89.8182 187.317 89.7981 187.246 89.7577C187.176 89.7169 187.122 89.6592 187.084 89.5847C187.046 89.5099 187.027 89.4217 187.027 89.3203C187.027 89.2206 187.046 89.1331 187.084 89.0578C187.122 88.982 187.175 88.9231 187.244 88.8811C187.313 88.8386 187.393 88.8173 187.486 88.8173C187.545 88.8173 187.602 88.827 187.655 88.8464C187.708 88.8653 187.755 88.8947 187.796 88.9347C187.837 88.9747 187.87 89.0256 187.893 89.0874C187.917 89.1489 187.929 89.2221 187.929 89.3071V89.3771H187.134V89.2231H187.71C187.709 89.1794 187.7 89.1405 187.681 89.1064C187.663 89.0719 187.637 89.0447 187.604 89.025C187.571 89.0052 187.533 88.9953 187.489 88.9953C187.442 88.9953 187.401 89.0067 187.366 89.0294C187.33 89.0517 187.303 89.0811 187.283 89.1177C187.264 89.1539 187.254 89.1937 187.253 89.237V89.3714C187.253 89.4278 187.264 89.4762 187.284 89.5166C187.305 89.5566 187.334 89.5873 187.371 89.6087C187.408 89.6298 187.451 89.6403 187.501 89.6403C187.534 89.6403 187.564 89.6357 187.591 89.6264C187.618 89.6167 187.641 89.6026 187.661 89.5841C187.681 89.5656 187.696 89.5427 187.706 89.5153L187.919 89.5393C187.906 89.5957 187.88 89.6449 187.842 89.687C187.805 89.7286 187.757 89.761 187.698 89.7842C187.64 89.8069 187.573 89.8182 187.498 89.8182ZM188.122 90.1628V88.83H188.347V88.9903H188.36C188.372 88.9667 188.388 88.9417 188.41 88.9152C188.431 88.8882 188.46 88.8653 188.497 88.8464C188.534 88.827 188.58 88.8173 188.637 88.8173C188.712 88.8173 188.779 88.8365 188.84 88.8748C188.9 88.9126 188.948 88.9688 188.983 89.0433C189.019 89.1173 189.037 89.2082 189.037 89.3159C189.037 89.4223 189.02 89.5128 188.985 89.5873C188.95 89.6617 188.902 89.7185 188.842 89.7577C188.782 89.7968 188.714 89.8164 188.638 89.8164C188.582 89.8164 188.536 89.8071 188.499 89.7886C188.463 89.7701 188.433 89.7478 188.411 89.7217C188.389 89.6952 188.372 89.6702 188.36 89.6466H188.35V90.1628H188.122ZM188.346 89.3146C188.346 89.3773 188.355 89.4322 188.373 89.4794C188.391 89.5265 188.417 89.5633 188.45 89.5898C188.484 89.6159 188.526 89.6289 188.574 89.6289C188.624 89.6289 188.667 89.6155 188.701 89.5885C188.735 89.5612 188.76 89.5239 188.778 89.4768C188.795 89.4293 188.804 89.3752 188.804 89.3146C188.804 89.2545 188.796 89.201 188.778 89.1543C188.761 89.1076 188.735 89.071 188.701 89.0445C188.667 89.018 188.625 89.0048 188.574 89.0048C188.525 89.0048 188.484 89.0176 188.45 89.0433C188.415 89.0689 188.39 89.1049 188.372 89.1512C188.355 89.1975 188.346 89.2519 188.346 89.3146ZM189.717 88.83V89.0067H189.16V88.83H189.717ZM189.297 88.5977H189.526V89.5078C189.526 89.5385 189.53 89.562 189.539 89.5784C189.549 89.5944 189.562 89.6054 189.577 89.6112C189.593 89.6171 189.61 89.6201 189.629 89.6201C189.643 89.6201 189.656 89.619 189.668 89.6169C189.68 89.6148 189.69 89.6129 189.696 89.6112L189.734 89.7898C189.722 89.7941 189.705 89.7987 189.682 89.8037C189.66 89.8088 189.632 89.8117 189.6 89.8126C189.543 89.8143 189.491 89.8056 189.445 89.7867C189.4 89.7673 189.363 89.7375 189.336 89.6971C189.31 89.6567 189.297 89.6062 189.297 89.5456V88.5977Z" fill="#006FFD"/>
<rect x="195.49" y="86.6708" width="10.1073" height="4.55387" rx="0.944062" fill="#F14B4B" fill-opacity="0.3"/>
<path d="M197.932 89.8862V88.5937H198.416C198.516 88.5937 198.599 88.611 198.666 88.6455C198.734 88.68 198.785 88.7284 198.82 88.7906C198.854 88.8525 198.872 88.9247 198.872 89.0071C198.872 89.09 198.854 89.1619 198.819 89.2229C198.784 89.2835 198.732 89.3304 198.664 89.3637C198.596 89.3965 198.512 89.4129 198.413 89.4129H198.068V89.2185H198.382C198.44 89.2185 198.487 89.2105 198.524 89.1945C198.561 89.1781 198.589 89.1544 198.606 89.1232C198.624 89.0917 198.633 89.053 198.633 89.0071C198.633 88.9613 198.624 88.9221 198.606 88.8897C198.588 88.8569 198.561 88.8321 198.524 88.8153C198.487 88.798 198.439 88.7894 198.38 88.7894H198.166V89.8862H197.932ZM198.599 89.3006L198.919 89.8862H198.658L198.344 89.3006H198.599ZM199.493 89.9052C199.395 89.9052 199.311 89.885 199.241 89.8446C199.171 89.8038 199.116 89.7461 199.079 89.6717C199.041 89.5968 199.022 89.5086 199.022 89.4072C199.022 89.3075 199.041 89.22 199.079 89.1447C199.117 89.069 199.17 89.0101 199.239 88.968C199.307 88.9255 199.388 88.9042 199.481 88.9042C199.54 88.9042 199.597 88.9139 199.65 88.9333C199.703 88.9522 199.75 88.9817 199.791 89.0216C199.832 89.0616 199.865 89.1125 199.888 89.1744C199.912 89.2358 199.924 89.309 199.924 89.394V89.464H199.129V89.31H199.705C199.704 89.2663 199.695 89.2274 199.676 89.1933C199.658 89.1588 199.632 89.1317 199.599 89.1119C199.566 89.0921 199.527 89.0822 199.484 89.0822C199.437 89.0822 199.396 89.0936 199.361 89.1163C199.325 89.1386 199.298 89.168 199.278 89.2046C199.259 89.2408 199.249 89.2806 199.248 89.3239V89.4583C199.248 89.5147 199.259 89.5631 199.279 89.6035C199.3 89.6435 199.329 89.6742 199.366 89.6956C199.403 89.7167 199.446 89.7272 199.496 89.7272C199.529 89.7272 199.559 89.7226 199.586 89.7133C199.613 89.7036 199.636 89.6895 199.656 89.671C199.676 89.6525 199.691 89.6296 199.701 89.6022L199.914 89.6262C199.901 89.6826 199.875 89.7318 199.837 89.7739C199.8 89.8155 199.752 89.8479 199.693 89.8711C199.635 89.8938 199.568 89.9052 199.493 89.9052ZM200.117 88.9169H200.345V89.9418C200.345 90.0116 200.332 90.0692 200.306 90.1147C200.279 90.1601 200.241 90.194 200.191 90.2163C200.141 90.2386 200.08 90.2497 200.008 90.2497C200 90.2497 199.992 90.2495 199.985 90.2491C199.978 90.2491 199.97 90.2489 199.962 90.2485V90.0623C199.968 90.0627 199.974 90.0629 199.979 90.0629C199.984 90.0634 199.989 90.0636 199.994 90.0636C200.038 90.0636 200.07 90.0528 200.088 90.0314C200.107 90.0103 200.117 89.9794 200.117 89.9386V88.9169ZM200.23 88.7793C200.194 88.7793 200.163 88.7673 200.136 88.7433C200.111 88.7189 200.098 88.6897 200.098 88.6556C200.098 88.6211 200.111 88.5919 200.136 88.5679C200.163 88.5435 200.194 88.5313 200.23 88.5313C200.267 88.5313 200.298 88.5435 200.323 88.5679C200.349 88.5919 200.362 88.6211 200.362 88.6556C200.362 88.6897 200.349 88.7189 200.323 88.7433C200.298 88.7673 200.267 88.7793 200.23 88.7793ZM201.009 89.9052C200.912 89.9052 200.828 89.885 200.758 89.8446C200.687 89.8038 200.633 89.7461 200.595 89.6717C200.558 89.5968 200.539 89.5086 200.539 89.4072C200.539 89.3075 200.558 89.22 200.595 89.1447C200.634 89.069 200.687 89.0101 200.756 88.968C200.824 88.9255 200.905 88.9042 200.997 88.9042C201.057 88.9042 201.114 88.9139 201.167 88.9333C201.22 88.9522 201.267 88.9817 201.308 89.0216C201.349 89.0616 201.382 89.1125 201.405 89.1744C201.429 89.2358 201.44 89.309 201.44 89.394V89.464H200.646V89.31H201.221C201.221 89.2663 201.212 89.2274 201.193 89.1933C201.175 89.1588 201.149 89.1317 201.115 89.1119C201.083 89.0921 201.044 89.0822 201.001 89.0822C200.954 89.0822 200.913 89.0936 200.878 89.1163C200.842 89.1386 200.815 89.168 200.795 89.2046C200.775 89.2408 200.766 89.2806 200.765 89.3239V89.4583C200.765 89.5147 200.775 89.5631 200.796 89.6035C200.817 89.6435 200.846 89.6742 200.883 89.6956C200.92 89.7167 200.963 89.7272 201.013 89.7272C201.046 89.7272 201.076 89.7226 201.103 89.7133C201.13 89.7036 201.153 89.6895 201.173 89.671C201.193 89.6525 201.208 89.6296 201.218 89.6022L201.431 89.6262C201.418 89.6826 201.392 89.7318 201.354 89.7739C201.317 89.8155 201.269 89.8479 201.21 89.8711C201.152 89.8938 201.085 89.9052 201.009 89.9052ZM202.057 89.9052C201.96 89.9052 201.877 89.8839 201.807 89.8414C201.738 89.7989 201.685 89.7402 201.648 89.6653C201.611 89.59 201.592 89.5034 201.592 89.4053C201.592 89.3069 201.611 89.22 201.649 89.1447C201.687 89.069 201.74 89.0101 201.809 88.968C201.879 88.9255 201.961 88.9042 202.055 88.9042C202.134 88.9042 202.204 88.9188 202.264 88.9478C202.325 88.9764 202.374 89.017 202.41 89.0696C202.446 89.1218 202.467 89.1828 202.472 89.2526H202.253C202.245 89.2059 202.224 89.167 202.19 89.1359C202.158 89.1043 202.114 89.0885 202.058 89.0885C202.012 89.0885 201.971 89.1011 201.935 89.1264C201.9 89.1512 201.872 89.187 201.853 89.2337C201.833 89.2804 201.824 89.3363 201.824 89.4015C201.824 89.4676 201.833 89.5244 201.853 89.5719C201.872 89.6191 201.899 89.6555 201.934 89.6811C201.969 89.7064 202.011 89.719 202.058 89.719C202.092 89.719 202.122 89.7127 202.149 89.7001C202.176 89.687 202.198 89.6683 202.216 89.6439C202.234 89.6195 202.247 89.5898 202.253 89.5549H202.472C202.466 89.6235 202.446 89.6843 202.411 89.7373C202.376 89.7899 202.329 89.8311 202.269 89.861C202.208 89.8904 202.138 89.9052 202.057 89.9052ZM203.143 88.9169V89.0936H202.586V88.9169H203.143ZM202.724 88.6846H202.952V89.5947C202.952 89.6254 202.957 89.6489 202.966 89.6653C202.976 89.6813 202.988 89.6923 203.004 89.6982C203.02 89.7041 203.037 89.707 203.056 89.707C203.07 89.707 203.083 89.7059 203.095 89.7038C203.107 89.7017 203.116 89.6998 203.123 89.6982L203.161 89.8768C203.149 89.881 203.131 89.8856 203.109 89.8906C203.086 89.8957 203.059 89.8986 203.027 89.8995C202.969 89.9012 202.918 89.8925 202.872 89.8736C202.826 89.8543 202.79 89.8244 202.763 89.784C202.736 89.7436 202.723 89.6931 202.724 89.6325V88.6846Z" fill="#F14B4B"/>
<path d="M188.292 71.193C188.292 68.678 190.253 66.7312 192.673 66.7312C195.094 66.7312 197.055 68.6798 197.055 71.193C197.055 73.7062 195.094 75.7456 192.673 75.7456C190.253 75.7456 188.292 73.708 188.292 71.193Z" fill="white"/>
<g opacity="0.13">
<path d="M194.075 70.0477C194.038 69.9408 193.879 69.9337 193.826 70.0317C193.772 70.2419 193.81 70.3042 193.728 70.509C193.694 70.6319 193.411 70.908 193.209 71.0078C193.168 71.0309 192.93 71.1129 192.828 71.1057C192.481 71.0968 192.447 71.095 192.157 71.0754C192.068 71.0612 191.977 71.0256 191.888 71.0327C191.681 71.0505 191.661 71.3622 191.861 71.4139C192.133 71.4744 192.322 71.5777 192.454 71.5795C192.739 71.6062 193.04 71.6151 193.304 71.4869C193.599 71.3195 193.829 71.0327 193.972 70.7281C194.032 70.5215 194.111 70.2615 194.077 70.0495L194.075 70.0477Z" fill="black"/>
</g>
<g opacity="0.13">
<path d="M193.493 73.861C193.489 73.836 193.485 73.8093 193.482 73.7844C193.509 74.1584 193.573 74.6981 193.603 74.8958C193.621 75.1416 193.635 75.3892 193.649 75.635C193.776 75.5922 193.9 75.5459 194.027 75.5014C194.098 75.4747 194.171 75.4497 194.242 75.423C194.276 75.4106 194.308 75.3963 194.342 75.3838C194.342 75.3732 194.339 75.3589 194.337 75.3482C194.321 75.1541 194.218 74.3561 194.089 73.8716C193.929 73.2696 193.772 72.6605 193.542 72.078C193.514 72.0175 193.478 71.9587 193.437 71.9052C193.389 71.8518 193.357 71.7752 193.284 71.7521C193.111 71.6684 192.924 71.8821 193.026 72.0442C193.206 72.2793 193.229 72.4485 193.313 72.8065C193.396 73.2304 193.459 73.6169 193.487 73.8592L193.493 73.861Z" fill="black"/>
</g>
<path d="M191.197 75.5709C191.197 75.5709 191.191 75.5709 191.188 75.5709C191.113 75.5656 191.056 75.5015 191.061 75.4266C191.12 74.5521 191.289 73.7114 191.581 72.86C191.692 72.5376 191.826 72.201 192.055 71.9374C192.319 71.6328 192.68 71.4885 192.999 71.5615C193.518 71.6809 193.779 72.2829 193.929 72.7264C194.212 73.5564 194.417 74.4328 194.536 75.3269C194.545 75.391 194.508 75.4516 194.447 75.473L194.396 75.4908C194.324 75.5139 194.248 75.4765 194.225 75.4053C194.209 75.3554 194.221 75.3037 194.255 75.2681C194.136 74.4239 193.94 73.5974 193.673 72.8137C193.47 72.2152 193.229 71.8928 192.939 71.8251C192.675 71.7646 192.417 71.9356 192.262 72.1155C192.062 72.3452 191.941 72.6516 191.84 72.9491C191.557 73.7773 191.391 74.5948 191.334 75.4462C191.329 75.5175 191.27 75.5727 191.199 75.5727L191.197 75.5709Z" fill="black"/>
<path d="M192.825 71.7806C192.636 71.7806 192.444 71.7503 192.26 71.688C192.137 71.647 192.043 71.6007 191.961 71.5419C191.794 71.4226 191.669 71.2409 191.582 70.9862C191.526 70.8295 191.498 70.6888 191.496 70.5516C191.493 70.386 191.525 70.2114 191.594 70.019C191.712 69.6949 191.902 69.4241 192.144 69.2353C192.422 69.018 192.768 68.9112 193.094 68.945C193.414 68.9771 193.726 69.1908 193.945 69.5274C194.116 69.791 194.207 70.1188 194.209 70.475C194.209 70.6175 194.195 70.7404 194.164 70.8526C194.068 71.2124 193.772 71.5277 193.395 71.6773C193.218 71.7468 193.024 71.7806 192.825 71.7806ZM192.974 69.2104C192.745 69.2104 192.508 69.2959 192.312 69.4491C192.111 69.6076 191.95 69.8374 191.849 70.1134C191.79 70.2737 191.763 70.4145 191.767 70.5463C191.769 70.6531 191.792 70.7689 191.838 70.8971C191.908 71.0966 192 71.2356 192.12 71.3211C192.178 71.3638 192.25 71.3977 192.348 71.4297C192.666 71.5366 193.012 71.5348 193.295 71.4244C193.594 71.3068 193.828 71.061 193.902 70.7814C193.926 70.6941 193.938 70.5926 193.936 70.475C193.936 70.1704 193.86 69.8944 193.717 69.6753C193.634 69.5488 193.406 69.2478 193.065 69.214C193.035 69.2104 193.005 69.2086 192.974 69.2086V69.2104Z" fill="black"/>
<path d="M192.714 75.8346C190.18 75.8346 188.117 73.772 188.117 71.2374C188.117 68.7028 190.18 66.6403 192.714 66.6403C195.249 66.6403 197.312 68.7028 197.312 71.2374C197.312 73.772 195.249 75.8346 192.714 75.8346ZM192.714 66.911C190.33 66.911 188.388 68.8525 188.388 71.2374C188.388 73.6224 190.33 75.5639 192.714 75.5639C195.099 75.5639 197.041 73.6224 197.041 71.2374C197.041 68.8525 195.099 66.911 192.714 66.911Z" fill="black"/>
</g>
<path d="M110.748 118.684H212.947V48.3777H110.748V118.684ZM213.667 120.124H110.028C109.625 120.124 109.308 119.793 109.308 119.404V47.6578C109.308 47.2546 109.64 46.9379 110.028 46.9379H213.667C214.07 46.9379 214.387 47.2546 214.387 47.6578V119.404C214.387 119.807 214.07 120.124 213.667 120.124Z" fill="black"/>
<path d="M110.029 122.457V112.997H213.668V122.457H110.029Z" fill="#ACD4F7"/>
<path d="M110.748 121.737H212.947V113.717H110.748V121.737ZM213.667 123.176H110.028C109.625 123.176 109.308 122.86 109.308 122.457V112.982C109.308 112.579 109.64 112.263 110.028 112.263H213.667C214.07 112.263 214.387 112.594 214.387 112.982V122.457C214.387 122.86 214.07 123.176 213.667 123.176Z" fill="black"/>
<defs>
<filter id="filter0_d_13600_78343" x="117.044" y="62.5542" width="34.1579" height="36.046" filterUnits="userSpaceOnUse" color-interpolation-filters="sRGB">
<feFlood flood-opacity="0" result="BackgroundImageFix"/>
<feColorMatrix in="SourceAlpha" type="matrix" values="0 0 0 0 0 0 0 0 0 0 0 0 0 0 0 0 0 0 127 0" result="hardAlpha"/>
<feOffset dx="1.459" dy="1.459"/>
<feGaussianBlur stdDeviation="1.459"/>
<feComposite in2="hardAlpha" operator="out"/>
<feColorMatrix type="matrix" values="0 0 0 0 0.145104 0 0 0 0 0.286634 0 0 0 0 0.829167 0 0 0 0.05 0"/>
<feBlend mode="normal" in2="BackgroundImageFix" result="effect1_dropShadow_13600_78343"/>
<feBlend mode="normal" in="SourceGraphic" in2="effect1_dropShadow_13600_78343" result="shape"/>
</filter>
<filter id="filter1_d_13600_78343" x="16.63" y="50.1433" width="78.7116" height="83.0624" filterUnits="userSpaceOnUse" color-interpolation-filters="sRGB">
<feFlood flood-opacity="0" result="BackgroundImageFix"/>
<feColorMatrix in="SourceAlpha" type="matrix" values="0 0 0 0 0 0 0 0 0 0 0 0 0 0 0 0 0 0 127 0" result="hardAlpha"/>
<feOffset dx="3.36204" dy="3.36204"/>
<feGaussianBlur stdDeviation="3.36204"/>
<feComposite in2="hardAlpha" operator="out"/>
<feColorMatrix type="matrix" values="0 0 0 0 0.145104 0 0 0 0 0.286634 0 0 0 0 0.829167 0 0 0 0.05 0"/>
<feBlend mode="normal" in2="BackgroundImageFix" result="effect1_dropShadow_13600_78343"/>
<feBlend mode="normal" in="SourceGraphic" in2="effect1_dropShadow_13600_78343" result="shape"/>
</filter>
<filter id="filter2_d_13600_78343" x="147.254" y="62.5542" width="34.1579" height="36.046" filterUnits="userSpaceOnUse" color-interpolation-filters="sRGB">
<feFlood flood-opacity="0" result="BackgroundImageFix"/>
<feColorMatrix in="SourceAlpha" type="matrix" values="0 0 0 0 0 0 0 0 0 0 0 0 0 0 0 0 0 0 127 0" result="hardAlpha"/>
<feOffset dx="1.459" dy="1.459"/>
<feGaussianBlur stdDeviation="1.459"/>
<feComposite in2="hardAlpha" operator="out"/>
<feColorMatrix type="matrix" values="0 0 0 0 0.145104 0 0 0 0 0.286634 0 0 0 0 0.829167 0 0 0 0.05 0"/>
<feBlend mode="normal" in2="BackgroundImageFix" result="effect1_dropShadow_13600_78343"/>
<feBlend mode="normal" in="SourceGraphic" in2="effect1_dropShadow_13600_78343" result="shape"/>
</filter>
<filter id="filter3_d_13600_78343" x="177.464" y="62.5542" width="34.1579" height="36.046" filterUnits="userSpaceOnUse" color-interpolation-filters="sRGB">
<feFlood flood-opacity="0" result="BackgroundImageFix"/>
<feColorMatrix in="SourceAlpha" type="matrix" values="0 0 0 0 0 0 0 0 0 0 0 0 0 0 0 0 0 0 127 0" result="hardAlpha"/>
<feOffset dx="1.459" dy="1.459"/>
<feGaussianBlur stdDeviation="1.459"/>
<feComposite in2="hardAlpha" operator="out"/>
<feColorMatrix type="matrix" values="0 0 0 0 0.145104 0 0 0 0 0.286634 0 0 0 0 0.829167 0 0 0 0.05 0"/>
<feBlend mode="normal" in2="BackgroundImageFix" result="effect1_dropShadow_13600_78343"/>
<feBlend mode="normal" in="SourceGraphic" in2="effect1_dropShadow_13600_78343" result="shape"/>
</filter>
</defs>
</svg>
