<svg width="236" height="148" viewBox="0 0 236 148" fill="none" xmlns="http://www.w3.org/2000/svg">
<rect opacity="0.5" x="11.3278" y="9.44006" width="224.672" height="131.618" rx="17.6049" fill="#B8D4F7"/>
<g opacity="0.9">
<path d="M172.244 69.7906C164.823 68.8824 157.099 73.1206 153.464 79.6294C149.829 86.1381 149.981 94.6146 153.616 101.275C155.282 104.453 157.856 107.178 161.037 108.692C163.763 109.903 166.792 110.054 169.821 110.205C172.093 110.205 174.516 110.205 176.636 109.297C178.454 108.54 179.968 107.329 181.331 105.967C186.784 100.518 189.358 92.3441 187.692 84.9272C186.026 77.2075 179.665 70.5474 172.244 69.7906Z" fill="white"/>
<path d="M170.733 110.811C170.43 110.811 170.127 110.811 169.824 110.811C166.947 110.811 163.766 110.659 160.888 109.297C156.951 107.481 154.527 104.151 153.013 101.578C149.227 94.6147 149.075 85.8355 152.861 79.3268C156.799 72.364 164.826 68.1257 172.399 69.0339C179.971 69.9421 186.635 76.4508 188.604 84.6246C190.27 92.0415 187.695 100.669 181.94 106.421C180.274 108.086 178.608 109.297 176.942 109.903C174.822 110.659 172.702 110.811 170.733 110.811ZM170.278 70.3962C163.917 70.3962 157.405 74.1803 154.073 80.0836C150.59 86.2896 150.741 94.4634 154.225 100.972C155.436 103.394 157.708 106.421 161.343 108.086C164.069 109.297 167.098 109.449 169.824 109.449C171.944 109.449 174.368 109.449 176.337 108.692C177.851 108.086 179.214 107.027 180.729 105.513C186.03 100.064 188.453 92.0415 186.938 85.0787C185.272 77.5104 178.911 71.4558 172.096 70.6989C171.49 70.3962 170.884 70.3962 170.278 70.3962Z" fill="#D1D6DD"/>
<path d="M169.523 130.64C169.068 130.64 168.766 130.337 168.766 129.883L168.614 80.3865C168.614 79.9324 168.917 79.6296 169.371 79.6296C169.826 79.6296 170.129 79.9324 170.129 80.3865L170.28 129.883C170.129 130.337 169.826 130.64 169.523 130.64Z" fill="#D1D6DD"/>
<path d="M169.519 101.124C169.367 101.124 169.367 101.124 169.216 101.124C168.913 100.973 168.61 100.519 168.761 100.216C170.579 95.9775 173.608 92.1934 177.546 89.6202C177.848 89.4688 178.303 89.4688 178.606 89.7715C178.757 90.0743 178.757 90.5284 178.454 90.8311C174.819 93.2529 171.942 96.7344 170.276 100.821C169.973 100.973 169.822 101.124 169.519 101.124Z" fill="#D1D6DD"/>
<path d="M155.429 88.1054C155.277 88.1054 155.277 87.954 155.126 87.954C154.823 85.6835 155.429 83.4131 156.792 81.5967C156.943 81.4453 157.095 81.4453 157.095 81.5967C157.246 81.748 157.246 81.8994 157.095 81.8994C155.883 83.5644 155.277 85.8349 155.58 87.8027C155.58 87.954 155.58 88.1054 155.429 88.1054Z" fill="#D1D6DD"/>
<path d="M158.314 88.5605C158.163 88.5605 158.011 88.4091 158.011 88.2578L158.617 84.7764C158.617 84.625 158.769 84.625 158.92 84.625C159.072 84.625 159.072 84.7764 159.072 84.9277L158.466 88.4091C158.617 88.4091 158.466 88.5605 158.314 88.5605Z" fill="#D1D6DD"/>
<path d="M178.45 103.848C178.45 103.848 178.299 103.848 178.299 103.697C178.147 103.545 178.299 103.394 178.299 103.394C179.965 102.183 181.176 100.518 181.934 98.5502C181.934 98.3988 182.085 98.3988 182.237 98.3988C182.388 98.3988 182.388 98.5502 182.388 98.7016C181.479 100.669 180.268 102.486 178.45 103.848Z" fill="#D1D6DD"/>
<g opacity="0.1294">
<path d="M183.301 100.67C182.695 100.67 182.392 101.124 181.938 101.578C181.181 102.335 180.575 103.092 179.818 103.849C179.06 104.454 177.546 105.514 176.031 106.271C175.88 106.422 175.729 106.422 175.577 106.422C174.971 106.573 174.214 106.876 173.608 106.876H173.457C173.305 106.876 173.305 106.876 173.305 106.876C171.033 107.179 168.913 106.725 164.673 105.816C163.007 105.362 163.612 105.514 162.098 104.908C161.795 104.908 160.886 104.454 160.583 104.303C159.069 103.546 158.311 103.092 157.706 102.486C157.1 102.032 156.797 101.427 156.191 101.124C154.828 100.519 153.616 102.335 154.677 103.395C155.888 104.606 157.251 105.665 158.766 106.422C159.069 106.573 160.432 107.179 160.886 107.33C162.704 108.238 163.007 108.541 164.521 108.995C166.036 109.601 167.55 109.903 169.065 110.055C170.579 110.357 172.094 110.357 173.608 110.055C174.82 109.752 175.88 109.298 176.94 108.692C179.06 107.633 181.181 106.422 182.695 104.606C183.301 104 183.907 103.243 184.513 102.638C184.816 102.335 184.816 102.032 184.816 101.73C184.664 101.276 184.058 100.67 183.301 100.67Z" fill="#D1D6DD"/>
</g>
</g>
<path d="M5.10214 53.2153C13.8438 53.1271 22.5855 52.9506 31.3272 52.8623C34.0645 52.8623 36.9784 52.7741 39.4508 51.4503C42.0115 50.0384 43.7775 47.3026 43.6892 44.3904C43.6009 41.4782 41.57 38.7424 38.7444 37.9482C35.9188 37.1539 32.6517 38.7424 31.5921 41.3899C31.7687 36.3597 27.3537 31.5942 22.3206 31.6825C17.2875 31.6825 12.8725 36.8009 13.8438 41.7429C12.9608 39.4484 10.2235 38.3012 7.83944 38.6542C5.45535 39.0954 3.42445 40.7722 2.09995 42.8019C0.952054 44.4786 0.245665 46.5084 0.510565 48.5381C0.687165 50.4796 2.09995 53.2153 5.10214 53.2153Z" fill="white"/>
<path d="M5.01427 53.6569C2.01207 53.6569 0.334395 51.0977 0.0694951 48.5384C-0.283704 46.0675 0.775889 43.8612 1.74719 42.4492C3.33659 40.0665 5.54408 38.478 7.83988 38.125C9.95907 37.772 12.0783 38.5663 13.3145 39.9783C13.4028 38.125 14.1092 36.2718 15.4337 34.6833C17.1997 32.4771 19.7604 31.2416 22.3211 31.1533C24.7935 31.1533 27.1776 32.2123 29.0319 34.1538C30.6213 35.7423 31.5925 37.772 31.9457 39.89C33.4468 37.8603 36.3607 36.8013 38.8331 37.5073C41.747 38.3015 43.9545 41.2137 44.0428 44.3907C44.1311 47.3912 42.3651 50.3917 39.5395 51.8919C36.9788 53.3039 33.8883 53.3039 31.2393 53.3922L5.01427 53.6569C5.10257 53.6569 5.01427 53.6569 5.01427 53.6569ZM8.81118 38.9193C8.54628 38.9193 8.19308 38.9193 7.92818 39.0075C5.89728 39.3605 3.86637 40.7725 2.45358 42.9787C1.57058 44.3025 0.599289 46.244 0.864189 48.4502C1.04079 50.0387 2.18867 52.7744 5.01427 52.7744C5.01427 52.7744 5.01427 52.7744 5.10257 52.7744L31.3277 52.4214C33.8884 52.4214 36.8905 52.3332 39.2746 51.0094C41.747 49.6857 43.3364 46.95 43.2481 44.3025C43.1598 41.5667 41.2172 38.9193 38.6565 38.3015C36.0075 37.5955 33.0053 39.0075 32.034 41.4785C31.9457 41.655 31.7691 41.7432 31.5042 41.7432C31.3276 41.7432 31.151 41.4785 31.151 41.302C31.2393 38.9193 30.268 36.5365 28.4137 34.7715C26.736 33.0066 24.5286 32.0358 22.3211 32.0358C20.0253 32.0358 17.7295 33.2713 16.0518 35.2128C14.4624 37.1543 13.8443 39.4488 14.2858 41.5667C14.2858 41.7432 14.1975 42.008 14.0209 42.0962C13.8443 42.1845 13.5794 42.008 13.4911 41.8315C12.6964 39.89 10.6655 38.9193 8.81118 38.9193Z" fill="#D1D6DD"/>
<g opacity="0.1294">
<path d="M41.4821 47.4801C41.2172 47.5683 41.0406 47.7448 40.864 47.8331C40.6874 48.0096 40.4225 48.0978 40.1576 48.2743C39.6278 48.6273 39.098 48.9803 38.5682 49.2451C38.4799 49.2451 38.4799 49.2451 38.4799 49.3333C37.332 49.5981 36.2724 50.1276 35.0362 50.3041C34.2415 50.3923 31.4159 50.3041 29.8265 50.3923C26.3828 50.4806 22.8508 50.4806 19.4071 50.5688C16.6698 50.4806 13.9325 50.7453 11.1952 51.0983C7.66319 51.3631 6.51531 51.5395 3.95462 50.3923C3.95462 50.3923 4.04292 50.3923 4.04292 50.4806C3.42482 50.3041 2.9833 49.8628 2.3652 49.6863C1.2173 49.5098 0.687515 51.0983 1.65881 51.716C3.07161 52.422 4.48441 53.128 6.07381 53.3928C9.6058 54.0105 13.1378 52.9515 16.6698 53.0398C17.906 53.0398 19.1422 53.128 20.3784 53.0398C22.0561 52.9515 23.7338 52.8633 25.4115 52.8633C27.8839 52.775 30.5329 52.6868 32.3872 52.422C32.3872 52.9515 32.8287 53.481 33.4468 53.3928C35.4777 53.2163 37.4203 52.5985 39.1863 51.6278C39.6278 51.4513 39.981 51.1866 40.4225 50.9218C40.6874 50.7453 40.9523 50.6571 41.1289 50.4806C41.3055 50.3041 41.3055 50.0393 41.3055 49.8628C41.5704 49.6863 41.8353 49.5098 42.1002 49.2451C42.3651 49.0686 42.5417 48.7156 42.5417 48.4508C42.7183 47.7448 42.1002 47.3036 41.4821 47.4801Z" fill="#D1D6DD"/>
</g>
<path d="M49.919 36.2483C64.2813 36.1034 78.6436 35.8134 93.0058 35.6684C97.5031 35.6684 102.291 35.5234 106.353 33.3485C110.56 31.0287 113.461 26.534 113.316 21.7493C113.171 16.9646 109.834 12.4699 105.192 11.165C100.55 9.86005 95.1819 12.4699 93.441 16.8196C93.7312 8.55514 86.4775 0.725645 78.2083 0.870635C69.9391 0.870635 62.6854 9.28009 64.2812 17.3996C62.8305 13.6298 58.3333 11.7449 54.4163 12.3249C50.4993 13.0498 47.1626 15.8047 44.9865 19.1394C43.1005 21.8943 41.94 25.2291 42.3752 28.5638C42.6653 31.7536 44.9865 36.2483 49.919 36.2483Z" fill="white"/>
<path d="M49.7739 36.9728C44.8414 36.9728 42.085 32.7681 41.6498 28.5634C41.0695 24.5036 42.8104 20.8789 44.4062 18.559C47.0175 14.6443 50.6444 12.0345 54.4163 11.4545C57.898 10.8745 61.3798 12.1795 63.4109 14.4993C63.5559 11.4545 64.7165 8.4097 66.8926 5.79987C69.7941 2.1751 74.0012 0.145235 78.2083 0.000244141C82.2704 0.000244141 86.1874 1.74013 89.2339 4.92993C91.8453 7.53976 93.4411 10.8745 94.0214 14.3543C96.4876 11.0195 101.275 9.27964 105.337 10.4396C110.125 11.7445 113.751 16.5292 113.896 21.7488C114.042 26.6785 111.14 31.6082 106.498 34.073C102.291 36.3929 97.213 36.3929 92.8608 36.5379L49.7739 36.9728C49.919 36.9728 49.7739 36.9728 49.7739 36.9728ZM56.0121 12.7594C55.5769 12.7594 54.9966 12.7594 54.5614 12.9044C51.2247 13.4844 47.888 15.8042 45.5668 19.429C44.116 21.6038 42.5203 24.7936 42.9555 28.4184C43.2456 31.0282 45.1316 35.5229 49.7739 35.5229C49.7739 35.5229 49.7739 35.5229 49.919 35.5229L93.0059 34.943C97.213 34.943 102.146 34.798 106.062 32.6231C110.125 30.4483 112.736 25.9536 112.591 21.6038C112.446 17.1091 109.254 12.7594 105.047 11.7445C100.695 10.5846 95.7622 12.9044 94.1664 16.9641C94.0214 17.2541 93.7312 17.3991 93.296 17.3991C93.0058 17.3991 92.7157 16.9641 92.7157 16.6742C92.8608 12.7594 91.265 8.84467 88.2184 5.94486C85.462 3.04504 81.8352 1.45015 78.2083 1.45015C74.4364 1.45015 70.6645 3.48002 67.9081 6.66981C65.2968 9.8596 64.2813 13.6294 65.0066 17.1091C65.0066 17.3991 64.8616 17.8341 64.5714 17.9791C64.2813 18.1241 63.8461 17.8341 63.701 17.5441C62.3953 14.3543 59.0586 12.7594 56.0121 12.7594Z" fill="#D1D6DD"/>
<g opacity="0.1294">
<path d="M109.689 26.8226C109.254 26.9676 108.964 27.2576 108.674 27.4026C108.384 27.6926 107.948 27.8375 107.513 28.1275C106.643 28.7075 105.772 29.2874 104.902 29.7224C104.757 29.7224 104.757 29.7224 104.757 29.8674C102.871 30.3024 101.13 31.1723 99.0988 31.4623C97.7931 31.6073 93.1508 31.4623 90.5395 31.6073C84.8816 31.7523 79.0787 31.7523 73.4208 31.8973C68.9235 31.7523 64.4262 32.1873 59.9289 32.7672C54.126 33.2022 52.2401 33.4922 48.0329 31.6073C48.0329 31.6073 48.178 31.6073 48.178 31.7523C47.1625 31.4623 46.4371 30.7374 45.4216 30.4474C43.5356 30.1574 42.6652 32.7672 44.261 33.7822C46.5822 34.9421 48.9034 36.102 51.5147 36.537C57.3176 37.5519 63.1206 35.812 68.9235 35.957C70.9546 35.957 72.9856 36.102 75.0166 35.957C77.773 35.812 80.5294 35.667 83.2858 35.667C87.3479 35.522 91.7001 35.3771 94.7466 34.9421C94.7466 35.812 95.472 36.682 96.4875 36.537C99.8242 36.247 103.016 35.2321 105.917 33.6372C106.643 33.3472 107.223 32.9122 107.948 32.4772C108.384 32.1873 108.819 32.0423 109.109 31.7523C109.399 31.4623 109.399 31.0273 109.399 30.7374C109.834 30.4474 110.269 30.1574 110.705 29.7224C111.14 29.4324 111.43 28.8525 111.43 28.4175C111.72 27.2576 110.705 26.5326 109.689 26.8226Z" fill="#D1D6DD"/>
</g>
<path d="M111.241 100.755L110.255 139.749H177.51L178.276 100.864L111.241 100.755Z" fill="white"/>
<path d="M177.504 140.297H110.25C110.14 140.297 109.921 140.187 109.921 140.187C109.811 140.078 109.811 139.968 109.811 139.749L110.797 100.754C110.797 100.426 111.016 100.207 111.345 100.207L178.38 100.316C178.49 100.316 178.709 100.426 178.709 100.426C178.819 100.535 178.819 100.645 178.819 100.864L178.052 139.749C178.052 139.968 177.833 140.297 177.504 140.297ZM110.797 139.201H176.956L177.723 101.412L111.783 101.302L110.797 139.201Z" fill="#A3AEBB"/>
<path d="M138.941 139.748C119.772 139.748 99.7271 140.077 80.5584 139.858C80.5584 120.689 80.3394 100.973 79.244 79.6137C96.7696 79.1756 118.458 78.9565 140.365 78.7374C139.16 100.097 137.955 125.618 138.941 139.748Z" fill="white"/>
<path d="M91.0806 140.406C87.5755 140.406 84.0703 140.406 80.5652 140.406C80.2366 140.406 80.0175 140.186 80.0175 139.858C80.0175 122.88 79.908 102.397 78.7031 79.6135C78.7031 79.504 78.7031 79.2849 78.8126 79.1754C78.9222 79.0659 79.0317 78.9563 79.1413 78.9563C95.5715 78.5182 115.178 78.4086 135.99 78.1896H140.262C140.371 78.1896 140.59 78.2991 140.7 78.4086C140.809 78.5182 140.81 78.6277 140.81 78.8468C139.714 99.6585 138.4 125.509 139.495 139.748C139.495 139.858 139.495 140.077 139.386 140.186C139.276 140.296 139.166 140.296 138.947 140.406C130.732 140.406 122.298 140.406 113.973 140.515C106.525 140.406 98.748 140.406 91.0806 140.406ZM81.1129 139.31C91.9568 139.42 103.129 139.31 114.083 139.201C122.079 139.201 130.404 139.091 138.4 139.091C137.414 124.852 138.728 99.6585 139.714 79.1754H135.99C115.397 79.3945 96.0097 79.504 79.6889 79.9421C80.8938 102.506 81.1129 122.551 81.1129 139.31Z" fill="#A3AEBB"/>
<path d="M149.61 83.3392C121.679 83.3392 96.595 83.7773 71.2924 83.7773C83.5603 70.6331 96.814 55.8458 109.301 42.8112C122.336 55.6268 134.932 70.5235 149.61 83.3392Z" fill="white"/>
<path d="M71.2837 84.4333C71.0646 84.4333 70.8455 84.3237 70.8455 84.1047C70.736 83.8856 70.8455 83.6665 70.9551 83.557C75.5556 78.6279 80.3751 73.3702 85.0851 68.2221C92.9716 59.5688 101.187 50.6964 108.964 42.5908C109.073 42.4813 109.183 42.4813 109.292 42.4813C109.402 42.4813 109.621 42.4813 109.621 42.5908C114.66 47.5199 119.589 52.6681 124.737 58.1448C132.733 66.579 140.948 75.2323 149.82 83.1188C150.039 83.2284 150.039 83.4474 149.93 83.6665C149.82 83.8856 149.601 83.9951 149.382 83.9951C135.033 83.9951 121.451 84.1046 108.307 84.2142C95.71 84.3237 83.5516 84.4333 71.2837 84.4333ZM109.292 43.6862C101.515 51.6823 93.5193 60.4451 85.7423 68.8793C81.3609 73.6988 76.7604 78.6279 72.4886 83.3379C84.4279 83.3379 96.0386 83.2284 108.416 83.1188C121.122 83.0093 134.266 82.8998 148.068 82.8998C139.524 75.3418 131.638 66.9076 123.97 58.802C118.931 53.4348 114.221 48.5057 109.292 43.6862Z" fill="#A3AEBB"/>
<path d="M119.564 119.156C113.211 119.156 106.858 119.046 100.505 119.046C99.8478 112.584 99.5191 106.231 99.6287 99.7679C106.201 99.4393 112.773 99.4393 119.783 99.7679C119.893 106.121 119.893 112.255 119.564 119.156Z" fill="#B8D4F7"/>
<path d="M119.577 119.703L100.518 119.594C100.299 119.594 99.9701 119.375 99.9701 119.156C99.2034 111.817 98.9843 105.683 99.0938 99.8774C99.0938 99.5488 99.3129 99.3297 99.6415 99.3297C106.214 99.0011 112.786 99.0011 119.796 99.3297C120.125 99.3297 120.344 99.5488 120.344 99.8774C120.453 106.011 120.344 112.145 120.125 119.265C120.125 119.484 119.906 119.703 119.577 119.703ZM101.065 118.498L119.029 118.608C119.248 111.926 119.358 106.121 119.248 100.316C112.567 99.9869 106.323 99.9869 100.189 100.316C100.189 105.792 100.408 111.598 101.065 118.498Z" fill="#006FFD"/>
<path d="M112.927 66.2496C110.737 64.8257 107.45 65.4829 105.917 67.6736C104.383 69.8643 105.041 73.2599 107.122 74.7934C109.203 76.3269 112.599 75.7792 114.132 73.698C115.775 71.5073 115.556 68.0022 112.927 66.2496Z" fill="white"/>
<path d="M110.064 76.2172C108.969 76.2172 107.764 75.8886 106.888 75.2314C104.478 73.4788 103.821 69.8641 105.573 67.3448C107.216 64.9351 110.831 64.1683 113.241 65.8113C114.555 66.6876 115.322 68.002 115.651 69.5355C115.979 71.069 115.541 72.8216 114.665 74.0265C113.569 75.4504 111.817 76.2172 110.064 76.2172ZM110.283 66.0304C108.75 66.0304 107.216 66.6876 106.45 68.002C105.135 69.9737 105.683 73.0406 107.545 74.3551C109.407 75.779 112.474 75.2314 113.789 73.3693C114.555 72.3834 114.774 71.069 114.555 69.7546C114.336 68.4402 113.679 67.4544 112.584 66.6876C111.926 66.2495 111.05 66.0304 110.283 66.0304Z" fill="#006FFD"/>
<path d="M146.947 140.297C146.618 140.297 146.399 140.078 146.399 139.749C146.618 130.986 146.399 122.333 146.29 114.994C146.29 114.884 146.29 114.665 146.399 114.556C146.509 114.446 146.618 114.446 146.728 114.446C154.067 114.446 161.734 114.446 169.401 114.446C169.511 114.446 169.73 114.556 169.73 114.556C169.84 114.665 169.84 114.775 169.84 114.884C169.84 117.075 169.84 119.266 169.84 121.347C169.84 127.919 169.84 134.053 169.621 139.311C169.621 139.639 169.401 139.858 169.073 139.858C168.744 139.858 168.525 139.639 168.525 139.311C168.744 134.053 168.744 127.919 168.744 121.347C168.744 119.375 168.744 117.513 168.744 115.432C161.515 115.432 154.286 115.432 147.166 115.432C147.275 122.661 147.494 131.096 147.275 139.639C147.494 140.078 147.275 140.297 146.947 140.297Z" fill="#A3AEBB"/>
<path d="M147.386 118.608C147.276 118.608 147.167 118.498 147.167 118.389C147.167 118.279 147.276 118.17 147.386 118.17C154.506 117.841 161.626 117.731 168.745 117.841C168.855 117.841 168.964 117.95 168.964 118.06C168.964 118.169 168.855 118.279 168.745 118.279C161.626 118.06 154.506 118.169 147.386 118.608Z" fill="#A3AEBB"/>
<path d="M151.802 121.345C150.269 121.345 148.735 121.345 147.092 121.345C146.983 121.345 146.873 121.236 146.873 121.126C146.873 121.017 146.983 120.907 147.092 120.907C154.431 121.017 161.879 120.907 169.218 120.469C169.328 120.469 169.437 120.578 169.437 120.688C169.437 120.797 169.328 120.907 169.218 120.907C163.413 121.236 157.607 121.345 151.802 121.345Z" fill="#A3AEBB"/>
<path d="M146.975 124.961C146.866 124.961 146.756 124.852 146.756 124.742C146.756 124.633 146.866 124.523 146.975 124.523C154.424 123.975 161.981 123.866 169.43 124.085C169.539 124.085 169.649 124.194 169.649 124.304C169.649 124.413 169.539 124.523 169.43 124.523C161.981 124.194 154.424 124.414 146.975 124.961Z" fill="#A3AEBB"/>
<path d="M147.185 128.356C147.075 128.356 146.966 128.247 146.966 128.137C146.966 128.028 147.075 127.918 147.185 127.918L169.42 127.261C169.53 127.261 169.639 127.371 169.639 127.48C169.639 127.59 169.53 127.699 169.42 127.699L147.185 128.356Z" fill="#A3AEBB"/>
<path d="M154.643 131.205C152.123 131.205 149.494 131.205 146.975 131.205C146.866 131.205 146.756 131.096 146.756 130.986C146.756 130.877 146.866 130.767 146.975 130.767C154.314 130.767 161.872 130.767 169.211 130.657C169.32 130.657 169.43 130.767 169.43 130.877C169.43 130.986 169.32 131.096 169.211 131.096C164.501 131.096 159.572 131.205 154.643 131.205Z" fill="#A3AEBB"/>
<path d="M147.092 134.051C146.982 134.051 146.873 133.942 146.873 133.832C146.873 133.723 146.982 133.613 147.092 133.613H168.889C168.999 133.613 169.108 133.723 169.108 133.832C169.108 133.942 168.999 134.051 168.889 134.051H147.092Z" fill="#A3AEBB"/>
<path d="M157.23 136.79C153.944 136.79 150.549 136.681 147.263 136.571C147.153 136.571 147.044 136.462 147.044 136.352C147.044 136.243 147.153 136.133 147.263 136.133C154.602 136.352 161.94 136.352 169.279 136.024C169.389 136.024 169.498 136.133 169.498 136.243C169.498 136.352 169.389 136.462 169.279 136.462C165.336 136.681 161.283 136.79 157.23 136.79Z" fill="#A3AEBB"/>
<path d="M100.051 106.121C99.9416 106.121 99.832 106.011 99.832 105.902C99.832 105.792 99.9416 105.683 100.051 105.683C106.514 105.573 113.086 105.464 119.658 105.354C119.767 105.354 119.877 105.464 119.877 105.573C119.877 105.683 119.767 105.792 119.658 105.792C113.195 105.792 106.623 105.902 100.051 106.121Z" fill="#006FFD"/>
<path d="M109.733 119.046C109.624 119.046 109.514 118.936 109.514 118.827L109.843 105.792C109.843 105.683 109.952 105.573 110.062 105.573C110.171 105.573 110.281 105.683 110.281 105.792L109.952 118.827C109.843 118.936 109.843 119.046 109.733 119.046Z" fill="#006FFD"/>
<path d="M110.597 76.1085C110.487 76.1085 110.378 75.9989 110.378 75.8894C110.268 72.6034 109.94 69.2078 109.611 65.9217C109.611 65.8122 109.721 65.7026 109.721 65.7026C109.83 65.7026 109.94 65.8122 109.94 65.8122C110.268 69.0982 110.597 72.4938 110.706 75.8894C110.706 75.9989 110.706 76.1085 110.597 76.1085Z" fill="#006FFD"/>
<path d="M105.337 70.851C105.228 70.851 105.118 70.7414 105.118 70.6319C105.118 70.5224 105.228 70.4128 105.337 70.4128L115.195 69.7556C115.305 69.7556 115.414 69.8651 115.414 69.9747C115.414 70.0842 115.305 70.1937 115.195 70.1937L105.337 70.851Z" fill="#006FFD"/>
<path d="M81.2279 136.134C80.8992 136.134 80.6802 135.914 80.6802 135.586C80.6802 135.257 80.8992 135.038 81.2279 135.038L138.405 134.381C138.734 134.381 138.953 134.6 138.953 134.929C138.953 135.257 138.734 135.476 138.405 135.476L81.2279 136.134Z" fill="#006FFD"/>
<g opacity="0.1294">
<path d="M140.283 85.5289C140.173 85.3098 140.064 85.0908 139.954 84.9812C139.954 84.2145 139.406 83.4478 138.53 83.4478C136.558 83.6668 134.477 83.4478 132.506 83.5573C130.534 83.5573 128.453 83.7764 126.481 83.9954C126.043 83.9954 125.605 83.9954 125.167 84.2145C124.619 84.2145 124.181 84.2145 123.633 84.2145C120.347 84.324 117.171 84.2145 113.885 84.2145C108.956 84.2145 104.027 84.324 99.0975 84.324C96.2495 84.324 93.4016 84.105 90.5537 84.2145C87.3772 84.2145 84.3102 84.6526 81.1337 84.324C79.0525 84.105 78.8335 87.2815 80.9146 87.391C84.5293 87.7196 88.0344 87.2815 91.6491 87.2815C99.207 87.6101 106.765 87.391 114.323 87.2815C117.499 87.2815 120.676 87.391 123.852 87.391C128.234 87.6101 132.615 87.8292 137.106 87.7196C137.325 87.7196 137.544 87.7196 137.654 87.7196C137.763 87.7196 137.873 87.7196 137.982 87.7196C138.421 87.8292 138.749 87.7196 139.187 87.7196C139.954 87.1719 140.502 86.2957 140.283 85.5289Z" fill="#A3AEBB"/>
</g>
<g opacity="0.1294">
<path d="M168.977 115.103C168.649 114.884 168.211 114.884 167.882 114.884C166.677 114.884 165.582 114.884 164.377 114.884C162.077 114.884 159.667 114.775 157.367 114.775C154.409 114.884 151.452 114.884 148.494 114.665C147.837 114.665 147.18 114.556 146.632 115.103C145.756 115.979 146.413 117.623 147.618 117.623C150.904 117.951 154.3 117.842 157.586 117.623C160.762 117.623 164.048 117.842 167.225 117.842C167.663 117.842 168.211 117.951 168.649 117.732C169.963 117.403 169.963 115.651 168.977 115.103Z" fill="#A3AEBB"/>
</g>
<path d="M201.356 86.9681C201.45 91.3105 204.282 95.7473 208.247 97.1633C210.418 97.9185 212.778 97.7297 215.044 98.2961C217.31 98.8625 219.575 100.562 219.764 102.922C219.764 103.488 219.67 104.149 219.858 104.715C220.236 106.32 222.124 106.792 223.54 107.453C231.186 110.851 227.316 119.158 219.481 121.99C215.988 123.218 214.478 123.501 210.796 122.934C207.114 122.368 203.716 120.291 201.073 117.554C198.43 114.816 196.447 111.323 194.937 107.83C193.143 103.771 191.822 99.2401 192.577 94.8977C193.332 90.5553 196.73 86.5905 201.356 86.9681Z" fill="#ACD4F7"/>
<path d="M200.883 87.2516C196.541 87.2516 193.52 91.122 192.859 94.9924C192.199 98.5796 192.954 102.639 195.219 107.736C197.013 111.796 198.995 115.005 201.261 117.365C204.093 120.292 207.397 122.18 210.795 122.652C214.571 123.218 215.987 122.935 219.386 121.708C223.917 120.103 227.221 116.421 227.315 113.023C227.41 110.757 225.994 108.869 223.351 107.736C223.162 107.642 222.973 107.548 222.69 107.453C221.368 106.887 219.763 106.226 219.48 104.716C219.386 104.338 219.386 103.866 219.386 103.488C219.386 103.3 219.386 103.016 219.386 102.828C219.291 100.562 217.026 98.9572 214.949 98.4852C214.005 98.202 212.967 98.1076 212.023 98.0132C210.795 97.8244 209.474 97.73 208.152 97.258C204.282 95.9364 201.261 91.6884 201.072 87.0628C200.978 87.2516 200.978 87.2516 200.883 87.2516ZM213.816 123.596C212.872 123.596 211.928 123.501 210.607 123.312C207.114 122.84 203.621 120.858 200.695 117.837C198.335 115.383 196.352 112.173 194.464 108.02C192.199 102.828 191.443 98.674 192.104 94.898C192.859 90.65 196.352 86.3076 201.261 86.6852C201.45 86.6852 201.544 86.874 201.544 86.9684C201.639 91.4052 204.471 95.5588 208.247 96.8804C209.474 97.258 210.701 97.4468 211.928 97.5412C212.967 97.6356 214.005 97.73 214.949 98.0132C217.215 98.5796 219.763 100.373 219.858 102.922C219.858 103.111 219.858 103.394 219.858 103.583C219.858 103.96 219.858 104.338 219.952 104.621C220.235 105.848 221.557 106.32 222.784 106.887C222.973 106.981 223.256 107.076 223.445 107.17C226.277 108.397 227.882 110.568 227.787 113.023C227.693 116.704 224.106 120.575 219.386 122.274C217.215 123.218 215.799 123.596 213.816 123.596Z" fill="black"/>
<path d="M181.626 87.9124C180.871 87.0628 178.983 87.6292 179.077 88.762C179.171 91.4052 178.794 93.7652 176.811 96.5972C175.867 98.0132 174.546 99.2404 173.696 100.656C172.658 102.356 172.375 104.149 172.28 105.943C172.186 109.341 172.847 112.74 175.584 115.194C178.227 117.554 183.136 118.592 187.101 116.893C190.594 115.383 192.576 112.173 192.859 109.247C193.143 106.32 191.915 103.488 190.688 100.845C188.234 95.842 185.119 91.9716 181.626 87.9124Z" fill="#ACD4F7"/>
<path d="M180.682 87.8177C180.493 87.8177 180.304 87.8177 180.116 87.9121C179.738 88.0065 179.455 88.2897 179.455 88.6673C179.549 91.0273 179.36 93.5761 177.095 96.6913C176.717 97.2577 176.151 97.8241 175.679 98.3905C175.018 99.1457 174.357 99.9009 173.885 100.75C173.036 102.166 172.658 103.771 172.564 105.942C172.375 109.813 173.508 112.834 175.679 114.91C178.039 117.082 182.759 118.309 186.912 116.61C190.028 115.288 192.199 112.362 192.482 109.246C192.765 106.32 191.538 103.582 190.311 101.034C188.045 96.4081 185.213 92.6321 181.437 88.1953C181.248 87.8177 180.965 87.8177 180.682 87.8177ZM182.759 118.026C180.021 118.026 177.189 117.082 175.301 115.382C172.941 113.211 171.808 110.002 171.903 105.942C171.997 103.677 172.469 101.978 173.319 100.467C173.791 99.6177 174.452 98.8625 175.112 98.0129C175.584 97.4465 176.056 96.8801 176.434 96.3137C178.511 93.3873 178.7 90.9329 178.605 88.6673C178.605 88.1009 178.983 87.5345 179.738 87.2513C180.399 86.9681 181.248 86.9681 181.815 87.6289C185.685 92.1601 188.517 95.8417 190.783 100.656C192.104 103.299 193.332 106.131 193.048 109.152C192.765 112.55 190.405 115.666 187.101 117.082C185.874 117.648 184.364 117.931 182.759 118.026Z" fill="black"/>
<path d="M188.989 111.419C188.989 108.304 188.706 105.094 188.14 101.601C189.367 100.94 190.783 100.468 192.104 100.185C192.765 100.091 193.426 99.9963 193.898 100.374C194.181 100.563 194.37 100.94 194.559 101.318C195.692 103.678 196.73 106.038 197.863 108.398C197.957 108.587 198.052 108.776 198.052 108.964C198.052 109.248 197.863 109.531 197.674 109.72C195.597 111.985 191.916 112.835 188.989 111.419Z" fill="white"/>
<path d="M189.273 111.135C192.01 112.362 195.503 111.607 197.485 109.341C197.674 109.153 197.769 108.964 197.769 108.775C197.769 108.681 197.674 108.492 197.674 108.303L194.37 101.223C194.276 100.94 194.087 100.562 193.804 100.373C193.426 100.09 192.765 100.185 192.199 100.279C190.877 100.562 189.65 100.94 188.517 101.601C188.989 105.188 189.273 108.209 189.273 111.135ZM192.105 112.457C190.972 112.457 189.839 112.173 188.801 111.701C188.706 111.607 188.612 111.513 188.612 111.418C188.612 108.303 188.329 105.282 187.762 101.601C187.762 101.506 187.857 101.317 187.951 101.317C189.273 100.657 190.594 100.09 192.01 99.8071C192.671 99.7127 193.521 99.6183 194.087 100.09C194.465 100.373 194.653 100.845 194.842 101.129L198.146 108.209C198.241 108.397 198.335 108.681 198.335 108.964C198.335 109.341 198.052 109.719 197.863 109.908C196.447 111.513 194.276 112.457 192.105 112.457Z" fill="black"/>
<path d="M227.882 137.567C226.466 131.808 220.519 117.46 215.516 112.551C211.74 108.869 202.96 107.453 197.58 107.076C196.636 109.341 193.992 111.89 191.632 111.607C190.405 111.512 189.178 110.568 188.423 109.247C184.175 111.418 179.832 113.684 176.528 117.176C171.808 122.274 170.015 132.28 168.032 139.455C170.392 140.185 172.847 140.657 175.112 140.657C177.378 140.752 179.832 140.846 182.192 140.657C184.741 140.563 187.762 140.657 190.216 140.657C198.429 140.846 228.99 142.073 227.882 137.567Z" fill="white"/>
<path d="M175.868 84.1357C176.812 86.9677 177.945 89.7997 177.756 92.8205C177.661 94.4253 179.172 102.355 185.969 103.393C189.556 103.96 193.332 103.016 196.353 100.278C198.429 98.3901 200.412 93.4813 199.09 89.2333C201.073 89.4221 202.772 87.7229 202.489 86.0237C202.3 84.9853 200.978 83.9469 199.845 84.2301C198.996 84.4189 198.807 84.5133 198.241 85.0797C197.391 83.0973 196.73 81.1149 196.353 78.7549C193.709 76.7725 189.933 76.2061 186.346 76.3005C185.119 76.3005 183.892 76.4893 182.759 76.8669C179.266 77.9053 174.924 81.3037 175.868 84.1357Z" fill="white"/>
<path d="M176.151 84.0414C176.245 84.419 176.34 84.7022 176.528 85.0798C177.378 87.5342 178.228 90.1774 178.039 92.8206C177.944 93.9534 179.077 101.977 185.968 103.11C189.65 103.677 193.237 102.638 196.069 100.089C197.957 98.3902 200.034 93.5758 198.712 89.4222C198.712 89.3278 198.712 89.2334 198.807 89.139C198.901 89.0446 198.996 89.0446 199.09 89.0446C200.034 89.139 200.884 88.7614 201.544 88.1006C202.016 87.5342 202.3 86.8734 202.111 86.2126C202.016 85.835 201.639 85.363 201.261 84.9854C200.789 84.7022 200.317 84.6078 199.845 84.7022C198.996 84.891 198.996 84.891 198.429 85.4574C198.335 85.5518 198.24 85.5518 198.146 85.5518C198.052 85.5518 197.957 85.4574 197.863 85.363C196.919 83.1918 196.258 81.2094 195.975 79.0382C193.143 76.9614 189.178 76.5838 186.252 76.7726C185.308 76.7726 183.986 76.867 182.759 77.2446C180.493 77.9998 177.567 79.8878 176.528 81.9646C176.056 82.6254 175.962 83.3806 176.151 84.0414ZM187.856 103.865C187.196 103.865 186.535 103.771 185.874 103.677C179.077 102.638 177.284 94.803 177.472 92.7262C177.661 90.1774 176.812 87.6286 175.962 85.1742C175.868 84.7966 175.773 84.5134 175.584 84.1358C175.301 83.2862 175.396 82.4366 175.868 81.4926C177 79.227 180.116 77.2446 182.476 76.4894C183.797 76.1118 185.119 76.0174 186.157 75.923C189.178 75.8286 193.332 76.2062 196.352 78.4718C196.447 78.5662 196.447 78.5662 196.447 78.6606C196.824 80.643 197.296 82.531 198.146 84.5134C198.524 84.1358 198.807 84.0414 199.562 83.8526C200.128 83.6638 200.884 83.8526 201.45 84.2302C202.111 84.6078 202.488 85.2686 202.583 85.835C202.772 86.6846 202.488 87.6286 201.828 88.2894C201.167 88.9502 200.317 89.4222 199.373 89.4222C200.6 93.7646 198.524 98.579 196.447 100.373C193.992 102.733 190.972 103.865 187.856 103.865Z" fill="black"/>
<path d="M196.163 63.8402C194.275 60.253 189.744 58.837 186.157 60.725C182.57 62.613 181.154 67.1442 183.042 70.7314C184.93 74.3186 189.461 75.7346 193.048 73.8466C196.635 71.9586 198.051 67.4274 196.163 63.8402Z" fill="#ACD4F7"/>
<path d="M189.555 60.1585C188.423 60.1585 187.29 60.4417 186.251 61.0081C182.759 62.8017 181.437 67.1441 183.231 70.5425C185.024 74.0353 189.367 75.3569 192.765 73.5633C196.258 71.7697 197.579 67.4273 195.786 64.0289C194.559 61.4801 192.104 60.1585 189.555 60.1585ZM189.555 74.9793C186.723 74.9793 184.08 73.4689 182.664 70.8257C180.682 67.0497 182.192 62.3297 185.968 60.3473C189.744 58.3649 194.464 59.8753 196.447 63.6513C198.429 67.4273 196.919 72.1473 193.143 74.1297C192.01 74.6961 190.783 74.9793 189.555 74.9793Z" fill="black"/>
<path d="M197.958 85.2692C195.126 83.1924 192.671 80.4548 190.783 77.434C185.686 83.7588 179.266 85.3636 172.942 87.4404C172.375 86.402 172.186 85.2692 172.281 84.042C172.47 81.21 173.036 78.5668 176.151 75.4516C178.322 73.2804 181.626 71.2036 184.647 70.5428C187.668 69.882 190.689 70.5428 193.332 71.5812C195.503 72.4308 197.674 74.3188 199.09 76.5844C200.223 78.4724 201.073 81.9652 200.884 84.3252C200.506 84.1364 200.034 84.042 199.279 84.3252C198.902 84.514 198.335 84.8916 197.958 85.2692Z" fill="#ACD4F7"/>
<path d="M187.101 70.5424C186.252 70.5424 185.402 70.6368 184.647 70.8256C181.437 71.4864 178.228 73.752 176.34 75.64C173.13 78.7552 172.753 81.4928 172.564 84.0416C172.469 85.08 172.658 86.1184 173.036 86.968C173.508 86.7792 173.98 86.6848 174.357 86.496C180.305 84.608 185.874 82.8144 190.405 77.056C190.5 76.9616 190.594 76.9616 190.689 76.9616C190.783 76.9616 190.877 77.056 190.972 77.1504C192.671 80.0768 195.031 82.6256 197.769 84.7968C198.146 84.5136 198.618 84.136 198.996 83.9472C199.468 83.7584 199.94 83.7584 200.412 83.8528C200.412 81.4928 199.657 78.3776 198.618 76.6784C197.297 74.6016 195.125 72.7136 193.049 71.864C191.066 71.0144 189.084 70.5424 187.101 70.5424ZM172.941 87.7232C172.847 87.7232 172.753 87.6288 172.658 87.5344C172.092 86.496 171.903 85.3632 171.997 84.0416C172.186 80.832 172.941 78.1888 175.962 75.2624C177.945 73.28 181.249 71.0144 184.647 70.2592C187.385 69.6928 190.311 70.0704 193.521 71.392C195.786 72.336 198.052 74.3184 199.373 76.4896C200.601 78.3776 201.356 81.8704 201.261 84.4192C201.261 84.5136 201.167 84.608 201.073 84.7024C200.978 84.7968 200.884 84.7968 200.789 84.7024C200.506 84.608 200.129 84.4192 199.468 84.7024C199.185 84.7968 198.713 85.08 198.241 85.552C198.146 85.6464 197.957 85.6464 197.863 85.552C195.031 83.4752 192.671 80.832 190.877 78C186.252 83.5696 180.399 85.4576 174.735 87.2512C174.169 87.44 173.697 87.6288 173.13 87.8176L172.941 87.7232Z" fill="black"/>
<path d="M189.367 99.7125C188.989 99.7125 188.706 99.6181 188.329 99.4293C188.14 99.3349 188.14 99.1461 188.234 98.9573C188.329 98.7685 188.517 98.7685 188.706 98.8629C189.461 99.3349 190.311 98.8629 190.5 98.6741C191.255 98.2021 191.727 97.4469 191.916 96.5973C191.916 96.4085 192.105 96.3141 192.293 96.4085C192.482 96.4085 192.577 96.5973 192.482 96.7861C192.199 97.8245 191.633 98.6741 190.783 99.2405C190.405 99.6181 189.839 99.8069 189.367 99.7125Z" fill="black"/>
<path d="M191.255 88.5726C191.16 88.195 190.783 88.0062 190.405 88.195C190.028 88.2894 189.839 88.667 189.933 89.0446C190.028 89.4222 190.405 89.611 190.783 89.4222C191.16 89.3278 191.349 88.9502 191.255 88.5726Z" fill="black"/>
<path d="M180.777 91.1216C180.682 90.744 180.305 90.5552 179.927 90.744C179.55 90.8384 179.361 91.216 179.455 91.5936C179.55 91.9712 179.927 92.16 180.305 91.9712C180.682 91.8768 180.871 91.4992 180.777 91.1216Z" fill="black"/>
<path d="M186.346 94.8032L185.308 94.6144C185.213 94.6144 184.93 94.52 184.741 94.3312C184.553 94.048 184.741 93.7648 184.741 93.576C185.213 92.5376 185.308 91.3104 184.741 90.272C184.647 90.0832 184.741 89.8944 184.93 89.8C185.119 89.7056 185.308 89.8 185.402 89.9888C185.969 91.216 185.969 92.632 185.402 93.8592V93.9536H185.497L186.535 94.1424C186.724 94.1424 186.818 94.3312 186.818 94.52C186.629 94.6144 186.535 94.8032 186.346 94.8032Z" fill="black"/>
<path d="M191.633 85.0804C191.255 85.0804 190.972 85.1748 190.594 85.2692C188.706 85.93 187.668 88.1012 188.423 90.2724C188.801 91.3108 189.462 92.1604 190.311 92.6324C191.161 93.1044 192.199 93.2932 193.143 92.9156C194.087 92.6324 194.748 91.9716 195.22 91.0276C195.598 90.0836 195.692 89.0452 195.314 88.0068C194.748 86.2132 193.143 85.0804 191.633 85.0804ZM192.105 93.6708C191.35 93.6708 190.689 93.482 190.028 93.1044C188.99 92.538 188.234 91.4996 187.857 90.3668C187.102 87.9124 188.234 85.2692 190.5 84.6084C192.766 83.8532 195.22 85.2692 195.975 87.7236C196.353 88.9508 196.258 90.178 195.786 91.2164C195.314 92.3492 194.465 93.1044 193.332 93.482C192.86 93.6708 192.482 93.6708 192.105 93.6708Z" fill="black"/>
<path d="M180.21 87.7239C179.833 87.7239 179.549 87.8183 179.172 87.9127C178.228 88.1959 177.567 88.8567 177.095 89.8007C176.717 90.7447 176.623 91.7831 177.001 92.8215C177.661 94.9927 179.833 96.1255 181.721 95.5591C183.609 94.8983 184.647 92.7271 183.892 90.5559C183.325 88.8567 181.815 87.7239 180.21 87.7239ZM180.682 96.4087C178.794 96.4087 177.001 95.0871 176.34 93.1047C176.057 91.8775 176.057 90.6503 176.529 89.5175C177.001 88.3847 177.85 87.6295 178.983 87.2519C181.249 86.4967 183.703 87.9127 184.458 90.3671C185.213 92.8215 184.081 95.4647 181.815 96.1255C181.532 96.3143 181.154 96.4087 180.682 96.4087Z" fill="black"/>
<path d="M183.986 90.0838C183.797 90.0838 183.703 89.9894 183.703 89.8006C183.514 89.1398 184.08 88.5734 184.741 88.1958C185.685 87.7238 186.912 87.8182 187.856 88.2902C188.045 88.3846 188.045 88.5734 187.951 88.7622C187.856 88.951 187.668 88.951 187.479 88.8566C186.724 88.3846 185.78 88.3846 184.93 88.7622C184.552 88.951 184.175 89.3286 184.269 89.6118C184.364 89.895 184.269 90.0838 183.986 90.0838Z" fill="black"/>
<path d="M194.275 86.1194C194.087 86.1194 193.992 86.025 193.992 85.8362C193.992 85.6474 194.087 85.4586 194.275 85.4586L197.485 84.9866C197.674 84.9866 197.863 85.081 197.863 85.2698C197.863 85.4586 197.768 85.6474 197.579 85.6474L194.275 86.1194Z" fill="black"/>
<path d="M194.464 70.0702C194.37 70.0702 194.276 70.0702 194.276 69.9758C193.615 69.4094 192.671 69.0318 191.632 68.843C190.688 68.6542 189.65 68.6542 188.706 68.6542C188.517 68.6542 188.423 68.4654 188.423 68.371C188.423 68.2766 188.423 67.9934 188.612 67.9934C189.65 67.9934 190.688 67.9934 191.727 68.1822C192.86 68.371 193.898 68.843 194.653 69.5038C194.748 69.5982 194.842 69.787 194.653 69.9758C194.653 70.0702 194.559 70.0702 194.464 70.0702Z" fill="black"/>
<path d="M198.618 87.9122C198.429 87.9122 198.335 87.8178 198.335 87.629C198.146 86.7794 197.863 86.0242 197.391 85.3634C197.296 85.1746 197.296 84.9858 197.485 84.8914C197.674 84.797 197.863 84.797 197.957 84.9858C198.429 85.741 198.807 86.5906 198.996 87.5346C198.901 87.629 198.807 87.8178 198.618 87.9122Z" fill="black"/>
<path d="M194.653 71.8643C194.276 71.6755 193.898 71.3923 193.426 71.2979C191.255 70.3539 189.084 69.9763 187.101 69.9763C186.252 69.9763 185.402 70.0707 184.552 70.2595C184.458 70.2595 184.269 70.3539 184.175 70.3539C183.892 70.0707 183.892 69.5043 184.269 69.2211C184.458 69.0323 184.647 69.0323 184.93 68.9379C185.308 68.8435 185.685 68.7491 186.063 68.7491C186.629 68.6547 187.29 68.5603 187.856 68.5603C188.045 68.5603 188.234 68.5603 188.423 68.5603C188.517 68.6547 188.517 68.6547 188.612 68.6547C188.706 68.6547 188.8 68.6547 188.8 68.6547C188.989 68.6547 189.178 68.6547 189.367 68.6547C190.405 68.7491 191.444 69.0323 192.388 69.4099C192.954 69.5987 193.426 69.8819 193.992 70.0707C194.276 70.2595 194.653 70.3539 194.842 70.6371C195.314 71.1091 195.031 71.6755 194.653 71.8643Z" fill="#96B9D7"/>
<path d="M194.275 71.959C194.087 71.959 193.992 71.959 193.803 71.8646C192.671 71.1094 190.499 70.4486 189.083 70.3542C188.517 70.2598 188.139 70.2598 187.762 70.2598C187.29 70.2598 186.912 70.3542 186.251 70.4486C185.874 70.4486 185.591 70.543 185.213 70.6374C185.024 70.6374 184.93 70.7318 184.741 70.7318C184.552 70.7318 184.458 70.7318 184.363 70.6374C184.269 70.6374 184.269 70.543 184.175 70.4486C184.269 70.4486 184.458 70.3542 184.552 70.3542C185.402 70.1654 186.251 70.071 187.101 70.071C189.083 70.071 191.16 70.543 193.426 71.3926C193.803 71.5814 194.181 71.7702 194.653 71.959C194.559 71.959 194.37 71.959 194.275 71.959Z" fill="black"/>
<path d="M189.461 68.6547C189.273 68.6547 189.084 68.6547 188.895 68.6547C188.801 68.6547 188.706 68.6547 188.706 68.6547C188.612 68.6547 188.517 68.6547 188.517 68.5603C188.706 68.5603 189.084 68.6547 189.461 68.6547Z" fill="black"/>
<path d="M176.623 87.5343C176.529 87.5343 176.529 87.5343 176.434 87.5343C176.151 87.4399 175.962 87.1567 175.962 86.8735C176.057 86.8735 176.151 86.7791 176.34 86.7791C176.434 86.9679 176.529 87.2511 176.623 87.5343Z" fill="#DEDEDE"/>
<path d="M177.189 87.346C177.095 87.0628 177 86.7796 176.906 86.402C181.815 84.7972 186.724 82.7204 190.688 77.906C190.783 78.0004 190.877 78.1892 190.877 78.2836C189.744 79.794 188.517 81.3988 187.007 82.5316C186.063 83.2868 185.024 83.8532 183.986 84.514C183.136 84.986 182.287 85.3636 181.437 85.7412C180.116 86.3076 178.794 86.874 177.378 87.346C177.378 87.346 177.284 87.346 177.189 87.346Z" fill="#DEDEDE"/>
<path d="M176.623 87.535C176.528 87.2518 176.434 86.9686 176.339 86.6854C176.528 86.591 176.717 86.591 176.906 86.4966C177 86.7798 177.095 87.063 177.189 87.4406C177.095 87.4406 176.906 87.535 176.811 87.535C176.717 87.4406 176.623 87.535 176.623 87.535Z" fill="black"/>
<path d="M175.962 86.7785C175.962 86.5897 176.151 86.3065 176.434 86.3065C176.529 86.3065 176.906 86.1177 177.001 86.1177C177.661 85.9289 178.322 85.7401 178.983 85.5513C180.21 85.0793 181.437 84.6073 182.57 84.0409C183.986 83.3801 185.213 82.6249 186.724 81.4921C188.045 80.4537 188.895 79.5097 190.028 77.9993C190.217 77.8105 190.405 77.4329 190.689 77.3385C190.689 77.3385 190.689 77.3385 190.783 77.3385C191.161 77.3385 191.444 77.8105 191.161 78.0937C191.066 78.1881 191.066 78.2825 190.972 78.3769C190.877 78.2825 190.783 78.0937 190.783 77.9993C186.724 82.8137 181.815 84.8905 177.001 86.4953C176.812 86.5897 176.623 86.5897 176.434 86.6841C176.245 86.6841 176.057 86.6841 175.962 86.7785Z" fill="black"/>
<path d="M189.367 108.303C189.272 108.303 189.272 108.303 189.178 108.303C189.083 106.887 188.989 105.471 188.8 103.866C190.216 103.772 191.538 103.394 192.765 102.922C193.143 102.828 193.331 102.733 193.426 102.639L193.52 102.545C193.803 102.45 193.992 102.261 194.275 102.167C194.37 102.073 194.559 102.073 194.653 101.978L195.031 102.828C193.992 103.866 192.954 104.81 192.01 105.849C191.538 106.415 190.971 106.981 190.499 107.453C190.311 107.642 190.027 107.925 189.744 108.114H189.65H189.555C189.555 108.303 189.461 108.303 189.367 108.303Z" fill="#DEDEDE"/>
<path d="M189.178 108.302C189.084 108.302 188.895 108.208 188.895 108.019L188.8 107.925C188.8 107.83 188.8 107.642 188.8 107.547C188.8 107.264 188.8 107.075 188.8 106.792C188.8 106.32 188.8 105.848 188.706 105.376C188.706 104.904 188.612 104.432 188.612 104.054L188.423 103.866C188.517 103.866 188.612 103.866 188.706 103.866C188.989 105.376 189.084 106.886 189.178 108.302ZM195.031 102.827L194.653 101.978C194.653 101.978 194.748 101.978 194.748 101.883V101.978L194.842 102.167L194.936 102.261C195.031 102.355 195.125 102.544 195.22 102.638L195.125 102.733L195.031 102.827Z" fill="black"/>
<path d="M188.423 103.866V103.771C188.423 103.677 188.328 103.583 188.328 103.583C188.423 103.394 188.612 103.394 188.8 103.394C188.989 103.394 189.178 103.488 189.367 103.488C189.556 103.488 189.65 103.488 189.933 103.488C190.122 103.488 190.216 103.488 190.5 103.488C190.783 103.488 192.01 103.205 192.86 102.922C191.538 103.488 190.216 103.771 188.895 103.866C188.706 103.866 188.612 103.866 188.423 103.866ZM193.52 102.544C193.615 102.45 193.709 102.355 193.804 102.355C193.992 102.261 194.087 102.261 194.276 102.167C193.992 102.261 193.804 102.355 193.52 102.544Z" fill="black"/>
<path d="M191.727 111.418C194.087 111.701 196.635 109.435 197.674 107.17C200.883 107.359 210.512 108.397 214.571 112.173C219.291 116.704 224.861 129.826 226.371 135.395L226.466 135.773C226.655 136.434 226.843 137.283 227.127 138.227C227.315 138.227 227.599 138.322 227.787 138.322C227.504 137.283 227.315 136.434 227.032 135.584L226.938 135.207C225.427 129.637 219.763 116.232 214.949 111.701C210.701 107.642 200.506 106.698 197.485 106.509C197.391 106.509 197.202 106.603 197.202 106.698C196.352 108.775 193.898 110.946 191.821 110.757C190.688 110.663 189.65 109.907 188.989 108.68C188.895 108.491 188.706 108.491 188.611 108.586C184.552 110.568 180.304 112.645 177 116.043C172.469 120.763 169.92 132.067 168.032 138.675L167.937 139.052C167.843 139.241 167.937 139.43 168.126 139.43C168.315 139.524 168.504 139.43 168.504 139.241L168.598 138.958C170.392 132.822 172.941 121.235 177.378 116.61C180.493 113.4 184.552 111.323 188.517 109.341C189.367 110.568 190.499 111.323 191.727 111.418Z" fill="black"/>
<path d="M214.1 137C214.289 137 214.572 137 214.761 136.906C213.345 133.791 211.551 129.543 210.607 126.427C210.513 126.239 210.418 126.144 210.229 126.239C210.041 126.333 209.946 126.522 210.041 126.711C210.89 129.826 212.684 133.885 214.1 137Z" fill="black"/>
<path d="M195.975 113.589C195.881 113.589 195.786 113.495 195.692 113.4C195.598 113.212 195.692 113.023 195.786 112.928C197.297 111.984 198.335 110.474 198.524 108.68C198.524 108.492 198.713 108.397 198.902 108.397C199.09 108.397 199.185 108.586 199.185 108.775C198.902 110.663 197.769 112.456 196.164 113.4C196.164 113.589 196.07 113.589 195.975 113.589Z" fill="black"/>
<path d="M200.034 111.984H199.939C199.751 111.889 199.656 111.701 199.751 111.606L200.6 109.152C200.695 108.963 200.883 108.869 200.978 108.963C201.167 109.057 201.261 109.246 201.167 109.341L200.317 111.795C200.317 111.889 200.223 111.984 200.034 111.984Z" fill="black"/>
<path d="M214.194 136.717H212.023C211.74 136.622 211.551 136.433 211.457 136.245C210.702 134.262 210.135 129.92 209.663 127.088C209.569 126.71 209.758 126.427 210.041 126.333C210.041 126.427 210.041 126.427 210.041 126.521C210.418 127.843 211.079 129.448 211.646 131.053C211.646 131.053 211.646 131.053 211.646 131.147C212.495 133.035 213.345 135.017 214.194 136.717Z" fill="#DEDEDE"/>
<path d="M210.89 127.088C210.796 126.805 210.702 126.616 210.702 126.333C210.702 126.333 210.702 126.333 210.702 126.427C210.796 126.616 210.89 126.899 210.89 127.088Z" fill="#DEDEDE"/>
<path d="M214.194 136.717C213.439 135.018 212.495 133.035 211.645 131.053C211.929 131.053 212.306 131.336 212.401 131.714C212.778 132.563 213.156 133.413 213.533 134.168C213.817 134.829 214.289 135.49 214.383 136.15C214.383 136.434 214.289 136.622 214.194 136.717ZM211.645 130.958C210.985 129.354 210.418 127.749 210.041 126.427C210.041 126.333 210.041 126.333 210.041 126.238C210.135 126.238 210.229 126.144 210.324 126.144C210.513 126.144 210.607 126.238 210.796 126.333C210.89 126.522 210.985 126.805 210.985 127.088C210.985 127.182 210.985 127.277 211.079 127.371C211.173 128.126 211.268 128.882 211.457 129.637C211.457 130.109 211.551 130.486 211.645 130.958Z" fill="black"/>
<path d="M87.0365 144.598C86.6589 144.598 86.2813 144.503 85.9037 144.503C84.2989 144.126 82.6941 143.37 81.3725 142.426C79.1069 141.01 77.1245 139.122 75.2365 137.046C74.8589 136.668 75.1421 136.007 75.6141 136.007C75.7085 136.007 75.8029 136.007 75.8973 136.102C76.1805 136.29 76.3693 136.574 76.6525 136.857C77.5021 137.706 78.4461 138.65 79.3901 139.406C80.0509 139.972 80.9005 140.538 82.0333 141.199C83.7325 142.143 84.1101 142.332 86.2813 142.898C86.3757 142.898 86.4701 142.898 86.6589 142.993C86.7533 142.993 86.8477 142.993 86.9421 142.993C87.2253 142.993 87.4141 142.993 87.6029 142.993C87.7917 142.993 87.9805 142.993 88.1693 142.993H88.0749C89.0189 142.898 89.7741 142.71 90.3405 142.332C91.2845 141.86 91.8509 141.388 92.4173 140.916C92.6061 140.727 92.7949 140.538 92.9837 140.35C93.1725 140.161 93.3613 139.972 93.5501 139.972C93.6445 139.972 93.7389 139.972 93.8333 140.066C92.6061 141.954 91.3789 143.276 89.9629 144.031C89.3021 144.314 88.5469 144.503 87.7917 144.598H87.6973C87.6973 144.598 87.6029 144.598 87.5085 144.598C87.3197 144.598 87.2253 144.598 87.0365 144.598Z" fill="#DEDEDE"/>
<path d="M66.6461 137.234C66.4573 137.234 66.2685 137.139 66.1741 136.951C65.9853 136.479 65.8909 135.912 65.7021 135.44C64.8525 131.853 63.8141 128.738 62.3037 125.717C62.0205 125.245 62.3981 124.773 62.8701 124.773C62.8701 124.773 62.8701 124.773 62.9645 124.773H62.8701C62.7757 124.867 62.6813 125.056 62.7757 125.151C64.1917 127.133 65.6077 129.115 66.9293 131.003V131.098C66.9293 131.098 66.9293 131.098 66.9293 131.192C66.9293 133.175 66.9293 135.157 67.0237 137.139C66.8349 137.234 66.7405 137.234 66.6461 137.234Z" fill="#DEDEDE"/>
<path d="M63.34 125.055C63.34 125.055 63.34 124.963 63.2476 124.963C63.2476 125.055 63.34 125.055 63.34 125.055Z" fill="#DEDEDE"/>
<path d="M74.8589 109.198C74.0093 109.482 73.6317 112.502 74.9533 114.579C75.8973 116.184 77.8797 117.317 78.6349 116.845C79.3901 116.278 78.4461 113.446 77.4077 111.653C77.0301 111.086 75.7085 108.915 74.8589 109.198Z" fill="white"/>
<path d="M75.0474 109.481C74.8586 109.481 74.7642 109.669 74.6698 110.047C74.2922 111.085 74.3866 113.068 75.2362 114.484C75.9914 115.711 77.2186 116.561 77.9738 116.655C78.1626 116.655 78.3514 116.655 78.4458 116.561C79.0122 116.183 78.257 113.634 77.1242 111.746C75.8026 109.669 75.2362 109.481 75.0474 109.481ZM78.1626 117.221C78.0682 117.221 77.9738 117.221 77.8794 117.221C76.841 117.033 75.5194 115.994 74.7642 114.767C73.8202 113.162 73.7258 110.991 74.1034 109.858C74.2922 109.386 74.481 109.103 74.8586 109.009C75.5194 108.725 76.4634 109.575 77.6906 111.463C78.6346 112.973 79.9562 116.277 78.9178 117.033C78.5402 117.221 78.3514 117.221 78.1626 117.221Z" fill="black"/>
<path d="M59.8494 96.9263C59.3774 100.23 59.1886 103.534 59.1886 106.838C59.1886 107.121 59.1886 107.405 59.0942 107.688C58.9998 107.971 58.7166 108.16 58.4334 108.254C56.7342 109.293 54.6574 109.765 52.7694 109.198C50.8814 108.726 49.1822 107.121 49.0878 105.045C49.843 102.307 51.259 98.6255 52.2974 94.2831C54.563 95.3215 57.0174 96.0767 59.8494 96.9263Z" fill="white"/>
<path d="M49.3712 105.044C49.56 107.121 51.2592 108.443 52.864 108.915C54.5632 109.387 56.5456 109.009 58.2448 107.971C58.4336 107.876 58.6224 107.688 58.7168 107.499C58.8112 107.31 58.8112 107.027 58.8112 106.838C58.7168 103.628 58.9056 100.324 59.3776 97.1147C56.64 96.2651 54.4688 95.6043 52.392 94.6603C51.6368 97.5867 50.7872 100.324 50.1264 102.496C49.9376 103.44 49.6544 104.289 49.3712 105.044ZM54.3744 109.67C53.808 109.67 53.2416 109.576 52.6752 109.481C50.504 108.915 48.8992 107.121 48.7104 105.044V104.95C48.8992 104.195 49.1824 103.251 49.56 102.307C50.3152 100.041 51.1648 97.2091 51.92 94.1883C51.92 94.0939 52.0144 93.9995 52.1088 93.9995C52.2032 93.9995 52.2976 93.9995 52.392 93.9995C54.6576 94.9435 56.9232 95.6987 59.8496 96.6427C60.0384 96.6427 60.0384 96.8315 60.0384 97.0203C59.5664 100.324 59.3776 103.628 59.472 106.932C59.472 107.216 59.472 107.593 59.2832 107.876C59.0944 108.16 58.8112 108.348 58.528 108.537C57.3008 109.292 55.7904 109.764 54.3744 109.67Z" fill="black"/>
<path d="M60.6046 79.7454C60.7934 82.8606 64.947 84.371 65.1358 85.2206C65.419 86.3534 63.8142 87.2974 63.8142 87.8638C63.9086 89.2798 64.8526 92.395 64.1918 94.9438C63.8142 96.171 62.3038 96.4542 61.3598 96.7374C54.3742 98.9086 48.5214 92.2062 48.2382 89.091C46.539 90.6014 44.7454 88.7134 44.651 87.675C44.5566 86.3534 45.595 83.427 48.5214 85.5982C50.2206 79.7454 48.2382 79.651 48.5214 76.6302C49.4654 75.3086 53.3358 74.6478 54.6574 73.7982C54.8462 73.6094 55.6014 71.8158 55.8846 71.7214C56.3566 71.627 59.4718 73.4206 59.8494 73.7982C60.227 74.0814 60.3214 73.8926 60.6046 79.7454Z" fill="white"/>
<path d="M48.2383 88.7121H48.3327C48.4271 88.7121 48.5215 88.9009 48.5215 88.9953C48.6159 90.5057 50.3151 93.1489 52.8639 94.9425C54.7519 96.1697 57.6783 97.4913 61.1711 96.3585C61.2655 96.3585 61.4543 96.2641 61.5487 96.2641C62.3983 95.9809 63.5311 95.6977 63.8143 94.8481C64.2863 93.0545 63.9087 90.8833 63.6255 89.3729C63.5311 88.8065 63.4367 88.3345 63.4367 87.9569C63.4367 87.5793 63.7199 87.2961 64.0031 86.9185C64.3807 86.4465 64.8527 85.9745 64.7583 85.4081C64.6639 85.2193 64.1919 84.8417 63.7199 84.5585C62.3983 83.6145 60.3215 82.1985 60.2271 79.9329C59.9439 74.7409 59.8495 74.4577 59.6607 74.1745L59.5663 74.0801C59.2831 73.7969 56.5455 72.2865 55.8847 72.0977C55.7903 72.2865 55.5071 72.7585 55.3183 73.0417C54.9407 73.7025 54.8463 73.8913 54.6575 74.0801C54.0911 74.4577 53.1471 74.7409 52.1087 75.1185C50.6927 75.5905 49.1823 76.1569 48.6159 76.8177C48.5215 77.8561 48.7103 78.5169 48.8991 79.1777C49.2767 80.4993 49.6543 82.0097 48.6159 85.6913C48.6159 85.7857 48.5215 85.8801 48.4271 85.8801C48.3327 85.8801 48.2383 85.8801 48.1439 85.7857C47.1999 85.0305 46.4447 84.8417 45.7839 85.2193C45.0287 85.5969 44.6511 86.9185 44.7455 87.5793C44.7455 88.0513 45.3119 88.8065 46.0671 89.1841C46.6335 89.4673 47.2943 89.2785 47.7663 88.8065C48.0495 88.8065 48.1439 88.8065 48.2383 88.7121ZM58.6223 97.3969C56.5455 97.3969 54.4687 96.7361 52.5807 95.4145C50.0319 93.7153 48.4271 91.2609 48.0495 89.5617C47.3887 89.9393 46.7279 90.0337 46.0671 89.7505C45.1231 89.3729 44.3679 88.3345 44.3679 87.6737C44.2735 86.8241 44.6511 85.3137 45.7839 84.7473C46.3503 84.4641 47.1999 84.2753 48.4271 85.1249C49.3711 81.8209 48.9935 80.5937 48.6159 79.2721C48.4271 78.5169 48.1439 77.7617 48.3327 76.5345L48.4271 76.4401C48.9935 75.5905 50.6927 75.0241 52.2031 74.4577C53.1471 74.1745 54.0911 73.7969 54.5631 73.5137C54.6575 73.4193 54.8463 73.0417 55.0351 72.7585C55.5071 71.8145 55.6959 71.5313 55.9791 71.4369C56.6399 71.3425 59.8495 73.2305 60.2271 73.6081C60.6047 73.9857 60.6991 74.0801 60.9823 79.7441C61.0767 81.7265 62.9647 83.0481 64.1919 83.9921C64.8527 84.4641 65.3247 84.8417 65.4191 85.1249C65.6079 85.9745 65.0415 86.6353 64.5695 87.2017C64.3807 87.3905 64.0975 87.7681 64.0975 87.8625C64.0975 88.2401 64.1919 88.7121 64.2863 89.2785C64.5695 90.8833 64.9471 93.1489 64.3807 95.0369C64.0031 96.2641 62.6815 96.6417 61.7375 96.9249C61.5487 96.9249 61.4543 97.0193 61.3599 97.0193C60.5103 97.3025 59.5663 97.3969 58.6223 97.3969Z" fill="black"/>
<path d="M91.1902 107.782C91.5678 107.121 92.4174 106.932 93.1726 106.932C95.8158 106.932 98.459 107.593 100.819 109.009C101.102 109.198 101.385 109.387 101.48 109.764C101.48 109.953 101.48 110.142 101.385 110.331C100.819 111.369 99.5918 111.652 98.459 111.747C97.3262 111.841 96.099 111.747 95.0606 111.275C93.4558 110.519 91.9454 109.481 91.1902 107.782Z" fill="white"/>
<path d="M91.4734 107.876C92.323 109.48 93.8334 110.33 95.0606 110.991C96.099 111.463 97.2318 111.463 98.3646 111.463C99.875 111.368 100.63 110.991 101.008 110.236C101.102 110.047 101.102 109.952 101.102 109.858C101.102 109.669 100.819 109.48 100.63 109.386C98.3646 108.064 95.7214 107.404 93.0782 107.404C92.323 107.309 91.7566 107.498 91.4734 107.876ZM97.7038 111.935C96.7598 111.935 95.8158 111.84 94.8718 111.368C93.4558 110.708 91.7566 109.764 90.907 107.876C90.907 107.781 90.907 107.687 90.907 107.592C91.1902 106.932 92.0398 106.554 93.1726 106.554C95.9102 106.554 98.5534 107.215 101.008 108.631C101.197 108.725 101.763 109.008 101.763 109.575C101.763 109.858 101.669 110.141 101.574 110.33C100.913 111.557 99.4974 111.84 98.3646 111.84C98.1758 111.935 97.8926 111.935 97.7038 111.935Z" fill="black"/>
<path d="M58.0556 82.5762C57.9612 82.293 57.5836 82.1042 57.3004 82.1986C56.9228 82.293 56.734 82.6706 56.8284 82.9538C56.9228 83.237 57.3004 83.4258 57.5836 83.3314C57.9612 83.3314 58.15 82.9538 58.0556 82.5762Z" fill="black"/>
<path d="M74.6701 119.958C75.6141 117.504 76.7469 114.861 79.1069 113.539C79.6733 113.256 80.2397 112.973 80.7117 112.595C81.3725 112.123 81.7501 111.368 82.1277 110.613C83.0717 108.725 85.0541 105.326 85.9981 103.438C86.2813 102.872 86.0925 102.211 85.6205 101.834C85.2429 101.55 83.9213 103.344 83.5437 103.627C82.2221 104.571 81.2781 106.27 79.6733 106.742C79.6733 103.816 79.6733 100.795 79.7677 97.8689C78.7293 98.3409 78.3517 99.5681 78.1629 100.701C77.6909 103.344 77.1245 105.987 75.9917 108.442C74.8589 110.896 73.0653 113.067 70.7053 114.672C70.7053 116.182 70.9885 117.693 71.7437 118.826C72.3101 119.958 73.6317 120.619 74.6701 119.958Z" fill="white"/>
<path d="M70.8942 114.862C70.8942 116.466 71.2718 117.694 71.8382 118.638C72.2158 119.298 72.8766 119.77 73.443 119.865C73.8206 119.959 74.1038 119.865 74.387 119.77C75.4254 117.127 76.5582 114.578 78.9182 113.257C79.107 113.162 79.2958 113.068 79.4846 112.974C79.8622 112.785 80.2398 112.596 80.523 112.407C81.0894 111.935 81.467 111.18 81.8446 110.519C82.3166 109.575 83.0718 108.254 83.827 106.932C84.5822 105.61 85.3374 104.289 85.8094 103.345C85.9982 102.967 85.9038 102.401 85.5262 102.118C85.243 102.212 84.6766 102.873 84.3934 103.25C84.1102 103.628 83.9214 103.817 83.7326 103.911C83.2606 104.289 82.7886 104.666 82.411 105.138C81.6558 105.894 80.9006 106.743 79.7678 107.026C79.6734 107.026 79.579 107.026 79.4846 107.026C79.3902 106.932 79.3902 106.838 79.3902 106.743L79.4846 98.4359C78.9182 99.0023 78.635 99.8519 78.5406 100.796C78.0686 103.345 77.5022 106.082 76.275 108.631C74.9534 111.18 73.0654 113.257 70.8942 114.862ZM73.7262 120.526C73.5374 120.526 73.443 120.526 73.2542 120.431C72.499 120.242 71.8382 119.676 71.2718 118.921C70.611 117.882 70.2334 116.466 70.2334 114.673C70.2334 114.578 70.3278 114.484 70.3278 114.39C72.499 112.879 74.2926 110.802 75.5198 108.254C76.6526 105.799 77.219 103.156 77.691 100.607C77.8798 99.2855 78.2574 98.0583 79.3902 97.5863C79.4846 97.5863 79.579 97.5863 79.6734 97.5863C79.7678 97.6807 79.7678 97.7751 79.7678 97.8695L79.6734 106.366C80.4286 105.988 80.995 105.422 81.6558 104.761C82.1278 104.289 82.5054 103.817 83.0718 103.439C83.1662 103.345 83.355 103.062 83.6382 102.873C84.3934 102.023 85.0542 101.268 85.5262 101.646C86.187 102.023 86.3758 102.967 85.9982 103.628C85.5262 104.572 84.771 105.894 84.0158 107.215C83.2606 108.537 82.5054 109.858 82.0334 110.802C81.6558 111.463 81.2782 112.313 80.523 112.879C80.1454 113.162 79.7678 113.351 79.3902 113.54C79.2014 113.634 79.0126 113.729 78.8238 113.823C76.6526 115.05 75.5198 117.505 74.5758 120.148C74.5758 120.242 74.4814 120.242 74.4814 120.337C74.4814 120.431 74.1038 120.526 73.7262 120.526Z" fill="black"/>
<path d="M91.6622 109.481C92.8894 101.929 94.3054 94.2823 95.8158 86.8247C95.9102 86.1639 96.099 85.4087 96.4766 84.8423C96.7598 84.3703 97.6094 84.4647 97.7038 85.0311C98.1758 88.2407 97.8926 91.3559 97.7038 94.7543C98.1758 94.1879 99.1198 94.1879 99.6862 94.6599C100.253 95.1319 100.347 95.9815 99.875 96.5479C100.441 96.3591 101.102 96.6423 101.48 97.1143C101.763 97.5863 101.669 98.2471 101.291 98.7191C101.857 98.4359 102.329 99.1911 102.329 99.7575C102.518 103.628 98.6478 106.177 98.1758 110.047C98.0814 110.519 97.987 111.557 97.7038 111.935C97.4206 112.313 96.8542 112.501 96.3822 112.501C94.0222 112.69 91.379 111.085 91.6622 109.481Z" fill="white"/>
<path d="M91.9454 109.481C91.851 110.048 92.2286 110.52 92.5118 110.803C93.3614 111.653 94.9662 112.219 96.1934 112.03C96.571 111.936 97.043 111.841 97.3262 111.558C97.6094 111.275 97.7038 110.331 97.7982 109.859V109.765C98.0814 107.971 99.0254 106.366 99.9694 104.95C101.102 103.251 102.141 101.552 101.952 99.5694C101.952 99.2862 101.763 98.9086 101.574 98.8142C101.48 98.8142 101.48 98.8142 101.385 98.8142C101.291 98.9086 101.102 98.8142 101.008 98.7198C100.913 98.6254 100.913 98.4366 101.008 98.3422C101.291 98.059 101.385 97.4926 101.197 97.115C100.913 96.7374 100.441 96.5486 99.9694 96.643C99.875 96.643 99.6862 96.643 99.5918 96.5486C99.4974 96.4542 99.4974 96.2654 99.5918 96.171C99.7806 95.9822 99.875 95.699 99.7806 95.4158C99.7806 95.1326 99.5918 94.8494 99.403 94.6606C98.931 94.283 98.1758 94.3774 97.7982 94.755C97.7038 94.8494 97.6094 94.8494 97.4206 94.8494C97.3262 94.755 97.2318 94.6606 97.2318 94.5662L97.3262 93.7166C97.515 90.6958 97.7038 87.7694 97.2318 84.843C97.2318 84.6542 97.043 84.6542 96.9486 84.5598C96.8542 84.5598 96.6654 84.5598 96.571 84.7486C96.2878 85.315 96.099 85.9758 95.9102 86.731C94.5886 94.3774 93.1726 102.024 91.9454 109.481ZM95.7214 112.691C94.3998 112.691 92.8894 112.125 92.0398 111.275C91.4734 110.709 91.2846 110.048 91.379 109.387C92.6062 101.835 94.0222 94.1886 95.5326 86.6366C95.7214 85.8814 95.8158 85.1262 96.1934 84.5598C96.3822 84.1822 96.7598 84.0878 97.2318 84.0878C97.6094 84.1822 97.8926 84.4654 97.987 84.843C98.459 87.8638 98.2702 90.6958 98.0814 93.811V93.9998C98.6478 93.7166 99.403 93.811 99.9694 94.283C100.347 94.5662 100.536 94.9438 100.536 95.4158C100.536 95.6046 100.536 95.8878 100.441 96.0766C100.913 96.0766 101.48 96.3598 101.763 96.8318C102.046 97.3038 102.046 97.7758 101.857 98.2478H101.952C102.424 98.531 102.613 99.0974 102.707 99.475C102.801 101.646 101.669 103.44 100.63 105.233C99.6862 106.649 98.8366 108.16 98.5534 109.859V109.953C98.459 110.709 98.3646 111.464 97.987 111.936C97.7038 112.313 97.1374 112.597 96.4766 112.691C96.099 112.691 95.9102 112.691 95.7214 112.691Z" fill="black"/>
<path d="M71.6494 112.313C72.6878 111.369 73.7262 110.425 74.7646 109.386C74.7646 110.141 74.9534 111.746 75.8974 113.445C76.8414 115.145 78.163 116.183 78.8238 116.561C78.0686 117.693 77.8798 119.204 76.747 119.865C75.6142 120.525 74.1982 119.959 73.1598 119.109C71.1774 117.41 69.9502 113.823 71.6494 112.313Z" fill="white"/>
<path d="M71.8382 112.502C71.2718 113.069 71.1774 113.824 71.1774 114.39C71.1774 115.901 72.1214 117.883 73.3486 119.016C74.1982 119.771 75.5198 120.337 76.5582 119.771C77.219 119.393 77.5966 118.638 77.8798 117.883C78.0686 117.505 78.163 117.222 78.3518 116.845C77.5022 116.278 76.4638 115.24 75.6142 113.729C74.859 112.408 74.5758 111.086 74.4814 110.142L71.8382 112.502ZM75.5198 120.526C74.5758 120.526 73.6318 120.054 72.8766 119.393C71.555 118.166 70.5166 116.089 70.5166 114.39C70.5166 113.446 70.7998 112.597 71.3662 112.125L74.4814 109.198C74.5758 109.104 74.6702 109.104 74.7646 109.104C74.859 109.198 74.9534 109.293 74.9534 109.387C74.9534 110.331 75.2366 111.841 75.9918 113.352C76.8414 114.862 77.9742 115.806 78.8238 116.373C78.9182 116.373 78.9182 116.467 78.9182 116.561C78.9182 116.656 78.9182 116.75 78.8238 116.75C78.5406 117.128 78.3518 117.505 78.163 117.977C77.7854 118.827 77.4078 119.677 76.5582 120.149C76.3694 120.432 75.9918 120.526 75.5198 120.526Z" fill="black"/>
<path d="M96.1933 111.086C94.0221 110.802 92.4173 109.386 91.1901 107.687C89.3021 116.655 86.5645 121.092 84.5821 128.927C80.0509 121.753 71.9325 112.218 67.8733 108.442C63.7197 104.666 56.6397 103.25 50.8813 102.967C46.7277 102.778 43.8957 107.97 41.7245 112.218C37.5709 120.148 36.6269 127.322 35.6829 138.934C40.5917 140.538 46.0669 139.783 51.1645 139.122C56.6397 138.462 62.0205 137.706 67.4013 138.273C67.4013 136.668 67.3069 134.497 67.3069 131.098V130.91L67.1181 128.266C73.2541 135.535 74.1981 135.535 79.8621 141.482C82.3165 143.559 84.9597 143.748 88.0749 143.937C90.0573 143.937 91.7565 142.615 93.5501 141.482C98.2701 136.951 100.158 119.487 101.574 109.575C100.63 111.746 98.8365 111.369 96.1933 111.086Z" fill="white"/>
<path d="M35.4939 138.933C37.2875 118.826 39.3643 115.144 41.8187 110.896C42.0075 110.613 42.1019 110.424 42.2907 110.141C43.9899 107.215 46.0667 104.949 48.6155 103.439C48.7099 103.344 48.8043 103.156 48.7099 103.061C48.6155 102.967 48.4267 102.872 48.3323 102.967C45.6891 104.572 43.5179 106.932 41.8187 109.858C41.7243 110.141 41.5355 110.33 41.3467 110.613C38.8923 114.861 36.7211 118.637 34.9275 138.65C35.1163 138.744 35.3051 138.839 35.4939 138.933Z" fill="black"/>
<path d="M66.7408 138.178C66.9296 138.178 67.1184 138.178 67.3072 138.178C67.3072 137.612 67.3072 137.046 67.2128 136.479C67.1184 133.364 67.024 130.249 67.024 127.039C67.024 126.85 66.9296 126.756 66.7408 126.756C66.552 126.756 66.4576 126.85 66.4576 127.039C66.4576 130.249 66.552 133.364 66.6464 136.479C66.7408 137.046 66.7408 137.612 66.7408 138.178Z" fill="black"/>
<path d="M87.3198 144.503C80.051 144.503 71.2718 134.308 62.7758 123.074C62.6814 122.98 62.6814 122.791 62.8702 122.696C62.9646 122.602 63.1534 122.602 63.2478 122.791C71.9326 134.308 80.995 144.786 88.1694 143.936C91.7566 143.464 94.683 140.066 96.9486 133.836C98.2702 130.343 100.536 116.183 100.913 109.858C100.441 110.236 99.7806 110.519 99.1198 110.708C96.9486 111.18 94.3054 110.424 92.9838 109.575C92.323 109.197 91.7566 108.631 91.1902 108.064C90.3406 112.784 87.3198 121.375 85.3374 127.133C85.1486 127.794 84.8654 128.36 84.6766 128.927C84.6766 129.021 84.5822 129.116 84.3934 129.116C84.299 129.116 84.2046 129.116 84.1102 129.021C83.5438 128.266 82.883 127.133 82.1278 126.095C80.2398 123.357 77.8798 119.864 77.0302 118.732C76.5582 118.165 76.1806 117.693 75.7086 117.127C72.8766 113.54 70.139 110.047 66.0798 107.404C62.2094 104.855 56.7342 103.628 49.843 103.628C49.6542 103.628 49.5598 103.533 49.5598 103.344C49.5598 103.156 49.6542 103.061 49.843 103.061C56.8286 103.061 62.3982 104.383 66.363 106.932C70.5166 109.669 73.2542 113.068 76.1806 116.749C76.6526 117.316 77.0302 117.788 77.5022 118.354C78.4462 119.487 80.7118 122.791 82.6942 125.717C83.2606 126.661 83.9214 127.511 84.3934 128.172C84.4878 127.794 84.6766 127.322 84.8654 126.944C86.9422 120.903 90.0574 111.84 90.8126 107.404C90.8126 107.309 90.907 107.215 91.0014 107.215C91.0958 107.215 91.2846 107.215 91.2846 107.309C91.851 108.064 92.6062 108.725 93.267 109.197C94.5886 110.047 97.043 110.613 98.931 110.236C99.875 110.047 100.536 109.669 100.913 109.008C101.008 108.914 101.102 108.82 101.291 108.914C101.385 108.914 101.48 109.103 101.48 109.197C101.291 115.144 98.931 130.437 97.6094 134.119C95.155 140.632 92.1342 144.125 88.3582 144.597C87.9806 144.503 87.603 144.503 87.3198 144.503Z" fill="black"/>
<path d="M62.3038 91.0727C61.9262 91.0727 61.5486 90.9783 61.171 90.8839C60.9822 90.8839 60.8878 90.6951 60.9822 90.5063C60.9822 90.3175 61.171 90.2231 61.3598 90.3175C62.3038 90.6007 63.2478 90.5063 64.0974 90.0343C64.2862 89.9399 64.3806 90.0343 64.475 90.1287C64.5694 90.3175 64.475 90.4119 64.3806 90.5063C63.7198 90.8839 62.9646 91.0727 62.3038 91.0727Z" fill="black"/>
<path d="M84.016 133.741C83.7328 133.646 83.6384 133.552 83.7328 133.363L84.3936 130.72C84.3936 130.531 84.5824 130.437 84.7712 130.531C84.96 130.531 85.0544 130.72 84.96 130.909L84.2992 133.552C84.2048 133.646 84.1104 133.741 84.016 133.741Z" fill="black"/>
<path d="M97.7043 114.107C96.4771 114.107 95.3443 113.729 94.3059 113.163C94.2115 113.068 94.1171 112.88 94.2115 112.785C94.3059 112.691 94.4947 112.596 94.5891 112.691C96.0995 113.635 97.9875 113.824 99.6867 113.163C99.8755 113.068 99.9699 113.163 100.064 113.352C100.159 113.54 100.064 113.635 99.8755 113.729C99.2147 114.012 98.4595 114.107 97.7043 114.107Z" fill="black"/>
<path d="M58.7166 101.646H58.5278H58.4334C58.1502 101.551 57.395 100.891 56.5454 100.041C55.6958 99.3801 54.9406 98.6249 54.1854 97.9641C53.5246 97.3033 52.7694 96.7369 52.1086 96.0761C52.203 95.7929 52.203 95.6041 52.2974 95.3209C52.3918 95.4153 52.4862 95.4153 52.5806 95.5097C53.5246 96.1705 54.4686 96.6425 55.4126 96.9257C55.507 96.9257 55.507 96.9257 55.507 97.0201C55.6014 97.1145 55.7902 97.1145 55.8846 97.2089H55.979C55.979 97.2089 55.979 97.1145 56.0734 97.1145C56.923 97.3033 57.7726 97.4921 58.6222 97.4921C58.9054 97.4921 59.1886 97.4921 59.4718 97.4921C59.283 98.9081 59.0942 100.324 58.9998 101.74C58.9054 101.646 58.811 101.646 58.7166 101.646Z" fill="#DEDEDE"/>
<path d="M59 101.552C59.0944 100.136 59.2832 98.7195 59.472 97.3035C59.5664 97.3035 59.7552 97.3035 59.8496 97.3035C59.944 97.4923 59.944 97.7755 59.6608 97.9643L59.5664 98.0587C59.5664 98.1531 59.472 98.2475 59.472 98.2475C59.472 98.3419 59.472 98.4363 59.472 98.5307V98.6251C59.472 98.8139 59.5664 99.0971 59.5664 99.2859C59.5664 99.3803 59.5664 99.4747 59.6608 99.5691C59.6608 99.8523 59.472 100.136 59.1888 100.324C59.3776 100.419 59.472 100.702 59.472 100.891C59.472 101.268 59.2832 101.457 59 101.552ZM59.3776 98.5307C59.472 98.6251 59.472 98.6251 59.3776 98.5307V98.5307ZM52.1088 95.9819C51.8256 95.6987 51.92 95.4155 52.1088 95.1323C52.1088 95.1323 52.1088 95.1323 52.2032 95.1323L52.2976 95.2267C52.2976 95.5099 52.2032 95.6987 52.1088 95.9819Z" fill="black"/>
<path d="M58.6217 97.3971C57.7721 97.3971 56.9225 97.3027 56.0729 97.0195C56.1673 96.9251 56.2617 96.9251 56.3561 96.9251C56.8281 97.0195 57.6777 97.1139 58.3385 97.1139C58.7161 97.1139 58.9993 97.1139 59.1881 97.0195C59.2825 97.0195 59.2825 97.0195 59.3769 97.0195C59.5657 97.0195 59.7545 97.2083 59.8489 97.3027C59.7545 97.3027 59.5657 97.3027 59.4713 97.3027C59.1881 97.3971 58.9049 97.3971 58.6217 97.3971ZM55.4121 96.8307C54.4681 96.5475 53.5241 96.0755 52.5801 95.4147C52.4857 95.3203 52.3913 95.3203 52.2969 95.2259L52.2025 95.1315H52.2969C52.3913 95.1315 52.4857 95.0371 52.5801 94.9427V94.8483C52.8633 95.0371 53.0521 95.3203 53.3353 95.5091C53.8073 95.8867 54.2793 96.2643 54.7513 96.5475C55.0345 96.6419 55.2233 96.7363 55.4121 96.8307Z" fill="black"/>
<path d="M98.3648 110.991C98.2704 110.991 98.2704 110.991 98.176 110.991C98.2704 110.708 98.2704 110.33 98.3648 109.953V109.858V109.764C98.4592 109.764 98.5536 109.764 98.5536 109.764C99.2144 109.764 99.4032 109.669 100.253 109.575H100.158C100.158 109.575 100.158 109.575 100.347 109.575C100.442 109.575 100.63 109.575 100.725 109.575H100.819C101.008 109.575 101.102 109.669 101.197 109.669C100.819 110.236 100.158 110.708 99.2144 110.897C99.0256 110.897 98.8368 110.991 98.648 110.991C98.5536 110.991 98.4592 110.991 98.3648 110.991Z" fill="#DEDEDE"/>
<path d="M97.2316 110.991C97.1372 110.991 96.9484 110.991 96.854 110.991C95.5324 110.802 94.3052 110.33 93.4556 109.764C92.9836 109.386 92.5116 109.008 92.134 108.536C92.134 108.348 92.2284 108.159 92.2284 107.97C92.4172 108.064 92.5116 108.159 92.606 108.253C93.3612 108.82 93.4556 108.82 94.7772 109.197C95.438 109.386 96.0988 109.575 96.7596 109.669C97.326 109.764 97.5148 109.764 97.7036 109.764V109.858V109.952C97.7036 110.236 97.6092 110.613 97.5148 110.991C97.4204 110.991 97.326 110.991 97.2316 110.991Z" fill="#DEDEDE"/>
<path d="M98.176 110.991C97.9872 110.991 97.7984 110.991 97.6096 110.991C97.704 110.614 97.7984 110.236 97.7984 109.953V109.859V109.764C97.9872 109.764 98.0816 109.764 98.3648 109.764V109.859V109.953C98.2704 110.331 98.176 110.708 98.176 110.991ZM92.1344 108.537C91.9456 108.348 91.8512 108.159 91.6624 107.971C91.6624 107.971 91.6624 107.971 91.7568 107.971C91.8512 107.971 91.9456 107.876 92.04 107.876C92.1344 107.876 92.2288 107.876 92.3232 107.971C92.1344 108.159 92.1344 108.348 92.1344 108.537Z" fill="black"/>
<path d="M92.4175 109.765C92.3231 109.67 92.2287 109.67 92.1343 109.576C91.9455 109.387 91.6623 109.293 91.6623 109.009L91.4735 108.915C91.3791 108.821 91.3791 108.821 91.2847 108.726V108.632C91.6623 109.009 92.0399 109.387 92.4175 109.765Z" fill="#DEDEDE"/>
<path d="M98.6479 110.991C98.8367 110.991 99.0255 110.896 99.2143 110.896C100.158 110.707 100.819 110.33 101.197 109.669C101.386 109.858 101.48 110.235 101.197 110.424C101.008 110.613 100.725 110.613 100.442 110.707C99.8751 110.896 99.2143 110.991 98.6479 110.991ZM96.7599 110.991C95.6271 110.991 94.4943 110.802 93.4559 110.33C93.0783 110.141 92.7007 109.952 92.3231 109.763C91.9455 109.386 91.5679 109.008 91.1903 108.631V108.725C91.0959 108.442 91.1903 108.159 91.4735 108.064C91.6623 108.253 91.7567 108.442 91.9455 108.631C92.3231 109.103 92.7951 109.48 93.2671 109.858C94.2111 110.33 95.5327 110.802 96.7599 110.991Z" fill="black"/>
<path d="M78.5408 116.089C78.1632 115.806 77.88 115.523 77.5024 115.145C77.6912 114.956 77.88 114.767 77.9744 114.579C78.0688 114.673 78.2576 114.767 78.352 114.862C78.5408 115.428 78.5408 115.806 78.5408 116.089Z" fill="#DEDEDE"/>
<path d="M78.635 116.184L78.5406 116.09C78.5406 115.806 78.5406 115.334 78.3518 114.957C78.4462 115.051 78.5406 115.051 78.635 115.24C78.635 115.24 78.9182 115.429 79.0126 115.523C79.2958 115.712 79.0126 116.184 78.635 116.184Z" fill="black"/>
<path d="M77.1248 114.767C76.7472 114.389 76.464 113.917 76.1808 113.351C75.6144 112.312 75.3312 111.274 75.2368 110.424C75.4256 110.141 75.6144 109.858 75.8032 109.48C75.992 109.575 75.992 109.858 75.992 110.141C75.992 110.896 75.992 110.896 76.3696 111.935C76.5584 112.407 76.7472 112.879 77.0304 113.351C77.408 113.917 77.3136 113.917 77.6912 114.295C77.408 114.389 77.2192 114.578 77.1248 114.767Z" fill="#DEDEDE"/>
<path d="M77.5024 115.144C77.408 115.05 77.2192 114.861 77.1248 114.672C77.3136 114.484 77.408 114.295 77.5968 114.106C77.5968 114.106 77.5968 114.106 77.5968 114.2C77.7856 114.389 77.88 114.484 77.9744 114.578C77.88 114.861 77.6912 114.956 77.5024 115.144ZM75.1424 110.424C75.048 110.047 75.048 109.764 75.048 109.575C75.1424 109.48 75.2368 109.48 75.4256 109.48C75.52 109.48 75.52 109.48 75.6144 109.575H75.7088C75.52 109.764 75.3312 110.141 75.1424 110.424Z" fill="black"/>
<path d="M75.4253 113.351C75.1421 112.879 74.9533 112.501 74.8589 111.935C75.0477 112.407 75.2365 112.879 75.4253 113.351Z" fill="#DEDEDE"/>
<path d="M78.6348 116.184C78.3516 116.184 78.2572 116.089 78.0684 115.9C77.4076 115.617 76.8412 115.145 76.3692 114.484C75.9916 114.107 75.7084 113.729 75.4252 113.257C75.142 112.785 74.9532 112.313 74.8588 111.841C74.7644 111.464 74.67 110.992 74.67 110.52C74.67 110.331 74.5756 110.048 74.8588 109.859V109.67C74.8588 109.576 74.9532 109.387 75.0476 109.292C75.0476 109.576 75.0476 109.859 75.142 110.142C75.2364 110.992 75.5196 112.03 76.086 113.068C76.3692 113.635 76.7468 114.107 77.03 114.484C77.1244 114.673 77.3132 114.768 77.4076 114.956C77.8796 115.523 78.2572 115.9 78.6348 116.184Z" fill="black"/>
<path d="M66.9291 137.14C66.9291 135.157 66.8347 133.175 66.8347 131.193C66.8347 131.193 66.8347 131.193 66.8347 131.098C66.9291 131.381 67.0235 131.665 67.0235 131.948C67.0235 132.609 67.0235 133.364 67.1179 133.647C67.2123 134.402 67.2123 135.063 67.2123 135.818C67.2123 136.196 67.3067 136.573 67.1179 136.857C67.1179 137.045 67.0235 137.14 66.9291 137.14Z" fill="black"/>
<path d="M49.6542 100.04L59.3774 103.25L59.6606 105.232L48.6158 103.439L49.6542 100.04Z" fill="white"/>
<path d="M48.9933 103.156L59.3773 104.855L59.1885 103.439L49.9373 100.419L48.9933 103.156ZM59.7549 105.516L48.5213 103.723C48.4269 103.723 48.3325 103.628 48.3325 103.628C48.2381 103.534 48.2381 103.439 48.3325 103.345L49.4653 99.9465C49.5597 99.7577 49.6541 99.6633 49.8429 99.7577L59.5661 102.967C59.6605 102.967 59.7549 103.062 59.7549 103.251L60.0381 105.233C60.0381 105.327 60.0381 105.422 59.9437 105.516C59.8493 105.422 59.8493 105.516 59.7549 105.516Z" fill="black"/>
<path d="M61.3596 66.5294C59.4716 64.8302 55.79 64.7358 54.7516 67.0014C54.6572 66.3406 54.6572 66.2462 54.1852 65.6798C53.7132 65.1134 53.0524 64.7358 52.2972 64.6414C51.8252 64.547 51.2588 64.547 50.7868 64.6414C50.3148 64.7358 49.7484 64.9246 49.3708 65.3022C48.9932 65.6798 48.71 66.1518 48.71 66.7182C47.1052 66.0574 45.2172 66.3406 43.8956 67.379C42.4796 68.4174 41.7244 70.1166 41.9132 71.8158C41.158 71.7214 40.3084 71.9102 39.742 72.2878C39.0812 72.6654 38.5148 73.2318 38.1372 73.8926C37.5708 74.7422 37.1932 75.6862 37.0988 76.6302C37.0044 77.5742 37.2876 78.707 38.1372 79.4622C35.494 81.2558 40.686 87.675 41.0636 88.147C42.9516 90.979 46.9164 94.3774 52.2972 94.8494C49.9372 93.0558 48.3324 90.6014 48.238 88.9966C46.5388 90.507 44.7452 88.619 44.6508 87.5806C44.5564 86.259 45.5948 83.3326 48.5212 85.5038C49.8428 81.067 48.8044 79.7454 48.8044 79.651C49.0876 78.9902 49.654 77.1966 50.0316 77.1022C50.8812 77.5742 51.9196 77.9518 52.958 77.9518C54.374 78.0462 55.79 77.5742 56.734 76.5358C57.678 77.1022 58.8108 77.3854 59.8492 77.1022C60.8876 76.819 62.0204 75.875 62.398 75.2142C64.8524 71.4382 62.7756 67.851 61.3596 66.5294Z" fill="#ACD4F7"/>
<path d="M41.3474 72.0984C40.8754 72.0984 40.309 72.2872 39.837 72.5704C39.2706 72.8536 38.7986 73.42 38.3266 74.0808C37.7602 74.9304 37.3826 75.8744 37.2882 76.724C37.1938 77.7624 37.5714 78.612 38.2322 79.3672C38.3266 79.4616 38.3266 79.556 38.3266 79.556C38.3266 79.6504 38.2322 79.7448 38.2322 79.7448C37.949 79.9336 37.7602 80.2168 37.6658 80.6888C37.477 82.1048 38.6098 84.4648 41.0642 87.7688C41.1586 87.9576 41.253 88.052 41.253 88.052C43.0466 90.6952 46.5394 93.716 51.2594 94.4712C49.5602 92.9608 48.333 91.0728 47.9554 89.5624C47.2946 89.94 46.6338 90.0344 45.973 89.7512C45.029 89.3736 44.2738 88.3352 44.2738 87.6744C44.1794 86.8248 44.557 85.3144 45.6898 84.748C46.2562 84.4648 47.1058 84.276 48.333 85.1256C49.1826 82.0104 48.805 80.5944 48.5218 79.9336C48.5218 79.8392 48.4274 79.7448 48.5218 79.6504C48.5218 79.556 48.6162 79.4616 48.6162 79.2728C49.277 77.5736 49.5602 77.0072 49.8434 76.8184C49.9378 76.8184 50.0322 76.8184 50.1266 76.8184C51.0706 77.2904 52.0146 77.5736 52.8642 77.668C54.2802 77.7624 55.6018 77.196 56.4514 76.3464C56.5458 76.252 56.7346 76.252 56.829 76.3464C57.6786 76.9128 58.717 77.1016 59.7554 76.9128C60.7938 76.6296 61.7378 75.6856 62.1154 75.1192C64.381 71.4376 62.3986 68.0392 61.077 66.7176C60.133 65.7736 58.5282 65.3016 57.1122 65.5848C56.0738 65.7736 55.3186 66.34 54.941 67.0952C54.8466 67.1896 54.7522 67.284 54.6578 67.284C54.5634 67.284 54.469 67.1896 54.3746 67.0008C54.2802 66.34 54.2802 66.34 53.9026 65.7736C53.525 65.3016 52.9586 65.0184 52.2034 64.8296C51.7314 64.7352 51.2594 64.7352 50.7874 64.8296C50.221 64.924 49.8434 65.1128 49.5602 65.396C49.1826 65.6792 48.9938 66.1512 48.9938 66.6232C48.9938 66.7176 48.8994 66.812 48.8994 66.9064C48.805 67.0008 48.7106 67.0008 48.6162 66.9064C47.1058 66.34 45.3122 66.5288 44.085 67.4728C42.7634 68.5112 42.0082 70.2104 42.197 71.8152C42.197 71.9096 42.197 72.004 42.1026 72.0984C42.0082 72.0984 41.9138 72.0984 41.8194 72.0984C41.725 72.0984 41.5362 72.0984 41.3474 72.0984ZM52.2978 95.132C46.917 94.66 42.8578 91.2616 40.781 88.2408C40.781 88.1464 40.6866 88.052 40.5922 87.9576C39.6482 86.636 36.7218 82.7656 37.0994 80.5C37.1938 80.028 37.3826 79.7448 37.5714 79.4616C36.9106 78.7064 36.6274 77.668 36.7218 76.6296C36.8162 75.5912 37.1938 74.6472 37.8546 73.7032C38.3266 72.948 38.9874 72.3816 39.5538 72.004C40.2146 71.6264 40.8754 71.4376 41.5362 71.4376C41.5362 69.8328 42.2914 68.1336 43.7074 67.0952C45.029 66.0568 46.917 65.7736 48.5218 66.2456C48.6162 65.7736 48.8994 65.3016 49.277 64.924C49.6546 64.5464 50.221 64.3576 50.7874 64.2632C51.3538 64.1688 51.8258 64.1688 52.3922 64.2632C53.2418 64.452 53.997 64.8296 54.469 65.396C54.7522 65.7736 54.8466 65.9624 54.941 66.1512C55.413 65.5848 56.1682 65.2072 57.0178 65.0184C58.6226 64.7352 60.4162 65.2072 61.549 66.34C63.0594 67.756 65.2306 71.4376 62.6818 75.4968C62.3042 76.1576 61.1714 77.196 59.9442 77.4792C58.9058 77.7624 57.773 77.5736 56.829 77.0072C55.885 77.9512 54.3746 78.4232 52.9586 78.3288C52.0146 78.2344 51.0706 78.0456 50.1266 77.5736C49.8434 77.9512 49.4658 79.084 49.277 79.556C49.277 79.6504 49.1826 79.7448 49.1826 79.8392C49.749 81.0664 49.5602 83.2376 48.805 85.7864C48.805 85.8808 48.7106 85.9752 48.6162 85.9752C48.5218 85.9752 48.4274 85.9752 48.333 85.8808C47.389 85.1256 46.6338 84.9368 45.973 85.3144C45.2178 85.692 44.8402 87.0136 44.9346 87.6744C44.9346 88.1464 45.501 88.9016 46.2562 89.2792C46.8226 89.5624 47.4834 89.3736 47.9554 88.9016C48.0498 88.8072 48.1442 88.8072 48.2386 88.8072C48.333 88.8072 48.4274 88.996 48.4274 89.0904C48.5218 90.5064 49.9378 92.8664 52.3922 94.66C52.4866 94.7544 52.581 94.8488 52.4866 95.0376C52.4866 95.132 52.3922 95.132 52.2978 95.132Z" fill="black"/>
<path d="M49.6545 80.1221C49.5601 80.1221 49.4657 80.1221 49.3713 80.0277C49.3713 79.8389 49.2769 79.6501 49.2769 79.4613C49.4657 78.9893 49.8433 77.8565 50.1265 77.4789C51.0705 77.9509 52.0145 78.2341 52.9585 78.2341C53.0529 78.2341 53.1473 78.2341 53.2417 78.2341C53.8081 78.2341 54.3745 78.1397 54.9409 77.9509C55.4129 77.8565 55.7905 77.6677 56.2625 77.3845C56.4513 77.1957 56.6401 77.1013 56.8289 76.9125C57.4897 77.2901 58.2449 77.4789 59.0001 77.4789C59.2833 77.4789 59.6609 77.4789 59.9441 77.3845C60.0385 77.3845 60.1329 77.3845 60.2273 77.2901C60.2273 77.5733 60.2273 77.9509 60.3217 78.3285H60.2273C60.0385 78.4229 59.8497 78.4229 59.6609 78.4229C59.4721 78.4229 59.2833 78.4229 59.0945 78.4229H59.0001C58.9057 78.4229 58.8113 78.4229 58.7169 78.4229C58.6225 78.4229 58.5281 78.4229 58.4337 78.4229C58.3393 78.4229 58.1505 78.4229 58.0561 78.4229C57.8673 78.4229 57.5841 78.4229 57.3953 78.3285C56.3569 79.2725 55.2241 79.4613 53.9025 79.4613C53.7137 79.4613 53.6193 79.4613 53.4305 79.4613C52.5809 79.4613 51.5425 79.4613 50.6929 79.0837C50.5041 79.2725 50.4097 79.5557 50.3153 79.7445C50.1265 80.0277 49.9377 80.1221 49.6545 80.1221Z" fill="#DEDEDE"/>
<path d="M49.3712 80.1218C49.3712 80.1218 49.2768 80.1218 49.2768 80.0274C49.2768 79.933 49.1824 79.8386 49.1824 79.7442C49.1824 79.6498 49.2768 79.6498 49.2768 79.5554C49.2768 79.7442 49.3712 79.933 49.3712 80.1218ZM60.2272 78.4226C60.2272 78.045 60.2272 77.7618 60.1328 77.3842C60.2272 77.3842 60.3216 77.2898 60.416 77.2898C60.6992 77.573 60.6992 78.1394 60.2272 78.4226Z" fill="black"/>
<path d="M49.2767 80.0282C48.9935 79.8394 48.8047 79.4618 48.9935 79.0842C49.1823 78.801 49.2767 78.6122 49.4655 78.329C49.0879 77.857 49.5599 77.1962 50.0319 77.1962C50.2207 77.1962 50.3151 77.2906 50.5039 77.385C50.5983 77.385 50.6927 77.385 50.7871 77.4794C50.8815 77.5738 50.9759 77.6682 51.0703 77.857C51.7311 78.1402 52.5807 78.1402 53.2415 78.1402C53.4303 78.1402 53.6191 78.1402 53.7135 78.1402C54.0911 78.1402 54.4687 78.1402 54.8463 78.0458C54.2799 78.2346 53.7135 78.329 53.1471 78.329C53.0527 78.329 52.9583 78.329 52.8639 78.329C51.9199 78.2346 50.9759 78.0458 50.0319 77.5738C49.7487 77.9514 49.3711 79.0842 49.1823 79.5562C49.1823 79.6506 49.0879 79.6506 49.0879 79.745C49.2767 79.8394 49.2767 79.9338 49.2767 80.0282ZM58.9999 77.5738C58.2447 77.5738 57.4895 77.385 56.8287 77.0074C56.6399 77.1962 56.4511 77.2906 56.2623 77.4794C56.2623 77.1018 56.6399 76.8186 56.9231 76.8186C57.1119 76.8186 57.3007 76.913 57.3951 77.0074C57.6783 77.1018 58.0559 77.1018 58.3391 77.1018C58.4335 77.1018 58.5279 77.1018 58.6223 77.1018C58.7167 77.1018 58.8111 77.1018 58.9999 77.1018C59.0943 77.1018 59.2831 77.1018 59.3775 77.1018C59.5663 77.1018 59.6607 77.1018 59.8495 77.0074C59.9439 77.0074 60.0383 76.913 60.1327 76.913C60.3215 76.913 60.5103 77.0074 60.6047 77.1018C60.5103 77.1018 60.4159 77.1962 60.3215 77.1962C60.2271 77.1962 60.1327 77.2906 60.0383 77.2906C59.6607 77.4794 59.3775 77.5738 58.9999 77.5738Z" fill="black"/>
<path d="M58.9999 75.0241C58.5279 75.0241 58.1503 74.9297 57.7727 74.7409C57.5839 74.6465 57.5839 74.4577 57.5839 74.3633C57.6783 74.1745 57.8671 74.1745 57.9615 74.1745C58.8111 74.5521 59.8495 74.4577 60.6047 73.7969C61.3599 73.1361 61.6431 72.0977 61.3599 71.1537C61.2655 70.9649 61.3599 70.8705 61.5487 70.7761C61.7375 70.8705 61.8319 70.8705 61.9263 71.0593C62.3039 72.2865 61.9263 73.5137 60.9823 74.2689C60.4159 74.7409 59.6607 75.0241 58.9999 75.0241Z" fill="black"/>
</svg>
