<svg width="244" height="163" viewBox="0 0 244 163" fill="none" xmlns="http://www.w3.org/2000/svg">
<rect opacity="0.5" x="11.7122" y="9.75879" width="232.288" height="136.079" rx="18.2017" fill="#B8D4F7"/>
<g opacity="0.9">
<path d="M218.099 73.133C210.426 72.194 202.44 76.5759 198.682 83.3053C194.924 90.0346 195.081 98.7985 198.839 105.684C200.561 108.971 203.223 111.788 206.512 113.353C209.33 114.605 212.462 114.761 215.594 114.918C217.943 114.918 220.448 114.918 222.64 113.979C224.519 113.196 226.085 111.944 227.494 110.536C233.131 104.902 235.793 96.451 234.071 88.7827C232.348 80.8013 225.772 73.9155 218.099 73.133Z" fill="white"/>
<path d="M216.536 115.543C216.223 115.543 215.909 115.543 215.596 115.543C212.621 115.543 209.333 115.387 206.358 113.978C202.286 112.1 199.781 108.657 198.215 105.997C194.301 98.7981 194.144 89.7213 198.059 82.992C202.13 75.7931 210.429 71.4112 218.258 72.3502C226.088 73.2892 232.977 80.0185 235.013 88.4693C236.735 96.1377 234.073 105.058 228.123 111.005C226.401 112.726 224.678 113.978 222.956 114.604C220.764 115.387 218.571 115.543 216.536 115.543ZM216.066 73.7586C209.489 73.7586 202.756 77.6711 199.311 83.7744C195.71 90.1908 195.866 98.6416 199.468 105.371C200.721 107.875 203.069 111.005 206.827 112.726C209.646 113.978 212.778 114.135 215.596 114.135C217.788 114.135 220.294 114.135 222.329 113.352C223.895 112.726 225.305 111.631 226.87 110.066C232.351 104.432 234.856 96.1377 233.291 88.9388C231.568 81.114 224.991 74.8541 217.945 74.0716C217.319 73.7587 216.692 73.7586 216.066 73.7586Z" fill="#D1D6DD"/>
<path d="M215.285 136.043C214.816 136.043 214.502 135.73 214.502 135.261L214.346 84.0864C214.346 83.6169 214.659 83.304 215.129 83.304C215.599 83.304 215.912 83.6169 215.912 84.0864L216.068 135.261C215.912 135.73 215.599 136.043 215.285 136.043Z" fill="#D1D6DD"/>
<path d="M215.281 105.526C215.124 105.526 215.124 105.526 214.968 105.526C214.654 105.37 214.341 104.9 214.498 104.587C216.377 100.205 219.509 96.293 223.58 93.6326C223.893 93.4761 224.363 93.4761 224.676 93.7891C224.833 94.1021 224.833 94.5715 224.519 94.8845C220.761 97.3885 217.786 100.988 216.064 105.213C215.751 105.37 215.594 105.526 215.281 105.526Z" fill="#D1D6DD"/>
<path d="M200.714 92.0687C200.557 92.0687 200.557 91.9122 200.401 91.9122C200.088 89.5647 200.714 87.2173 202.123 85.3393C202.28 85.1828 202.436 85.1828 202.436 85.3393C202.593 85.4958 202.593 85.6523 202.436 85.6523C201.184 87.3737 200.557 89.7212 200.871 91.7557C200.871 91.9121 200.871 92.0687 200.714 92.0687Z" fill="#D1D6DD"/>
<path d="M203.697 92.5379C203.541 92.5379 203.384 92.3814 203.384 92.2249L204.01 88.6255C204.01 88.469 204.167 88.469 204.324 88.469C204.48 88.469 204.48 88.6255 204.48 88.782L203.854 92.3814C204.01 92.3814 203.854 92.5379 203.697 92.5379Z" fill="#D1D6DD"/>
<path d="M224.516 108.345C224.516 108.345 224.359 108.345 224.359 108.189C224.203 108.032 224.359 107.876 224.359 107.876C226.082 106.624 227.334 104.902 228.117 102.868C228.117 102.711 228.274 102.711 228.43 102.711C228.587 102.711 228.587 102.868 228.587 103.024C227.647 105.059 226.395 106.937 224.516 108.345Z" fill="#D1D6DD"/>
<g opacity="0.1294">
<path d="M229.531 105.058C228.905 105.058 228.592 105.528 228.122 105.997C227.339 106.78 226.713 107.562 225.93 108.345C225.147 108.971 223.581 110.066 222.015 110.849C221.859 111.005 221.702 111.005 221.546 111.005C220.919 111.161 220.136 111.474 219.51 111.474H219.353C219.197 111.474 219.197 111.474 219.197 111.474C216.848 111.787 214.656 111.318 210.271 110.379C208.549 109.91 209.175 110.066 207.609 109.44C207.296 109.44 206.357 108.971 206.044 108.814C204.478 108.032 203.695 107.562 203.068 106.936C202.442 106.467 202.129 105.841 201.503 105.528C200.093 104.902 198.841 106.78 199.937 107.875C201.189 109.127 202.599 110.223 204.164 111.005C204.478 111.161 205.887 111.787 206.357 111.944C208.236 112.883 208.549 113.196 210.115 113.665C211.681 114.291 213.247 114.604 214.812 114.761C216.378 115.074 217.944 115.074 219.51 114.761C220.763 114.448 221.859 113.978 222.955 113.352C225.147 112.257 227.339 111.005 228.905 109.127C229.531 108.501 230.158 107.719 230.784 107.093C231.097 106.78 231.097 106.467 231.097 106.154C230.941 105.684 230.314 105.058 229.531 105.058Z" fill="#D1D6DD"/>
</g>
</g>
<path d="M5.27506 55.0184C14.3131 54.9272 23.3511 54.7447 32.3891 54.6535C35.2192 54.6535 38.2319 54.5622 40.7881 53.1936C43.4356 51.7338 45.2615 48.9053 45.1702 45.8943C45.0789 42.8834 42.9791 40.0549 40.0577 39.2337C37.1364 38.4126 33.7585 40.0549 32.663 42.7921C32.8456 37.5914 28.2809 32.6644 23.0772 32.7556C17.8735 32.7556 13.3088 38.0476 14.3131 43.1571C13.4001 40.7848 10.5701 39.5987 8.10515 39.9637C5.64023 40.4199 3.54049 42.1535 2.1711 44.252C0.984286 45.9856 0.253952 48.0841 0.527831 50.1827C0.710417 52.19 2.17109 55.0184 5.27506 55.0184Z" fill="white"/>
<path d="M5.18424 55.4744C2.08028 55.4744 0.34573 52.8284 0.0718509 50.1825C-0.293322 47.6277 0.80219 45.3467 1.80641 43.8868C3.44969 41.4233 5.73201 39.781 8.10563 39.416C10.2967 39.0511 12.4877 39.8722 13.7658 41.3321C13.8571 39.416 14.5875 37.5 15.9568 35.8576C17.7827 33.5766 20.4302 32.2992 23.0777 32.208C25.6339 32.208 28.0988 33.3029 30.016 35.3102C31.6593 36.9525 32.6635 39.0511 33.0286 41.2409C34.5806 39.1423 37.5933 38.0474 40.1495 38.7773C43.1622 39.5985 45.4445 42.6095 45.5358 45.8941C45.6271 48.9963 43.8012 52.0985 40.8799 53.6496C38.2324 55.1095 35.0371 55.1095 32.2983 55.2007L5.18424 55.4744C5.27554 55.4744 5.18424 55.4744 5.18424 55.4744ZM9.10986 40.2372C8.83599 40.2372 8.47081 40.2372 8.19693 40.3284C6.09719 40.6934 3.99744 42.1533 2.53675 44.4343C1.62382 45.8029 0.619604 47.8102 0.893483 50.0912C1.07607 51.7336 2.26286 54.562 5.18424 54.562C5.18424 54.562 5.18425 54.562 5.27554 54.562L32.3896 54.1971C35.0371 54.1971 38.1411 54.1058 40.606 52.7372C43.1622 51.3686 44.8055 48.5401 44.7142 45.8029C44.6229 42.9744 42.6144 40.2372 39.9669 39.5985C37.2281 38.8686 34.1242 40.3284 33.1199 42.8832C33.0287 43.0657 32.8461 43.1569 32.5722 43.1569C32.3896 43.1569 32.207 42.8832 32.207 42.7007C32.2983 40.2372 31.2941 37.7737 29.3769 35.9489C27.6424 34.1241 25.36 33.1204 23.0777 33.1204C20.7041 33.1204 18.3305 34.3978 16.5959 36.4051C14.9526 38.4124 14.3136 40.7846 14.77 42.9744C14.77 43.1569 14.6787 43.4306 14.4962 43.5219C14.3136 43.6131 14.0397 43.4306 13.9484 43.2482C13.1268 41.2409 11.027 40.2372 9.10986 40.2372Z" fill="#D1D6DD"/>
<g opacity="0.1294">
<path d="M42.8878 49.0869C42.6139 49.1781 42.4313 49.3606 42.2487 49.4518C42.0661 49.6343 41.7922 49.7256 41.5184 49.908C40.9706 50.273 40.4228 50.638 39.8751 50.9117C39.7838 50.9117 39.7838 50.9117 39.7838 51.0029C38.597 51.2766 37.5014 51.8241 36.2233 52.0066C35.4017 52.0978 32.4803 52.0066 30.8371 52.0978C27.2766 52.1891 23.6249 52.1891 20.0645 52.2803C17.2344 52.1891 14.4043 52.4628 11.5742 52.8277C7.92248 53.1015 6.73569 53.2839 4.08819 52.0978C4.08819 52.0978 4.17949 52.0978 4.17949 52.1891C3.54043 52.0066 3.08395 51.5504 2.44489 51.3679C1.25808 51.1854 0.710336 52.8277 1.71456 53.4664C3.17525 54.1964 4.63594 54.9263 6.27922 55.2C9.93094 55.8387 13.5827 54.7438 17.2344 54.835C18.5125 54.835 19.7906 54.9263 21.0687 54.835C22.8033 54.7438 24.5378 54.6526 26.2724 54.6526C28.8286 54.5613 31.5674 54.4701 33.4846 54.1964C33.4846 54.7438 33.941 55.2912 34.5801 55.2C36.6798 55.0175 38.6883 54.3788 40.5141 53.3752C40.9706 53.1927 41.3358 52.919 41.7922 52.6453C42.0661 52.4628 42.34 52.3715 42.5226 52.1891C42.7052 52.0066 42.7052 51.7329 42.7052 51.5504C42.979 51.3679 43.2529 51.1854 43.5268 50.9117C43.8007 50.7292 43.9833 50.3642 43.9833 50.0905C44.1658 49.3606 43.5268 48.9044 42.8878 49.0869Z" fill="#D1D6DD"/>
</g>
<path d="M155.028 105.143L154.008 145.459H223.543L224.335 105.256L155.028 105.143Z" fill="white"/>
<path d="M223.537 146.026H154.003C153.89 146.026 153.663 145.912 153.663 145.912C153.55 145.799 153.55 145.686 153.55 145.459L154.569 105.143C154.569 104.803 154.796 104.577 155.136 104.577L224.443 104.69C224.557 104.69 224.783 104.803 224.783 104.803C224.896 104.917 224.896 105.03 224.896 105.256L224.104 145.459C224.104 145.686 223.877 146.026 223.537 146.026ZM154.569 144.893H222.971L223.764 105.823L155.589 105.709L154.569 144.893Z" fill="#A3AEBB"/>
<path d="M183.667 145.458C163.848 145.458 143.124 145.798 123.305 145.571C123.305 125.753 123.079 105.368 121.947 83.2847C140.066 82.8317 162.489 82.6052 185.139 82.3787C183.893 104.462 182.648 130.849 183.667 145.458Z" fill="white"/>
<path d="M134.184 146.137C130.56 146.137 126.936 146.137 123.312 146.137C122.972 146.137 122.746 145.911 122.746 145.571C122.746 128.018 122.633 106.84 121.387 83.2847C121.387 83.1715 121.387 82.945 121.5 82.8317C121.613 82.7185 121.727 82.6052 121.84 82.6052C138.827 82.1522 159.099 82.039 180.616 81.8125H185.032C185.146 81.8125 185.372 81.9257 185.485 82.039C185.599 82.1522 185.599 82.2655 185.599 82.492C184.466 104.009 183.107 130.736 184.24 145.458C184.24 145.571 184.24 145.798 184.126 145.911C184.013 146.024 183.9 146.024 183.673 146.137C175.18 146.137 166.46 146.137 157.853 146.251C150.152 146.137 142.111 146.137 134.184 146.137ZM123.878 145.005C135.09 145.118 146.641 145.005 157.966 144.892C166.233 144.892 174.84 144.778 183.107 144.778C182.088 130.056 183.447 104.009 184.466 82.8317H180.616C159.325 83.0582 139.28 83.1715 122.406 83.6245C123.652 106.954 123.878 127.678 123.878 145.005Z" fill="#A3AEBB"/>
<path d="M194.697 87.1362C165.819 87.1362 139.885 87.5892 113.725 87.5892C126.409 73.9994 140.112 58.7109 153.022 45.2344C166.498 58.4844 179.522 73.8862 194.697 87.1362Z" fill="white"/>
<path d="M113.716 88.2683C113.49 88.2683 113.263 88.1551 113.263 87.9286C113.15 87.7021 113.263 87.4756 113.376 87.3623C118.133 82.2662 123.116 76.8303 127.985 71.5076C136.139 62.561 144.633 53.3879 152.673 45.0075C152.787 44.8943 152.9 44.8943 153.013 44.8943C153.126 44.8943 153.353 44.8943 153.353 45.0075C158.562 50.1037 163.659 55.4264 168.981 61.0888C177.248 69.8089 185.742 78.7555 194.915 86.9093C195.141 87.0226 195.142 87.2491 195.028 87.4756C194.915 87.7021 194.689 87.8153 194.462 87.8153C179.627 87.8153 165.584 87.9286 151.994 88.0418C138.97 88.1551 126.4 88.2683 113.716 88.2683ZM153.013 46.14C144.973 54.4071 136.705 63.467 128.665 72.1871C124.135 77.17 119.378 82.2662 114.962 87.1358C127.306 87.1358 139.31 87.0226 152.107 86.9093C165.244 86.7961 178.834 86.6828 193.103 86.6828C184.27 78.8687 176.116 70.1486 168.188 61.7683C162.979 56.2191 158.109 51.1229 153.013 46.14Z" fill="#A3AEBB"/>
<path d="M163.633 124.167C157.065 124.167 150.497 124.054 143.928 124.054C143.249 117.373 142.909 110.804 143.022 104.122C149.817 103.783 156.612 103.783 163.86 104.122C163.973 110.691 163.973 117.033 163.633 124.167Z" fill="#B8D4F7"/>
<path d="M163.647 124.734L143.941 124.62C143.715 124.62 143.375 124.394 143.375 124.167C142.582 116.58 142.356 110.238 142.469 104.236C142.469 103.896 142.696 103.669 143.035 103.669C149.83 103.33 156.625 103.33 163.873 103.669C164.213 103.669 164.439 103.896 164.439 104.236C164.553 110.577 164.439 116.919 164.213 124.281C164.213 124.507 163.986 124.734 163.647 124.734ZM144.508 123.488L163.08 123.601C163.307 116.693 163.42 110.691 163.307 104.689C156.399 104.349 149.943 104.349 143.602 104.689C143.602 110.351 143.828 116.353 144.508 123.488Z" fill="#006FFD"/>
<path d="M156.771 69.4673C154.506 67.9951 151.108 68.6746 149.523 70.9396C147.938 73.2045 148.617 76.7152 150.769 78.3007C152.92 79.8862 156.431 79.3199 158.017 77.1682C159.715 74.9033 159.489 71.2793 156.771 69.4673Z" fill="white"/>
<path d="M153.811 79.7726C152.679 79.7726 151.433 79.4329 150.527 78.7534C148.035 76.9414 147.356 73.2042 149.168 70.5995C150.867 68.1081 154.604 67.3153 157.095 69.014C158.454 69.92 159.247 71.279 159.587 72.8645C159.926 74.45 159.473 76.2619 158.567 77.5076C157.435 78.9799 155.623 79.7726 153.811 79.7726ZM154.038 69.2405C152.452 69.2405 150.867 69.92 150.074 71.279C148.715 73.3175 149.281 76.4884 151.206 77.8474C153.132 79.3196 156.303 78.7534 157.661 76.8282C158.454 75.8089 158.681 74.4499 158.454 73.091C158.228 71.732 157.548 70.7128 156.416 69.92C155.736 69.467 154.83 69.2405 154.038 69.2405Z" fill="#006FFD"/>
<path d="M191.944 146.025C191.604 146.025 191.377 145.799 191.377 145.459C191.604 136.399 191.377 127.452 191.264 119.865C191.264 119.752 191.264 119.525 191.377 119.412C191.491 119.299 191.604 119.299 191.717 119.299C199.305 119.299 207.232 119.299 215.159 119.299C215.273 119.299 215.499 119.412 215.499 119.412C215.612 119.525 215.613 119.638 215.613 119.752C215.613 122.017 215.613 124.282 215.613 126.433C215.613 133.228 215.613 139.57 215.386 145.006C215.386 145.346 215.16 145.572 214.82 145.572C214.48 145.572 214.254 145.346 214.254 145.006C214.48 139.57 214.48 133.228 214.48 126.433C214.48 124.395 214.48 122.47 214.48 120.318C207.006 120.318 199.531 120.318 192.17 120.318C192.283 127.792 192.51 136.512 192.283 145.346C192.51 145.799 192.283 146.025 191.944 146.025Z" fill="#A3AEBB"/>
<path d="M192.398 123.602C192.285 123.602 192.171 123.489 192.171 123.376C192.171 123.263 192.285 123.149 192.398 123.149C199.759 122.81 207.12 122.696 214.481 122.81C214.594 122.81 214.708 122.923 214.708 123.036C214.708 123.149 214.594 123.263 214.481 123.263C207.12 123.036 199.759 123.149 192.398 123.602Z" fill="#A3AEBB"/>
<path d="M196.964 126.432C195.378 126.432 193.793 126.432 192.094 126.432C191.981 126.432 191.868 126.319 191.868 126.206C191.868 126.093 191.981 125.979 192.094 125.979C199.682 126.093 207.383 125.979 214.97 125.526C215.083 125.526 215.197 125.64 215.197 125.753C215.197 125.866 215.083 125.979 214.97 125.979C208.968 126.319 202.966 126.432 196.964 126.432Z" fill="#A3AEBB"/>
<path d="M191.974 130.172C191.861 130.172 191.747 130.059 191.747 129.945C191.747 129.832 191.861 129.719 191.974 129.719C199.675 129.153 207.489 129.039 215.19 129.266C215.303 129.266 215.416 129.379 215.416 129.492C215.416 129.606 215.303 129.719 215.19 129.719C207.489 129.379 199.675 129.606 191.974 130.172Z" fill="#A3AEBB"/>
<path d="M192.19 133.681C192.077 133.681 191.963 133.567 191.963 133.454C191.963 133.341 192.077 133.228 192.19 133.228L215.179 132.548C215.293 132.548 215.406 132.661 215.406 132.775C215.406 132.888 215.293 133.001 215.179 133.001L192.19 133.681Z" fill="#A3AEBB"/>
<path d="M199.901 136.628C197.296 136.628 194.578 136.628 191.973 136.628C191.86 136.628 191.747 136.515 191.747 136.401C191.747 136.288 191.86 136.175 191.973 136.175C199.561 136.175 207.375 136.175 214.963 136.062C215.076 136.062 215.189 136.175 215.189 136.288C215.189 136.401 215.076 136.515 214.963 136.515C210.093 136.515 204.997 136.628 199.901 136.628Z" fill="#A3AEBB"/>
<path d="M192.094 139.569C191.981 139.569 191.868 139.456 191.868 139.342C191.868 139.229 191.981 139.116 192.094 139.116H214.63C214.744 139.116 214.857 139.229 214.857 139.342C214.857 139.456 214.744 139.569 214.63 139.569H192.094Z" fill="#A3AEBB"/>
<path d="M202.576 142.402C199.178 142.402 195.667 142.289 192.27 142.176C192.157 142.176 192.043 142.063 192.043 141.949C192.043 141.836 192.157 141.723 192.27 141.723C199.858 141.949 207.445 141.949 215.033 141.61C215.146 141.61 215.259 141.723 215.259 141.836C215.259 141.949 215.146 142.063 215.033 142.063C210.956 142.289 206.766 142.402 202.576 142.402Z" fill="#A3AEBB"/>
<path d="M143.459 110.693C143.346 110.693 143.232 110.579 143.232 110.466C143.232 110.353 143.346 110.24 143.459 110.24C150.14 110.126 156.935 110.013 163.73 109.9C163.843 109.9 163.957 110.013 163.957 110.126C163.957 110.24 163.843 110.353 163.73 110.353C157.049 110.353 150.254 110.466 143.459 110.693Z" fill="#006FFD"/>
<path d="M153.469 124.055C153.356 124.055 153.243 123.942 153.243 123.829L153.583 110.352C153.583 110.239 153.696 110.125 153.809 110.125C153.922 110.125 154.036 110.239 154.036 110.352L153.696 123.829C153.583 123.942 153.583 124.055 153.469 124.055Z" fill="#006FFD"/>
<path d="M154.362 79.6609C154.249 79.6609 154.135 79.5477 154.135 79.4344C154.022 76.037 153.683 72.5263 153.343 69.1288C153.343 69.0156 153.456 68.9023 153.456 68.9023C153.569 68.9023 153.683 69.0156 153.683 69.0156C154.022 72.413 154.362 75.9237 154.475 79.4344C154.475 79.5477 154.475 79.6609 154.362 79.6609Z" fill="#006FFD"/>
<path d="M148.924 74.227C148.81 74.227 148.697 74.1137 148.697 74.0005C148.697 73.8872 148.81 73.774 148.924 73.774L159.116 73.0945C159.229 73.0945 159.342 73.2077 159.342 73.321C159.342 73.4342 159.229 73.5475 159.116 73.5475L148.924 74.227Z" fill="#006FFD"/>
<path d="M123.997 141.722C123.658 141.722 123.431 141.496 123.431 141.156C123.431 140.816 123.658 140.59 123.997 140.59L183.113 139.91C183.453 139.91 183.679 140.137 183.679 140.476C183.679 140.816 183.453 141.043 183.113 141.043L123.997 141.722Z" fill="#006FFD"/>
<g opacity="0.1294">
<path d="M185.054 89.4024C184.941 89.1759 184.827 88.9494 184.714 88.8362C184.714 88.0435 184.148 87.2507 183.242 87.2507C181.204 87.4772 179.052 87.2507 177.013 87.364C174.975 87.364 172.823 87.5905 170.785 87.817C170.332 87.817 169.879 87.817 169.426 88.0435C168.859 88.0435 168.406 88.0435 167.84 88.0435C164.443 88.1567 161.159 88.0435 157.761 88.0435C152.665 88.0435 147.569 88.1567 142.473 88.1567C139.528 88.1567 136.584 87.9302 133.639 88.0435C130.355 88.0435 127.184 88.4965 123.9 88.1567C121.748 87.9302 121.522 91.2144 123.673 91.3277C127.411 91.6674 131.035 91.2144 134.772 91.2144C142.586 91.5542 150.4 91.3277 158.214 91.2144C161.498 91.2144 164.783 91.3277 168.067 91.3277C172.597 91.5542 177.127 91.7807 181.77 91.6674C181.996 91.6674 182.223 91.6674 182.336 91.6674C182.449 91.6674 182.562 91.6674 182.676 91.6674C183.129 91.7807 183.469 91.6674 183.922 91.6674C184.714 91.1012 185.28 90.1952 185.054 89.4024Z" fill="#A3AEBB"/>
</g>
<g opacity="0.1294">
<path d="M214.721 119.979C214.381 119.753 213.928 119.753 213.589 119.753C212.343 119.753 211.211 119.753 209.965 119.753C207.587 119.753 205.095 119.64 202.717 119.64C199.659 119.753 196.602 119.753 193.544 119.526C192.864 119.526 192.185 119.413 191.619 119.979C190.713 120.885 191.392 122.584 192.638 122.584C196.035 122.924 199.546 122.811 202.943 122.584C206.228 122.584 209.625 122.811 212.909 122.811C213.362 122.811 213.928 122.924 214.381 122.697C215.74 122.358 215.74 120.546 214.721 119.979Z" fill="#A3AEBB"/>
</g>
<path d="M13.373 144.361C15.0464 137.717 22.2177 121.147 28.2736 115.572C32.8155 111.296 43.3336 109.692 49.8675 109.311C50.9831 111.907 54.1704 114.885 57.0389 114.58C58.5529 114.427 59.9872 113.434 60.8637 111.907C65.9634 114.427 71.2224 116.947 75.2065 121.07C80.9436 126.95 83.5732 136.343 85.9636 144.513C80.3062 144.284 75.1268 144.819 69.4694 144.59C66.4414 144.437 62.6964 144.208 59.6685 144.208C49.7082 144.132 11.4607 151.997 13.373 144.361Z" fill="white"/>
<path d="M77.0401 161.313C77.1995 161.161 77.1198 160.015 77.1198 159.786C78.1557 159.786 78.3947 159.786 79.59 159.786C79.6697 158.793 79.6697 157.724 79.6697 156.732C78.9525 156.732 77.9166 156.655 77.2792 156.732C76.9605 153.83 76.9604 151.615 77.0401 148.943C80.5461 149.401 80.9446 145.354 80.9446 144.361C80.8649 140.925 76.8808 140.238 76.1636 140.161C73.6138 139.856 70.8249 142.147 70.7452 143.674C70.6655 144.514 70.9046 148.485 73.6138 148.561C73.8528 150.394 74.0122 161.084 74.1716 161.161C74.3309 161.543 76.8808 161.466 77.0401 161.313ZM74.9684 147.492C72.6576 146.957 72.817 144.972 72.9763 144.437C73.2951 142.987 74.2513 142.376 76.4824 142.758C78.6338 143.139 78.7931 144.514 78.7931 145.277C78.4744 147.95 75.4465 147.568 74.9684 147.492Z" fill="white"/>
<path d="M75.6057 161.847C76.4025 161.847 77.1197 161.771 77.2791 161.542C77.4384 161.313 77.4384 160.626 77.4384 160.167C77.7571 160.167 77.9165 160.167 78.1556 160.167C78.4743 160.167 78.8727 160.167 79.5101 160.167C79.7492 160.167 79.9086 160.015 79.9086 159.786C79.9882 158.869 79.9882 157.953 79.9882 157.037V156.731C79.9882 156.502 79.8289 156.349 79.5898 156.349C79.3508 156.349 79.1914 156.349 78.9524 156.349C78.4743 156.349 77.9962 156.349 77.5181 156.349C77.1994 153.753 77.2791 151.615 77.2791 149.324C78.1556 149.324 78.9524 149.095 79.5898 148.56C81.2632 147.186 81.1835 144.437 81.1835 144.361C81.1038 140.542 76.5619 139.855 76.0838 139.779C74.7292 139.626 73.1356 140.084 71.8606 141.153C70.9045 141.917 70.267 142.91 70.267 143.673C70.1873 145.048 70.5857 148.56 73.2152 148.942C73.2949 150.24 73.4543 153.677 73.534 156.502C73.6933 161.389 73.6933 161.389 73.9324 161.542C74.0121 161.695 74.8089 161.847 75.6057 161.847ZM76.7213 161.007C76.2432 161.084 74.9683 161.084 74.4105 161.007C74.3308 160.397 74.3308 158.411 74.2511 156.502C74.1714 153.295 74.0121 149.63 73.9324 148.56C73.9324 148.408 73.773 148.255 73.534 148.255C70.9045 148.102 70.9842 143.75 70.9842 143.75C70.9842 143.139 71.5419 142.452 72.3387 141.764C73.4543 140.848 74.8089 140.39 75.9244 140.542C76.4025 140.619 80.307 141.153 80.3867 144.361C80.3867 145.201 80.1476 147.033 79.032 148.026C78.4743 148.484 77.7571 148.713 76.8806 148.56C76.801 148.56 76.6416 148.56 76.5619 148.637C76.4822 148.713 76.4025 148.79 76.4025 148.942C76.3229 151.462 76.3228 153.829 76.6416 156.808C76.6416 157.037 76.8806 157.189 77.04 157.113C77.5181 157.037 78.1555 157.113 78.7133 157.113C78.793 157.113 78.9524 157.113 79.032 157.113C79.032 157.877 79.032 158.64 79.032 159.404C78.6336 159.404 78.3946 159.404 78.0759 159.404C77.7571 159.404 77.4384 159.404 76.8806 159.404C76.801 159.404 76.6416 159.48 76.5619 159.557C76.4822 159.633 76.4822 159.786 76.4822 159.862C76.7213 160.015 76.7213 160.702 76.7213 161.007ZM75.9244 147.95C76.5619 147.95 77.3587 147.873 77.9962 147.339C78.6336 146.881 78.9524 146.193 79.032 145.277C79.1117 143.673 78.1556 142.681 76.4025 142.375C74.0918 141.993 72.8168 142.604 72.4981 144.361C72.2591 145.43 72.4981 147.262 74.8089 147.873C74.8089 147.797 75.287 147.95 75.9244 147.95ZM75.2073 142.986C75.526 142.986 75.8448 142.986 76.2432 143.062C77.5978 143.292 78.2352 143.979 78.2352 145.201C78.2352 145.888 77.9962 146.346 77.5181 146.728C76.7213 147.339 75.3667 147.186 75.0479 147.11C72.9762 146.651 73.2153 144.819 73.2949 144.513C73.4543 143.673 73.8527 142.986 75.2073 142.986Z" fill="#636464"/>
<path d="M78.6336 159.252C78.7133 159.252 78.793 159.175 78.793 159.099C78.793 159.023 78.7133 158.946 78.6336 158.946L76.6415 158.87C76.5619 158.87 76.4822 158.946 76.4822 159.023C76.4822 159.099 76.5619 159.175 76.6415 159.175L78.6336 159.252Z" fill="#636464"/>
<path d="M78.394 158.564C78.4737 158.564 78.5533 158.564 78.7127 158.564C78.7924 158.564 78.8721 158.487 78.8721 158.411C78.8721 158.335 78.7924 158.258 78.7127 158.258C78.2346 158.258 77.7565 158.258 77.2784 158.182C77.1987 158.182 77.119 158.258 77.119 158.258C77.119 158.335 77.1987 158.411 77.1987 158.411C77.5971 158.564 77.9956 158.564 78.394 158.564Z" fill="#636464"/>
<path d="M75.5257 143.52C75.9241 143.52 76.3225 143.367 76.6413 143.138C77.3584 142.68 77.5975 141.84 77.7568 141.306C77.9959 140.237 78.0755 139.015 77.8365 137.946C77.5974 136.8 77.199 135.96 76.4819 135.426C75.6851 134.815 74.3305 134.509 73.454 135.273C73.1352 135.502 72.8962 135.884 72.6571 136.342C72.0197 137.793 72.1791 139.473 72.9759 140.847C73.0556 141 73.2946 141.077 73.5337 141C73.693 140.924 73.7727 140.695 73.693 140.466C72.9759 139.32 72.8962 137.869 73.3743 136.648C73.5337 136.266 73.693 136.037 73.9321 135.884C74.4898 135.426 75.446 135.579 76.0038 136.037C76.5616 136.495 76.8803 137.182 77.1194 138.175C77.2787 139.167 77.2787 140.237 77.0397 141.229C76.8803 141.917 76.6413 142.375 76.2428 142.68C76.0038 142.833 75.6851 142.909 75.446 142.833C75.2867 142.833 75.1273 142.756 75.0476 142.604C74.9679 142.451 74.6492 142.375 74.4898 142.527C74.3305 142.604 74.2508 142.909 74.4102 143.062C74.6492 143.367 74.9679 143.596 75.3664 143.596C75.3664 143.52 75.446 143.52 75.5257 143.52Z" fill="#636464"/>
<path d="M67.0788 143.29C68.6725 142.756 70.3458 140.999 72.0192 139.396C72.4176 139.014 72.816 138.708 73.2144 138.403C74.3299 137.716 75.6049 137.334 76.7204 136.647C76.9595 136.494 77.1985 136.265 77.4375 136.036C77.5172 135.883 77.5969 135.73 77.5969 135.578C77.5969 135.348 77.4376 135.196 77.2782 135.043C76.7204 134.661 75.9236 134.661 75.2065 134.814C73.2144 135.119 71.3817 135.73 69.4693 136.265C69.1506 136.341 68.9115 136.418 68.6725 136.647C68.4334 136.799 68.2741 137.105 68.1944 137.334C67.8757 137.945 67.7163 138.556 67.5569 139.167C66.9992 141.076 63.9712 141.457 64.4493 143.366C64.4493 143.825 67.1585 143.443 67.0788 143.29Z" fill="white"/>
<path d="M67.9557 142.983C69.6291 142.831 70.8243 141.609 72.0196 140.387C72.8961 139.471 73.7726 138.554 74.8084 138.02C74.9678 137.943 75.2069 137.867 75.3662 137.791C76.163 137.409 77.0395 137.103 77.5973 136.34C77.8364 136.034 77.9957 135.729 77.916 135.424C77.8364 134.66 76.9599 134.354 76.0834 134.431C73.7726 134.584 71.5415 135.118 69.39 135.958C69.2307 136.034 69.0713 136.263 69.151 136.416C69.2307 136.569 69.4697 136.722 69.6291 136.645C71.7008 135.805 73.8523 135.347 76.0834 135.118C76.5614 135.042 77.1192 135.194 77.1192 135.424C77.1192 135.5 77.0395 135.653 76.9599 135.805C76.4818 136.34 75.7646 136.645 75.0475 137.027C74.8881 137.103 74.6491 137.18 74.4897 137.256C73.2945 137.791 72.3383 138.783 71.4618 139.776C70.3462 140.922 69.3103 142.067 67.9557 142.143C67.7167 142.143 67.5573 142.372 67.637 142.525C67.5573 142.831 67.7167 142.983 67.9557 142.983Z" fill="#636464"/>
<path d="M67.239 143.213C67.0797 144.282 59.9879 150.009 58.8724 146.878C58.5537 145.962 59.4301 142.755 59.3505 141.762C59.2708 139.93 61.9003 137.562 61.0238 135.959C59.8286 133.744 57.6772 132.293 56.2429 130.232C56.0835 130.002 55.9242 129.773 56.0038 129.468C56.1632 129.01 56.8006 129.01 57.2787 129.163C59.2708 129.926 60.227 132.217 62.2191 133.133C62.3784 132.981 62.5378 132.828 62.7768 132.675C62.6175 130.69 62.6175 128.475 62.7768 126.337C62.8565 125.497 62.9362 124.581 63.4143 123.817C63.494 123.664 63.5736 123.588 63.733 123.512C64.0517 123.359 64.5298 123.588 64.6892 123.894C64.8486 124.199 64.8486 124.581 64.7689 124.963C64.6095 127.406 64.7689 129.773 65.247 132.141C65.486 129.773 67.0797 127.712 68.6733 125.879C68.8327 125.65 69.0717 125.421 69.3108 125.192C69.5498 125.039 69.9482 124.963 70.1873 125.039C70.6654 125.192 70.8247 125.803 70.745 126.261C70.5857 126.719 70.267 127.101 69.9482 127.483C68.9124 128.781 68.2749 130.384 68.0359 132.064C68.5139 131.453 68.992 130.766 69.5498 130.308C70.1076 129.85 70.9044 129.468 71.6216 129.544C73.6933 131.072 75.2869 133.21 76.0838 135.577C76.1635 135.882 76.2431 136.264 76.0041 136.57C75.8447 136.799 75.4463 136.799 75.2073 136.646C74.9682 136.57 74.7292 136.341 74.5698 136.111C73.6933 135.195 73.2152 133.897 72.259 133.133C72.02 132.904 71.7012 132.752 71.4622 132.522C71.1435 132.293 70.8247 132.217 70.506 132.293C69.8686 132.522 69.7092 133.21 69.7092 133.821C69.6295 134.584 69.5498 135.424 69.5498 136.417C69.7889 139.242 67.4781 141.228 67.239 143.213Z" fill="white"/>
<path d="M72.896 130.767C74.2506 132.294 75.6052 133.897 76.163 135.883C76.2427 136.112 76.2427 136.341 76.163 136.57C76.0037 136.876 75.5256 136.952 75.2865 136.799C74.9678 136.646 74.7287 136.417 74.5694 136.112C73.7725 135.119 72.896 134.127 72.0195 133.134C71.9398 133.057 71.7805 132.905 71.7805 132.752C71.7008 132.447 71.8602 132.141 72.0195 131.912C72.1789 131.683 72.2586 131.454 72.4976 131.301C72.5773 131.072 72.8164 130.919 72.896 130.767Z" fill="white"/>
<path d="M60.2261 148.33C62.0588 148.33 64.6883 145.962 66.6804 144.206C67.3178 143.672 67.8756 143.137 68.1944 142.908C68.3537 142.755 68.4334 142.526 68.274 142.373C68.1146 142.221 67.8756 142.144 67.7163 142.297C67.3178 142.526 66.8397 143.061 66.1226 143.672C64.2899 145.352 60.7839 148.406 59.6683 147.413C58.9512 146.802 59.3496 144.664 59.8277 142.373C60.2261 140.388 60.7042 139.243 61.1026 138.403C61.501 137.486 61.8198 136.799 61.4214 135.883C61.0229 134.661 59.748 133.439 58.5528 132.217C57.7559 131.454 57.0388 130.766 56.5607 130.079C56.481 130.003 56.3217 129.774 56.4014 129.621C56.4014 129.621 56.4014 129.545 56.481 129.545C56.6404 129.468 56.9592 129.468 57.1982 129.545C58.1544 129.926 58.8715 130.69 59.5887 131.454C60.3058 132.217 61.0229 132.981 62.0588 133.439C62.2182 133.515 62.3775 133.515 62.4572 133.363L63.015 132.905C63.0947 132.828 63.1743 132.752 63.0947 132.599C62.9353 130.461 62.9353 128.399 63.0947 126.337C63.1743 125.497 63.254 124.657 63.7321 124.047C63.7321 123.97 63.8118 123.894 63.8915 123.894C63.8915 123.894 63.9712 123.894 64.0509 123.894C64.1305 123.894 64.2899 124.047 64.2899 124.123C64.3696 124.352 64.3696 124.657 64.3696 124.963C64.2102 127.407 64.3696 129.85 64.8477 132.294C64.8477 132.446 65.0867 132.599 65.2461 132.599C65.4055 132.599 65.5648 132.446 65.6445 132.294C65.8836 129.926 67.6366 127.865 68.9912 126.185C69.1505 125.956 69.3099 125.727 69.5489 125.574C69.7083 125.421 69.9474 125.421 70.1067 125.497C70.3458 125.574 70.5051 125.956 70.4254 126.261C70.3458 126.567 70.1067 126.872 69.8677 127.254L69.7083 127.406C68.6724 128.781 67.9553 130.461 67.7163 132.141C67.7163 132.294 67.7959 132.446 67.9553 132.523C68.1147 132.599 68.274 132.523 68.4334 132.37L68.5928 132.141C68.9912 131.606 69.3896 131.072 69.8677 130.69C70.3458 130.308 71.2223 130.079 71.7004 130.308C73.5331 131.301 74.8876 133.134 75.8438 135.806C76.0032 136.188 75.9235 136.341 75.8438 136.417C75.7642 136.494 75.6048 136.494 75.5251 136.417C75.3657 136.341 75.2064 136.188 75.047 135.959C74.5689 135.424 74.3299 135.043 74.0112 134.584C73.7721 134.279 73.5331 133.897 73.2143 133.439C72.9753 133.057 72.0191 132.446 71.7801 132.294C71.3816 131.988 70.8239 131.912 70.4254 132.065C69.6286 132.37 69.3896 133.21 69.3099 133.897L69.0708 136.264C69.0708 136.494 69.2302 136.646 69.3896 136.646C69.6286 136.646 69.788 136.494 69.788 136.341L70.027 133.974C70.1067 133.286 70.2661 132.828 70.5848 132.752C70.8239 132.675 71.0629 132.752 71.2223 132.905C71.541 133.134 72.2581 133.668 72.4175 133.897C72.7362 134.279 72.9753 134.661 73.1346 134.966C73.4534 135.424 73.6924 135.883 74.2502 136.417C74.4096 136.646 74.6486 136.875 75.047 137.028C75.4454 137.181 75.9235 137.181 76.2422 136.875C76.6407 136.417 76.4813 135.73 76.4016 135.577C75.4454 132.675 73.9315 130.69 71.9394 129.621C71.0629 129.163 69.8677 129.468 69.2302 130.079C69.0708 130.232 68.8318 130.385 68.6724 130.614C68.9912 129.621 69.4693 128.628 70.1864 127.788L70.2661 127.636C70.5848 127.254 70.8239 126.872 70.9832 126.414C71.1426 125.803 70.9036 124.963 70.1864 124.734C69.788 124.581 69.3099 124.657 68.9115 124.887C68.5928 125.116 68.3537 125.345 68.1944 125.65C67.1585 126.948 65.8835 128.476 65.1664 130.308C64.9274 128.552 64.8477 126.796 65.0071 124.963C65.0071 124.581 65.0867 124.123 64.8477 123.741C64.6883 123.436 64.4493 123.207 64.1305 123.13C63.8915 123.054 63.5728 123.054 63.4134 123.207C63.1744 123.283 63.0947 123.512 63.015 123.665C62.4572 124.505 62.3775 125.421 62.2978 126.337C62.1385 128.399 62.1385 130.461 62.2978 132.523L62.1385 132.675C61.4213 132.294 60.7839 131.606 60.1464 130.919C59.3496 130.079 58.5528 129.239 57.4372 128.781C57.1185 128.628 56.5607 128.552 56.0826 128.781C55.8436 128.934 55.6842 129.086 55.6046 129.316C55.4452 129.774 55.7639 130.156 55.9233 130.385C56.481 131.072 57.1982 131.835 57.995 132.599C59.1106 133.745 60.3058 134.89 60.7042 135.959C60.9432 136.646 60.7839 137.028 60.3855 137.944C59.9871 138.784 59.509 140.006 59.1105 142.068C58.5528 144.741 58.1544 146.879 59.2699 147.795C59.4293 148.253 59.8277 148.33 60.2261 148.33Z" fill="#636464"/>
<path d="M34.5679 131.377C32.7352 137.104 28.1136 145.962 27.3168 147.795C39.9863 144.053 51.8589 140.769 60.1459 138.249C57.8351 142.449 60.9427 146.115 64.13 147.795C57.6757 151.536 19.8266 170.627 12.974 158.791C10.7429 154.896 13.6911 145.427 14.966 141.151C16.719 135.119 23.492 120.075 29.2291 115.417C32.4961 116.563 35.5241 118.854 36.4803 122.061C37.4364 125.115 35.524 128.17 34.5679 131.377Z" fill="white"/>
<path d="M102.856 108.697L81.8201 147.794L108.912 147.718L129.072 108.621L102.856 108.697Z" fill="white"/>
<path d="M81.8202 148.176C81.8999 148.176 81.8999 148.176 81.8202 148.176L108.912 148.1C109.072 148.1 109.231 148.023 109.231 147.871L129.391 108.774C129.47 108.621 129.47 108.544 129.391 108.392C129.311 108.315 129.152 108.239 129.072 108.239L102.856 108.315C102.697 108.315 102.617 108.392 102.538 108.544L81.5812 147.642C81.5015 147.794 81.5015 147.871 81.5812 148.023C81.5812 148.1 81.7405 148.176 81.8202 148.176ZM108.673 147.336L82.4577 147.413L103.095 109.079L128.434 109.003L108.673 147.336Z" fill="#636464"/>
<path d="M121.263 124.047C119.43 123.818 117.598 123.589 115.765 123.359C115.287 123.283 114.888 123.207 114.41 123.283C113.932 123.359 113.534 123.512 113.295 123.894C113.215 124.047 113.215 124.581 113.613 124.81C115.127 125.65 116.641 125.956 118.394 126.414C118.315 126.719 117.916 126.872 117.518 126.948C116.721 127.025 115.924 127.178 115.127 127.178C113.135 127.101 112.817 128.018 113.454 128.552C113.773 128.781 116.323 129.392 117.518 129.316C117.12 129.621 116.562 129.621 116.004 129.697C115.446 129.774 114.968 129.85 114.49 130.156C114.092 130.461 113.853 131.072 114.092 131.454C114.331 131.759 114.729 131.912 115.127 131.988C115.685 132.065 116.243 132.141 116.801 132.217C116.562 132.37 116.323 132.523 116.163 132.676C116.004 132.905 115.924 133.21 116.004 133.439C116.163 133.745 116.482 133.821 116.801 133.897C117.598 134.05 118.394 133.897 119.032 133.592C119.749 133.21 120.307 132.599 120.785 131.912C121.9 130.385 122.697 128.552 123.096 126.643C123.175 126.338 123.255 125.956 123.175 125.65C123.016 124.734 122.139 124.199 121.263 124.047Z" fill="white"/>
<path d="M117.359 134.279C117.996 134.279 118.634 134.127 119.191 133.821C120.068 133.363 120.626 132.599 121.104 132.065C122.299 130.461 123.096 128.629 123.494 126.72C123.574 126.414 123.653 126.032 123.574 125.574C123.414 124.505 122.299 123.818 121.343 123.742L115.845 123.054C115.367 122.978 114.888 122.902 114.41 122.978C113.773 123.054 113.295 123.36 112.976 123.742C112.817 123.894 112.817 124.2 112.896 124.505C112.976 124.811 113.135 125.04 113.454 125.192C114.729 125.88 116.084 126.261 117.438 126.643C117.279 126.643 117.12 126.72 116.96 126.72C116.323 126.796 115.765 126.872 115.127 126.872C113.374 126.796 112.976 127.407 112.817 127.712C112.657 128.094 112.817 128.552 113.215 128.858C113.454 129.087 114.331 129.316 115.287 129.469C114.888 129.545 114.57 129.698 114.251 129.85C113.693 130.232 113.374 131.072 113.773 131.683C114.092 132.141 114.57 132.294 115.048 132.37C115.287 132.447 115.526 132.447 115.765 132.447C115.526 132.752 115.446 133.21 115.606 133.592C115.765 133.898 116.084 134.127 116.641 134.279C116.88 134.279 117.12 134.279 117.359 134.279ZM121.183 124.429C121.9 124.505 122.697 124.963 122.777 125.651C122.857 125.956 122.777 126.261 122.697 126.491C122.299 128.323 121.502 130.08 120.387 131.607C119.988 132.141 119.43 132.752 118.713 133.134C118.155 133.439 117.359 133.516 116.721 133.439C116.482 133.363 116.323 133.287 116.243 133.21C116.163 133.134 116.243 132.981 116.323 132.829C116.482 132.676 116.641 132.523 116.88 132.447C117.04 132.37 117.12 132.218 117.04 132.065C117.04 131.912 116.88 131.76 116.721 131.76C116.163 131.683 115.606 131.683 115.127 131.53C114.809 131.454 114.49 131.378 114.331 131.149C114.171 130.92 114.331 130.538 114.57 130.309C114.888 130.08 115.367 130.003 115.845 129.927C116.402 129.85 116.96 129.774 117.518 129.469C117.677 129.392 117.757 129.24 117.677 129.01C117.598 128.858 117.438 128.781 117.279 128.781C116.163 128.781 113.773 128.323 113.454 128.094C113.374 128.094 113.295 127.941 113.295 127.789C113.374 127.636 113.773 127.331 114.809 127.407C115.526 127.407 116.163 127.331 116.801 127.254C116.96 127.254 117.12 127.178 117.279 127.178C118.155 127.101 118.394 126.72 118.474 126.414C118.554 126.185 118.394 126.032 118.235 125.956C117.996 125.88 117.837 125.88 117.598 125.803C116.163 125.421 114.809 125.116 113.534 124.429C113.374 124.352 113.374 124.047 113.374 124.047C113.534 123.818 113.853 123.665 114.251 123.589C114.649 123.512 115.048 123.589 115.526 123.665L121.183 124.429Z" fill="#636464"/>
<path d="M106.601 115.418H120.626C120.865 115.418 121.024 115.265 121.024 115.036C121.024 114.807 120.865 114.654 120.626 114.654H106.522C106.283 114.654 106.123 114.807 106.123 115.036C106.203 115.265 106.362 115.418 106.601 115.418Z" fill="#636464"/>
<path d="M103.972 120.612H118.076C118.315 120.612 118.474 120.459 118.474 120.23C118.474 120.001 118.315 119.848 118.076 119.848H103.972C103.733 119.848 103.573 120.001 103.573 120.23C103.573 120.459 103.733 120.612 103.972 120.612Z" fill="#636464"/>
<path d="M96.7202 134.814H110.824C111.063 134.814 111.222 134.662 111.222 134.433C111.222 134.204 111.063 134.051 110.824 134.051H96.7202C96.4812 134.051 96.3218 134.204 96.3218 134.433C96.3218 134.662 96.4812 134.814 96.7202 134.814Z" fill="#636464"/>
<path d="M93.6128 139.929H107.717C107.956 139.929 108.115 139.776 108.115 139.547C108.115 139.318 107.956 139.166 107.717 139.166H93.6128C93.3738 139.166 93.2144 139.318 93.2144 139.547C93.2941 139.776 93.4535 139.929 93.6128 139.929Z" fill="#636464"/>
<g opacity="0.1294">
<path d="M112.737 127.712C113.215 127.483 113.773 127.941 113.693 128.476C113.693 128.476 113.693 128.476 113.773 128.476C113.932 128.552 114.091 128.552 114.331 128.629C114.57 128.629 114.888 128.552 115.127 128.705C115.924 129.01 115.685 130.156 114.809 130.156C114.57 130.156 114.41 130.156 114.171 130.156C114.41 130.385 114.41 130.69 114.251 130.996C114.251 131.072 114.171 131.149 114.171 131.225C114.171 131.225 114.171 131.301 114.251 131.301C114.331 131.378 114.41 131.454 114.49 131.53C114.49 131.53 114.57 131.53 114.57 131.607C114.649 131.683 114.809 131.683 114.888 131.683C115.207 131.759 115.605 131.759 115.844 132.065C116.163 132.218 116.323 132.523 116.243 132.905C116.004 133.439 116.084 134.356 115.366 134.432C114.809 134.509 114.41 133.974 114.49 133.516C114.49 133.439 114.57 133.287 114.57 133.21C114.251 133.134 113.852 133.058 113.613 132.905C113.056 132.523 112.657 131.836 112.817 131.149C112.817 131.149 112.817 131.225 112.817 131.301C112.817 131.072 112.896 130.843 113.056 130.614C113.135 130.385 113.295 130.156 113.534 130.08C113.135 129.927 112.737 129.698 112.498 129.316C112.259 128.858 112.099 128.018 112.737 127.712Z" fill="#636464"/>
</g>
<g opacity="0.1294">
<path d="M112.577 124.276C112.896 123.971 113.533 124.124 113.693 124.582V124.658C113.693 124.658 113.693 124.658 113.693 124.582C113.693 124.658 113.693 124.658 113.693 124.658C113.772 124.735 113.852 124.811 113.932 124.887C114.012 124.887 114.012 124.964 114.091 124.964C114.649 125.269 114.33 125.116 114.808 125.269C115.366 125.422 115.844 125.574 116.402 125.727C116.721 125.804 117.119 125.804 117.358 126.033C117.996 126.491 117.438 127.484 116.721 127.254C115.446 126.949 113.932 126.796 112.976 125.804C112.577 125.345 112.099 124.735 112.577 124.276Z" fill="#636464"/>
</g>
<path d="M21.9784 162.991C27.3171 162.991 34.6479 161.235 43.7317 157.722C53.6123 153.904 62.0586 149.399 64.2897 148.101C64.3694 148.024 64.4491 147.872 64.4491 147.795C64.4491 147.642 64.3694 147.566 64.21 147.49C60.8634 145.81 58.2339 142.221 60.3853 138.479C60.465 138.326 60.4649 138.174 60.3056 138.097C60.2259 137.945 60.0665 137.945 59.9072 137.945C56.1621 139.09 51.6202 140.388 46.8393 141.763C41.1022 143.443 34.5682 145.275 27.9546 147.261C28.0342 147.184 28.0343 147.032 28.1139 146.955C29.7076 143.824 33.2933 136.57 34.8869 131.607C34.9666 131.377 34.8072 131.225 34.6479 131.148C34.4088 131.072 34.2495 131.225 34.1698 131.377C32.6558 136.265 28.9904 143.519 27.4764 146.573C27.2374 147.032 27.0781 147.413 26.9187 147.719C26.839 147.872 26.839 148.024 26.9984 148.101C27.0781 148.177 27.2374 148.253 27.3968 148.177C34.4088 146.115 41.1818 144.13 47.158 142.45C51.6202 141.152 55.8434 139.93 59.4291 138.937C57.9151 142.603 60.2259 146.039 63.4132 147.872C57.0386 151.461 30.0263 164.9 17.9943 161.846C15.8429 161.311 14.2492 160.242 13.293 158.639C11.2213 155.05 13.8508 146.039 15.2054 141.763L15.3648 141.304C17.1975 135.119 23.8908 120.381 29.5482 115.341C34.3292 111.065 45.9628 109.996 49.8672 109.767C51.1421 112.287 54.2497 114.807 57.0386 114.501C58.4729 114.349 59.9072 113.509 60.7837 112.134C65.5646 114.349 70.4252 116.563 74.1703 120.229C79.509 125.421 82.4573 134.89 84.529 141.763L84.6087 142.068C84.6884 142.297 84.8477 142.374 85.0868 142.297C85.3258 142.221 85.4055 142.068 85.3258 141.839L85.2461 141.534C83.015 134.126 80.1465 124.963 74.6484 119.694C70.6643 115.876 65.6443 113.585 60.704 111.294C60.5446 111.218 60.3056 111.294 60.2259 111.447C59.4291 112.745 58.1542 113.585 56.8792 113.738C54.3294 113.967 51.4609 111.523 50.425 109.233C50.3453 109.08 50.1859 109.003 50.0266 109.003C46.3612 109.233 34.0901 110.302 28.9904 114.807C23.1736 119.923 16.4006 134.89 14.5679 141.152L14.4086 141.61C12.9743 146.344 10.3448 155.202 12.5759 159.097C13.6118 160.853 15.3648 162.075 17.7552 162.686C19.0302 162.838 20.3848 162.991 21.9784 162.991Z" fill="#636464"/>
<path d="M60.7419 113.901C60.7419 110.474 61.1143 107.119 61.6357 103.264C60.2204 102.55 58.7306 101.979 57.1664 101.694C56.496 101.551 55.6765 101.48 55.0806 101.908C54.7082 102.122 54.5592 102.55 54.3357 102.907C53.0694 105.477 51.8776 107.976 50.6112 110.546C50.5367 110.76 50.3878 110.974 50.4623 111.188C50.4623 111.474 50.6857 111.759 50.9092 112.045C53.2184 114.472 57.3898 115.4 60.7419 113.901Z" fill="white"/>
<path d="M57.1666 114.971C58.433 114.971 59.6993 114.686 60.8166 114.186C60.9656 114.115 61.0401 113.972 61.0401 113.9C61.0401 110.617 61.4125 107.262 61.934 103.335C61.934 103.193 61.8595 103.05 61.7105 102.978C60.2952 102.265 58.7309 101.693 57.0921 101.408C56.3472 101.265 55.4534 101.194 54.783 101.693C54.336 101.979 54.1125 102.479 53.9636 102.836L50.2391 110.474C50.1646 110.688 50.0156 110.974 50.0156 111.259C50.0156 111.687 50.3136 112.044 50.5371 112.33C52.3248 113.972 54.7085 114.971 57.1666 114.971ZM60.3697 113.615C57.3156 114.9 53.4422 114.115 51.2075 111.759C51.0585 111.545 50.835 111.33 50.835 111.188C50.835 111.045 50.9095 110.902 50.984 110.759L54.7085 103.121C54.8574 102.836 55.0064 102.479 55.3044 102.265C55.7513 101.908 56.4962 102.05 57.0921 102.122C58.5819 102.407 59.9228 102.836 61.2636 103.549C60.7422 107.19 60.3697 110.402 60.3697 113.615Z" fill="#636464"/>
<path d="M47.4687 88.2185C47.3552 92.3307 44.6417 96.4853 40.7103 97.7795C38.5711 98.487 36.2679 98.3479 34.0845 98.8801C31.9011 99.4122 29.623 101.009 29.4968 103.246C29.4653 103.815 29.5725 104.389 29.4337 104.946C29.0551 106.433 27.244 106.935 25.8242 107.534C18.3148 110.697 22.1642 118.558 29.7871 121.213C33.1947 122.398 34.6902 122.604 38.325 122.102C41.9093 121.606 45.2412 119.629 47.8284 117.022C50.4157 114.41 52.3151 111.193 53.8359 107.86C55.5902 104.02 56.8964 99.7751 56.1329 95.7052C55.3756 91.6413 51.9996 87.9222 47.4561 88.2125" fill="#ACD4F7"/>
<path d="M47.9671 88.5083C52.2013 88.5083 55.1609 92.1731 55.8298 95.7652C56.4608 99.1517 55.7414 102.956 53.5517 107.745C51.7975 111.579 49.8539 114.548 47.6011 116.816C44.8561 119.58 41.5494 121.352 38.2807 121.805C34.6017 122.313 33.1882 122.077 29.9005 120.928C25.4833 119.392 22.2019 115.957 22.0883 112.77C22.0126 110.624 23.3504 108.912 25.9502 107.818C26.1459 107.733 26.3541 107.654 26.556 107.57C27.8749 107.044 29.3768 106.451 29.7364 105.018C29.8374 104.625 29.8248 104.232 29.8122 103.857C29.8059 103.651 29.7995 103.457 29.8122 103.264C29.9321 101.153 32.1533 99.6658 34.16 99.1759C35.1066 98.9461 36.0973 98.8433 37.0628 98.7405C38.2996 98.6075 39.5806 98.4744 40.8111 98.0693C44.6415 96.8054 47.5317 92.8141 47.7715 88.5083C47.8346 88.5083 47.8977 88.5083 47.9608 88.5083M35.2454 122.664C36.1415 122.664 37.1385 122.579 38.3753 122.404C41.7829 121.932 45.2221 120.094 48.0617 117.233C50.365 114.911 52.3528 111.888 54.1323 107.987C56.3725 103.089 57.1045 99.1699 56.4482 95.6564C55.7036 91.6711 52.296 87.6073 47.437 87.9157C47.2729 87.9278 47.1467 88.0548 47.1404 88.212C47.0268 92.3787 44.2755 96.2853 40.5966 97.4948C39.4355 97.8757 38.1923 98.0088 36.987 98.1358C36.0026 98.2386 34.9867 98.3474 33.9959 98.5893C31.7684 99.1336 29.3073 100.821 29.1685 103.234C29.1559 103.451 29.1685 103.669 29.1685 103.881C29.1811 104.232 29.1938 104.564 29.1117 104.879C28.8278 106.009 27.5404 106.517 26.3036 107.007C26.0954 107.092 25.8808 107.177 25.6852 107.261C22.8708 108.447 21.3626 110.412 21.4446 112.795C21.5645 116.224 25.0226 119.882 29.6733 121.503C31.9324 122.289 33.3775 122.664 35.2328 122.664" fill="black"/>
<path d="M66.7782 89.094C67.5039 88.2776 69.3402 88.8581 69.296 89.8801C69.1824 92.3414 69.5484 94.6152 71.511 97.2398C72.4764 98.5339 73.7638 99.7132 74.603 101.05C75.6001 102.634 75.903 104.358 75.9724 106.027C76.1049 109.183 75.3729 112.419 72.7793 114.668C70.1858 116.924 65.3899 117.892 61.4775 116.283C58.0446 114.874 56.0884 111.856 55.836 109.081C55.5836 106.305 56.7384 103.704 58.0005 101.225C60.3795 96.5625 63.3769 92.922 66.7782 89.094Z" fill="#ACD4F7"/>
<path d="M67.7438 89.0093C67.9395 89.0093 68.1414 89.0516 68.3118 89.1121C68.6462 89.2391 68.9933 89.4991 68.9743 89.862C68.8734 92.0632 69.0816 94.5064 71.2461 97.4091C71.6563 97.9655 72.1358 98.4976 72.5902 99.0177C73.2086 99.7192 73.8523 100.445 74.3255 101.195C75.1459 102.501 75.5687 104.037 75.6507 106.027C75.8085 109.685 74.7673 112.515 72.5586 114.433C70.2617 116.428 65.6362 117.656 61.5912 115.993C58.5496 114.741 56.4104 112.014 56.1391 109.044C55.893 106.299 57.0604 103.735 58.2783 101.346C60.5122 96.9616 63.2761 93.4783 67.0118 89.2814C67.1885 89.0818 67.4599 89.0032 67.7375 89.0032M65.6677 117.366C68.3875 117.366 71.1262 116.495 72.9814 114.886C75.3352 112.842 76.4458 109.855 76.2818 106.008C76.1934 103.91 75.7454 102.283 74.8682 100.886C74.3697 100.094 73.7134 99.3503 73.0761 98.6246C72.628 98.1166 72.1611 97.5905 71.7635 97.0523C69.7064 94.2947 69.5107 91.9785 69.6054 89.8801C69.6306 89.3116 69.2205 88.7916 68.5389 88.5376C67.9016 88.2957 67.0371 88.3138 66.5322 88.8823C62.765 93.1155 59.9758 96.629 57.7103 101.074C56.4546 103.541 55.2493 106.19 55.5144 109.087C55.8046 112.28 58.0953 115.207 61.3451 116.543C62.6829 117.093 64.1722 117.353 65.674 117.353" fill="black"/>
<path d="M72.4954 85.6002C71.5993 88.2188 70.4761 90.9401 70.678 93.7461C70.7853 95.2761 69.296 102.69 62.6702 103.688C59.1868 104.214 55.4827 103.307 52.4979 100.743C50.4722 99.0013 48.5097 94.381 49.8601 90.3837C47.8724 90.547 46.2443 88.9868 46.5409 87.354C46.7113 86.4106 48.0238 85.4309 49.1534 85.6909C50.0305 85.8905 50.1315 85.9207 50.7057 86.5315C51.5387 84.6931 52.2013 82.7882 52.5988 80.5688C55.1924 78.6881 58.865 78.1498 62.4051 78.2708C63.5788 78.3131 64.7652 78.422 65.8947 78.7667C69.1256 79.7584 73.4104 82.9091 72.4891 85.6002" fill="white"/>
<path d="M72.1925 85.5033C72.0852 85.8178 71.9716 86.1383 71.858 86.4588C71.0313 88.8052 70.1794 91.2363 70.3624 93.7641C70.4382 94.8042 69.3086 102.376 62.6259 103.379C59.0164 103.924 55.5015 102.902 52.7124 100.513C50.8319 98.8983 48.8378 94.393 50.163 90.4743C50.1945 90.3775 50.1756 90.2687 50.1125 90.1901C50.0494 90.1114 49.9421 90.0691 49.8348 90.0752C48.9325 90.1477 48.0427 89.8272 47.4495 89.2043C46.9573 88.6843 46.7364 88.0311 46.85 87.3962C46.9194 87.0031 47.2665 86.5616 47.7272 86.2713C48.1752 85.9932 48.6674 85.8843 49.0776 85.975C49.9232 86.1685 49.9547 86.1746 50.4722 86.7249C50.5479 86.8035 50.6552 86.8398 50.7561 86.8217C50.8634 86.8035 50.9518 86.737 50.9959 86.6402C51.9173 84.6083 52.5231 82.7276 52.8891 80.7259C55.6782 78.7605 59.5907 78.4642 62.3925 78.5609C63.3579 78.5972 64.6137 78.6819 65.8 79.0447C67.9834 79.716 70.8736 81.4879 71.9211 83.4654C72.3124 84.1971 72.4007 84.8804 72.1861 85.4973M60.7265 104.123C61.3828 104.123 62.0517 104.075 62.7143 103.972C69.397 102.968 71.126 95.6025 70.9872 93.7096C70.8168 91.3028 71.6498 88.9322 72.4512 86.6402C72.5648 86.3197 72.6783 85.9992 72.7856 85.6787C73.0507 84.9046 72.9497 84.064 72.4827 83.1811C71.3532 81.0645 68.2927 79.1657 65.9894 78.4581C64.7336 78.0711 63.4147 77.9804 62.4114 77.9441C59.4708 77.8413 55.3438 78.1678 52.4032 80.3026C52.3401 80.3509 52.2959 80.4175 52.2833 80.4961C51.9551 82.3526 51.4187 84.1003 50.5984 85.9629C50.2071 85.6061 49.9484 85.5396 49.2164 85.3703C48.6359 85.2372 47.9607 85.3703 47.3738 85.7452C46.7617 86.1323 46.32 86.7189 46.219 87.2752C46.0675 88.0916 46.3452 88.9382 46.9762 89.5974C47.601 90.2505 48.4907 90.6315 49.4247 90.6678C48.2573 94.774 50.2829 99.2309 52.2769 100.942C54.6938 103.017 57.6344 104.111 60.7202 104.111" fill="black"/>
<path d="M52.6177 66.501C54.473 63.0903 58.865 61.7659 62.424 63.5439C65.9831 65.3218 67.365 69.5308 65.5098 72.9415C63.6545 76.3522 59.2625 77.6766 55.7035 75.8987C52.1444 74.1208 50.7625 69.9118 52.6177 66.501Z" fill="#ACD4F7"/>
<path d="M59.0731 63.0604C60.1521 63.0604 61.2501 63.3023 62.2724 63.8164C65.6737 65.5157 66.9989 69.5493 65.2257 72.8028C63.4524 76.0623 59.2434 77.3323 55.8485 75.633C52.4472 73.9337 51.122 69.9 52.8952 66.6465C54.1321 64.3667 56.5615 63.0665 59.0731 63.0665M59.0478 76.9997C61.7865 76.9997 64.4369 75.5725 65.7873 73.0931C67.7183 69.5372 66.2732 65.1347 62.569 63.2842C58.8585 61.4337 54.2646 62.8185 52.3336 66.3684C50.4026 69.9242 51.8477 74.3207 55.5519 76.1772C56.6688 76.7336 57.8678 76.9997 59.0478 76.9997Z" fill="black"/>
<path d="M50.8572 86.6458C53.5896 84.6925 56.057 82.1707 57.8428 79.2498C62.8217 85.1521 69.132 86.7063 75.3414 88.6717C75.8589 87.7222 76.0419 86.6216 75.9788 85.521C75.821 82.8299 75.2846 80.3504 72.2052 77.4537C70.047 75.4218 66.8477 73.4383 63.8944 72.8275C60.9601 72.2167 58.0005 72.8033 55.3754 73.8374C53.2867 74.6598 51.0907 76.4499 49.7592 78.5181C48.617 80.29 47.8535 83.5556 47.986 85.8233C48.3709 85.654 48.8505 85.5573 49.5257 85.7931C49.9233 85.9322 50.4092 86.2769 50.8509 86.6639" fill="#ACD4F7"/>
<path d="M61.4337 72.8748C62.254 72.8748 63.0554 72.9535 63.8253 73.1167C66.9741 73.7699 70.1041 75.8985 71.9783 77.6644C75.1271 80.6276 75.5247 83.1796 75.6572 85.532C75.714 86.548 75.5499 87.4974 75.1713 88.2957C74.7296 88.1566 74.2879 88.0175 73.8461 87.8845C68.0532 86.0884 62.5821 84.3891 58.0829 79.0613C58.0198 78.9827 57.9125 78.9404 57.8115 78.9464C57.7105 78.9525 57.6159 79.0069 57.5591 79.0976C55.9058 81.8008 53.5899 84.2681 50.8638 86.2577C50.5041 85.9614 50.0497 85.6348 49.627 85.4897C49.1411 85.3264 48.7057 85.2901 48.2829 85.3869C48.2576 83.1736 49.0022 80.2466 50.0245 78.6622C51.2866 76.7028 53.4321 74.9128 55.4893 74.1025C57.5717 73.28 59.5595 72.8688 61.4273 72.8688M75.3354 88.967C75.449 88.967 75.5625 88.9065 75.6193 88.8037C76.1305 87.8663 76.364 86.7234 76.2945 85.4958C76.1179 82.4721 75.4111 80.035 72.4263 77.229C70.4827 75.4027 67.2455 73.2014 63.9641 72.518C61.3137 71.9677 58.3857 72.3124 55.2558 73.5401C53.0535 74.4109 50.8449 76.2493 49.4944 78.3417C48.3333 80.1438 47.5319 83.4275 47.6771 85.8223C47.6834 85.9251 47.7402 86.0158 47.8285 86.0642C47.9169 86.1186 48.0305 86.1247 48.1251 86.0823C48.4217 85.9554 48.8066 85.8465 49.425 86.0642C49.7406 86.1731 50.176 86.4573 50.6429 86.8746C50.7565 86.9713 50.9269 86.9834 51.0468 86.8927C53.8107 84.9212 56.1645 82.466 57.8872 79.7749C62.4559 84.9878 68.1479 86.7536 73.6568 88.465C74.1869 88.6283 74.717 88.7916 75.2407 88.9609L75.3417 88.979" fill="black"/>
<path d="M59.2376 100.253C59.5847 100.253 59.9254 100.174 60.222 100.011C60.3735 99.9261 60.4303 99.7447 60.3419 99.5996C60.2599 99.4544 60.0643 99.4 59.9128 99.4847C59.1619 99.8838 58.3605 99.4484 58.1333 99.3033C57.4391 98.8678 56.9343 98.1724 56.7134 97.35C56.6693 97.1867 56.4989 97.0899 56.3285 97.1322C56.1581 97.1746 56.0572 97.3379 56.1013 97.5011C56.3601 98.4687 56.9596 99.2912 57.7862 99.8112C58.2532 100.108 58.758 100.259 59.2376 100.259V100.253Z" fill="black"/>
<path d="M57.3887 89.754C57.5023 89.4274 57.881 89.252 58.2406 89.3609C58.6003 89.4758 58.8023 89.8326 58.695 90.1591C58.5814 90.4857 58.2028 90.6611 57.8368 90.5522C57.4771 90.4373 57.2752 90.0805 57.3824 89.754H57.3887Z" fill="black"/>
<path d="M67.6927 92.1414C67.8063 91.8149 68.185 91.6395 68.551 91.7483C68.9106 91.8632 69.1126 92.22 69.0053 92.5466C68.8917 92.8731 68.5131 93.0485 68.1471 92.9397C67.7874 92.8248 67.5855 92.468 67.6927 92.1414Z" fill="black"/>
<path d="M62.1719 95.5638H62.2287L63.2068 95.3884C63.3267 95.3703 63.5855 95.3219 63.718 95.1102C63.882 94.8502 63.7432 94.5781 63.6738 94.445C63.169 93.4593 63.1627 92.2982 63.6612 91.3367C63.7369 91.1855 63.6738 91.0041 63.516 90.9315C63.3583 90.8589 63.169 90.9194 63.0932 91.0706C62.5127 92.1954 62.5127 93.5621 63.1059 94.7172L63.1374 94.7897H63.0869L62.1088 94.9651C61.9384 94.9953 61.8249 95.1526 61.8501 95.3158C61.8754 95.461 62.0142 95.5638 62.1593 95.5638H62.1719Z" fill="black"/>
<path d="M57.0474 86.4461C57.3755 86.4461 57.71 86.4945 58.0381 86.5973C59.8997 87.1778 60.8652 89.2702 60.19 91.2598C59.8618 92.2334 59.1992 93.0317 58.3221 93.5155C57.4576 93.9932 56.4858 94.1021 55.5897 93.8239C54.6936 93.5457 53.9742 92.9107 53.5704 92.0339C53.1602 91.151 53.1097 90.1289 53.4379 89.1553C53.9932 87.5104 55.4951 86.44 57.0474 86.44V86.4461ZM56.5804 94.5859C57.2809 94.5859 57.9813 94.4045 58.6313 94.0416C59.641 93.4852 60.4108 92.56 60.7831 91.4473C61.5656 89.1372 60.4171 86.7001 58.2274 86.0167C56.0314 85.3334 53.6146 86.6577 52.8321 88.9739C52.4535 90.0866 52.5102 91.2659 52.9835 92.2879C53.4631 93.322 54.3213 94.0718 55.3878 94.4045C55.779 94.5254 56.1766 94.5859 56.5804 94.5859Z" fill="black"/>
<path d="M68.179 88.9542C68.5072 88.9542 68.8416 89.0026 69.1697 89.1054C70.0658 89.3836 70.7852 90.0186 71.1891 90.8955C71.5992 91.7784 71.6497 92.8004 71.3216 93.774C70.6464 95.7697 68.5829 96.9187 66.7213 96.3381C64.8597 95.7576 63.8943 93.6652 64.5695 91.6756C65.1248 90.0307 66.6267 88.9603 68.179 88.9603M67.7057 97.1001C69.5294 97.1001 71.2774 95.8664 71.9211 93.9675C72.2997 92.8548 72.2429 91.6756 71.7696 90.6536C71.29 89.6195 70.4318 88.8696 69.3653 88.537C67.1693 87.8536 64.7525 89.178 63.9637 91.4942C63.1812 93.8043 64.3297 96.2414 66.5194 96.9247C66.9106 97.0457 67.3082 97.1061 67.6994 97.1061" fill="black"/>
<path d="M64.4872 91.1928C64.6323 91.1928 64.7649 91.0961 64.7964 90.9509C64.9352 90.3159 64.3862 89.7596 63.7741 89.4874C62.8086 89.0581 61.6097 89.1065 60.7199 89.6084C60.5685 89.6931 60.518 89.8805 60.6063 90.0257C60.6947 90.1708 60.8903 90.2192 61.0417 90.1345C61.7611 89.7293 62.7266 89.6931 63.5091 90.0438C63.8751 90.2071 64.2348 90.5397 64.1717 90.836C64.1338 90.9993 64.2474 91.1626 64.4178 91.1928H64.4809H64.4872Z" fill="black"/>
<path d="M54.3913 87.4918C54.5428 87.4918 54.6816 87.3829 54.7068 87.2378C54.7321 87.0745 54.6185 86.9173 54.4418 86.8871L51.2992 86.4033C51.1225 86.3791 50.9648 86.4879 50.9332 86.6572C50.9017 86.8205 51.0216 86.9778 51.1983 87.008L54.3408 87.4918H54.3913Z" fill="black"/>
<path d="M54.2837 72.4157C54.3531 72.4157 54.4288 72.3915 54.4856 72.3491C55.1482 71.823 56.0127 71.4602 57.0476 71.2606C58.0068 71.0731 59.0101 71.055 59.9567 71.061C60.1397 71.061 60.2722 70.928 60.2722 70.7587C60.2722 70.5893 60.1334 70.4563 59.9567 70.4563C58.9849 70.4563 57.9374 70.4744 56.9214 70.668C55.7855 70.8857 54.8264 71.2969 54.0817 71.8835C53.9492 71.9923 53.9303 72.1798 54.0376 72.3128C54.1007 72.3854 54.189 72.4217 54.2837 72.4217" fill="black"/>
<path d="M50.2135 89.1006C50.365 89.1006 50.4975 88.9978 50.5227 88.8527C50.6616 88.0847 50.9771 87.3408 51.4251 86.6938C51.5198 86.5547 51.4819 86.3672 51.3368 86.2705C51.1917 86.1797 50.996 86.216 50.8951 86.3551C50.3965 87.0687 50.0558 87.8972 49.898 88.7438C49.8665 88.9071 49.98 89.0644 50.1567 89.0946H50.2135V89.1006Z" fill="black"/>
<path d="M54.0819 74.0978C54.4669 73.8862 54.8644 73.6987 55.2557 73.5475C57.4201 72.6948 59.4836 72.2655 61.4335 72.2655C62.3044 72.2655 63.1436 72.3501 63.964 72.5195C64.0902 72.5436 64.2164 72.5739 64.3426 72.6041C64.6013 72.3138 64.595 71.8301 64.2858 71.5579C64.1154 71.4007 63.8756 71.3644 63.6548 71.2979C63.3014 71.2132 62.9354 71.1407 62.5757 71.0983C61.9762 71.0016 61.3767 70.9592 60.7772 70.9592C60.5816 70.9592 60.3797 70.9592 60.1841 70.9713C60.1273 71.0197 60.0515 71.0499 59.9632 71.0499C59.8938 71.0499 59.8244 71.0499 59.755 71.0499C59.5657 71.0499 59.3764 71.0499 59.187 71.0499C58.1711 71.1769 57.1677 71.4128 56.2022 71.7333C55.6659 71.9208 55.1547 72.1627 54.6373 72.3864C54.3344 72.5376 53.962 72.6525 53.7664 72.9307C53.4257 73.3661 53.6718 73.8862 54.0883 74.0857" fill="#96B9D7"/>
<path d="M54.4354 74.176C54.5742 74.176 54.7194 74.1397 54.8645 74.055C55.994 73.3838 58.1396 72.7065 59.5278 72.5976C60.1021 72.5371 60.4933 72.5129 60.8404 72.5129C61.2948 72.5129 61.6797 72.5613 62.3423 72.646C62.6767 72.6823 63.0049 72.7307 63.333 72.7972C63.4718 72.8335 63.617 72.8637 63.7558 72.8637C63.8946 72.8637 64.0398 72.8335 64.166 72.7548C64.2354 72.7186 64.2922 72.6702 64.3427 72.6158C64.2164 72.5855 64.0902 72.5553 63.964 72.5311C63.1437 72.3618 62.3044 72.2771 61.4336 72.2771C59.4837 72.2771 57.4202 72.7065 55.2557 73.5591C54.8645 73.7164 54.4732 73.8978 54.082 74.1095C54.1893 74.1639 54.3092 74.1881 54.4354 74.1881" fill="black"/>
<path d="M59.1869 71.0608C59.3762 71.0608 59.5655 71.0608 59.7549 71.0608C59.8243 71.0608 59.8937 71.0608 59.9631 71.0608C60.0514 71.0608 60.1272 71.0306 60.184 70.9822C59.8558 71.0003 59.5214 71.0245 59.1932 71.0668" fill="black"/>
<path d="M71.1326 88.6167C71.221 88.3264 71.3156 88.0422 71.4103 87.758C66.6207 86.2159 61.8311 84.2807 57.8809 79.7754C57.8051 79.8903 57.7294 80.0112 57.6537 80.1261C58.7706 81.5775 59.9317 83.0349 61.4778 84.0932C62.4054 84.7645 63.3898 85.3753 64.3995 85.9316C65.2198 86.3489 66.0717 86.6997 66.9236 87.0625C68.2172 87.5886 69.5045 88.1389 70.855 88.532C70.9496 88.5623 71.0443 88.5864 71.1389 88.6167" fill="#DEDEDE"/>
<path d="M72.3509 88.0543C72.3067 87.8366 72.13 87.6552 71.9091 87.5947C71.8334 87.5645 71.4169 87.4436 71.3223 87.4254C70.6786 87.238 70.0287 87.0807 69.3976 86.8509C68.205 86.3913 66.9808 85.9982 65.8512 85.4177C64.444 84.7827 63.2702 84.0691 61.7936 83.0471C60.5 82.1098 59.6481 81.1603 58.5816 79.7573C58.3923 79.5396 58.2472 79.201 57.9254 79.1526C57.9001 79.1526 57.8812 79.1526 57.856 79.1526C57.49 79.1526 57.2375 79.6001 57.4836 79.8904C57.5468 79.969 57.6036 80.0476 57.6667 80.1262C57.7424 80.0113 57.8181 79.8904 57.8938 79.7755C61.8441 84.2808 66.6337 86.2159 71.4232 87.758C71.6252 87.8245 71.8271 87.885 72.0227 87.9515C72.1363 87.9878 72.2436 88.0241 72.3572 88.0543" fill="black"/>
</svg>
