<svg width="253" height="140" viewBox="0 0 253 140" fill="none" xmlns="http://www.w3.org/2000/svg">
<rect opacity="0.5" x="13" y="3.99976" width="240" height="135.061" rx="18.1207" fill="#B8D4F7"/>
<path d="M203.497 17.7266H11.5199V117.301H203.497V17.7266Z" fill="#F7F8F9"/>
<path d="M203.374 117.782H11.516C11.1578 117.782 10.9191 117.589 10.9191 117.301V17.7266C10.9191 17.438 11.1578 17.2456 11.516 17.2456H203.374C203.732 17.2456 203.971 17.438 203.971 17.7266V117.301C203.971 117.493 203.732 117.782 203.374 117.782ZM12.113 116.82H202.896V18.2077H12.113V116.82Z" fill="#636464"/>
<path d="M203.497 17.7266H11.5199V28.4055H203.497V17.7266Z" fill="#F7F8F9"/>
<path d="M203.374 28.7904H11.516C11.1578 28.7904 10.9191 28.598 10.9191 28.3094V17.7266C10.9191 17.438 11.1578 17.2456 11.516 17.2456H203.374C203.732 17.2456 203.971 17.438 203.971 17.7266V28.4056C203.971 28.598 203.732 28.7904 203.374 28.7904ZM12.113 27.9246H202.896V18.2077H12.113V27.9246Z" fill="#636464"/>
<g opacity="0.1294">
<path d="M201.708 28.311C201.469 28.311 201.23 28.311 200.872 28.311C200.753 28.311 200.753 28.311 200.753 28.311H200.633C198.007 28.0224 195.38 28.1186 192.753 28.1186C189.53 28.1186 186.426 28.0224 183.202 28.1186C179.74 28.1186 176.397 28.311 172.935 28.311C170.07 28.311 167.204 28.311 164.339 28.4072C159.086 28.5996 153.713 28.311 148.46 28.311C143.804 28.2148 139.148 28.4072 134.492 28.5034C126.851 28.5034 119.329 28.311 111.688 28.5034C107.987 28.5996 104.167 28.792 100.466 28.792C97.123 28.792 93.7802 28.6958 90.4373 28.6958C85.9005 28.6958 81.3637 28.8882 76.7076 28.792C72.5289 28.5996 68.4697 28.8882 64.2911 28.8882C63.0972 28.8882 61.7839 28.9844 60.5901 28.9844C60.1125 28.5034 59.2768 28.4072 58.5604 28.4072C57.4859 28.4072 56.5308 28.4072 55.4563 28.5034C52.4716 28.5996 49.4868 28.5996 46.5021 28.5034C43.5174 28.5034 40.5327 28.311 37.4286 28.311C34.5633 28.311 31.8174 28.4072 28.952 28.311C28.5939 28.1186 27.9969 28.0224 27.5193 28.1186C26.5642 28.311 26.0867 29.0806 26.3254 29.8503C26.3254 29.9465 26.3254 29.9465 26.3254 30.0427C26.4448 30.4275 26.4448 30.8124 26.4448 31.2934C25.0121 31.2934 23.5795 31.2934 22.1468 31.3896C19.9978 31.3896 17.8488 31.3896 15.6998 31.3896C14.5059 31.3896 13.0733 31.1972 11.9988 31.4858C10.3273 31.9668 10.9243 34.0834 12.5957 33.9872C16.5356 33.891 20.356 34.0834 24.2958 33.891C25.3703 33.891 26.5642 33.7948 27.6387 33.6986C27.6387 33.6986 27.6387 33.6986 27.7581 33.6986C29.0714 33.6986 29.549 32.9289 29.549 31.9668V31.8706C29.549 31.8706 29.549 31.8706 29.549 31.9668V31.8706C29.549 31.7744 29.549 31.7744 29.549 31.6782C29.549 31.3896 29.6683 31.1972 29.6683 30.9086C33.4888 31.101 37.3092 31.0048 41.0103 31.0048C45.547 31.101 50.0838 31.1972 54.6206 31.101C55.0982 31.101 55.5757 31.101 56.0532 31.101C56.292 31.1972 56.4114 31.1972 56.7696 31.1972C61.4258 31.1972 65.9625 31.1972 70.6187 31.101C73.3646 31.0048 76.2299 31.1972 78.9759 31.1972C83.7514 31.1972 88.6464 31.101 93.422 31.101C97.2424 31.101 100.943 31.1972 104.764 31.101C115.986 30.7161 127.209 31.1972 138.432 31.101C141.416 31.101 144.401 31.0048 147.386 31.101C152.042 31.2934 158.728 31.4858 164.697 31.3896C174.606 31.4858 184.396 31.101 194.306 31.2934C197.887 31.2934 201.469 31.3896 202.782 31.0048C204.812 30.1389 203.737 27.8299 201.708 28.311Z" fill="#23274D"/>
</g>
<g opacity="0.1294">
<path d="M26.3142 53.9014C26.1948 53.9014 25.956 53.9014 25.8366 53.8052C25.2397 53.8052 25.5979 53.9014 24.7622 53.9014C22.852 53.9014 20.9417 53.9976 19.0314 53.9976C17.36 53.9976 15.808 53.9014 14.1365 53.9014C13.5396 53.9014 12.7039 53.709 12.2263 54.19C11.51 54.7672 12.1069 55.8255 13.062 55.7293C15.3304 55.7293 17.5988 55.8255 19.8672 55.8255C21.658 55.8255 25.956 55.8255 25.4785 55.9217C25.7173 56.0179 26.0754 56.0179 26.3142 55.9217H26.4336C26.4336 55.9217 26.4336 55.9217 26.553 55.9217H26.6724C26.6724 55.9217 26.6723 55.9217 26.7917 55.9217C26.7917 55.9217 26.7918 55.9217 26.9112 55.9217C27.7469 55.3445 27.3887 53.9976 26.3142 53.9014Z" fill="#23274D"/>
</g>
<path d="M157.649 117.226V99.4556H171.79V117.226H157.649Z" fill="#ACD4F7"/>
<path d="M158.333 116.568H171.09V100.127H158.333V116.568ZM171.789 117.897H157.648C157.264 117.897 156.962 117.595 156.962 117.239V99.4684C156.962 99.0998 157.264 98.8102 157.648 98.8102H171.789C172.173 98.8102 172.474 99.1129 172.474 99.4684V117.239C172.474 117.608 172.173 117.897 171.789 117.897Z" fill="black"/>
<path d="M185.616 117.884H143.726C143.342 117.884 143.04 117.581 143.04 117.226C143.04 116.87 143.342 116.567 143.726 116.567H185.616C186 116.567 186.301 116.87 186.301 117.226C186.301 117.581 185.986 117.884 185.616 117.884Z" fill="black"/>
<path d="M115.36 100.311V34.7168H213.996V100.311H115.36Z" fill="#F7F8F9"/>
<path d="M166.861 81.6584C158.977 81.6584 152.58 75.5137 152.58 67.9402C152.58 60.3667 158.977 54.222 166.861 54.222C174.745 54.222 181.142 60.3667 181.142 67.9402C181.142 75.5137 174.745 81.6584 166.861 81.6584ZM166.861 81.6584C158.977 81.6584 152.58 75.5137 152.58 67.9402C152.58 60.3667 158.977 54.222 166.861 54.222C174.745 54.222 181.142 60.3667 181.142 67.9402C181.142 75.5137 174.745 81.6584 166.861 81.6584ZM166.861 49.8695C156.475 49.8695 148.058 57.9551 148.058 67.9319C148.058 77.9088 156.475 85.9944 166.861 85.9944C177.247 85.9944 185.664 77.9088 185.664 67.9319C185.664 57.9551 177.247 49.8695 166.861 49.8695Z" fill="white"/>
<path d="M153.011 67.9399C153.011 75.2739 159.227 81.2452 166.861 81.2452C174.496 81.2452 180.712 75.2739 180.712 67.9399C180.712 60.606 174.496 54.6347 166.861 54.6347C159.227 54.6347 153.011 60.606 153.011 67.9399ZM166.861 82.0793C158.745 82.0793 152.151 75.7364 152.151 67.9399C152.151 60.1434 158.754 53.8088 166.861 53.8088C174.969 53.8088 181.572 60.1517 181.572 67.9399C181.572 75.7282 174.969 82.0793 166.861 82.0793ZM166.861 50.2905C156.733 50.2905 148.488 58.2108 148.488 67.9399C148.488 77.669 156.733 85.5894 166.861 85.5894C176.989 85.5894 185.234 77.669 185.234 67.9399C185.234 58.2108 176.989 50.2905 166.861 50.2905ZM166.861 86.4236C156.252 86.4236 147.62 78.1315 147.62 67.9399C147.62 57.7483 156.252 49.4563 166.861 49.4563C177.471 49.4563 186.103 57.7483 186.103 67.9399C186.103 78.1315 177.471 86.4236 166.861 86.4236Z" fill="black"/>
<path d="M166.861 81.246C159.226 81.246 153.01 75.2747 153.01 67.9408C153.01 67.3131 153.053 66.6854 153.147 66.0742C153.285 66.5367 153.44 66.991 153.612 67.4452C153.612 68.172 153.698 68.4693 153.964 69.32C154.145 69.9394 154.325 70.5589 154.557 71.1618C154.79 71.7482 155.176 73.0448 156.303 74.5232C157.352 75.7372 158.891 77.0422 159.578 77.5047C161.203 78.5536 161.96 78.9665 163.516 79.3134C164.522 79.5529 165.408 79.6438 166.207 79.6438C167.17 79.6438 168.004 79.5199 168.769 79.3795C171.744 78.8509 173.506 78.2562 175.862 76.621C175.94 76.5714 176.026 76.5466 176.103 76.5301C176.567 76.1915 177.014 75.8364 177.487 75.4317C178.029 74.9361 179 73.8872 179.069 73.7633C179.344 73.4495 179.533 73.0531 179.783 72.7145C177.779 77.6946 172.741 81.2377 166.852 81.2377M155.331 76.7201C155.331 76.7201 155.28 76.6705 155.262 76.6457C154.222 75.5225 153.638 74.391 153.233 73.2926C153.766 74.5314 154.471 75.6877 155.331 76.7201ZM178.553 76.4971C179.155 75.7373 179.679 74.9196 180.118 74.0524C180.084 74.1433 180.049 74.2424 180.015 74.3332C179.808 74.7957 179.585 75.25 179.361 75.7042C179.146 75.9437 178.871 76.208 178.562 76.4888" fill="#DEDEDE"/>
<path d="M166.388 81.6917C165.855 81.6917 165.313 81.6504 164.78 81.5596H164.763C163.903 81.4605 163.035 81.3614 162.201 81.1301C160.671 80.6511 159.295 79.8335 157.997 78.9332C157.455 78.5038 156.587 78.0413 155.332 76.7281C154.472 75.6957 153.767 74.5394 153.234 73.3006C153.019 72.7142 152.864 72.1361 152.709 71.5745C152.46 69.7162 152.426 67.8414 152.675 65.9749C152.692 65.9749 152.718 65.9749 152.735 65.9749C152.864 65.9749 153.002 66.0079 153.122 66.0574C153.122 66.0657 153.122 66.074 153.122 66.0822C153.036 66.6934 152.984 67.3128 152.984 67.9488C152.984 75.2827 159.2 81.254 166.835 81.254C172.724 81.254 177.763 77.7109 179.766 72.7307C179.878 72.582 179.998 72.4417 180.144 72.326C180.256 72.26 180.376 72.2352 180.497 72.2352C180.591 72.2352 180.686 72.2517 180.772 72.2847C180.548 72.8794 180.325 73.4823 180.101 74.0769C179.663 74.9441 179.138 75.7618 178.536 76.5216C177.599 77.364 176.327 78.3303 175.072 79.0819C174.814 79.2718 174.624 79.3957 174.074 79.7178C172.724 80.4033 171.237 80.841 169.758 81.1879C169.045 81.3696 168.331 81.5761 167.592 81.6422C167.179 81.6835 166.775 81.7082 166.362 81.7082" fill="black"/>
<path d="M179.483 82.775C179.379 82.7003 179.284 82.609 179.206 82.5094L179.483 82.775Z" fill="#DEDEDE"/>
<path d="M179.035 82.2361C178.872 81.8727 178.897 81.4349 179.216 81.055C179.344 80.8403 179.585 80.7412 179.792 80.6091H179.809C180.84 79.7006 181.012 79.7584 181.64 79.0646L181.692 79.0068C181.984 78.5691 182.362 78.1726 182.887 78.1561C182.792 78.2965 182.689 78.4369 182.594 78.5691C181.735 79.7336 180.746 80.799 179.637 81.7488C179.439 81.914 179.241 82.0792 179.044 82.2361" fill="black"/>
<path d="M162.45 64.7444L160.214 66.7514L166.319 73.2677L173.059 63.8359L170.557 61.9281L165.846 68.304L162.45 64.7444Z" fill="#ACD4F7"/>
<path d="M160.817 66.7763L166.268 72.5907L172.475 63.9105L170.652 62.5147L166.207 68.5355C166.13 68.6346 166.01 68.7007 165.881 68.7089C165.743 68.7089 165.623 68.6676 165.537 68.5768L162.433 65.331L160.825 66.7763H160.817ZM166.311 73.6809C166.19 73.6809 166.07 73.6313 165.992 73.5405L159.897 67.0324C159.742 66.8672 159.751 66.6029 159.923 66.4542L162.158 64.4473C162.244 64.373 162.356 64.3317 162.467 64.3399C162.579 64.3399 162.691 64.3895 162.768 64.4721L165.803 67.6518L170.205 61.6971C170.274 61.6062 170.377 61.5401 170.498 61.5236C170.618 61.5071 170.73 61.5401 170.824 61.6062L173.326 63.514C173.507 63.6462 173.541 63.8939 173.412 64.0756L166.672 73.5074C166.594 73.6148 166.474 73.6809 166.345 73.6891H166.319L166.311 73.6809Z" fill="black"/>
<g filter="url(#filter0_d_13600_78629)">
<rect x="29.062" y="40.1719" width="59.8498" height="63.8397" rx="6.81979" fill="white"/>
<rect x="41.0311" y="68.1" width="35.9099" height="3.98998" rx="1.99499" fill="#D9D9D9"/>
<rect x="33.0516" y="75.4297" width="51.8698" height="0.857352" rx="0.428676" fill="#D9D9D9"/>
<rect x="33.0516" y="78.7499" width="51.8698" height="0.643014" rx="0.321507" fill="#D9D9D9"/>
<rect x="32.5332" y="88.5302" width="49.7056" height="9.1127" rx="1.99499" fill="#6FCF97" fill-opacity="0.3"/>
<path d="M43.8044 93.3156C43.7948 93.2257 43.7543 93.1556 43.6829 93.1055C43.6122 93.0554 43.5202 93.0304 43.407 93.0304C43.3273 93.0304 43.259 93.0424 43.2021 93.0664C43.1451 93.0904 43.1015 93.123 43.0713 93.1642C43.0411 93.2054 43.0257 93.2524 43.025 93.3053C43.025 93.3492 43.0349 93.3873 43.0548 93.4196C43.0754 93.4518 43.1032 93.4793 43.1382 93.5019C43.1732 93.5239 43.212 93.5424 43.2546 93.5575C43.2971 93.5726 43.34 93.5853 43.3833 93.5956L43.581 93.6451C43.6606 93.6636 43.7372 93.6887 43.8106 93.7202C43.8847 93.7518 43.951 93.7916 44.0093 93.8397C44.0684 93.8877 44.115 93.9457 44.1494 94.0137C44.1837 94.0816 44.2008 94.1613 44.2008 94.2526C44.2008 94.3761 44.1693 94.4849 44.1061 94.579C44.043 94.6723 43.9517 94.7454 43.8322 94.7983C43.7135 94.8504 43.5697 94.8765 43.4008 94.8765C43.2367 94.8765 43.0943 94.8511 42.9735 94.8003C42.8534 94.7495 42.7593 94.6754 42.6914 94.5779C42.6241 94.4805 42.5877 94.3617 42.5822 94.2217H42.958C42.9635 94.2951 42.9862 94.3562 43.026 94.4049C43.0658 94.4537 43.1176 94.4901 43.1815 94.5141C43.246 94.5381 43.3181 94.5501 43.3977 94.5501C43.4808 94.5501 43.5535 94.5378 43.616 94.5131C43.6791 94.4877 43.7286 94.4527 43.7643 94.408C43.8 94.3627 43.8181 94.3099 43.8188 94.2495C43.8181 94.1946 43.802 94.1492 43.7704 94.1136C43.7389 94.0772 43.6946 94.047 43.6376 94.0229C43.5813 93.9982 43.5154 93.9763 43.4399 93.957L43.2 93.8953C43.0263 93.8506 42.8891 93.783 42.7882 93.6924C42.6879 93.6011 42.6378 93.48 42.6378 93.329C42.6378 93.2047 42.6715 93.0959 42.7387 93.0026C42.8067 92.9092 42.899 92.8368 43.0157 92.7853C43.1324 92.7331 43.2645 92.7071 43.4121 92.7071C43.5618 92.7071 43.6929 92.7331 43.8055 92.7853C43.9187 92.8368 44.0076 92.9085 44.0721 93.0005C44.1367 93.0918 44.1699 93.1968 44.172 93.3156H43.8044ZM45.3147 93.2631V93.5514H44.4055V93.2631H45.3147ZM44.6299 92.8842H45.0027V94.3689C45.0027 94.419 45.0102 94.4575 45.0253 94.4842C45.0411 94.5103 45.0617 94.5282 45.0871 94.5378C45.1125 94.5474 45.1406 94.5522 45.1715 94.5522C45.1949 94.5522 45.2162 94.5505 45.2354 94.547C45.2553 94.5436 45.2704 94.5405 45.2807 94.5378L45.3435 94.8292C45.3236 94.836 45.2951 94.8436 45.258 94.8518C45.2216 94.86 45.177 94.8649 45.1242 94.8662C45.0308 94.869 44.9467 94.8549 44.8719 94.824C44.7971 94.7924 44.7377 94.7437 44.6938 94.6778C44.6505 94.6119 44.6293 94.5295 44.6299 94.4307V92.8842ZM46.0815 94.8765C45.9813 94.8765 45.891 94.8587 45.8107 94.823C45.7311 94.7866 45.6679 94.7331 45.6212 94.6624C45.5752 94.5917 45.5523 94.5045 45.5523 94.4008C45.5523 94.3116 45.5687 94.2378 45.6017 94.1795C45.6346 94.1211 45.6796 94.0744 45.7366 94.0394C45.7935 94.0044 45.8577 93.978 45.9291 93.9601C46.0012 93.9416 46.0757 93.9282 46.1525 93.92C46.2452 93.9104 46.3204 93.9018 46.378 93.8942C46.4357 93.886 46.4776 93.8736 46.5036 93.8572C46.5304 93.84 46.5438 93.8136 46.5438 93.7779V93.7717C46.5438 93.6941 46.5208 93.6341 46.4748 93.5915C46.4288 93.549 46.3626 93.5277 46.2761 93.5277C46.1848 93.5277 46.1124 93.5476 46.0588 93.5874C46.006 93.6272 45.9703 93.6742 45.9518 93.7285L45.6037 93.679C45.6312 93.5829 45.6765 93.5026 45.7396 93.4381C45.8028 93.3729 45.88 93.3242 45.9713 93.2919C46.0626 93.2589 46.1635 93.2425 46.274 93.2425C46.3502 93.2425 46.4261 93.2514 46.5016 93.2692C46.5771 93.2871 46.6461 93.3166 46.7085 93.3578C46.771 93.3983 46.8211 93.4535 46.8589 93.5236C46.8973 93.5936 46.9165 93.6811 46.9165 93.7861V94.8446H46.5582V94.6273H46.5459C46.5232 94.6713 46.4913 94.7125 46.4501 94.7509C46.4096 94.7887 46.3585 94.8192 46.2967 94.8425C46.2356 94.8652 46.1639 94.8765 46.0815 94.8765ZM46.1783 94.6026C46.2531 94.6026 46.318 94.5879 46.3729 94.5584C46.4278 94.5282 46.47 94.4883 46.4995 94.4389C46.5297 94.3895 46.5448 94.3356 46.5448 94.2773V94.0909C46.5332 94.1005 46.5133 94.1094 46.4851 94.1177C46.4577 94.1259 46.4268 94.1331 46.3924 94.1393C46.3581 94.1455 46.3241 94.151 46.2905 94.1558C46.2569 94.1606 46.2277 94.1647 46.203 94.1681C46.1474 94.1757 46.0976 94.188 46.0537 94.2052C46.0098 94.2224 45.9751 94.2464 45.9497 94.2773C45.9243 94.3075 45.9116 94.3466 45.9116 94.3946C45.9116 94.4633 45.9367 94.5151 45.9868 94.5501C46.0369 94.5851 46.1007 94.6026 46.1783 94.6026ZM47.2913 94.8446V93.2631H47.6527V93.5267H47.6692C47.698 93.4354 47.7475 93.365 47.8175 93.3156C47.8882 93.2655 47.9688 93.2404 48.0595 93.2404C48.08 93.2404 48.103 93.2414 48.1284 93.2435C48.1545 93.2449 48.1761 93.2473 48.1933 93.2507V93.5936C48.1775 93.5881 48.1525 93.5833 48.1181 93.5792C48.0845 93.5744 48.0519 93.572 48.0203 93.572C47.9524 93.572 47.8913 93.5867 47.837 93.6162C47.7835 93.6451 47.7413 93.6852 47.7104 93.7367C47.6795 93.7882 47.6641 93.8476 47.6641 93.9148V94.8446H47.2913ZM49.3156 93.2631V93.5514H48.4064V93.2631H49.3156ZM48.6309 92.8842H49.0036V94.3689C49.0036 94.419 49.0112 94.4575 49.0263 94.4842C49.0421 94.5103 49.0627 94.5282 49.0881 94.5378C49.1135 94.5474 49.1416 94.5522 49.1725 94.5522C49.1958 94.5522 49.2171 94.5505 49.2363 94.547C49.2562 94.5436 49.2713 94.5405 49.2816 94.5378L49.3445 94.8292C49.3245 94.836 49.2961 94.8436 49.259 94.8518C49.2226 94.86 49.178 94.8649 49.1251 94.8662C49.0318 94.869 48.9477 94.8549 48.8729 94.824C48.7981 94.7924 48.7387 94.7437 48.6947 94.6778C48.6515 94.6119 48.6302 94.5295 48.6309 94.4307V92.8842ZM51.0364 94.8755C50.8785 94.8755 50.743 94.8408 50.6297 94.7715C50.5171 94.7022 50.4303 94.6064 50.3692 94.4842C50.3088 94.3614 50.2786 94.2199 50.2786 94.06C50.2786 93.8994 50.3095 93.7576 50.3713 93.6348C50.4331 93.5112 50.5202 93.4151 50.6328 93.3465C50.7461 93.2771 50.8799 93.2425 51.0344 93.2425C51.1627 93.2425 51.2763 93.2662 51.3752 93.3135C51.4747 93.3602 51.554 93.4264 51.613 93.5122C51.6721 93.5974 51.7057 93.6969 51.7139 93.8108H51.3577C51.3433 93.7346 51.3089 93.6711 51.2547 93.6204C51.2012 93.5689 51.1294 93.5431 51.0395 93.5431C50.9633 93.5431 50.8964 93.5637 50.8387 93.6049C50.7811 93.6454 50.7361 93.7038 50.7039 93.7799C50.6723 93.8561 50.6565 93.9474 50.6565 94.0538C50.6565 94.1616 50.6723 94.2543 50.7039 94.3318C50.7354 94.4087 50.7797 94.4681 50.8367 94.51C50.8943 94.5512 50.9619 94.5717 51.0395 94.5717C51.0944 94.5717 51.1435 94.5615 51.1868 94.5409C51.2307 94.5196 51.2674 94.489 51.2969 94.4492C51.3264 94.4094 51.3467 94.361 51.3577 94.304H51.7139C51.705 94.4159 51.6721 94.5151 51.6151 94.6016C51.5581 94.6874 51.4805 94.7547 51.3824 94.8034C51.2842 94.8515 51.1689 94.8755 51.0364 94.8755ZM52.7099 94.8755C52.5554 94.8755 52.4216 94.8415 52.3083 94.7736C52.195 94.7056 52.1072 94.6105 52.0447 94.4883C51.9829 94.3662 51.952 94.2234 51.952 94.06C51.952 93.8966 51.9829 93.7535 52.0447 93.6306C52.1072 93.5078 52.195 93.4124 52.3083 93.3444C52.4216 93.2764 52.5554 93.2425 52.7099 93.2425C52.8643 93.2425 52.9982 93.2764 53.1114 93.3444C53.2247 93.4124 53.3122 93.5078 53.374 93.6306C53.4365 93.7535 53.4677 93.8966 53.4677 94.06C53.4677 94.2234 53.4365 94.3662 53.374 94.4883C53.3122 94.6105 53.2247 94.7056 53.1114 94.7736C52.9982 94.8415 52.8643 94.8755 52.7099 94.8755ZM52.7119 94.5769C52.7957 94.5769 52.8657 94.5539 52.922 94.5079C52.9783 94.4612 53.0201 94.3988 53.0476 94.3205C53.0757 94.2423 53.0898 94.1551 53.0898 94.059C53.0898 93.9622 53.0757 93.8747 53.0476 93.7964C53.0201 93.7175 52.9783 93.6547 52.922 93.608C52.8657 93.5613 52.7957 93.538 52.7119 93.538C52.6261 93.538 52.5547 93.5613 52.4978 93.608C52.4415 93.6547 52.3993 93.7175 52.3711 93.7964C52.3437 93.8747 52.3299 93.9622 52.3299 94.059C52.3299 94.1551 52.3437 94.2423 52.3711 94.3205C52.3993 94.3988 52.4415 94.4612 52.4978 94.5079C52.5547 94.5539 52.6261 94.5769 52.7119 94.5769ZM54.1568 93.9179V94.8446H53.784V93.2631H54.1403V93.5318H54.1588C54.1952 93.4433 54.2532 93.3729 54.3329 93.3207C54.4132 93.2686 54.5124 93.2425 54.6304 93.2425C54.7396 93.2425 54.8346 93.2658 54.9156 93.3125C54.9973 93.3592 55.0605 93.4268 55.1051 93.5153C55.1504 93.6039 55.1727 93.7113 55.172 93.8376V94.8446H54.7993V93.8953C54.7993 93.7896 54.7718 93.7068 54.7169 93.6471C54.6627 93.5874 54.5875 93.5575 54.4914 93.5575C54.4262 93.5575 54.3682 93.572 54.3174 93.6008C54.2673 93.6289 54.2278 93.6698 54.199 93.7233C54.1709 93.7769 54.1568 93.8417 54.1568 93.9179ZM56.3407 93.2631V93.5514H55.4315V93.2631H56.3407ZM55.656 92.8842H56.0287V94.3689C56.0287 94.419 56.0362 94.4575 56.0513 94.4842C56.0671 94.5103 56.0877 94.5282 56.1131 94.5378C56.1385 94.5474 56.1667 94.5522 56.1975 94.5522C56.2209 94.5522 56.2422 94.5505 56.2614 94.547C56.2813 94.5436 56.2964 94.5405 56.3067 94.5378L56.3695 94.8292C56.3496 94.836 56.3211 94.8436 56.284 94.8518C56.2477 94.86 56.203 94.8649 56.1502 94.8662C56.0568 94.869 55.9727 94.8549 55.8979 94.824C55.8231 94.7924 55.7637 94.7437 55.7198 94.6778C55.6765 94.6119 55.6553 94.5295 55.656 94.4307V92.8842ZM56.6524 94.8446V93.2631H57.0138V93.5267H57.0303C57.0591 93.4354 57.1085 93.365 57.1785 93.3156C57.2493 93.2655 57.3299 93.2404 57.4205 93.2404C57.4411 93.2404 57.4641 93.2414 57.4895 93.2435C57.5156 93.2449 57.5372 93.2473 57.5544 93.2507V93.5936C57.5386 93.5881 57.5135 93.5833 57.4792 93.5792C57.4456 93.5744 57.413 93.572 57.3814 93.572C57.3134 93.572 57.2523 93.5867 57.1981 93.6162C57.1446 93.6451 57.1024 93.6852 57.0715 93.7367C57.0406 93.7882 57.0251 93.8476 57.0251 93.9148V94.8446H56.6524ZM58.2288 94.8765C58.1286 94.8765 58.0383 94.8587 57.958 94.823C57.8784 94.7866 57.8152 94.7331 57.7685 94.6624C57.7225 94.5917 57.6996 94.5045 57.6996 94.4008C57.6996 94.3116 57.716 94.2378 57.749 94.1795C57.7819 94.1211 57.8269 94.0744 57.8839 94.0394C57.9408 94.0044 58.005 93.978 58.0764 93.9601C58.1485 93.9416 58.223 93.9282 58.2998 93.92C58.3925 93.9104 58.4677 93.9018 58.5253 93.8942C58.583 93.886 58.6249 93.8736 58.6509 93.8572C58.6777 93.84 58.6911 93.8136 58.6911 93.7779V93.7717C58.6911 93.6941 58.6681 93.6341 58.6221 93.5915C58.5761 93.549 58.5099 93.5277 58.4234 93.5277C58.3321 93.5277 58.2597 93.5476 58.2061 93.5874C58.1533 93.6272 58.1176 93.6742 58.0991 93.7285L57.751 93.679C57.7785 93.5829 57.8238 93.5026 57.8869 93.4381C57.9501 93.3729 58.0273 93.3242 58.1186 93.2919C58.2099 93.2589 58.3108 93.2425 58.4213 93.2425C58.4975 93.2425 58.5734 93.2514 58.6489 93.2692C58.7244 93.2871 58.7934 93.3166 58.8558 93.3578C58.9183 93.3983 58.9684 93.4535 59.0062 93.5236C59.0446 93.5936 59.0638 93.6811 59.0638 93.7861V94.8446H58.7055V94.6273H58.6932C58.6705 94.6713 58.6386 94.7125 58.5974 94.7509C58.5569 94.7887 58.5058 94.8192 58.444 94.8425C58.3829 94.8652 58.3112 94.8765 58.2288 94.8765ZM58.3256 94.6026C58.4004 94.6026 58.4653 94.5879 58.5202 94.5584C58.5751 94.5282 58.6173 94.4883 58.6468 94.4389C58.677 94.3895 58.6921 94.3356 58.6921 94.2773V94.0909C58.6805 94.1005 58.6606 94.1094 58.6324 94.1177C58.605 94.1259 58.5741 94.1331 58.5397 94.1393C58.5054 94.1455 58.4714 94.151 58.4378 94.1558C58.4042 94.1606 58.375 94.1647 58.3503 94.1681C58.2947 94.1757 58.2449 94.188 58.201 94.2052C58.1571 94.2224 58.1224 94.2464 58.097 94.2773C58.0716 94.3075 58.0589 94.3466 58.0589 94.3946C58.0589 94.4633 58.084 94.5151 58.1341 94.5501C58.1842 94.5851 58.248 94.6026 58.3256 94.6026ZM60.1285 94.8755C59.9706 94.8755 59.835 94.8408 59.7218 94.7715C59.6092 94.7022 59.5224 94.6064 59.4613 94.4842C59.4009 94.3614 59.3707 94.2199 59.3707 94.06C59.3707 93.8994 59.4016 93.7576 59.4633 93.6348C59.5251 93.5112 59.6123 93.4151 59.7249 93.3465C59.8381 93.2771 59.972 93.2425 60.1264 93.2425C60.2548 93.2425 60.3684 93.2662 60.4673 93.3135C60.5668 93.3602 60.6461 93.4264 60.7051 93.5122C60.7641 93.5974 60.7978 93.6969 60.806 93.8108H60.4497C60.4353 93.7346 60.401 93.6711 60.3468 93.6204C60.2932 93.5689 60.2215 93.5431 60.1316 93.5431C60.0554 93.5431 59.9885 93.5637 59.9308 93.6049C59.8731 93.6454 59.8282 93.7038 59.7959 93.7799C59.7643 93.8561 59.7486 93.9474 59.7486 94.0538C59.7486 94.1616 59.7643 94.2543 59.7959 94.3318C59.8275 94.4087 59.8718 94.4681 59.9287 94.51C59.9864 94.5512 60.054 94.5717 60.1316 94.5717C60.1865 94.5717 60.2356 94.5615 60.2788 94.5409C60.3228 94.5196 60.3595 94.489 60.389 94.4492C60.4185 94.4094 60.4388 94.361 60.4497 94.304H60.806C60.7971 94.4159 60.7641 94.5151 60.7072 94.6016C60.6502 94.6874 60.5726 94.7547 60.4745 94.8034C60.3763 94.8515 60.261 94.8755 60.1285 94.8755ZM61.9018 93.2631V93.5514H60.9926V93.2631H61.9018ZM61.2171 92.8842H61.5898V94.3689C61.5898 94.419 61.5974 94.4575 61.6125 94.4842C61.6283 94.5103 61.6489 94.5282 61.6743 94.5378C61.6997 94.5474 61.7278 94.5522 61.7587 94.5522C61.782 94.5522 61.8033 94.5505 61.8225 94.547C61.8424 94.5436 61.8575 94.5405 61.8678 94.5378L61.9306 94.8292C61.9107 94.836 61.8822 94.8436 61.8452 94.8518C61.8088 94.86 61.7642 94.8649 61.7113 94.8662C61.618 94.869 61.5339 94.8549 61.4591 94.824C61.3842 94.7924 61.3249 94.7437 61.2809 94.6778C61.2377 94.6119 61.2164 94.5295 61.2171 94.4307V92.8842ZM62.9327 95.4377V93.2631H63.2993V93.5246H63.3209C63.3401 93.4862 63.3673 93.4453 63.4023 93.4021C63.4373 93.3581 63.4846 93.3207 63.5444 93.2898C63.6041 93.2583 63.6803 93.2425 63.7729 93.2425C63.8951 93.2425 64.0053 93.2737 64.1035 93.3362C64.2023 93.3979 64.2806 93.4896 64.3382 93.6111C64.3966 93.7319 64.4257 93.8802 64.4257 94.0559C64.4257 94.2296 64.3973 94.3771 64.3403 94.4986C64.2833 94.6201 64.2057 94.7128 64.1076 94.7766C64.0094 94.8405 63.8982 94.8724 63.774 94.8724C63.6834 94.8724 63.6082 94.8573 63.5485 94.8271C63.4888 94.7969 63.4407 94.7605 63.4043 94.718C63.3686 94.6747 63.3408 94.6339 63.3209 94.5954H63.3055V95.4377H62.9327ZM63.2983 94.0538C63.2983 94.1561 63.3127 94.2457 63.3415 94.3226C63.371 94.3995 63.4133 94.4595 63.4682 94.5028C63.5238 94.5453 63.591 94.5666 63.67 94.5666C63.7524 94.5666 63.8213 94.5446 63.8769 94.5007C63.9325 94.4561 63.9744 94.3953 64.0026 94.3185C64.0314 94.2409 64.0458 94.1527 64.0458 94.0538C64.0458 93.9557 64.0317 93.8685 64.0036 93.7923C63.9754 93.7161 63.9336 93.6564 63.878 93.6131C63.8224 93.5699 63.753 93.5483 63.67 93.5483C63.5904 93.5483 63.5227 93.5692 63.4671 93.6111C63.4115 93.653 63.3693 93.7116 63.3405 93.7872C63.3123 93.8627 63.2983 93.9516 63.2983 94.0538ZM64.7449 94.8446V93.2631H65.1063V93.5267H65.1228C65.1516 93.4354 65.2011 93.365 65.2711 93.3156C65.3418 93.2655 65.4224 93.2404 65.5131 93.2404C65.5336 93.2404 65.5566 93.2414 65.582 93.2435C65.6081 93.2449 65.6297 93.2473 65.6469 93.2507V93.5936C65.6311 93.5881 65.6061 93.5833 65.5717 93.5792C65.5381 93.5744 65.5055 93.572 65.4739 93.572C65.406 93.572 65.3449 93.5867 65.2906 93.6162C65.2371 93.6451 65.1949 93.6852 65.164 93.7367C65.1331 93.7882 65.1177 93.8476 65.1177 93.9148V94.8446H64.7449ZM66.5193 94.8755C66.3648 94.8755 66.231 94.8415 66.1177 94.7736C66.0045 94.7056 65.9166 94.6105 65.8541 94.4883C65.7923 94.3662 65.7615 94.2234 65.7615 94.06C65.7615 93.8966 65.7923 93.7535 65.8541 93.6306C65.9166 93.5078 66.0045 93.4124 66.1177 93.3444C66.231 93.2764 66.3648 93.2425 66.5193 93.2425C66.6737 93.2425 66.8076 93.2764 66.9208 93.3444C67.0341 93.4124 67.1216 93.5078 67.1834 93.6306C67.2459 93.7535 67.2771 93.8966 67.2771 94.06C67.2771 94.2234 67.2459 94.3662 67.1834 94.4883C67.1216 94.6105 67.0341 94.7056 66.9208 94.7736C66.8076 94.8415 66.6737 94.8755 66.5193 94.8755ZM66.5213 94.5769C66.6051 94.5769 66.6751 94.5539 66.7314 94.5079C66.7877 94.4612 66.8295 94.3988 66.857 94.3205C66.8851 94.2423 66.8992 94.1551 66.8992 94.059C66.8992 93.9622 66.8851 93.8747 66.857 93.7964C66.8295 93.7175 66.7877 93.6547 66.7314 93.608C66.6751 93.5613 66.6051 93.538 66.5213 93.538C66.4355 93.538 66.3641 93.5613 66.3072 93.608C66.2509 93.6547 66.2087 93.7175 66.1805 93.7964C66.1531 93.8747 66.1393 93.9622 66.1393 94.059C66.1393 94.1551 66.1531 94.2423 66.1805 94.3205C66.2087 94.3988 66.2509 94.4612 66.3072 94.5079C66.3641 94.5539 66.4355 94.5769 66.5213 94.5769ZM68.2833 94.8755C68.1254 94.8755 67.9899 94.8408 67.8766 94.7715C67.764 94.7022 67.6772 94.6064 67.6161 94.4842C67.5557 94.3614 67.5255 94.2199 67.5255 94.06C67.5255 93.8994 67.5564 93.7576 67.6182 93.6348C67.68 93.5112 67.7671 93.4151 67.8797 93.3465C67.993 93.2771 68.1268 93.2425 68.2813 93.2425C68.4096 93.2425 68.5232 93.2662 68.6221 93.3135C68.7216 93.3602 68.8009 93.4264 68.8599 93.5122C68.919 93.5974 68.9526 93.6969 68.9608 93.8108H68.6046C68.5902 93.7346 68.5558 93.6711 68.5016 93.6204C68.4481 93.5689 68.3763 93.5431 68.2864 93.5431C68.2102 93.5431 68.1433 93.5637 68.0856 93.6049C68.028 93.6454 67.983 93.7038 67.9508 93.7799C67.9192 93.8561 67.9034 93.9474 67.9034 94.0538C67.9034 94.1616 67.9192 94.2543 67.9508 94.3318C67.9823 94.4087 68.0266 94.4681 68.0836 94.51C68.1412 94.5512 68.2088 94.5717 68.2864 94.5717C68.3413 94.5717 68.3904 94.5615 68.4337 94.5409C68.4776 94.5196 68.5143 94.489 68.5438 94.4492C68.5733 94.4094 68.5936 94.361 68.6046 94.304H68.9608C68.9519 94.4159 68.919 94.5151 68.862 94.6016C68.805 94.6874 68.7275 94.7547 68.6293 94.8034C68.5311 94.8515 68.4158 94.8755 68.2833 94.8755ZM69.9671 94.8755C69.8085 94.8755 69.6716 94.8425 69.5562 94.7766C69.4416 94.7101 69.3534 94.616 69.2916 94.4945C69.2298 94.3723 69.1989 94.2285 69.1989 94.0631C69.1989 93.9004 69.2298 93.7576 69.2916 93.6348C69.3541 93.5112 69.4413 93.4151 69.5531 93.3465C69.665 93.2771 69.7965 93.2425 69.9475 93.2425C70.045 93.2425 70.137 93.2583 70.2234 93.2898C70.3106 93.3207 70.3875 93.3688 70.4541 93.434C70.5214 93.4992 70.5742 93.5823 70.6127 93.6832C70.6511 93.7834 70.6703 93.9028 70.6703 94.0415V94.1558H69.374V93.9045H70.313C70.3123 93.8331 70.2969 93.7696 70.2667 93.714C70.2365 93.6578 70.1943 93.6135 70.14 93.5812C70.0865 93.549 70.024 93.5328 69.9526 93.5328C69.8765 93.5328 69.8095 93.5514 69.7519 93.5884C69.6942 93.6248 69.6492 93.6729 69.617 93.7326C69.5854 93.7916 69.5693 93.8565 69.5686 93.9272V94.1465C69.5686 94.2385 69.5854 94.3174 69.619 94.3833C69.6527 94.4485 69.6997 94.4986 69.7601 94.5337C69.8205 94.568 69.8912 94.5851 69.9722 94.5851C70.0264 94.5851 70.0755 94.5776 70.1195 94.5625C70.1634 94.5467 70.2015 94.5237 70.2337 94.4935C70.266 94.4633 70.2904 94.4259 70.3068 94.3813L70.6549 94.4204C70.6329 94.5124 70.591 94.5927 70.5293 94.6613C70.4682 94.7293 70.3899 94.7821 70.2945 94.8199C70.1991 94.857 70.0899 94.8755 69.9671 94.8755ZM72.2356 93.6811L71.8959 93.7182C71.8862 93.6838 71.8694 93.6516 71.8454 93.6214C71.8221 93.5912 71.7905 93.5668 71.7507 93.5483C71.7109 93.5297 71.6621 93.5205 71.6045 93.5205C71.5269 93.5205 71.4617 93.5373 71.4088 93.5709C71.3567 93.6046 71.3309 93.6482 71.3316 93.7017C71.3309 93.7477 71.3477 93.7851 71.3821 93.8139C71.4171 93.8428 71.4747 93.8664 71.555 93.885L71.8248 93.9426C71.9745 93.9749 72.0857 94.026 72.1584 94.096C72.2319 94.1661 72.2689 94.2577 72.2696 94.371C72.2689 94.4705 72.2398 94.5584 72.1821 94.6346C72.1251 94.7101 72.0458 94.7691 71.9442 94.8117C71.8427 94.8542 71.726 94.8755 71.5942 94.8755C71.4006 94.8755 71.2448 94.835 71.1267 94.754C71.0086 94.6723 70.9383 94.5587 70.9156 94.4132L71.2791 94.3782C71.2956 94.4496 71.3306 94.5034 71.3841 94.5398C71.4377 94.5762 71.5073 94.5944 71.5931 94.5944C71.6817 94.5944 71.7527 94.5762 71.8063 94.5398C71.8605 94.5034 71.8876 94.4585 71.8876 94.4049C71.8876 94.3596 71.8701 94.3222 71.8351 94.2927C71.8008 94.2632 71.7472 94.2405 71.6745 94.2248L71.4047 94.1681C71.253 94.1365 71.1408 94.0833 71.068 94.0085C70.9953 93.933 70.9592 93.8376 70.9599 93.7223C70.9592 93.6248 70.9856 93.5404 71.0392 93.469C71.0934 93.3969 71.1686 93.3413 71.2647 93.3022C71.3615 93.2624 71.473 93.2425 71.5993 93.2425C71.7847 93.2425 71.9305 93.2819 72.0369 93.3609C72.144 93.4398 72.2102 93.5466 72.2356 93.6811ZM73.827 93.6811L73.4872 93.7182C73.4776 93.6838 73.4608 93.6516 73.4367 93.6214C73.4134 93.5912 73.3818 93.5668 73.342 93.5483C73.3022 93.5297 73.2534 93.5205 73.1958 93.5205C73.1182 93.5205 73.053 93.5373 73.0002 93.5709C72.948 93.6046 72.9222 93.6482 72.9229 93.7017C72.9222 93.7477 72.9391 93.7851 72.9734 93.8139C73.0084 93.8428 73.0661 93.8664 73.1464 93.885L73.4161 93.9426C73.5658 93.9749 73.677 94.026 73.7497 94.096C73.8232 94.1661 73.8603 94.2577 73.8609 94.371C73.8603 94.4705 73.8311 94.5584 73.7734 94.6346C73.7164 94.7101 73.6372 94.7691 73.5356 94.8117C73.434 94.8542 73.3173 94.8755 73.1855 94.8755C72.9919 94.8755 72.8361 94.835 72.718 94.754C72.6 94.6723 72.5296 94.5587 72.507 94.4132L72.8704 94.3782C72.8869 94.4496 72.9219 94.5034 72.9754 94.5398C73.029 94.5762 73.0987 94.5944 73.1845 94.5944C73.273 94.5944 73.3441 94.5762 73.3976 94.5398C73.4518 94.5034 73.4789 94.4585 73.4789 94.4049C73.4789 94.3596 73.4614 94.3222 73.4264 94.2927C73.3921 94.2632 73.3386 94.2405 73.2658 94.2248L72.996 94.1681C72.8443 94.1365 72.7321 94.0833 72.6593 94.0085C72.5866 93.933 72.5505 93.8376 72.5512 93.7223C72.5505 93.6248 72.577 93.5404 72.6305 93.469C72.6847 93.3969 72.7599 93.3413 72.856 93.3022C72.9528 93.2624 73.0643 93.2425 73.1906 93.2425C73.376 93.2425 73.5218 93.2819 73.6282 93.3609C73.7353 93.4398 73.8016 93.5466 73.827 93.6811Z" fill="#6FCF97"/>
<path d="M59.0507 63.9596C64.4423 63.9596 68.8131 59.5369 68.8131 54.0812C68.8131 48.6256 64.4423 44.2029 59.0507 44.2029C53.6591 44.2029 49.2883 48.6256 49.2883 54.0812C49.2883 59.5369 53.6591 63.9596 59.0507 63.9596Z" fill="white"/>
<path d="M59.254 63.7737C59.9574 63.7737 60.6492 63.6848 61.3255 63.4954C61.5999 63.4182 61.8705 63.3293 62.1294 63.2172C61.8357 61.3196 61.3912 59.4568 60.8115 57.6403C60.5371 56.7862 60.1081 55.82 59.2347 55.6191C58.6511 55.4877 58.0328 55.7659 57.6154 56.1988C57.2018 56.6316 56.9545 57.1959 56.7381 57.7563C56.0888 59.449 55.6598 61.2268 55.455 63.0278C56.653 63.4916 57.9825 63.7698 59.254 63.7698V63.7737Z" fill="#ACD4F7"/>
<path d="M62.2604 63.4605C62.1483 63.4605 62.044 63.3987 61.9937 63.2904C61.9589 63.2131 61.9589 63.132 61.986 63.0586C61.7232 61.3078 61.3135 59.6073 60.7686 58.0034C60.328 56.7049 59.8063 56.0054 59.1763 55.8585C58.6082 55.7271 58.0439 56.0981 57.7077 56.4885C57.2748 56.987 57.012 57.6518 56.7917 58.2972C56.2739 59.8122 55.9299 61.416 55.7676 63.0663C55.7521 63.2286 55.6053 63.3446 55.4468 63.3291C55.2845 63.3136 55.1685 63.1706 55.184 63.0083C55.3502 61.3117 55.7057 59.6614 56.2391 58.1039C56.4787 57.4044 56.7685 56.6778 57.2671 56.102C57.8391 55.4411 58.6236 55.1281 59.3154 55.2865C60.4401 55.5455 61.0082 56.8518 61.3328 57.8141C61.9048 59.4914 62.3299 61.273 62.5966 63.1049C62.6159 63.2325 62.5502 63.3561 62.4304 63.4141L62.3879 63.4334C62.3493 63.4528 62.3068 63.4605 62.2642 63.4605H62.2604Z" fill="black"/>
<g opacity="0.13">
<path d="M61.3455 51.8231C61.2528 51.5565 60.8508 51.5371 60.7156 51.7806C60.5919 52.0782 60.7194 52.4183 60.6846 52.7352C60.704 52.7932 60.5455 53.3652 60.4566 53.4811C60.4257 53.5352 60.4837 53.4541 60.503 53.4309C60.4759 53.4618 60.4373 53.5198 60.4102 53.5546C60.3986 53.57 60.3832 53.5855 60.3716 53.6009C60.159 53.8135 59.9349 54.0145 59.7146 54.2193C59.3204 54.4434 59.4093 54.3893 59.073 54.5091C58.9841 54.5362 58.8991 54.5555 58.8064 54.571C58.7986 54.571 58.7948 54.571 58.7832 54.571C58.4856 54.5594 58.188 54.5903 57.8904 54.5632C57.8788 54.5632 57.8672 54.5632 57.8595 54.5594C57.7049 54.5323 57.5426 54.4975 57.3996 54.5864C57.0711 54.7642 57.1368 55.3014 57.5039 55.3903C57.9059 55.4908 58.3194 55.6183 58.7368 55.5797C59.2547 55.5333 59.7339 55.2898 60.1745 55.0309C61.388 54.4087 61.6972 52.8164 61.3417 51.8231H61.3455Z" fill="black"/>
</g>
<g opacity="0.13">
<path d="M60.9 61.6827C60.9773 62.6953 61.0198 62.5175 61.0584 63.1823C61.07 63.3059 61.0778 63.4335 61.0816 63.5571C61.1628 63.5378 61.2478 63.5224 61.329 63.4992C61.6459 63.4103 61.9589 63.3059 62.2604 63.1707C62.3068 63.1513 62.3531 63.1282 62.3995 63.1011C62.3183 62.6335 62.2256 62.1272 62.1212 61.675C61.9087 60.7088 61.6575 59.7581 61.3599 58.8151C61.1125 57.9957 60.8884 57.161 60.4942 56.3957C60.3898 56.1832 60.2546 55.9861 60.1038 55.8044C60.0227 55.6923 59.9029 55.5957 59.756 55.5996C59.4275 55.588 59.2459 56.0247 59.4855 56.2527C60.5947 57.6402 60.6758 60.0479 60.9 61.6866V61.6827Z" fill="black"/>
</g>
<path d="M58.9285 55.7662C58.5188 55.7662 58.1014 55.7005 57.7034 55.5652C57.4367 55.4763 57.2319 55.3758 57.0541 55.2483C56.6908 54.9893 56.4203 54.5951 56.2309 54.0425C56.1111 53.7024 56.0492 53.3971 56.0454 53.0995C56.0376 52.7401 56.1072 52.3613 56.2579 51.9439C56.5169 51.2405 56.9266 50.6531 57.4522 50.2434C58.0551 49.7719 58.8048 49.54 59.5121 49.6135C60.2077 49.683 60.8841 50.1468 61.3594 50.8772C61.7304 51.4492 61.9276 52.1603 61.9314 52.9333C61.9314 53.2425 61.9005 53.513 61.8348 53.7526C61.6261 54.5333 60.9845 55.2174 60.1652 55.542C59.7826 55.6927 59.3614 55.7662 58.9285 55.7662ZM59.2531 50.1893C58.7546 50.1893 58.2406 50.3748 57.8154 50.7072C57.3787 51.0511 57.0309 51.5497 56.8106 52.1487C56.6831 52.4966 56.6251 52.8019 56.6328 53.0879C56.6367 53.3198 56.6869 53.571 56.7874 53.8492C56.9381 54.2821 57.1391 54.5835 57.398 54.7691C57.5256 54.8618 57.6802 54.9352 57.8927 55.0048C58.5845 55.2406 59.3343 55.2328 59.9488 54.9932C60.5981 54.7381 61.1044 54.2009 61.2667 53.598C61.3169 53.4087 61.344 53.1922 61.3401 52.9333C61.3401 52.2724 61.1739 51.6734 60.8647 51.198C60.6831 50.9236 60.1884 50.2705 59.4502 50.197C59.3845 50.1893 59.3188 50.1854 59.2531 50.1854V50.1893Z" fill="black"/>
<path d="M58.9868 64.1096C53.4872 64.1096 49.0118 59.6342 49.0118 54.1346C49.0118 48.6351 53.4872 44.1597 58.9868 44.1597C64.4864 44.1597 68.9618 48.6351 68.9618 54.1346C68.9618 59.6342 64.4864 64.1096 58.9868 64.1096ZM58.9868 44.7471C53.8119 44.7471 49.5993 48.9597 49.5993 54.1346C49.5993 59.3096 53.8119 63.5221 58.9868 63.5221C64.1617 63.5221 68.3743 59.3096 68.3743 54.1346C68.3743 48.9597 64.1617 44.7471 58.9868 44.7471Z" fill="black"/>
</g>
<path d="M116.045 99.6517H213.31V35.374H116.045V99.6517ZM213.995 100.968H115.36C114.976 100.968 114.675 100.665 114.675 100.31V34.7158C114.675 34.3472 114.99 34.0576 115.36 34.0576H213.995C214.379 34.0576 214.68 34.3472 214.68 34.7158V100.31C214.68 100.679 214.379 100.968 213.995 100.968Z" fill="black"/>
<path d="M115.36 103.102V94.4534H213.996V103.102H115.36Z" fill="#ACD4F7"/>
<path d="M116.045 102.444H213.31V95.1116H116.045V102.444ZM213.995 103.76H115.36C114.976 103.76 114.675 103.471 114.675 103.102V94.4403C114.675 94.0717 114.99 93.7821 115.36 93.7821H213.995C214.379 93.7821 214.68 94.0849 214.68 94.4403V103.102C214.68 103.471 214.379 103.76 213.995 103.76Z" fill="black"/>
<path d="M2.16247 0.700439L1.34851 59.0744L45.6646 59.2588L46.3881 0.977096L2.16247 0.700439Z" fill="white"/>
<path d="M45.6674 59.72L1.26093 59.5356C1.17049 59.5356 0.989616 59.4433 0.989616 59.4433C0.899175 59.3511 0.89917 59.2589 0.89917 59.1667L1.71313 0.792755C1.71313 0.516101 1.89401 0.331665 2.16534 0.331665L46.391 0.608322C46.4814 0.608322 46.6623 0.700545 46.6623 0.700545C46.7527 0.792763 46.7527 0.884984 46.7527 0.977202L46.0292 59.2589C46.1196 59.5356 45.9388 59.72 45.6674 59.72ZM1.71313 58.6134L45.2152 58.7056L45.9388 1.34607L2.61754 1.06941L1.71313 58.6134Z" fill="#636464"/>
<path fill-rule="evenodd" clip-rule="evenodd" d="M21.13 3.31702C25.0651 3.31702 28.2666 6.51849 28.2666 10.4536C28.2666 14.3887 25.0651 17.5902 21.13 17.5902C17.1949 17.5902 13.9934 14.3887 13.9934 10.4536C13.9934 6.51849 17.1949 3.31702 21.13 3.31702ZM21.13 4.38751C17.7851 4.38751 15.0639 7.10869 15.0639 10.4536C15.0639 13.7985 17.7851 16.5197 21.13 16.5197C24.4749 16.5197 27.1961 13.7985 27.1961 10.4536C27.1961 7.10869 24.4749 4.38751 21.13 4.38751ZM21.1328 12.4489C21.5274 12.4489 21.8464 12.7679 21.8464 13.1626C21.8464 13.5572 21.5274 13.8763 21.1328 13.8763C20.7381 13.8763 20.4156 13.5572 20.4156 13.1626C20.4156 12.7679 20.7317 12.4489 21.1256 12.4489H21.1328ZM21.1258 7.20932C21.4212 7.20932 21.661 7.4491 21.661 7.74456V10.8982C21.661 11.1937 21.4212 11.4335 21.1258 11.4335C20.8303 11.4335 20.5905 11.1937 20.5905 10.8982V7.74456C20.5905 7.4491 20.8303 7.20932 21.1258 7.20932Z" fill="#D1D6DD"/>
<path d="M33.7811 20.6135C25.6151 20.3756 17.2935 20.2963 9.12751 20.4549C8.89419 20.4549 8.73865 20.2963 8.73865 20.0584C8.73865 19.8205 8.89419 19.6619 9.12751 19.6619C17.2935 19.5033 25.6151 19.5033 33.7811 19.8205C34.0144 19.8205 34.17 19.9791 34.17 20.217C34.17 20.4549 34.0144 20.6135 33.7811 20.6135Z" fill="#636464"/>
<path d="M28.5303 28.7818C21.9323 28.7818 15.4341 28.6232 8.93601 28.3853C8.6361 28.3853 8.43616 28.2267 8.43616 27.9888C8.43616 27.7509 8.6361 27.5923 8.93601 27.5923C19.1331 27.9888 29.5301 28.0681 39.7271 27.8302C40.027 27.8302 40.227 27.9888 40.227 28.2267C40.227 28.4646 40.027 28.6232 39.7271 28.6232C36.1281 28.7025 32.3292 28.7818 28.5303 28.7818Z" fill="#636464"/>
<path d="M29.3914 36.9494C22.4774 36.9494 15.5635 36.8701 8.64951 36.6322C8.33993 36.6322 8.13354 36.4736 8.13354 36.2357C8.13354 35.9978 8.33993 35.8392 8.64951 35.8392C18.9688 36.1564 29.3914 36.2357 39.7107 36.0771C40.0203 36.0771 40.2267 36.2357 40.2267 36.4736C40.2267 36.7115 40.0203 36.8701 39.7107 36.8701C36.3053 36.9494 32.7968 36.9494 29.3914 36.9494Z" fill="#636464"/>
<path d="M21.8308 44.4824C17.3529 44.4824 12.875 44.4031 8.39706 44.3238C8.04354 44.3238 7.80786 44.1652 7.80786 43.9273C7.80786 43.6894 8.04354 43.5308 8.39706 43.5308C18.06 43.7687 27.9585 43.7687 37.6214 43.4515C37.975 43.4515 38.2106 43.6101 38.2106 43.848C38.2106 44.0859 37.975 44.2445 37.6214 44.2445C32.4365 44.4031 27.1337 44.4824 21.8308 44.4824Z" fill="#636464"/>
<path d="M8.04727 51.4616C7.71825 51.4616 7.4989 51.303 7.4989 51.0651C7.4989 50.8272 7.71825 50.6686 8.04727 50.6686L42.704 50.5894C43.0331 50.5894 43.2524 50.748 43.2524 50.9859C43.2524 51.2238 43.0331 51.3824 42.704 51.3824L8.04727 51.4616Z" fill="#636464"/>
<path d="M8.65711 7.78241C8.58405 7.78241 8.51099 7.70792 8.51099 7.63342L8.73018 2.64227C8.73018 2.56778 8.80322 2.49329 8.87628 2.49329C8.94934 2.49329 9.02241 2.56778 9.02241 2.64227L8.80324 7.63342C8.80324 7.78241 8.73017 7.78241 8.65711 7.78241Z" fill="#636464"/>
<path d="M10.4922 5.5466C10.4191 5.5466 10.3461 5.47211 10.3461 5.39761C10.273 4.35469 10.3461 3.38626 10.4191 2.34333C10.4191 2.26884 10.4922 2.19434 10.5652 2.19434C10.6383 2.19434 10.7114 2.26884 10.7114 2.34333C10.6383 3.31177 10.6383 4.35469 10.6383 5.32313C10.6383 5.47212 10.5652 5.5466 10.4922 5.5466Z" fill="#636464"/>
<path d="M39.2056 6.44133C39.1325 6.44133 39.0594 6.36683 39.0594 6.29233L39.2786 2.79108C39.2786 2.71658 39.3517 2.64209 39.4247 2.64209C39.4978 2.64209 39.5709 2.71658 39.5709 2.79108L39.3517 6.29233C39.3517 6.36683 39.2786 6.44133 39.2056 6.44133Z" fill="#636464"/>
<path d="M37.8809 4.50254C37.8078 4.50254 37.7347 4.42805 37.7347 4.35356V2.71467C37.7347 2.64018 37.8078 2.56567 37.8809 2.56567C37.9539 2.56567 38.027 2.64018 38.027 2.71467V4.35356C38.027 4.42805 37.9539 4.50254 37.8809 4.50254Z" fill="#636464"/>
<path d="M7.63587 46.6672C7.56281 46.6672 7.48975 46.5927 7.48975 46.5182V43.6875C7.48975 43.613 7.56281 43.5385 7.63587 43.5385C7.70893 43.5385 7.78198 43.613 7.78198 43.6875V46.5182C7.78198 46.5927 7.70893 46.6672 7.63587 46.6672Z" fill="#636464"/>
<path d="M9.03374 46.7412C8.96068 46.7412 8.88762 46.6667 8.88762 46.5922L8.81458 45.2513C8.81458 45.1768 8.88762 45.1023 8.96068 45.1023C9.03374 45.1023 9.10681 45.1768 9.10681 45.2513L9.17987 46.5922C9.17987 46.6667 9.1068 46.7412 9.03374 46.7412Z" fill="#636464"/>
<path d="M39.058 46.9668C38.9849 46.9668 38.9119 46.8923 38.9119 46.8178L39.058 42.4971C39.058 42.4226 39.131 42.3481 39.2041 42.3481C39.2772 42.3481 39.3502 42.4226 39.3502 42.4971L39.2041 46.8178C39.131 46.8923 39.1311 46.9668 39.058 46.9668Z" fill="#636464"/>
<path d="M37.8809 46.666C37.8078 46.666 37.7347 46.5915 37.7347 46.517L37.8078 44.8781C37.8078 44.8036 37.8809 44.7291 37.9539 44.7291C38.027 44.7291 38.1 44.8036 38.1 44.8781L38.027 46.517C38.027 46.666 37.9539 46.666 37.8809 46.666Z" fill="#636464"/>
<path d="M36.5026 47.0399C36.4295 47.0399 36.3564 46.9654 36.3564 46.8909L36.4295 45.699C36.4295 45.6245 36.5026 45.55 36.5756 45.55C36.6487 45.55 36.7217 45.6245 36.7217 45.699L36.6487 46.8909C36.5756 46.9654 36.5756 47.0399 36.5026 47.0399Z" fill="#636464"/>
<defs>
<filter id="filter0_d_13600_78629" x="25.9789" y="37.0887" width="72.1824" height="76.1723" filterUnits="userSpaceOnUse" color-interpolation-filters="sRGB">
<feFlood flood-opacity="0" result="BackgroundImageFix"/>
<feColorMatrix in="SourceAlpha" type="matrix" values="0 0 0 0 0 0 0 0 0 0 0 0 0 0 0 0 0 0 127 0" result="hardAlpha"/>
<feOffset dx="3.08316" dy="3.08316"/>
<feGaussianBlur stdDeviation="3.08316"/>
<feComposite in2="hardAlpha" operator="out"/>
<feColorMatrix type="matrix" values="0 0 0 0 0.145104 0 0 0 0 0.286634 0 0 0 0 0.829167 0 0 0 0.05 0"/>
<feBlend mode="normal" in2="BackgroundImageFix" result="effect1_dropShadow_13600_78629"/>
<feBlend mode="normal" in="SourceGraphic" in2="effect1_dropShadow_13600_78629" result="shape"/>
</filter>
</defs>
</svg>
