<svg width="256" height="140" viewBox="0 0 256 140" fill="none" xmlns="http://www.w3.org/2000/svg">
<rect opacity="0.5" y="0.287323" width="238" height="139.425" rx="18.6493" fill="#B8D4F7"/>
<path d="M24.1986 137.405C51.4849 136.966 78.7712 137.076 105.943 137.625C105.943 118.843 106.287 100.062 106.631 81.4998C98.1467 80.731 89.5481 80.6211 81.2934 81.4998C81.0641 72.7131 81.0641 64.0362 81.5227 55.1396C71.8923 55.4691 62.2618 55.4691 52.9753 54.8101C52.4021 48.9889 52.2874 43.0579 52.8607 37.3465C43.5741 36.5776 34.173 36.5776 24.6572 36.5776C24.0839 70.4065 24.0839 104.235 24.1986 137.405Z" fill="white"/>
<path d="M105.946 138.174C76.0228 137.625 49.3097 137.515 24.2018 137.955C24.0871 137.955 23.8578 137.955 23.7432 137.845C23.6285 137.735 23.6285 137.625 23.6285 137.515C23.3992 100.501 23.6285 67.551 24.0871 36.6876C24.0871 36.3581 24.3164 36.1384 24.6604 36.1384C34.1762 36.1384 43.5773 36.1384 52.8638 36.9072C52.9785 36.9072 53.2078 37.0171 53.2078 37.1269C53.3224 37.2367 53.3224 37.3466 53.3224 37.5662C52.7492 42.5088 52.7492 48.0005 53.3224 54.4807C61.3478 55.0299 70.5197 55.1397 81.2966 54.8102C81.4113 54.8102 81.6406 54.8102 81.7552 54.92C81.8699 55.0299 81.8699 55.1397 81.8699 55.3594C81.5259 63.2674 81.4113 71.505 81.6406 81.1704C89.322 80.4016 97.6913 80.4016 106.519 81.1704C106.863 81.1704 106.978 81.3901 106.978 81.7196C106.863 86.2228 106.863 90.726 106.749 95.2292C106.519 109.178 106.29 123.566 106.29 137.845C106.29 137.955 106.175 138.174 106.175 138.174C106.29 138.064 106.175 138.174 105.946 138.174ZM58.5963 136.637C73.3859 136.637 88.9781 136.746 105.487 137.076C105.487 123.017 105.717 108.739 105.946 95.0095C106.061 90.726 106.061 86.3326 106.175 82.0491C97.3474 81.2802 89.0927 81.2802 81.4113 82.1589C81.2966 82.1589 81.0673 82.1589 80.9527 82.0491C80.838 81.9392 80.7234 81.8294 80.7234 81.6097C80.4941 71.9443 80.4941 63.7068 80.838 55.7987C70.0611 56.1282 60.8892 56.0184 52.8638 55.3594C52.6345 55.3594 52.4052 55.1397 52.4052 54.92C51.832 48.5497 51.832 42.9481 52.2906 37.8958C43.348 37.2367 34.4055 37.2367 25.3483 37.2367C24.775 67.7706 24.6604 100.391 24.8897 136.966C35.6666 136.637 46.9021 136.637 58.5963 136.637Z" fill="#636464"/>
<path d="M48.5191 81.1703C45.0797 81.1703 41.067 81.0605 37.7422 80.9506C37.7422 77.7655 37.7422 74.3606 37.7422 71.0656C41.2963 70.8459 44.8504 70.8459 48.6338 71.0656C48.6338 74.3606 48.6338 77.5458 48.5191 81.1703Z" fill="#B8D4F7"/>
<path d="M48.525 81.7196C46.8053 81.7196 44.9709 81.7196 43.1365 81.6097C41.3021 81.6097 39.4678 81.4999 37.748 81.4999C37.4041 81.4999 37.1748 81.2802 37.1748 80.9507V80.0721C37.1748 77.1065 37.1748 74.0312 37.1748 71.0657C37.1748 70.7362 37.4041 70.5165 37.748 70.5165C41.3021 70.2968 44.8562 70.2968 48.6396 70.5165C48.9836 70.5165 49.2129 70.7362 49.2129 71.0657C49.3275 74.2509 49.2129 77.436 49.0982 81.1704C48.9836 81.3901 48.7543 81.7196 48.525 81.7196ZM38.2066 80.4016C39.8117 80.4016 41.4168 80.4016 43.0219 80.5114C44.627 80.5114 46.3467 80.6212 47.8371 80.6212C47.9517 77.3262 47.9517 74.4705 47.9517 71.6148C44.5123 71.505 41.3021 71.505 38.2066 71.6148C38.2066 74.4705 38.2066 77.3262 38.2066 80.1819V80.4016Z" fill="#636464"/>
<path d="M71.0946 81.1703C67.6551 81.1703 63.6424 81.0605 60.3176 80.9506C60.3176 77.7655 60.3176 74.3606 60.3176 71.0656C63.8717 70.8459 67.4258 70.8459 71.2092 71.0656C71.3239 74.3606 71.2092 77.5458 71.0946 81.1703Z" fill="#B8D4F7"/>
<path d="M71.1007 81.7196C69.3809 81.7196 67.5466 81.7196 65.7122 81.6097C63.8778 81.6097 62.0435 81.4999 60.3237 81.4999C59.9798 81.4999 59.7505 81.2802 59.7505 80.9507V80.0721C59.7505 77.1065 59.7505 74.0312 59.7505 71.0657C59.7505 70.7362 59.9798 70.5165 60.3237 70.5165C63.8778 70.2968 67.4319 70.2968 71.2153 70.5165C71.5593 70.5165 71.7886 70.7362 71.7886 71.0657C71.9032 74.2509 71.7886 77.436 71.6739 81.1704C71.6739 81.3901 71.4446 81.7196 71.1007 81.7196ZM60.897 80.4016C62.502 80.4016 64.1071 80.4016 65.7122 80.5114C67.3173 80.5114 69.037 80.6212 70.5274 80.6212C70.6421 77.3262 70.6421 74.4705 70.6421 71.6148C67.2026 71.505 63.9925 71.505 60.897 71.6148C60.897 74.4705 60.897 77.3262 60.897 80.1819V80.4016Z" fill="#636464"/>
<path d="M48.1529 102.258C44.7135 102.258 40.7008 102.148 37.376 102.039C37.376 98.8535 37.376 95.4486 37.376 92.1536C40.9301 91.9339 44.4842 91.9339 48.2676 92.1536C48.3822 95.4486 48.2676 98.7436 48.1529 102.258Z" fill="#B8D4F7"/>
<path d="M48.159 102.808C46.4393 102.808 44.6049 102.808 42.7705 102.698C40.9362 102.698 39.1018 102.588 37.3821 102.588C37.0381 102.588 36.8088 102.368 36.8088 102.039V101.16C36.8088 98.1946 36.8088 95.1192 36.8088 92.1537C36.8088 91.8242 37.0381 91.6045 37.3821 91.6045C40.9362 91.3849 44.4903 91.3849 48.2737 91.6045C48.6176 91.6045 48.8469 91.8242 48.8469 92.1537C48.9616 95.3389 48.8469 98.5241 48.7323 102.258C48.7323 102.588 48.503 102.808 48.159 102.808ZM37.8407 101.599C39.4458 101.599 41.0508 101.599 42.7705 101.709C44.3756 101.709 46.0954 101.819 47.5858 101.819C47.7004 98.5241 47.7004 95.6684 47.7004 92.8127C44.261 92.7029 41.0508 92.7029 37.9553 92.8127C37.9553 95.6684 37.9553 98.5241 37.9553 101.38L37.8407 101.599Z" fill="#636464"/>
<path d="M70.7518 102.258C67.3123 102.258 63.2997 102.149 59.9749 102.039C59.9749 98.8536 59.9749 95.4488 59.9749 92.1537C63.529 91.9341 67.083 91.9341 70.8664 92.1537C70.9811 95.4488 70.9811 98.7438 70.7518 102.258Z" fill="#B8D4F7"/>
<path d="M70.7579 102.808C69.0382 102.808 67.2038 102.808 65.3694 102.698C63.5351 102.698 61.7007 102.588 59.981 102.588C59.637 102.588 59.4077 102.368 59.4077 102.039V101.16C59.4077 98.1948 59.4077 95.1194 59.4077 92.1539C59.4077 91.8244 59.637 91.6048 59.981 91.6048C63.5351 91.3851 67.0892 91.3851 70.8725 91.6048C71.2165 91.6048 71.4458 91.8244 71.4458 92.1539C71.5604 95.3391 71.4458 98.5243 71.3311 102.259C71.3311 102.588 71.1018 102.808 70.7579 102.808ZM60.5542 101.6C62.1593 101.6 63.7644 101.6 65.4841 101.709C67.0892 101.709 68.8089 101.819 70.2993 101.819C70.414 98.5243 70.414 95.6686 70.414 92.8129C66.9745 92.7031 63.7643 92.7031 60.6688 92.8129C60.6688 95.6686 60.6688 98.5243 60.6688 101.27L60.5542 101.6Z" fill="#636464"/>
<path d="M48.1529 123.457C44.7135 123.457 40.7008 123.347 37.376 123.237C37.376 120.052 37.376 116.647 37.376 113.352C40.9301 113.132 44.4842 113.132 48.2676 113.352C48.3822 116.647 48.2676 119.832 48.1529 123.457Z" fill="#B8D4F7"/>
<path d="M48.159 124.006C46.4393 124.006 44.6049 124.006 42.7705 123.896C40.9362 123.896 39.1018 123.786 37.3821 123.786C37.0381 123.786 36.8088 123.566 36.8088 123.237V122.358C36.8088 119.393 36.8088 116.317 36.8088 113.352C36.8088 113.022 37.0381 112.803 37.3821 112.803C40.9362 112.583 44.4903 112.583 48.2737 112.803C48.6176 112.803 48.8469 113.022 48.8469 113.352C48.9616 116.537 48.8469 119.722 48.7323 123.457C48.7323 123.786 48.503 124.006 48.159 124.006ZM37.8407 122.798C39.4458 122.798 41.0508 122.798 42.6559 122.907C44.261 122.907 45.9807 123.017 47.4711 123.017C47.5858 119.722 47.5858 116.867 47.5858 114.011C44.1463 113.901 40.9362 113.901 37.8407 114.011C37.8407 116.867 37.8407 119.722 37.8407 122.578V122.798Z" fill="#636464"/>
<path d="M70.7518 123.457C67.3123 123.457 63.2997 123.347 59.9749 123.237C59.9749 120.052 59.9749 116.647 59.9749 113.352C63.529 113.132 67.083 113.132 70.8664 113.352C70.9811 116.647 70.9811 119.832 70.7518 123.457Z" fill="#B8D4F7"/>
<path d="M70.7579 124.006C69.0382 124.006 67.2038 124.006 65.3694 123.896C63.5351 123.896 61.7007 123.786 59.981 123.786C59.637 123.786 59.4077 123.567 59.4077 123.237V122.358C59.4077 119.393 59.4077 116.318 59.4077 113.352C59.4077 113.022 59.637 112.803 59.981 112.803C63.5351 112.583 67.0892 112.583 70.8725 112.803C71.2165 112.803 71.4458 113.022 71.4458 113.352C71.5604 116.537 71.4458 119.722 71.3311 123.457C71.3311 123.786 71.1018 124.006 70.7579 124.006ZM60.5542 122.798C62.1593 122.798 63.7644 122.798 65.3694 122.908C66.9745 122.908 68.6942 123.017 70.1847 123.017C70.2993 119.722 70.2993 116.867 70.2993 114.011C66.8599 113.901 63.6497 113.901 60.5542 114.011C60.5542 116.867 60.5542 119.722 60.5542 122.468V122.798Z" fill="#636464"/>
<path d="M48.1643 74.69L37.846 74.5802C37.7314 74.5802 37.6167 74.4704 37.6167 74.3605C37.6167 74.2507 37.7314 74.1409 37.846 74.1409L48.1643 74.2507C48.279 74.2507 48.3936 74.3605 48.3936 74.4704C48.3936 74.5802 48.279 74.69 48.1643 74.69Z" fill="#636464"/>
<path d="M71.1145 74.69C68.5923 74.5802 65.7261 74.5802 62.8599 74.5802C61.9427 74.5802 61.1401 74.5802 60.223 74.5802C60.1083 74.5802 59.9937 74.4704 59.9937 74.3605C59.9937 74.2507 60.1083 74.1409 60.223 74.1409C61.0255 74.1409 61.9427 74.1409 62.8599 74.1409C65.7261 74.1409 68.7069 74.1409 71.1145 74.2507C71.2292 74.2507 71.3438 74.3605 71.3438 74.4704C71.3438 74.5802 71.2292 74.69 71.1145 74.69Z" fill="#636464"/>
<path d="M47.8166 95.4488C46.3262 95.4488 44.6065 95.4488 42.8868 95.4488C41.167 95.4488 39.3327 95.4488 37.7276 95.4488C37.6129 95.4488 37.4983 95.339 37.4983 95.2292C37.4983 95.1193 37.6129 95.0095 37.7276 95.0095C39.3327 95.0095 41.0524 95.0095 42.8868 95.0095C44.6065 95.0095 46.3262 95.0095 47.8166 95.0095C47.9313 95.0095 48.0459 95.1193 48.0459 95.2292C48.0459 95.339 47.9313 95.4488 47.8166 95.4488Z" fill="#636464"/>
<path d="M70.7656 95.3389C68.358 95.229 64.4599 95.229 60.3326 95.229C60.2179 95.229 60.1033 95.1192 60.1033 95.0094C60.1033 94.8995 60.2179 94.7897 60.3326 94.7897C62.2816 94.7897 67.3261 94.7897 70.7656 94.8995C70.8802 94.8995 70.9949 95.0094 70.9949 95.1192C70.8802 95.3389 70.8802 95.3389 70.7656 95.3389Z" fill="#636464"/>
<path d="M43.1365 116.428C41.1875 116.428 39.2385 116.428 37.4041 116.318C37.2895 116.318 37.1748 116.208 37.1748 116.098C37.1748 115.988 37.2895 115.878 37.4041 115.878C40.041 115.988 42.7926 115.988 45.4295 115.988C46.232 115.988 46.9199 115.988 47.7225 115.988C47.8371 115.988 47.9517 116.098 47.9517 116.208C47.9517 116.318 47.8371 116.428 47.7225 116.428C46.9199 116.428 46.232 116.428 45.4295 116.428C44.7416 116.428 43.9391 116.428 43.1365 116.428Z" fill="#636464"/>
<path d="M60.223 116.317C60.1083 116.317 59.9937 116.207 59.9937 116.098C59.9937 115.988 60.1083 115.878 60.223 115.878C63.6624 115.768 67.2165 115.768 70.7706 115.768C70.8852 115.768 70.9999 115.878 70.9999 115.988C70.9999 116.098 70.8852 116.207 70.7706 116.207C67.2165 116.207 63.6624 116.207 60.223 116.317Z" fill="#636464"/>
<path d="M93.5663 102.258C90.1268 102.258 86.1141 102.149 82.7893 102.039C82.7893 98.8536 82.7893 95.4487 82.7893 92.1537C86.3434 91.934 89.8975 91.934 93.6809 92.1537C93.6809 95.4487 93.6809 98.7437 93.5663 102.258Z" fill="#B8D4F7"/>
<path d="M93.5721 102.808C91.8524 102.808 90.018 102.808 88.1836 102.698C86.3493 102.698 84.5149 102.588 82.7952 102.588C82.4512 102.588 82.2219 102.368 82.2219 102.039V101.16C82.2219 98.1946 82.2219 95.1193 82.2219 92.1537C82.2219 91.8242 82.4512 91.6046 82.7952 91.6046C86.3493 91.3849 89.9034 91.3849 93.6868 91.6046C94.0307 91.6046 94.26 91.8242 94.26 92.1537C94.3746 95.3389 94.26 98.5241 94.1453 102.258C94.0307 102.588 93.8014 102.808 93.5721 102.808ZM83.2538 101.599C84.8588 101.599 86.4639 101.599 88.1836 101.709C89.7887 101.709 91.5084 101.819 92.9989 101.819C93.1135 98.5241 93.1135 95.6684 93.1135 92.8128C89.6741 92.7029 86.4639 92.7029 83.3684 92.8128C83.3684 95.6684 83.3684 98.5241 83.3684 101.38L83.2538 101.599Z" fill="#636464"/>
<path d="M93.5663 123.457C90.1268 123.457 86.1141 123.347 82.7893 123.237C82.7893 120.052 82.7893 116.647 82.7893 113.352C86.3434 113.132 89.8975 113.132 93.6809 113.352C93.6809 116.647 93.6809 119.832 93.5663 123.457Z" fill="#B8D4F7"/>
<path d="M93.5721 124.006C91.8524 124.006 90.018 124.006 88.1836 123.896C86.3493 123.896 84.5149 123.786 82.7952 123.786C82.4512 123.786 82.2219 123.567 82.2219 123.237V122.358C82.2219 119.393 82.2219 116.318 82.2219 113.352C82.2219 113.022 82.4512 112.803 82.7952 112.803C86.3493 112.583 89.9034 112.583 93.6868 112.803C94.0307 112.803 94.26 113.022 94.26 113.352C94.3746 116.537 94.26 119.722 94.1453 123.457C94.0307 123.786 93.8014 124.006 93.5721 124.006ZM83.2538 122.798C84.8588 122.798 86.4639 122.798 88.069 122.908C89.6741 122.908 91.3938 123.017 92.8842 123.017C92.9989 119.722 92.9989 116.867 92.9989 114.011C89.5594 113.901 86.3493 113.901 83.2538 114.011C83.2538 116.867 83.2538 119.722 83.2538 122.578V122.798Z" fill="#636464"/>
<path d="M93.447 95.3389C91.0394 95.229 87.1413 95.229 83.014 95.229C82.8993 95.229 82.7847 95.1192 82.7847 95.0094C82.7847 94.8995 82.8993 94.7897 83.014 94.7897C84.963 94.7897 90.0075 94.7897 93.447 94.8995C93.5616 94.8995 93.6763 95.0094 93.6763 95.1192C93.5616 95.3389 93.5616 95.3389 93.447 95.3389Z" fill="#636464"/>
<path d="M82.8997 116.317C82.7851 116.317 82.6704 116.207 82.6704 116.098C82.6704 115.988 82.7851 115.878 82.8997 115.878C86.3392 115.768 89.8933 115.768 93.4474 115.768C93.562 115.768 93.6766 115.878 93.6766 115.988C93.6766 116.098 93.562 116.207 93.4474 116.207C89.8933 116.207 86.4538 116.207 82.8997 116.317Z" fill="#636464"/>
<path d="M21.7967 139.163C51.1466 139.163 78.7769 138.943 106.98 139.163C107.783 139.163 107.783 133.122 107.783 133.122C98.611 133.781 45.9875 132.353 21.682 133.452C21.5674 135.099 21.4527 137.076 21.7967 139.163Z" fill="white"/>
<path d="M21.8025 139.602C21.5732 139.602 21.3439 139.383 21.2293 139.163C20.8854 136.856 21 134.769 21.1146 133.232C21.1146 133.012 21.3439 132.792 21.6879 132.683C35.331 132.133 58.3754 132.353 76.8337 132.463C91.2794 132.573 103.776 132.683 107.789 132.353C107.903 132.353 108.133 132.353 108.247 132.463C108.362 132.573 108.477 132.683 108.477 132.902C108.477 139.492 107.674 139.492 107.216 139.492C88.6425 139.383 70.5281 139.383 51.4964 139.492C41.7513 139.602 31.7769 139.602 21.8025 139.602ZM22.1465 133.891C22.0318 135.209 22.0318 136.856 22.2611 138.614C32.1209 138.614 41.866 138.614 51.2672 138.614C70.2988 138.614 88.1839 138.504 106.757 138.614C106.986 137.955 107.101 135.758 107.216 133.671C102.63 133.891 90.5915 133.781 76.8337 133.671C58.6047 133.451 35.9043 133.232 22.1465 133.891Z" fill="#636464"/>
<path d="M28.0972 48.6602C27.9826 48.6602 27.8679 48.5503 27.8679 48.4405L28.2119 39.7636C28.2119 39.6538 28.3265 39.5439 28.4412 39.5439C28.5558 39.5439 28.6705 39.6538 28.6705 39.7636L28.3265 48.4405C28.2119 48.5503 28.2119 48.6602 28.0972 48.6602Z" fill="#636464"/>
<path d="M31.2032 44.2656C31.0886 44.2656 30.9739 44.1558 30.9739 44.046L30.7446 39.9821C30.7446 39.8723 30.8593 39.7625 30.9739 39.7625C31.0886 39.7625 31.2032 39.8723 31.2032 39.9821L31.4325 44.046C31.4325 44.2657 31.3179 44.2656 31.2032 44.2656Z" fill="#636464"/>
<path d="M33.847 43.168C33.7324 43.168 33.6177 43.0582 33.6177 42.9484L33.3884 40.0927C33.3884 39.9829 33.5031 39.873 33.6177 39.873C33.7324 39.873 33.847 39.9829 33.847 40.0927L34.0763 42.9484C34.0763 43.0582 33.9617 43.168 33.847 43.168Z" fill="#636464"/>
<path d="M78.098 63.9264C77.9833 63.9264 77.8687 63.8166 77.8687 63.7067L78.098 57.6659C78.098 57.556 78.2126 57.4462 78.3272 57.4462C78.4419 57.4462 78.5565 57.556 78.5565 57.6659L78.3272 63.7067C78.2126 63.8166 78.098 63.9264 78.098 63.9264Z" fill="#636464"/>
<path d="M75.8118 60.9609C75.6972 60.9609 75.5825 60.8511 75.5825 60.7412V57.6659C75.5825 57.556 75.6972 57.4462 75.8118 57.4462C75.9265 57.4462 76.0411 57.556 76.0411 57.6659V60.7412C76.0411 60.8511 75.9265 60.9609 75.8118 60.9609Z" fill="#636464"/>
<path d="M73.0333 60.0821C72.9186 60.0821 72.804 59.9723 72.804 59.9723C72.6894 59.3133 72.6894 58.5444 72.804 57.8854C72.804 57.7756 72.9186 57.7756 73.0333 57.7756C73.1479 57.7756 73.2626 57.8854 73.1479 57.9952C73.0333 58.6542 73.0333 59.3133 73.1479 59.9723C73.2626 59.9723 73.1479 59.9723 73.0333 60.0821Z" fill="#636464"/>
<path d="M103.794 91.2754C103.679 91.2754 103.564 91.1656 103.564 91.0558C103.564 88.6394 103.679 86.2231 103.908 83.8067C103.908 83.6969 104.023 83.587 104.137 83.587C104.252 83.587 104.367 83.6969 104.367 83.8067C104.137 86.2231 104.023 88.6394 104.023 91.0558C104.023 91.2754 103.908 91.2754 103.794 91.2754Z" fill="#636464"/>
<path d="M101.717 87.3212C101.602 87.3212 101.487 87.2114 101.487 87.1016L101.602 83.9164C101.602 83.8065 101.717 83.6967 101.831 83.6967C101.946 83.6967 102.061 83.8065 102.061 83.9164L101.946 87.1016C101.946 87.2114 101.831 87.3212 101.717 87.3212Z" fill="#636464"/>
<path d="M195.574 117.114C192.384 119.869 190.354 119.289 186.729 116.969C183.104 114.648 181.364 110.008 182.959 106.238C175.128 107.978 167.298 101.598 165.268 94.4926C163.818 89.4173 165.558 82.7471 171.213 81.587C166.428 77.6718 165.413 70.2765 169.183 65.4913C172.953 60.7061 180.784 59.2561 186.439 62.1562C185.569 55.9209 188.324 49.5406 193.544 45.6254C195.429 44.1754 197.749 43.0153 200.214 42.8703C205.29 42.7253 209.64 47.0755 210.655 51.7157C211.67 56.3559 210.365 60.9961 208.915 65.6363C212.25 63.0262 218.195 64.1862 220.515 67.6664C222.835 71.1465 221.82 76.0768 218.485 78.8319C223.705 81.587 226.896 87.0972 226.606 92.4625C226.316 97.8277 222.545 102.903 217.035 105.078C215.585 105.658 213.7 106.238 213.265 107.688C212.975 108.558 214.425 114.938 205.725 119.289C202.97 120.739 199.199 119.579 195.574 117.114Z" fill="white"/>
<path d="M203.111 120.739C200.501 120.739 197.746 119.434 195.571 118.129C192.381 120.739 190.06 120.014 186.29 117.694C182.665 115.519 180.925 111.169 181.795 107.253C181.215 107.253 180.78 107.398 180.2 107.398C172.95 107.398 166.279 101.308 164.539 94.7828C163.524 91.4477 163.959 87.5325 165.699 84.7774C166.714 83.1823 168.019 81.8772 169.759 81.2972C165.554 76.947 164.829 69.8417 168.599 65.2015C172.225 60.5613 179.765 58.8213 185.565 61.1414C185.13 55.1961 188.03 48.9608 192.96 45.1907C195.281 43.4506 197.746 42.4355 200.066 42.2905C205.721 42.1455 210.216 46.9307 211.231 51.7159C212.246 55.9211 211.231 60.2713 210.071 64.1865C211.521 63.6065 213.116 63.4615 214.856 63.6065C217.467 64.0415 219.787 65.3466 221.092 67.2316C223.412 70.7118 222.832 75.497 219.642 78.5421C224.572 81.5872 227.617 86.9525 227.327 92.4627C227.037 98.118 222.977 103.483 217.322 105.803L216.887 105.948C215.581 106.383 214.276 106.963 213.986 107.978C213.986 107.978 213.986 108.268 213.986 108.413C213.986 110.444 213.986 116.099 206.156 119.869C205.141 120.449 204.126 120.739 203.111 120.739ZM195.571 116.389C195.716 116.389 195.861 116.389 196.006 116.534C199.921 118.999 203.256 119.869 205.576 118.709C212.681 115.229 212.681 110.298 212.681 108.413C212.681 107.978 212.681 107.688 212.826 107.543C213.406 105.948 215.002 105.223 216.597 104.643L217.032 104.498C222.252 102.468 225.877 97.5379 226.167 92.4627C226.457 87.2425 223.267 82.0223 218.337 79.4122C218.192 79.2672 218.047 79.1222 217.902 78.8321C217.902 78.5421 218.047 78.3971 218.192 78.2521C221.382 75.642 222.252 71.1468 220.077 68.1016C219.062 66.5066 217.032 65.3466 214.856 65.0565C212.826 64.7665 210.796 65.2015 209.491 66.2166C209.201 66.3616 208.911 66.3616 208.621 66.2166C208.331 66.0716 208.186 65.7816 208.331 65.4915C209.636 61.2864 211.086 56.5012 210.071 52.006C209.201 47.8008 205.431 43.7406 200.646 43.7406C200.501 43.7406 200.501 43.7406 200.356 43.7406C198.326 43.8856 196.151 44.6106 193.976 46.3507C189.045 50.1209 186.29 56.3561 187.16 62.3014C187.16 62.5914 187.015 62.8814 186.87 63.0264C186.58 63.1714 186.435 63.1714 186.145 63.0264C180.78 60.2713 173.385 61.5764 169.759 66.0716C166.279 70.5668 167.149 77.382 171.645 81.1522C171.79 81.2972 171.935 81.5872 171.935 81.8772C171.935 82.1673 171.645 82.3123 171.355 82.4573C169.47 82.8923 168.019 83.9073 167.004 85.6474C165.554 88.1125 165.119 91.4477 165.989 94.4928C167.874 101.163 175.27 107.398 182.81 105.803C183.1 105.803 183.39 105.803 183.535 106.093C183.68 106.238 183.68 106.528 183.68 106.818C182.23 110.298 183.825 114.504 187.16 116.679C190.785 118.999 192.38 119.289 195.136 116.824C195.281 116.534 195.426 116.389 195.571 116.389Z" fill="#A3AEBB"/>
<path d="M195.424 139.88C194.988 139.88 194.698 139.59 194.698 139.155C194.263 114.939 193.828 89.8526 196.874 65.3465C196.874 64.9115 197.309 64.6215 197.599 64.7665C198.034 64.7665 198.324 65.2015 198.179 65.4915C195.134 89.8526 195.569 114.939 196.004 139.155C196.149 139.59 195.859 139.88 195.424 139.88Z" fill="#A3AEBB"/>
<path d="M196.568 78.9774C196.423 78.9774 196.278 78.9774 196.133 78.8324C195.843 78.6874 195.698 78.2524 195.843 77.8173C197.438 75.3522 199.178 73.0321 201.208 71.002C201.498 70.712 201.933 70.712 202.223 71.002C202.513 71.292 202.513 71.7271 202.223 72.0171C200.193 74.0472 198.453 76.2223 197.003 78.6874C197.003 78.8324 196.713 78.9774 196.568 78.9774Z" fill="#A3AEBB"/>
<path d="M195.268 100.148C194.978 100.148 194.688 100.003 194.543 99.7129C191.353 91.8825 188.163 84.6322 182.218 78.2519C181.928 77.9619 181.928 77.5269 182.218 77.2369C182.508 76.9469 182.943 76.9469 183.233 77.2369C189.468 83.9072 192.513 91.3025 195.848 99.1328C195.993 99.4229 195.848 99.8578 195.413 100.003C195.413 100.148 195.268 100.148 195.268 100.148Z" fill="#A3AEBB"/>
<path d="M189.612 88.1123C189.467 88.1123 189.322 88.1123 189.322 87.9673C186.712 86.5172 183.812 85.5022 180.911 85.2122C180.476 85.2122 180.186 84.7771 180.331 84.4871C180.331 84.0521 180.766 83.7621 181.056 83.9071C184.247 84.1971 187.292 85.3571 190.047 86.9522C190.337 87.0972 190.482 87.5322 190.337 87.9673C190.047 87.9673 189.902 88.1123 189.612 88.1123Z" fill="#A3AEBB"/>
<path d="M195.559 111.168C195.414 111.168 195.414 111.168 195.269 111.168C194.979 111.023 194.689 110.588 194.834 110.298C198.459 101.888 203.969 94.3474 210.784 88.2572C211.074 87.9672 211.509 87.9672 211.799 88.2572C212.089 88.5472 212.089 88.9822 211.799 89.2722C205.129 95.2175 199.764 102.613 196.284 110.733C196.139 110.878 195.849 111.168 195.559 111.168Z" fill="#A3AEBB"/>
<g opacity="0.1294">
<path d="M213.256 106.963C212.676 105.948 211.226 106.238 210.936 107.253C210.646 109.138 210.356 110.298 209.776 111.458C208.471 113.488 207.456 114.938 206.441 115.518C205.426 116.099 206.006 115.808 204.846 116.098C204.701 116.098 204.701 116.098 204.556 116.098C203.251 116.244 201.946 116.389 200.641 116.244C200.496 116.244 200.496 116.244 200.351 116.244C199.481 116.099 198.611 115.953 197.741 115.518C197.741 115.518 197.74 115.518 197.595 115.518C197.015 115.228 196.435 114.793 195.71 114.648C194.695 114.503 193.245 114.648 192.81 115.663C192.665 115.518 192.52 115.518 192.375 115.373C191.215 114.793 191.795 115.373 190.49 114.793C188.75 113.923 188.17 113.488 187.155 112.763C185.415 111.023 185.125 110.153 184.98 108.558C184.835 107.543 185.125 106.528 184.835 105.513C184.4 104.353 183.095 104.063 182.225 104.643C181.935 104.353 181.645 104.063 181.21 103.918C181.21 103.918 181.21 103.918 181.065 103.918C180.05 103.773 179.035 103.918 178.02 103.773C177.15 103.773 175.554 103.483 174.829 103.048C172.944 102.033 171.639 101.018 171.494 100.728C170.479 99.8578 169.464 99.1328 168.594 97.9727C168.159 97.3927 167.579 96.6677 166.854 96.6677C165.694 96.6677 165.114 98.1177 165.984 98.8428C166.709 99.5678 166.709 99.7128 167.579 100.873C168.304 101.743 169.174 102.613 169.899 103.338C171.204 104.353 172.509 105.513 174.104 106.238C175.119 106.818 176.425 106.963 177.585 107.108C178.165 107.253 178.745 107.108 179.325 107.253C180.05 107.398 180.775 107.398 181.355 107.253C181.355 111.313 182.66 114.213 186.285 116.679C187.735 117.694 191.36 119.869 192.81 118.274C193.1 117.984 193.245 117.694 193.245 117.404C193.68 117.694 194.26 117.984 194.84 117.694C194.985 117.694 194.985 117.549 195.13 117.549C195.42 117.694 196.145 118.129 196.435 118.274C198.756 119.434 201.366 119.579 203.686 118.999C205.426 118.709 207.021 118.419 208.326 117.259C209.196 116.534 209.776 115.663 210.501 114.793C211.371 113.633 212.096 112.183 212.531 110.733C212.821 110.008 212.821 109.138 212.966 108.413C213.401 108.123 213.546 107.543 213.256 106.963Z" fill="#A3AEBB"/>
</g>
<path d="M105.222 76.9932L104.678 138.977H137.32L137.728 77.1291L105.222 76.9932Z" fill="white"/>
<path d="M137.32 139.317H104.678C104.61 139.317 104.474 139.249 104.474 139.249C104.406 139.181 104.406 139.113 104.406 139.045L104.882 77.061C104.882 76.8571 105.018 76.7211 105.222 76.7211L137.728 76.8571C137.796 76.8571 137.932 76.925 137.932 76.925C138 76.993 138 77.061 138 77.1289L137.592 138.909C137.66 139.181 137.524 139.317 137.32 139.317ZM105.018 138.637H136.98L137.388 77.4687L105.562 77.3328L105.018 138.637Z" fill="#636464"/>
<path d="M117.667 96.839C115.627 96.839 113.247 96.7711 111.207 96.7031C111.207 94.6642 111.207 92.4213 111.207 90.2464C113.315 90.1105 115.423 90.1105 117.667 90.2464C117.803 92.4213 117.735 94.5282 117.667 96.839Z" fill="#D1D6DD"/>
<path d="M117.666 97.1786C116.646 97.1786 115.558 97.1786 114.47 97.1107C113.382 97.1107 112.294 97.0427 111.274 97.0427C111.07 97.0427 110.934 96.9068 110.934 96.7029V96.1592C110.934 94.2561 110.934 92.2172 110.934 90.2462C110.934 90.0423 111.07 89.9064 111.274 89.9064C113.382 89.7704 115.49 89.7704 117.802 89.9064C118.006 89.9064 118.143 90.0423 118.143 90.2462C118.211 92.2851 118.143 94.3921 118.075 96.8388C118.007 97.0427 117.87 97.1786 117.666 97.1786ZM111.546 96.431C112.498 96.431 113.45 96.431 114.47 96.499C115.422 96.499 116.442 96.567 117.326 96.567C117.394 94.3921 117.394 92.489 117.394 90.654C115.354 90.586 113.45 90.586 111.546 90.654C111.546 92.489 111.546 94.3921 111.546 96.2271V96.431Z" fill="#636464"/>
<path d="M131.132 96.8389C129.092 96.8389 126.712 96.7709 124.672 96.7029C124.672 94.664 124.672 92.4211 124.672 90.2462C126.78 90.1103 128.888 90.1103 131.132 90.2462C131.268 92.4211 131.2 94.528 131.132 96.8389Z" fill="#D1D6DD"/>
<path d="M131.132 97.1786C130.112 97.1786 129.024 97.1786 127.936 97.1107C126.848 97.1107 125.76 97.0427 124.74 97.0427C124.536 97.0427 124.4 96.9068 124.4 96.7029V96.1592C124.4 94.2561 124.4 92.2172 124.4 90.2462C124.4 90.0423 124.536 89.9064 124.74 89.9064C126.848 89.7704 128.956 89.7704 131.268 89.9064C131.472 89.9064 131.608 90.0423 131.608 90.2462C131.676 92.2851 131.608 94.3921 131.54 96.8388C131.472 97.0427 131.336 97.1786 131.132 97.1786ZM125.012 96.431C125.964 96.431 126.916 96.431 127.936 96.499C128.888 96.499 129.908 96.567 130.792 96.567C130.86 94.3921 130.86 92.489 130.86 90.654C128.82 90.586 126.916 90.586 125.012 90.654C125.012 92.489 125.012 94.3921 125.012 96.2271V96.431Z" fill="#636464"/>
<path d="M117.463 110.636C115.423 110.636 113.043 110.568 111.002 110.5C111.002 108.461 111.002 106.218 111.002 104.043C113.111 103.908 115.219 103.908 117.463 104.043C117.599 106.218 117.599 108.325 117.463 110.636Z" fill="#D1D6DD"/>
<path d="M117.463 110.976C116.443 110.976 115.355 110.976 114.267 110.908C113.179 110.908 112.091 110.84 111.07 110.84C110.866 110.84 110.73 110.704 110.73 110.5V109.956C110.73 108.053 110.73 106.014 110.73 104.043C110.73 103.839 110.866 103.703 111.07 103.703C113.179 103.567 115.287 103.567 117.599 103.703C117.803 103.703 117.939 103.839 117.939 104.043C118.007 106.082 117.939 108.189 117.871 110.636C117.803 110.84 117.667 110.976 117.463 110.976ZM111.411 110.228C112.363 110.228 113.315 110.228 114.335 110.296C115.287 110.296 116.307 110.364 117.191 110.364C117.259 108.189 117.259 106.286 117.259 104.451C115.219 104.383 113.315 104.383 111.411 104.451C111.411 106.286 111.411 108.189 111.411 110.024V110.228Z" fill="#636464"/>
<path d="M130.928 110.636C128.888 110.636 126.507 110.568 124.467 110.5C124.467 108.461 124.467 106.218 124.467 104.043C126.575 103.907 128.684 103.907 130.928 104.043C131.064 106.218 131.064 108.325 130.928 110.636Z" fill="#D1D6DD"/>
<path d="M130.928 110.976C129.908 110.976 128.82 110.976 127.732 110.908C126.643 110.908 125.555 110.84 124.535 110.84C124.331 110.84 124.195 110.704 124.195 110.5V109.956C124.195 108.053 124.195 106.014 124.195 104.043C124.195 103.839 124.331 103.703 124.535 103.703C126.643 103.567 128.752 103.567 131.064 103.703C131.268 103.703 131.404 103.839 131.404 104.043C131.472 106.082 131.404 108.189 131.336 110.636C131.268 110.84 131.132 110.976 130.928 110.976ZM124.875 110.228C125.827 110.228 126.779 110.228 127.8 110.296C128.752 110.296 129.772 110.364 130.656 110.364C130.724 108.189 130.724 106.286 130.724 104.451C128.684 104.383 126.779 104.383 124.875 104.451C124.875 106.286 124.875 108.189 124.875 110.024V110.228Z" fill="#636464"/>
<path d="M117.463 124.501C115.423 124.501 113.043 124.433 111.002 124.365C111.002 122.326 111.002 120.083 111.002 117.908C113.111 117.772 115.219 117.772 117.463 117.908C117.599 120.015 117.599 122.122 117.463 124.501Z" fill="#D1D6DD"/>
<path d="M117.463 124.841C116.443 124.841 115.355 124.841 114.267 124.773C113.179 124.773 112.091 124.705 111.07 124.705C110.866 124.705 110.73 124.569 110.73 124.365V123.821C110.73 121.918 110.73 119.879 110.73 117.908C110.73 117.704 110.866 117.568 111.07 117.568C113.179 117.432 115.287 117.432 117.599 117.568C117.803 117.568 117.939 117.704 117.939 117.908C118.007 119.947 117.939 122.054 117.871 124.501C117.803 124.637 117.667 124.841 117.463 124.841ZM111.411 124.025C112.363 124.025 113.315 124.025 114.335 124.093C115.287 124.093 116.307 124.161 117.191 124.161C117.259 121.986 117.259 120.083 117.259 118.248C115.219 118.18 113.315 118.18 111.411 118.248C111.411 120.083 111.411 121.986 111.411 123.821V124.025Z" fill="#636464"/>
<path d="M130.928 124.501C128.888 124.501 126.507 124.433 124.467 124.365C124.467 122.326 124.467 120.083 124.467 117.908C126.575 117.772 128.684 117.772 130.928 117.908C131.064 120.015 131.064 122.122 130.928 124.501Z" fill="#D1D6DD"/>
<path d="M130.928 124.841C129.908 124.841 128.82 124.841 127.732 124.773C126.643 124.773 125.555 124.705 124.535 124.705C124.331 124.705 124.195 124.569 124.195 124.365V123.821C124.195 121.918 124.195 119.879 124.195 117.908C124.195 117.704 124.331 117.568 124.535 117.568C126.643 117.432 128.752 117.432 131.064 117.568C131.268 117.568 131.404 117.704 131.404 117.908C131.472 119.947 131.404 122.054 131.336 124.501C131.268 124.637 131.132 124.841 130.928 124.841ZM124.875 124.025C125.827 124.025 126.779 124.025 127.8 124.093C128.752 124.093 129.772 124.161 130.656 124.161C130.724 121.986 130.724 120.083 130.724 118.248C128.684 118.18 126.779 118.18 124.875 118.248C124.875 120.083 124.875 121.986 124.875 123.821V124.025Z" fill="#636464"/>
<path d="M137.456 80.8671C126.575 80.5272 115.695 80.4593 105.154 80.6632C104.95 80.6632 104.814 80.5272 104.814 80.3233C104.814 80.1195 104.95 79.9835 105.154 79.9835C115.695 79.7117 126.575 79.7796 137.456 80.1874C137.66 80.1874 137.796 80.3233 137.796 80.5272C137.796 80.7311 137.66 80.8671 137.456 80.8671Z" fill="#636464"/>
<path d="M117.463 92.625L111.343 92.5571C111.275 92.5571 111.207 92.4891 111.207 92.4211C111.207 92.3531 111.275 92.2852 111.343 92.2852L117.463 92.3532C117.531 92.3532 117.599 92.4211 117.599 92.4891C117.599 92.557 117.531 92.625 117.463 92.625Z" fill="#EDEFF1"/>
<path d="M131.131 92.625C129.635 92.557 127.935 92.557 126.235 92.557C125.691 92.557 125.215 92.557 124.671 92.557C124.603 92.557 124.535 92.489 124.535 92.4211C124.535 92.3531 124.603 92.2851 124.671 92.2851C125.147 92.2851 125.691 92.2851 126.235 92.2851C127.935 92.2851 129.703 92.2851 131.199 92.3531C131.267 92.3531 131.335 92.4211 131.335 92.489C131.267 92.557 131.199 92.625 131.131 92.625Z" fill="#EDEFF1"/>
<path d="M117.327 106.15C116.443 106.15 115.423 106.15 114.403 106.15C113.383 106.15 112.295 106.15 111.343 106.15C111.275 106.15 111.207 106.082 111.207 106.014C111.207 105.946 111.275 105.946 111.343 105.878C112.295 105.946 113.315 105.878 114.403 105.878C115.423 105.878 116.511 105.878 117.395 105.878C117.463 105.878 117.531 105.946 117.531 106.014C117.395 106.15 117.395 106.15 117.327 106.15Z" fill="#EDEFF1"/>
<path d="M130.928 106.15C129.5 106.082 127.187 106.082 124.739 106.082C124.671 106.082 124.603 106.014 124.603 105.946C124.603 105.878 124.671 105.81 124.739 105.81C127.255 105.81 129.5 105.81 130.928 105.878C130.996 105.878 131.064 105.946 131.064 106.014C130.996 106.082 130.928 106.15 130.928 106.15Z" fill="#EDEFF1"/>
<path d="M114.539 119.879C113.383 119.879 112.227 119.879 111.139 119.811C111.071 119.811 111.003 119.743 111.003 119.675C111.003 119.607 111.071 119.607 111.139 119.539C112.703 119.607 114.335 119.607 115.899 119.607C116.375 119.607 116.783 119.607 117.259 119.607C117.327 119.607 117.395 119.675 117.395 119.743C117.395 119.811 117.327 119.879 117.259 119.879C116.783 119.879 116.375 119.879 115.899 119.879C115.423 119.879 114.947 119.879 114.539 119.879Z" fill="#EDEFF1"/>
<path d="M124.671 119.811C124.603 119.811 124.535 119.743 124.535 119.675C124.535 119.607 124.603 119.539 124.671 119.539C126.711 119.471 128.819 119.471 130.927 119.471C130.995 119.471 131.063 119.539 131.063 119.607C131.063 119.675 130.995 119.743 130.927 119.743C128.819 119.743 126.711 119.743 124.671 119.811Z" fill="#EDEFF1"/>
<g opacity="0.1294">
<path d="M137.048 80.4592C136.776 80.4592 136.572 80.4592 136.3 80.4592C135.416 80.4592 134.464 80.4592 133.58 80.3913C131.336 80.2553 126.439 80.1194 123.243 80.2554C120.795 80.1194 118.347 80.1194 115.899 80.0515C113.926 80.0515 111.954 80.1194 109.982 80.1194C108.554 80.1194 107.126 80.1194 105.766 80.2554C104.542 80.2554 104.542 82.2263 105.766 82.2943C107.602 82.0224 109.438 82.0904 111.274 82.0904C114.335 82.0904 117.327 82.0904 120.387 82.1584C123.583 82.2943 126.779 82.2943 129.975 82.2943C130.86 82.2943 131.744 82.4302 132.628 82.3623C133.716 82.3623 133.58 82.3623 134.532 82.3623C135.348 82.4302 136.164 82.4302 136.912 82.3623C136.844 82.3623 136.776 82.3623 136.708 82.4302C137.32 82.4982 137.932 82.2263 137.932 81.4787C137.932 80.935 137.524 80.4592 137.048 80.4592Z" fill="#636464"/>
</g>
<g clip-path="url(#clip0_13950_73437)">
<path d="M109.54 68.1673C113.39 71.9973 117.24 75.8173 121.07 79.6473C123.1 81.6673 125.14 83.6973 127.35 85.4473C128.55 86.3873 129.87 87.2873 131.32 87.2873C132.77 87.2873 134.31 86.0473 134.3 84.3973C134.3 83.0973 133.41 82.0573 132.58 81.1773C126.46 74.6473 120.06 68.4573 113.41 62.6173C112.19 64.4273 110.98 66.2373 109.53 68.1673H109.54Z" fill="white"/>
<path d="M110.27 68.1073L121.46 79.2473C123.44 81.2173 125.5 83.2773 127.69 85.0073C128.82 85.9073 130.04 86.7273 131.33 86.7273C131.95 86.7273 132.62 86.4373 133.09 85.9473C133.52 85.5173 133.76 84.9573 133.75 84.3973C133.75 83.3073 132.97 82.3973 132.18 81.5573C126.24 75.2173 119.96 69.1273 113.52 63.4573C112.51 64.9573 111.46 66.4973 110.26 68.1173L110.27 68.1073ZM131.33 87.8373C129.71 87.8373 128.3 86.8973 127.02 85.8773C124.78 84.1073 122.7 82.0373 120.69 80.0273L109.16 68.5473C108.96 68.3473 108.94 68.0373 109.1 67.8173C110.55 65.8873 111.77 64.0573 112.97 62.2973C113.06 62.1673 113.2 62.0773 113.35 62.0573C113.5 62.0373 113.66 62.0773 113.78 62.1873C120.41 67.9973 126.87 74.2573 132.99 80.7773C133.89 81.7473 134.85 82.8873 134.87 84.3673C134.87 85.2273 134.53 86.0673 133.88 86.7173C133.2 87.4073 132.25 87.8273 131.33 87.8273" fill="#636464"/>
<path d="M94.5401 68.5273C84.4901 68.5273 76.3301 60.2773 76.3301 50.1073C76.3301 39.9373 84.4801 31.6873 94.5401 31.6873C104.6 31.6873 112.75 39.9373 112.75 50.1073C112.75 60.2773 104.59 68.5273 94.5401 68.5273ZM94.5401 68.5273C84.4901 68.5273 76.3301 60.2773 76.3301 50.1073C76.3301 39.9373 84.4801 31.6873 94.5401 31.6873C104.6 31.6873 112.75 39.9373 112.75 50.1073C112.75 60.2773 104.59 68.5273 94.5401 68.5273ZM94.5401 25.8373C81.2901 25.8373 70.5601 36.6973 70.5601 50.0973C70.5601 63.4973 81.2901 74.3573 94.5401 74.3573C107.79 74.3573 118.52 63.4973 118.52 50.0973C118.52 36.6973 107.78 25.8373 94.5401 25.8373Z" fill="white"/>
<path d="M76.87 50.1073C76.87 59.9573 84.8 67.9773 94.53 67.9773C104.26 67.9773 112.19 59.9573 112.19 50.1073C112.19 40.2573 104.27 32.2373 94.54 32.2373C84.81 32.2373 76.87 40.2573 76.87 50.1073ZM94.53 69.0873C84.18 69.0873 75.77 60.5673 75.77 50.1073C75.77 39.6473 84.2 31.1173 94.54 31.1173C104.88 31.1173 113.3 39.6373 113.3 50.1073C113.3 60.5773 104.88 69.0873 94.54 69.0873H94.53ZM94.54 26.4073C81.62 26.4073 71.11 37.0473 71.11 50.1073C71.11 63.1673 81.62 73.8073 94.54 73.8073C107.46 73.8073 117.97 63.1673 117.97 50.1073C117.97 37.0473 107.45 26.4073 94.54 26.4073ZM94.54 74.9273C81.01 74.9273 70 63.7973 70 50.1073C70 36.4173 81.01 25.2873 94.54 25.2873C108.07 25.2873 119.08 36.4273 119.08 50.1073C119.08 63.7873 108.07 74.9273 94.54 74.9273Z" fill="#636464"/>
<path d="M112.64 68.8673H112.58L112.45 68.6373L112.88 67.1373C112.9 67.0373 113.01 66.9773 113.11 67.0173L113.23 67.2473L112.81 68.7473L112.63 68.8773" fill="#636464"/>
<path d="M114.65 71.4773H114.63C114.53 71.4673 114.45 71.3673 114.48 71.2673C114.71 69.5273 114.97 67.7673 115.29 66.0173C115.31 65.9173 115.41 65.8473 115.51 65.8773C115.61 65.8973 115.67 65.9873 115.66 66.0873C115.35 67.8173 115.08 69.5673 114.85 71.3073L114.66 71.4773" fill="#636464"/>
<path d="M117.27 74.0073C117.17 74.0073 117.08 73.9273 117.08 73.8173C117.08 72.9373 117.21 71.4773 117.33 70.1873C117.41 69.3973 117.46 68.7273 117.48 68.2873C117.48 68.1873 117.56 68.0973 117.68 68.1073C117.78 68.1073 117.86 68.1973 117.86 68.3073C117.84 68.7373 117.77 69.4273 117.71 70.2173C117.59 71.5073 117.46 72.9573 117.46 73.8073C117.46 73.9073 117.37 73.9973 117.27 73.9973V74.0073Z" fill="#636464"/>
<path d="M119.95 76.5173C119.85 76.5173 119.77 76.4373 119.76 76.3373L119.62 70.1373C119.62 70.0373 119.7 69.9473 119.8 69.9473C119.9 69.9473 119.99 70.0273 119.99 70.1273L120.13 76.3273C120.13 76.4273 120.05 76.5173 119.95 76.5173Z" fill="#636464"/>
<path d="M122.5 79.2573C122.4 79.2573 122.32 79.1773 122.31 79.0773L122.07 72.5873C122.07 72.4873 122.15 72.3973 122.25 72.3973C122.35 72.3973 122.44 72.4773 122.44 72.5773L122.68 79.0673C122.68 79.1673 122.6 79.2573 122.5 79.2573Z" fill="#636464"/>
<path d="M125.1 81.5673L124.91 81.3873L124.59 75.3273C124.59 75.2273 124.67 75.1373 124.77 75.1273C124.89 75.1273 124.96 75.2073 124.97 75.3073L125.29 81.3773C125.29 81.4773 125.21 81.5673 125.11 81.5773H125.1V81.5673Z" fill="#636464"/>
<path d="M127.68 83.7073L127.49 83.5273L127.04 77.6273C127.04 77.5273 127.11 77.4373 127.2 77.4273C127.3 77.4273 127.39 77.4973 127.4 77.5973L127.85 83.4973C127.85 83.5973 127.78 83.6873 127.68 83.6973H127.67L127.68 83.7073Z" fill="#636464"/>
<path d="M130.11 85.6273L129.92 85.4573L129.39 80.2773C129.38 80.1773 129.46 80.0873 129.56 80.0773C129.66 80.0773 129.75 80.1473 129.76 80.2473L130.29 85.4273C130.29 85.5273 130.22 85.6173 130.12 85.6273H130.11Z" fill="#636464"/>
<path d="M132.49 85.3473L132.3 85.1973L131.93 82.8773C131.91 82.7773 131.99 82.6773 132.08 82.6673C132.18 82.6473 132.28 82.7273 132.29 82.8173L132.66 85.1373C132.68 85.2373 132.6 85.3373 132.51 85.3473H132.49Z" fill="#636464"/>
<path d="M94.5399 67.9773C84.7999 67.9773 76.8799 59.9573 76.8799 50.1073C76.8799 49.2573 76.9299 48.4173 77.0599 47.5973C77.2399 48.2173 77.4299 48.8373 77.6499 49.4373C77.6499 50.4173 77.7599 50.8173 78.0999 51.9573C78.3299 52.7873 78.5599 53.6173 78.8599 54.4273C79.1599 55.2173 79.6499 56.9573 81.0899 58.9373C82.4299 60.5673 84.3899 62.3173 85.2699 62.9373C87.3399 64.3473 88.3099 64.8973 90.2899 65.3673C91.5699 65.6873 92.6999 65.8073 93.7199 65.8073C94.9499 65.8073 96.0099 65.6373 96.9899 65.4573C100.78 64.7473 103.03 63.9473 106.03 61.7573C106.13 61.6873 106.24 61.6573 106.34 61.6373C106.93 61.1873 107.5 60.7073 108.1 60.1573C108.79 59.4873 110.03 58.0873 110.12 57.9173C110.47 57.4973 110.71 56.9673 111.03 56.5073C108.47 63.1973 102.05 67.9573 94.5399 67.9573M79.8499 61.8873C79.8499 61.8873 79.7799 61.8173 79.7499 61.7873C78.4199 60.2773 77.6799 58.7573 77.1599 57.2873C77.8399 58.9473 78.7399 60.5073 79.8399 61.8873M109.45 61.5873C110.22 60.5673 110.89 59.4673 111.45 58.3073C111.41 58.4273 111.36 58.5673 111.32 58.6873C111.06 59.3073 110.77 59.9173 110.49 60.5273C110.22 60.8473 109.87 61.2073 109.47 61.5773" fill="#DEDEDE"/>
<path d="M93.9299 68.5773C93.2399 68.5773 92.5599 68.5173 91.8799 68.3973H91.8599C90.7599 68.2673 89.6599 68.1273 88.5899 67.8173C86.6399 67.1773 84.8799 66.0773 83.2299 64.8673C82.5399 64.2873 81.4299 63.6673 79.8399 61.9073C78.7399 60.5173 77.8399 58.9673 77.1599 57.3073C76.8899 56.5173 76.6899 55.7473 76.4899 54.9873C76.1699 52.4873 76.1299 49.9773 76.4499 47.4673H76.5299C76.6899 47.4673 76.8699 47.5073 77.0199 47.5773V47.6073C76.9099 48.4273 76.8399 49.2573 76.8399 50.1173C76.8399 59.9673 84.7699 67.9873 94.4999 67.9873C102 67.9873 108.43 63.2273 110.99 56.5373C111.13 56.3373 111.29 56.1473 111.47 55.9973C111.61 55.9073 111.77 55.8773 111.92 55.8773C112.04 55.8773 112.16 55.8973 112.27 55.9473C111.98 56.7473 111.7 57.5573 111.41 58.3573C110.85 59.5173 110.18 60.6173 109.41 61.6373C108.23 62.7673 106.59 64.0673 104.99 65.0773C104.66 65.3373 104.42 65.4973 103.72 65.9273C102 66.8473 100.1 67.4373 98.2199 67.8973C97.3099 68.1373 96.3999 68.4173 95.4599 68.5073C94.9299 68.5673 94.4199 68.5973 93.8899 68.5973" fill="#636464"/>
<path d="M110.63 70.0273C110.5 69.9273 110.38 69.8073 110.28 69.6773L110.63 70.0273Z" fill="#DEDEDE"/>
<path d="M112.32 70.1473L110.81 68.6473C112.22 67.3673 113.5 65.9373 114.58 64.3773C115.17 64.9073 115.78 65.4373 116.37 65.9873C116.35 66.0273 116.33 66.0773 116.3 66.1073C116.05 66.5273 115.74 66.9273 115.42 67.3073C115.49 66.8973 115.56 66.4873 115.63 66.0873C115.65 65.9873 115.59 65.8873 115.48 65.8773H115.45C115.36 65.8773 115.29 65.9473 115.28 66.0373C115.17 66.6473 115.07 67.2473 114.97 67.8573C114.26 68.7773 113.39 69.5673 112.38 70.1273C112.36 70.1273 112.35 70.1473 112.32 70.1573M113.05 66.9973C112.97 66.9973 112.9 67.0573 112.88 67.1273L112.45 68.6273L112.58 68.8573H112.64L112.81 68.7273L113.23 67.2273L113.11 66.9973H113.05Z" fill="#DEDEDE"/>
<path d="M111.57 70.3473C111.22 70.3473 110.9 70.2273 110.63 70.0273L110.28 69.6773C110.19 69.5673 110.12 69.4473 110.06 69.3073C110.31 69.0973 110.56 68.8773 110.82 68.6573L112.33 70.1573C112.08 70.2873 111.83 70.3573 111.58 70.3573M116.38 65.9873C115.79 65.4573 115.2 64.9073 114.59 64.3773C114.72 64.1973 114.84 64.0073 114.96 63.8273H114.99C115.12 63.8273 115.25 63.8473 115.39 63.8973C116.27 64.1273 116.74 65.1873 116.36 65.9973" fill="#636464"/>
<path d="M110.06 69.3073C109.85 68.8173 109.88 68.2273 110.29 67.7173C110.46 67.4273 110.76 67.2973 111.03 67.1173H111.05C112.37 65.8973 112.59 65.9773 113.38 65.0473L113.45 64.9673C113.82 64.3773 114.3 63.8473 114.97 63.8273C114.85 64.0173 114.72 64.1973 114.6 64.3773C113.5 65.9373 112.24 67.3673 110.83 68.6473C110.59 68.8673 110.33 69.0873 110.07 69.2973" fill="#636464"/>
<path d="M112.64 68.8673H112.58L112.45 68.6373L112.88 67.1373C112.9 67.0573 112.98 67.0073 113.06 67.0073H113.11L113.23 67.2373L112.81 68.7373L112.63 68.8673H112.64Z" fill="#636464"/>
<path d="M114.97 67.8573C115.07 67.2473 115.17 66.6373 115.28 66.0373C115.3 65.9473 115.38 65.8773 115.45 65.8773H115.48C115.58 65.8973 115.64 65.9873 115.63 66.0873C115.55 66.4873 115.49 66.8973 115.42 67.3073C115.29 67.4673 115.16 67.6073 115.03 67.7473C115.01 67.7773 114.99 67.8173 114.96 67.8473L114.97 67.8573Z" fill="#636464"/>
<path d="M91.2799 45.3273C89.6799 45.1673 88.3899 43.6673 88.2499 42.0473C88.1199 40.4273 89.0299 38.8173 90.3699 37.9073C91.7099 36.9973 93.3999 36.7173 94.9799 36.9173C97.0199 37.1773 99.0099 38.2273 100.16 39.9573C101.3 41.6873 101.44 44.1273 100.28 45.8473C99.2399 47.3773 97.2799 48.3273 96.8699 50.1373C96.5799 51.4273 97.1099 53.0073 96.1799 53.9273C95.4499 54.6473 94.1399 54.4173 93.4399 53.6573C92.7399 52.9073 92.5499 51.7973 92.5699 50.7673C92.5899 50.1673 92.6699 49.5673 92.8899 49.0073C93.7999 46.7073 96.8499 45.4473 96.8899 42.9773C96.9099 41.7973 96.0899 40.6573 94.9799 40.3073C94.0899 40.0273 92.8999 40.4173 92.7299 41.3473C92.6099 41.9773 92.9799 42.5773 93.0699 43.2073C93.1799 44.0573 92.6999 44.9573 91.2699 45.3273H91.2799Z" fill="#ACD4F7"/>
<path d="M94.3799 39.6573C94.6399 39.6573 94.8899 39.6873 95.1399 39.7673C96.4999 40.1873 97.4599 41.5373 97.4299 42.9873C97.3999 44.6173 96.2899 45.7473 95.2199 46.8373C94.4599 47.6173 93.7399 48.3373 93.3899 49.2173C93.2099 49.6473 93.1299 50.1673 93.0999 50.7973C93.0799 51.5673 93.1899 52.6173 93.8099 53.2973C94.0899 53.6073 94.5399 53.8073 94.9699 53.8173C95.1899 53.8173 95.5099 53.7773 95.7599 53.5373C96.1899 53.1173 96.1899 52.4173 96.1899 51.6073C96.1899 51.0873 96.1899 50.5573 96.2999 50.0173C96.5799 48.7273 97.5199 47.8673 98.3999 47.0373C98.9299 46.5473 99.4199 46.0673 99.7899 45.5373C100.79 44.0573 100.73 41.8973 99.6699 40.2673C98.6799 38.7673 96.8999 37.7273 94.8899 37.4773C93.2899 37.2773 91.7799 37.5973 90.6499 38.3773C89.3999 39.2273 88.6799 40.6473 88.7699 42.0073C88.8799 43.3873 89.9599 44.6073 91.1999 44.7773C92.1099 44.5073 92.5799 43.9773 92.4899 43.2973C92.4699 43.1073 92.3999 42.8973 92.3399 42.6873C92.2099 42.2673 92.0499 41.7773 92.1499 41.2573C92.2499 40.7573 92.5599 40.3173 93.0299 40.0373C93.4099 39.8073 93.8899 39.6873 94.3599 39.6873V39.6673L94.3799 39.6573ZM95.0399 54.9173H94.9699C94.2499 54.8973 93.5099 54.5773 93.0299 54.0373C92.3299 53.2873 91.9799 52.1373 92.0199 50.7473C92.0399 49.9973 92.1599 49.3473 92.3799 48.7973C92.8099 47.6973 93.6499 46.8573 94.4499 46.0473C95.4099 45.0673 96.3199 44.1473 96.3499 42.9673C96.3699 42.0373 95.7099 41.1173 94.8299 40.8373C94.4499 40.7173 93.9799 40.7673 93.6499 40.9673C93.4499 41.0873 93.3199 41.2573 93.2899 41.4473C93.2499 41.7073 93.3299 41.9973 93.4399 42.3373C93.5199 42.5973 93.5999 42.8473 93.6399 43.1373C93.7699 44.1473 93.2699 45.3973 91.4399 45.8673H91.2499C89.4299 45.7073 87.8799 44.0373 87.7299 42.0873C87.5899 40.3373 88.5199 38.5173 90.0799 37.4473C91.4299 36.5173 93.1999 36.1373 95.0699 36.3673C97.3899 36.6573 99.4799 37.8873 100.64 39.6473C101.95 41.6473 102 44.3173 100.75 46.1573C100.31 46.7973 99.7499 47.3373 99.1999 47.8473C98.3899 48.5973 97.6299 49.3073 97.4199 50.2673C97.3299 50.6673 97.3299 51.1173 97.3299 51.5973C97.3299 52.5273 97.3299 53.5873 96.5699 54.3373C96.1799 54.7273 95.6399 54.9373 95.0499 54.9373H95.0399V54.9173Z" fill="#636464"/>
<path d="M95.59 56.8573C94.82 56.5873 93.94 56.7273 93.28 57.2073C92.63 57.6973 92.24 58.5273 92.3 59.3473C92.38 60.4573 93.32 61.4473 94.42 61.5573C95.52 61.6673 96.63 60.9073 96.94 59.8273C97.25 58.7473 96.79 57.2773 95.59 56.8573Z" fill="#ACD4F7"/>
<path d="M94.78 57.2773C94.36 57.2773 93.93 57.4073 93.61 57.6573C93.11 58.0373 92.81 58.6773 92.85 59.2973C92.91 60.1473 93.64 60.9073 94.47 60.9973C95.3 61.0873 96.17 60.4873 96.4 59.6673C96.63 58.8373 96.28 57.6773 95.4 57.3873C95.2 57.3173 94.98 57.2773 94.76 57.2773H94.77H94.78ZM94.65 62.1373H94.38C93.01 61.9773 91.87 60.7873 91.77 59.3973C91.69 58.3973 92.16 57.3673 92.98 56.7673C93.77 56.1773 94.86 56.0173 95.8 56.3373C97.28 56.8573 97.88 58.6473 97.5 59.9873C97.15 61.2273 95.94 62.1273 94.67 62.1273H94.66L94.65 62.1373Z" fill="#636464"/>
<path d="M81.56 71.1573C81.38 71.0473 81.21 70.9373 81.04 70.8173C78.27 68.9573 75.88 66.5473 74.05 63.7273C74.24 63.5573 74.48 63.4273 74.74 63.3373C75.13 64.1273 75.61 64.6373 76.26 65.2773C76.93 65.9273 77.41 66.7373 78.12 67.3673C79.27 68.3673 80.47 69.3273 81.74 70.1873C81.63 70.4873 81.56 70.8073 81.56 71.1473" fill="#636464"/>
<path d="M107.17 73.7373L107.25 73.6673C107.25 73.6673 107.27 73.6573 107.28 73.6473L107.32 73.6173L107.17 73.7373Z" fill="#DEDEDE"/>
<path d="M94.5401 74.9173C93.8201 74.9173 93.1001 74.8873 92.4001 74.8273C92.1501 74.8073 91.9001 74.7873 91.6401 74.7473C91.6301 74.4173 91.6101 74.0973 91.6101 73.7573C91.7301 73.7673 91.8401 73.7873 91.9701 73.7973C92.1801 73.8173 92.3901 73.8173 92.5901 73.8173C92.9101 73.8173 93.2301 73.8073 93.5301 73.7973C94.1001 73.9473 94.6701 74.0873 95.2501 74.1373C95.8001 74.2173 96.4301 74.2473 97.1301 74.2473C99.0901 74.2473 101.51 73.9173 103.64 73.0573C104.63 72.6373 104.85 72.6473 106.07 71.8673C106.51 71.6273 106.18 71.6473 106.92 71.2973C107.01 71.2773 107.1 71.2673 107.18 71.2673H107.27C103.55 73.5673 99.1801 74.8973 94.5101 74.8973" fill="#636464"/>
<path d="M107.24 73.6673L107.27 73.6473C107.27 73.6473 107.25 73.6573 107.24 73.6673Z" fill="#C1C1C1"/>
</g>
<path d="M209.973 35.5004C221.826 35.5915 233.68 35.6826 245.624 35.7738C246.81 35.7738 248.086 35.7738 249.18 35.4093C257.843 32.402 254.469 25.4762 253.922 24.1093C253.01 21.8311 249.91 21.1021 247.63 21.9222C245.351 22.7424 243.618 24.6561 242.068 26.4787C242.707 22.3779 240.701 17.8214 237.053 15.8166C233.406 13.8118 228.3 14.5408 225.656 17.7303C223.559 20.1908 223.103 23.6537 222.738 26.8432C221.826 24.4738 220.641 22.1045 218.544 20.6464C216.447 19.1884 213.346 18.915 211.523 20.6464C209.426 22.5601 209.699 25.8408 210.064 28.5746C208.97 26.8432 206.234 26.6609 204.775 28.0278C203.316 29.3948 203.134 31.8552 204.228 33.5867C205.231 35.4093 207.237 35.5004 209.973 35.5004Z" fill="white"/>
<path d="M245.991 36.2294C245.899 36.2294 245.717 36.2294 245.626 36.2294L209.974 35.9561C207.421 35.9561 204.959 35.956 203.774 33.9512C202.497 32.0375 202.862 29.3037 204.412 27.8456C205.233 27.1166 206.509 26.7521 207.695 26.8432C208.333 26.9343 208.88 27.1166 209.427 27.4811C209.154 24.7472 209.336 22.1045 211.16 20.373C213.348 18.3682 216.63 18.915 218.728 20.373C220.46 21.6488 221.645 23.4714 222.466 25.2029C222.831 22.5601 223.469 19.7351 225.293 17.5481C228.028 14.1763 233.317 13.265 237.237 15.5432C240.611 17.4569 242.708 21.2843 242.617 25.294C243.893 23.8359 245.535 22.2867 247.541 21.5577C250.003 20.6464 253.376 21.4666 254.379 23.9271L254.47 24.1093C254.926 25.294 256.294 28.3924 254.926 31.3996C254.015 33.3133 252.191 34.8625 249.364 35.7738C248.27 36.1383 247.176 36.2294 245.991 36.2294ZM207.148 27.7545C206.327 27.7545 205.598 28.0278 204.959 28.5746C203.683 29.7593 203.409 31.9464 204.412 33.5867C205.324 35.0448 207.148 35.1359 209.883 35.227L245.535 35.5004C246.72 35.5004 247.905 35.5004 249 35.1359C251.553 34.2246 253.285 32.9488 254.015 31.2173C255.2 28.6657 253.923 25.7496 253.467 24.6561L253.376 24.4738C252.556 22.469 249.729 21.8311 247.632 22.5601C245.352 23.3803 243.711 25.294 242.252 27.0254C242.161 27.2077 241.888 27.2077 241.705 27.1166C241.523 27.0254 241.432 26.8432 241.432 26.6609C241.979 22.6513 239.973 18.3682 236.599 16.4545C233.043 14.4497 228.21 15.2698 225.748 18.2771C223.651 20.7376 223.287 24.2916 222.922 27.2077C222.922 27.3899 222.74 27.5722 222.557 27.5722C222.375 27.5722 222.192 27.4811 222.101 27.2988C221.372 25.4762 220.186 22.8335 218.089 21.2843C216.266 20.0085 213.348 19.644 211.615 21.2843C209.792 23.0158 209.883 25.9319 210.339 28.848C210.339 29.0303 210.248 29.2125 210.065 29.3037C209.883 29.3948 209.609 29.3037 209.518 29.1214C209.062 28.4835 208.333 28.0279 207.512 27.9367C207.421 27.7545 207.33 27.7545 207.148 27.7545Z" fill="#D1D6DD"/>
<g opacity="0.1294">
<path d="M252.829 31.673C252.465 31.673 252.191 31.9464 251.918 32.0375C251.553 32.3109 251.097 32.4931 250.641 32.6754H250.55C248.453 33.4955 245.717 33.2222 242.344 33.131C237.055 32.8576 231.584 32.402 226.296 32.6754C222.74 32.9488 219.184 32.9488 215.628 32.8577C212.983 32.9488 210.248 33.1311 207.604 32.9488C206.327 32.7665 206.418 32.8577 205.871 32.402C205.507 32.0375 205.598 32.1286 205.507 31.9464C205.415 31.7641 205.142 31.5819 204.868 31.4907C204.048 31.2173 203.318 32.2198 203.774 32.9488C204.139 33.5867 204.595 34.1335 205.233 34.498C205.78 34.8625 206.418 34.9536 207.148 35.0447C209.701 35.6826 212.163 35.5915 215.354 35.4093C218.09 35.4093 220.825 35.4093 223.56 35.227C223.652 35.4093 223.925 35.5004 224.199 35.5004C225.475 35.6826 226.752 35.5915 228.028 35.5915C230.308 35.5915 232.587 35.4093 234.958 35.5004C237.237 35.4093 239.517 35.8649 241.797 35.7738C242.161 35.7738 242.526 35.5004 242.617 35.1359C244.623 35.1359 246.538 35.4093 248.544 35.1359C250.003 34.9536 251.371 34.498 252.647 33.8601C253.103 33.5867 253.65 33.4044 253.741 32.8577C253.924 32.3109 253.468 31.673 252.829 31.673Z" fill="#D1D6DD"/>
</g>
<defs>
<clipPath id="clip0_13950_73437">
<rect width="64.87" height="62.55" fill="white" transform="translate(70 25.2873)"/>
</clipPath>
</defs>
</svg>
