<svg width="252" height="182" viewBox="0 0 252 182" fill="none" xmlns="http://www.w3.org/2000/svg">
<rect opacity="0.5" x="5" y="12.2569" width="246.699" height="133.715" rx="19.3309" fill="#B8D4F7"/>
<path d="M220.083 59.7715H60.0763V145.722H220.083V59.7715Z" fill="#EDEFF1"/>
<path d="M219.979 146.137H60.0722C59.7737 146.137 59.5747 145.971 59.5747 145.721V59.7709C59.5747 59.5218 59.7737 59.3557 60.0722 59.3557H219.979C220.278 59.3557 220.477 59.5218 220.477 59.7709V145.721C220.477 145.888 220.278 146.137 219.979 146.137ZM60.5698 145.306H219.581V60.1861H60.5698V145.306Z" fill="#636464"/>
<path d="M220.083 59.7715H60.0763V68.9894H220.083V59.7715Z" fill="#EDEFF1"/>
<path d="M219.979 69.321H60.0722C59.7737 69.321 59.5747 69.1549 59.5747 68.9057V59.7709C59.5747 59.5218 59.7737 59.3557 60.0722 59.3557H219.979C220.278 59.3557 220.477 59.5218 220.477 59.7709V68.9888C220.477 69.1549 220.278 69.321 219.979 69.321ZM60.5698 68.5736H219.581V60.1861H60.5698V68.5736Z" fill="#636464"/>
<g opacity="0.1294">
<path d="M218.591 68.9051C218.392 68.9051 218.193 68.9051 217.894 68.9051C217.795 68.9051 217.795 68.9051 217.795 68.9051H217.695C215.506 68.656 213.317 68.739 211.128 68.739C208.441 68.739 205.854 68.656 203.167 68.739C200.282 68.739 197.495 68.9051 194.61 68.9051C192.222 68.9051 189.833 68.9051 187.445 68.9881C183.067 69.1542 178.589 68.9051 174.211 68.9051C170.33 68.8221 166.449 68.9881 162.569 69.0712C156.2 69.0712 149.931 68.9051 143.563 69.0712C140.478 69.1542 137.294 69.3203 134.209 69.3203C131.423 69.3203 128.637 69.2373 125.851 69.2373C122.069 69.2373 118.288 69.4034 114.407 69.3203C110.925 69.1542 107.541 69.4034 104.059 69.4034C103.064 69.4034 101.969 69.4864 100.974 69.4864C100.576 69.0712 99.8793 68.9881 99.2823 68.9881C98.3867 68.9881 97.5906 68.9881 96.6951 69.0712C94.2074 69.1542 91.7197 69.1542 89.2321 69.0712C86.7444 69.0712 84.2568 68.9051 81.6696 68.9051C79.2814 68.9051 76.9928 68.9881 74.6046 68.9051C74.3061 68.739 73.8086 68.656 73.4106 68.739C72.6145 68.9051 72.2165 69.5694 72.4155 70.2338C72.4155 70.3168 72.4155 70.3168 72.4155 70.3999C72.515 70.7321 72.515 71.0642 72.515 71.4795C71.3209 71.4795 70.1268 71.4795 68.9328 71.5625C67.1416 71.5625 65.3505 71.5625 63.5594 71.5625C62.5643 71.5625 61.3702 71.3964 60.4747 71.6456C59.0816 72.0608 59.5791 73.8877 60.9722 73.8047C64.2559 73.7217 67.4401 73.8877 70.7239 73.7217C71.6194 73.7217 72.6145 73.6386 73.51 73.5556C73.51 73.5556 73.5101 73.5556 73.6096 73.5556C74.7042 73.5556 75.1022 72.8912 75.1022 72.0608V71.9777C75.1022 71.9777 75.1022 71.9777 75.1022 72.0608V71.9777C75.1022 71.8947 75.1022 71.8947 75.1022 71.8116C75.1022 71.5625 75.2017 71.3964 75.2017 71.1473C78.3859 71.3134 81.5701 71.2303 84.6548 71.2303C88.4361 71.3134 92.2173 71.3964 95.9986 71.3134C96.3966 71.3134 96.7946 71.3134 97.1926 71.3134C97.3916 71.3964 97.4912 71.3964 97.7897 71.3964C101.67 71.3964 105.452 71.3964 109.332 71.3134C111.621 71.2303 114.009 71.3964 116.298 71.3964C120.278 71.3964 124.358 71.3134 128.338 71.3134C131.522 71.3134 134.607 71.3964 137.791 71.3134C147.145 70.9812 156.499 71.3964 165.852 71.3134C168.34 71.3134 170.828 71.2303 173.315 71.3134C177.196 71.4795 182.768 71.6456 187.744 71.5625C196.003 71.6456 204.162 71.3134 212.421 71.4795C215.407 71.4795 218.392 71.5625 219.486 71.2303C221.178 70.4829 220.282 68.4899 218.591 68.9051Z" fill="#23274D"/>
</g>
<g opacity="0.1294">
<path d="M72.4063 90.9942C72.3068 90.9942 72.1078 90.9942 72.0083 90.9112C71.5107 90.9112 71.8093 90.9942 71.1128 90.9942C69.5206 90.9942 67.9285 91.0773 66.3364 91.0773C64.9433 91.0773 63.6497 90.9942 62.2566 90.9942C61.7591 90.9942 61.0626 90.8282 60.6646 91.2434C60.0675 91.7416 60.565 92.6551 61.3611 92.5721C63.2517 92.5721 65.1423 92.6551 67.0329 92.6551C68.5255 92.6551 72.1078 92.6551 71.7098 92.7382C71.9088 92.8212 72.2073 92.8212 72.4063 92.7382H72.5058C72.5058 92.7382 72.5058 92.7382 72.6054 92.7382H72.7048C72.7048 92.7382 72.7048 92.7382 72.8043 92.7382C72.8043 92.7382 72.8044 92.7382 72.9039 92.7382C73.6004 92.2399 73.3019 91.0773 72.4063 90.9942Z" fill="#23274D"/>
</g>
<path d="M149.118 121.816C146.215 121.462 143.194 123.113 141.772 125.647C140.351 128.181 140.41 131.481 141.832 134.074C142.483 135.311 143.49 136.372 144.734 136.961C145.801 137.433 146.986 137.492 148.17 137.551C149.059 137.551 150.007 137.551 150.836 137.197C151.547 136.903 152.139 136.431 152.673 135.901C154.805 133.779 155.812 130.597 155.161 127.709C154.509 124.704 152.021 122.111 149.118 121.816Z" fill="#E1ECFB"/>
<path d="M148.526 137.786C148.407 137.786 148.289 137.786 148.17 137.786C147.045 137.786 145.801 137.727 144.675 137.197C143.135 136.489 142.187 135.193 141.595 134.191C140.114 131.48 140.055 128.062 141.536 125.528C143.076 122.817 146.216 121.167 149.178 121.521C152.14 121.874 154.746 124.408 155.516 127.591C156.168 130.478 155.161 133.838 152.91 136.077C152.258 136.725 151.606 137.197 150.955 137.432C150.125 137.727 149.296 137.786 148.526 137.786ZM148.348 122.051C145.86 122.051 143.313 123.524 142.009 125.823C140.647 128.239 140.706 131.421 142.069 133.955C142.543 134.898 143.431 136.077 144.853 136.725C145.919 137.197 147.104 137.256 148.17 137.256C149 137.256 149.948 137.256 150.718 136.961C151.31 136.725 151.843 136.313 152.436 135.723C154.509 133.602 155.457 130.478 154.865 127.768C154.213 124.821 151.725 122.464 149.059 122.169C148.822 122.051 148.585 122.051 148.348 122.051Z" fill="#636464"/>
<path d="M148.051 145.506C147.874 145.506 147.756 145.388 147.756 145.211L147.697 125.941C147.697 125.764 147.815 125.646 147.992 125.646C148.169 125.646 148.287 125.764 148.287 125.941L148.346 145.211C148.287 145.388 148.169 145.506 148.051 145.506Z" fill="#636464"/>
<path d="M148.051 134.016C147.992 134.016 147.992 134.016 147.932 134.016C147.814 133.957 147.696 133.78 147.755 133.663C148.466 132.013 149.65 130.539 151.191 129.537C151.309 129.478 151.487 129.478 151.605 129.596C151.665 129.714 151.665 129.891 151.546 130.009C150.124 130.952 148.999 132.307 148.347 133.898C148.229 133.957 148.169 134.016 148.051 134.016Z" fill="#636464"/>
<path d="M142.539 128.946C142.479 128.946 142.479 128.887 142.42 128.887C142.302 128.003 142.539 127.119 143.072 126.412C143.131 126.353 143.19 126.353 143.19 126.412C143.25 126.471 143.25 126.53 143.19 126.53C142.716 127.178 142.479 128.062 142.598 128.828C142.598 128.887 142.598 128.946 142.539 128.946Z" fill="#636464"/>
<path d="M143.668 129.123C143.609 129.123 143.55 129.064 143.55 129.005L143.787 127.649C143.787 127.59 143.846 127.59 143.905 127.59C143.964 127.59 143.964 127.649 143.964 127.708L143.728 129.064C143.787 129.064 143.728 129.123 143.668 129.123Z" fill="#636464"/>
<path d="M151.544 135.075C151.544 135.075 151.485 135.075 151.485 135.016C151.426 134.957 151.485 134.898 151.485 134.898C152.137 134.426 152.611 133.778 152.907 133.012C152.907 132.953 152.966 132.953 153.025 132.953C153.085 132.953 153.085 133.012 153.085 133.071C152.729 133.837 152.255 134.544 151.544 135.075Z" fill="#636464"/>
<g opacity="0.1294">
<path d="M153.441 133.839C153.204 133.839 153.085 134.016 152.907 134.192C152.611 134.487 152.374 134.782 152.078 135.076C151.782 135.312 151.19 135.725 150.597 136.019C150.538 136.078 150.479 136.078 150.419 136.078C150.182 136.137 149.886 136.255 149.649 136.255H149.59C149.531 136.255 149.531 136.255 149.531 136.255C148.642 136.373 147.813 136.196 146.154 135.843C145.502 135.666 145.739 135.725 145.147 135.489C145.029 135.489 144.673 135.312 144.555 135.253C143.962 134.959 143.666 134.782 143.429 134.546C143.192 134.369 143.074 134.134 142.837 134.016C142.303 133.78 141.83 134.487 142.244 134.9C142.718 135.371 143.251 135.784 143.844 136.078C143.962 136.137 144.495 136.373 144.673 136.432C145.384 136.785 145.502 136.903 146.095 137.08C146.687 137.316 147.28 137.434 147.872 137.493C148.464 137.61 149.057 137.61 149.649 137.493C150.123 137.375 150.538 137.198 150.953 136.962C151.782 136.55 152.611 136.078 153.204 135.371C153.441 135.135 153.678 134.841 153.915 134.605C154.033 134.487 154.033 134.369 154.033 134.251C153.974 134.075 153.737 133.839 153.441 133.839Z" fill="#636464"/>
</g>
<path d="M160.99 144.401C171.64 144.223 182.291 144.268 192.897 144.49C192.897 136.877 193.031 129.264 193.165 121.74C189.854 121.428 186.497 121.384 183.275 121.74C183.186 118.178 183.186 114.661 183.365 111.055C179.606 111.189 175.847 111.189 172.222 110.921C171.998 108.562 171.954 106.158 172.177 103.843C168.553 103.531 164.883 103.531 161.169 103.531C160.945 117.243 160.945 130.956 160.99 144.401Z" fill="white"/>
<path d="M192.898 144.712C181.218 144.49 170.791 144.445 160.991 144.623C160.946 144.623 160.857 144.623 160.812 144.579C160.767 144.534 160.767 144.49 160.767 144.445C160.678 129.442 160.767 116.086 160.946 103.575C160.946 103.442 161.036 103.353 161.17 103.353C164.884 103.353 168.554 103.353 172.179 103.664C172.223 103.664 172.313 103.709 172.313 103.753C172.358 103.798 172.358 103.842 172.358 103.931C172.134 105.935 172.134 108.161 172.358 110.788C175.49 111.01 179.07 111.055 183.277 110.921C183.321 110.921 183.411 110.921 183.456 110.966C183.5 111.01 183.5 111.055 183.5 111.144C183.366 114.349 183.321 117.688 183.411 121.606C186.409 121.294 189.676 121.294 193.122 121.606C193.256 121.606 193.301 121.695 193.301 121.829C193.256 123.654 193.256 125.479 193.211 127.305C193.122 132.959 193.032 138.791 193.032 144.579C193.032 144.623 192.987 144.712 192.987 144.712C193.032 144.668 192.987 144.712 192.898 144.712ZM174.416 144.089C180.189 144.089 186.275 144.134 192.719 144.267C192.719 138.569 192.808 132.781 192.898 127.216C192.943 125.479 192.943 123.699 192.987 121.962C189.542 121.651 186.32 121.651 183.321 122.007C183.277 122.007 183.187 122.007 183.142 121.962C183.098 121.918 183.053 121.873 183.053 121.784C182.963 117.866 182.963 114.527 183.098 111.322C178.891 111.455 175.311 111.411 172.179 111.144C172.089 111.144 172 111.055 172 110.966C171.776 108.383 171.776 106.113 171.955 104.065C168.464 103.798 164.974 103.798 161.439 103.798C161.215 116.175 161.17 129.397 161.26 144.223C165.466 144.089 169.852 144.089 174.416 144.089Z" fill="#636464"/>
<path d="M170.473 121.609C169.13 121.609 167.564 121.564 166.266 121.52C166.266 120.229 166.266 118.849 166.266 117.513C167.653 117.424 169.041 117.424 170.518 117.513C170.518 118.849 170.518 120.14 170.473 121.609Z" fill="#B8D4F7"/>
<path d="M170.476 121.831C169.804 121.831 169.088 121.831 168.372 121.787C167.656 121.787 166.94 121.742 166.269 121.742C166.135 121.742 166.045 121.653 166.045 121.519V121.163C166.045 119.961 166.045 118.715 166.045 117.513C166.045 117.379 166.135 117.29 166.269 117.29C167.656 117.201 169.044 117.201 170.52 117.29C170.655 117.29 170.744 117.379 170.744 117.513C170.789 118.804 170.744 120.095 170.699 121.609C170.655 121.698 170.565 121.831 170.476 121.831ZM166.448 121.297C167.075 121.297 167.701 121.297 168.328 121.341C168.954 121.341 169.625 121.386 170.207 121.386C170.252 120.05 170.252 118.893 170.252 117.735C168.909 117.691 167.656 117.691 166.448 117.735C166.448 118.893 166.448 120.05 166.448 121.208V121.297Z" fill="#636464"/>
<path d="M179.29 121.609C177.948 121.609 176.382 121.564 175.084 121.52C175.084 120.229 175.084 118.849 175.084 117.513C176.471 117.424 177.858 117.424 179.335 117.513C179.38 118.849 179.335 120.14 179.29 121.609Z" fill="#B8D4F7"/>
<path d="M179.294 121.831C178.622 121.831 177.906 121.831 177.19 121.787C176.474 121.787 175.758 121.742 175.087 121.742C174.953 121.742 174.863 121.653 174.863 121.519V121.163C174.863 119.961 174.863 118.715 174.863 117.513C174.863 117.379 174.953 117.29 175.087 117.29C176.474 117.201 177.862 117.201 179.338 117.29C179.473 117.29 179.562 117.379 179.562 117.513C179.607 118.804 179.562 120.095 179.517 121.609C179.517 121.698 179.428 121.831 179.294 121.831ZM175.311 121.297C175.937 121.297 176.564 121.297 177.19 121.341C177.817 121.341 178.488 121.386 179.07 121.386C179.115 120.05 179.115 118.893 179.115 117.735C177.772 117.691 176.519 117.691 175.311 117.735C175.311 118.893 175.311 120.05 175.311 121.208V121.297Z" fill="#636464"/>
<path d="M170.339 130.155C168.997 130.155 167.43 130.11 166.133 130.066C166.133 128.775 166.133 127.394 166.133 126.059C167.52 125.97 168.907 125.97 170.384 126.059C170.429 127.394 170.384 128.73 170.339 130.155Z" fill="#B8D4F7"/>
<path d="M170.342 130.377C169.67 130.377 168.954 130.377 168.238 130.332C167.522 130.332 166.806 130.288 166.135 130.288C166.001 130.288 165.911 130.199 165.911 130.065V129.709C165.911 128.507 165.911 127.26 165.911 126.058C165.911 125.925 166.001 125.836 166.135 125.836C167.522 125.746 168.91 125.746 170.386 125.836C170.521 125.836 170.61 125.925 170.61 126.058C170.655 127.349 170.61 128.64 170.565 130.154C170.565 130.288 170.476 130.377 170.342 130.377ZM166.314 129.887C166.941 129.887 167.567 129.887 168.238 129.931C168.865 129.931 169.536 129.976 170.118 129.976C170.163 128.64 170.163 127.483 170.163 126.325C168.82 126.281 167.567 126.281 166.359 126.325C166.359 127.483 166.359 128.64 166.359 129.798L166.314 129.887Z" fill="#636464"/>
<path d="M179.148 130.155C177.805 130.155 176.239 130.11 174.941 130.066C174.941 128.775 174.941 127.394 174.941 126.059C176.329 125.97 177.716 125.97 179.193 126.059C179.237 127.394 179.237 128.73 179.148 130.155Z" fill="#B8D4F7"/>
<path d="M179.15 130.377C178.479 130.377 177.763 130.377 177.047 130.332C176.331 130.332 175.615 130.288 174.944 130.288C174.81 130.288 174.72 130.199 174.72 130.065V129.709C174.72 128.507 174.72 127.26 174.72 126.058C174.72 125.925 174.81 125.836 174.944 125.836C176.331 125.746 177.718 125.746 179.195 125.836C179.329 125.836 179.419 125.925 179.419 126.058C179.464 127.349 179.419 128.64 179.374 130.154C179.374 130.288 179.285 130.377 179.15 130.377ZM175.168 129.887C175.794 129.887 176.421 129.887 177.092 129.931C177.718 129.931 178.39 129.976 178.971 129.976C179.016 128.64 179.016 127.483 179.016 126.325C177.674 126.281 176.421 126.281 175.212 126.325C175.212 127.483 175.212 128.64 175.212 129.753L175.168 129.887Z" fill="#636464"/>
<path d="M170.339 138.747C168.997 138.747 167.43 138.703 166.133 138.658C166.133 137.367 166.133 135.987 166.133 134.651C167.52 134.562 168.907 134.562 170.384 134.651C170.429 135.987 170.384 137.278 170.339 138.747Z" fill="#B8D4F7"/>
<path d="M170.342 138.969C169.67 138.969 168.954 138.969 168.238 138.925C167.522 138.925 166.806 138.88 166.135 138.88C166.001 138.88 165.911 138.791 165.911 138.657V138.301C165.911 137.099 165.911 135.853 165.911 134.651C165.911 134.517 166.001 134.428 166.135 134.428C167.522 134.339 168.91 134.339 170.386 134.428C170.521 134.428 170.61 134.517 170.61 134.651C170.655 135.942 170.61 137.233 170.565 138.746C170.565 138.88 170.476 138.969 170.342 138.969ZM166.314 138.479C166.941 138.479 167.567 138.479 168.194 138.524C168.82 138.524 169.491 138.568 170.073 138.568C170.118 137.233 170.118 136.075 170.118 134.918C168.775 134.873 167.522 134.873 166.314 134.918C166.314 136.075 166.314 137.233 166.314 138.39V138.479Z" fill="#636464"/>
<path d="M179.148 138.747C177.805 138.747 176.239 138.703 174.941 138.658C174.941 137.367 174.941 135.987 174.941 134.651C176.329 134.562 177.716 134.562 179.193 134.651C179.237 135.987 179.237 137.278 179.148 138.747Z" fill="#B8D4F7"/>
<path d="M179.15 138.969C178.479 138.969 177.763 138.969 177.047 138.925C176.331 138.925 175.615 138.88 174.944 138.88C174.81 138.88 174.72 138.791 174.72 138.657V138.301C174.72 137.099 174.72 135.853 174.72 134.651C174.72 134.517 174.81 134.428 174.944 134.428C176.331 134.339 177.718 134.339 179.195 134.428C179.329 134.428 179.419 134.517 179.419 134.651C179.464 135.942 179.419 137.233 179.374 138.746C179.374 138.88 179.285 138.969 179.15 138.969ZM175.168 138.479C175.794 138.479 176.421 138.479 177.047 138.524C177.674 138.524 178.345 138.568 178.927 138.568C178.971 137.233 178.971 136.075 178.971 134.918C177.629 134.873 176.376 134.873 175.168 134.918C175.168 136.075 175.168 137.233 175.168 138.346V138.479Z" fill="#636464"/>
<path d="M170.347 118.981L166.319 118.937C166.274 118.937 166.23 118.892 166.23 118.848C166.23 118.803 166.274 118.759 166.319 118.759L170.347 118.803C170.391 118.803 170.436 118.848 170.436 118.892C170.436 118.937 170.391 118.981 170.347 118.981Z" fill="#636464"/>
<path d="M179.295 118.981C178.311 118.937 177.192 118.937 176.073 118.937C175.715 118.937 175.402 118.937 175.044 118.937C174.999 118.937 174.954 118.892 174.954 118.848C174.954 118.803 174.999 118.759 175.044 118.759C175.357 118.759 175.715 118.759 176.073 118.759C177.192 118.759 178.355 118.759 179.295 118.803C179.34 118.803 179.385 118.848 179.385 118.892C179.385 118.937 179.34 118.981 179.295 118.981Z" fill="#636464"/>
<path d="M170.206 127.396C169.625 127.396 168.953 127.396 168.282 127.396C167.611 127.396 166.895 127.396 166.268 127.396C166.224 127.396 166.179 127.351 166.179 127.307C166.179 127.262 166.224 127.218 166.268 127.218C166.895 127.218 167.566 127.218 168.282 127.218C168.953 127.218 169.625 127.218 170.206 127.218C170.251 127.218 170.296 127.262 170.296 127.307C170.296 127.351 170.251 127.396 170.206 127.396Z" fill="#636464"/>
<path d="M179.152 127.351C178.213 127.306 176.691 127.306 175.08 127.306C175.035 127.306 174.991 127.262 174.991 127.217C174.991 127.173 175.035 127.128 175.08 127.128C175.841 127.128 177.81 127.128 179.152 127.173C179.197 127.173 179.242 127.217 179.242 127.262C179.197 127.351 179.197 127.351 179.152 127.351Z" fill="#636464"/>
<path d="M168.372 135.898C167.612 135.898 166.851 135.898 166.135 135.853C166.09 135.853 166.045 135.809 166.045 135.764C166.045 135.72 166.09 135.675 166.135 135.675C167.164 135.72 168.238 135.72 169.267 135.72C169.581 135.72 169.849 135.72 170.162 135.72C170.207 135.72 170.252 135.764 170.252 135.809C170.252 135.853 170.207 135.898 170.162 135.898C169.849 135.898 169.581 135.898 169.267 135.898C168.999 135.898 168.686 135.898 168.372 135.898Z" fill="#636464"/>
<path d="M175.044 135.855C174.999 135.855 174.954 135.81 174.954 135.766C174.954 135.721 174.999 135.677 175.044 135.677C176.386 135.632 177.774 135.632 179.161 135.632C179.206 135.632 179.25 135.677 179.25 135.721C179.25 135.766 179.206 135.81 179.161 135.81C177.774 135.81 176.386 135.81 175.044 135.855Z" fill="#636464"/>
<path d="M188.061 130.155C186.718 130.155 185.152 130.11 183.854 130.066C183.854 128.775 183.854 127.394 183.854 126.059C185.242 125.97 186.629 125.97 188.106 126.059C188.106 127.394 188.106 128.73 188.061 130.155Z" fill="#B8D4F7"/>
<path d="M188.064 130.377C187.393 130.377 186.677 130.377 185.961 130.332C185.245 130.332 184.529 130.288 183.857 130.288C183.723 130.288 183.634 130.199 183.634 130.065V129.709C183.634 128.507 183.634 127.26 183.634 126.058C183.634 125.925 183.723 125.836 183.857 125.836C185.245 125.746 186.632 125.746 188.109 125.836C188.243 125.836 188.332 125.925 188.332 126.058C188.377 127.349 188.332 128.64 188.288 130.154C188.243 130.288 188.153 130.377 188.064 130.377ZM184.036 129.887C184.663 129.887 185.289 129.887 185.961 129.931C186.587 129.931 187.258 129.976 187.84 129.976C187.885 128.64 187.885 127.483 187.885 126.325C186.542 126.281 185.289 126.281 184.081 126.325C184.081 127.483 184.081 128.64 184.081 129.798L184.036 129.887Z" fill="#636464"/>
<path d="M188.061 138.747C186.718 138.747 185.152 138.703 183.854 138.658C183.854 137.367 183.854 135.987 183.854 134.651C185.242 134.562 186.629 134.562 188.106 134.651C188.106 135.987 188.106 137.278 188.061 138.747Z" fill="#B8D4F7"/>
<path d="M188.064 138.969C187.393 138.969 186.677 138.969 185.961 138.925C185.245 138.925 184.529 138.88 183.857 138.88C183.723 138.88 183.634 138.791 183.634 138.657V138.301C183.634 137.099 183.634 135.853 183.634 134.651C183.634 134.517 183.723 134.428 183.857 134.428C185.245 134.339 186.632 134.339 188.109 134.428C188.243 134.428 188.332 134.517 188.332 134.651C188.377 135.942 188.332 137.233 188.288 138.746C188.243 138.88 188.153 138.969 188.064 138.969ZM184.036 138.479C184.663 138.479 185.289 138.479 185.916 138.524C186.542 138.524 187.214 138.568 187.795 138.568C187.84 137.233 187.84 136.075 187.84 134.918C186.498 134.873 185.245 134.873 184.036 134.918C184.036 136.075 184.036 137.233 184.036 138.39V138.479Z" fill="#636464"/>
<path d="M188.02 127.351C187.08 127.306 185.559 127.306 183.948 127.306C183.903 127.306 183.858 127.262 183.858 127.217C183.858 127.173 183.903 127.128 183.948 127.128C184.709 127.128 186.678 127.128 188.02 127.173C188.065 127.173 188.11 127.217 188.11 127.262C188.065 127.351 188.065 127.351 188.02 127.351Z" fill="#636464"/>
<path d="M183.896 135.855C183.851 135.855 183.806 135.81 183.806 135.766C183.806 135.721 183.851 135.677 183.896 135.677C185.238 135.632 186.625 135.632 188.013 135.632C188.057 135.632 188.102 135.677 188.102 135.721C188.102 135.766 188.057 135.81 188.013 135.81C186.625 135.81 185.283 135.81 183.896 135.855Z" fill="#636464"/>
<path d="M160.048 145.112C171.504 145.112 182.289 145.023 193.298 145.112C193.611 145.112 193.611 142.664 193.611 142.664C190.031 142.931 169.49 142.352 160.003 142.797C159.959 143.465 159.914 144.266 160.048 145.112Z" fill="white"/>
<path d="M160.05 145.291C159.961 145.291 159.871 145.202 159.827 145.113C159.692 144.178 159.737 143.332 159.782 142.709C159.782 142.62 159.871 142.531 160.006 142.486C165.331 142.263 174.326 142.353 181.53 142.397C187.169 142.442 192.047 142.486 193.613 142.353C193.658 142.353 193.747 142.353 193.792 142.397C193.837 142.442 193.882 142.486 193.882 142.575C193.882 145.246 193.568 145.246 193.389 145.246C186.14 145.202 179.069 145.202 171.641 145.246C167.837 145.291 163.944 145.291 160.05 145.291ZM160.185 142.976C160.14 143.51 160.14 144.178 160.229 144.89C164.078 144.89 167.882 144.89 171.551 144.89C178.98 144.89 185.961 144.846 193.21 144.89C193.3 144.623 193.345 143.733 193.389 142.887C191.599 142.976 186.9 142.931 181.53 142.887C174.415 142.798 165.555 142.709 160.185 142.976Z" fill="#636464"/>
<path d="M162.512 108.429C162.467 108.429 162.422 108.384 162.422 108.34L162.556 104.822C162.556 104.778 162.601 104.733 162.646 104.733C162.69 104.733 162.735 104.778 162.735 104.822L162.601 108.34C162.556 108.384 162.556 108.429 162.512 108.429Z" fill="#636464"/>
<path d="M163.722 106.649C163.677 106.649 163.632 106.604 163.632 106.56L163.543 104.912C163.543 104.868 163.588 104.823 163.632 104.823C163.677 104.823 163.722 104.868 163.722 104.912L163.811 106.56C163.811 106.649 163.766 106.649 163.722 106.649Z" fill="#636464"/>
<path d="M164.747 106.202C164.702 106.202 164.658 106.158 164.658 106.113L164.568 104.956C164.568 104.911 164.613 104.867 164.658 104.867C164.702 104.867 164.747 104.911 164.747 104.956L164.836 106.113C164.836 106.158 164.791 106.202 164.747 106.202Z" fill="#636464"/>
<path d="M182.025 114.619C181.98 114.619 181.936 114.574 181.936 114.53L182.025 112.081C182.025 112.036 182.07 111.992 182.114 111.992C182.159 111.992 182.204 112.036 182.204 112.081L182.114 114.53C182.07 114.574 182.025 114.619 182.025 114.619Z" fill="#636464"/>
<path d="M181.137 113.415C181.093 113.415 181.048 113.37 181.048 113.326V112.079C181.048 112.035 181.093 111.99 181.137 111.99C181.182 111.99 181.227 112.035 181.227 112.079V113.326C181.227 113.37 181.182 113.415 181.137 113.415Z" fill="#636464"/>
<path d="M180.056 113.06C180.011 113.06 179.967 113.015 179.967 113.015C179.922 112.748 179.922 112.437 179.967 112.17C179.967 112.125 180.011 112.125 180.056 112.125C180.1 112.125 180.145 112.17 180.1 112.214C180.056 112.481 180.056 112.748 180.1 113.015C180.145 113.015 180.1 113.015 180.056 113.06Z" fill="#636464"/>
<path d="M192.052 125.704C192.008 125.704 191.963 125.66 191.963 125.615C191.963 124.636 192.008 123.656 192.097 122.677C192.097 122.632 192.141 122.588 192.186 122.588C192.231 122.588 192.275 122.632 192.275 122.677C192.186 123.656 192.141 124.636 192.141 125.615C192.141 125.704 192.097 125.704 192.052 125.704Z" fill="#636464"/>
<path d="M191.245 124.1C191.2 124.1 191.156 124.056 191.156 124.011L191.2 122.72C191.2 122.676 191.245 122.631 191.29 122.631C191.334 122.631 191.379 122.676 191.379 122.72L191.334 124.011C191.334 124.056 191.29 124.1 191.245 124.1Z" fill="#636464"/>
<path d="M208.994 142.738C208.994 129.041 208.846 113.504 208.846 98.629C208.846 98.629 207.217 93.1798 206.699 91.928C206.107 91.928 205.663 91.928 205.071 91.928C203.886 94.2108 202.628 98.7027 202.628 98.7027C201.888 111.589 201.148 129.189 200.556 141.854C200.556 142.296 200.852 142.665 201.222 142.812C201.592 142.959 201.962 142.959 202.332 142.959C203.812 143.033 207.513 143.033 208.994 142.738Z" fill="white"/>
<path d="M203.89 143.401C203.298 143.401 202.706 143.401 202.336 143.401C201.966 143.401 201.521 143.401 201.077 143.18C200.559 142.959 200.189 142.443 200.189 141.928C200.411 137.951 200.559 133.46 200.781 128.673C201.225 118.806 201.743 107.539 202.262 98.7761V98.7024C202.336 98.5551 203.594 94.2105 204.778 91.9277C204.852 91.7805 205 91.7068 205.074 91.7068C205.37 91.7068 205.666 91.7068 205.888 91.7068C206.11 91.7068 206.407 91.7068 206.703 91.7068C206.851 91.7068 206.999 91.7805 206.999 91.9277C207.295 92.6641 207.961 94.6523 208.331 95.7569C208.997 97.8188 209.145 98.4815 209.219 98.7761C209.219 106.361 209.293 114.166 209.293 121.751C209.367 129.189 209.367 136.184 209.367 142.885C209.367 143.032 209.219 143.18 209.071 143.253C207.961 143.327 205.666 143.401 203.89 143.401ZM200.929 141.854C200.929 142.149 201.151 142.37 201.373 142.517C201.669 142.664 202.04 142.664 202.336 142.664C203.742 142.664 206.999 142.738 208.627 142.517C208.627 135.89 208.627 129.041 208.553 121.677C208.479 114.166 208.479 106.361 208.479 98.7761C208.331 98.3342 206.999 93.8423 206.481 92.3696C206.259 92.3696 206.11 92.3696 205.962 92.3696C205.74 92.3696 205.592 92.3696 205.37 92.3696C204.334 94.5051 203.15 98.4079 203.002 98.8497C202.484 107.613 201.966 118.806 201.521 128.673C201.299 133.386 201.151 137.878 200.929 141.854Z" fill="#636464"/>
<path d="M216.975 141.783H193.659V145.465H216.975V141.783Z" fill="white"/>
<path d="M216.979 145.906H193.664C193.442 145.906 193.294 145.759 193.294 145.538V141.856C193.294 141.635 193.442 141.488 193.664 141.488H216.979C217.201 141.488 217.349 141.635 217.349 141.856V145.538C217.349 145.685 217.201 145.906 216.979 145.906ZM194.034 145.17H216.609V142.151H194.034V145.17Z" fill="#636464"/>
<path d="M184.275 97.5233L220.914 98.3333L221.21 102.825L179.76 103.046L184.275 97.5233Z" fill="white"/>
<path d="M179.762 103.415C179.614 103.415 179.466 103.342 179.466 103.194C179.392 103.047 179.392 102.9 179.54 102.826L184.055 97.3033C184.129 97.2296 184.203 97.156 184.351 97.156L220.99 97.966C221.212 97.966 221.36 98.1133 221.36 98.3342L221.656 102.826C221.656 102.9 221.656 103.047 221.582 103.121C221.508 103.194 221.434 103.268 221.286 103.268L179.762 103.415ZM184.425 97.8924L180.502 102.679L220.841 102.458L220.545 98.6288L184.425 97.8924Z" fill="#636464"/>
<path d="M177.015 115.419H190.116V122.194L177.089 122.415L177.015 115.419Z" fill="#B8D4F7"/>
<path d="M177.092 122.71C176.87 122.71 176.722 122.563 176.722 122.342L176.648 115.346C176.648 115.273 176.648 115.126 176.722 115.126C176.796 115.052 176.87 115.052 176.944 115.052H190.045C190.119 115.052 190.267 115.126 190.267 115.126C190.341 115.199 190.341 115.273 190.341 115.346V122.121C190.341 122.342 190.193 122.489 189.971 122.489L177.092 122.71ZM177.388 115.788L177.462 122.048L189.749 121.9V115.788H177.388Z" fill="#636464"/>
<path d="M190.114 115.861C189.966 115.861 189.892 115.787 189.818 115.64C188.337 112.989 187.079 110.191 185.747 107.245C185.229 106.14 184.785 105.036 184.267 103.931C181.75 107.908 179.529 111.59 177.457 115.272C177.383 115.419 177.161 115.492 176.939 115.419C176.791 115.345 176.717 115.124 176.791 114.903C178.937 111.074 181.306 107.171 183.97 102.974C184.044 102.827 184.192 102.827 184.267 102.827C184.415 102.827 184.489 102.9 184.563 103.048C185.229 104.447 185.821 105.699 186.339 107.024C187.671 109.97 188.93 112.768 190.41 115.419C190.484 115.566 190.41 115.787 190.262 115.934C190.262 115.787 190.188 115.861 190.114 115.861Z" fill="#636464"/>
<path d="M208.912 141.56C207.728 140.308 205.655 138.468 203.879 136.847C202.843 135.89 201.806 135.007 201.14 134.27L200.918 134.049H201.214C203.657 133.902 206.173 133.902 208.542 133.902C206.47 131.251 204.101 128.674 201.362 126.096L201.14 125.875H201.436C203.879 125.802 206.321 125.949 208.69 126.096C206.544 123.519 204.249 120.942 201.658 117.996L201.436 117.775H201.732C204.175 117.849 206.47 117.996 208.616 118.143C206.618 115.787 204.545 113.283 202.028 110.485L201.88 110.338H202.102C203.953 110.191 205.951 110.191 208.32 110.411C206.544 107.761 204.545 105.257 202.695 102.974L202.917 102.827C204.841 105.183 206.84 107.761 208.69 110.485L208.838 110.706H208.616C206.247 110.485 204.249 110.485 202.473 110.632C204.989 113.504 207.062 115.934 209.134 118.364L209.282 118.585H208.986C206.84 118.438 204.545 118.291 202.102 118.143C204.693 121.015 206.988 123.593 209.134 126.244L209.282 126.465H208.986C206.618 126.317 204.175 126.17 201.732 126.244C204.471 128.821 206.766 131.398 208.838 134.049L208.986 134.27H208.764C206.396 134.27 203.953 134.27 201.51 134.417C202.177 135.08 203.139 135.89 204.101 136.774C205.877 138.394 207.95 140.235 209.134 141.56H208.912Z" fill="#636464"/>
<path d="M181.308 101.501V101.28C194.483 100.912 207.88 100.838 221.056 101.059V101.28C207.88 101.059 194.483 101.133 181.308 101.501Z" fill="#636464"/>
<g opacity="0.1294">
<path d="M189.75 120.353C189.602 120.279 189.528 120.279 189.38 120.353C189.232 120.353 188.936 120.353 188.862 120.353C187.973 120.353 187.085 120.353 186.123 120.353C184.643 120.279 183.236 120.5 181.756 120.5C181.164 120.5 180.572 120.427 179.979 120.5C179.313 120.574 178.647 120.648 177.907 120.648C177.537 120.574 177.019 120.721 176.871 121.237C176.649 121.826 177.019 122.562 177.611 122.562C178.573 122.636 179.609 122.415 180.572 122.415C182.126 122.562 183.68 122.268 185.235 122.268C186.197 122.268 187.159 122.268 188.121 122.268C188.491 122.268 188.936 122.268 189.306 122.268C189.528 122.268 189.75 122.268 189.898 122.047C190.564 121.605 190.342 120.574 189.75 120.353Z" fill="#636464"/>
</g>
<g opacity="0.1294">
<path d="M208.547 102.974C208.399 102.9 208.325 102.827 208.177 102.827C207.585 102.827 206.993 102.9 206.475 102.9C205.217 102.974 204.032 102.9 202.774 102.9C201.738 102.9 201.738 104.741 202.774 104.815C204.032 104.815 205.365 104.815 206.623 104.815C207.141 104.815 207.659 104.741 208.177 104.741C208.251 104.741 208.399 104.741 208.473 104.668C209.066 104.373 209.066 103.269 208.547 102.974Z" fill="#636464"/>
</g>
<path d="M138.299 90.0341C146.081 90.0937 153.863 90.1532 161.705 90.2127C162.483 90.2127 163.321 90.2127 164.039 89.9746C169.726 88.0105 167.511 83.487 167.152 82.5942C166.554 81.1062 164.518 80.6301 163.022 81.1657C161.525 81.7014 160.388 82.9513 159.37 84.1417C159.789 81.4633 158.472 78.4874 156.078 77.1779C153.684 75.8685 150.331 76.3447 148.595 78.4278C147.219 80.0349 146.919 82.2966 146.68 84.3798C146.081 82.8323 145.303 81.2848 143.926 80.3325C142.549 79.3802 140.514 79.2016 139.317 80.3325C137.94 81.5824 138.12 83.7251 138.359 85.5107C137.641 84.3798 135.845 84.2608 134.887 85.1535C133.93 86.0463 133.81 87.6534 134.528 88.7842C135.187 89.9746 136.504 90.0341 138.299 90.0341Z" fill="white"/>
<path d="M161.944 90.5098C161.884 90.5098 161.765 90.5098 161.705 90.5098L138.299 90.3312C136.623 90.3312 135.007 90.3312 134.229 89.0218C133.391 87.7719 133.63 85.9863 134.648 85.034C135.187 84.5578 136.025 84.3197 136.803 84.3793C137.222 84.4388 137.581 84.5578 137.94 84.7959C137.761 83.0103 137.88 81.2843 139.078 80.1534C140.514 78.844 142.669 79.2011 144.046 80.1534C145.183 80.9867 145.962 82.177 146.5 83.3079C146.74 81.5819 147.159 79.7368 148.356 78.3083C150.152 76.1061 153.624 75.5109 156.198 76.9989C158.413 78.2488 159.789 80.7486 159.729 83.3674C160.567 82.4151 161.645 81.4033 162.962 80.9271C164.578 80.3319 166.793 80.8676 167.451 82.4746L167.511 82.5937C167.811 83.3674 168.709 85.3911 167.811 87.3552C167.212 88.6051 166.015 89.617 164.159 90.2122C163.441 90.4502 162.722 90.5098 161.944 90.5098ZM136.444 84.9745C135.905 84.9745 135.426 85.153 135.007 85.5101C134.169 86.2839 133.989 87.7123 134.648 88.7837C135.247 89.736 136.444 89.7955 138.24 89.8551L161.645 90.0336C162.423 90.0336 163.201 90.0336 163.92 89.7955C165.596 89.2003 166.733 88.3671 167.212 87.2362C167.99 85.5696 167.152 83.665 166.853 82.9508L166.793 82.8318C166.254 81.5223 164.399 81.1057 163.022 81.5819C161.525 82.1175 160.448 83.3674 159.49 84.4983C159.43 84.6173 159.251 84.6173 159.131 84.5578C159.011 84.4983 158.951 84.3793 158.951 84.2602C159.31 81.6414 157.993 78.844 155.779 77.5941C153.444 76.2846 150.271 76.8203 148.655 78.7844C147.278 80.3915 147.039 82.7127 146.8 84.6173C146.8 84.7364 146.68 84.8554 146.56 84.8554C146.44 84.8554 146.321 84.7959 146.261 84.6769C145.782 83.4865 145.004 81.7604 143.627 80.7486C142.43 79.9153 140.514 79.6772 139.377 80.7486C138.18 81.8794 138.24 83.7841 138.539 85.6887C138.539 85.8077 138.479 85.9268 138.359 85.9863C138.24 86.0458 138.06 85.9863 138 85.8672C137.701 85.4506 137.222 85.153 136.683 85.0935C136.623 84.9745 136.563 84.9745 136.444 84.9745Z" fill="#D1D6DD"/>
<g opacity="0.1294">
<path d="M166.43 87.534C166.19 87.534 166.011 87.7126 165.831 87.7721C165.592 87.9507 165.293 88.0697 164.993 88.1887H164.933C163.557 88.7244 161.761 88.5458 159.546 88.4863C156.074 88.3078 152.482 88.0102 149.01 88.1887C146.676 88.3673 144.341 88.3673 142.007 88.3078C140.271 88.3673 138.475 88.4863 136.739 88.3673C135.901 88.2483 135.961 88.3078 135.602 88.0102C135.362 87.7721 135.422 87.8316 135.362 87.7126C135.302 87.5935 135.123 87.4745 134.943 87.415C134.405 87.2364 133.926 87.8911 134.225 88.3673C134.464 88.7839 134.764 89.141 135.183 89.3791C135.542 89.6172 135.961 89.6767 136.44 89.7362C138.116 90.1529 139.732 90.0934 141.827 89.9743C143.623 89.9743 145.419 89.9743 147.215 89.8553C147.275 89.9743 147.454 90.0338 147.634 90.0338C148.472 90.1529 149.31 90.0934 150.148 90.0934C151.644 90.0934 153.141 89.9743 154.697 90.0338C156.194 89.9743 157.69 90.2719 159.187 90.2124C159.426 90.2124 159.666 90.0338 159.726 89.7958C161.042 89.7958 162.3 89.9743 163.616 89.7958C164.574 89.6767 165.472 89.3791 166.31 88.9625C166.609 88.7839 166.969 88.6649 167.028 88.3078C167.148 87.9507 166.849 87.534 166.43 87.534Z" fill="#D1D6DD"/>
</g>
<path d="M176.316 72.4379C176.373 62.5792 176.283 52.7205 176.041 42.8664C185.396 42.7533 194.86 42.7344 204.353 42.7769C204.272 49.6558 204.281 56.5395 204.376 63.4184C204.433 67.5062 204.424 71.924 201.997 75.2244C201.68 75.6535 201.324 76.0589 200.898 76.3795C199.623 77.3319 197.874 77.4027 196.168 77.049C192.618 76.422 188.955 76.7803 185.391 76.2522C183.77 76.0118 182.188 75.5922 180.609 75.1584C179.022 74.7199 177.344 74.206 176.321 72.4332" fill="white"/>
<path d="M176.553 72.3773C177.567 74.0793 179.282 74.5555 180.666 74.9375C182.249 75.3759 183.804 75.7861 185.42 76.0219C187.093 76.267 188.818 76.3189 190.491 76.3708C192.372 76.4273 194.315 76.4839 196.206 76.8187C197.533 77.0921 199.395 77.2053 200.751 76.1916C201.111 75.9229 201.443 75.5692 201.803 75.0883C204.253 71.7549 204.191 67.1344 204.135 63.4238C204.04 56.6533 204.03 49.7885 204.106 43.0132C194.14 42.9708 185.031 42.9991 176.278 43.1028C176.515 52.8154 176.605 62.6647 176.548 72.3773M197.94 77.4835C197.367 77.4835 196.756 77.4175 196.111 77.2854C194.263 76.9601 192.334 76.8988 190.472 76.847C188.789 76.7951 187.045 76.7432 185.344 76.4933C183.704 76.2529 182.069 75.8191 180.534 75.3948C179.05 74.9846 177.207 74.4754 176.102 72.5612L176.069 72.4433C176.126 62.6364 176.036 52.6881 175.794 42.8812C175.794 42.8199 175.818 42.7586 175.861 42.7115C175.903 42.6644 175.965 42.6408 176.031 42.6408C184.932 42.5323 194.192 42.504 204.348 42.5512C204.409 42.5512 204.471 42.5748 204.518 42.6219C204.561 42.6691 204.589 42.7256 204.585 42.7917C204.504 49.6423 204.514 56.5826 204.608 63.4285C204.661 67.2098 204.727 71.92 202.182 75.3806C201.798 75.904 201.433 76.2859 201.035 76.5829C200.225 77.1864 199.173 77.4929 197.94 77.4929" fill="#636464"/>
<path d="M200.699 76.5301C200.154 76.8366 199.443 76.7234 198.927 76.3792C198.405 76.0351 198.05 75.4881 197.785 74.9271C197.23 73.7719 196.988 72.4753 196.927 71.1646C188.572 70.8676 179.97 70.778 171.686 70.778C171.686 76.1011 174.463 77.1572 175.354 77.1572C179.601 77.1572 188.918 77.2798 195.628 77.3411C197.344 77.3552 199.121 77.3599 200.699 76.5301Z" fill="white"/>
<path d="M171.922 71.0197C172.003 75.8289 174.477 76.9227 175.354 76.9274C178.159 76.9274 183.259 76.984 188.192 77.0359C190.77 77.0642 193.353 77.0925 195.628 77.1113C196.789 77.1208 198.064 77.1349 199.272 76.8237C199.106 76.7624 198.945 76.6823 198.789 76.5785C198.31 76.2579 197.907 75.7534 197.561 75.0321C197.073 74.009 196.779 72.7878 196.694 71.3969C189.528 71.1423 181.42 71.0197 171.918 71.0197M196.282 77.5875C196.059 77.5875 195.841 77.5875 195.623 77.5875C193.343 77.5687 190.765 77.5404 188.182 77.5121C183.249 77.4602 178.15 77.4084 175.349 77.4036C174.264 77.4036 171.444 76.2108 171.444 70.7887C171.444 70.6567 171.548 70.553 171.681 70.553C181.387 70.553 189.647 70.6803 196.931 70.9396C197.054 70.9396 197.154 71.0433 197.158 71.1659C197.225 72.5804 197.504 73.8157 197.993 74.8341C198.301 75.4753 198.647 75.9185 199.054 76.1872C199.514 76.4937 200.092 76.5644 200.509 76.3664L200.585 76.3287C200.699 76.2674 200.841 76.3098 200.907 76.423C200.969 76.5361 200.926 76.6776 200.817 76.7436L200.722 76.7907C199.305 77.5074 197.737 77.5875 196.286 77.5875" fill="#636464"/>
<path d="M172.871 73.1979L172.814 73.1744V73.0612L174.241 71.642H174.355V71.7505L172.923 73.1744L172.871 73.1979Z" fill="#636464"/>
<path d="M173.426 74.8521L173.369 74.8285V74.7201L176.383 71.6413L176.496 71.6366V71.7498L173.482 74.8285L173.426 74.8521Z" fill="#636464"/>
<path d="M174.553 75.8662L174.496 75.8426V75.7342L178.662 71.5898H178.776V71.6983L174.61 75.8426L174.553 75.8662Z" fill="#636464"/>
<path d="M177.022 76.2192L176.97 76.2003L176.96 76.0872C178.306 74.5171 179.733 72.9801 181.202 71.5232H181.315V71.6363C179.851 73.0932 178.425 74.6256 177.083 76.1909L177.022 76.2192Z" fill="#636464"/>
<path d="M179.316 76.2575L179.264 76.2339L179.254 76.1254L183.24 71.5615L183.354 71.552L183.358 71.6652L179.378 76.2292L179.316 76.2575Z" fill="#636464"/>
<path d="M181.557 76.2907L181.505 76.2718L181.496 76.1634C182.747 74.6405 184.046 73.1318 185.354 71.6654H185.467L185.472 71.7692C184.159 73.2308 182.865 74.7395 181.614 76.2577L181.553 76.286" fill="#636464"/>
<path d="M183.524 76.3087L183.472 76.2899L183.463 76.1767C184.723 74.6585 186.017 73.1309 187.316 71.6316L187.429 71.6222L187.439 71.7353C186.145 73.2299 184.847 74.7575 183.591 76.2757L183.529 76.304" fill="#636464"/>
<path d="M185.577 76.3662L185.529 76.3474L185.515 76.2342L189.174 71.7127L189.288 71.7032L189.297 71.8117L185.638 76.3332L185.577 76.3662Z" fill="#636464"/>
<path d="M187.604 76.4413L187.552 76.4224L187.547 76.3093L191.428 71.8208L191.542 71.8113L191.547 71.9245L187.666 76.413L187.604 76.4413Z" fill="#636464"/>
<path d="M189.766 76.4133L189.714 76.3945L189.705 76.2813C190.975 74.7395 192.321 73.2308 193.714 71.8022H193.828V71.9106C192.439 73.3392 191.089 74.8433 189.823 76.3803L189.762 76.4086" fill="#636464"/>
<path d="M191.907 76.389L191.86 76.3701L191.846 76.257C193.073 74.7058 194.372 73.1782 195.708 71.7213H195.822L195.827 71.8297C194.495 73.2866 193.196 74.8095 191.974 76.356L191.912 76.389" fill="#636464"/>
<path d="M193.708 76.4233L193.656 76.3997L193.651 76.2912L196.002 73.7169L196.111 73.7122L196.116 73.8254L193.77 76.395L193.708 76.4233Z" fill="#636464"/>
<path d="M195.718 76.5882L195.67 76.574L195.656 76.4656C195.95 76.0837 196.263 75.7112 196.585 75.3576H196.699L196.703 75.466C196.381 75.8149 196.073 76.1827 195.784 76.5646L195.722 76.5976" fill="#636464"/>
<path d="M189.287 49.9494H180.24C180.107 49.9494 180.003 49.8456 180.003 49.7136C180.003 49.5816 180.112 49.4779 180.24 49.4779H189.287C189.42 49.4779 189.524 49.5816 189.524 49.7136C189.524 49.8456 189.42 49.9494 189.287 49.9494Z" fill="#636464"/>
<path d="M186.908 55.4833H180.24C180.107 55.4833 180.003 55.3796 180.003 55.2476C180.003 55.1156 180.112 55.0118 180.24 55.0118H186.908C187.041 55.0118 187.145 55.1156 187.145 55.2476C187.145 55.3796 187.041 55.4833 186.908 55.4833Z" fill="#636464"/>
<path d="M186.908 61.0243H180.24C180.107 61.0243 180.003 60.9206 180.003 60.7886C180.003 60.6566 180.112 60.5528 180.24 60.5528H186.908C187.041 60.5528 187.145 60.6566 187.145 60.7886C187.145 60.9206 187.041 61.0243 186.908 61.0243Z" fill="#636464"/>
<path d="M189.287 66.5635H180.24C180.107 66.5635 180.003 66.4598 180.003 66.3278C180.003 66.1958 180.112 66.0921 180.24 66.0921H189.287C189.42 66.0921 189.524 66.1958 189.524 66.3278C189.524 66.4598 189.42 66.5635 189.287 66.5635Z" fill="#636464"/>
<path d="M199.149 66.115C194.804 66.115 191.278 62.6071 191.278 58.2836C191.278 53.9601 194.804 50.4523 199.149 50.4523C203.495 50.4523 207.021 53.9601 207.021 58.2836C207.021 62.6071 203.495 66.115 199.149 66.115ZM199.149 66.115C194.804 66.115 191.278 62.6071 191.278 58.2836C191.278 53.9601 194.804 50.4523 199.149 50.4523C203.495 50.4523 207.021 53.9601 207.021 58.2836C207.021 62.6071 203.495 66.115 199.149 66.115ZM199.149 47.9676C193.425 47.9676 188.785 52.5834 188.785 58.2789C188.785 63.9744 193.425 68.5903 199.149 68.5903C204.874 68.5903 209.514 63.9744 209.514 58.2789C209.514 52.5834 204.874 47.9676 199.149 47.9676Z" fill="white"/>
<path d="M191.514 58.2846C191.514 62.4714 194.941 65.8802 199.149 65.8802C203.357 65.8802 206.784 62.4714 206.784 58.2846C206.784 54.0978 203.357 50.689 199.149 50.689C194.941 50.689 191.514 54.0978 191.514 58.2846ZM199.149 66.3517C194.675 66.3517 191.04 62.7307 191.04 58.2846C191.04 53.8385 194.68 50.2128 199.149 50.2128C203.618 50.2128 207.258 53.8338 207.258 58.2846C207.258 62.7354 203.618 66.3517 199.149 66.3517ZM199.149 48.2043C193.566 48.2043 189.021 52.7258 189.021 58.2799C189.021 63.834 193.566 68.3555 199.149 68.3555C204.732 68.3555 209.276 63.834 209.276 58.2799C209.276 52.7258 204.732 48.2043 199.149 48.2043ZM199.149 68.8317C193.301 68.8317 188.543 64.098 188.543 58.2799C188.543 52.4618 193.301 47.7281 199.149 47.7281C204.997 47.7281 209.755 52.4618 209.755 58.2799C209.755 64.098 204.997 68.8317 199.149 68.8317Z" fill="#636464"/>
<path d="M199.149 66.115C194.804 66.115 191.278 62.6071 191.278 58.2836C191.278 53.9601 194.804 50.4523 199.149 50.4523C203.495 50.4523 207.021 53.9601 207.021 58.2836C207.021 62.6071 203.495 66.115 199.149 66.115ZM199.149 66.115C194.804 66.115 191.278 62.6071 191.278 58.2836C191.278 53.9601 194.804 50.4523 199.149 50.4523C203.495 50.4523 207.021 53.9601 207.021 58.2836C207.021 62.6071 203.495 66.115 199.149 66.115ZM199.149 47.9676C193.425 47.9676 188.785 52.5834 188.785 58.2789C188.785 63.9744 193.425 68.5903 199.149 68.5903C204.874 68.5903 209.514 63.9744 209.514 58.2789C209.514 52.5834 204.874 47.9676 199.149 47.9676Z" fill="white"/>
<path d="M191.514 58.2846C191.514 62.4714 194.941 65.8802 199.149 65.8802C203.357 65.8802 206.784 62.4714 206.784 58.2846C206.784 54.0978 203.357 50.689 199.149 50.689C194.941 50.689 191.514 54.0978 191.514 58.2846ZM199.149 66.3517C194.675 66.3517 191.04 62.7307 191.04 58.2846C191.04 53.8385 194.68 50.2128 199.149 50.2128C203.618 50.2128 207.258 53.8338 207.258 58.2846C207.258 62.7354 203.618 66.3517 199.149 66.3517ZM199.149 48.2043C193.566 48.2043 189.021 52.7258 189.021 58.2799C189.021 63.834 193.566 68.3555 199.149 68.3555C204.732 68.3555 209.276 63.834 209.276 58.2799C209.276 52.7258 204.732 48.2043 199.149 48.2043ZM199.149 68.8317C193.301 68.8317 188.543 64.098 188.543 58.2799C188.543 52.4618 193.301 47.7281 199.149 47.7281C204.997 47.7281 209.755 52.4618 209.755 58.2799C209.755 64.098 204.997 68.8317 199.149 68.8317Z" fill="#636464"/>
<path d="M199.15 65.88C194.941 65.88 191.515 62.4712 191.515 58.2844C191.515 57.9213 191.539 57.5677 191.591 57.2188C191.667 57.4829 191.752 57.7422 191.847 58.0015C191.847 58.4164 191.894 58.5861 192.041 59.0718C192.14 59.4254 192.24 59.779 192.368 60.1232C192.496 60.4579 192.709 61.1982 193.33 62.0421C193.908 62.7352 194.756 63.4801 195.136 63.7442C196.031 64.343 196.448 64.5787 197.306 64.7767C197.861 64.9134 198.349 64.9653 198.789 64.9653C199.32 64.9653 199.78 64.8946 200.202 64.8144C201.841 64.5127 202.813 64.1732 204.112 63.2397C204.154 63.2114 204.202 63.1972 204.244 63.1878C204.5 62.9945 204.747 62.7918 205.007 62.5607C205.306 62.2778 205.841 61.6791 205.879 61.6083C206.031 61.4292 206.135 61.2029 206.273 61.0096C205.168 63.8526 202.391 65.8753 199.145 65.8753M192.794 63.2963C192.794 63.2963 192.766 63.268 192.757 63.2538C192.183 62.6126 191.861 61.9667 191.643 61.3396C191.937 62.0468 192.325 62.7069 192.799 63.2963M205.6 63.169C205.931 62.7352 206.22 62.2684 206.462 61.7734C206.443 61.8252 206.424 61.8818 206.405 61.9337C206.292 62.1977 206.168 62.457 206.045 62.7163C205.927 62.8531 205.775 63.0039 205.604 63.1642" fill="#DEDEDE"/>
<path d="M198.893 66.1354C198.595 66.1354 198.301 66.1118 198.007 66.06H197.997C197.524 66.0034 197.045 65.9468 196.585 65.8148C195.742 65.5413 194.983 65.0746 194.268 64.5606C193.969 64.3155 193.491 64.0514 192.799 63.3018C192.325 62.7124 191.936 62.0523 191.642 61.3451C191.524 61.0104 191.438 60.6803 191.353 60.3597C191.216 59.2989 191.197 58.2286 191.334 57.1631C191.344 57.1631 191.358 57.1631 191.367 57.1631C191.438 57.1631 191.514 57.1819 191.581 57.2102C191.581 57.2149 191.581 57.2196 191.581 57.2243C191.533 57.5732 191.505 57.9269 191.505 58.2899C191.505 62.4767 194.931 65.8855 199.14 65.8855C202.381 65.8855 205.163 63.8628 206.267 61.0198C206.329 60.9349 206.395 60.8548 206.476 60.7888C206.537 60.7511 206.604 60.7369 206.67 60.7369C206.722 60.7369 206.774 60.7463 206.822 60.7652C206.699 61.1047 206.575 61.4488 206.452 61.7883C206.21 62.2834 205.921 62.7501 205.59 63.1839C205.073 63.6648 204.372 64.2165 203.68 64.6455C203.537 64.754 203.433 64.8247 203.13 65.0086C202.381 65.3999 201.566 65.6498 200.751 65.8478C200.358 65.9515 199.964 66.0741 199.557 66.1071C199.329 66.1307 199.106 66.1448 198.879 66.1448" fill="#636464"/>
<path d="M206.108 66.7587C206.051 66.716 205.999 66.6638 205.956 66.6069L206.108 66.7587Z" fill="#C1C1C1"/>
<path d="M205.864 66.4464C205.774 66.2389 205.788 65.989 205.963 65.7721C206.035 65.6495 206.167 65.593 206.281 65.5175H206.29C206.859 64.9989 206.954 65.0366 207.3 64.6358L207.328 64.6028C207.489 64.353 207.698 64.1266 207.987 64.1172C207.935 64.1974 207.878 64.2728 207.826 64.353C207.352 65.0178 206.807 65.626 206.196 66.1682C206.087 66.2625 205.978 66.3568 205.869 66.4464" fill="#636464"/>
<path d="M197.599 52.9181L200.56 52.9417L199.883 59.0003L198.262 58.9767L197.599 52.9181Z" fill="#ACD4F7"/>
<path d="M198.476 58.746L199.67 58.7602L200.301 53.1778L197.869 53.159L198.476 58.746ZM199.884 59.2364L198.263 59.2128C198.144 59.2128 198.045 59.1185 198.031 59.0006L197.372 52.9374C197.362 52.8713 197.386 52.8006 197.433 52.7535C197.481 52.7016 197.542 52.6733 197.609 52.6733L200.571 52.6969C200.637 52.6969 200.703 52.7252 200.746 52.7771C200.789 52.8289 200.812 52.8949 200.803 52.9609L200.121 59.0195C200.106 59.1374 200.007 59.2317 199.884 59.2317V59.2364Z" fill="#636464"/>
<path d="M199.48 60.5328C199.149 60.4197 198.765 60.4762 198.481 60.679C198.201 60.8864 198.03 61.2401 198.059 61.5889C198.092 62.0604 198.499 62.4801 198.973 62.5272C199.447 62.5744 199.931 62.249 200.063 61.7917C200.191 61.3343 199.997 60.7073 199.48 60.5281V60.5328Z" fill="#ACD4F7"/>
<path d="M199.131 60.713C198.951 60.713 198.77 60.7695 198.628 60.8733C198.41 61.0336 198.282 61.307 198.301 61.5758C198.33 61.9341 198.642 62.2594 199.003 62.2972C199.368 62.3349 199.737 62.0803 199.837 61.7314C199.936 61.3778 199.785 60.8921 199.406 60.7601C199.32 60.7318 199.225 60.713 199.131 60.713ZM199.074 62.7734H198.955C198.368 62.7073 197.87 62.1981 197.827 61.6088C197.794 61.1845 197.998 60.746 198.349 60.4914C198.69 60.2368 199.159 60.1708 199.567 60.3075C200.206 60.5291 200.467 61.2882 200.301 61.8587C200.15 62.3867 199.628 62.7686 199.079 62.7686L199.074 62.7734Z" fill="#636464"/>
<path d="M196.277 77.1103C196.059 77.1103 195.841 77.1103 195.628 77.1103C195.221 77.1103 194.799 77.1008 194.372 77.0961C194.372 77.0961 194.358 77.0961 194.353 77.0961C193.012 77.082 191.59 77.0678 190.145 77.0537C189.595 77.0443 189.046 77.0348 188.496 77.0348C188.429 77.0348 188.358 77.0348 188.292 77.0348C188.259 77.0348 188.226 77.0348 188.192 77.0348C183.259 76.983 178.16 76.9311 175.354 76.9264C174.97 76.9264 174.278 76.7142 173.615 76.0683C173.71 75.9174 173.876 75.809 174.113 75.8042C174.24 75.8042 174.373 75.8042 174.501 75.7995V75.8467L174.558 75.8703L174.615 75.8467L174.662 75.7995C174.994 75.7995 175.326 75.7995 175.657 75.7995C176.136 75.7995 176.61 75.7995 177.089 75.8042C177.131 75.8042 177.174 75.8042 177.217 75.8042C177.131 75.9033 177.051 75.9976 176.965 76.0966L176.975 76.2097L177.027 76.2286L177.089 76.2003C177.202 76.0683 177.316 75.9363 177.43 75.8042C177.795 75.8042 178.16 75.8042 178.525 75.8042C178.866 75.8042 179.207 75.8042 179.548 75.7995L179.264 76.1249L179.273 76.238L179.326 76.2569L179.387 76.2286L179.766 75.7948C180.022 75.7948 180.278 75.7854 180.529 75.7807C180.951 75.7995 181.368 75.8137 181.79 75.8184C181.695 75.9315 181.6 76.0447 181.51 76.1579L181.52 76.2663L181.572 76.2852L181.634 76.2569C181.752 76.1107 181.875 75.9645 181.994 75.8184C182.221 75.8184 182.449 75.8184 182.676 75.8184C183.046 75.8184 183.411 75.8184 183.78 75.809C183.681 75.9315 183.577 76.0541 183.477 76.172L183.487 76.2852L183.539 76.304L183.6 76.2757C183.728 76.1201 183.856 75.9646 183.989 75.809C184.264 75.809 184.539 75.7995 184.813 75.7948C185.169 75.7948 185.524 75.7948 185.88 75.7995L185.534 76.2286L185.548 76.3417L185.595 76.3606L185.657 76.3323L186.084 75.8042C186.235 75.8042 186.382 75.8042 186.534 75.8042C187.027 75.8042 187.515 75.8042 188.008 75.7948L187.567 76.304L187.576 76.4172L187.629 76.436L187.69 76.4077L188.226 75.7901C188.344 75.7901 188.463 75.7901 188.581 75.7854C189.088 75.7948 189.6 75.809 190.107 75.8231C189.979 75.974 189.856 76.1249 189.728 76.2804L189.737 76.3936L189.79 76.4125L189.851 76.3842C190.003 76.2003 190.155 76.0164 190.311 75.8325C190.927 75.8514 191.548 75.8703 192.164 75.8891C192.064 76.0117 191.97 76.1343 191.87 76.2569L191.884 76.37L191.932 76.3889L191.993 76.3559C192.117 76.205 192.235 76.0494 192.358 75.8985C192.624 75.908 192.889 75.9174 193.154 75.9221C193.41 75.9221 193.661 75.9268 193.917 75.9268H194.003L193.671 76.2852V76.3983L193.728 76.4172L193.785 76.3889L194.211 75.9221C194.562 75.9221 194.908 75.9174 195.259 75.9127C195.543 75.9127 195.827 75.908 196.112 75.9033C195.96 76.0824 195.813 76.2663 195.671 76.4549L195.685 76.5633L195.732 76.5775L195.794 76.5445C195.96 76.3276 196.135 76.1107 196.315 75.8985C196.41 75.8985 196.505 75.8985 196.6 75.8985C196.794 75.8985 196.988 75.8985 197.178 75.8985C197.221 75.8985 197.263 75.8985 197.306 75.8985C197.609 75.8985 197.908 75.941 198.197 76.0164C198.382 76.238 198.585 76.4219 198.799 76.5633C198.95 76.6671 199.116 76.7472 199.282 76.8085C198.296 77.0631 197.268 77.1008 196.287 77.1008" fill="#DEDEDE"/>
<path d="M174.007 76.9842C173.813 76.9512 173.676 76.8427 173.6 76.706C173.738 76.8144 173.875 76.904 174.007 76.9842Z" fill="#DEDEDE"/>
<path d="M195.538 77.5597C195.4 77.5597 195.263 77.5597 195.125 77.555C195.097 77.555 195.073 77.555 195.045 77.555C195.026 77.555 195.007 77.555 194.988 77.555C194.969 77.555 194.95 77.555 194.931 77.555C194.77 77.555 194.614 77.5455 194.495 77.423C194.4 77.3334 194.362 77.2155 194.372 77.0976C194.798 77.0976 195.22 77.1071 195.628 77.1118C195.841 77.1118 196.059 77.1118 196.277 77.1118C197.253 77.1118 198.286 77.0741 199.272 76.8195C199.106 76.7582 198.945 76.678 198.789 76.5743C198.571 76.4281 198.372 76.249 198.187 76.0274C198.372 76.0745 198.557 76.1358 198.741 76.2065C198.903 76.2584 199.087 76.2772 199.211 76.3998C199.372 76.5601 199.4 76.843 199.248 77.0175C199.182 77.1165 199.064 77.1872 198.94 77.1919C198.893 77.1966 198.86 77.2014 198.831 77.2014C198.77 77.2014 198.732 77.1872 198.561 77.1636L198.609 77.1683H198.557L198.481 77.2579C198.291 77.456 197.993 77.3899 197.741 77.423C197.007 77.489 196.277 77.5503 195.538 77.5503M181.993 77.1071C179.363 77.0693 176.733 76.9892 174.107 76.9798C174.069 76.9798 174.036 76.975 174.008 76.9703C173.87 76.8902 173.733 76.8006 173.6 76.6921C173.491 76.4988 173.496 76.2442 173.614 76.0556C174.278 76.7016 174.97 76.9137 175.354 76.9137C178.159 76.9137 183.259 76.9703 188.192 77.0222C188.225 77.0222 188.258 77.0222 188.292 77.0222C188.021 77.0222 187.747 77.0222 187.476 77.0316C185.647 77.041 183.823 77.0835 181.993 77.1071ZM193.234 77.1071C193.234 77.1071 193.201 77.1071 193.182 77.1071C192.168 77.0976 191.159 77.0646 190.145 77.0458C191.59 77.0599 193.012 77.0741 194.353 77.0882C193.979 77.0976 193.609 77.1071 193.234 77.1071Z" fill="#636464"/>
<path d="M174.554 75.8663L174.496 75.8425V75.7951C174.549 75.7951 174.606 75.7951 174.658 75.7951L174.611 75.8425L174.554 75.8663Z" fill="#636464"/>
<path d="M177.022 76.2194L176.97 76.2006L176.96 76.0874C177.045 75.9884 177.126 75.8941 177.211 75.7951C177.282 75.7951 177.348 75.7951 177.419 75.7951C177.305 75.9271 177.192 76.0591 177.078 76.1911L177.017 76.2194" fill="#636464"/>
<path d="M179.316 76.2578L179.264 76.239L179.254 76.1258L179.538 75.8005C179.609 75.8005 179.68 75.8005 179.751 75.8005L179.373 76.2343L179.311 76.2626" fill="#636464"/>
<path d="M181.557 76.2907L181.505 76.2718L181.496 76.1634C181.59 76.0502 181.685 75.937 181.775 75.8239C181.841 75.8239 181.912 75.8239 181.978 75.8239C181.855 75.97 181.737 76.1162 181.619 76.2624L181.557 76.2907Z" fill="#636464"/>
<path d="M183.524 76.31L183.472 76.2911L183.463 76.178C183.562 76.0554 183.661 75.9375 183.765 75.8149C183.836 75.8149 183.902 75.8149 183.973 75.8149C183.841 75.9705 183.713 76.1261 183.586 76.2817L183.524 76.31Z" fill="#636464"/>
<path d="M185.577 76.367L185.529 76.3482L185.515 76.235L185.86 75.806C185.926 75.806 185.997 75.806 186.063 75.806L185.638 76.334L185.577 76.3623" fill="#636464"/>
<path d="M187.604 76.4417L187.552 76.4229L187.543 76.3097L187.982 75.8005C188.053 75.8005 188.124 75.8005 188.195 75.8005L187.661 76.4181L187.599 76.4464" fill="#636464"/>
<path d="M189.766 76.4132L189.714 76.3944L189.705 76.2812C189.828 76.1303 189.955 75.9795 190.083 75.8239C190.149 75.8239 190.215 75.8239 190.286 75.8286C190.135 76.0125 189.979 76.1964 189.828 76.3802L189.766 76.4085" fill="#636464"/>
<path d="M191.907 76.3886L191.86 76.3697L191.846 76.2565C191.94 76.1339 192.039 76.0114 192.139 75.8888C192.205 75.8888 192.271 75.8888 192.337 75.8935C192.214 76.0444 192.091 76.2 191.973 76.3508L191.912 76.3838" fill="#636464"/>
<path d="M193.709 76.4223L193.657 76.4035V76.2903L193.979 75.932C194.049 75.932 194.12 75.932 194.191 75.932L193.766 76.3987L193.709 76.427" fill="#636464"/>
<path d="M195.717 76.5881L195.67 76.574L195.656 76.4655C195.798 76.277 195.944 76.0931 196.096 75.9139C196.166 75.9139 196.233 75.9139 196.304 75.9139C196.124 76.1261 195.949 76.343 195.784 76.5598L195.722 76.5928" fill="#636464"/>
<path d="M204.5 68.4594C204.519 68.2283 204.538 67.9973 204.557 67.7663C204.68 67.9643 204.694 68.2283 204.5 68.4594Z" fill="#DEDEDE"/>
<path d="M199.074 69.9777H199.07C198.136 69.907 197.923 69.8787 196.932 69.6948C196.397 69.5958 195.88 69.4213 195.378 69.2092C194.52 68.8933 193.757 68.4029 193.023 67.8654C192.752 67.691 191.416 66.7339 190.947 66.0785C190.677 65.7485 190.463 65.3807 190.231 65.0271C189.999 64.6735 189.767 64.3199 189.62 63.9238L189.606 63.8955C189.473 63.6692 189.596 63.3958 189.805 63.2873C191.596 66.5924 195.112 68.8414 199.141 68.8414C200.923 68.8414 202.6 68.4029 204.074 67.6297C204.051 68.0399 204.013 68.4548 203.965 68.865C203.771 68.9687 203.562 69.0489 203.359 69.129C201.998 69.6901 200.534 69.9871 199.065 69.9871" fill="#DEDEDE"/>
<path d="M203.978 68.855C204.025 68.4448 204.058 68.0299 204.087 67.6197C204.153 67.5867 204.214 67.5537 204.276 67.5159C204.389 67.5678 204.489 67.6574 204.55 67.7658C204.536 67.9969 204.517 68.2279 204.493 68.4589C204.484 68.4731 204.47 68.4872 204.456 68.4966C204.318 68.6475 204.148 68.7607 203.973 68.8502" fill="#636464"/>
<path d="M199.149 68.8363C195.116 68.8363 191.605 66.5873 189.813 63.2822C189.87 63.2539 189.936 63.2351 190.003 63.2351C190.041 63.2351 190.083 63.2398 190.121 63.2539C190.301 63.2964 190.396 63.4567 190.472 63.6075C190.6 63.848 190.728 64.0885 190.88 64.3148C191.32 65.0173 191.794 65.5878 192.96 66.5638C193.709 67.1767 195.041 67.8886 196.334 68.3413C197.491 68.6949 197.95 68.7279 199.04 68.808C200.509 68.7609 201.239 68.6477 202.68 68.1338C202.756 68.0914 203.405 67.8886 203.599 67.6387C203.737 67.5114 203.884 67.4596 204.026 67.4596C204.116 67.4596 204.201 67.4784 204.277 67.5162C204.216 67.5492 204.149 67.5869 204.088 67.6199C202.614 68.3931 200.936 68.8316 199.154 68.8316" fill="#636464"/>
<g filter="url(#filter0_d_13597_76721)">
<rect x="5" y="5" width="125.34" height="162" rx="10.6498" fill="white"/>
<rect x="13.7004" y="100.371" width="71.8548" height="3.04839" rx="1.52419" fill="#D9D9D9"/>
<rect x="13.7004" y="108.646" width="63.1452" height="1.30645" rx="0.653226" fill="#D9D9D9"/>
<rect x="13.7004" y="114.743" width="105.387" height="1.74194" rx="0.870968" fill="#D9D9D9"/>
<rect x="13.7004" y="121.275" width="105.387" height="1.30645" rx="0.653226" fill="#D9D9D9"/>
<rect opacity="0.5" x="13.6542" y="19.572" width="105.542" height="61.8288" rx="8.27009" fill="#D1D6DD"/>
<path d="M49.9084 58.5695L49.3419 80.9769H87.9884L88.4289 58.6325L49.9084 58.5695Z" fill="white"/>
<path d="M87.9859 81.2924H49.3394C49.2765 81.2924 49.1506 81.2295 49.1506 81.2295C49.0877 81.1665 49.0876 81.1036 49.0876 80.9777L49.6541 58.5704C49.6541 58.3815 49.78 58.2556 49.9689 58.2556L88.4894 58.3186C88.5524 58.3186 88.6782 58.3815 88.6782 58.3815C88.7412 58.4445 88.7412 58.5074 88.7412 58.6333L88.3006 80.9777C88.3006 81.1036 88.1747 81.2924 87.9859 81.2924ZM49.6541 80.663H87.6712L88.1117 58.948L50.2206 58.8851L49.6541 80.663Z" fill="#A3AEBB"/>
<path d="M65.826 80.9769C54.8112 80.9769 43.2927 81.1657 32.2779 81.0398C32.2779 70.025 32.152 58.6954 31.5226 46.4217C41.5933 46.1699 54.0558 46.044 66.6443 45.9181C65.9519 58.1918 65.2595 72.8573 65.826 80.9769Z" fill="white"/>
<path d="M38.3245 81.3541C36.3103 81.3541 34.2962 81.3541 32.282 81.3541C32.0932 81.3541 31.9673 81.2282 31.9673 81.0394C31.9673 71.2834 31.9044 59.5132 31.212 46.4213C31.212 46.3583 31.212 46.2324 31.275 46.1695C31.3379 46.1066 31.4009 46.0436 31.4638 46.0436C40.9051 45.7918 52.1717 45.7289 64.1307 45.603H66.5855C66.6484 45.603 66.7743 45.666 66.8372 45.7289C66.9002 45.7918 66.9002 45.8548 66.9002 45.9807C66.2708 57.9397 65.5155 72.794 66.1449 80.9765C66.1449 81.0394 66.1449 81.1653 66.0819 81.2282C66.019 81.2912 65.9561 81.2912 65.8302 81.3541C61.1095 81.3541 56.263 81.3541 51.4794 81.4171C47.1993 81.3541 42.7304 81.3541 38.3245 81.3541ZM32.5967 80.7247C38.828 80.7876 45.2481 80.7247 51.5423 80.6618C56.1371 80.6618 60.9207 80.5988 65.5155 80.5988C64.949 72.4163 65.7043 57.9397 66.2708 46.1695H64.1307C52.2976 46.2954 41.1569 46.3583 31.7785 46.6101C32.4709 59.5762 32.5967 71.0946 32.5967 80.7247Z" fill="#A3AEBB"/>
<path d="M71.957 48.5619C55.9067 48.5619 41.493 48.8136 26.9534 48.8136C34.0029 41.2606 41.6189 32.7634 48.7943 25.2733C56.2844 32.6375 63.5227 41.1976 71.957 48.5619Z" fill="white"/>
<path d="M26.9481 49.1911C26.8222 49.1911 26.6964 49.1282 26.6964 49.0023C26.6334 48.8764 26.6964 48.7506 26.7593 48.6876C29.4029 45.8552 32.1723 42.834 34.8788 39.8757C39.4107 34.9033 44.1313 29.805 48.6002 25.1473C48.6631 25.0843 48.7261 25.0843 48.789 25.0843C48.852 25.0843 48.9779 25.0843 48.9779 25.1473C51.8732 27.9797 54.7056 30.9379 57.6639 34.085C62.2586 38.9316 66.9793 43.904 72.0776 48.4358C72.2035 48.4988 72.2035 48.6247 72.1405 48.7505C72.0776 48.8764 71.9517 48.9394 71.8258 48.9394C63.5804 48.9394 55.7756 49.0023 48.2226 49.0653C40.9842 49.1282 33.9976 49.1911 26.9481 49.1911ZM48.789 25.7767C44.3201 30.3715 39.7254 35.4068 35.2565 40.2534C32.7388 43.0228 30.0952 45.8552 27.6405 48.5617C34.5012 48.5617 41.173 48.4988 48.2855 48.4358C55.5868 48.3729 63.1398 48.31 71.0705 48.31C66.161 43.967 61.6292 39.1204 57.2233 34.4627C54.3279 31.3785 51.6214 28.5461 48.789 25.7767Z" fill="#A3AEBB"/>
<path d="M54.6918 69.1446C51.0411 69.1446 47.3905 69.0817 43.7398 69.0817C43.3622 65.3681 43.1734 61.7174 43.2363 58.0039C47.0128 57.815 50.7894 57.815 54.8176 58.0039C54.8806 61.6545 54.8806 65.1793 54.6918 69.1446Z" fill="#B8D4F7"/>
<path d="M54.6987 69.4592L43.7468 69.3963C43.6209 69.3963 43.4321 69.2704 43.4321 69.1445C42.9915 64.9274 42.8656 61.4027 42.9285 58.0667C42.9285 57.8779 43.0544 57.752 43.2432 57.752C47.0198 57.5632 50.7963 57.5632 54.8246 57.752C55.0134 57.752 55.1393 57.8779 55.1393 58.0667C55.2022 61.5915 55.1393 65.1162 55.0134 69.2075C55.0134 69.3334 54.8875 69.4592 54.6987 69.4592ZM44.0615 68.7669L54.384 68.8298C54.5099 64.9904 54.5728 61.6544 54.5099 58.3185C50.6704 58.1297 47.0827 58.1297 43.5579 58.3185C43.5579 61.4656 43.6838 64.8015 44.0615 68.7669Z" fill="#006FFD"/>
<path d="M50.8783 38.7431C49.6194 37.9248 47.7311 38.3025 46.85 39.5613C45.9688 40.8201 46.3464 42.7714 47.5423 43.6525C48.7382 44.5337 50.6894 44.219 51.5706 43.0231C52.5147 41.7643 52.3889 39.7501 50.8783 38.7431Z" fill="white"/>
<path d="M49.2326 44.4704C48.6032 44.4704 47.9108 44.2815 47.4073 43.9039C46.0226 42.8968 45.6449 40.8197 46.652 39.3721C47.5961 37.9873 49.6732 37.5467 51.0579 38.4909C51.8132 38.9944 52.2538 39.7497 52.4427 40.6309C52.6315 41.5121 52.3797 42.5192 51.8762 43.2115C51.2467 44.0298 50.2397 44.4704 49.2326 44.4704ZM49.3585 38.6168C48.4773 38.6168 47.5961 38.9944 47.1555 39.7497C46.4002 40.8827 46.7149 42.645 47.7849 43.4003C48.8549 44.2186 50.6173 43.9039 51.3726 42.8339C51.8132 42.2674 51.9391 41.5121 51.8132 40.7568C51.6874 40.0015 51.3097 39.435 50.6802 38.9944C50.3026 38.7426 49.7991 38.6168 49.3585 38.6168Z" fill="#006FFD"/>
<path d="M70.4262 81.2919C70.2374 81.2919 70.1115 81.166 70.1115 80.9772C70.2374 75.9418 70.1115 70.9694 70.0486 66.7523C70.0486 66.6893 70.0486 66.5634 70.1115 66.5005C70.1745 66.4376 70.2374 66.4376 70.3003 66.4376C74.5174 66.4376 78.9234 66.4376 83.3293 66.4376C83.3923 66.4376 83.5182 66.5005 83.5182 66.5005C83.5811 66.5634 83.5811 66.6264 83.5811 66.6893C83.5811 67.9482 83.5811 69.207 83.5811 70.4029C83.5811 74.1794 83.5811 77.7042 83.4552 80.7254C83.4552 80.9142 83.3294 81.0401 83.1405 81.0401C82.9517 81.0401 82.8258 80.9142 82.8258 80.7254C82.9517 77.7042 82.9517 74.1794 82.9517 70.4029C82.9517 69.27 82.9517 68.2 82.9517 67.0041C78.7975 67.0041 74.6433 67.0041 70.5521 67.0041C70.6151 71.1582 70.7409 76.0048 70.615 80.9142C70.7409 81.166 70.615 81.2919 70.4262 81.2919Z" fill="#A3AEBB"/>
<path d="M70.679 68.829C70.6161 68.829 70.5531 68.7661 70.5531 68.7031C70.5531 68.6402 70.6161 68.5772 70.679 68.5772C74.7702 68.3884 78.8615 68.3255 82.9527 68.3884C83.0156 68.3884 83.0785 68.4514 83.0785 68.5143C83.0785 68.5772 83.0156 68.6402 82.9527 68.6402C78.8615 68.5143 74.7702 68.5772 70.679 68.829Z" fill="#A3AEBB"/>
<path d="M73.2158 70.4038C72.3346 70.4038 71.4534 70.4038 70.5093 70.4038C70.4463 70.4038 70.3834 70.3409 70.3834 70.2779C70.3834 70.215 70.4463 70.1521 70.5093 70.1521C74.7264 70.215 79.0065 70.152 83.2236 69.9003C83.2865 69.9003 83.3495 69.9632 83.3495 70.0262C83.3495 70.0891 83.2865 70.1521 83.2236 70.1521C79.8877 70.3409 76.5517 70.4038 73.2158 70.4038Z" fill="#A3AEBB"/>
<path d="M70.4436 72.4808C70.3807 72.4808 70.3177 72.4179 70.3177 72.3549C70.3177 72.292 70.3807 72.229 70.4436 72.229C74.7237 71.9143 79.0667 71.8514 83.3468 71.9773C83.4097 71.9773 83.4727 72.0402 83.4727 72.1031C83.4727 72.1661 83.4097 72.229 83.3468 72.229C79.0667 72.0402 74.7237 72.1661 70.4436 72.4808Z" fill="#A3AEBB"/>
<path d="M70.5635 74.4326C70.5006 74.4326 70.4376 74.3696 70.4376 74.3067C70.4376 74.2437 70.5006 74.1808 70.5635 74.1808L83.3407 73.8031C83.4037 73.8031 83.4666 73.8661 83.4666 73.929C83.4666 73.992 83.4037 74.0549 83.3407 74.0549L70.5635 74.4326Z" fill="#A3AEBB"/>
<path d="M74.8496 76.0693C73.4019 76.0693 71.8913 76.0693 70.4436 76.0693C70.3807 76.0693 70.3177 76.0064 70.3177 75.9434C70.3177 75.8805 70.3807 75.8176 70.4436 75.8176C74.6608 75.8176 79.0038 75.8176 83.2209 75.7546C83.2838 75.7546 83.3468 75.8175 83.3468 75.8805C83.3468 75.9434 83.2838 76.0064 83.2209 76.0064C80.5144 76.0064 77.682 76.0693 74.8496 76.0693Z" fill="#A3AEBB"/>
<path d="M70.5093 77.704C70.4463 77.704 70.3834 77.641 70.3834 77.5781C70.3834 77.5151 70.4463 77.4522 70.5093 77.4522H83.0348C83.0977 77.4522 83.1607 77.5151 83.1607 77.5781C83.1607 77.641 83.0977 77.704 83.0348 77.704H70.5093Z" fill="#A3AEBB"/>
<path d="M76.3357 79.2771C74.4474 79.2771 72.4962 79.2141 70.6079 79.1512C70.545 79.1512 70.4821 79.0882 70.4821 79.0253C70.4821 78.9623 70.545 78.8994 70.6079 78.8994C74.8251 79.0253 79.0422 79.0253 83.2593 78.8365C83.3223 78.8365 83.3852 78.8994 83.3852 78.9624C83.3852 79.0253 83.3223 79.0882 83.2593 79.0882C80.9934 79.2141 78.6646 79.2771 76.3357 79.2771Z" fill="#A3AEBB"/>
<path d="M43.48 61.6549C43.4171 61.6549 43.3541 61.5919 43.3541 61.529C43.3541 61.4661 43.4171 61.4031 43.48 61.4031C47.1936 61.3402 50.9701 61.2772 54.7466 61.2143C54.8096 61.2143 54.8725 61.2772 54.8725 61.3402C54.8725 61.4031 54.8096 61.4661 54.7466 61.4661C51.033 61.4661 47.2565 61.529 43.48 61.6549Z" fill="#006FFD"/>
<path d="M49.0435 69.0814C48.9806 69.0814 48.9176 69.0184 48.9176 68.9555L49.1064 61.4654C49.1064 61.4024 49.1694 61.3395 49.2323 61.3395C49.2953 61.3395 49.3582 61.4024 49.3582 61.4654L49.1694 68.9555C49.1064 69.0184 49.1064 69.0814 49.0435 69.0814Z" fill="#006FFD"/>
<path d="M49.5395 44.4086C49.4765 44.4086 49.4136 44.3457 49.4136 44.2827C49.3506 42.3945 49.1618 40.4433 48.973 38.555C48.973 38.4921 49.0359 38.4291 49.0359 38.4291C49.0989 38.4291 49.1618 38.4921 49.1618 38.4921C49.3507 40.3803 49.5395 42.3315 49.6024 44.2827C49.6024 44.3457 49.6024 44.4086 49.5395 44.4086Z" fill="#006FFD"/>
<path d="M46.5164 41.3872C46.4535 41.3872 46.3905 41.3243 46.3905 41.2613C46.3905 41.1984 46.4535 41.1355 46.5164 41.1355L52.1812 40.7578C52.2441 40.7578 52.3071 40.8207 52.3071 40.8837C52.3071 40.9466 52.2441 41.0096 52.1812 41.0096L46.5164 41.3872Z" fill="#006FFD"/>
<path d="M32.6622 78.9003C32.4734 78.9003 32.3475 78.7744 32.3475 78.5855C32.3475 78.3967 32.4734 78.2708 32.6622 78.2708L65.518 77.8932C65.7068 77.8932 65.8327 78.0191 65.8327 78.2079C65.8327 78.3967 65.7068 78.5226 65.518 78.5226L32.6622 78.9003Z" fill="#006FFD"/>
<g opacity="0.1294">
<path d="M66.5972 49.8214C66.5343 49.6955 66.4713 49.5696 66.4083 49.5067C66.4083 49.0661 66.0936 48.6255 65.5901 48.6255C64.4571 48.7514 63.2612 48.6255 62.1283 48.6884C60.9953 48.6884 59.7994 48.8143 58.6665 48.9402C58.4147 48.9402 58.1629 48.9402 57.9112 49.0661C57.5965 49.0661 57.3447 49.0661 57.03 49.0661C55.1417 49.129 53.3164 49.0661 51.4281 49.0661C48.5957 49.0661 45.7634 49.129 42.931 49.129C41.2945 49.129 39.658 49.0032 38.0215 49.0661C36.1962 49.0661 34.4338 49.3179 32.6085 49.129C31.4126 49.0032 31.2867 50.8285 32.4826 50.8914C34.5597 51.0802 36.5738 50.8285 38.6509 50.8285C42.9939 51.0173 47.3369 50.8914 51.6799 50.8285C53.5052 50.8285 55.3306 50.8914 57.1559 50.8914C59.6736 51.0173 62.1912 51.1432 64.7719 51.0802C64.8978 51.0802 65.0236 51.0802 65.0866 51.0802C65.1495 51.0802 65.2125 51.0802 65.2754 51.0802C65.5272 51.1432 65.716 51.0802 65.9678 51.0802C66.4084 50.7655 66.7231 50.262 66.5972 49.8214Z" fill="#A3AEBB"/>
</g>
<g opacity="0.1294">
<path d="M83.0866 66.8161C82.8977 66.6902 82.646 66.6902 82.4571 66.6902C81.7648 66.6902 81.1354 66.6902 80.443 66.6902C79.1212 66.6902 77.7365 66.6273 76.4147 66.6273C74.7153 66.6902 73.0159 66.6902 71.3164 66.5643C70.9388 66.5643 70.5611 66.5014 70.2464 66.8161C69.7429 67.3196 70.1205 68.2638 70.8129 68.2638C72.7011 68.4526 74.6523 68.3897 76.5406 68.2638C78.3659 68.2638 80.2542 68.3897 82.0795 68.3897C82.3313 68.3897 82.646 68.4526 82.8977 68.3267C83.6531 68.1379 83.653 67.1308 83.0866 66.8161Z" fill="#A3AEBB"/>
</g>
<path d="M94.8958 73.1024C93.7716 74.0733 93.0562 73.8689 91.7786 73.0513C90.5011 72.2337 89.8879 70.5985 90.45 69.2699C87.6906 69.8831 84.9312 67.6347 84.2158 65.1307C83.7047 63.3422 84.3179 60.9916 86.3109 60.5828C84.6245 59.203 84.2669 56.5969 85.5955 54.9106C86.9241 53.2243 89.6835 52.7133 91.6764 53.7353C91.3698 51.538 92.3408 49.2895 94.1804 47.9098C94.8447 47.3988 95.6623 46.99 96.531 46.9389C98.3195 46.8878 99.8526 48.4208 100.21 50.056C100.568 51.6912 100.108 53.3265 99.597 54.9617C100.772 54.0419 102.867 54.4507 103.685 55.6771C104.503 56.9035 104.145 58.6409 102.97 59.6119C104.809 60.5828 105.934 62.5246 105.831 64.4153C105.729 66.306 104.401 68.0946 102.459 68.8611C101.948 69.0655 101.283 69.2699 101.13 69.7809C101.028 70.0875 101.539 72.3359 98.4729 73.8689C97.5019 74.3799 96.1733 73.9711 94.8958 73.1024Z" fill="white"/>
<path d="M97.5455 74.381C96.6257 74.381 95.6548 73.9211 94.8883 73.4611C93.7641 74.381 92.9465 74.1255 91.6178 73.3078C90.3403 72.5413 89.7271 71.0083 90.0337 69.6286C89.8293 69.6286 89.676 69.6797 89.4716 69.6797C86.9166 69.6797 84.566 67.5335 83.9527 65.2339C83.595 64.0586 83.7483 62.6789 84.3615 61.708C84.7192 61.1459 85.1791 60.686 85.7924 60.4816C84.3104 58.9486 84.0549 56.4446 85.3836 54.8094C86.6611 53.1742 89.3183 52.561 91.3623 53.3786C91.209 51.2835 92.231 49.0861 93.9685 47.7575C94.7861 47.1443 95.6548 46.7866 96.4724 46.7355C98.4653 46.6844 100.049 48.3707 100.407 50.057C100.765 51.539 100.407 53.072 99.9984 54.4517C100.509 54.2473 101.071 54.1962 101.685 54.2473C102.604 54.4006 103.422 54.8605 103.882 55.5248C104.7 56.7512 104.495 58.4376 103.371 59.5107C105.108 60.5838 106.182 62.4745 106.079 64.4163C105.977 66.4093 104.546 68.3 102.553 69.1176L102.4 69.1687C101.94 69.322 101.48 69.5264 101.378 69.8841C101.378 69.8841 101.378 69.9863 101.378 70.0374C101.378 70.7528 101.378 72.7457 98.6186 74.0744C98.2609 74.2788 97.9032 74.381 97.5455 74.381ZM94.8883 72.8479C94.9394 72.8479 94.9905 72.8479 95.0416 72.8991C96.4213 73.7678 97.5966 74.0744 98.4142 73.6656C100.918 72.4391 100.918 70.7017 100.918 70.0374C100.918 69.8841 100.918 69.7819 100.969 69.7308C101.174 69.1687 101.736 68.9132 102.298 68.7088L102.451 68.6577C104.291 67.9423 105.568 66.2049 105.671 64.4163C105.773 62.5767 104.649 60.7371 102.911 59.8173C102.86 59.7662 102.809 59.7151 102.758 59.6129C102.758 59.5107 102.809 59.4596 102.86 59.4085C103.984 58.4886 104.291 56.9045 103.524 55.8314C103.167 55.2693 102.451 54.8605 101.685 54.7583C100.969 54.6561 100.254 54.8094 99.794 55.1671C99.6918 55.2182 99.5896 55.2182 99.4874 55.1671C99.3852 55.116 99.3341 55.0138 99.3852 54.9116C99.8451 53.4297 100.356 51.7434 99.9984 50.1592C99.6918 48.6773 98.3631 47.2465 96.6768 47.2465C96.6257 47.2465 96.6257 47.2465 96.5746 47.2465C95.8592 47.2976 95.0927 47.5531 94.3262 48.1663C92.5888 49.4949 91.6178 51.6923 91.9244 53.7874C91.9244 53.8896 91.8734 53.9918 91.8223 54.0429C91.7201 54.094 91.669 54.094 91.5668 54.0429C89.676 53.072 87.0699 53.5319 85.7924 55.116C84.5659 56.7001 84.8726 59.1019 86.4567 60.4305C86.5078 60.4816 86.5589 60.5838 86.5589 60.686C86.5589 60.7882 86.4567 60.8393 86.3545 60.8904C85.6902 61.0437 85.1792 61.4014 84.8215 62.0146C84.3105 62.8833 84.1571 64.0586 84.4637 65.1317C85.1281 67.4824 87.7342 69.6797 90.3914 69.1176C90.4936 69.1176 90.5958 69.1176 90.6469 69.2198C90.698 69.2709 90.698 69.3731 90.698 69.4753C90.187 70.7017 90.7491 72.1836 91.9244 72.9501C93.202 73.7677 93.7641 73.87 94.735 73.0012C94.7861 72.899 94.8372 72.8479 94.8883 72.8479Z" fill="#A3AEBB"/>
<path d="M94.8413 81.1268C94.688 81.1268 94.5858 81.0246 94.5858 80.8713C94.4325 72.3375 94.2792 63.4971 95.3523 54.8611C95.3523 54.7078 95.5056 54.6056 95.6078 54.6567C95.7611 54.6567 95.8633 54.81 95.8122 54.9122C94.7391 63.4971 94.8924 72.3375 95.0457 80.8713C95.0968 81.0246 94.9946 81.1268 94.8413 81.1268Z" fill="#A3AEBB"/>
<path d="M95.2513 59.6639C95.2002 59.6639 95.1491 59.6639 95.098 59.6128C94.9958 59.5617 94.9447 59.4084 94.9958 59.2551C95.5579 58.3864 96.1711 57.5687 96.8865 56.8533C96.9887 56.7511 97.142 56.7511 97.2442 56.8533C97.3464 56.9555 97.3464 57.1088 97.2442 57.211C96.5288 57.9264 95.9156 58.693 95.4046 59.5617C95.4046 59.6128 95.3024 59.6639 95.2513 59.6639Z" fill="#A3AEBB"/>
<path d="M94.7818 67.1244C94.6796 67.1244 94.5774 67.0733 94.5263 66.9711C93.4021 64.2116 92.2779 61.6566 90.1827 59.4081C90.0805 59.3059 90.0805 59.1527 90.1827 59.0505C90.2849 58.9483 90.4382 58.9483 90.5404 59.0505C92.7378 61.4011 93.8109 64.0072 94.9862 66.7667C95.0373 66.8689 94.9862 67.0222 94.8329 67.0733C94.8329 67.1244 94.7818 67.1244 94.7818 67.1244Z" fill="#A3AEBB"/>
<path d="M92.781 62.8831C92.7299 62.8831 92.6788 62.8831 92.6788 62.832C91.759 62.321 90.737 61.9633 89.715 61.8611C89.5617 61.8611 89.4595 61.7078 89.5106 61.6056C89.5106 61.4523 89.6639 61.3501 89.7661 61.4012C90.8903 61.5034 91.9634 61.9122 92.9343 62.4743C93.0365 62.5254 93.0876 62.6787 93.0365 62.832C92.9343 62.832 92.8832 62.8831 92.781 62.8831Z" fill="#A3AEBB"/>
<path d="M94.8881 71.0092C94.837 71.0092 94.837 71.0092 94.7859 71.0092C94.6837 70.9581 94.5815 70.8048 94.6326 70.7026C95.9101 67.7388 97.852 65.0816 100.254 62.9353C100.356 62.8331 100.509 62.8331 100.611 62.9353C100.714 63.0375 100.714 63.1908 100.611 63.293C98.2607 65.3882 96.37 67.9943 95.1436 70.8559C95.0925 70.907 94.9903 71.0092 94.8881 71.0092Z" fill="#A3AEBB"/>
<g opacity="0.1294">
<path d="M101.135 69.5255C100.93 69.1678 100.419 69.27 100.317 69.6277C100.215 70.292 100.113 70.7008 99.9084 71.1096C99.4485 71.825 99.0908 72.336 98.7331 72.5404C98.3754 72.7448 98.5798 72.6426 98.171 72.7448C98.1199 72.7448 98.1199 72.7448 98.0688 72.7448C97.6089 72.7959 97.149 72.847 96.6891 72.7959C96.638 72.7959 96.638 72.7959 96.5869 72.7959C96.2803 72.7448 95.9737 72.6937 95.6671 72.5404C95.6671 72.5404 95.667 72.5404 95.6159 72.5404C95.4115 72.4382 95.2071 72.2849 94.9516 72.2338C94.5939 72.1827 94.0829 72.2338 93.9296 72.5915C93.8785 72.5404 93.8274 72.5404 93.7763 72.4893C93.3675 72.2849 93.5719 72.4893 93.112 72.2849C92.4988 71.9783 92.2944 71.825 91.9367 71.5695C91.3235 70.9563 91.2213 70.6497 91.1702 70.0876C91.1191 69.7299 91.2213 69.3722 91.1191 69.0145C90.9658 68.6057 90.5059 68.5035 90.1993 68.7079C90.0971 68.6057 89.9949 68.5035 89.8416 68.4524C89.8416 68.4524 89.8416 68.4524 89.7905 68.4524C89.4328 68.4013 89.0751 68.4524 88.7173 68.4013C88.4107 68.4013 87.8486 68.2991 87.5931 68.1458C86.9288 67.7881 86.4689 67.4304 86.4178 67.3282C86.0601 67.0216 85.7024 66.7661 85.3958 66.3573C85.2425 66.1529 85.0381 65.8974 84.7826 65.8974C84.3738 65.8974 84.1694 66.4084 84.476 66.6639C84.7315 66.9194 84.7315 66.9705 85.0381 67.3793C85.2936 67.6859 85.6002 67.9925 85.8557 68.248C86.3156 68.6057 86.7755 69.0145 87.3376 69.27C87.6953 69.4744 88.1552 69.5255 88.5641 69.5766C88.7685 69.6277 88.9729 69.5766 89.1773 69.6277C89.4328 69.6788 89.6883 69.6788 89.8927 69.6277C89.8927 71.0585 90.3526 72.0805 91.6301 72.9492C92.1411 73.3069 93.4186 74.0735 93.9296 73.5114C94.0318 73.4092 94.0829 73.3069 94.0829 73.2047C94.2362 73.3069 94.4406 73.4092 94.645 73.307C94.6961 73.307 94.6961 73.2558 94.7472 73.2558C94.8494 73.307 95.1049 73.4603 95.2071 73.5114C96.0248 73.9202 96.9446 73.9713 97.7622 73.7669C98.3754 73.6647 98.9375 73.5625 99.3974 73.1537C99.704 72.8982 99.9084 72.5915 100.164 72.2849C100.471 71.8761 100.726 71.3651 100.879 70.8541C100.982 70.5986 100.982 70.292 101.033 70.0365C101.186 69.9343 101.237 69.7299 101.135 69.5255Z" fill="#A3AEBB"/>
</g>
<rect x="13.7004" y="133.905" width="35.9414" height="20.3648" rx="5.07492" fill="#EAF2FF"/>
<path d="M23.7146 146.587V141.077H25.781C26.2043 141.077 26.5594 141.156 26.8464 141.314C27.1352 141.472 27.3531 141.689 27.5002 141.965C27.6491 142.239 27.7235 142.551 27.7235 142.901C27.7235 143.255 27.6491 143.568 27.5002 143.843C27.3513 144.117 27.1316 144.333 26.841 144.491C26.5505 144.647 26.1926 144.725 25.7675 144.725H24.398V143.905H25.633C25.8805 143.905 26.0832 143.862 26.241 143.776C26.3989 143.69 26.5155 143.571 26.5908 143.42C26.6679 143.27 26.7065 143.097 26.7065 142.901C26.7065 142.706 26.6679 142.533 26.5908 142.385C26.5155 142.236 26.398 142.12 26.2384 142.038C26.0805 141.953 25.8769 141.911 25.6276 141.911H24.7128V146.587H23.7146ZM30.291 146.668C29.8874 146.668 29.5376 146.579 29.2417 146.402C28.9457 146.224 28.7161 145.976 28.5529 145.656C28.3915 145.337 28.3107 144.964 28.3107 144.537C28.3107 144.11 28.3915 143.736 28.5529 143.415C28.7161 143.094 28.9457 142.845 29.2417 142.667C29.5376 142.49 29.8874 142.401 30.291 142.401C30.6946 142.401 31.0443 142.49 31.3403 142.667C31.6362 142.845 31.8649 143.094 32.0264 143.415C32.1896 143.736 32.2712 144.11 32.2712 144.537C32.2712 144.964 32.1896 145.337 32.0264 145.656C31.8649 145.976 31.6362 146.224 31.3403 146.402C31.0443 146.579 30.6946 146.668 30.291 146.668ZM30.2964 145.888C30.5152 145.888 30.6981 145.828 30.8452 145.707C30.9923 145.585 31.1017 145.422 31.1735 145.218C31.247 145.013 31.2838 144.785 31.2838 144.534C31.2838 144.281 31.247 144.053 31.1735 143.848C31.1017 143.642 30.9923 143.478 30.8452 143.356C30.6981 143.234 30.5152 143.173 30.2964 143.173C30.0721 143.173 29.8856 143.234 29.7367 143.356C29.5896 143.478 29.4793 143.642 29.4058 143.848C29.334 144.053 29.2982 144.281 29.2982 144.534C29.2982 144.785 29.334 145.013 29.4058 145.218C29.4793 145.422 29.5896 145.585 29.7367 145.707C29.8856 145.828 30.0721 145.888 30.2964 145.888ZM36.3642 143.547L35.4763 143.644C35.4512 143.554 35.4073 143.47 35.3445 143.391C35.2835 143.312 35.201 143.248 35.097 143.2C34.9929 143.151 34.8656 143.127 34.7149 143.127C34.5122 143.127 34.3418 143.171 34.2037 143.259C34.0674 143.347 34.0001 143.461 34.0019 143.601C34.0001 143.721 34.0441 143.819 34.1337 143.894C34.2252 143.969 34.3759 144.031 34.5857 144.08L35.2907 144.23C35.6817 144.315 35.9723 144.448 36.1624 144.631C36.3543 144.814 36.4512 145.054 36.453 145.35C36.4512 145.61 36.375 145.839 36.2243 146.038C36.0754 146.236 35.8682 146.39 35.6028 146.501C35.3373 146.612 35.0324 146.668 34.688 146.668C34.1822 146.668 33.775 146.562 33.4665 146.35C33.158 146.137 32.9741 145.84 32.9149 145.46L33.8647 145.368C33.9077 145.555 33.9992 145.696 34.1391 145.791C34.279 145.886 34.4611 145.933 34.6853 145.933C34.9167 145.933 35.1023 145.886 35.2422 145.791C35.3839 145.696 35.4548 145.578 35.4548 145.438C35.4548 145.32 35.4091 145.222 35.3176 145.145C35.2279 145.068 35.088 145.009 34.8979 144.968L34.1929 144.82C33.7965 144.737 33.5033 144.598 33.3131 144.403C33.123 144.205 33.0288 143.956 33.0306 143.655C33.0288 143.4 33.0979 143.179 33.2378 142.993C33.3795 142.804 33.5759 142.659 33.827 142.557C34.0799 142.453 34.3714 142.401 34.7014 142.401C35.1857 142.401 35.5669 142.504 35.8449 142.71C36.1247 142.916 36.2978 143.195 36.3642 143.547ZM39.3198 142.455V143.208H36.944V142.455H39.3198ZM37.5305 141.464H38.5045V145.344C38.5045 145.475 38.5242 145.576 38.5637 145.646C38.605 145.714 38.6588 145.76 38.7251 145.785C38.7915 145.811 38.865 145.823 38.9458 145.823C39.0068 145.823 39.0624 145.819 39.1126 145.81C39.1646 145.801 39.2041 145.793 39.231 145.785L39.3951 146.547C39.3431 146.565 39.2686 146.585 39.1718 146.606C39.0767 146.628 38.9601 146.64 38.822 146.644C38.5781 146.651 38.3583 146.614 38.1628 146.533C37.9673 146.451 37.8122 146.324 37.6974 146.151C37.5844 145.979 37.5287 145.764 37.5305 145.506V141.464Z" fill="#006FFD"/>
</g>
<path d="M137.5 34.8154C137.872 33.7373 137.925 32.5123 137.075 31.6792C136.224 30.8462 135.002 30.4542 133.832 30.0622C124.423 26.975 114.96 23.9369 105.55 20.8498C104.275 20.4577 102.892 20.3107 102.042 21.0948C100.766 22.3198 100.234 24.7699 99.5964 26.583C98.1611 30.5032 96.7789 34.4233 95.3435 38.3435C95.0246 39.1766 94.7588 40.0096 94.9183 40.8426C95.0777 41.6757 97.4168 42.6557 98.3206 42.9007C108.102 45.4488 117.033 48.781 127.24 52.0151C128.25 52.2111 129.42 52.3091 130.323 51.8191C131.387 51.2801 131.918 50.153 132.344 49.124C134.311 44.4198 135.64 39.9606 137.5 34.8154Z" fill="white"/>
<path d="M128.78 52.4069C129.472 52.4069 130.056 52.2599 130.535 52.0149C131.651 51.4268 132.183 50.2998 132.661 49.1727C133.884 46.2816 134.788 43.4885 135.798 40.5484C136.436 38.7353 137.074 36.8242 137.818 34.8151C138.296 33.4431 138.137 32.218 137.339 31.434C136.436 30.5519 135.107 30.1109 133.99 29.7679L105.709 20.5555C104.007 20.0165 102.732 20.1145 101.934 20.8985C100.924 21.8786 100.392 23.5446 99.8609 25.1617C99.7014 25.6027 99.595 26.0437 99.4356 26.4358L95.1827 38.1963C94.9169 38.9803 94.5448 39.9113 94.7574 40.8424C94.97 41.8714 97.5218 42.8515 98.3723 43.0965C104.911 44.8115 111.025 46.8206 117.457 48.9767C120.594 50.0548 123.89 51.1328 127.292 52.2109C127.77 52.3579 128.302 52.4069 128.78 52.4069ZM103.742 20.7025C104.22 20.7025 104.805 20.8005 105.496 21.0455L133.778 30.2579C134.841 30.6009 136.117 30.993 136.914 31.826C137.818 32.708 137.552 34.0311 137.286 34.7171C136.542 36.7262 135.904 38.5883 135.266 40.4504C134.256 43.3905 133.299 46.1346 132.13 49.0257C131.704 50.1038 131.226 51.1328 130.269 51.6228C129.578 51.9659 128.621 52.0639 127.345 51.7698C123.943 50.6918 120.7 49.6138 117.563 48.5357C111.078 46.3796 104.964 44.3215 98.4255 42.6064C97.3623 42.3124 95.289 41.3814 95.1827 40.7444C95.0232 39.9603 95.3422 39.0783 95.608 38.3433L99.8609 26.5828C100.02 26.1908 100.127 25.7497 100.286 25.2597C100.765 23.7896 101.296 22.0746 102.253 21.1925C102.625 20.8985 103.104 20.7025 103.742 20.7025Z" fill="#A3AEBB"/>
<path d="M127.843 50.5932C128.428 50.5932 128.906 50.4952 129.332 50.2992C130.288 49.8092 130.767 48.8292 131.192 47.8491C132.255 45.252 133.106 42.7529 134.01 40.1558C134.541 38.5387 135.126 36.8236 135.817 35.0596C136.242 33.8835 136.083 32.8545 135.392 32.1684C134.594 31.3844 133.425 30.9924 132.362 30.6494L106.366 22.221C104.877 21.731 103.761 21.829 103.07 22.466C102.166 23.3481 101.688 24.8181 101.209 26.2392C101.103 26.6312 100.944 27.0232 100.837 27.4152L97.0096 37.9507C96.7438 38.6367 96.478 39.4698 96.6375 40.2538C96.797 41.0868 99.0298 41.9689 99.8272 42.2139C105.834 43.7819 111.416 45.644 117.37 47.6531C120.294 48.6332 123.271 49.6132 126.355 50.5932C126.939 50.5442 127.418 50.5932 127.843 50.5932ZM104.665 21.976C105.143 21.976 105.675 22.074 106.313 22.27L132.309 30.6984C133.319 31.0414 134.488 31.3844 135.232 32.1684C136.136 33.0015 135.87 34.2265 135.605 34.9126C134.967 36.7256 134.382 38.3917 133.797 40.0578C132.893 42.7039 132.043 45.154 130.98 47.7511C130.554 48.7312 130.129 49.6622 129.225 50.1522C128.534 50.4952 127.63 50.5442 126.461 50.2992C123.377 49.3192 120.347 48.3391 117.477 47.3591C111.523 45.399 105.941 43.4879 99.9335 41.9199C99.0829 41.6749 97.0096 40.7928 96.8502 40.1068C96.6907 39.3718 96.9565 38.5877 97.2223 37.9017L101.05 27.3662C101.156 27.0232 101.316 26.6312 101.422 26.1902C101.847 24.8671 102.326 23.3481 103.229 22.515C103.548 22.172 104.027 21.976 104.665 21.976Z" fill="#A3AEBB"/>
<path d="M126.73 29.8174C127.474 29.8664 128.165 30.4054 128.272 31.0915C128.378 31.7775 127.793 32.5125 127.049 32.6595C126.305 32.7575 125.507 32.2185 125.348 31.5325C125.242 30.7485 125.773 29.7684 126.73 29.8174Z" fill="white"/>
<path d="M126.832 32.8544C126.886 32.8544 126.992 32.8544 127.045 32.8544C127.949 32.7074 128.64 31.8744 128.533 31.0414C128.427 30.2573 127.63 29.6203 126.779 29.5713C126.354 29.5223 125.929 29.7183 125.61 30.0123C125.238 30.4043 125.025 30.9924 125.078 31.5314C125.238 32.2664 125.982 32.8544 126.832 32.8544ZM126.726 30.0613C127.364 30.1103 127.949 30.5513 128.002 31.0904C128.108 31.6784 127.577 32.2664 126.992 32.3644C126.354 32.4624 125.716 32.0214 125.61 31.4334C125.556 31.0904 125.716 30.6003 125.982 30.3553C126.141 30.2083 126.354 30.0123 126.726 30.0613Z" fill="#A3AEBB"/>
<path d="M110.511 24.7705C111.255 24.8196 111.946 25.3586 112.052 26.0446C112.159 26.7306 111.574 27.4657 110.83 27.6127C110.085 27.7107 109.288 27.1717 109.129 26.4856C108.969 25.7996 109.554 24.6725 110.511 24.7705Z" fill="white"/>
<path d="M110.612 27.8084C110.666 27.8084 110.772 27.8084 110.825 27.8084C111.729 27.6614 112.42 26.8284 112.314 25.9954C112.207 25.2113 111.41 24.5743 110.559 24.5253C110.134 24.4763 109.709 24.6723 109.39 24.9663C109.018 25.3583 108.805 25.9464 108.858 26.4854C108.964 27.2204 109.762 27.8084 110.612 27.8084ZM110.4 25.0153H110.453C111.091 25.0643 111.676 25.5053 111.729 26.0444C111.835 26.6324 111.303 27.2204 110.719 27.3184C110.081 27.4164 109.443 26.9754 109.337 26.3874C109.283 26.0444 109.443 25.5543 109.709 25.3093C109.868 25.1623 110.081 25.0153 110.4 25.0153Z" fill="#A3AEBB"/>
<path d="M126.986 30.9442C127.039 30.9442 127.039 30.9442 127.092 30.9442C127.252 30.8952 127.305 30.7482 127.252 30.6502C125.71 26.73 123.743 23.1038 121.351 18.7426C120.979 18.0566 120.607 17.4686 120.128 16.9296C119.916 16.6846 119.543 16.3415 119.065 16.2435C118.002 16.0475 117.098 17.0766 116.832 17.4196C116.035 18.3506 115.291 19.2327 114.599 20.1147C112.898 22.1238 111.304 24.0349 110.134 25.3579C110.028 25.4559 110.081 25.6029 110.187 25.7009C110.293 25.7989 110.453 25.75 110.559 25.6519C111.782 24.3289 113.377 22.4178 115.025 20.4087C115.769 19.5267 116.513 18.6446 117.258 17.7136C117.895 16.9296 118.48 16.6356 118.959 16.7336C119.224 16.7826 119.49 16.9296 119.756 17.2236C120.235 17.7136 120.554 18.3016 120.926 18.9387C123.318 23.2508 125.232 26.877 126.773 30.7972C126.773 30.8952 126.88 30.9442 126.986 30.9442Z" fill="#A3AEBB"/>
<path d="M118.909 15.6069C119.334 15.5579 119.759 15.7539 119.972 16.0479C120.238 16.3419 120.291 16.7339 120.238 17.126C120.185 17.273 120.132 17.42 120.025 17.518C119.972 17.567 119.866 17.616 119.813 17.665C119.494 17.812 119.175 17.861 118.856 17.812C118.537 17.714 118.271 17.469 118.112 17.175C118.058 17.028 117.952 16.93 117.952 16.7829C117.952 16.6849 117.952 16.5869 118.005 16.4889C118.165 16.0479 118.43 15.6559 118.909 15.6069Z" fill="#B8D4F7"/>
<path d="M119.115 18.0083C119.381 18.0083 119.646 17.9593 119.912 17.8123C120.019 17.7633 120.125 17.7143 120.178 17.6653C120.338 17.5673 120.391 17.3712 120.444 17.1752C120.55 16.7342 120.444 16.2442 120.125 15.9012C119.806 15.5092 119.274 15.3132 118.796 15.3622C118.317 15.4112 117.945 15.7542 117.68 16.2932C117.626 16.4402 117.573 16.5872 117.573 16.6852C117.573 16.8812 117.68 17.0282 117.733 17.1752C117.998 17.5673 118.317 17.8613 118.636 17.9593C118.902 18.0083 119.009 18.0083 119.115 18.0083ZM119.062 15.8032C119.328 15.8032 119.593 15.9502 119.806 16.1462C120.019 16.3912 120.072 16.7342 120.019 17.0282C119.965 17.1262 119.965 17.2242 119.912 17.2732C119.859 17.3222 119.806 17.3222 119.753 17.3712C119.434 17.5182 119.168 17.5673 119.009 17.5183C118.796 17.4693 118.583 17.2732 118.371 16.9792C118.317 16.8812 118.264 16.7832 118.264 16.6852C118.264 16.6362 118.264 16.5382 118.317 16.4892C118.477 16.0972 118.69 15.9012 119.009 15.8522C118.955 15.8032 119.009 15.8032 119.062 15.8032Z" fill="#A3AEBB"/>
<g opacity="0.1294">
<path d="M95.1293 40.4011C95.6078 40.1561 95.8204 40.7441 95.9268 40.7931C96.1394 40.9891 96.6178 41.2831 97.0963 41.4301C98.2658 41.9201 99.7543 42.2632 101.137 42.6062C102.04 42.8512 102.944 43.1942 103.848 43.4882C105.336 44.0272 106.878 44.5663 108.42 44.9583C109.43 45.2523 110.44 45.6443 111.45 45.9383C114.055 46.6244 116.553 47.5064 119.158 48.2904C122.348 49.3685 126.441 50.7405 129.259 51.2305C129.631 51.2795 129.524 51.2305 130.162 51.2795C130.216 51.2795 130.269 51.2796 130.375 51.3286C130.854 51.4756 130.694 52.2106 130.162 52.2106C129.737 52.2106 129.259 52.2596 128.833 52.2106C127.983 52.1126 127.185 51.8186 126.335 51.6226C123.464 50.8875 120.806 49.7115 117.935 48.8784C116.5 48.4374 115.065 47.9964 113.629 47.5554C112.194 47.1634 110.759 46.7713 109.43 46.2813C108.526 45.9873 107.622 45.7423 106.718 45.4483C105.177 44.9093 103.901 44.4192 102.2 43.8312C100.977 43.3902 99.7012 43.1942 98.4785 42.8512C97.6811 42.6552 96.9368 42.2632 96.1926 41.9691C95.7673 41.7241 94.3851 40.8911 95.1293 40.4011Z" fill="#A3AEBB"/>
</g>
<path d="M110.4 38.049L105.571 37.0754L105.618 36.818L106.389 36.597L108.265 29.1613L107.583 28.6987L107.722 28.3898L110.34 29.1143L110.278 29.561L109.513 29.5775L107.465 36.7583L109.781 36.9081L109.851 36.0644L110.975 36.2391L110.775 36.9947L110.4 38.049ZM113.718 39.2413L111.323 38.5926L111.361 38.2295L112.065 38.157L113.535 33.1201L112.748 32.5761L112.748 32.2541L115.272 32.8104L115.324 33.0828L114.481 33.2836L112.987 38.4041L113.765 38.8936L113.718 39.2413ZM114.09 31.6527L113.913 30.7265L114.534 30.3988L115.271 30.7095L115.105 31.5263L114.09 31.6527ZM118.721 33.7561L119.903 34.682L120.512 34.3509L120.925 34.8537L119.674 35.8159L119.359 35.2889L117.532 34.2717L116.691 34.8337L117.188 36.2239L119.42 37.4969L119.182 39.6207L117.331 40.1558L115.364 39.0863L114.939 39.4951L114.373 39.2195L115.132 38.0802L117.406 39.3394L118.316 38.9901L118.312 37.9065L116.003 36.3152L115.71 34.6994L116.657 33.5355L118.721 33.7561ZM123.979 41.5645L121.916 41.3831L121.244 40.2014L121.59 38.9716L122.458 35.8913L121.858 35.8253L121.362 35.8016L121.44 35.205L122.365 35.1692L122.532 35.2163L122.848 34.094L122.789 33.6648L123.804 33.9507L123.606 35.0163L123.499 35.3984L125.228 35.6662L124.965 36.5975L123.317 36.0431L122.211 39.9712L122.594 40.762L124.163 40.9078L123.979 41.5645Z" fill="#006FFD"/>
<defs>
<filter id="filter0_d_13597_76721" x="0.185335" y="0.185335" width="144.599" height="181.259" filterUnits="userSpaceOnUse" color-interpolation-filters="sRGB">
<feFlood flood-opacity="0" result="BackgroundImageFix"/>
<feColorMatrix in="SourceAlpha" type="matrix" values="0 0 0 0 0 0 0 0 0 0 0 0 0 0 0 0 0 0 127 0" result="hardAlpha"/>
<feOffset dx="4.81466" dy="4.81466"/>
<feGaussianBlur stdDeviation="4.81466"/>
<feComposite in2="hardAlpha" operator="out"/>
<feColorMatrix type="matrix" values="0 0 0 0 0.145104 0 0 0 0 0.286634 0 0 0 0 0.829167 0 0 0 0.05 0"/>
<feBlend mode="normal" in2="BackgroundImageFix" result="effect1_dropShadow_13597_76721"/>
<feBlend mode="normal" in="SourceGraphic" in2="effect1_dropShadow_13597_76721" result="shape"/>
</filter>
</defs>
</svg>
