<svg width="31" height="22" viewBox="0 0 31 22" fill="none" xmlns="http://www.w3.org/2000/svg">
<path d="M30.4761 19.8171C30.4761 20.6552 29.7965 21.3333 28.9599 21.3333H16.7543C16.3521 21.3333 15.9665 21.1735 15.6821 20.8892C15.3978 20.6049 15.2381 20.2192 15.2381 19.8171C15.2381 19.415 15.3978 19.0293 15.6821 18.745C15.9665 18.4607 16.3521 18.3009 16.7543 18.3009H28.9599C29.798 18.3009 30.4761 18.979 30.4761 19.8171ZM30.4761 10.6666C30.4761 11.5047 29.7965 12.1828 28.9599 12.1828H1.51619C1.11407 12.1828 0.728421 12.0231 0.444081 11.7388C0.159741 11.4544 0 11.0688 0 10.6666C0 10.2645 0.159741 9.87888 0.444081 9.59454C0.728421 9.3102 1.11407 9.15046 1.51619 9.15046H28.9599C29.798 9.15046 30.4761 9.83008 30.4761 10.6666ZM28.9599 3.03237C29.3621 3.03237 29.7477 2.87263 30.032 2.58829C30.3164 2.30395 30.4761 1.91831 30.4761 1.51619C30.4761 1.11407 30.3164 0.728421 30.032 0.444081C29.7477 0.15974 29.3621 1.1984e-08 28.9599 0H10.659C10.4599 -5.9339e-09 10.2628 0.0392173 10.0788 0.115413C9.89485 0.191608 9.72771 0.30329 9.58692 0.444081C9.44613 0.584872 9.33445 0.752016 9.25825 0.935968C9.18206 1.11992 9.14284 1.31708 9.14284 1.51619C9.14284 1.7153 9.18206 1.91246 9.25825 2.09641C9.33445 2.28036 9.44613 2.4475 9.58692 2.58829C9.72771 2.72908 9.89485 2.84077 10.0788 2.91696C10.2628 2.99316 10.4599 3.03237 10.659 3.03237H28.9599Z" fill="#006FFD"/>
</svg>