<svg width="452" height="355" viewBox="0 0 452 355" fill="none" xmlns="http://www.w3.org/2000/svg">
<path d="M80.132 235.282C75.0984 233.349 63.4791 226.452 57.2703 214.327C49.5094 199.17 63.4049 192.11 60.7989 176.729C58.7141 164.425 54.7 155.26 52.9536 152.216" stroke="#B8D4F7" stroke-width="0.912131" stroke-dasharray="6.38 6.38"/>
<path d="M227.158 353.77C205.124 353.828 183.297 349.615 162.948 341.375C142.599 333.135 124.133 321.034 108.624 305.773C108.525 305.676 108.469 305.545 108.47 305.408C108.47 305.271 108.526 305.14 108.626 305.043C108.725 304.946 108.86 304.892 109 304.892C109.141 304.893 109.276 304.947 109.375 305.044C131.429 326.624 159.273 341.71 189.716 348.572C220.159 355.435 251.969 353.796 281.5 343.845C311.032 333.893 337.091 316.032 356.69 292.306C376.29 268.581 388.637 239.952 392.316 209.701C392.332 209.565 392.404 209.441 392.514 209.356C392.624 209.271 392.764 209.233 392.904 209.249C393.043 209.265 393.17 209.334 393.257 209.441C393.344 209.549 393.384 209.685 393.367 209.821C388.565 249.502 368.985 286.082 338.346 312.618C307.707 339.153 268.14 353.797 227.158 353.77Z" fill="#006FFD"/>
<path d="M387.146 146.272C384.154 136.011 380.126 126.065 375.121 116.579C375.063 116.459 375.056 116.321 375.1 116.195C375.145 116.069 375.237 115.965 375.358 115.904C375.48 115.843 375.62 115.831 375.751 115.869C375.882 115.907 375.992 115.992 376.06 116.108C381.098 125.65 385.153 135.656 388.163 145.979C388.203 146.111 388.188 146.252 388.121 146.373C388.053 146.493 387.94 146.583 387.805 146.622C387.67 146.661 387.525 146.646 387.401 146.58C387.278 146.515 387.186 146.404 387.146 146.272Z" fill="#006FFD"/>
<path d="M91.1403 341.728H84.9311C84.2309 341.728 83.5377 341.593 82.8911 341.331C82.2446 341.069 81.6575 340.685 81.1636 340.201C80.6697 339.717 80.2787 339.143 80.0131 338.511C79.7474 337.88 79.6124 337.203 79.6157 336.521V330.492C79.6157 330.355 79.5601 330.224 79.461 330.127C79.3619 330.031 79.2274 329.977 79.0873 329.977C78.9471 329.977 78.8127 330.031 78.7136 330.127C78.6145 330.224 78.5588 330.355 78.5588 330.492V336.521C78.5611 337.203 78.4252 337.88 78.159 338.511C77.8928 339.142 77.5015 339.716 77.0075 340.2C76.5135 340.683 75.9266 341.067 75.2802 341.329C74.6338 341.592 73.9408 341.727 73.2407 341.728H67.0231C66.8829 341.728 66.7485 341.782 66.6494 341.879C66.5503 341.975 66.4946 342.106 66.4946 342.243C66.4946 342.38 66.5503 342.511 66.6494 342.607C66.7485 342.704 66.8829 342.758 67.0231 342.758H73.2323C73.9306 342.758 74.6222 342.892 75.2674 343.152C75.9127 343.413 76.4989 343.794 76.9926 344.276C77.4863 344.758 77.8777 345.329 78.1446 345.959C78.4114 346.588 78.5483 347.262 78.5476 347.943V353.997C78.5574 354.127 78.6174 354.249 78.7157 354.338C78.814 354.427 78.9432 354.477 79.0775 354.477C79.2117 354.477 79.3409 354.427 79.4392 354.338C79.5375 354.249 79.5975 354.127 79.6073 353.997V347.943C79.6069 347.262 79.7442 346.588 80.0112 345.959C80.2781 345.331 80.6697 344.759 81.1633 344.278C81.6569 343.797 82.2431 343.415 82.8881 343.155C83.5332 342.894 84.2245 342.76 84.9226 342.761H91.1346C91.2752 342.762 91.4102 342.708 91.5101 342.611C91.61 342.515 91.6666 342.384 91.6673 342.247C91.6681 342.11 91.6129 341.978 91.5141 341.881C91.4153 341.784 91.2808 341.728 91.1403 341.728ZM79.0845 345.455C78.4365 344.017 77.2589 342.869 75.7845 342.237C77.2587 341.607 78.4364 340.46 79.0845 339.023C79.7293 340.46 80.9053 341.609 82.3788 342.24C80.9083 342.87 79.733 344.014 79.0845 345.446V345.455Z" fill="#006FFD"/>
<path d="M68.1474 139.67C77.5019 111.829 94.3833 86.9624 117.014 67.689C139.645 48.4155 167.187 35.4482 196.742 30.1525C196.879 30.1278 197.022 30.1575 197.137 30.2351C197.253 30.3127 197.332 30.4319 197.357 30.5663C197.383 30.7008 197.352 30.8396 197.272 30.9521C197.193 31.0647 197.071 31.1418 196.933 31.1665C167.563 36.4258 140.192 49.3098 117.702 68.4615C95.2115 87.6132 78.4352 112.324 69.1397 139.99C69.0825 140.1 68.9867 140.187 68.8696 140.234C68.7526 140.281 68.622 140.286 68.5018 140.247C68.3816 140.208 68.2797 140.128 68.2147 140.022C68.1496 139.916 68.1258 139.791 68.1474 139.67Z" fill="#006FFD"/>
<path d="M309.6 49.7093C307.928 49.7093 282.015 31.8086 238.843 28.8817C238.705 28.8693 238.578 28.805 238.489 28.7025C238.399 28.5999 238.355 28.4674 238.364 28.3331C238.374 28.1988 238.437 28.0735 238.54 27.984C238.643 27.8945 238.778 27.8479 238.916 27.8541C263.882 29.4914 288.141 36.6325 309.865 48.7391C309.97 48.7937 310.054 48.8814 310.101 48.9881C310.149 49.0947 310.158 49.214 310.128 49.3265C310.097 49.439 310.028 49.5381 309.933 49.6076C309.837 49.6771 309.72 49.7129 309.6 49.7093Z" fill="#006FFD"/>
<g clip-path="url(#clip0_12678_70518)">
<path d="M429.684 186.778C429.684 191.692 425.691 195.701 420.761 195.701H328.74L293.571 195.716C288.642 195.716 284.633 191.723 284.633 186.793V102.328L429.653 102.297V186.778H429.684Z" fill="#EAF2FF"/>
<path d="M284.633 102.312H429.669L362.956 49.3753C358.764 45.0445 351.791 45.1366 347.722 49.5749L284.633 102.312Z" fill="#B8D4F7"/>
<path d="M284.633 102.312C284.633 102.312 347.798 156.109 358.318 156.109C368.838 156.109 429.669 102.297 429.669 102.297H284.633V102.312Z" fill="#EAF2FF"/>
<path d="M297.119 113.293V62.2599C297.119 58.4206 300.221 55.3184 304.061 55.3184H411.471C415.31 55.3184 418.412 58.4206 418.412 62.2599V112.018C418.412 112.018 366.55 156.109 358.318 156.109C350.778 156.109 297.119 113.293 297.119 113.293Z" fill="white" stroke="#D1D6DD" stroke-width="1.53574" stroke-miterlimit="10"/>
<path d="M313.106 73.471V73.1331H356.107V73.471H313.106Z" fill="#D9D9FC" stroke="#D1D6DD" stroke-width="1.53574"/>
<path d="M313.106 83.5611V83.2232H402.425V83.5611H313.106Z" fill="#D9D9FC" stroke="#D1D6DD" stroke-width="1.53574"/>
<path d="M313.106 93.6504V93.3125H402.425V93.6504H313.106Z" fill="#D9D9FC" stroke="#D1D6DD" stroke-width="1.53574"/>
<path d="M313.106 103.741V103.403H380.479V103.741H313.106Z" fill="#D9D9FC" stroke="#D1D6DD" stroke-width="1.53574"/>
<path d="M313.106 113.815V113.477H402.425V113.815H313.106Z" fill="#D9D9FC" stroke="#D1D6DD" stroke-width="1.53574"/>
<path d="M313.106 123.905V123.567H354.248V123.905H313.106Z" fill="#D9D9FC" stroke="#D1D6DD" stroke-width="1.53574"/>
<path d="M284.633 102.898C284.633 102.898 349.191 155.518 358.484 155.403C368.729 155.288 428.993 103.188 428.993 103.188" stroke="#B8D4F7" stroke-width="2.30361" stroke-linecap="round" stroke-linejoin="round"/>
<path d="M284.633 181.137L337.311 145.321" stroke="#B8D4F7" stroke-width="1.53574" stroke-linecap="round" stroke-linejoin="round"/>
<path d="M428.993 181.511L376.51 145.435" stroke="#B8D4F7" stroke-width="1.53574" stroke-linecap="round" stroke-linejoin="round"/>
<path d="M416.631 43.3249V36.3833" stroke="#006FFD" stroke-width="1.53574" stroke-linecap="round" stroke-linejoin="round"/>
<path d="M407.57 47.087L402.655 42.1726" stroke="#006FFD" stroke-width="1.53574" stroke-linecap="round" stroke-linejoin="round"/>
<path d="M403.808 56.1631H396.866" stroke="#006FFD" stroke-width="1.53574" stroke-linecap="round" stroke-linejoin="round"/>
<path d="M407.57 65.2244L402.655 70.1387" stroke="#006FFD" stroke-width="1.53574" stroke-linecap="round" stroke-linejoin="round"/>
<path d="M416.631 68.9868V75.9284" stroke="#006FFD" stroke-width="1.53574" stroke-linecap="round" stroke-linejoin="round"/>
<path d="M425.708 65.2244L430.622 70.1387" stroke="#006FFD" stroke-width="1.53574" stroke-linecap="round" stroke-linejoin="round"/>
<path d="M429.471 56.1631H436.412" stroke="#006FFD" stroke-width="1.53574" stroke-linecap="round" stroke-linejoin="round"/>
<path d="M425.708 47.087L430.622 42.1726" stroke="#006FFD" stroke-width="1.53574" stroke-linecap="round" stroke-linejoin="round"/>
</g>
<circle cx="215.164" cy="29.9944" r="25.3916" fill="#EAF2FF"/>
<path d="M228.306 24.8352L228.325 24.8408C229.575 25.2062 230.469 26.274 231.046 27.6021C231.624 28.9357 231.908 30.5837 231.908 32.2181C231.908 33.8527 231.625 35.5007 231.047 36.8344C230.471 38.1627 229.578 39.2309 228.329 39.5968L228.328 39.597C228.316 39.6005 228.304 39.6041 228.292 39.6076C228.203 39.6339 228.115 39.6598 227.985 39.6763C227.847 39.6938 227.662 39.7013 227.349 39.7049C226.991 39.709 226.442 39.708 225.564 39.7063C224.896 39.705 224.038 39.7034 222.929 39.7034H222.918L222.918 39.7032C222.488 39.689 222.066 39.5869 221.677 39.403C221.394 39.2693 221.134 39.0945 220.904 38.8848C219.588 40.0486 218.087 40.9849 216.463 41.6548C216.467 41.834 216.448 42.0135 216.405 42.1884C216.339 42.4578 216.218 42.7107 216.049 42.9312C215.881 43.1517 215.669 43.3352 215.426 43.4701C215.184 43.605 214.916 43.6885 214.64 43.7154C214.364 43.7423 214.085 43.712 213.821 43.6264C213.557 43.5407 213.314 43.4016 213.106 43.2177C212.898 43.0338 212.731 42.8091 212.614 42.5575C212.497 42.3059 212.433 42.033 212.426 41.7556L212.426 41.7478L212.426 41.74C212.435 41.308 212.58 40.8898 212.842 40.5458C213.103 40.2017 213.467 39.9496 213.881 39.8255C214.295 39.7015 214.738 39.712 215.145 39.8556C215.465 39.9682 215.751 40.1583 215.977 40.407C217.478 39.8137 218.856 38.9473 220.04 37.8519C218.668 35.7575 218.343 32.595 218.81 29.9405C219.054 28.5528 219.52 27.2681 220.197 26.3211C220.876 25.3712 221.794 24.7307 222.925 24.7307H224.245C223.69 23.3038 222.721 22.0702 221.459 21.1913C220.065 20.2212 218.39 19.7372 216.694 19.8141L216.676 19.8149L216.658 19.8139C214.951 19.7122 213.265 20.2312 211.912 21.2751C210.628 22.2649 209.725 23.663 209.349 25.2341C209.42 25.2908 209.479 25.3606 209.524 25.4398L209.223 25.6094L209.524 25.4398C209.577 25.5354 209.608 25.6421 209.614 25.7517C209.619 25.8406 209.607 25.9295 209.579 26.0137C209.023 31.5197 209.094 34.7843 209.25 36.7234C209.311 37.487 209.385 38.0441 209.44 38.4629C209.455 38.5786 209.469 38.6837 209.481 38.7797C209.508 38.995 209.527 39.1846 209.521 39.34C209.514 39.4957 209.481 39.6787 209.345 39.8255C209.344 39.8257 209.344 39.8259 209.344 39.8261L209.091 39.5906C209.061 39.6236 209.024 39.65 208.983 39.6681C208.941 39.6861 208.897 39.6955 208.852 39.6956L228.306 24.8352ZM228.306 24.8352L228.286 24.8319C227.426 24.6851 226.552 24.6441 225.683 24.7096C225.064 22.8876 223.889 21.3027 222.321 20.1807C220.68 19.0073 218.699 18.4054 216.683 18.4675C214.633 18.3531 212.612 18.9915 211 20.2628C209.457 21.4796 208.39 23.1958 207.98 25.1116L228.306 24.8352ZM227.949 38.3024L227.95 38.3039C227.341 38.4811 226.753 38.2424 226.212 37.6051C225.664 36.9609 225.211 35.9532 224.932 34.7574C224.37 32.3592 224.539 29.3659 225.834 27.353L225.834 27.3524C226.111 26.9201 226.444 26.5475 226.809 26.3193C227.165 26.0964 227.543 26.0143 227.952 26.135L227.953 26.1352C228.534 26.3052 229.188 26.8969 229.705 27.9464C230.215 28.9852 230.567 30.4311 230.567 32.2188C230.567 34.0064 230.215 35.4523 229.703 36.491C229.186 37.5405 228.53 38.1324 227.949 38.3024ZM225.073 38.3572C224.18 38.3583 223.625 38.3617 223.276 38.3706V38.3567H222.931C222.234 38.3567 221.495 37.7681 220.908 36.6196C220.332 35.4939 219.962 33.9286 219.962 32.2188C219.962 30.509 220.332 28.9437 220.908 27.818C221.495 26.6695 222.234 26.0809 222.931 26.0809H225.08C224.562 26.7078 224.161 27.4909 223.871 28.3504C223.475 29.5213 223.276 30.8568 223.272 32.1888C223.264 34.486 223.837 36.8582 225.073 38.3572ZM208.024 26.4601L208.178 26.4543C207.729 30.406 207.687 34.3933 208.054 38.3532C207.727 38.1186 207.408 37.7687 207.114 37.3118C206.668 36.6199 206.3 35.7146 206.059 34.6936C205.576 32.6475 205.617 30.1971 206.496 28.1621C206.737 27.6065 207.014 27.1756 207.292 26.8853C207.573 26.5921 207.827 26.4711 208.024 26.4601Z" fill="#006FFD" stroke="#006FFD" stroke-width="0.690821"/>
<g clip-path="url(#clip1_12678_70518)">
<path d="M111.944 129.839L49.1 126.249C47.4095 126.153 46.6415 128.34 48.0279 129.313L61.182 138.505L111.944 129.839Z" fill="#EAF2FF"/>
<path d="M67.1071 144.792L72.6601 159.018C73.6607 161.582 76.9406 162.327 78.9715 160.441L111.944 129.839L67.1071 144.792Z" fill="#EAF2FF"/>
<path d="M61.1817 138.505L55.2499 153.561L67.1066 144.792L111.944 129.839L61.1817 138.505Z" fill="#B8D4F7"/>
<path d="M68.5084 148.372L55.2501 153.561L67.1068 144.792L68.5084 148.372Z" fill="#A3AEBB"/>
</g>
<rect x="289.194" y="296.485" width="52.3627" height="52.3627" rx="23.8612" fill="#E1ECFB"/>
<path fill-rule="evenodd" clip-rule="evenodd" d="M315.375 310.12C322.294 310.12 327.922 315.748 327.922 322.666C327.922 329.584 322.294 335.212 315.375 335.212C308.457 335.212 302.829 329.584 302.829 322.666C302.829 315.748 308.457 310.12 315.375 310.12ZM315.375 312.002C309.495 312.002 304.711 316.786 304.711 322.666C304.711 328.547 309.495 333.33 315.375 333.33C321.256 333.33 326.04 328.547 326.04 322.666C326.04 316.786 321.256 312.002 315.375 312.002ZM315.38 326.174C316.074 326.174 316.635 326.735 316.635 327.428C316.635 328.122 316.074 328.683 315.38 328.683C314.687 328.683 314.119 328.122 314.119 327.428C314.119 326.735 314.675 326.174 315.368 326.174H315.38ZM315.368 316.962C315.888 316.962 316.309 317.384 316.309 317.903V323.448C316.309 323.967 315.888 324.389 315.368 324.389C314.849 324.389 314.427 323.967 314.427 323.448V317.903C314.427 317.384 314.849 316.962 315.368 316.962Z" fill="#006FFD"/>
<g clip-path="url(#clip2_12678_70518)">
<path d="M125.98 220.828L17.9695 221.131C13.0943 221.145 9.15316 225.108 9.16683 229.983L9.35897 298.552C9.37263 303.427 13.3359 307.368 18.2111 307.354L126.222 307.052C131.097 307.038 135.038 303.075 135.025 298.2L134.833 229.631C134.819 224.756 130.856 220.815 125.98 220.828Z" fill="#B8D4F7"/>
<path d="M17.7876 227.961C17.7876 227.961 66.1265 267.211 73.0967 267.115C80.7584 266.995 127.317 227.668 127.317 227.668" stroke="#F7F8F9" stroke-width="1.51936" stroke-linecap="round" stroke-linejoin="round"/>
<path d="M17.9528 287.038L57.784 259.903" stroke="#F7F8F9" stroke-width="1.51936" stroke-linecap="round" stroke-linejoin="round"/>
<path d="M127.302 287.042L87.4761 259.907" stroke="#F7F8F9" stroke-width="1.51936" stroke-linecap="round" stroke-linejoin="round"/>
</g>
<defs>
<clipPath id="clip0_12678_70518">
<rect width="152.545" height="160.101" fill="white" transform="translate(284.633 35.6152)"/>
</clipPath>
<clipPath id="clip1_12678_70518">
<rect width="62.9821" height="40.1189" fill="white" transform="translate(47 126.616) rotate(-11.555)"/>
</clipPath>
<clipPath id="clip2_12678_70518">
<rect width="143.093" height="120.44" fill="white" transform="translate(0.554688 203.884)"/>
</clipPath>
</defs>
</svg>
