<svg width="128" height="165" viewBox="0 0 128 165" fill="none" xmlns="http://www.w3.org/2000/svg">
<path d="M108.086 116.179V125.125V156.407V159.389C108.086 160.119 108.634 160.667 109.364 160.667H121.232C121.962 160.667 122.51 160.119 122.51 159.389V116.239C122.51 115.509 121.962 114.961 121.232 114.961H109.364C108.695 114.901 108.086 115.448 108.086 116.179Z" fill="#006FFD"/>
<path d="M18.9887 119.282C17.5281 117.821 15.5197 116.969 13.4504 116.969C11.3812 116.969 9.37279 117.76 7.91216 119.221C6.45152 120.682 5.59961 122.629 5.59961 124.698C5.59961 126.768 6.39075 128.715 7.85139 130.176L29.5782 151.72C31.5257 153.668 33.8384 154.581 36.5771 154.581H104.679V125.551C99.0798 118.065 88.7338 113.318 78.1442 113.318C67.9198 113.318 60.3732 118.734 55.8696 123.238C55.5653 123.542 55.1392 123.725 54.6524 123.725H43.15C39.7418 123.725 37.1248 126.281 37.1248 129.506C37.1248 132.732 39.8027 135.227 43.15 135.227H73.7015C74.6143 135.227 75.4055 135.957 75.4055 136.931C75.4055 137.844 74.6752 138.635 73.7015 138.635H43.15C41.2024 138.635 39.3766 138.088 37.916 137.114C37.5508 137.053 37.1857 136.931 36.8814 136.627L18.9887 119.282Z" fill="white"/>
<path d="M13.4481 113.622C10.466 113.622 7.66645 114.778 5.53636 116.908C3.40627 118.977 2.25 121.777 2.25 124.759C2.25 126.281 2.5543 127.741 3.16289 129.141C3.71063 130.419 4.50175 131.636 5.53636 132.61L27.2632 154.154C29.8193 156.71 33.045 158.049 36.6357 158.049H104.738V159.327C104.738 161.884 106.807 164.014 109.424 164.014H121.291C123.847 164.014 125.977 161.944 125.977 159.327V116.178C125.977 113.622 123.908 111.492 121.291 111.492H109.424C106.868 111.492 104.738 113.561 104.738 116.178V120.499C98.2255 113.987 88.3054 109.97 78.2027 109.97C69.4389 109.97 61.1012 113.561 54.0414 120.377H43.2693C38.218 120.377 34.2013 124.09 33.897 128.958L27.9935 123.177L21.4815 116.847C19.2297 114.778 16.4302 113.622 13.4481 113.622ZM37.9746 137.235C39.4961 138.209 41.2609 138.757 43.2084 138.757H73.76C74.6729 138.757 75.464 138.027 75.464 137.053C75.464 136.14 74.7338 135.349 73.76 135.349H43.2084C39.8003 135.349 37.1834 132.793 37.1834 129.628C37.1834 126.402 39.8611 123.846 43.2084 123.846H54.711C55.137 123.846 55.563 123.664 55.9281 123.359C60.4926 118.856 68.0391 113.439 78.2027 113.439C88.7922 113.439 99.1384 118.247 104.738 125.672V154.702H36.6357C33.9579 154.702 31.5843 153.728 29.6368 151.842L7.90982 130.297C6.44919 128.837 5.65805 126.889 5.65805 124.82C5.65805 122.751 6.44925 120.803 7.97074 119.343C9.43137 117.882 11.3789 117.091 13.509 117.091C15.5783 117.091 17.5865 117.882 19.0472 119.404L37.0007 136.809C37.1833 136.992 37.5485 137.174 37.9746 137.235ZM122.508 116.178V159.327C122.508 160.058 121.961 160.605 121.231 160.605H109.363C108.633 160.605 108.085 160.058 108.085 159.327V156.345V125.063V116.117C108.085 115.387 108.633 114.839 109.363 114.839H121.231C121.961 114.9 122.508 115.448 122.508 116.178Z" fill="#23274D"/>
<path d="M124.762 32.4351V23.6713C124.762 22.4541 123.91 21.3586 122.754 20.9935L64.7547 4.37883C64.3287 4.25711 63.8419 4.25711 63.4158 4.37883L5.47737 20.7501C4.26018 21.0544 3.4082 22.2107 3.4082 23.4279V32.3742C3.4082 33.8957 4.6254 35.1738 6.14689 35.1738C6.8772 35.1738 7.54663 34.8695 8.09436 34.3826C8.6421 33.8349 8.88557 33.1654 8.88557 32.4351V26.6535C8.88557 25.9232 9.37244 25.2537 10.1028 25.0103L63.5375 10.0388C63.8418 9.9779 64.1461 9.9779 64.4504 10.0388L117.885 25.0103C118.616 25.1928 119.102 25.8623 119.102 26.6535V27.9315V32.3742C119.102 33.8957 120.32 35.1738 121.841 35.1738C123.545 35.2347 124.762 33.9566 124.762 32.4351Z" fill="#006FFD"/>
<path d="M123.667 17.7685L94.6976 9.4916L65.6676 1.21467C64.633 0.910376 63.4766 0.910376 62.442 1.21467L4.5037 17.5859C1.82588 18.3162 0 20.7506 0 23.5502V32.4965C0 35.9047 2.73874 38.6433 6.14688 38.6433C7.12063 38.6433 8.03353 38.3999 8.88556 37.9739V84.3489H6.8164C3.83427 84.3489 1.46072 86.4182 1.46072 89.0351V94.9993C1.46072 97.5554 3.89513 99.6855 6.8164 99.6855H64.8155H121.172C124.154 99.6855 126.527 97.6163 126.527 94.9993V89.0351C126.527 86.479 124.093 84.3489 121.172 84.3489H119.102V37.913C119.954 38.3391 120.867 38.5825 121.841 38.5825C125.249 38.5825 127.988 35.8438 127.988 32.4357V23.6719C128.17 20.9332 126.284 18.4988 123.667 17.7685ZM119.224 32.4357V27.9929V26.7149C119.224 25.9845 118.737 25.3151 118.007 25.0716L64.5721 10.1002C64.2678 10.0393 63.9635 10.0393 63.6592 10.1002L10.2244 25.0716C9.49413 25.2542 9.00725 25.9237 9.00725 26.7149V32.4965C9.00725 33.2268 8.70292 33.8963 8.21605 34.444C7.66831 34.9918 6.99889 35.2352 6.26857 35.2352C4.74708 35.2352 3.52989 34.018 3.52989 32.4357V23.4893C3.52989 22.2721 4.38201 21.1158 5.5992 20.8115L63.5375 4.44026C63.9635 4.31854 64.4504 4.31854 64.8764 4.44026L122.876 21.0549C124.093 21.3592 124.884 22.5155 124.884 23.7327V32.4965C124.884 34.018 123.667 35.2961 122.145 35.2961C120.441 35.2352 119.224 33.9572 119.224 32.4357ZM123.302 89.0351V94.9993C123.302 95.6079 122.51 96.2774 121.293 96.2774H6.87717C5.72083 96.2774 4.86877 95.6079 4.86877 94.9993V89.0351C4.86877 88.4265 5.65997 87.757 6.87717 87.757H121.293C122.45 87.757 123.302 88.4265 123.302 89.0351ZM12.2938 27.9929L64.0852 13.4475L115.877 27.9929V84.3489H76.1964V50.3284C76.1964 49.4155 75.466 48.6243 74.4923 48.6243H53.6783C52.7654 48.6243 51.9742 49.3546 51.9742 50.3284V84.3489H12.2938V27.9929ZM72.7882 84.3489H55.3822V52.0324H72.7882V84.3489Z" fill="#23274D"/>
<path d="M6.87754 87.757C5.7212 87.757 4.86914 88.4265 4.86914 89.0351V94.9993C4.86914 95.6079 5.66035 96.2774 6.87754 96.2774H121.294C122.45 96.2774 123.302 95.6079 123.302 94.9993V89.0351C123.302 88.4265 122.511 87.757 121.294 87.757H6.87754Z" fill="#EAF2FF"/>
<path d="M51.9754 50.3286C51.9754 49.4157 52.7057 48.6245 53.6795 48.6245H74.4934C75.4063 48.6245 76.1975 49.3549 76.1975 50.3286V84.3491H115.878V27.9931L64.0864 13.4477L12.2949 27.9931V84.3491H51.9754V50.3286ZM105.897 69.682C105.897 70.5948 105.167 71.3861 104.193 71.3861H86.361C85.4482 71.3861 84.6569 70.6557 84.6569 69.682V50.3286C84.6569 49.4157 85.3873 48.6245 86.361 48.6245H104.193C105.106 48.6245 105.897 49.3549 105.897 50.3286V69.682ZM64.0864 21.8463C69.1377 21.8463 73.2153 25.9239 73.2153 30.9753V38.461C73.2153 39.3739 72.485 40.165 71.5112 40.165H56.6615C55.7486 40.165 54.9574 39.4347 54.9574 38.461V30.9753C54.9574 25.9239 59.035 21.8463 64.0864 21.8463ZM41.8118 71.3252H23.9799C23.067 71.3252 22.2758 70.5949 22.2758 69.6211V50.2678C22.2758 49.3549 23.0062 48.5637 23.9799 48.5637H41.8118C42.7247 48.5637 43.5158 49.294 43.5158 50.2678V69.6211C43.5158 70.5949 42.7247 71.3252 41.8118 71.3252Z" fill="white"/>
<path d="M58.3633 30.9134V36.695H69.8049V30.9134C69.8049 27.7487 67.2487 25.1926 64.084 25.1926C60.9193 25.1926 58.3633 27.7487 58.3633 30.9134Z" fill="#006FFD"/>
<path d="M54.957 30.914V38.3997C54.957 39.3126 55.6874 40.1038 56.6611 40.1038H71.5108C72.4237 40.1038 73.2149 39.3735 73.2149 38.3997V30.914C73.2149 25.8626 69.1373 21.785 64.086 21.785C59.0346 21.8459 54.957 25.9235 54.957 30.914ZM69.8069 30.914V36.6956H58.3652V30.914C58.3652 27.7493 60.9213 25.1932 64.086 25.1932C67.2507 25.1932 69.8069 27.7493 69.8069 30.914Z" fill="#23274D"/>
<path d="M72.7887 52.0319H55.3828V84.3484H72.7887V52.0319Z" fill="#EAF2FF"/>
<path d="M102.486 52.0319H88.0625V67.9771H102.486V52.0319Z" fill="#006FFD"/>
<path d="M104.192 48.6243H86.3603C85.4475 48.6243 84.6562 49.3546 84.6562 50.3283V69.6817C84.6562 70.5946 85.3866 71.3858 86.3603 71.3858H104.192C105.105 71.3858 105.896 70.6554 105.896 69.6817V50.3283C105.896 49.3546 105.105 48.6243 104.192 48.6243ZM102.488 67.9776H88.0644V52.0324H102.488V67.9776Z" fill="#23274D"/>
<path d="M40.1053 52.0319H25.6816V67.9771H40.1053V52.0319Z" fill="#006FFD"/>
<path d="M41.8114 48.6243H23.9795C23.0666 48.6243 22.2754 49.3546 22.2754 50.3283V69.6817C22.2754 70.5946 23.0057 71.3858 23.9795 71.3858H41.8114C42.7243 71.3858 43.5153 70.6554 43.5153 69.6817V50.3283C43.5153 49.3546 42.7243 48.6243 41.8114 48.6243ZM40.1073 67.9776H25.6836V52.0324H40.1073V67.9776Z" fill="#23274D"/>
</svg>