<svg width="367" height="216" viewBox="0 0 367 216" fill="none" xmlns="http://www.w3.org/2000/svg">
<rect x="13" width="348" height="214" rx="8.52295" fill="#EAF2FF"/>
<path d="M36.8274 211.435C57.8629 211.081 78.8983 211.17 99.8454 211.611C99.8454 196.506 100.111 181.401 100.376 166.473C93.8352 165.855 87.2064 165.766 80.8428 166.473C80.666 159.406 80.666 152.428 81.0195 145.273C73.5953 145.538 66.171 145.538 59.0119 145.008C58.5699 140.326 58.4816 135.556 58.9235 130.963C51.7644 130.344 44.5169 130.344 37.181 130.344C36.7391 157.551 36.739 184.758 36.8274 211.435Z" fill="white"/>
<path d="M99.8417 212.053C76.7734 211.611 56.1799 211.523 36.8238 211.876C36.7354 211.876 36.5586 211.876 36.4702 211.788C36.3818 211.7 36.3818 211.611 36.3818 211.523C36.2051 181.754 36.3818 155.254 36.7354 130.433C36.7354 130.168 36.9122 129.991 37.1773 129.991C44.5132 129.991 51.7607 129.991 58.9198 130.609C59.0082 130.609 59.185 130.698 59.185 130.786C59.2733 130.874 59.2734 130.963 59.2734 131.139C58.8314 135.114 58.8314 139.531 59.2734 144.743C65.4602 145.184 72.531 145.273 80.8391 145.008C80.9275 145.008 81.1042 145.008 81.1926 145.096C81.281 145.184 81.281 145.273 81.281 145.449C81.0159 151.809 80.9275 158.434 81.1042 166.208C87.026 165.589 93.478 165.589 100.284 166.208C100.549 166.208 100.637 166.384 100.637 166.649C100.549 170.271 100.549 173.893 100.46 177.514C100.284 188.733 100.107 200.305 100.107 211.788C100.107 211.876 100.018 212.053 100.018 212.053C100.107 211.965 100.018 212.053 99.8417 212.053ZM63.339 210.816C74.7406 210.816 86.7608 210.905 99.4882 211.17C99.4882 199.863 99.6649 188.38 99.8417 177.338C99.9301 173.893 99.9301 170.359 100.018 166.914C93.2129 166.296 86.8492 166.296 80.9275 167.003C80.8391 167.003 80.6623 167.003 80.5739 166.914C80.4855 166.826 80.3972 166.738 80.3972 166.561C80.2204 158.788 80.2204 152.163 80.4856 145.803C72.1774 146.068 65.1067 145.979 58.9198 145.449C58.743 145.449 58.5663 145.096 58.5663 145.096C58.1244 139.973 58.1244 135.468 58.4779 131.404C51.5839 130.874 44.69 130.874 37.7076 130.874C37.2657 155.431 37.1773 181.666 37.3541 211.081C45.6622 210.816 54.3238 210.816 63.339 210.816Z" fill="#636464"/>
<path d="M55.5581 166.208C52.9066 166.208 49.8131 166.119 47.25 166.031C47.25 163.469 47.25 160.731 47.25 158.081C49.9899 157.904 52.7298 157.904 55.6465 158.081C55.6465 160.731 55.6465 163.293 55.5581 166.208Z" fill="#B8D4F7"/>
<path d="M55.5625 166.649C54.2368 166.649 52.8226 166.649 51.4085 166.561C49.9943 166.561 48.5802 166.473 47.2544 166.473C46.9893 166.473 46.8125 166.296 46.8125 166.031V165.324C46.8125 162.939 46.8125 160.466 46.8125 158.081C46.8125 157.816 46.9893 157.639 47.2544 157.639C49.9943 157.463 52.7342 157.463 55.6509 157.639C55.9161 157.639 56.0928 157.816 56.0928 158.081C56.1812 160.643 56.0928 163.204 56.0045 166.208C55.9161 166.384 55.7393 166.649 55.5625 166.649ZM47.608 165.589C48.8453 165.589 50.0827 165.589 51.3201 165.678C52.5575 165.678 53.8832 165.766 55.0322 165.766C55.1206 163.116 55.1206 160.819 55.1206 158.523C52.4691 158.434 49.9943 158.434 47.608 158.523C47.608 160.819 47.608 163.116 47.608 165.413V165.589Z" fill="#636464"/>
<path d="M55.0972 146.357C52.4457 146.357 49.3522 146.269 46.7891 146.18C46.7891 143.619 46.7891 140.88 46.7891 138.23C49.529 138.054 52.2689 138.054 55.1856 138.23C55.1856 140.88 55.1856 143.442 55.0972 146.357Z" fill="#B8D4F7"/>
<path d="M55.1016 146.799C53.7758 146.799 52.3617 146.799 50.9475 146.71C49.5334 146.71 48.1192 146.622 46.7935 146.622C46.5283 146.622 46.3516 146.445 46.3516 146.18V145.474C46.3516 143.089 46.3516 140.615 46.3516 138.23C46.3516 137.965 46.5283 137.789 46.7935 137.789C49.5334 137.612 52.2733 137.612 55.19 137.789C55.4551 137.789 55.6319 137.965 55.6319 138.23C55.7203 140.792 55.6319 143.354 55.5435 146.357C55.4551 146.534 55.2784 146.799 55.1016 146.799ZM47.147 145.739C48.3844 145.739 49.6218 145.739 50.8592 145.827C52.0965 145.827 53.4223 145.915 54.5713 145.915C54.6597 143.265 54.6597 140.969 54.6597 138.672C52.0082 138.584 49.5334 138.584 47.147 138.672C47.147 140.969 47.147 143.265 47.147 145.562V145.739Z" fill="#636464"/>
<path d="M72.9566 166.208C70.305 166.208 67.2116 166.119 64.6484 166.031C64.6484 163.469 64.6484 160.731 64.6484 158.081C67.3883 157.904 70.1283 157.904 73.0449 158.081C73.1333 160.731 73.0449 163.293 72.9566 166.208Z" fill="#B8D4F7"/>
<path d="M72.961 166.649C71.6352 166.649 70.2211 166.649 68.8069 166.561C67.3928 166.561 65.9786 166.473 64.6529 166.473C64.3877 166.473 64.2109 166.296 64.2109 166.031V165.324C64.2109 162.939 64.2109 160.466 64.2109 158.081C64.2109 157.816 64.3877 157.639 64.6529 157.639C67.3928 157.463 70.1327 157.463 73.0494 157.639C73.3145 157.639 73.4913 157.816 73.4913 158.081C73.5797 160.643 73.4913 163.204 73.4029 166.208C73.4029 166.384 73.2261 166.649 72.961 166.649ZM65.0948 165.589C66.3322 165.589 67.5695 165.589 68.8069 165.678C70.0443 165.678 71.3701 165.766 72.5191 165.766C72.6074 163.116 72.6074 160.819 72.6074 158.523C69.9559 158.434 67.4812 158.434 65.0948 158.523C65.0948 160.819 65.0948 163.116 65.0948 165.413V165.589Z" fill="#636464"/>
<path d="M55.2925 183.168C52.641 183.168 49.5475 183.08 46.9844 182.991C46.9844 180.43 46.9844 177.691 46.9844 175.041C49.7243 174.865 52.4642 174.865 55.3809 175.041C55.4693 177.691 55.3809 180.341 55.2925 183.168Z" fill="#B8D4F7"/>
<path d="M55.2969 183.61C53.9711 183.61 52.557 183.61 51.1428 183.521C49.7287 183.521 48.3146 183.433 46.9888 183.433C46.7236 183.433 46.5469 183.256 46.5469 182.991V182.285C46.5469 179.9 46.5469 177.426 46.5469 175.041C46.5469 174.776 46.7236 174.6 46.9888 174.6C49.7287 174.423 52.4686 174.423 55.3853 174.6C55.6504 174.6 55.8272 174.776 55.8272 175.041C55.9156 177.603 55.8272 180.165 55.7388 183.168C55.7388 183.433 55.5621 183.61 55.2969 183.61ZM47.3423 182.638C48.5797 182.638 49.8171 182.638 51.1428 182.726C52.3802 182.726 53.706 182.815 54.855 182.815C54.9434 180.165 54.9434 177.868 54.9434 175.571C52.2918 175.483 49.8171 175.483 47.4307 175.571C47.4307 177.868 47.4307 180.165 47.4307 182.461L47.3423 182.638Z" fill="#636464"/>
<path d="M72.6987 183.168C70.0472 183.168 66.9538 183.08 64.3906 182.991C64.3906 180.43 64.3906 177.691 64.3906 175.041C67.1305 174.865 69.8704 174.865 72.7871 175.041C72.8755 177.691 72.8755 180.341 72.6987 183.168Z" fill="#B8D4F7"/>
<path d="M72.7032 183.61C71.3774 183.61 69.9633 183.61 68.5491 183.521C67.135 183.521 65.7208 183.433 64.395 183.433C64.1299 183.433 63.9531 183.256 63.9531 182.991V182.285C63.9531 179.9 63.9531 177.426 63.9531 175.041C63.9531 174.776 64.1299 174.6 64.395 174.6C67.135 174.423 69.8749 174.423 72.7915 174.6C73.0567 174.6 73.2335 174.776 73.2335 175.041C73.3218 177.603 73.2335 180.165 73.1451 183.168C73.1451 183.433 72.9683 183.61 72.7032 183.61ZM64.837 182.638C66.0743 182.638 67.3117 182.638 68.6375 182.726C69.8749 182.726 71.2006 182.815 72.3496 182.815C72.438 180.165 72.438 177.868 72.438 175.571C69.7865 175.483 67.3117 175.483 64.9253 175.571C64.9253 177.868 64.9253 180.165 64.9253 182.373L64.837 182.638Z" fill="#636464"/>
<path d="M55.2925 200.216C52.641 200.216 49.5475 200.128 46.9844 200.04C46.9844 197.478 46.9844 194.74 46.9844 192.09C49.7243 191.913 52.4642 191.913 55.3809 192.09C55.4693 194.74 55.3809 197.301 55.2925 200.216Z" fill="#B8D4F7"/>
<path d="M55.2969 200.658C53.9711 200.658 52.557 200.658 51.1428 200.57C49.7287 200.57 48.3146 200.481 46.9888 200.481C46.7236 200.481 46.5469 200.305 46.5469 200.04V199.333C46.5469 196.948 46.5469 194.475 46.5469 192.09C46.5469 191.825 46.7236 191.648 46.9888 191.648C49.7287 191.471 52.4686 191.471 55.3853 191.648C55.6504 191.648 55.8272 191.825 55.8272 192.09C55.9156 194.651 55.8272 197.213 55.7388 200.216C55.7388 200.481 55.5621 200.658 55.2969 200.658ZM47.3423 199.686C48.5797 199.686 49.8171 199.686 51.0545 199.775C52.2918 199.775 53.6176 199.863 54.7666 199.863C54.855 197.213 54.855 194.916 54.855 192.62C52.2035 192.531 49.7287 192.531 47.3423 192.62C47.3423 194.916 47.3423 197.213 47.3423 199.51V199.686Z" fill="#636464"/>
<path d="M72.6987 200.216C70.0472 200.216 66.9538 200.128 64.3906 200.04C64.3906 197.478 64.3906 194.74 64.3906 192.09C67.1305 191.913 69.8704 191.913 72.7871 192.09C72.8755 194.74 72.8755 197.301 72.6987 200.216Z" fill="#B8D4F7"/>
<path d="M72.7032 200.658C71.3774 200.658 69.9633 200.658 68.5491 200.57C67.135 200.57 65.7208 200.481 64.395 200.481C64.1299 200.481 63.9531 200.305 63.9531 200.04V199.333C63.9531 196.948 63.9531 194.475 63.9531 192.09C63.9531 191.825 64.1299 191.648 64.395 191.648C67.135 191.471 69.8749 191.471 72.7915 191.648C73.0567 191.648 73.2335 191.825 73.2335 192.09C73.3218 194.651 73.2335 197.213 73.1451 200.216C73.1451 200.481 72.9683 200.658 72.7032 200.658ZM64.837 199.686C66.0743 199.686 67.3117 199.686 68.5491 199.775C69.7865 199.775 71.1122 199.863 72.2612 199.863C72.3496 197.213 72.3496 194.916 72.3496 192.62C69.6981 192.531 67.2233 192.531 64.837 192.62C64.837 194.916 64.837 197.213 64.837 199.421V199.686Z" fill="#636464"/>
<path d="M55.2876 160.996L47.333 160.908C47.2446 160.908 47.1562 160.819 47.1562 160.731C47.1562 160.643 47.2446 160.554 47.333 160.554L55.2876 160.643C55.376 160.643 55.4644 160.731 55.4644 160.819C55.4644 160.908 55.376 160.996 55.2876 160.996Z" fill="#636464"/>
<path d="M54.4829 141.097L46.5283 141.009C46.44 141.009 46.3516 140.921 46.3516 140.832C46.3516 140.744 46.44 140.656 46.5283 140.656L54.4829 140.744C54.5713 140.744 54.6597 140.832 54.6597 140.921C54.6597 141.009 54.5713 141.097 54.4829 141.097Z" fill="#636464"/>
<path d="M72.9717 160.996C71.0273 160.908 68.8176 160.908 66.608 160.908C65.901 160.908 65.2823 160.908 64.5752 160.908C64.4868 160.908 64.3984 160.819 64.3984 160.731C64.3984 160.643 64.4868 160.554 64.5752 160.554C65.1939 160.554 65.901 160.554 66.608 160.554C68.8176 160.554 71.1156 160.554 72.9717 160.643C73.0601 160.643 73.1485 160.731 73.1485 160.819C73.1485 160.908 73.0601 160.996 72.9717 160.996Z" fill="#636464"/>
<path d="M55.0249 177.691C53.8759 177.691 52.5501 177.691 51.2244 177.691C49.8986 177.691 48.4845 177.691 47.2471 177.691C47.1587 177.691 47.0703 177.603 47.0703 177.514C47.0703 177.426 47.1587 177.338 47.2471 177.338C48.4845 177.338 49.8102 177.338 51.2244 177.338C52.5501 177.338 53.8759 177.338 55.0249 177.338C55.1133 177.338 55.2017 177.426 55.2017 177.514C55.2017 177.603 55.1133 177.691 55.0249 177.691Z" fill="#636464"/>
<path d="M72.6963 177.603C70.8402 177.514 67.8352 177.514 64.6533 177.514C64.565 177.514 64.4766 177.426 64.4766 177.338C64.4766 177.249 64.565 177.161 64.6533 177.161C66.1559 177.161 70.0448 177.161 72.6963 177.249C72.7847 177.249 72.8731 177.338 72.8731 177.426C72.7847 177.603 72.7847 177.603 72.6963 177.603Z" fill="#636464"/>
<path d="M51.4085 194.563C49.906 194.563 48.4034 194.563 46.9893 194.474C46.9009 194.474 46.8125 194.386 46.8125 194.298C46.8125 194.209 46.9009 194.121 46.9893 194.121C49.0221 194.209 51.1433 194.209 53.1762 194.209C53.7949 194.209 54.3252 194.209 54.9438 194.209C55.0322 194.209 55.1206 194.298 55.1206 194.386C55.1206 194.474 55.0322 194.563 54.9438 194.563C54.3252 194.563 53.7949 194.563 53.1762 194.563C52.6459 194.563 52.0272 194.563 51.4085 194.563Z" fill="#636464"/>
<path d="M64.5752 194.475C64.4868 194.475 64.3984 194.386 64.3984 194.298C64.3984 194.21 64.4868 194.121 64.5752 194.121C67.2267 194.033 69.9666 194.033 72.7066 194.033C72.7949 194.033 72.8833 194.121 72.8833 194.21C72.8833 194.298 72.7949 194.386 72.7066 194.386C69.9666 194.386 67.2267 194.386 64.5752 194.475Z" fill="#636464"/>
<path d="M90.2847 183.168C87.6332 183.168 84.5397 183.08 81.9766 182.991C81.9766 180.43 81.9766 177.691 81.9766 175.041C84.7165 174.865 87.4564 174.865 90.3731 175.041C90.3731 177.691 90.3731 180.341 90.2847 183.168Z" fill="#B8D4F7"/>
<path d="M90.2891 183.61C88.9633 183.61 87.5492 183.61 86.135 183.521C84.7209 183.521 83.3067 183.433 81.981 183.433C81.7158 183.433 81.5391 183.256 81.5391 182.991V182.285C81.5391 179.9 81.5391 177.426 81.5391 175.041C81.5391 174.776 81.7158 174.6 81.981 174.6C84.7209 174.423 87.4608 174.423 90.3775 174.6C90.6426 174.6 90.8194 174.776 90.8194 175.041C90.9078 177.603 90.8194 180.165 90.731 183.168C90.6426 183.433 90.4659 183.61 90.2891 183.61ZM82.3345 182.638C83.5719 182.638 84.8093 182.638 86.135 182.726C87.3724 182.726 88.6982 182.815 89.8472 182.815C89.9356 180.165 89.9356 177.868 89.9356 175.571C87.284 175.483 84.8093 175.483 82.4229 175.571C82.4229 177.868 82.4229 180.165 82.4229 182.461L82.3345 182.638Z" fill="#636464"/>
<path d="M90.2847 200.216C87.6332 200.216 84.5397 200.128 81.9766 200.04C81.9766 197.478 81.9766 194.74 81.9766 192.09C84.7165 191.913 87.4564 191.913 90.3731 192.09C90.3731 194.74 90.3731 197.301 90.2847 200.216Z" fill="#B8D4F7"/>
<path d="M90.2891 200.658C88.9633 200.658 87.5492 200.658 86.135 200.57C84.7209 200.57 83.3067 200.481 81.981 200.481C81.7158 200.481 81.5391 200.305 81.5391 200.04V199.333C81.5391 196.948 81.5391 194.475 81.5391 192.09C81.5391 191.825 81.7158 191.648 81.981 191.648C84.7209 191.471 87.4608 191.471 90.3775 191.648C90.6426 191.648 90.8194 191.825 90.8194 192.09C90.9078 194.651 90.8194 197.213 90.731 200.216C90.6426 200.481 90.4659 200.658 90.2891 200.658ZM82.3345 199.686C83.5719 199.686 84.8093 199.686 86.0467 199.775C87.284 199.775 88.6098 199.863 89.7588 199.863C89.8472 197.213 89.8472 194.916 89.8472 192.62C87.1957 192.531 84.7209 192.531 82.3345 192.62C82.3345 194.916 82.3345 197.213 82.3345 199.51V199.686Z" fill="#636464"/>
<path d="M90.1963 177.603C88.3402 177.514 85.3352 177.514 82.1533 177.514C82.0649 177.514 81.9766 177.426 81.9766 177.338C81.9766 177.249 82.0649 177.161 82.1533 177.161C83.6559 177.161 87.5448 177.161 90.1963 177.249C90.2847 177.249 90.3731 177.338 90.3731 177.426C90.2847 177.603 90.2847 177.603 90.1963 177.603Z" fill="#636464"/>
<path d="M82.0752 194.475C81.9868 194.475 81.8984 194.386 81.8984 194.298C81.8984 194.21 81.9868 194.121 82.0752 194.121C84.7267 194.033 87.4666 194.033 90.2066 194.033C90.2949 194.033 90.3833 194.121 90.3833 194.21C90.3833 194.298 90.2949 194.386 90.2066 194.386C87.4666 194.386 84.8151 194.386 82.0752 194.475Z" fill="#636464"/>
<path d="M34.958 212.848C57.5844 212.848 78.885 212.672 100.627 212.848C101.246 212.848 101.246 207.99 101.246 207.99C94.1754 208.52 53.6071 207.371 34.8696 208.255C34.7812 209.58 34.6929 211.17 34.958 212.848Z" fill="white"/>
<path d="M34.9624 213.201C34.7857 213.201 34.6089 213.025 34.5205 212.848C34.2554 210.993 34.3437 209.315 34.4321 208.078C34.4321 207.901 34.6089 207.725 34.8741 207.636C45.3918 207.195 63.157 207.371 77.3869 207.46C88.5233 207.548 98.1571 207.636 101.251 207.371C101.339 207.371 101.516 207.371 101.604 207.46C101.693 207.548 101.781 207.636 101.781 207.813C101.781 213.113 101.162 213.113 100.809 213.113C86.4904 213.025 72.5257 213.025 57.8539 213.113C50.3413 213.201 42.6519 213.201 34.9624 213.201ZM35.2276 208.608C35.1392 209.668 35.1392 210.993 35.316 212.406C42.917 212.406 50.4297 212.406 57.6772 212.406C72.349 212.406 86.1369 212.318 100.455 212.406C100.632 211.876 100.72 210.11 100.809 208.431C97.2733 208.608 87.993 208.52 77.3869 208.431C63.3338 208.255 45.8337 208.078 35.2276 208.608Z" fill="#636464"/>
<path d="M95.4966 152.584L94.9688 212.72H126.637L127.033 152.716L95.4966 152.584Z" fill="white"/>
<path d="M126.636 213.049H94.967C94.9011 213.049 94.7691 212.983 94.7691 212.983C94.7031 212.917 94.7031 212.852 94.7031 212.786L95.165 152.65C95.165 152.452 95.2969 152.32 95.4948 152.32L127.031 152.452C127.097 152.452 127.229 152.518 127.229 152.518C127.295 152.584 127.295 152.65 127.295 152.716L126.9 212.654C126.965 212.917 126.834 213.049 126.636 213.049ZM95.2969 212.39H126.306L126.702 153.045L95.8247 152.914L95.2969 212.39Z" fill="#636464"/>
<path d="M107.572 171.838C105.593 171.838 103.284 171.772 101.305 171.706C101.305 169.728 101.305 167.552 101.305 165.442C103.35 165.31 105.395 165.31 107.572 165.442C107.704 167.552 107.638 169.596 107.572 171.838Z" fill="#D1D6DD"/>
<path d="M107.571 172.167C106.581 172.167 105.525 172.167 104.47 172.102C103.414 172.102 102.359 172.036 101.369 172.036C101.171 172.036 101.039 171.904 101.039 171.706V171.178C101.039 169.332 101.039 167.354 101.039 165.442C101.039 165.244 101.171 165.112 101.369 165.112C103.414 164.98 105.459 164.98 107.703 165.112C107.901 165.112 108.033 165.244 108.033 165.442C108.098 167.42 108.033 169.464 107.967 171.838C107.901 172.036 107.769 172.167 107.571 172.167ZM101.633 171.442C102.556 171.442 103.48 171.442 104.47 171.508C105.393 171.508 106.383 171.574 107.241 171.574C107.307 169.464 107.307 167.618 107.307 165.837C105.328 165.771 103.48 165.771 101.633 165.837C101.633 167.618 101.633 169.464 101.633 171.244V171.442Z" fill="#636464"/>
<path d="M120.635 171.838C118.656 171.838 116.346 171.772 114.367 171.706C114.367 169.728 114.367 167.552 114.367 165.442C116.412 165.31 118.458 165.31 120.635 165.442C120.767 167.552 120.701 169.596 120.635 171.838Z" fill="#D1D6DD"/>
<path d="M120.633 172.167C119.644 172.167 118.588 172.167 117.532 172.102C116.477 172.102 115.421 172.036 114.431 172.036C114.234 172.036 114.102 171.904 114.102 171.706V171.178C114.102 169.332 114.102 167.354 114.102 165.442C114.102 165.244 114.234 165.112 114.431 165.112C116.477 164.98 118.522 164.98 120.765 165.112C120.963 165.112 121.095 165.244 121.095 165.442C121.161 167.42 121.095 169.464 121.029 171.838C120.963 172.036 120.831 172.167 120.633 172.167ZM114.695 171.442C115.619 171.442 116.543 171.442 117.532 171.508C118.456 171.508 119.446 171.574 120.303 171.574C120.369 169.464 120.369 167.618 120.369 165.837C118.39 165.771 116.543 165.771 114.695 165.837C114.695 167.618 114.695 169.464 114.695 171.244V171.442Z" fill="#636464"/>
<path d="M107.369 185.224C105.39 185.224 103.081 185.158 101.102 185.092C101.102 183.114 101.102 180.938 101.102 178.828C103.147 178.696 105.192 178.696 107.369 178.828C107.501 180.938 107.501 182.982 107.369 185.224Z" fill="#D1D6DD"/>
<path d="M107.368 185.553C106.378 185.553 105.322 185.553 104.267 185.487C103.211 185.487 102.155 185.421 101.166 185.421C100.968 185.421 100.836 185.289 100.836 185.092V184.564C100.836 182.718 100.836 180.74 100.836 178.828C100.836 178.63 100.968 178.498 101.166 178.498C103.211 178.366 105.256 178.366 107.5 178.498C107.697 178.498 107.829 178.63 107.829 178.828C107.895 180.806 107.829 182.85 107.763 185.224C107.697 185.421 107.565 185.553 107.368 185.553ZM101.496 184.828C102.419 184.828 103.343 184.828 104.333 184.894C105.256 184.894 106.246 184.96 107.104 184.96C107.17 182.85 107.17 181.003 107.17 179.223C105.19 179.157 103.343 179.157 101.496 179.223C101.496 181.003 101.496 182.85 101.496 184.63V184.828Z" fill="#636464"/>
<path d="M120.44 185.224C118.46 185.224 116.151 185.158 114.172 185.092C114.172 183.114 114.172 180.938 114.172 178.828C116.217 178.696 118.262 178.696 120.44 178.828C120.572 180.938 120.572 182.982 120.44 185.224Z" fill="#D1D6DD"/>
<path d="M120.438 185.553C119.448 185.553 118.393 185.553 117.337 185.487C116.281 185.487 115.226 185.421 114.236 185.421C114.038 185.421 113.906 185.289 113.906 185.092V184.564C113.906 182.718 113.906 180.74 113.906 178.828C113.906 178.63 114.038 178.498 114.236 178.498C116.281 178.366 118.327 178.366 120.57 178.498C120.768 178.498 120.9 178.63 120.9 178.828C120.966 180.806 120.9 182.85 120.834 185.224C120.768 185.421 120.636 185.553 120.438 185.553ZM114.566 184.828C115.49 184.828 116.413 184.828 117.403 184.894C118.327 184.894 119.316 184.96 120.174 184.96C120.24 182.85 120.24 181.003 120.24 179.223C118.261 179.157 116.413 179.157 114.566 179.223C114.566 181.003 114.566 182.85 114.566 184.63V184.828Z" fill="#636464"/>
<path d="M107.369 198.675C105.39 198.675 103.081 198.609 101.102 198.543C101.102 196.565 101.102 194.389 101.102 192.279C103.147 192.147 105.192 192.147 107.369 192.279C107.501 194.323 107.501 196.367 107.369 198.675Z" fill="#D1D6DD"/>
<path d="M107.368 199.004C106.378 199.004 105.322 199.004 104.267 198.938C103.211 198.938 102.155 198.873 101.166 198.873C100.968 198.873 100.836 198.741 100.836 198.543V198.015C100.836 196.169 100.836 194.191 100.836 192.279C100.836 192.081 100.968 191.949 101.166 191.949C103.211 191.817 105.256 191.817 107.5 191.949C107.697 191.949 107.829 192.081 107.829 192.279C107.895 194.257 107.829 196.301 107.763 198.675C107.697 198.807 107.565 199.004 107.368 199.004ZM101.496 198.213C102.419 198.213 103.343 198.213 104.333 198.279C105.256 198.279 106.246 198.345 107.104 198.345C107.17 196.235 107.17 194.389 107.17 192.608C105.19 192.542 103.343 192.542 101.496 192.608C101.496 194.389 101.496 196.235 101.496 198.015V198.213Z" fill="#636464"/>
<path d="M120.44 198.675C118.46 198.675 116.151 198.609 114.172 198.543C114.172 196.565 114.172 194.389 114.172 192.279C116.217 192.147 118.262 192.147 120.44 192.279C120.572 194.323 120.572 196.367 120.44 198.675Z" fill="#D1D6DD"/>
<path d="M120.438 199.004C119.448 199.004 118.393 199.004 117.337 198.938C116.281 198.938 115.226 198.873 114.236 198.873C114.038 198.873 113.906 198.741 113.906 198.543V198.015C113.906 196.169 113.906 194.191 113.906 192.279C113.906 192.081 114.038 191.949 114.236 191.949C116.281 191.817 118.327 191.817 120.57 191.949C120.768 191.949 120.9 192.081 120.9 192.279C120.966 194.257 120.9 196.301 120.834 198.675C120.768 198.807 120.636 199.004 120.438 199.004ZM114.566 198.213C115.49 198.213 116.413 198.213 117.403 198.279C118.327 198.279 119.316 198.345 120.174 198.345C120.24 196.235 120.24 194.389 120.24 192.608C118.261 192.542 116.413 192.542 114.566 192.608C114.566 194.389 114.566 196.235 114.566 198.015V198.213Z" fill="#636464"/>
<path d="M126.762 156.342C116.206 156.013 105.65 155.947 95.4236 156.145C95.2257 156.145 95.0938 156.013 95.0938 155.815C95.0938 155.617 95.2257 155.485 95.4236 155.485C105.65 155.221 116.206 155.287 126.762 155.683C126.96 155.683 127.092 155.815 127.092 156.013C127.092 156.21 126.96 156.342 126.762 156.342Z" fill="#636464"/>
<path d="M107.374 167.75L101.437 167.684C101.371 167.684 101.305 167.618 101.305 167.552C101.305 167.486 101.371 167.42 101.437 167.42L107.374 167.486C107.44 167.486 107.506 167.552 107.506 167.618C107.506 167.684 107.44 167.75 107.374 167.75Z" fill="#EDEFF1"/>
<path d="M120.634 167.75C119.183 167.684 117.533 167.684 115.884 167.684C115.356 167.684 114.894 167.684 114.366 167.684C114.3 167.684 114.234 167.618 114.234 167.552C114.234 167.486 114.3 167.42 114.366 167.42C114.828 167.42 115.356 167.42 115.884 167.42C117.533 167.42 119.249 167.42 120.7 167.486C120.766 167.486 120.832 167.552 120.832 167.618C120.766 167.684 120.7 167.75 120.634 167.75Z" fill="#EDEFF1"/>
<path d="M107.243 180.872C106.385 180.872 105.395 180.872 104.406 180.872C103.416 180.872 102.36 180.872 101.437 180.872C101.371 180.872 101.305 180.806 101.305 180.74C101.305 180.674 101.371 180.674 101.437 180.608C102.36 180.674 103.35 180.608 104.406 180.608C105.395 180.608 106.451 180.608 107.309 180.608C107.375 180.608 107.441 180.674 107.441 180.74C107.309 180.872 107.309 180.872 107.243 180.872Z" fill="#EDEFF1"/>
<path d="M120.44 180.871C119.055 180.806 116.812 180.805 114.437 180.805C114.371 180.805 114.305 180.74 114.305 180.674C114.305 180.608 114.371 180.542 114.437 180.542C116.878 180.542 119.055 180.542 120.44 180.608C120.506 180.608 120.572 180.674 120.572 180.74C120.506 180.805 120.44 180.871 120.44 180.871Z" fill="#EDEFF1"/>
<path d="M104.54 194.191C103.419 194.191 102.297 194.191 101.241 194.125C101.175 194.125 101.109 194.059 101.109 193.993C101.109 193.927 101.175 193.927 101.241 193.861C102.759 193.927 104.342 193.927 105.86 193.927C106.321 193.927 106.717 193.927 107.179 193.927C107.245 193.927 107.311 193.993 107.311 194.059C107.311 194.125 107.245 194.191 107.179 194.191C106.717 194.191 106.321 194.191 105.86 194.191C105.398 194.191 104.936 194.191 104.54 194.191Z" fill="#EDEFF1"/>
<path d="M114.366 194.125C114.3 194.125 114.234 194.059 114.234 193.993C114.234 193.927 114.3 193.861 114.366 193.861C116.346 193.795 118.391 193.795 120.436 193.795C120.502 193.795 120.568 193.861 120.568 193.927C120.568 193.993 120.502 194.059 120.436 194.059C118.391 194.059 116.346 194.059 114.366 194.125Z" fill="#EDEFF1"/>
<g opacity="0.1294">
<path d="M126.373 155.947C126.109 155.947 125.911 155.947 125.647 155.947C124.789 155.947 123.865 155.947 123.008 155.881C120.831 155.749 116.08 155.617 112.979 155.749C110.604 155.617 108.229 155.617 105.854 155.551C103.941 155.551 102.027 155.617 100.114 155.617C98.7285 155.617 97.343 155.617 96.0235 155.749C94.8359 155.749 94.8359 157.661 96.0235 157.727C97.8048 157.463 99.5862 157.529 101.368 157.529C104.337 157.529 107.239 157.529 110.208 157.595C113.309 157.727 116.41 157.727 119.511 157.727C120.369 157.727 121.226 157.859 122.084 157.793C123.14 157.793 123.008 157.793 123.931 157.793C124.723 157.859 125.515 157.859 126.241 157.793C126.175 157.793 126.109 157.793 126.043 157.859C126.636 157.925 127.23 157.661 127.23 156.936C127.23 156.408 126.834 155.947 126.373 155.947Z" fill="#636464"/>
</g>
<path d="M19.8059 126.426C19.8059 125.582 19.1106 124.887 18.2662 124.887C17.4219 124.887 16.7266 125.582 16.7266 126.426C16.7266 127.27 17.4219 127.965 18.2662 127.965C19.1106 127.965 19.8059 127.27 19.8059 126.426Z" fill="#E1ECFB"/>
<path d="M18.2646 128.213C17.2712 128.213 16.4766 127.418 16.4766 126.426C16.4766 125.433 17.2712 124.639 18.2646 124.639C19.2579 124.639 20.0526 125.433 20.0526 126.426C20.0526 127.418 19.2579 128.213 18.2646 128.213ZM18.2646 125.185C17.5692 125.185 16.9732 125.78 16.9732 126.475C16.9732 127.17 17.5692 127.766 18.2646 127.766C18.9599 127.766 19.5559 127.17 19.5559 126.475C19.5559 125.731 18.9599 125.185 18.2646 125.185Z" fill="#E1ECFB"/>
<path d="M178.766 213.003C162.068 213.003 144.608 213.289 127.911 213.098C127.911 196.41 127.72 179.246 126.766 160.651C142.032 160.27 160.923 160.079 180.006 159.888C178.956 178.483 177.907 200.702 178.766 213.003Z" fill="white"/>
<path d="M137.071 213.575C134.017 213.575 130.964 213.575 127.911 213.575C127.625 213.575 127.434 213.384 127.434 213.098C127.434 198.318 127.339 180.486 126.289 160.651C126.289 160.556 126.289 160.365 126.384 160.27C126.48 160.174 126.575 160.079 126.671 160.079C140.983 159.697 158.062 159.602 176.19 159.411H179.911C180.007 159.411 180.197 159.507 180.293 159.602C180.388 159.697 180.388 159.793 180.388 159.984C179.434 178.102 178.289 200.606 179.243 213.003C179.243 213.098 179.243 213.289 179.148 213.384C179.052 213.48 178.957 213.48 178.766 213.575C171.61 213.575 164.263 213.575 157.012 213.67C150.524 213.575 143.75 213.575 137.071 213.575ZM128.388 212.621C137.834 212.717 147.566 212.621 157.107 212.526C164.073 212.526 171.324 212.431 178.289 212.431C177.43 200.034 178.575 178.102 179.434 160.27H176.19C158.252 160.46 141.364 160.556 127.148 160.937C128.197 180.581 128.388 198.032 128.388 212.621Z" fill="#636464"/>
<path d="M188.025 163.893C163.695 163.893 141.845 164.275 119.805 164.275C130.491 152.832 142.036 139.958 152.913 128.611C164.267 139.768 175.24 152.736 188.025 163.893Z" fill="white"/>
<path d="M119.804 164.847C119.613 164.847 119.422 164.751 119.422 164.561C119.327 164.37 119.422 164.179 119.518 164.084C123.525 159.793 127.723 155.216 131.826 150.734C138.696 143.2 145.852 135.476 152.626 128.42C152.721 128.324 152.817 128.324 152.912 128.324C153.008 128.324 153.199 128.324 153.199 128.42C157.588 132.711 161.881 137.193 166.365 141.961C173.331 149.303 180.487 156.837 188.215 163.702C188.406 163.798 188.406 163.988 188.31 164.179C188.215 164.37 188.024 164.465 187.833 164.465C175.334 164.465 163.503 164.561 152.054 164.656C141.081 164.751 130.49 164.847 119.804 164.847ZM152.912 129.373C146.138 136.335 139.173 143.963 132.398 151.306C128.582 155.502 124.575 159.793 120.854 163.893C131.254 163.893 141.367 163.798 152.149 163.702C163.217 163.607 174.666 163.512 186.688 163.512C179.246 156.932 172.376 149.589 165.698 142.533C161.309 137.86 157.206 133.569 152.912 129.373Z" fill="#636464"/>
<path d="M161.883 195.075C156.349 195.075 150.815 194.98 145.281 194.98C144.709 189.354 144.423 183.823 144.518 178.197C150.243 177.911 155.968 177.911 162.074 178.197C162.169 183.728 162.169 189.068 161.883 195.075Z" fill="#EAF2FF"/>
<path d="M161.881 195.552L145.279 195.457C145.088 195.457 144.802 195.266 144.802 195.075C144.134 188.686 143.943 183.346 144.039 178.292C144.039 178.006 144.229 177.815 144.516 177.815C150.24 177.529 155.965 177.529 162.072 177.815C162.358 177.815 162.549 178.006 162.549 178.292C162.644 183.632 162.549 188.972 162.358 195.171C162.358 195.361 162.167 195.552 161.881 195.552ZM145.756 194.503L161.404 194.598C161.595 188.782 161.69 183.728 161.595 178.674C155.774 178.388 150.336 178.388 144.993 178.674C144.993 183.442 145.184 188.496 145.756 194.503Z" fill="#636464"/>
<path d="M156.058 149.017C154.15 147.778 151.287 148.35 149.952 150.257C148.616 152.164 149.188 155.12 151.001 156.455C152.814 157.79 155.772 157.313 157.108 155.502C158.539 153.594 158.348 150.543 156.058 149.017Z" fill="white"/>
<path d="M153.579 157.695C152.625 157.695 151.575 157.409 150.812 156.837C148.713 155.311 148.141 152.164 149.667 149.971C151.098 147.873 154.247 147.205 156.346 148.636C157.491 149.399 158.159 150.543 158.445 151.878C158.731 153.213 158.35 154.739 157.586 155.788C156.632 157.027 155.106 157.695 153.579 157.695ZM153.77 148.827C152.434 148.827 151.098 149.399 150.43 150.543C149.286 152.259 149.763 154.929 151.385 156.074C153.007 157.313 155.678 156.837 156.823 155.216C157.491 154.357 157.682 153.213 157.491 152.069C157.3 150.924 156.728 150.066 155.774 149.399C155.201 149.017 154.438 148.827 153.77 148.827Z" fill="#636464"/>
<path d="M144.894 183.728C144.799 183.728 144.703 183.632 144.703 183.537C144.703 183.441 144.799 183.346 144.894 183.346C150.523 183.251 156.248 183.155 161.973 183.06C162.068 183.06 162.164 183.155 162.164 183.251C162.164 183.346 162.068 183.441 161.973 183.441C156.343 183.441 150.619 183.537 144.894 183.728Z" fill="#636464"/>
<path d="M153.292 194.98C153.197 194.98 153.102 194.885 153.102 194.789L153.388 183.442C153.388 183.346 153.483 183.251 153.579 183.251C153.674 183.251 153.769 183.346 153.769 183.442L153.483 194.789C153.388 194.885 153.388 194.98 153.292 194.98Z" fill="#636464"/>
<path d="M154.054 157.599C153.959 157.599 153.863 157.504 153.863 157.409C153.768 154.548 153.482 151.592 153.195 148.731C153.195 148.636 153.291 148.54 153.291 148.54C153.386 148.54 153.482 148.636 153.482 148.636C153.768 151.496 154.054 154.453 154.149 157.409C154.149 157.504 154.149 157.599 154.054 157.599Z" fill="#636464"/>
<path d="M149.48 153.022C149.384 153.022 149.289 152.927 149.289 152.831C149.289 152.736 149.384 152.641 149.48 152.641L158.067 152.069C158.162 152.069 158.258 152.164 158.258 152.259C158.258 152.355 158.162 152.45 158.067 152.45L149.48 153.022Z" fill="#636464"/>
<path d="M130.383 176.004C130.288 176.004 130.192 175.908 130.192 175.813L129.906 167.231C129.906 167.135 130.002 167.04 130.097 167.04C130.193 167.04 130.288 167.135 130.288 167.231L130.574 175.813C130.574 175.908 130.479 176.004 130.383 176.004Z" fill="#636464"/>
<path d="M132.686 170.568C132.591 170.568 132.496 170.473 132.496 170.377L132.305 166.849C132.305 166.754 132.4 166.658 132.496 166.658C132.591 166.658 132.686 166.754 132.686 166.849L132.877 170.377C132.782 170.568 132.782 170.568 132.686 170.568Z" fill="#636464"/>
<path d="M128.485 209.856C128.199 209.856 128.008 209.665 128.008 209.379C128.008 209.093 128.199 208.902 128.485 208.902L178.29 208.33C178.577 208.33 178.768 208.521 178.768 208.807C178.768 209.093 178.577 209.284 178.29 209.284L128.485 209.856Z" fill="#636464"/>
<g opacity="0.1294">
<path d="M179.911 165.8C179.816 165.61 179.721 165.419 179.625 165.324C179.625 164.656 179.148 163.989 178.385 163.989C176.667 164.179 174.855 163.989 173.137 164.084C171.42 164.084 169.607 164.275 167.889 164.465C167.508 164.465 167.126 164.465 166.744 164.656C166.267 164.656 165.886 164.656 165.409 164.656C162.546 164.751 159.779 164.656 156.917 164.656C152.623 164.656 148.33 164.751 144.036 164.751C141.555 164.751 139.075 164.561 136.594 164.656C133.827 164.656 131.155 165.037 128.388 164.751C126.576 164.561 126.385 167.326 128.198 167.421C131.346 167.708 134.4 167.326 137.548 167.326C144.132 167.612 150.715 167.421 157.299 167.326C160.066 167.326 162.833 167.421 165.6 167.421C169.416 167.612 173.233 167.803 177.144 167.707C177.335 167.707 177.526 167.707 177.622 167.707C177.717 167.707 177.812 167.707 177.908 167.707C178.289 167.803 178.576 167.707 178.957 167.707C179.625 167.231 180.102 166.468 179.911 165.8Z" fill="#636464"/>
</g>
<path d="M195.955 136.606C210.727 136.456 225.5 136.158 240.272 136.009C244.898 136.009 249.822 135.86 254 133.623C258.327 131.237 261.312 126.614 261.162 121.693C261.013 116.771 257.581 112.148 252.806 110.806C248.031 109.464 242.51 112.148 240.72 116.622C241.018 108.122 233.557 100.068 225.052 100.218C216.547 100.218 209.086 108.867 210.727 117.219C209.235 113.341 204.609 111.402 200.58 111.999C196.552 112.745 193.12 115.578 190.881 119.008C188.942 121.842 187.748 125.272 188.196 128.702C188.494 131.983 190.881 136.606 195.955 136.606Z" fill="white"/>
<path d="M195.802 137.351C190.728 137.351 187.893 133.026 187.446 128.702C186.849 124.526 188.639 120.798 190.281 118.412C192.967 114.385 196.697 111.701 200.577 111.104C204.158 110.508 207.739 111.85 209.828 114.236C209.977 111.104 211.171 107.972 213.409 105.288C216.394 101.56 220.721 99.4719 225.048 99.3228C229.226 99.3228 233.255 101.112 236.389 104.393C239.074 107.078 240.716 110.508 241.313 114.087C243.849 110.657 248.774 108.867 252.952 110.06C257.876 111.402 261.606 116.324 261.755 121.692C261.905 126.763 258.92 131.833 254.145 134.369C249.818 136.755 244.595 136.755 240.119 136.904L195.802 137.351C195.951 137.351 195.802 137.351 195.802 137.351ZM202.218 112.446C201.77 112.446 201.173 112.446 200.726 112.595C197.294 113.192 193.862 115.578 191.474 119.306C189.982 121.543 188.341 124.824 188.789 128.552C189.087 131.237 191.027 135.86 195.802 135.86C195.802 135.86 195.802 135.86 195.951 135.86L240.268 135.263C244.595 135.263 249.669 135.114 253.698 132.877C257.876 130.64 260.562 126.017 260.412 121.543C260.263 116.92 256.98 112.446 252.653 111.402C248.177 110.209 243.103 112.595 241.462 116.771C241.313 117.069 241.014 117.218 240.567 117.218C240.268 117.218 239.97 116.771 239.97 116.473C240.119 112.446 238.478 108.42 235.344 105.437C232.509 102.455 228.779 100.814 225.048 100.814C221.168 100.814 217.289 102.902 214.454 106.183C211.768 109.464 210.723 113.341 211.469 116.92C211.469 117.218 211.32 117.666 211.022 117.815C210.723 117.964 210.276 117.666 210.126 117.368C208.784 114.087 205.352 112.446 202.218 112.446Z" fill="#D1D6DD"/>
<g opacity="0.1294">
<path d="M257.434 126.912C256.986 127.061 256.688 127.359 256.389 127.508C256.091 127.807 255.643 127.956 255.196 128.254C254.3 128.851 253.405 129.447 252.51 129.895C252.361 129.895 252.361 129.895 252.361 130.044C250.421 130.491 248.63 131.386 246.541 131.684C245.198 131.833 240.423 131.684 237.737 131.833C231.918 131.982 225.949 131.982 220.13 132.132C215.504 131.982 210.878 132.43 206.253 133.026C200.284 133.474 198.344 133.772 194.017 131.833C194.017 131.833 194.166 131.833 194.166 131.982C193.122 131.684 192.376 130.939 191.331 130.64C189.391 130.342 188.496 133.026 190.137 134.07C192.525 135.263 194.912 136.456 197.598 136.904C203.567 137.948 209.535 136.158 215.504 136.307C217.593 136.307 219.682 136.456 221.771 136.307C224.606 136.158 227.441 136.009 230.277 136.009C234.455 135.86 238.931 135.711 242.065 135.263C242.065 136.158 242.811 137.053 243.855 136.904C247.287 136.605 250.57 135.562 253.554 133.921C254.3 133.623 254.897 133.175 255.643 132.728C256.091 132.43 256.539 132.281 256.837 131.982C257.136 131.684 257.136 131.237 257.136 130.938C257.583 130.64 258.031 130.342 258.478 129.895C258.926 129.596 259.225 129 259.225 128.552C259.523 127.359 258.479 126.614 257.434 126.912Z" fill="#D1D6DD"/>
</g>
<path d="M11.3718 98.1866C30.2811 98.332 49.1904 98.4773 68.2452 98.6227C70.1361 98.6227 72.1725 98.6227 73.918 98.0412C87.7363 93.2439 82.3544 82.1956 81.4817 80.015C80.0271 76.3806 75.0816 75.2177 71.4452 76.526C67.8088 77.8344 65.0451 80.8872 62.5724 83.7947C63.5906 77.2529 60.3905 69.9842 54.5723 66.786C48.754 63.5878 40.6085 64.7508 36.3902 69.8389C33.0448 73.7639 32.3175 79.2881 31.7357 84.3762C30.2811 80.5965 28.3901 76.8168 25.0447 74.4908C21.6992 72.1648 16.7537 71.7287 13.8445 74.4908C10.499 77.5436 10.9354 82.7771 11.5172 87.1382C9.77174 84.3762 5.40807 84.0854 3.08077 86.266C0.753471 88.4466 0.46255 92.3717 2.20803 95.1338C3.80804 98.0412 7.00809 98.1866 11.3718 98.1866Z" fill="white"/>
<path d="M68.8308 99.3496C68.6854 99.3496 68.3945 99.3496 68.249 99.3496L11.3756 98.9135C7.30282 98.9135 3.3755 98.9135 1.48456 95.7153C-0.551825 92.6624 0.0299959 88.3013 2.50275 85.9753C3.81186 84.8123 5.84826 84.2308 7.73919 84.3762C8.75738 84.5215 9.63011 84.8123 10.5028 85.3938C10.0665 81.0326 10.3574 76.8168 13.2665 74.0547C16.7575 70.8565 21.9939 71.7287 25.3394 74.0547C28.1031 76.0899 29.994 78.9974 31.3031 81.7594C31.8849 77.5436 32.9031 73.0371 35.8123 69.5481C40.1759 64.1693 48.6124 62.7156 54.867 66.3499C60.2489 69.4027 63.5944 75.5084 63.449 81.9048C65.4853 79.5789 68.1035 77.1075 71.3036 75.9445C75.2309 74.4908 80.6128 75.7992 82.2128 79.7242L82.3583 80.015C83.0856 81.9048 85.2674 86.8475 83.0856 91.6448C81.631 94.6977 78.7219 97.169 74.2127 98.6227C72.4672 99.2042 70.7218 99.3496 68.8308 99.3496ZM6.86644 85.8299C5.55734 85.8299 4.39369 86.266 3.3755 87.1382C1.33911 89.0281 0.902734 92.5171 2.50275 95.1338C3.95732 97.4597 6.86644 97.6051 11.2301 97.7505L68.1036 98.1866C69.9945 98.1866 71.8854 98.1866 73.6309 97.6051C77.7037 96.1514 80.4673 94.1161 81.631 91.3541C83.5219 87.2836 81.4855 82.6317 80.7582 80.8872L80.6128 80.5965C79.3037 77.3983 74.7945 76.3807 71.4491 77.5436C67.8126 78.852 65.1944 81.9048 62.8671 84.6669C62.7217 84.9577 62.2853 84.9577 61.9944 84.8123C61.7035 84.6669 61.558 84.3762 61.558 84.0854C62.4308 77.689 59.2307 70.8565 53.8488 67.8036C48.176 64.6054 40.4669 65.9138 36.5395 70.7111C33.194 74.6362 32.6122 80.3057 32.0304 84.9577C32.0304 85.2484 31.7395 85.5392 31.4486 85.5392C31.1577 85.5392 30.8667 85.3938 30.7213 85.103C29.5576 82.1956 27.6667 77.9797 24.3212 75.5084C21.4121 73.4732 16.7575 72.8917 13.9938 75.5084C11.0847 78.2705 11.2301 82.9224 11.9574 87.5744C11.9574 87.8651 11.812 88.1559 11.521 88.3012C11.2301 88.4466 10.7938 88.3012 10.6483 88.0105C9.92103 86.9929 8.75739 86.266 7.44828 86.1206C7.30282 85.8299 7.15735 85.8299 6.86644 85.8299Z" fill="#D1D6DD"/>
<g opacity="0.1294">
<path d="M79.7454 92.0807C79.1635 92.0807 78.7272 92.5169 78.2908 92.6623C77.709 93.0984 76.9817 93.3891 76.2544 93.6799H76.1089C72.7635 94.9882 68.3998 94.5521 63.0179 94.4067C54.5814 93.9706 45.854 93.2437 37.4176 93.6799C31.7448 94.116 26.072 94.116 20.3992 93.9706C16.1809 94.116 11.8173 94.4067 7.59902 94.116C5.56263 93.8253 5.70809 93.9706 4.83536 93.2438C4.25353 92.6623 4.39897 92.8076 4.25352 92.5169C4.10806 92.2261 3.6717 91.9354 3.23533 91.79C1.92622 91.3539 0.762576 92.953 1.48986 94.116C2.07168 95.1336 2.79897 96.0058 3.81717 96.5873C4.6899 97.1688 5.70809 97.3142 6.87174 97.4596C10.9445 98.4772 14.8718 98.3318 19.9628 98.0411C24.3265 98.0411 28.6902 98.0411 33.0539 97.7503C33.1993 98.0411 33.6357 98.1864 34.0721 98.1864C36.1084 98.4772 38.1449 98.3318 40.1812 98.3318C43.8176 98.3318 47.454 98.0411 51.2359 98.1864C54.8723 98.0411 58.5087 98.7679 62.1451 98.6225C62.727 98.6225 63.3088 98.1864 63.4543 97.6049C66.6543 97.6049 69.7089 98.0411 72.9089 97.6049C75.2362 97.3142 77.4181 96.5873 79.4544 95.5697C80.1817 95.1336 81.0545 94.8429 81.1999 93.9706C81.4908 93.0984 80.7635 92.0807 79.7454 92.0807Z" fill="#D1D6DD"/>
</g>
<path d="M90.6438 158.231C90.4694 157.718 90.4444 157.137 90.8432 156.741C91.2419 156.345 91.8151 156.159 92.3633 155.973C96.7742 154.506 101.21 153.063 105.621 151.597C106.219 151.411 106.867 151.341 107.266 151.713C107.864 152.295 108.113 153.459 108.412 154.32C109.085 156.182 109.733 158.044 110.406 159.906C110.555 160.302 110.68 160.698 110.605 161.094C110.53 161.489 109.434 161.955 109.01 162.071C104.425 163.282 100.238 164.864 95.4534 166.401C94.98 166.494 94.4317 166.54 94.0081 166.307C93.5096 166.051 93.2604 165.516 93.0611 165.027C92.139 162.793 91.516 160.675 90.6438 158.231Z" fill="white"/>
<path d="M94.7298 166.587C94.4059 166.587 94.1317 166.517 93.9074 166.401C93.3841 166.121 93.1349 165.586 92.9106 165.051C92.3375 163.677 91.9138 162.351 91.4403 160.954C91.1413 160.093 90.8422 159.185 90.4933 158.231C90.2691 157.579 90.3438 156.997 90.7176 156.625C91.1413 156.206 91.7643 155.996 92.2876 155.833L105.545 151.457C106.343 151.201 106.941 151.248 107.315 151.62C107.788 152.086 108.037 152.877 108.287 153.645C108.361 153.855 108.411 154.064 108.486 154.25L110.48 159.837C110.604 160.209 110.779 160.651 110.679 161.094C110.579 161.582 109.383 162.048 108.984 162.164C105.919 162.979 103.053 163.933 100.038 164.958C98.5676 165.47 97.0225 165.982 95.4276 166.494C95.2033 166.564 94.9541 166.587 94.7298 166.587ZM106.467 151.527C106.243 151.527 105.969 151.574 105.645 151.69L92.3873 156.066C91.8889 156.229 91.2908 156.415 90.917 156.811C90.4933 157.23 90.6179 157.858 90.7426 158.184C91.0914 159.138 91.3905 160.023 91.6895 160.907C92.163 162.304 92.6116 163.607 93.1598 164.981C93.3592 165.493 93.5835 165.982 94.032 166.214C94.356 166.377 94.8046 166.424 95.4027 166.284C96.9976 165.772 98.5177 165.26 99.988 164.748C103.028 163.724 105.894 162.746 108.959 161.932C109.458 161.792 110.43 161.35 110.48 161.047C110.554 160.675 110.405 160.256 110.28 159.907L108.287 154.32C108.212 154.134 108.162 153.924 108.087 153.692C107.863 152.993 107.614 152.179 107.165 151.76C106.991 151.62 106.766 151.527 106.467 151.527Z" fill="#23274D"/>
<path d="M95.1762 165.726C94.902 165.726 94.6778 165.679 94.4784 165.586C94.0298 165.353 93.8055 164.888 93.6062 164.422C93.1078 163.188 92.709 162.001 92.2854 160.768C92.0362 160 91.7621 159.185 91.4381 158.347C91.2387 157.788 91.3135 157.3 91.6375 156.974C92.0113 156.601 92.5595 156.415 93.0579 156.252L105.244 152.249C105.942 152.016 106.465 152.062 106.789 152.365C107.213 152.784 107.437 153.482 107.661 154.157C107.711 154.343 107.786 154.53 107.836 154.716L109.63 159.72C109.755 160.046 109.879 160.442 109.804 160.814C109.73 161.21 108.683 161.629 108.309 161.745C105.493 162.49 102.877 163.375 100.085 164.329C98.7149 164.795 97.3193 165.26 95.8739 165.726C95.5998 165.702 95.3755 165.726 95.1762 165.726ZM106.041 152.132C105.817 152.132 105.568 152.179 105.269 152.272L93.0828 156.275C92.6094 156.438 92.0611 156.601 91.7122 156.974C91.2886 157.369 91.4132 157.951 91.5378 158.277C91.8368 159.138 92.1109 159.93 92.3851 160.721C92.8087 161.978 93.2074 163.142 93.7059 164.376C93.9052 164.841 94.1046 165.283 94.5282 165.516C94.8522 165.679 95.2758 165.702 95.8241 165.586C97.2695 165.12 98.6899 164.655 100.036 164.189C102.827 163.258 105.443 162.351 108.259 161.606C108.658 161.489 109.63 161.07 109.705 160.744C109.78 160.395 109.655 160.023 109.53 159.697L107.736 154.693C107.686 154.53 107.611 154.343 107.562 154.134C107.362 153.505 107.138 152.784 106.714 152.388C106.565 152.225 106.341 152.132 106.041 152.132Z" fill="#23274D"/>
<path d="M95.6973 155.857C95.3484 155.88 95.0245 156.136 94.9746 156.462C94.9248 156.788 95.1989 157.137 95.5478 157.207C95.8967 157.253 96.2705 156.997 96.3452 156.671C96.3951 156.299 96.1459 155.833 95.6973 155.857Z" fill="white"/>
<path d="M95.6463 157.3C95.6214 157.3 95.5715 157.3 95.5466 157.3C95.1229 157.23 94.799 156.834 94.8488 156.438C94.8987 156.066 95.2725 155.763 95.6712 155.74C95.8706 155.717 96.0699 155.81 96.2194 155.95C96.3939 156.136 96.4936 156.415 96.4686 156.671C96.3939 157.02 96.045 157.3 95.6463 157.3ZM95.6961 155.973C95.3971 155.996 95.1229 156.206 95.098 156.462C95.0482 156.741 95.2974 157.02 95.5715 157.067C95.8706 157.113 96.1696 156.904 96.2194 156.625C96.2444 156.462 96.1696 156.229 96.045 156.113C95.9702 156.043 95.8706 155.95 95.6961 155.973Z" fill="#23274D"/>
<path d="M103.307 153.459C102.958 153.482 102.634 153.738 102.584 154.064C102.534 154.39 102.808 154.739 103.157 154.809C103.506 154.855 103.88 154.599 103.955 154.274C104.029 153.948 103.755 153.412 103.307 153.459Z" fill="white"/>
<path d="M103.256 154.902C103.231 154.902 103.181 154.902 103.156 154.902C102.732 154.832 102.408 154.437 102.458 154.041C102.508 153.669 102.882 153.366 103.281 153.343C103.48 153.319 103.679 153.413 103.829 153.552C104.003 153.738 104.103 154.018 104.078 154.274C104.028 154.623 103.654 154.902 103.256 154.902ZM103.355 153.575H103.33C103.031 153.599 102.757 153.808 102.732 154.064C102.682 154.344 102.932 154.623 103.206 154.669C103.505 154.716 103.804 154.507 103.854 154.227C103.879 154.064 103.804 153.831 103.679 153.715C103.605 153.645 103.505 153.575 103.355 153.575Z" fill="#23274D"/>
<path d="M95.5793 156.392C95.5543 156.392 95.5543 156.392 95.5294 156.392C95.4547 156.368 95.4297 156.299 95.4547 156.252C96.1773 154.39 97.0994 152.667 98.2208 150.596C98.3953 150.27 98.5697 149.991 98.794 149.735C98.8937 149.618 99.0681 149.455 99.2924 149.409C99.7908 149.316 100.214 149.804 100.339 149.967C100.713 150.41 101.062 150.829 101.386 151.248C102.183 152.202 102.931 153.11 103.479 153.738C103.529 153.785 103.504 153.854 103.454 153.901C103.404 153.948 103.33 153.924 103.28 153.878C102.706 153.249 101.959 152.342 101.186 151.387C100.837 150.968 100.489 150.549 100.14 150.107C99.8407 149.735 99.5665 149.595 99.3422 149.641C99.2176 149.665 99.093 149.735 98.9684 149.874C98.7442 150.107 98.5946 150.386 98.4202 150.689C97.2988 152.737 96.4016 154.46 95.6789 156.322C95.6789 156.368 95.6291 156.392 95.5793 156.392Z" fill="#23274D"/>
<path d="M99.3661 149.106C99.1667 149.083 98.9673 149.176 98.8677 149.316C98.7431 149.455 98.7181 149.641 98.7431 149.828C98.768 149.897 98.7929 149.967 98.8427 150.014C98.8677 150.037 98.9175 150.06 98.9424 150.084C99.0919 150.154 99.2415 150.177 99.391 150.154C99.5405 150.107 99.6651 149.991 99.7399 149.851C99.7648 149.781 99.8146 149.735 99.8146 149.665C99.8146 149.618 99.8146 149.572 99.7897 149.525C99.715 149.316 99.5904 149.129 99.3661 149.106Z" fill="#B8D4F7"/>
<path d="M99.2667 150.247C99.1421 150.247 99.0175 150.223 98.8929 150.154C98.8431 150.13 98.7932 150.107 98.7683 150.084C98.6935 150.037 98.6686 149.944 98.6437 149.851C98.5938 149.642 98.6437 149.409 98.7932 149.246C98.9427 149.06 99.1919 148.967 99.4162 148.99C99.6405 149.013 99.8149 149.176 99.9396 149.432C99.9645 149.502 99.9894 149.572 99.9894 149.618C99.9894 149.711 99.9396 149.781 99.9146 149.851C99.79 150.037 99.6405 150.177 99.491 150.223C99.3664 150.247 99.3165 150.247 99.2667 150.247ZM99.2916 149.199C99.167 149.199 99.0424 149.269 98.9427 149.362C98.8431 149.479 98.8181 149.642 98.8431 149.781C98.868 149.828 98.868 149.874 98.8929 149.898C98.9178 149.921 98.9427 149.921 98.9677 149.944C99.1172 150.014 99.2418 150.037 99.3165 150.014C99.4162 149.991 99.5159 149.898 99.6156 149.758C99.6405 149.711 99.6654 149.665 99.6654 149.618C99.6654 149.595 99.6654 149.548 99.6405 149.525C99.5657 149.339 99.4661 149.246 99.3165 149.223C99.3415 149.199 99.3165 149.199 99.2916 149.199Z" fill="#23274D"/>
<path d="M103.78 156.601C103.73 156.601 103.68 156.578 103.655 156.531C103.63 156.462 103.68 156.415 103.73 156.392C104.527 156.159 105.325 155.903 106.097 155.6C106.147 155.577 106.222 155.6 106.247 155.67C106.272 155.717 106.247 155.786 106.172 155.81C105.399 156.112 104.602 156.368 103.805 156.601H103.78Z" fill="#006FFD"/>
<path d="M96.2062 163.188C96.1564 163.188 96.1065 163.165 96.0816 163.119C95.9321 162.723 95.7826 162.304 95.633 161.885C95.6081 161.885 95.5832 161.908 95.5832 161.908C95.5334 161.932 95.4586 161.908 95.4337 161.862C95.4088 161.815 95.4337 161.745 95.4835 161.722C95.5084 161.699 95.5334 161.699 95.5583 161.676C95.3091 160.977 95.01 160.302 94.7359 159.604C94.711 159.557 94.7359 159.488 94.8107 159.464C95.0848 159.348 95.3589 159.255 95.633 159.208C95.7576 159.185 95.9321 159.162 96.0816 159.185C96.3557 159.231 96.58 159.371 96.8043 159.65C97.0037 159.907 97.0784 160.163 97.0535 160.395C97.0286 160.628 96.904 160.884 96.6548 161.14C96.5053 161.303 96.3557 161.443 96.1813 161.559C96.8791 161.513 97.6018 161.815 97.9756 162.327C98.0005 162.374 98.0005 162.444 97.9506 162.49C97.9008 162.513 97.826 162.513 97.7762 162.467C97.4024 161.932 96.6049 161.676 95.8822 161.838C96.0318 162.257 96.1813 162.653 96.3308 163.072C96.3557 163.142 96.3059 163.188 96.2561 163.212C96.2311 163.188 96.2062 163.188 96.2062 163.188ZM94.9851 159.581C95.2592 160.232 95.5084 160.884 95.7576 161.513C96.0318 161.35 96.2561 161.163 96.4554 160.954C96.6548 160.721 96.7794 160.535 96.8043 160.349C96.8292 160.163 96.7545 159.953 96.58 159.744C96.4056 159.511 96.2311 159.394 96.0318 159.371C95.9072 159.348 95.7826 159.371 95.658 159.394C95.4337 159.441 95.2094 159.488 94.9851 159.581Z" fill="#006FFD"/>
<path d="M99.1921 162.071C99.1423 162.071 99.0924 162.048 99.0675 162.001C98.6439 160.791 98.1953 159.65 97.7218 158.603C97.6969 158.58 97.6969 158.533 97.7218 158.51C97.7467 158.487 97.7717 158.463 97.7966 158.44C98.4445 158.254 99.0924 158.044 99.7404 157.788C99.7902 157.765 99.865 157.788 99.8899 157.858C99.9148 157.905 99.8899 157.974 99.8151 157.998C99.217 158.231 98.594 158.44 97.9959 158.603C98.4694 159.627 98.8931 160.744 99.3167 161.908C99.3416 161.978 99.2918 162.025 99.242 162.048C99.217 162.071 99.217 162.071 99.1921 162.071Z" fill="#006FFD"/>
<path d="M98.5246 160.814C98.4747 160.814 98.4249 160.791 98.4 160.744C98.375 160.675 98.4 160.628 98.4747 160.605L99.945 160.116C100.02 160.093 100.07 160.116 100.095 160.186C100.119 160.256 100.095 160.302 100.02 160.325L98.5495 160.814H98.5246Z" fill="#006FFD"/>
<path d="M99.1964 162.071C99.1466 162.071 99.0968 162.048 99.0718 162.001C99.0469 161.955 99.0718 161.885 99.1466 161.862C99.7696 161.606 100.442 161.396 101.09 161.187C101.165 161.163 101.215 161.21 101.24 161.256C101.265 161.326 101.215 161.373 101.165 161.396C100.517 161.582 99.8693 161.815 99.2463 162.071C99.2214 162.071 99.2214 162.071 99.1964 162.071Z" fill="#006FFD"/>
<path d="M102.059 161.07C102.009 161.07 101.959 161.047 101.935 160.977C101.586 159.79 101.162 158.649 100.713 157.555C100.689 157.509 100.713 157.462 100.738 157.416C100.788 157.393 100.838 157.369 100.888 157.416C101.66 157.835 102.283 158.417 102.906 158.975C103.205 159.255 103.505 159.534 103.853 159.79C103.455 158.952 103.156 158.068 102.882 157.206C102.832 157.067 102.782 156.95 102.757 156.811C102.732 156.741 102.782 156.694 102.832 156.671C102.906 156.648 102.956 156.694 102.981 156.741C103.031 156.88 103.081 156.997 103.106 157.137C103.43 158.137 103.779 159.185 104.302 160.139C104.327 160.186 104.302 160.256 104.277 160.279C104.227 160.302 104.177 160.302 104.128 160.279C103.629 159.93 103.181 159.511 102.757 159.115C102.209 158.626 101.685 158.161 101.087 157.765C101.486 158.766 101.86 159.813 102.184 160.884C102.209 160.954 102.159 161 102.109 161.024C102.059 161.07 102.059 161.07 102.059 161.07Z" fill="#006FFD"/>
<path d="M106.3 159.557C106.25 159.557 106.2 159.534 106.175 159.488C105.702 158.394 105.253 157.253 104.83 156.136C104.805 156.066 104.83 156.019 104.904 155.996C104.979 155.973 105.029 155.996 105.054 156.066C105.478 157.183 105.926 158.324 106.4 159.418C106.425 159.488 106.4 159.534 106.325 159.557C106.35 159.557 106.325 159.557 106.3 159.557Z" fill="#006FFD"/>
<g opacity="0.1294">
<path d="M110.507 160.884C110.283 160.768 110.183 161.047 110.134 161.07C110.034 161.164 109.81 161.303 109.585 161.373C109.037 161.606 108.339 161.769 107.691 161.932C107.268 162.048 106.844 162.211 106.421 162.351C105.723 162.607 105 162.863 104.277 163.049C103.804 163.189 103.33 163.375 102.857 163.514C101.636 163.84 100.465 164.259 99.2434 164.632C97.7482 165.144 95.8293 165.796 94.5085 166.028C94.3341 166.052 94.3839 166.028 94.0849 166.052C94.06 166.052 94.0351 166.052 93.9852 166.075C93.7609 166.145 93.8357 166.494 94.0849 166.494C94.2843 166.494 94.5085 166.517 94.7079 166.494C95.1066 166.447 95.4804 166.308 95.8792 166.215C97.2249 165.865 98.4709 165.307 99.8166 164.911C100.489 164.702 101.162 164.492 101.835 164.283C102.508 164.096 103.181 163.91 103.804 163.677C104.228 163.538 104.651 163.421 105.075 163.282C105.797 163.026 106.396 162.793 107.193 162.514C107.766 162.304 108.364 162.211 108.937 162.048C109.311 161.955 109.66 161.769 110.009 161.629C110.208 161.513 110.856 161.117 110.507 160.884Z" fill="#23274D"/>
</g>
<path d="M27.7129 163.302C21.501 162.541 15.0355 166.089 11.993 171.537C8.9504 176.985 9.07717 184.081 12.1197 189.655C13.5143 192.316 15.6694 194.597 18.3317 195.864C20.6136 196.877 23.1491 197.004 25.6845 197.131C27.5862 197.131 29.6145 197.131 31.3894 196.371C32.9107 195.737 34.1784 194.723 35.3194 193.583C39.8832 189.022 42.0384 182.18 40.6439 175.972C39.2493 169.51 33.9249 163.935 27.7129 163.302Z" fill="white"/>
<path d="M26.4458 197.638C26.1922 197.638 25.9387 197.638 25.6851 197.638C23.2764 197.638 20.6142 197.511 18.2055 196.371C14.9093 194.85 12.881 192.063 11.6132 189.909C8.44388 184.081 8.3171 176.732 11.4864 171.284C14.7826 165.455 21.5016 161.908 27.8403 162.668C34.179 163.428 39.757 168.876 41.4051 175.718C42.7996 181.927 40.6444 189.149 35.827 193.963C34.4325 195.357 33.038 196.371 31.6435 196.877C29.8687 197.511 28.0938 197.638 26.4458 197.638ZM26.0654 163.808C20.7409 163.808 15.2897 166.976 12.5006 171.917C9.58484 177.112 9.71161 183.954 12.6274 189.402C13.6416 191.429 15.5432 193.963 18.5858 195.357C20.8677 196.371 23.4032 196.497 25.6851 196.497C27.46 196.497 29.4883 196.497 31.1364 195.864C32.4041 195.357 33.5451 194.47 34.8128 193.203C39.2499 188.642 41.2783 181.927 40.0106 176.098C38.6161 169.763 33.2916 164.695 27.5867 164.062C27.0796 163.808 26.5725 163.808 26.0654 163.808Z" fill="#D1D6DD"/>
<path d="M25.4325 214.235C25.0522 214.235 24.7986 213.982 24.7986 213.602L24.6719 172.171C24.6719 171.791 24.9254 171.537 25.3057 171.537C25.6861 171.537 25.9396 171.791 25.9396 172.171L26.0664 213.602C25.9396 213.982 25.6861 214.235 25.4325 214.235Z" fill="#D1D6DD"/>
<path d="M25.4332 189.529C25.3064 189.529 25.3064 189.529 25.1797 189.529C24.9261 189.402 24.6726 189.022 24.7993 188.768C26.3206 185.221 28.8561 182.053 32.1522 179.899C32.4058 179.773 32.7861 179.773 33.0396 180.026C33.1664 180.279 33.1664 180.66 32.9129 180.913C29.8703 182.94 27.4616 185.854 26.0671 189.275C25.8135 189.402 25.6868 189.529 25.4332 189.529Z" fill="#D1D6DD"/>
<path d="M13.6378 178.632C13.5111 178.632 13.5111 178.506 13.3843 178.506C13.1308 176.605 13.6378 174.705 14.7788 173.184C14.9056 173.057 15.0324 173.057 15.0324 173.184C15.1591 173.311 15.1591 173.438 15.0324 173.438C14.0182 174.831 13.5111 176.732 13.7646 178.379C13.7646 178.506 13.7646 178.632 13.6378 178.632Z" fill="#D1D6DD"/>
<path d="M16.0504 179.012C15.9236 179.012 15.7969 178.886 15.7969 178.759L16.304 175.845C16.304 175.718 16.4307 175.718 16.5575 175.718C16.6843 175.718 16.6843 175.845 16.6843 175.972L16.1772 178.886C16.304 178.886 16.1772 179.012 16.0504 179.012Z" fill="#D1D6DD"/>
<path d="M32.9097 191.809C32.9097 191.809 32.7829 191.809 32.7829 191.683C32.6561 191.556 32.7829 191.429 32.7829 191.429C34.1774 190.416 35.1916 189.022 35.8255 187.375C35.8255 187.248 35.9523 187.248 36.079 187.248C36.2058 187.248 36.2058 187.375 36.2058 187.501C35.4452 189.149 34.431 190.669 32.9097 191.809Z" fill="#D1D6DD"/>
<g opacity="0.1294">
<path d="M36.9701 189.148C36.463 189.148 36.2094 189.529 35.8291 189.909C35.1952 190.542 34.6881 191.176 34.0543 191.809C33.4204 192.316 32.1526 193.203 30.8849 193.836C30.7581 193.963 30.6314 193.963 30.5046 193.963C29.9975 194.09 29.3636 194.343 28.8565 194.343H28.7297C28.603 194.343 28.603 194.343 28.603 194.343C26.7014 194.597 24.9265 194.217 21.3769 193.456C19.9824 193.076 20.4894 193.203 19.2217 192.696C18.9682 192.696 18.2075 192.316 17.954 192.189C16.6862 191.556 16.0524 191.176 15.5453 190.669C15.0382 190.289 14.7846 189.782 14.2775 189.529C13.1366 189.022 12.1224 190.542 13.0098 191.429C14.024 192.443 15.1649 193.33 16.4327 193.963C16.6862 194.09 17.8272 194.597 18.2075 194.723C19.7288 195.484 19.9824 195.737 21.2501 196.117C22.5178 196.624 23.7856 196.877 25.0533 197.004C26.321 197.257 27.5888 197.257 28.8565 197.004C29.8707 196.751 30.7581 196.37 31.6455 195.864C33.4204 194.977 35.1952 193.963 36.463 192.443C36.97 191.936 37.4771 191.302 37.9842 190.796C38.2378 190.542 38.2378 190.289 38.2378 190.035C38.111 189.655 37.6039 189.148 36.9701 189.148Z" fill="#D1D6DD"/>
</g>
<path d="M231.793 154.259L231.266 214.395H262.934L263.33 154.391L231.793 154.259Z" fill="white"/>
<path d="M262.932 214.725H231.264C231.198 214.725 231.066 214.659 231.066 214.659C231 214.593 231 214.527 231 214.461L231.462 154.325C231.462 154.127 231.594 153.996 231.792 153.996L263.328 154.127C263.394 154.127 263.526 154.193 263.526 154.193C263.592 154.259 263.592 154.325 263.592 154.391L263.196 214.329C263.262 214.593 263.13 214.725 262.932 214.725ZM231.594 214.065H262.603L262.998 154.721L232.122 154.589L231.594 214.065Z" fill="#636464"/>
<path d="M243.869 173.513C241.89 173.513 239.581 173.448 237.602 173.382C237.602 171.403 237.602 169.227 237.602 167.117C239.647 166.986 241.692 166.986 243.869 167.117C244.001 169.227 243.935 171.272 243.869 173.513Z" fill="#D1D6DD"/>
<path d="M243.868 173.843C242.878 173.843 241.822 173.843 240.767 173.777C239.711 173.777 238.655 173.711 237.666 173.711C237.468 173.711 237.336 173.579 237.336 173.381V172.854C237.336 171.008 237.336 169.03 237.336 167.117C237.336 166.92 237.468 166.788 237.666 166.788C239.711 166.656 241.756 166.656 244 166.788C244.197 166.788 244.329 166.92 244.329 167.117C244.395 169.095 244.329 171.14 244.263 173.513C244.197 173.711 244.065 173.843 243.868 173.843ZM237.93 173.118C238.853 173.118 239.777 173.118 240.767 173.184C241.69 173.184 242.68 173.25 243.538 173.25C243.604 171.14 243.604 169.293 243.604 167.513C241.624 167.447 239.777 167.447 237.93 167.513C237.93 169.293 237.93 171.14 237.93 172.92V173.118Z" fill="#636464"/>
<path d="M256.932 173.513C254.953 173.513 252.643 173.448 250.664 173.382C250.664 171.403 250.664 169.227 250.664 167.117C252.709 166.986 254.755 166.986 256.932 167.117C257.064 169.227 256.998 171.272 256.932 173.513Z" fill="#D1D6DD"/>
<path d="M256.93 173.843C255.94 173.843 254.885 173.843 253.829 173.777C252.774 173.777 251.718 173.711 250.728 173.711C250.53 173.711 250.398 173.579 250.398 173.381V172.854C250.398 171.008 250.398 169.03 250.398 167.117C250.398 166.92 250.53 166.788 250.728 166.788C252.774 166.656 254.819 166.656 257.062 166.788C257.26 166.788 257.392 166.92 257.392 167.117C257.458 169.095 257.392 171.14 257.326 173.513C257.26 173.711 257.128 173.843 256.93 173.843ZM250.992 173.118C251.916 173.118 252.84 173.118 253.829 173.184C254.753 173.184 255.743 173.25 256.6 173.25C256.666 171.14 256.666 169.293 256.666 167.513C254.687 167.447 252.84 167.447 250.992 167.513C250.992 169.293 250.992 171.14 250.992 172.92V173.118Z" fill="#636464"/>
<path d="M243.666 186.899C241.687 186.899 239.378 186.833 237.398 186.767C237.398 184.789 237.398 182.613 237.398 180.503C239.444 180.371 241.489 180.371 243.666 180.503C243.798 182.613 243.798 184.657 243.666 186.899Z" fill="#D1D6DD"/>
<path d="M243.664 187.229C242.675 187.229 241.619 187.229 240.564 187.163C239.508 187.163 238.452 187.097 237.463 187.097C237.265 187.097 237.133 186.965 237.133 186.767V186.24C237.133 184.393 237.133 182.415 237.133 180.503C237.133 180.305 237.265 180.173 237.463 180.173C239.508 180.041 241.553 180.041 243.796 180.173C243.994 180.173 244.126 180.305 244.126 180.503C244.192 182.481 244.126 184.525 244.06 186.899C243.994 187.097 243.862 187.229 243.664 187.229ZM237.793 186.503C238.716 186.503 239.64 186.503 240.63 186.569C241.553 186.569 242.543 186.635 243.401 186.635C243.467 184.525 243.467 182.679 243.467 180.899C241.487 180.833 239.64 180.833 237.793 180.899C237.793 182.679 237.793 184.525 237.793 186.306V186.503Z" fill="#636464"/>
<path d="M256.736 186.899C254.757 186.899 252.448 186.833 250.469 186.767C250.469 184.789 250.469 182.613 250.469 180.503C252.514 180.371 254.559 180.371 256.736 180.503C256.868 182.613 256.868 184.657 256.736 186.899Z" fill="#D1D6DD"/>
<path d="M256.735 187.229C255.745 187.229 254.69 187.229 253.634 187.163C252.578 187.163 251.523 187.097 250.533 187.097C250.335 187.097 250.203 186.965 250.203 186.767V186.24C250.203 184.393 250.203 182.415 250.203 180.503C250.203 180.305 250.335 180.173 250.533 180.173C252.578 180.041 254.624 180.041 256.867 180.173C257.065 180.173 257.197 180.305 257.197 180.503C257.263 182.481 257.197 184.525 257.131 186.899C257.065 187.097 256.933 187.229 256.735 187.229ZM250.863 186.503C251.787 186.503 252.71 186.503 253.7 186.569C254.624 186.569 255.613 186.635 256.471 186.635C256.537 184.525 256.537 182.679 256.537 180.899C254.558 180.833 252.71 180.833 250.863 180.899C250.863 182.679 250.863 184.525 250.863 186.306V186.503Z" fill="#636464"/>
<path d="M243.666 200.35C241.687 200.35 239.378 200.284 237.398 200.218C237.398 198.24 237.398 196.064 237.398 193.954C239.444 193.822 241.489 193.822 243.666 193.954C243.798 195.998 243.798 198.042 243.666 200.35Z" fill="#D1D6DD"/>
<path d="M243.664 200.68C242.675 200.68 241.619 200.68 240.564 200.614C239.508 200.614 238.452 200.548 237.463 200.548C237.265 200.548 237.133 200.416 237.133 200.218V199.691C237.133 197.845 237.133 195.866 237.133 193.954C237.133 193.756 237.265 193.625 237.463 193.625C239.508 193.493 241.553 193.493 243.796 193.625C243.994 193.625 244.126 193.756 244.126 193.954C244.192 195.932 244.126 197.976 244.06 200.35C243.994 200.482 243.862 200.68 243.664 200.68ZM237.793 199.889C238.716 199.889 239.64 199.889 240.63 199.955C241.553 199.955 242.543 200.021 243.401 200.021C243.467 197.911 243.467 196.064 243.467 194.284C241.487 194.218 239.64 194.218 237.793 194.284C237.793 196.064 237.793 197.911 237.793 199.691V199.889Z" fill="#636464"/>
<path d="M256.736 200.35C254.757 200.35 252.448 200.284 250.469 200.218C250.469 198.24 250.469 196.064 250.469 193.954C252.514 193.822 254.559 193.822 256.736 193.954C256.868 195.998 256.868 198.042 256.736 200.35Z" fill="#D1D6DD"/>
<path d="M256.735 200.68C255.745 200.68 254.69 200.68 253.634 200.614C252.578 200.614 251.523 200.548 250.533 200.548C250.335 200.548 250.203 200.416 250.203 200.218V199.691C250.203 197.845 250.203 195.866 250.203 193.954C250.203 193.756 250.335 193.625 250.533 193.625C252.578 193.493 254.624 193.493 256.867 193.625C257.065 193.625 257.197 193.756 257.197 193.954C257.263 195.932 257.197 197.976 257.131 200.35C257.065 200.482 256.933 200.68 256.735 200.68ZM250.863 199.889C251.787 199.889 252.71 199.889 253.7 199.955C254.624 199.955 255.613 200.021 256.471 200.021C256.537 197.911 256.537 196.064 256.537 194.284C254.558 194.218 252.71 194.218 250.863 194.284C250.863 196.064 250.863 197.911 250.863 199.691V199.889Z" fill="#636464"/>
<path d="M263.059 158.018C252.503 157.688 241.947 157.622 231.721 157.82C231.523 157.82 231.391 157.688 231.391 157.49C231.391 157.293 231.523 157.161 231.721 157.161C241.947 156.897 252.503 156.963 263.059 157.359C263.257 157.359 263.389 157.49 263.389 157.688C263.389 157.886 263.257 158.018 263.059 158.018Z" fill="#636464"/>
<path d="M243.671 169.425L237.734 169.359C237.668 169.359 237.602 169.293 237.602 169.227C237.602 169.161 237.668 169.095 237.734 169.095L243.671 169.161C243.737 169.161 243.803 169.227 243.803 169.293C243.803 169.359 243.737 169.425 243.671 169.425Z" fill="#EDEFF1"/>
<path d="M256.931 169.425C255.479 169.359 253.83 169.359 252.181 169.359C251.653 169.359 251.191 169.359 250.663 169.359C250.597 169.359 250.531 169.293 250.531 169.227C250.531 169.161 250.597 169.095 250.663 169.095C251.125 169.095 251.653 169.095 252.181 169.095C253.83 169.095 255.545 169.095 256.997 169.161C257.063 169.161 257.129 169.227 257.129 169.293C257.063 169.359 256.997 169.425 256.931 169.425Z" fill="#EDEFF1"/>
<path d="M243.539 182.547C242.682 182.547 241.692 182.547 240.702 182.547C239.713 182.547 238.657 182.547 237.734 182.547C237.668 182.547 237.602 182.481 237.602 182.415C237.602 182.349 237.668 182.349 237.734 182.283C238.657 182.349 239.647 182.283 240.702 182.283C241.692 182.283 242.748 182.283 243.605 182.283C243.671 182.283 243.737 182.349 243.737 182.415C243.605 182.547 243.605 182.547 243.539 182.547Z" fill="#EDEFF1"/>
<path d="M256.737 182.547C255.352 182.481 253.109 182.481 250.734 182.481C250.668 182.481 250.602 182.415 250.602 182.349C250.602 182.283 250.668 182.217 250.734 182.217C253.175 182.217 255.352 182.217 256.737 182.283C256.803 182.283 256.869 182.349 256.869 182.415C256.803 182.481 256.737 182.547 256.737 182.547Z" fill="#EDEFF1"/>
<path d="M240.837 195.867C239.715 195.867 238.594 195.867 237.538 195.801C237.472 195.801 237.406 195.735 237.406 195.669C237.406 195.603 237.472 195.603 237.538 195.537C239.056 195.603 240.639 195.603 242.157 195.603C242.618 195.603 243.014 195.603 243.476 195.603C243.542 195.603 243.608 195.669 243.608 195.735C243.608 195.801 243.542 195.867 243.476 195.867C243.014 195.867 242.618 195.867 242.157 195.867C241.695 195.867 241.233 195.867 240.837 195.867Z" fill="#EDEFF1"/>
<path d="M250.663 195.801C250.597 195.801 250.531 195.735 250.531 195.669C250.531 195.603 250.597 195.537 250.663 195.537C252.642 195.471 254.688 195.471 256.733 195.471C256.799 195.471 256.865 195.537 256.865 195.603C256.865 195.669 256.799 195.735 256.733 195.735C254.688 195.735 252.642 195.735 250.663 195.801Z" fill="#EDEFF1"/>
<g opacity="0.1294">
<path d="M262.669 157.622C262.405 157.622 262.208 157.622 261.944 157.622C261.086 157.622 260.162 157.622 259.305 157.556C257.127 157.424 252.377 157.293 249.276 157.424C246.901 157.293 244.526 157.293 242.151 157.227C240.238 157.227 238.324 157.293 236.411 157.293C235.025 157.293 233.64 157.293 232.32 157.424C231.133 157.424 231.133 159.337 232.32 159.403C234.102 159.139 235.883 159.205 237.664 159.205C240.633 159.205 243.536 159.205 246.505 159.271C249.606 159.403 252.707 159.403 255.808 159.403C256.666 159.403 257.523 159.534 258.381 159.468C259.437 159.468 259.305 159.468 260.228 159.468C261.02 159.534 261.812 159.534 262.537 159.468C262.471 159.468 262.405 159.468 262.34 159.534C262.933 159.6 263.527 159.337 263.527 158.611C263.527 158.084 263.131 157.622 262.669 157.622Z" fill="#636464"/>
</g>
<path d="M290.929 180.731L290.07 214.678H348.654L349.322 180.826L290.929 180.731Z" fill="white"/>
<path d="M348.653 215.155H290.069C289.974 215.155 289.783 215.06 289.783 215.06C289.688 214.964 289.688 214.869 289.688 214.678L290.546 180.731C290.546 180.445 290.737 180.254 291.023 180.254L349.416 180.349C349.511 180.349 349.702 180.445 349.702 180.445C349.798 180.54 349.798 180.635 349.798 180.826L349.13 214.678C349.13 214.869 348.939 215.155 348.653 215.155ZM290.546 214.201H348.176L348.844 181.303L291.405 181.207L290.546 214.201Z" fill="#636464"/>
<path d="M315.063 214.678C298.365 214.678 280.905 214.964 264.207 214.774C264.207 198.086 264.017 180.921 263.062 162.327C278.329 161.945 297.22 161.754 316.303 161.564C315.253 180.159 314.204 202.377 315.063 214.678Z" fill="white"/>
<path d="M273.368 215.25C270.314 215.25 267.261 215.25 264.208 215.25C263.922 215.25 263.731 215.06 263.731 214.774C263.731 199.993 263.635 182.161 262.586 162.327C262.586 162.231 262.586 162.041 262.681 161.945C262.777 161.85 262.872 161.754 262.968 161.754C277.28 161.373 294.358 161.278 312.487 161.087H316.208C316.303 161.087 316.494 161.182 316.59 161.278C316.685 161.373 316.685 161.468 316.685 161.659C315.731 179.777 314.586 202.282 315.54 214.678C315.54 214.774 315.54 214.964 315.445 215.06C315.349 215.155 315.254 215.155 315.063 215.25C307.907 215.25 300.56 215.25 293.309 215.346C286.821 215.25 280.046 215.25 273.368 215.25ZM264.685 214.297C274.131 214.392 283.863 214.297 293.404 214.202C300.369 214.202 307.621 214.106 314.586 214.106C313.727 201.71 314.872 179.777 315.731 161.945H312.487C294.549 162.136 277.661 162.231 263.445 162.613C264.494 182.256 264.685 199.707 264.685 214.297Z" fill="#636464"/>
<path d="M324.322 165.569C299.992 165.569 278.142 165.95 256.102 165.95C266.788 154.507 278.333 141.634 289.21 130.286C300.564 141.443 311.536 154.412 324.322 165.569Z" fill="white"/>
<path d="M256.101 166.522C255.91 166.522 255.719 166.427 255.719 166.236C255.624 166.045 255.719 165.855 255.815 165.759C259.822 161.468 264.02 156.891 268.123 152.409C274.993 144.876 282.149 137.152 288.923 130.095C289.018 130 289.114 130 289.209 130C289.305 130 289.495 130 289.495 130.095C293.884 134.386 298.178 138.868 302.662 143.636C309.628 150.979 316.783 158.512 324.512 165.378C324.703 165.473 324.703 165.664 324.607 165.855C324.512 166.045 324.321 166.141 324.13 166.141C311.631 166.141 299.8 166.236 288.35 166.332C277.378 166.427 266.787 166.522 256.101 166.522ZM289.209 131.049C282.435 138.01 275.47 145.639 268.695 152.981C264.879 157.177 260.872 161.468 257.15 165.569C267.55 165.569 277.664 165.473 288.446 165.378C299.514 165.283 310.963 165.187 322.985 165.187C315.543 158.608 308.673 151.265 301.994 144.208C297.605 139.536 293.503 135.245 289.209 131.049Z" fill="#636464"/>
<path d="M298.18 196.751C292.646 196.751 287.112 196.655 281.578 196.655C281.006 191.029 280.72 185.498 280.815 179.872C286.54 179.586 292.265 179.586 298.371 179.872C298.466 185.403 298.466 190.743 298.18 196.751Z" fill="#EAF2FF"/>
<path d="M298.178 197.228L281.576 197.132C281.385 197.132 281.099 196.942 281.099 196.751C280.431 190.362 280.24 185.022 280.336 179.968C280.336 179.682 280.526 179.491 280.813 179.491C286.537 179.205 292.262 179.205 298.369 179.491C298.655 179.491 298.846 179.682 298.846 179.968C298.941 185.308 298.846 190.648 298.655 196.846C298.655 197.037 298.464 197.228 298.178 197.228ZM282.053 196.179L297.701 196.274C297.892 190.457 297.987 185.403 297.892 180.349C292.071 180.063 286.633 180.063 281.29 180.349C281.29 185.117 281.481 190.171 282.053 196.179Z" fill="#636464"/>
<path d="M292.355 150.693C290.447 149.453 287.584 150.025 286.249 151.932C284.913 153.84 285.485 156.796 287.298 158.131C289.111 159.466 292.069 158.989 293.405 157.177C294.836 155.27 294.645 152.219 292.355 150.693Z" fill="white"/>
<path d="M289.876 159.37C288.922 159.37 287.872 159.084 287.109 158.512C285.01 156.986 284.437 153.84 285.964 151.646C287.395 149.548 290.544 148.881 292.643 150.311C293.788 151.074 294.456 152.219 294.742 153.554C295.028 154.889 294.647 156.414 293.883 157.463C292.929 158.703 291.403 159.37 289.876 159.37ZM290.067 150.502C288.731 150.502 287.395 151.074 286.727 152.218C285.582 153.935 286.059 156.605 287.681 157.749C289.303 158.989 291.975 158.512 293.12 156.891C293.788 156.033 293.979 154.889 293.788 153.744C293.597 152.6 293.025 151.742 292.07 151.074C291.498 150.693 290.735 150.502 290.067 150.502Z" fill="#636464"/>
<path d="M322.026 215.155C321.739 215.155 321.549 214.964 321.549 214.678C321.739 207.05 321.549 199.516 321.453 193.127C321.453 193.032 321.453 192.841 321.549 192.746C321.644 192.65 321.739 192.65 321.835 192.65C328.227 192.65 334.906 192.65 341.585 192.65C341.681 192.65 341.871 192.746 341.871 192.746C341.967 192.841 341.967 192.936 341.967 193.032C341.967 194.939 341.967 196.846 341.967 198.658C341.967 204.379 341.967 209.72 341.776 214.297C341.776 214.583 341.585 214.774 341.299 214.774C341.013 214.774 340.822 214.583 340.822 214.297C341.013 209.72 341.013 204.379 341.013 198.658C341.013 196.942 341.013 195.32 341.013 193.509C334.716 193.509 328.418 193.509 322.216 193.509C322.312 199.802 322.503 207.145 322.312 214.583C322.503 214.964 322.312 215.155 322.026 215.155Z" fill="#636464"/>
<path d="M322.41 196.274C322.314 196.274 322.219 196.179 322.219 196.083C322.219 195.988 322.314 195.893 322.41 195.893C328.611 195.607 334.813 195.511 341.015 195.607C341.111 195.607 341.206 195.702 341.206 195.797C341.206 195.893 341.111 195.988 341.015 195.988C334.813 195.797 328.611 195.893 322.41 196.274Z" fill="#636464"/>
<path d="M326.231 198.658C324.895 198.658 323.559 198.658 322.128 198.658C322.033 198.658 321.938 198.563 321.938 198.467C321.938 198.372 322.033 198.276 322.128 198.276C328.521 198.372 335.009 198.276 341.402 197.895C341.497 197.895 341.593 197.99 341.593 198.086C341.593 198.181 341.497 198.276 341.402 198.276C336.345 198.563 331.288 198.658 326.231 198.658Z" fill="#636464"/>
<path d="M322.027 201.805C321.931 201.805 321.836 201.71 321.836 201.614C321.836 201.519 321.931 201.423 322.027 201.423C328.515 200.947 335.098 200.851 341.586 201.042C341.682 201.042 341.777 201.137 341.777 201.233C341.777 201.328 341.682 201.423 341.586 201.423C335.098 201.137 328.515 201.328 322.027 201.805Z" fill="#636464"/>
<path d="M322.222 204.761C322.127 204.761 322.031 204.666 322.031 204.57C322.031 204.475 322.127 204.38 322.222 204.38L341.591 203.807C341.686 203.807 341.782 203.903 341.782 203.998C341.782 204.093 341.686 204.189 341.591 204.189L322.222 204.761Z" fill="#636464"/>
<path d="M328.706 207.24C326.511 207.24 324.221 207.24 322.027 207.24C321.931 207.24 321.836 207.145 321.836 207.049C321.836 206.954 321.931 206.859 322.027 206.859C328.419 206.859 335.003 206.859 341.396 206.763C341.491 206.763 341.586 206.859 341.586 206.954C341.586 207.049 341.491 207.145 341.396 207.145C337.293 207.145 332.999 207.24 328.706 207.24Z" fill="#636464"/>
<path d="M322.128 209.72C322.033 209.72 321.938 209.624 321.938 209.529C321.938 209.434 322.033 209.338 322.128 209.338H341.115C341.211 209.338 341.306 209.434 341.306 209.529C341.306 209.624 341.211 209.72 341.115 209.72H322.128Z" fill="#636464"/>
<path d="M330.998 212.104C328.136 212.104 325.178 212.008 322.316 211.913C322.22 211.913 322.125 211.817 322.125 211.722C322.125 211.627 322.22 211.531 322.316 211.531C328.709 211.722 335.101 211.722 341.494 211.436C341.589 211.436 341.685 211.531 341.685 211.627C341.685 211.722 341.589 211.817 341.494 211.817C338.059 212.008 334.529 212.104 330.998 212.104Z" fill="#636464"/>
<path d="M281.191 185.403C281.095 185.403 281 185.308 281 185.213C281 185.117 281.095 185.022 281.191 185.022C286.82 184.927 292.545 184.831 298.27 184.736C298.365 184.736 298.461 184.831 298.461 184.927C298.461 185.022 298.365 185.117 298.27 185.117C292.64 185.117 286.916 185.213 281.191 185.403Z" fill="#636464"/>
<path d="M289.589 196.656C289.494 196.656 289.398 196.56 289.398 196.465L289.685 185.117C289.685 185.022 289.78 184.927 289.876 184.927C289.971 184.927 290.066 185.022 290.066 185.117L289.78 196.465C289.685 196.56 289.685 196.656 289.589 196.656Z" fill="#636464"/>
<path d="M290.351 159.275C290.255 159.275 290.16 159.18 290.16 159.084C290.065 156.223 289.778 153.267 289.492 150.407C289.492 150.311 289.588 150.216 289.588 150.216C289.683 150.216 289.778 150.311 289.778 150.311C290.065 153.172 290.351 156.128 290.446 159.084C290.446 159.18 290.446 159.275 290.351 159.275Z" fill="#636464"/>
<path d="M285.777 154.698C285.681 154.698 285.586 154.602 285.586 154.507C285.586 154.412 285.681 154.316 285.777 154.316L294.364 153.744C294.459 153.744 294.555 153.839 294.555 153.935C294.555 154.03 294.459 154.126 294.364 154.126L285.777 154.698Z" fill="#636464"/>
<path d="M266.68 177.679C266.585 177.679 266.489 177.584 266.489 177.489L266.203 168.906C266.203 168.811 266.299 168.716 266.394 168.716C266.489 168.716 266.585 168.811 266.585 168.906L266.871 177.489C266.871 177.584 266.776 177.679 266.68 177.679Z" fill="#636464"/>
<path d="M268.983 172.244C268.888 172.244 268.792 172.148 268.792 172.053L268.602 168.525C268.602 168.429 268.697 168.334 268.792 168.334C268.888 168.334 268.983 168.429 268.983 168.525L269.174 172.053C269.079 172.244 269.079 172.244 268.983 172.244Z" fill="#636464"/>
<path d="M264.782 211.531C264.496 211.531 264.305 211.341 264.305 211.055C264.305 210.768 264.496 210.578 264.782 210.578L314.587 210.006C314.874 210.006 315.064 210.196 315.064 210.482C315.064 210.768 314.874 210.959 314.587 210.959L264.782 211.531Z" fill="#636464"/>
<g opacity="0.1294">
<path d="M316.208 167.476C316.113 167.285 316.017 167.094 315.922 166.999C315.922 166.332 315.445 165.664 314.682 165.664C312.964 165.855 311.151 165.664 309.434 165.759C307.717 165.759 305.904 165.95 304.186 166.141C303.805 166.141 303.423 166.141 303.041 166.332C302.564 166.332 302.183 166.332 301.706 166.332C298.843 166.427 296.076 166.332 293.214 166.332C288.92 166.332 284.627 166.427 280.333 166.427C277.852 166.427 275.372 166.236 272.891 166.332C270.124 166.332 267.452 166.713 264.685 166.427C262.873 166.236 262.682 169.002 264.495 169.097C267.643 169.383 270.696 169.002 273.845 169.002C280.428 169.288 287.012 169.097 293.595 169.002C296.362 169.002 299.129 169.097 301.896 169.097C305.713 169.288 309.529 169.478 313.441 169.383C313.632 169.383 313.823 169.383 313.918 169.383C314.014 169.383 314.109 169.383 314.205 169.383C314.586 169.478 314.873 169.383 315.254 169.383C315.922 168.906 316.399 168.143 316.208 167.476Z" fill="#636464"/>
</g>
<g opacity="0.1294">
<path d="M341.205 193.223C340.919 193.032 340.538 193.032 340.251 193.032C339.202 193.032 338.248 193.032 337.198 193.032C335.194 193.032 333.095 192.937 331.092 192.937C328.516 193.032 325.939 193.032 323.363 192.841C322.791 192.841 322.218 192.746 321.741 193.223C320.978 193.986 321.55 195.416 322.6 195.416C325.462 195.702 328.42 195.607 331.282 195.416C334.049 195.416 336.912 195.607 339.679 195.607C340.06 195.607 340.538 195.702 340.919 195.511C342.064 195.225 342.064 193.7 341.205 193.223Z" fill="#636464"/>
</g>
<path d="M185 61V67.014C185 84.213 171.057 98.1555 153.858 98.1555H97.1415C79.9425 98.1555 66 112.098 66 129.297V154" stroke="#006FFD" stroke-width="0.194635" stroke-dasharray="2.92 2.92"/>
<path d="M204.472 176.835L204.367 213.629H210.447L210.552 176.938L204.472 176.835Z" fill="#F7F8F9"/>
<path d="M210.444 214.143H204.365C204.26 214.143 204.05 214.04 204.05 214.04C203.945 213.937 203.945 213.834 203.945 213.731L204.05 176.938C204.05 176.835 204.155 176.63 204.155 176.63C204.26 176.527 204.365 176.527 204.469 176.527L210.549 176.63C210.864 176.63 211.073 176.835 211.073 177.144L210.968 213.834C210.968 213.834 210.759 214.143 210.444 214.143ZM204.889 213.115H210.025L210.13 177.452L205.098 177.349L204.889 213.115Z" fill="#B8D4F7"/>
<path d="M179.422 163.475C179.422 161.625 179.946 159.775 181.518 158.953C183.091 158.131 184.873 158.028 186.655 158.028C200.805 157.822 214.851 157.617 229.002 157.411C230.889 157.411 232.776 157.822 233.51 159.467C234.663 161.933 234.139 165.839 234.139 168.819C234.139 175.397 234.558 174.369 234.558 180.844C234.558 182.18 234.558 183.619 233.929 184.852C233.3 186.085 229.736 186.394 228.373 186.394C214.013 185.674 200.491 186.496 185.187 186.599C183.72 186.394 182.147 185.982 181.099 184.852C179.946 183.516 179.841 181.563 179.736 179.816C179.527 171.8 179.422 172.211 179.422 163.475Z" fill="#F7F8F9"/>
<path d="M185.184 187.113C183.088 186.907 181.621 186.291 180.782 185.263C179.524 183.824 179.419 181.871 179.314 179.919C179.314 178.583 179.21 177.452 179.21 176.424C179 171.697 179 170.772 179 163.578C179 161.214 179.839 159.467 181.306 158.644C182.983 157.719 184.975 157.719 186.652 157.617L229 157C231.62 157 233.297 157.719 234.031 159.364C234.975 161.317 234.87 164.091 234.765 166.764C234.765 167.483 234.66 168.202 234.66 168.922C234.66 172.211 234.765 173.547 234.87 174.883C234.975 176.219 235.079 177.658 235.079 180.946C235.079 182.283 235.079 183.824 234.346 185.16C233.507 186.702 229.524 187.01 228.266 186.907C218.727 186.394 209.608 186.599 199.859 186.805C195.142 186.907 190.216 187.01 185.184 187.113ZM229.209 157.925C229.105 157.925 229.105 157.925 229 157.925L186.652 158.542C185.08 158.542 183.193 158.542 181.725 159.364C180.153 160.289 179.943 162.241 179.943 163.475C179.943 170.669 179.943 171.594 180.153 176.322C180.153 177.247 180.258 178.377 180.258 179.816C180.363 181.666 180.468 183.31 181.516 184.544C182.249 185.366 183.507 185.88 185.184 186.085C190.216 186.085 195.142 185.982 199.859 185.777C209.608 185.571 218.727 185.366 228.371 185.88C229.943 185.982 232.983 185.469 233.507 184.646C234.136 183.516 234.136 182.18 234.136 180.844C234.136 177.555 234.031 176.219 233.926 174.883C233.822 173.547 233.717 172.108 233.717 168.819C233.717 168.1 233.717 167.38 233.822 166.661C233.926 164.194 234.031 161.419 233.193 159.672C232.564 158.542 231.201 157.925 229.209 157.925Z" fill="#B8D4F7"/>
<path d="M189.394 176.552V166.171H192.745C193.481 166.171 194.096 166.305 194.59 166.572C195.086 166.835 195.46 167.202 195.71 167.672C195.963 168.138 196.09 168.674 196.09 169.278C196.09 169.883 195.963 170.417 195.71 170.88C195.46 171.343 195.088 171.705 194.595 171.965C194.101 172.225 193.49 172.355 192.76 172.355H189.906V171.488H192.734C193.275 171.488 193.725 171.399 194.083 171.22C194.444 171.041 194.713 170.785 194.889 170.454C195.068 170.123 195.157 169.731 195.157 169.278C195.157 168.826 195.068 168.43 194.889 168.092C194.709 167.751 194.439 167.487 194.078 167.302C193.719 167.116 193.267 167.023 192.719 167.023H190.342V176.552H189.394ZM193.971 171.868L196.526 176.552H195.431L192.902 171.868H193.971ZM198.613 176.552V166.171H204.634V167.023H199.56V170.931H204.315V171.782H199.56V175.7H204.735V176.552H198.613ZM215.386 166.171V176.552H214.463L208.33 167.859H208.249V176.552H207.301V166.171H208.219L214.372 174.874H214.453V166.171H215.386ZM217.731 167.023V166.171H225.258V167.023H221.968V176.552H221.021V167.023H217.731Z" fill="#A3AEBB"/>
<path d="M187.173 184.441C185.391 184.235 184.133 183.721 183.294 182.899C182.246 181.769 182.036 180.021 182.036 178.377C181.932 176.322 181.932 174.986 181.827 173.958C181.722 171.286 181.617 170.258 181.617 164.811C181.617 162.858 182.351 161.419 183.609 160.7C185.076 159.878 186.858 159.878 188.431 159.878L227.319 159.364C229.625 159.364 231.093 159.98 231.617 161.214C232.455 162.961 232.351 165.325 232.246 167.689C232.246 168.305 232.246 169.025 232.246 169.538C232.246 172.416 232.351 173.444 232.455 174.472C232.56 175.499 232.665 176.527 232.665 179.405C232.665 180.535 232.665 181.871 232.036 183.002C231.407 184.132 228.053 184.441 226.795 184.441C217.99 184.03 209.604 184.235 200.695 184.441C196.292 184.338 191.785 184.441 187.173 184.441ZM227.424 159.569C227.319 159.569 227.319 159.569 227.214 159.569L188.326 160.083C186.858 160.083 185.076 160.083 183.714 160.905C182.141 161.728 181.932 163.68 181.932 164.708C181.932 170.155 181.932 171.183 182.141 173.855C182.141 174.986 182.246 176.322 182.351 178.377C182.456 180.021 182.561 181.563 183.504 182.694C184.238 183.516 185.391 184.03 187.068 184.132C191.68 184.132 196.187 184.03 200.485 183.927C209.395 183.721 217.781 183.516 226.586 183.927C227.843 184.03 230.988 183.619 231.512 182.694C232.141 181.666 232.141 180.433 232.141 179.302C232.141 176.424 232.036 175.397 231.931 174.369C231.827 173.341 231.722 172.313 231.722 169.436C231.722 168.819 231.722 168.202 231.722 167.483C231.827 165.325 231.931 162.858 231.093 161.214C230.778 160.083 229.52 159.569 227.424 159.569Z" fill="#B8D4F7"/>
<path d="M182.991 164.605C182.886 164.605 182.781 164.502 182.781 164.4C182.781 163.783 182.991 163.269 183.305 162.755C183.41 162.653 183.515 162.653 183.515 162.755C183.62 162.858 183.62 162.961 183.515 162.961C183.201 163.372 183.096 163.886 183.096 164.4C183.201 164.502 183.096 164.605 182.991 164.605Z" fill="#B8D4F7"/>
<path d="M184.348 162.344H184.243C184.138 162.241 184.138 162.139 184.243 162.139C184.662 161.727 185.186 161.522 185.815 161.316C186.549 161.111 187.387 160.905 188.226 160.802C188.331 160.802 188.436 160.905 188.436 160.905C188.436 161.008 188.331 161.111 188.331 161.111C187.597 161.214 186.758 161.316 186.025 161.625C185.501 161.727 184.976 161.933 184.662 162.344C184.452 162.344 184.348 162.344 184.348 162.344Z" fill="#B8D4F7"/>
<path d="M229.831 182.899C229.727 182.899 229.727 182.899 229.727 182.796C229.727 182.693 229.727 182.591 229.831 182.591C230.146 182.488 230.46 182.18 230.565 181.768C230.775 181.46 230.88 181.049 230.88 180.638C231.089 179.713 231.089 178.685 231.089 177.76C231.089 177.657 231.194 177.555 231.299 177.555C231.404 177.555 231.509 177.657 231.509 177.76C231.509 178.788 231.404 179.713 231.299 180.741C231.194 181.152 231.089 181.563 230.88 181.974C230.565 182.488 230.251 182.796 229.831 182.899Z" fill="#B8D4F7"/>
<path d="M226.693 183.31C226.484 183.31 226.169 183.31 225.96 183.31C225.855 183.31 225.75 183.207 225.75 183.105C225.75 183.002 225.855 182.899 225.96 182.899C226.693 183.002 227.532 182.899 228.266 182.796C228.371 182.796 228.475 182.796 228.475 182.899C228.475 183.002 228.475 183.105 228.371 183.105C227.846 183.207 227.217 183.31 226.693 183.31Z" fill="#B8D4F7"/>
<g opacity="0.1294">
<path d="M209.499 186.085C208.661 186.085 207.822 186.188 206.879 186.188C206.04 186.29 205.202 186.085 204.468 186.29C203.525 186.599 203.839 187.935 204.783 187.935C206.145 187.935 207.508 188.038 208.871 188.038C209.08 188.038 209.604 188.038 209.604 188.038C209.919 188.038 210.233 187.935 210.443 187.729C211.386 187.01 210.548 185.777 209.499 186.085Z" fill="#B8D4F7"/>
</g>
<path d="M352.541 162.736C346.329 161.975 339.864 165.523 336.821 170.971C333.779 176.419 333.905 183.515 336.948 189.09C338.342 191.75 340.498 194.031 343.16 195.298C345.442 196.311 347.977 196.438 350.513 196.565C352.414 196.565 354.443 196.565 356.217 195.805C357.739 195.171 359.007 194.158 360.147 193.017C364.711 188.456 366.867 181.614 365.472 175.406C364.077 168.944 358.753 163.369 352.541 162.736Z" fill="white"/>
<path d="M351.274 197.072C351.02 197.072 350.767 197.072 350.513 197.072C348.105 197.072 345.442 196.945 343.034 195.805C339.737 194.284 337.709 191.497 336.441 189.343C333.272 183.515 333.145 176.166 336.315 170.718C339.611 164.889 346.33 161.342 352.668 162.102C359.007 162.862 364.585 168.31 366.233 175.152C367.628 181.361 365.473 188.583 360.655 193.397C359.261 194.791 357.866 195.805 356.472 196.311C354.697 196.945 352.922 197.072 351.274 197.072ZM350.894 163.242C345.569 163.242 340.118 166.41 337.329 171.351C334.413 176.546 334.54 183.388 337.456 188.836C338.47 190.863 340.371 193.397 343.414 194.791C345.696 195.805 348.231 195.931 350.513 195.931C352.288 195.931 354.316 195.931 355.965 195.298C357.232 194.791 358.373 193.904 359.641 192.637C364.078 188.076 366.106 181.361 364.839 175.532C363.444 169.197 358.12 164.129 352.415 163.496C351.908 163.242 351.401 163.242 350.894 163.242Z" fill="#D1D6DD"/>
<path d="M350.261 213.67C349.88 213.67 349.627 213.416 349.627 213.036L349.5 171.605C349.5 171.225 349.754 170.971 350.134 170.971C350.514 170.971 350.768 171.225 350.768 171.605L350.895 213.036C350.768 213.416 350.514 213.67 350.261 213.67Z" fill="#D1D6DD"/>
<path d="M350.261 188.963C350.135 188.963 350.135 188.963 350.008 188.963C349.754 188.836 349.501 188.456 349.627 188.203C351.149 184.655 353.684 181.487 356.98 179.333C357.234 179.207 357.614 179.207 357.868 179.46C357.995 179.714 357.995 180.094 357.741 180.347C354.698 182.374 352.29 185.288 350.895 188.709C350.642 188.836 350.515 188.963 350.261 188.963Z" fill="#D1D6DD"/>
<path d="M338.466 178.066C338.339 178.066 338.339 177.94 338.212 177.94C337.959 176.039 338.466 174.139 339.607 172.618C339.734 172.492 339.86 172.492 339.86 172.618C339.987 172.745 339.987 172.872 339.86 172.872C338.846 174.265 338.339 176.166 338.593 177.813C338.593 177.94 338.593 178.066 338.466 178.066Z" fill="#D1D6DD"/>
<path d="M340.879 178.447C340.752 178.447 340.625 178.32 340.625 178.193L341.132 175.279C341.132 175.152 341.259 175.152 341.386 175.152C341.512 175.152 341.512 175.279 341.512 175.406L341.005 178.32C341.132 178.32 341.005 178.447 340.879 178.447Z" fill="#D1D6DD"/>
<path d="M357.738 191.243C357.738 191.243 357.611 191.243 357.611 191.117C357.484 190.99 357.611 190.863 357.611 190.863C359.006 189.85 360.02 188.456 360.654 186.809C360.654 186.682 360.78 186.682 360.907 186.682C361.034 186.682 361.034 186.809 361.034 186.936C360.273 188.583 359.259 190.103 357.738 191.243Z" fill="#D1D6DD"/>
<g opacity="0.1294">
<path d="M361.798 188.583C361.291 188.583 361.038 188.963 360.657 189.343C360.023 189.976 359.516 190.61 358.882 191.243C358.249 191.75 356.981 192.637 355.713 193.27C355.586 193.397 355.459 193.397 355.333 193.397C354.826 193.524 354.192 193.777 353.685 193.777H353.558C353.431 193.777 353.431 193.777 353.431 193.777C351.529 194.031 349.755 193.651 346.205 192.89C344.81 192.51 345.318 192.637 344.05 192.13C343.796 192.13 343.036 191.75 342.782 191.623C341.514 190.99 340.88 190.61 340.373 190.103C339.866 189.723 339.613 189.216 339.106 188.963C337.965 188.456 336.95 189.976 337.838 190.863C338.852 191.877 339.993 192.764 341.261 193.397C341.514 193.524 342.655 194.031 343.036 194.157C344.557 194.918 344.81 195.171 346.078 195.551C347.346 196.058 348.614 196.311 349.881 196.438C351.149 196.691 352.417 196.691 353.685 196.438C354.699 196.185 355.586 195.805 356.474 195.298C358.249 194.411 360.023 193.397 361.291 191.877C361.798 191.37 362.305 190.736 362.812 190.23C363.066 189.976 363.066 189.723 363.066 189.469C362.939 189.089 362.432 188.583 361.798 188.583Z" fill="#D1D6DD"/>
</g>
<path d="M185 61V67.014C185 84.213 198.943 98.1555 216.142 98.1555H276.858C294.057 98.1555 308 112.098 308 129.297V154" stroke="#006FFD" stroke-width="0.194635" stroke-dasharray="2.92 2.92"/>
<path d="M118.322 37.4545H122.114L126.12 47.2273H126.29L130.296 37.4545H134.089V52H131.106V42.5327H130.985L127.221 51.929H125.19L121.425 42.4972H121.305V52H118.322V37.4545ZM138.733 56.0909C138.35 56.0909 137.99 56.0601 137.654 55.9986C137.322 55.9418 137.048 55.8684 136.83 55.7784L137.512 53.5199C137.867 53.6288 138.187 53.688 138.471 53.6974C138.76 53.7069 139.008 53.6406 139.216 53.4986C139.43 53.3565 139.602 53.1151 139.735 52.7741L139.912 52.3125L135.999 41.0909H139.181L141.439 49.1023H141.553L143.833 41.0909H147.036L142.796 53.179C142.592 53.7661 142.315 54.2775 141.965 54.7131C141.619 55.1534 141.181 55.492 140.651 55.7287C140.121 55.9702 139.482 56.0909 138.733 56.0909ZM153.87 52V37.4545H159.609C160.712 37.4545 161.652 37.6652 162.428 38.0866C163.205 38.5033 163.797 39.0833 164.204 39.8267C164.616 40.5653 164.822 41.4176 164.822 42.3835C164.822 43.3494 164.613 44.2017 164.197 44.9403C163.78 45.679 163.176 46.2543 162.386 46.6662C161.6 47.0781 160.648 47.2841 159.531 47.2841H155.873V44.8196H159.033C159.625 44.8196 160.113 44.7178 160.496 44.5142C160.885 44.3059 161.174 44.0194 161.363 43.6548C161.557 43.2855 161.654 42.8617 161.654 42.3835C161.654 41.9006 161.557 41.4792 161.363 41.1193C161.174 40.7547 160.885 40.473 160.496 40.2741C160.108 40.0705 159.616 39.9688 159.019 39.9688H156.945V52H153.87ZM167.062 52V41.0909H169.996V42.9943H170.109C170.308 42.3172 170.642 41.8059 171.111 41.4602C171.58 41.1098 172.119 40.9347 172.73 40.9347C172.882 40.9347 173.045 40.9441 173.22 40.9631C173.395 40.982 173.549 41.008 173.682 41.0412V43.7259C173.54 43.6832 173.343 43.6454 173.092 43.6122C172.841 43.5791 172.612 43.5625 172.403 43.5625C171.958 43.5625 171.561 43.6596 171.21 43.8537C170.865 44.0431 170.59 44.3082 170.386 44.6491C170.187 44.9901 170.088 45.383 170.088 45.8281V52H167.062ZM179.967 52.2131C178.864 52.2131 177.91 51.9787 177.105 51.5099C176.305 51.0365 175.687 50.3783 175.251 49.5355C174.816 48.688 174.598 47.7055 174.598 46.5881C174.598 45.4612 174.816 44.4763 175.251 43.6335C175.687 42.786 176.305 42.1278 177.105 41.6591C177.91 41.1856 178.864 40.9489 179.967 40.9489C181.07 40.9489 182.022 41.1856 182.822 41.6591C183.627 42.1278 184.248 42.786 184.683 43.6335C185.119 44.4763 185.337 45.4612 185.337 46.5881C185.337 47.7055 185.119 48.688 184.683 49.5355C184.248 50.3783 183.627 51.0365 182.822 51.5099C182.022 51.9787 181.07 52.2131 179.967 52.2131ZM179.981 49.8693C180.483 49.8693 180.902 49.7273 181.239 49.4432C181.575 49.1544 181.828 48.7614 181.998 48.2642C182.174 47.767 182.261 47.2012 182.261 46.5668C182.261 45.9323 182.174 45.3665 181.998 44.8693C181.828 44.3722 181.575 43.9792 181.239 43.6903C180.902 43.4015 180.483 43.2571 179.981 43.2571C179.475 43.2571 179.049 43.4015 178.703 43.6903C178.362 43.9792 178.104 44.3722 177.929 44.8693C177.758 45.3665 177.673 45.9323 177.673 46.5668C177.673 47.2012 177.758 47.767 177.929 48.2642C178.104 48.7614 178.362 49.1544 178.703 49.4432C179.049 49.7273 179.475 49.8693 179.981 49.8693ZM187.604 56.0909V41.0909H190.587V42.9233H190.722C190.854 42.6297 191.046 42.3314 191.297 42.0284C191.553 41.7206 191.884 41.465 192.291 41.2614C192.703 41.053 193.215 40.9489 193.825 40.9489C194.621 40.9489 195.355 41.1572 196.027 41.5739C196.7 41.9858 197.237 42.6084 197.639 43.4418C198.042 44.2704 198.243 45.3097 198.243 46.5597C198.243 47.7765 198.047 48.804 197.654 49.642C197.265 50.4754 196.735 51.1075 196.063 51.5384C195.395 51.9645 194.647 52.1776 193.818 52.1776C193.231 52.1776 192.732 52.0805 192.32 51.8864C191.913 51.6922 191.579 51.4484 191.318 51.1548C191.058 50.8565 190.859 50.5559 190.722 50.2528H190.629V56.0909H187.604ZM190.566 46.5455C190.566 47.1941 190.655 47.7599 190.835 48.2429C191.015 48.7259 191.276 49.1023 191.617 49.3722C191.958 49.6373 192.372 49.7699 192.86 49.7699C193.352 49.7699 193.769 49.6349 194.11 49.3651C194.45 49.0904 194.709 48.7116 194.884 48.2287C195.064 47.741 195.154 47.1799 195.154 46.5455C195.154 45.9157 195.066 45.3617 194.891 44.8835C194.716 44.4053 194.458 44.0312 194.117 43.7614C193.776 43.4915 193.357 43.3565 192.86 43.3565C192.367 43.3565 191.95 43.4867 191.61 43.7472C191.273 44.0076 191.015 44.3769 190.835 44.8551C190.655 45.3333 190.566 45.8968 190.566 46.5455ZM205.532 52.2131C204.41 52.2131 203.444 51.9858 202.634 51.5312C201.829 51.072 201.209 50.4233 200.773 49.5852C200.338 48.7424 200.12 47.7457 200.12 46.5952C200.12 45.473 200.338 44.4882 200.773 43.6406C201.209 42.7931 201.822 42.1326 202.613 41.6591C203.408 41.1856 204.341 40.9489 205.411 40.9489C206.131 40.9489 206.801 41.0649 207.421 41.2969C208.046 41.5241 208.59 41.8674 209.054 42.3267C209.523 42.786 209.888 43.3636 210.148 44.0597C210.409 44.7509 210.539 45.5606 210.539 46.4886V47.3196H201.327V45.4446H207.691C207.691 45.009 207.596 44.6231 207.407 44.2869C207.217 43.9508 206.955 43.688 206.618 43.4986C206.287 43.3045 205.901 43.2074 205.461 43.2074C205.001 43.2074 204.594 43.3139 204.239 43.527C203.889 43.7353 203.614 44.017 203.415 44.3722C203.216 44.7225 203.115 45.1132 203.11 45.544V47.3267C203.11 47.8665 203.209 48.3329 203.408 48.7259C203.612 49.1188 203.898 49.4219 204.268 49.6349C204.637 49.848 205.075 49.9545 205.581 49.9545C205.918 49.9545 206.225 49.9072 206.505 49.8125C206.784 49.7178 207.023 49.5758 207.222 49.3864C207.421 49.197 207.572 48.965 207.677 48.6903L210.475 48.875C210.333 49.5473 210.042 50.1345 209.601 50.6364C209.166 51.1335 208.602 51.5218 207.911 51.8011C207.224 52.0758 206.431 52.2131 205.532 52.2131ZM212.813 52V41.0909H215.746V42.9943H215.86C216.059 42.3172 216.393 41.8059 216.862 41.4602C217.33 41.1098 217.87 40.9347 218.481 40.9347C218.632 40.9347 218.796 40.9441 218.971 40.9631C219.146 40.982 219.3 41.008 219.433 41.0412V43.7259C219.291 43.6832 219.094 43.6454 218.843 43.6122C218.592 43.5791 218.362 43.5625 218.154 43.5625C217.709 43.5625 217.311 43.6596 216.961 43.8537C216.615 44.0431 216.341 44.3082 216.137 44.6491C215.938 44.9901 215.839 45.383 215.839 45.8281V52H212.813ZM227.646 41.0909V43.3636H221.077V41.0909H227.646ZM222.568 38.4773H225.594V48.6477C225.594 48.9271 225.636 49.1449 225.722 49.3011C225.807 49.4527 225.925 49.5592 226.077 49.6207C226.233 49.6823 226.413 49.7131 226.616 49.7131C226.758 49.7131 226.901 49.7012 227.043 49.6776C227.185 49.6491 227.294 49.6278 227.369 49.6136L227.845 51.8651C227.694 51.9124 227.481 51.9669 227.206 52.0284C226.931 52.0947 226.597 52.1349 226.205 52.1491C225.475 52.1776 224.836 52.0805 224.287 51.858C223.742 51.6354 223.319 51.2898 223.016 50.821C222.713 50.3523 222.563 49.7604 222.568 49.0455V38.4773ZM229.917 52V41.0909H232.943V52H229.917ZM231.437 39.6847C230.987 39.6847 230.601 39.5355 230.279 39.2372C229.962 38.9342 229.804 38.572 229.804 38.1506C229.804 37.7339 229.962 37.3764 230.279 37.0781C230.601 36.7751 230.987 36.6236 231.437 36.6236C231.887 36.6236 232.27 36.7751 232.588 37.0781C232.91 37.3764 233.071 37.7339 233.071 38.1506C233.071 38.572 232.91 38.9342 232.588 39.2372C232.27 39.5355 231.887 39.6847 231.437 39.6847ZM240.638 52.2131C239.516 52.2131 238.55 51.9858 237.74 51.5312C236.935 51.072 236.315 50.4233 235.879 49.5852C235.444 48.7424 235.226 47.7457 235.226 46.5952C235.226 45.473 235.444 44.4882 235.879 43.6406C236.315 42.7931 236.928 42.1326 237.719 41.6591C238.514 41.1856 239.447 40.9489 240.517 40.9489C241.237 40.9489 241.907 41.0649 242.527 41.2969C243.152 41.5241 243.697 41.8674 244.161 42.3267C244.629 42.786 244.994 43.3636 245.254 44.0597C245.515 44.7509 245.645 45.5606 245.645 46.4886V47.3196H236.433V45.4446H242.797C242.797 45.009 242.702 44.6231 242.513 44.2869C242.324 43.9508 242.061 43.688 241.725 43.4986C241.393 43.3045 241.007 43.2074 240.567 43.2074C240.108 43.2074 239.7 43.3139 239.345 43.527C238.995 43.7353 238.72 44.017 238.521 44.3722C238.323 44.7225 238.221 45.1132 238.216 45.544V47.3267C238.216 47.8665 238.316 48.3329 238.514 48.7259C238.718 49.1188 239.004 49.4219 239.374 49.6349C239.743 49.848 240.181 49.9545 240.688 49.9545C241.024 49.9545 241.332 49.9072 241.611 49.8125C241.89 49.7178 242.129 49.5758 242.328 49.3864C242.527 49.197 242.679 48.965 242.783 48.6903L245.581 48.875C245.439 49.5473 245.148 50.1345 244.708 50.6364C244.272 51.1335 243.709 51.5218 243.017 51.8011C242.331 52.0758 241.538 52.2131 240.638 52.2131ZM256.996 44.2017L254.226 44.3722C254.179 44.1354 254.077 43.9223 253.921 43.733C253.765 43.5388 253.559 43.3849 253.303 43.2713C253.052 43.1529 252.751 43.0938 252.401 43.0938C251.932 43.0938 251.537 43.1932 251.215 43.392C250.893 43.5862 250.732 43.8466 250.732 44.1733C250.732 44.4337 250.836 44.6539 251.044 44.8338C251.253 45.0137 251.61 45.1581 252.117 45.267L254.091 45.6648C255.152 45.8826 255.943 46.233 256.464 46.7159C256.984 47.1989 257.245 47.8333 257.245 48.6193C257.245 49.3343 257.034 49.9616 256.613 50.5014C256.196 51.0412 255.623 51.4626 254.894 51.7656C254.169 52.0639 253.334 52.2131 252.387 52.2131C250.943 52.2131 249.792 51.9124 248.935 51.3111C248.083 50.705 247.583 49.8812 247.437 48.8395L250.412 48.6832C250.502 49.1236 250.72 49.4598 251.066 49.6918C251.411 49.919 251.854 50.0327 252.394 50.0327C252.924 50.0327 253.35 49.9309 253.672 49.7273C253.999 49.5189 254.165 49.2514 254.169 48.9247C254.165 48.6501 254.049 48.4252 253.821 48.25C253.594 48.0701 253.244 47.9328 252.77 47.8381L250.881 47.4616C249.816 47.2486 249.023 46.8793 248.502 46.3537C247.986 45.8281 247.728 45.1581 247.728 44.3438C247.728 43.643 247.917 43.0393 248.296 42.5327C248.679 42.026 249.217 41.6354 249.908 41.3608C250.604 41.0862 251.419 40.9489 252.351 40.9489C253.729 40.9489 254.813 41.2401 255.604 41.8224C256.4 42.4048 256.864 43.1979 256.996 44.2017Z" fill="#23274D"/>
</svg>