<svg width="204" height="100" viewBox="0 0 204 100" fill="none" xmlns="http://www.w3.org/2000/svg">
<path d="M202.647 6.85803H11.5742V99.1901H202.647V6.85803Z" fill="#EAF2FF"/>
<path d="M202.525 99.6361H11.5707C11.2142 99.6361 10.9766 99.4577 10.9766 99.1901V6.85804C10.9766 6.59041 11.2142 6.41199 11.5707 6.41199H202.525C202.881 6.41199 203.119 6.59041 203.119 6.85804V99.1901C203.119 99.3685 202.881 99.6361 202.525 99.6361ZM12.1648 98.744H202.049V7.30408H12.1648V98.744Z" fill="#23274D"/>
<path d="M144.979 79.4832C142.688 79.1938 140.304 80.544 139.182 82.6174C138.06 84.6907 138.107 87.391 139.228 89.5126C139.743 90.5252 140.537 91.3931 141.519 91.8753C142.361 92.261 143.296 92.3092 144.231 92.3575C144.932 92.3575 145.68 92.3575 146.334 92.0682C146.895 91.8271 147.363 91.4413 147.784 91.0073C149.466 89.2715 150.261 86.6677 149.747 84.305C149.233 81.8459 147.269 79.7243 144.979 79.4832Z" fill="#E1ECFB"/>
<path d="M144.514 92.5504C144.421 92.5504 144.327 92.5504 144.234 92.5504C143.346 92.5504 142.364 92.5021 141.476 92.0682C140.26 91.4896 139.512 90.4287 139.045 89.609C137.876 87.391 137.829 84.5943 138.998 82.5209C140.214 80.3029 142.691 78.9528 145.029 79.2421C147.366 79.5314 149.423 81.6048 150.031 84.2086C150.545 86.5713 149.75 89.3197 147.974 91.152C147.46 91.6824 146.945 92.0682 146.431 92.261C145.777 92.5021 145.122 92.5504 144.514 92.5504ZM144.374 79.676C142.411 79.676 140.401 80.8815 139.372 82.762C138.297 84.739 138.344 87.3428 139.419 89.4162C139.793 90.1877 140.494 91.152 141.616 91.6824C142.457 92.0682 143.392 92.1164 144.234 92.1164C144.888 92.1164 145.636 92.1164 146.244 91.8753C146.712 91.6824 147.132 91.3449 147.6 90.8627C149.236 89.1269 149.984 86.5713 149.517 84.3532C149.002 81.9423 147.039 80.0136 144.935 79.7725C144.748 79.6761 144.561 79.676 144.374 79.676Z" fill="#23274D"/>
<path d="M144.14 98.8669C144 98.8669 143.906 98.7705 143.906 98.6258L143.859 82.8584C143.859 82.7137 143.953 82.6173 144.093 82.6173C144.233 82.6173 144.327 82.7137 144.327 82.8584L144.374 98.6258C144.327 98.7705 144.233 98.8669 144.14 98.8669Z" fill="#23274D"/>
<path d="M144.129 89.4645C144.082 89.4645 144.082 89.4645 144.035 89.4645C143.942 89.4162 143.848 89.2716 143.895 89.1751C144.456 87.825 145.391 86.6196 146.607 85.7999C146.7 85.7516 146.84 85.7516 146.934 85.8481C146.981 85.9445 146.981 86.0892 146.887 86.1856C145.765 86.9571 144.877 88.0661 144.363 89.368C144.269 89.4162 144.222 89.4645 144.129 89.4645Z" fill="#23274D"/>
<path d="M139.789 85.3176C139.742 85.3176 139.742 85.2693 139.695 85.2693C139.602 84.5461 139.789 83.8228 140.21 83.2442C140.256 83.196 140.303 83.196 140.303 83.2442C140.35 83.2924 140.35 83.3406 140.303 83.3406C139.929 83.871 139.742 84.5943 139.836 85.2211C139.836 85.2693 139.836 85.3176 139.789 85.3176Z" fill="#23274D"/>
<path d="M140.679 85.4623C140.633 85.4623 140.586 85.4141 140.586 85.3659L140.773 84.2568C140.773 84.2086 140.82 84.2086 140.866 84.2086C140.913 84.2086 140.913 84.2568 140.913 84.3051L140.726 85.4141C140.773 85.4141 140.726 85.4623 140.679 85.4623Z" fill="#23274D"/>
<path d="M146.892 90.3323C146.892 90.3323 146.845 90.3323 146.845 90.2841C146.798 90.2359 146.845 90.1876 146.845 90.1876C147.359 89.8019 147.733 89.2715 147.967 88.6447C147.967 88.5964 148.014 88.5964 148.06 88.5964C148.107 88.5964 148.107 88.6447 148.107 88.6929C147.827 89.3197 147.453 89.8983 146.892 90.3323Z" fill="#23274D"/>
<g opacity="0.1294">
<path d="M148.39 89.3196C148.203 89.3196 148.109 89.4642 147.969 89.6089C147.735 89.85 147.548 90.0911 147.315 90.3322C147.081 90.525 146.613 90.8626 146.146 91.1037C146.099 91.1519 146.052 91.1519 146.006 91.1519C145.819 91.2001 145.585 91.2965 145.398 91.2965H145.351C145.304 91.2965 145.304 91.2965 145.304 91.2965C144.603 91.393 143.949 91.2483 142.64 90.959C142.125 90.8144 142.312 90.8626 141.845 90.6697C141.751 90.6697 141.471 90.525 141.377 90.4768C140.91 90.2357 140.676 90.0911 140.489 89.8982C140.302 89.7536 140.209 89.5607 140.022 89.4642C139.601 89.2714 139.227 89.85 139.554 90.1875C139.928 90.5733 140.349 90.9108 140.817 91.1519C140.91 91.2001 141.331 91.393 141.471 91.4412C142.032 91.7305 142.125 91.8269 142.593 91.9716C143.06 92.1645 143.528 92.2609 143.995 92.3091C144.463 92.4056 144.93 92.4056 145.398 92.3091C145.772 92.2127 146.099 92.068 146.426 91.8752C147.081 91.5376 147.735 91.1519 148.203 90.5733C148.39 90.3804 148.577 90.1393 148.764 89.9464C148.857 89.85 148.857 89.7536 148.857 89.6571C148.811 89.5125 148.624 89.3196 148.39 89.3196Z" fill="#23274D"/>
</g>
<path d="M202.647 6.85803H11.5742V16.7603H202.647V6.85803Z" fill="#EAF2FF"/>
<path d="M202.525 17.1172H11.5707C11.2142 17.1172 10.9766 16.9387 10.9766 16.6711V6.85804C10.9766 6.59041 11.2142 6.41199 11.5707 6.41199H202.525C202.881 6.41199 203.119 6.59041 203.119 6.85804V16.7603C203.119 16.9387 202.881 17.1172 202.525 17.1172ZM12.1648 16.3143H202.049V7.30408H12.1648V16.3143Z" fill="#23274D"/>
<g opacity="0.1294">
<path d="M200.867 16.6711C200.63 16.6711 200.392 16.6711 200.036 16.6711C199.917 16.6711 199.917 16.6711 199.917 16.6711H199.798C197.184 16.4034 194.569 16.4927 191.955 16.4927C188.747 16.4927 185.657 16.4034 182.449 16.4927C179.003 16.4927 175.676 16.6711 172.23 16.6711C169.378 16.6711 166.526 16.6711 163.675 16.7603C158.446 16.9387 153.099 16.6711 147.871 16.6711C143.236 16.5819 138.602 16.7603 133.968 16.8495C126.363 16.8495 118.877 16.6711 111.272 16.8495C107.589 16.9387 103.786 17.1171 100.102 17.1171C96.7753 17.1171 93.4482 17.0279 90.1211 17.0279C85.6057 17.0279 81.0903 17.2063 76.456 17.1171C72.2971 16.9387 68.257 17.2063 64.098 17.2063C62.9098 17.2063 61.6027 17.2955 60.4145 17.2955C59.9392 16.8495 59.1074 16.7603 58.3944 16.7603C57.325 16.7603 56.3743 16.7603 55.3049 16.8495C52.3342 16.9387 49.3635 16.9387 46.3929 16.8495C43.4222 16.8495 40.4516 16.6711 37.3621 16.6711C34.5103 16.6711 31.7773 16.7603 28.9255 16.6711C28.569 16.4926 27.9748 16.4034 27.4995 16.4927C26.5489 16.6711 26.0736 17.3847 26.3113 18.0984C26.3113 18.1876 26.3113 18.1876 26.3113 18.2768C26.4301 18.6337 26.4301 18.9905 26.4301 19.4366C25.0041 19.4366 23.5783 19.4366 22.1523 19.5258C20.0135 19.5258 17.8746 19.5258 15.7357 19.5258C14.5474 19.5258 13.1215 19.3474 12.0521 19.615C10.3885 20.061 10.9827 22.0237 12.6462 21.9344C16.5675 21.8452 20.3699 22.0237 24.2912 21.8452C25.3606 21.8452 26.5489 21.756 27.6183 21.6668C27.6183 21.6668 27.6184 21.6668 27.7372 21.6668C29.0443 21.6668 29.5196 20.9531 29.5196 20.061V19.9718C29.5196 19.9718 29.5196 19.9718 29.5196 20.061V19.9718C29.5196 19.8826 29.5196 19.8826 29.5196 19.7934C29.5196 19.5258 29.6384 19.3474 29.6384 19.0797C33.4408 19.2582 37.2433 19.1689 40.9269 19.1689C45.4423 19.2582 49.9577 19.3474 54.4731 19.2582C54.9484 19.2582 55.4237 19.2582 55.899 19.2582C56.1367 19.3474 56.2555 19.3474 56.612 19.3474C61.2462 19.3474 65.7616 19.3474 70.3958 19.2582C73.1288 19.1689 75.9807 19.3474 78.7137 19.3474C83.4667 19.3474 88.3387 19.2582 93.0917 19.2582C96.8942 19.2582 100.578 19.3474 104.38 19.2582C115.55 18.9013 126.72 19.3474 137.889 19.2582C140.86 19.2582 143.831 19.1689 146.801 19.2582C151.435 19.4366 158.09 19.615 164.031 19.5258C173.894 19.615 183.637 19.2581 193.5 19.4366C197.065 19.4366 200.63 19.5258 201.937 19.1689C203.957 18.3661 202.887 16.225 200.867 16.6711Z" fill="#23274D"/>
</g>
<g opacity="0.1294">
<path d="M26.297 40.4007C26.1782 40.4007 25.9405 40.4007 25.8217 40.3115C25.2276 40.3115 25.5841 40.4007 24.7523 40.4007C22.8511 40.4007 20.9498 40.4899 19.0486 40.4899C17.385 40.4899 15.8403 40.4007 14.1767 40.4007C13.5826 40.4007 12.7508 40.2223 12.2755 40.6684C11.5626 41.2036 12.1566 42.1849 13.1072 42.0957C15.3649 42.0957 17.6227 42.1849 19.8804 42.1849C21.6628 42.1849 25.9405 42.1849 25.4652 42.2741C25.7029 42.3634 26.0594 42.3634 26.297 42.2741H26.4158C26.4158 42.2741 26.4159 42.2741 26.5347 42.2741H26.6535C26.6535 42.2741 26.6535 42.2741 26.7723 42.2741C26.7723 42.2741 26.7723 42.2741 26.8912 42.2741C27.7229 41.7389 27.3665 40.4899 26.297 40.4007Z" fill="#23274D"/>
</g>
<path d="M152.482 98.4865C160.359 98.3499 168.235 98.3841 176.079 98.5547C176.079 92.7175 176.178 86.8803 176.278 81.1114C173.829 80.8725 171.346 80.8383 168.964 81.1114C168.897 78.3805 168.897 75.6838 169.03 72.9188C166.25 73.0212 163.47 73.0212 160.789 72.8164C160.624 71.0072 160.59 69.1639 160.756 67.3889C158.075 67.1499 155.361 67.1499 152.615 67.1499C152.449 77.6637 152.449 88.1775 152.482 98.4865Z" fill="white"/>
<path d="M176.081 98.7256C167.443 98.5549 159.732 98.5208 152.484 98.6573C152.451 98.6573 152.385 98.6573 152.352 98.6232C152.319 98.5891 152.319 98.5549 152.319 98.5208C152.253 87.0171 152.319 76.7764 152.451 67.1842C152.451 67.0818 152.518 67.0135 152.617 67.0135C155.364 67.0135 158.078 67.0136 160.758 67.2525C160.791 67.2525 160.858 67.2866 160.858 67.3208C160.891 67.3549 160.891 67.389 160.891 67.4573C160.725 68.9934 160.725 70.7002 160.891 72.7142C163.207 72.8849 165.855 72.919 168.966 72.8166C168.999 72.8166 169.065 72.8166 169.098 72.8508C169.131 72.8849 169.131 72.919 169.131 72.9873C169.032 75.4451 168.999 78.0052 169.065 81.0092C171.283 80.7702 173.698 80.7702 176.247 81.0092C176.346 81.0092 176.379 81.0775 176.379 81.1799C176.346 82.5794 176.346 83.979 176.313 85.3786C176.247 89.7138 176.181 94.1856 176.181 98.6232C176.181 98.6573 176.148 98.7256 176.148 98.7256C176.181 98.6915 176.148 98.7256 176.081 98.7256ZM162.413 98.2477C166.682 98.2477 171.183 98.2818 175.949 98.3843C175.949 94.0149 176.015 89.5772 176.081 85.3103C176.114 83.979 176.114 82.6136 176.148 81.2823C173.599 81.0433 171.216 81.0433 168.999 81.3164C168.966 81.3164 168.9 81.3164 168.867 81.2823C168.833 81.2481 168.8 81.214 168.8 81.1457C168.734 78.1418 168.734 75.5816 168.833 73.1238C165.723 73.2262 163.075 73.1921 160.758 72.9873C160.692 72.9873 160.626 72.919 160.626 72.8508C160.46 70.8709 160.46 69.13 160.593 67.5597C158.011 67.3549 155.43 67.3549 152.815 67.3549C152.65 76.8446 152.617 86.9829 152.683 98.3501C155.794 98.2477 159.037 98.2477 162.413 98.2477Z" fill="#23274D"/>
<path d="M159.502 81.0092C158.509 81.0092 157.35 80.9751 156.391 80.9409C156.391 79.951 156.391 78.8928 156.391 77.8687C157.417 77.8004 158.443 77.8004 159.535 77.8687C159.535 78.8928 159.535 79.8827 159.502 81.0092Z" fill="#B8D4F7"/>
<path d="M159.503 81.1799C159.007 81.1799 158.477 81.1799 157.948 81.1458C157.418 81.1458 156.888 81.1116 156.392 81.1116C156.293 81.1116 156.227 81.0434 156.227 80.9409V80.6679C156.227 79.7462 156.227 78.7904 156.227 77.8687C156.227 77.7663 156.293 77.6981 156.392 77.6981C157.418 77.6298 158.444 77.6298 159.536 77.6981C159.635 77.6981 159.702 77.7663 159.702 77.8687C159.735 78.8587 159.702 79.8486 159.668 81.0092C159.635 81.0775 159.569 81.1799 159.503 81.1799ZM156.524 80.7703C156.988 80.7703 157.451 80.7703 157.914 80.8044C158.378 80.8044 158.874 80.8385 159.304 80.8385C159.338 79.8145 159.338 78.9269 159.338 78.0394C158.345 78.0053 157.418 78.0053 156.524 78.0394C156.524 78.9269 156.524 79.8145 156.524 80.702V80.7703Z" fill="#23274D"/>
<path d="M166.017 81.0091C165.024 81.0091 163.866 80.9749 162.906 80.9408C162.906 79.9509 162.906 78.8927 162.906 77.8686C163.932 77.8003 164.958 77.8003 166.05 77.8686C166.083 78.8927 166.05 79.8826 166.017 81.0091Z" fill="#B8D4F7"/>
<path d="M166.019 81.1799C165.522 81.1799 164.993 81.1799 164.463 81.1458C163.934 81.1458 163.404 81.1116 162.908 81.1116C162.808 81.1116 162.742 81.0434 162.742 80.9409V80.6679C162.742 79.7462 162.742 78.7904 162.742 77.8687C162.742 77.7663 162.808 77.6981 162.908 77.6981C163.934 77.6298 164.96 77.6298 166.052 77.6981C166.151 77.6981 166.217 77.7663 166.217 77.8687C166.25 78.8587 166.217 79.8486 166.184 81.0092C166.184 81.0775 166.118 81.1799 166.019 81.1799ZM163.073 80.7703C163.536 80.7703 164 80.7703 164.463 80.8044C164.926 80.8044 165.423 80.8385 165.853 80.8385C165.886 79.8145 165.886 78.9269 165.886 78.0394C164.893 78.0053 163.967 78.0053 163.073 78.0394C163.073 78.9269 163.073 79.8145 163.073 80.702V80.7703Z" fill="#23274D"/>
<path d="M159.396 87.5629C158.403 87.5629 157.245 87.5288 156.285 87.4946C156.285 86.5047 156.285 85.4465 156.285 84.4224C157.311 84.3541 158.337 84.3541 159.429 84.4224C159.462 85.4465 159.429 86.4706 159.396 87.5629Z" fill="#B8D4F7"/>
<path d="M159.398 87.7336C158.901 87.7336 158.372 87.7336 157.842 87.6995C157.313 87.6995 156.783 87.6653 156.287 87.6653C156.187 87.6653 156.121 87.5971 156.121 87.4947V87.2216C156.121 86.2999 156.121 85.3441 156.121 84.4224C156.121 84.32 156.187 84.2518 156.287 84.2518C157.313 84.1835 158.338 84.1835 159.431 84.2518C159.53 84.2518 159.596 84.32 159.596 84.4224C159.629 85.4124 159.596 86.4023 159.563 87.5629C159.563 87.6653 159.497 87.7336 159.398 87.7336ZM156.419 87.3581C156.882 87.3581 157.346 87.3581 157.842 87.3922C158.305 87.3922 158.802 87.4264 159.232 87.4264C159.265 86.4023 159.265 85.5148 159.265 84.6273C158.272 84.5931 157.346 84.5931 156.452 84.6273C156.452 85.5148 156.452 86.4023 156.452 87.2898L156.419 87.3581Z" fill="#23274D"/>
<path d="M165.908 87.5627C164.915 87.5627 163.757 87.5285 162.797 87.4944C162.797 86.5045 162.797 85.4462 162.797 84.4222C163.823 84.3539 164.849 84.3539 165.941 84.4222C165.974 85.4462 165.974 86.4703 165.908 87.5627Z" fill="#B8D4F7"/>
<path d="M165.909 87.7337C165.413 87.7337 164.883 87.7337 164.354 87.6996C163.824 87.6996 163.295 87.6655 162.798 87.6655C162.699 87.6655 162.633 87.5972 162.633 87.4948V87.2217C162.633 86.3 162.633 85.3442 162.633 84.4226C162.633 84.3202 162.699 84.2519 162.798 84.2519C163.824 84.1836 164.85 84.1836 165.942 84.2519C166.042 84.2519 166.108 84.3202 166.108 84.4226C166.141 85.4125 166.108 86.4024 166.075 87.563C166.075 87.6655 166.009 87.7337 165.909 87.7337ZM162.964 87.3582C163.427 87.3582 163.89 87.3582 164.387 87.3924C164.85 87.3924 165.347 87.4265 165.777 87.4265C165.81 86.4024 165.81 85.5149 165.81 84.6274C164.817 84.5932 163.89 84.5932 162.997 84.6274C162.997 85.5149 162.997 86.4024 162.997 87.2558L162.964 87.3582Z" fill="#23274D"/>
<path d="M159.396 94.1514C158.403 94.1514 157.245 94.1173 156.285 94.0831C156.285 93.0932 156.285 92.035 156.285 91.0109C157.311 90.9426 158.337 90.9426 159.429 91.0109C159.462 92.035 159.429 93.0249 159.396 94.1514Z" fill="#B8D4F7"/>
<path d="M159.398 94.3221C158.901 94.3221 158.372 94.3221 157.842 94.288C157.313 94.288 156.783 94.2538 156.287 94.2538C156.187 94.2538 156.121 94.1856 156.121 94.0832V93.8101C156.121 92.8884 156.121 91.9326 156.121 91.0109C156.121 90.9085 156.187 90.8403 156.287 90.8403C157.313 90.772 158.338 90.772 159.431 90.8403C159.53 90.8403 159.596 90.9085 159.596 91.0109C159.629 92.0009 159.596 92.9908 159.563 94.1514C159.563 94.2538 159.497 94.3221 159.398 94.3221ZM156.419 93.9466C156.882 93.9466 157.346 93.9466 157.809 93.9807C158.272 93.9807 158.769 94.0149 159.199 94.0149C159.232 92.9908 159.232 92.1033 159.232 91.2158C158.239 91.1816 157.313 91.1816 156.419 91.2158C156.419 92.1033 156.419 92.9908 156.419 93.8783V93.9466Z" fill="#23274D"/>
<path d="M165.908 94.151C164.915 94.151 163.757 94.1169 162.797 94.0828C162.797 93.0928 162.797 92.0346 162.797 91.0106C163.823 90.9423 164.849 90.9423 165.941 91.0106C165.974 92.0346 165.974 93.0246 165.908 94.151Z" fill="#B8D4F7"/>
<path d="M165.909 94.3219C165.413 94.3219 164.883 94.3219 164.354 94.2877C163.824 94.2877 163.295 94.2536 162.798 94.2536C162.699 94.2536 162.633 94.1853 162.633 94.0829V93.8098C162.633 92.8882 162.633 91.9324 162.633 91.0107C162.633 90.9083 162.699 90.84 162.798 90.84C163.824 90.7718 164.85 90.7718 165.942 90.84C166.042 90.84 166.108 90.9083 166.108 91.0107C166.141 92.0006 166.108 92.9906 166.075 94.1512C166.075 94.2536 166.009 94.3219 165.909 94.3219ZM162.964 93.9464C163.427 93.9464 163.89 93.9464 164.354 93.9805C164.817 93.9805 165.314 94.0146 165.744 94.0146C165.777 92.9906 165.777 92.103 165.777 91.2155C164.784 91.1814 163.857 91.1814 162.964 91.2155C162.964 92.103 162.964 92.9906 162.964 93.844V93.9464Z" fill="#23274D"/>
<path d="M159.4 78.995L156.422 78.9609C156.389 78.9609 156.355 78.9267 156.355 78.8926C156.355 78.8585 156.389 78.8243 156.422 78.8243L159.4 78.8585C159.433 78.8585 159.466 78.8926 159.466 78.9267C159.466 78.9609 159.433 78.995 159.4 78.995Z" fill="#23274D"/>
<path d="M166.019 78.9951C165.291 78.961 164.463 78.961 163.636 78.961C163.371 78.961 163.14 78.961 162.875 78.961C162.842 78.961 162.809 78.9269 162.809 78.8927C162.809 78.8586 162.842 78.8245 162.875 78.8245C163.106 78.8245 163.371 78.8245 163.636 78.8245C164.463 78.8245 165.324 78.8245 166.019 78.8586C166.052 78.8586 166.085 78.8927 166.085 78.9269C166.085 78.961 166.052 78.9951 166.019 78.9951Z" fill="#23274D"/>
<path d="M159.295 85.4472C158.865 85.4472 158.368 85.4472 157.872 85.4472C157.375 85.4472 156.846 85.4472 156.383 85.4472C156.35 85.4472 156.316 85.4131 156.316 85.3789C156.316 85.3448 156.35 85.3107 156.383 85.3107C156.846 85.3107 157.342 85.3107 157.872 85.3107C158.368 85.3107 158.865 85.3107 159.295 85.3107C159.328 85.3107 159.361 85.3448 159.361 85.3789C159.361 85.4131 159.328 85.4472 159.295 85.4472Z" fill="#23274D"/>
<path d="M165.918 85.4125C165.223 85.3784 164.097 85.3784 162.906 85.3784C162.873 85.3784 162.84 85.3442 162.84 85.3101C162.84 85.276 162.873 85.2418 162.906 85.2418C163.469 85.2418 164.925 85.2418 165.918 85.276C165.951 85.276 165.984 85.3101 165.984 85.3442C165.951 85.4125 165.951 85.4125 165.918 85.4125Z" fill="#23274D"/>
<path d="M157.948 91.9668C157.385 91.9668 156.822 91.9668 156.293 91.9327C156.26 91.9327 156.227 91.8985 156.227 91.8644C156.227 91.8303 156.26 91.7961 156.293 91.7961C157.054 91.8303 157.848 91.8303 158.609 91.8303C158.841 91.8303 159.04 91.8303 159.271 91.8303C159.304 91.8303 159.338 91.8644 159.338 91.8986C159.338 91.9327 159.304 91.9668 159.271 91.9668C159.04 91.9668 158.841 91.9668 158.609 91.9668C158.411 91.9668 158.179 91.9668 157.948 91.9668Z" fill="#23274D"/>
<path d="M162.875 91.9328C162.842 91.9328 162.809 91.8986 162.809 91.8645C162.809 91.8304 162.842 91.7962 162.875 91.7962C163.868 91.7621 164.894 91.7621 165.92 91.7621C165.953 91.7621 165.986 91.7962 165.986 91.8304C165.986 91.8645 165.953 91.8986 165.92 91.8986C164.894 91.8986 163.868 91.8986 162.875 91.9328Z" fill="#23274D"/>
<path d="M172.502 87.5627C171.509 87.5627 170.35 87.5285 169.391 87.4944C169.391 86.5045 169.391 85.4462 169.391 84.4222C170.417 84.3539 171.443 84.3539 172.535 84.4222C172.535 85.4462 172.535 86.4703 172.502 87.5627Z" fill="#B8D4F7"/>
<path d="M172.503 87.7337C172.007 87.7337 171.477 87.7337 170.948 87.6996C170.418 87.6996 169.888 87.6655 169.392 87.6655C169.293 87.6655 169.227 87.5972 169.227 87.4948V87.2217C169.227 86.3 169.227 85.3442 169.227 84.4226C169.227 84.3202 169.293 84.2519 169.392 84.2519C170.418 84.1836 171.444 84.1836 172.536 84.2519C172.635 84.2519 172.702 84.3202 172.702 84.4226C172.735 85.4125 172.702 86.4024 172.668 87.563C172.635 87.6655 172.569 87.7337 172.503 87.7337ZM169.524 87.3582C169.988 87.3582 170.451 87.3582 170.948 87.3924C171.411 87.3924 171.907 87.4265 172.338 87.4265C172.371 86.4024 172.371 85.5149 172.371 84.6274C171.378 84.5932 170.451 84.5932 169.558 84.6274C169.558 85.5149 169.558 86.4024 169.558 87.29L169.524 87.3582Z" fill="#23274D"/>
<path d="M172.502 94.151C171.509 94.151 170.35 94.1169 169.391 94.0828C169.391 93.0928 169.391 92.0346 169.391 91.0106C170.417 90.9423 171.443 90.9423 172.535 91.0106C172.535 92.0346 172.535 93.0246 172.502 94.151Z" fill="#B8D4F7"/>
<path d="M172.503 94.3221C172.007 94.3221 171.477 94.3221 170.948 94.288C170.418 94.288 169.888 94.2538 169.392 94.2538C169.293 94.2538 169.227 94.1856 169.227 94.0832V93.8101C169.227 92.8884 169.227 91.9326 169.227 91.0109C169.227 90.9085 169.293 90.8403 169.392 90.8403C170.418 90.772 171.444 90.772 172.536 90.8403C172.635 90.8403 172.702 90.9085 172.702 91.0109C172.735 92.0009 172.702 92.9908 172.668 94.1514C172.635 94.2538 172.569 94.3221 172.503 94.3221ZM169.524 93.9466C169.988 93.9466 170.451 93.9466 170.914 93.9807C171.378 93.9807 171.874 94.0149 172.304 94.0149C172.338 92.9908 172.338 92.1033 172.338 91.2158C171.345 91.1816 170.418 91.1816 169.524 91.2158C169.524 92.1033 169.524 92.9908 169.524 93.8783V93.9466Z" fill="#23274D"/>
<path d="M172.472 85.4126C171.777 85.3785 170.652 85.3785 169.461 85.3785C169.428 85.3785 169.395 85.3443 169.395 85.3102C169.395 85.2761 169.428 85.2419 169.461 85.2419C170.023 85.2419 171.48 85.2419 172.472 85.2761C172.505 85.2761 172.539 85.3102 172.539 85.3443C172.505 85.4126 172.505 85.4126 172.472 85.4126Z" fill="#23274D"/>
<path d="M169.422 91.9328C169.389 91.9328 169.355 91.8986 169.355 91.8645C169.355 91.8304 169.389 91.7962 169.422 91.7962C170.415 91.7621 171.44 91.7621 172.466 91.7621C172.5 91.7621 172.533 91.7962 172.533 91.8304C172.533 91.8645 172.5 91.8986 172.466 91.8986C171.44 91.8986 170.448 91.8986 169.422 91.9328Z" fill="#23274D"/>
<path d="M151.785 99.0327C160.257 99.0327 168.233 98.9644 176.375 99.0327C176.606 99.0327 176.606 97.1552 176.606 97.1552C173.959 97.36 158.768 96.9162 151.752 97.2576C151.719 97.7696 151.686 98.3841 151.785 99.0327Z" fill="white"/>
<path d="M151.786 99.1693C151.72 99.1693 151.654 99.1011 151.621 99.0328C151.522 98.3159 151.555 97.6674 151.588 97.1895C151.588 97.1212 151.654 97.0529 151.753 97.0188C155.692 96.8481 162.344 96.9164 167.672 96.9505C171.842 96.9846 175.449 97.0188 176.608 96.9164C176.641 96.9164 176.707 96.9164 176.74 96.9505C176.773 96.9846 176.806 97.0188 176.806 97.0871C176.806 99.1352 176.575 99.1352 176.442 99.1352C171.081 99.1011 165.852 99.1011 160.358 99.1352C157.545 99.1693 154.666 99.1693 151.786 99.1693ZM151.886 97.3943C151.853 97.8039 151.853 98.3159 151.919 98.8621C154.765 98.8621 157.578 98.8621 160.292 98.8621C165.786 98.8621 170.949 98.828 176.31 98.8621C176.376 98.6573 176.409 97.9746 176.442 97.326C175.119 97.3943 171.644 97.3601 167.672 97.326C162.41 97.2577 155.857 97.1895 151.886 97.3943Z" fill="#23274D"/>
<path d="M153.609 70.9049C153.576 70.9049 153.543 70.8708 153.543 70.8366L153.642 68.1399C153.642 68.1058 153.675 68.0717 153.708 68.0717C153.742 68.0717 153.775 68.1058 153.775 68.1399L153.675 70.8366C153.642 70.8708 153.642 70.9049 153.609 70.9049Z" fill="#23274D"/>
<path d="M154.503 69.5396C154.47 69.5396 154.437 69.5054 154.437 69.4713L154.371 68.2083C154.371 68.1741 154.404 68.14 154.437 68.14C154.47 68.14 154.503 68.1741 154.503 68.2083L154.57 69.4713C154.57 69.5396 154.537 69.5396 154.503 69.5396Z" fill="#23274D"/>
<path d="M155.261 69.1984C155.228 69.1984 155.195 69.1643 155.195 69.1301L155.129 68.2426C155.129 68.2085 155.162 68.1743 155.195 68.1743C155.228 68.1743 155.261 68.2085 155.261 68.2426L155.327 69.1301C155.327 69.1643 155.294 69.1984 155.261 69.1984Z" fill="#23274D"/>
<path d="M168.039 75.6496C168.006 75.6496 167.973 75.6155 167.973 75.5814L168.039 73.7039C168.039 73.6698 168.072 73.6356 168.105 73.6356C168.138 73.6356 168.171 73.6698 168.171 73.7039L168.105 75.5814C168.072 75.6155 168.039 75.6496 168.039 75.6496Z" fill="#23274D"/>
<path d="M167.383 74.7278C167.35 74.7278 167.316 74.6937 167.316 74.6596V73.7038C167.316 73.6696 167.35 73.6355 167.383 73.6355C167.416 73.6355 167.449 73.6696 167.449 73.7038V74.6596C167.449 74.6937 167.416 74.7278 167.383 74.7278Z" fill="#23274D"/>
<path d="M166.588 74.4554C166.554 74.4554 166.521 74.4213 166.521 74.4213C166.488 74.2164 166.488 73.9775 166.521 73.7727C166.521 73.7385 166.554 73.7385 166.588 73.7385C166.621 73.7385 166.654 73.7727 166.621 73.8068C166.588 74.0116 166.588 74.2164 166.621 74.4213C166.654 74.4213 166.621 74.4213 166.588 74.4554Z" fill="#23274D"/>
<path d="M175.453 84.1498C175.42 84.1498 175.387 84.1156 175.387 84.0815C175.387 83.3305 175.42 82.5795 175.486 81.8285C175.486 81.7944 175.519 81.7603 175.552 81.7603C175.585 81.7603 175.618 81.7944 175.618 81.8285C175.552 82.5795 175.519 83.3305 175.519 84.0815C175.519 84.1498 175.486 84.1498 175.453 84.1498Z" fill="#23274D"/>
<path d="M174.86 82.9208C174.826 82.9208 174.793 82.8867 174.793 82.8525L174.826 81.8626C174.826 81.8284 174.86 81.7943 174.893 81.7943C174.926 81.7943 174.959 81.8284 174.959 81.8626L174.926 82.8525C174.926 82.8867 174.893 82.9208 174.86 82.9208Z" fill="#23274D"/>
<path d="M193.471 97.4833C193.471 86.9815 193.361 75.0683 193.361 63.6632C193.361 63.6632 192.157 59.4851 191.774 58.5253C191.336 58.5253 191.008 58.5253 190.57 58.5253C189.694 60.2756 188.763 63.7197 188.763 63.7197C188.216 73.6003 187.668 87.0945 187.23 96.8057C187.23 97.1445 187.449 97.4268 187.723 97.5397C187.997 97.6526 188.271 97.6526 188.544 97.6526C189.639 97.7091 192.376 97.7091 193.471 97.4833Z" fill="white"/>
<path d="M189.698 97.9915C189.26 97.9915 188.822 97.9915 188.548 97.9915C188.275 97.9915 187.946 97.9915 187.618 97.8221C187.235 97.6527 186.961 97.2575 186.961 96.8622C187.125 93.8134 187.235 90.3693 187.399 86.6993C187.727 79.1335 188.11 70.495 188.494 63.7762V63.7197C188.548 63.6068 189.479 60.2756 190.355 58.5253C190.41 58.4124 190.519 58.356 190.574 58.356C190.793 58.356 191.012 58.356 191.176 58.356C191.34 58.356 191.559 58.356 191.778 58.356C191.888 58.356 191.997 58.4124 191.997 58.5253C192.216 59.0899 192.709 60.6144 192.982 61.4613C193.475 63.0422 193.584 63.5504 193.639 63.7762C193.639 69.5917 193.694 75.5765 193.694 81.392C193.749 87.0945 193.749 92.4583 193.749 97.5962C193.749 97.7092 193.639 97.8221 193.53 97.8785C192.709 97.935 191.012 97.9915 189.698 97.9915ZM187.508 96.8058C187.508 97.0316 187.673 97.201 187.837 97.3139C188.056 97.4269 188.329 97.4269 188.548 97.4269C189.588 97.4269 191.997 97.4833 193.201 97.3139C193.201 92.2325 193.201 86.9816 193.147 81.3355C193.092 75.5765 193.092 69.5917 193.092 63.7762C192.982 63.4374 191.997 59.9933 191.614 58.8641C191.45 58.8641 191.34 58.8641 191.231 58.8641C191.066 58.8641 190.957 58.8641 190.793 58.8641C190.026 60.5015 189.151 63.4939 189.041 63.8327C188.658 70.5515 188.275 79.1335 187.946 86.6993C187.782 90.3128 187.673 93.7569 187.508 96.8058Z" fill="#23274D"/>
<path d="M199.372 96.7498H182.129V99.5728H199.372V96.7498Z" fill="white"/>
<path d="M199.376 99.9115H182.133C181.969 99.9115 181.859 99.7985 181.859 99.6292V96.8061C181.859 96.6367 181.969 96.5238 182.133 96.5238H199.376C199.54 96.5238 199.65 96.6367 199.65 96.8061V99.6292C199.65 99.7421 199.54 99.9115 199.376 99.9115ZM182.407 99.3468H199.102V97.032H182.407V99.3468Z" fill="#23274D"/>
<path d="M175.191 62.8164L202.287 63.4375L202.506 66.8816L171.852 67.051L175.191 62.8164Z" fill="white"/>
<path d="M171.853 67.3334C171.743 67.3334 171.634 67.2769 171.634 67.164C171.579 67.0511 171.579 66.9381 171.688 66.8817L175.028 62.6471C175.082 62.5906 175.137 62.5342 175.246 62.5342L202.343 63.1553C202.507 63.1553 202.616 63.2682 202.616 63.4376L202.835 66.8817C202.835 66.9381 202.835 67.0511 202.781 67.1075C202.726 67.164 202.671 67.2204 202.562 67.2204L171.853 67.3334ZM175.301 63.0988L172.4 66.7687L202.233 66.5994L202.014 63.6634L175.301 63.0988Z" fill="#23274D"/>
<path d="M169.816 76.5366H179.505V81.731L169.871 81.9004L169.816 76.5366Z" fill="#B8D4F7"/>
<path d="M169.875 82.1263C169.711 82.1263 169.602 82.0134 169.602 81.844L169.547 76.4802C169.547 76.4238 169.547 76.3109 169.602 76.3109C169.656 76.2544 169.711 76.2544 169.766 76.2544H179.455C179.51 76.2544 179.619 76.3109 179.619 76.3109C179.674 76.3673 179.674 76.4238 179.674 76.4802V81.6746C179.674 81.844 179.564 81.9569 179.4 81.9569L169.875 82.1263ZM170.094 76.819L170.149 81.6182L179.236 81.5053V76.819H170.094Z" fill="#23274D"/>
<path d="M179.504 76.8753C179.394 76.8753 179.339 76.8188 179.285 76.7059C178.19 74.6733 177.259 72.5278 176.274 70.2694C175.891 69.4225 175.562 68.5755 175.179 67.7286C173.318 70.7775 171.676 73.6006 170.143 76.4236C170.088 76.5365 169.924 76.593 169.76 76.5365C169.65 76.4801 169.596 76.3107 169.65 76.1413C171.238 73.2053 172.99 70.2129 174.96 66.9946C175.015 66.8817 175.124 66.8817 175.179 66.8817C175.289 66.8817 175.343 66.9382 175.398 67.0511C175.891 68.1238 176.329 69.0837 176.712 70.1C177.697 72.3584 178.628 74.5039 179.723 76.5365C179.777 76.6494 179.723 76.8188 179.613 76.9317C179.613 76.8188 179.558 76.8753 179.504 76.8753Z" fill="#23274D"/>
<path d="M193.404 96.5801C192.528 95.6203 190.996 94.2088 189.682 92.9666C188.915 92.2326 188.149 91.5551 187.656 90.9905L187.492 90.8211H187.711C189.518 90.7082 191.379 90.7082 193.13 90.7082C191.598 88.6756 189.846 86.6995 187.821 84.7233L187.656 84.554H187.875C189.682 84.4975 191.488 84.6104 193.24 84.7233C191.652 82.7472 189.955 80.7711 188.04 78.5126L187.875 78.3433H188.094C189.901 78.3997 191.598 78.5126 193.185 78.6256C191.707 76.8188 190.174 74.8992 188.313 72.7536L188.204 72.6407H188.368C189.737 72.5278 191.215 72.5278 192.966 72.6972C191.652 70.6646 190.174 68.7449 188.806 66.9946L188.97 66.8817C190.393 68.6885 191.871 70.6646 193.24 72.7536L193.349 72.923H193.185C191.433 72.7536 189.955 72.7536 188.642 72.8666C190.503 75.0685 192.036 76.9317 193.568 78.795L193.678 78.9643H193.459C191.871 78.8514 190.174 78.7385 188.368 78.6256C190.284 80.8275 191.981 82.8037 193.568 84.8363L193.678 85.0056H193.459C191.707 84.8927 189.901 84.7798 188.094 84.8363C190.12 86.8124 191.817 88.7885 193.349 90.8211L193.459 90.9905H193.295C191.543 90.9905 189.737 90.9905 187.93 91.1034C188.423 91.6116 189.134 92.2326 189.846 92.9102C191.16 94.1523 192.692 95.5638 193.568 96.5801H193.404Z" fill="#23274D"/>
<path d="M172.992 65.8651V65.6957C182.736 65.4134 192.644 65.3569 202.388 65.5263V65.6957C192.644 65.5263 182.736 65.5828 172.992 65.8651Z" fill="#23274D"/>
<g opacity="0.1294">
<path d="M179.241 80.3192C179.131 80.2627 179.077 80.2627 178.967 80.3192C178.858 80.3192 178.639 80.3192 178.584 80.3192C177.927 80.3192 177.27 80.3192 176.559 80.3192C175.464 80.2627 174.424 80.4321 173.329 80.4321C172.891 80.4321 172.453 80.3757 172.015 80.4321C171.523 80.4886 171.03 80.545 170.483 80.545C170.209 80.4886 169.826 80.6015 169.716 80.9967C169.552 81.4484 169.826 82.013 170.264 82.013C170.975 82.0695 171.742 81.9001 172.453 81.9001C173.603 82.013 174.752 81.7872 175.902 81.7872C176.613 81.7872 177.325 81.7872 178.037 81.7872C178.31 81.7872 178.639 81.7872 178.912 81.7872C179.077 81.7872 179.241 81.7872 179.35 81.6178C179.843 81.279 179.679 80.4886 179.241 80.3192Z" fill="#23274D"/>
</g>
<g opacity="0.1294">
<path d="M193.141 66.9946C193.032 66.9382 192.977 66.8817 192.868 66.8817C192.43 66.8817 191.992 66.9382 191.609 66.9382C190.678 66.9946 189.802 66.9382 188.872 66.9382C188.105 66.9382 188.105 68.3497 188.872 68.4062C189.802 68.4062 190.788 68.4062 191.718 68.4062C192.101 68.4062 192.484 68.3497 192.868 68.3497C192.922 68.3497 193.032 68.3497 193.087 68.2932C193.525 68.0674 193.525 67.2205 193.141 66.9946Z" fill="#23274D"/>
</g>
<path d="M66.0877 76.8859L65.5391 99.2692H102.967L103.394 76.9487L66.0877 76.8859Z" fill="#FAFBFF"/>
<path d="M102.969 99.5837H65.5407C65.4798 99.5837 65.3579 99.5208 65.3579 99.5208C65.2969 99.458 65.2969 99.3951 65.2969 99.2693L65.8455 76.886C65.8455 76.6974 65.9674 76.5717 66.1503 76.5717L103.457 76.6345C103.518 76.6345 103.64 76.6974 103.64 76.6974C103.701 76.7603 103.701 76.8231 103.701 76.9489L103.274 99.2693C103.274 99.3951 103.152 99.5837 102.969 99.5837ZM65.8455 98.955H102.664L103.091 77.2633L66.3942 77.2004L65.8455 98.955Z" fill="#23274D"/>
<path d="M81.5191 99.2695C70.8514 99.2695 59.6961 99.4581 49.0284 99.3324C49.0284 88.3294 48.9065 77.0119 48.2969 64.7514C58.0502 64.4999 70.1199 64.3742 82.3116 64.2484C81.641 76.5089 80.9705 91.1587 81.5191 99.2695Z" fill="white"/>
<path d="M54.8805 99.6468C52.9298 99.6468 50.9791 99.6468 49.0285 99.6468C48.8456 99.6468 48.7237 99.5211 48.7237 99.3324C48.7237 89.5869 48.6627 77.8294 47.9922 64.7515C47.9922 64.6886 47.9922 64.5628 48.0531 64.5C48.1141 64.4371 48.1751 64.3742 48.236 64.3742C57.3797 64.1227 68.2913 64.0598 79.8733 63.9341H82.2507C82.3117 63.9341 82.4336 63.997 82.4945 64.0598C82.5555 64.1227 82.5555 64.1856 82.5555 64.3113C81.9459 76.2575 81.2144 91.0959 81.824 99.2696C81.824 99.3324 81.824 99.4582 81.763 99.521C81.7021 99.5839 81.6411 99.5839 81.5192 99.6468C76.9473 99.6468 72.2536 99.6468 67.6207 99.7097C63.4756 99.6468 59.1475 99.6468 54.8805 99.6468ZM49.3333 99.0181C55.3681 99.0809 61.5859 99.0181 67.6817 98.9552C72.1316 98.9552 76.7645 98.8923 81.2144 98.8923C80.6658 90.7186 81.3973 76.2575 81.9459 64.5H79.8733C68.4132 64.6257 57.6236 64.6886 48.5408 64.9401C49.2113 77.8922 49.3333 89.3983 49.3333 99.0181Z" fill="#23274D"/>
<path d="M87.4211 66.8891C71.8767 66.8891 57.9173 67.1406 43.8359 67.1406C50.6633 59.5956 58.0392 51.1076 64.9884 43.6255C72.2425 50.9818 79.2527 59.5327 87.4211 66.8891Z" fill="white"/>
<path d="M43.8355 67.5177C43.7136 67.5177 43.5917 67.4548 43.5917 67.3291C43.5307 67.2033 43.5917 67.0776 43.6526 67.0147C46.2129 64.1854 48.895 61.1674 51.5162 58.2123C55.9052 53.2452 60.4771 48.1523 64.8051 43.4996C64.8661 43.4368 64.927 43.4368 64.988 43.4368C65.0489 43.4368 65.1709 43.4368 65.1709 43.4996C67.975 46.329 70.7181 49.2841 73.5831 52.4278C78.0331 57.2692 82.6049 62.2362 87.5425 66.7632C87.6644 66.8261 87.6645 66.9518 87.6035 67.0776C87.5425 67.2033 87.4206 67.2662 87.2987 67.2662C79.3132 67.2662 71.7544 67.3291 64.4394 67.3919C57.4292 67.4548 50.6628 67.5177 43.8355 67.5177ZM64.988 44.1284C60.6599 48.7182 56.21 53.7482 51.882 58.5895C49.4436 61.356 46.8834 64.1853 44.506 66.889C51.1505 66.889 57.612 66.8261 64.5003 66.7632C71.5715 66.7003 78.8865 66.6375 86.5672 66.6375C81.8125 62.2991 77.4235 57.4578 73.1564 52.8051C70.3523 49.7242 67.7311 46.8949 64.988 44.1284Z" fill="#23274D"/>
<path d="M70.7231 87.449C67.1876 87.449 63.652 87.3861 60.1164 87.3861C59.7507 83.6765 59.5678 80.0298 59.6287 76.3202C63.2862 76.1316 66.9437 76.1316 70.8451 76.3202C70.906 79.9669 70.906 83.4879 70.7231 87.449Z" fill="#B8D4F7"/>
<path d="M70.7186 87.7633L60.1119 87.7004C59.99 87.7004 59.8071 87.5746 59.8071 87.4489C59.3804 83.2363 59.2584 79.7153 59.3194 76.383C59.3194 76.1943 59.4413 76.0686 59.6242 76.0686C63.2817 75.88 66.9392 75.88 70.8405 76.0686C71.0234 76.0686 71.1453 76.1943 71.1453 76.383C71.2063 79.9039 71.1453 83.4249 71.0234 87.5118C71.0234 87.6375 70.9015 87.7633 70.7186 87.7633ZM60.4167 87.0716L70.4138 87.1345C70.5357 83.2992 70.5967 79.9668 70.5357 76.6345C66.8173 76.4458 63.3426 76.4458 59.929 76.6345C59.929 79.7782 60.0509 83.1105 60.4167 87.0716Z" fill="#23274D"/>
<path d="M67.0024 57.0805C65.7833 56.2632 63.9545 56.6404 63.1011 57.8979C62.2477 59.1554 62.6134 61.1045 63.7716 61.9848C64.9298 62.865 66.8195 62.5506 67.6729 61.356C68.5873 60.0985 68.4654 58.0865 67.0024 57.0805Z" fill="white"/>
<path d="M65.4136 62.8021C64.804 62.8021 64.1335 62.6135 63.6458 62.2363C62.3047 61.2303 61.939 59.1554 62.9143 57.7093C63.8287 56.3261 65.8403 55.8859 67.1814 56.8291C67.9129 57.3321 68.3396 58.0866 68.5225 58.9668C68.7054 59.847 68.4615 60.853 67.9738 61.5447C67.3643 62.362 66.3889 62.8021 65.4136 62.8021ZM65.5355 56.9548C64.6821 56.9548 63.8287 57.3321 63.402 58.0866C62.6705 59.2183 62.9753 60.9788 64.0116 61.7333C65.0478 62.5506 66.7547 62.2363 67.4862 61.1674C67.9129 60.6015 68.0348 59.847 67.9129 59.0926C67.791 58.3381 67.4252 57.7722 66.8156 57.3321C66.4499 57.0806 65.9622 56.9548 65.5355 56.9548Z" fill="#23274D"/>
<path d="M85.9595 99.5837C85.7766 99.5837 85.6547 99.458 85.6547 99.2694C85.7766 94.2394 85.6547 89.2723 85.5938 85.0597C85.5938 84.9969 85.5937 84.8711 85.6547 84.8082C85.7157 84.7454 85.7766 84.7454 85.8376 84.7454C89.9218 84.7454 94.1888 84.7454 98.4559 84.7454C98.5169 84.7454 98.6388 84.8082 98.6388 84.8082C98.6997 84.8711 98.6998 84.934 98.6998 84.9969C98.6998 86.2544 98.6998 87.5119 98.6998 88.7065C98.6998 92.4789 98.6998 95.9999 98.5778 99.0179C98.5778 99.2065 98.4559 99.3323 98.273 99.3323C98.0902 99.3323 97.9683 99.2065 97.9683 99.0179C98.0902 95.9999 98.0902 92.4789 98.0902 88.7065C98.0902 87.5747 98.0902 86.5059 98.0902 85.3112C94.0669 85.3112 90.0437 85.3112 86.0814 85.3112C86.1424 89.461 86.2643 94.3023 86.1424 99.2065C86.2643 99.458 86.1424 99.5837 85.9595 99.5837Z" fill="#23274D"/>
<path d="M86.204 87.1347C86.143 87.1347 86.082 87.0718 86.082 87.009C86.082 86.9461 86.143 86.8832 86.204 86.8832C90.1662 86.6946 94.1285 86.6317 98.0908 86.6946C98.1518 86.6946 98.2127 86.7575 98.2127 86.8204C98.2127 86.8832 98.1518 86.9461 98.0908 86.9461C94.1285 86.8203 90.1662 86.8832 86.204 87.1347Z" fill="#23274D"/>
<path d="M88.6337 88.7061C87.7803 88.7061 86.9269 88.7061 86.0125 88.7061C85.9516 88.7061 85.8906 88.6433 85.8906 88.5804C85.8906 88.5175 85.9516 88.4546 86.0125 88.4546C90.0967 88.5175 94.2419 88.4546 98.3261 88.2031C98.387 88.2031 98.448 88.266 98.448 88.3289C98.448 88.3918 98.387 88.4546 98.3261 88.4546C95.0953 88.6433 91.8645 88.7061 88.6337 88.7061Z" fill="#23274D"/>
<path d="M85.9618 90.7812C85.9008 90.7812 85.8398 90.7184 85.8398 90.6555C85.8398 90.5926 85.9008 90.5297 85.9618 90.5297C90.1069 90.2154 94.313 90.1525 98.4582 90.2783C98.5192 90.2783 98.5801 90.3411 98.5801 90.404C98.5801 90.4669 98.5192 90.5297 98.4582 90.5297C94.313 90.3411 90.1069 90.4669 85.9618 90.7812Z" fill="#23274D"/>
<path d="M86.079 92.7304C86.018 92.7304 85.957 92.6675 85.957 92.6047C85.957 92.5418 86.018 92.4789 86.079 92.4789L98.4535 92.1017C98.5144 92.1017 98.5754 92.1646 98.5754 92.2274C98.5754 92.2903 98.5144 92.3532 98.4535 92.3532L86.079 92.7304Z" fill="#23274D"/>
<path d="M90.2288 94.365C88.8268 94.365 87.3638 94.365 85.9618 94.365C85.9008 94.365 85.8398 94.3021 85.8398 94.2393C85.8398 94.1764 85.9008 94.1135 85.9618 94.1135C90.046 94.1135 94.2521 94.1135 98.3363 94.0507C98.3972 94.0507 98.4582 94.1135 98.4582 94.1764C98.4582 94.2393 98.3972 94.3022 98.3363 94.3022C95.7151 94.3022 92.972 94.365 90.2288 94.365Z" fill="#23274D"/>
<path d="M86.0125 95.9997C85.9516 95.9997 85.8906 95.9368 85.8906 95.8739C85.8906 95.8111 85.9516 95.7482 86.0125 95.7482H98.1432C98.2042 95.7482 98.2651 95.8111 98.2651 95.8739C98.2651 95.9368 98.2042 95.9997 98.1432 95.9997H86.0125Z" fill="#23274D"/>
<path d="M91.6926 97.5718C89.8638 97.5718 87.9741 97.509 86.1454 97.4461C86.0844 97.4461 86.0234 97.3832 86.0234 97.3203C86.0234 97.2575 86.0844 97.1946 86.1454 97.1946C90.2296 97.3203 94.3138 97.3203 98.398 97.1317C98.4589 97.1317 98.5199 97.1946 98.5199 97.2575C98.5199 97.3203 98.4589 97.3832 98.398 97.3832C96.2035 97.509 93.948 97.5718 91.6926 97.5718Z" fill="#23274D"/>
<path d="M59.8719 79.9667C59.811 79.9667 59.75 79.9039 59.75 79.841C59.75 79.7781 59.811 79.7152 59.8719 79.7152C63.4685 79.6524 67.1259 79.5895 70.7834 79.5266C70.8444 79.5266 70.9053 79.5895 70.9053 79.6524C70.9053 79.7152 70.8444 79.7781 70.7834 79.7781C67.1869 79.7781 63.5294 79.841 59.8719 79.9667Z" fill="#23274D"/>
<path d="M65.2391 87.3864C65.1782 87.3864 65.1172 87.3235 65.1172 87.2606L65.3001 79.7786C65.3001 79.7157 65.361 79.6528 65.422 79.6528C65.4829 79.6528 65.5439 79.7157 65.5439 79.7786L65.361 87.2606C65.3001 87.3235 65.3001 87.3864 65.2391 87.3864Z" fill="#23274D"/>
<path d="M65.7244 62.7392C65.6634 62.7392 65.6025 62.6763 65.6025 62.6134C65.5415 60.7272 65.3587 58.7781 65.1758 56.8919C65.1758 56.829 65.2367 56.7661 65.2367 56.7661C65.2977 56.7661 65.3586 56.829 65.3586 56.829C65.5415 58.7152 65.7244 60.6643 65.7854 62.6134C65.7854 62.6763 65.7853 62.7392 65.7244 62.7392Z" fill="#23274D"/>
<path d="M62.7938 59.7212C62.7328 59.7212 62.6719 59.6583 62.6719 59.5954C62.6719 59.5325 62.7328 59.4697 62.7938 59.4697L68.28 59.0924C68.341 59.0924 68.402 59.1553 68.402 59.2182C68.402 59.281 68.341 59.3439 68.28 59.3439L62.7938 59.7212Z" fill="#23274D"/>
<path d="M50.6095 74.874C50.5485 74.874 50.4876 74.8111 50.4876 74.7482L50.3047 69.0895C50.3047 69.0266 50.3657 68.9637 50.4266 68.9637C50.4876 68.9637 50.5485 69.0266 50.5485 69.0895L50.7314 74.7482C50.7314 74.8111 50.6704 74.874 50.6095 74.874Z" fill="#23274D"/>
<path d="M52.0563 71.29C51.9954 71.29 51.9344 71.2271 51.9344 71.1643L51.8125 68.8379C51.8125 68.775 51.8735 68.7122 51.9344 68.7122C51.9954 68.7122 52.0563 68.775 52.0563 68.8379L52.1783 71.1643C52.1173 71.29 52.1173 71.29 52.0563 71.29Z" fill="#23274D"/>
<path d="M49.3907 97.1945C49.2079 97.1945 49.0859 97.0687 49.0859 96.8801C49.0859 96.6915 49.2079 96.5657 49.3907 96.5657L81.2109 96.1885C81.3938 96.1885 81.5157 96.3142 81.5157 96.5028C81.5157 96.6915 81.3938 96.8172 81.2109 96.8172L49.3907 97.1945Z" fill="#23274D"/>
<g opacity="0.1294">
<path d="M82.2401 68.1463C82.1791 68.0205 82.1181 67.8948 82.0572 67.8319C82.0572 67.3918 81.7524 66.9517 81.2647 66.9517C80.1675 67.0774 79.0093 66.9517 77.912 67.0145C76.8148 67.0145 75.6566 67.1403 74.5593 67.266C74.3155 67.266 74.0717 67.266 73.8278 67.3918C73.523 67.3918 73.2792 67.3918 72.9744 67.3918C71.1457 67.4547 69.3779 67.3918 67.5491 67.3918C64.806 67.3918 62.0629 67.4547 59.3198 67.4547C57.7349 67.4547 56.15 67.3289 54.565 67.3918C52.7973 67.3918 51.0904 67.6433 49.3226 67.4547C48.1644 67.3289 48.0425 69.1523 49.2007 69.2151C51.2123 69.4038 53.163 69.1523 55.1746 69.1523C59.3807 69.3409 63.5869 69.2151 67.793 69.1523C69.5608 69.1523 71.3286 69.2151 73.0964 69.2151C75.5347 69.3409 77.973 69.4666 80.4723 69.4038C80.5942 69.4038 80.7161 69.4038 80.7771 69.4038C80.838 69.4038 80.899 69.4038 80.9599 69.4038C81.2038 69.4666 81.3867 69.4038 81.6305 69.4038C82.0572 69.0894 82.362 68.5864 82.2401 68.1463Z" fill="#23274D"/>
</g>
<g opacity="0.1294">
<path d="M98.2102 85.1227C98.0273 84.997 97.7835 84.997 97.6006 84.997C96.9301 84.997 96.3205 84.997 95.65 84.997C94.3699 84.997 93.0288 84.9341 91.7487 84.9341C90.1028 84.997 88.4569 84.997 86.8111 84.8712C86.4453 84.8712 86.0796 84.8083 85.7748 85.1227C85.2871 85.6257 85.6528 86.5688 86.3234 86.5688C88.1521 86.7575 90.0418 86.6946 91.8706 86.5688C93.6384 86.5688 95.4671 86.6946 97.2349 86.6946C97.4787 86.6946 97.7835 86.7574 98.0273 86.6317C98.7588 86.4431 98.7588 85.4371 98.2102 85.1227Z" fill="#23274D"/>
</g>
<path d="M11.7581 37.5212L11.2383 98.6394H42.4253L42.8152 37.6553L11.7581 37.5212Z" fill="white"/>
<path d="M42.4235 98.9745H11.2365C11.1715 98.9745 11.0416 98.9075 11.0416 98.9075C10.9766 98.8404 10.9766 98.7734 10.9766 98.7064L11.4314 37.5883C11.4314 37.3872 11.5613 37.2532 11.7562 37.2532L42.8134 37.3872C42.8783 37.3872 43.0083 37.4542 43.0083 37.4542C43.0733 37.5212 43.0733 37.5882 43.0733 37.6553L42.6834 98.5724C42.7484 98.8404 42.6185 98.9745 42.4235 98.9745ZM11.5613 98.3043H42.0987L42.4885 37.9903L12.0811 37.8563L11.5613 98.3043Z" fill="#23274D"/>
<path d="M23.649 57.0899C21.6998 57.0899 19.4258 57.0229 17.4766 56.9559C17.4766 54.9454 17.4766 52.7339 17.4766 50.5894C19.4907 50.4554 21.5049 50.4554 23.649 50.5894C23.7789 52.7339 23.714 54.8114 23.649 57.0899Z" fill="#B8D4F7"/>
<path d="M23.6511 57.4247C22.6765 57.4247 21.6369 57.4247 20.5974 57.3577C19.5578 57.3577 18.5182 57.2907 17.5436 57.2907C17.3487 57.2907 17.2188 57.1567 17.2188 56.9556V56.4195C17.2188 54.5431 17.2188 52.5326 17.2188 50.5892C17.2188 50.3881 17.3487 50.2541 17.5436 50.2541C19.5578 50.1201 21.5719 50.1201 23.781 50.2541C23.9759 50.2541 24.1059 50.3881 24.1059 50.5892C24.1708 52.5996 24.1059 54.6771 24.0409 57.0897C23.9759 57.2907 23.846 57.4247 23.6511 57.4247ZM17.8035 56.6876C18.7131 56.6876 19.6228 56.6876 20.5974 56.7546C21.507 56.7546 22.4815 56.8216 23.3262 56.8216C23.3912 54.6771 23.3912 52.8007 23.3912 50.9913C21.442 50.9242 19.6227 50.9242 17.8035 50.9913C17.8035 52.8007 17.8035 54.6771 17.8035 56.4865V56.6876Z" fill="#23274D"/>
<path d="M36.5201 57.0899C34.5709 57.0899 32.2968 57.0229 30.3477 56.9559C30.3477 54.9454 30.3477 52.7339 30.3477 50.5894C32.3618 50.4554 34.376 50.4554 36.5201 50.5894C36.65 52.7339 36.5851 54.8114 36.5201 57.0899Z" fill="#B8D4F7"/>
<path d="M36.5222 57.4247C35.5476 57.4247 34.508 57.4247 33.4684 57.3577C32.4289 57.3577 31.3893 57.2907 30.4147 57.2907C30.2198 57.2907 30.0898 57.1567 30.0898 56.9556V56.4195C30.0898 54.5431 30.0898 52.5326 30.0898 50.5892C30.0898 50.3881 30.2198 50.2541 30.4147 50.2541C32.4289 50.1201 34.443 50.1201 36.6521 50.2541C36.847 50.2541 36.977 50.3881 36.977 50.5892C37.0419 52.5996 36.977 54.6771 36.912 57.0897C36.847 57.2907 36.7171 57.4247 36.5222 57.4247ZM30.6746 56.6876C31.5842 56.6876 32.4939 56.6876 33.4684 56.7546C34.3781 56.7546 35.3527 56.8216 36.1973 56.8216C36.2623 54.6771 36.2623 52.8007 36.2623 50.9913C34.3131 50.9242 32.4939 50.9242 30.6746 50.9913C30.6746 52.8007 30.6746 54.6771 30.6746 56.4865V56.6876Z" fill="#23274D"/>
<path d="M23.4576 70.6939C21.5084 70.6939 19.2343 70.6269 17.2852 70.5599C17.2852 68.5494 17.2852 66.3379 17.2852 64.1934C19.2993 64.0594 21.3135 64.0594 23.4576 64.1934C23.5875 66.3379 23.5875 68.4154 23.4576 70.6939Z" fill="#B8D4F7"/>
<path d="M23.4597 71.0289C22.4851 71.0289 21.4455 71.0289 20.4059 70.9619C19.3663 70.9619 18.3268 70.8948 17.3522 70.8948C17.1573 70.8948 17.0273 70.7608 17.0273 70.5598V70.0237C17.0273 68.1472 17.0273 66.1367 17.0273 64.1933C17.0273 63.9922 17.1573 63.8582 17.3522 63.8582C19.3664 63.7242 21.3805 63.7242 23.5896 63.8582C23.7845 63.8582 23.9145 63.9922 23.9145 64.1933C23.9794 66.2038 23.9145 68.2812 23.8495 70.6938C23.7845 70.8949 23.6546 71.0289 23.4597 71.0289ZM17.6771 70.2917C18.5867 70.2917 19.4963 70.2917 20.4709 70.3587C21.3805 70.3587 22.3551 70.4257 23.1998 70.4257C23.2648 68.2812 23.2647 66.4048 23.2647 64.5954C21.3155 64.5284 19.4963 64.5284 17.6771 64.5954C17.6771 66.4048 17.6771 68.2812 17.6771 70.0907V70.2917Z" fill="#23274D"/>
<path d="M36.3209 70.6939C34.3717 70.6939 32.0976 70.6269 30.1484 70.5599C30.1484 68.5494 30.1484 66.3379 30.1484 64.1934C32.1626 64.0594 34.1768 64.0594 36.3209 64.1934C36.4508 66.3379 36.4508 68.4154 36.3209 70.6939Z" fill="#B8D4F7"/>
<path d="M36.3229 71.0289C35.3483 71.0289 34.3088 71.0289 33.2692 70.9619C32.2297 70.9619 31.1901 70.8948 30.2155 70.8948C30.0206 70.8948 29.8906 70.7608 29.8906 70.5598V70.0237C29.8906 68.1472 29.8906 66.1367 29.8906 64.1933C29.8906 63.9922 30.0206 63.8582 30.2155 63.8582C32.2297 63.7242 34.2438 63.7242 36.4529 63.8582C36.6478 63.8582 36.7778 63.9922 36.7778 64.1933C36.8427 66.2038 36.7778 68.2812 36.7128 70.6938C36.6478 70.8949 36.5179 71.0289 36.3229 71.0289ZM30.5404 70.2917C31.45 70.2917 32.3596 70.2917 33.3342 70.3587C34.2438 70.3587 35.2184 70.4257 36.0631 70.4257C36.128 68.2812 36.128 66.4048 36.128 64.5954C34.1788 64.5284 32.3596 64.5284 30.5404 64.5954C30.5404 66.4048 30.5404 68.2812 30.5404 70.0907V70.2917Z" fill="#23274D"/>
<path d="M23.4576 84.3652C21.5084 84.3652 19.2343 84.2982 17.2852 84.2312C17.2852 82.2207 17.2852 80.0092 17.2852 77.8647C19.2993 77.7307 21.3135 77.7307 23.4576 77.8647C23.5875 79.9422 23.5875 82.0197 23.4576 84.3652Z" fill="#B8D4F7"/>
<path d="M23.4597 84.7001C22.4851 84.7001 21.4455 84.7001 20.4059 84.6331C19.3663 84.6331 18.3268 84.5661 17.3522 84.5661C17.1573 84.5661 17.0273 84.4321 17.0273 84.231V83.6949C17.0273 81.8185 17.0273 79.808 17.0273 77.8646C17.0273 77.6635 17.1573 77.5295 17.3522 77.5295C19.3664 77.3954 21.3805 77.3954 23.5896 77.5295C23.7845 77.5295 23.9145 77.6635 23.9145 77.8646C23.9794 79.875 23.9145 81.9525 23.8495 84.3651C23.7845 84.4991 23.6546 84.7001 23.4597 84.7001ZM17.6771 83.896C18.5867 83.896 19.4963 83.896 20.4709 83.963C21.3805 83.963 22.3551 84.03 23.1998 84.03C23.2648 81.8855 23.2647 80.0091 23.2647 78.1996C21.3155 78.1326 19.4963 78.1326 17.6771 78.1996C17.6771 80.0091 17.6771 81.8855 17.6771 83.6949V83.896Z" fill="#23274D"/>
<path d="M36.3209 84.3652C34.3717 84.3652 32.0976 84.2982 30.1484 84.2312C30.1484 82.2207 30.1484 80.0092 30.1484 77.8647C32.1626 77.7307 34.1768 77.7307 36.3209 77.8647C36.4508 79.9422 36.4508 82.0197 36.3209 84.3652Z" fill="#B8D4F7"/>
<path d="M36.3229 84.7001C35.3483 84.7001 34.3088 84.7001 33.2692 84.6331C32.2297 84.6331 31.1901 84.5661 30.2155 84.5661C30.0206 84.5661 29.8906 84.4321 29.8906 84.231V83.6949C29.8906 81.8185 29.8906 79.808 29.8906 77.8646C29.8906 77.6635 30.0206 77.5295 30.2155 77.5295C32.2297 77.3954 34.2438 77.3954 36.4529 77.5295C36.6478 77.5295 36.7778 77.6635 36.7778 77.8646C36.8427 79.875 36.7778 81.9525 36.7128 84.3651C36.6478 84.4991 36.5179 84.7001 36.3229 84.7001ZM30.5404 83.896C31.45 83.896 32.3596 83.896 33.3342 83.963C34.2438 83.963 35.2184 84.03 36.0631 84.03C36.128 81.8855 36.128 80.0091 36.128 78.1996C34.1788 78.1326 32.3596 78.1326 30.5404 78.1996C30.5404 80.0091 30.5404 81.8855 30.5404 83.6949V83.896Z" fill="#23274D"/>
<path d="M42.5542 41.3411C32.1586 41.006 21.7629 40.939 11.6921 41.1401C11.4971 41.1401 11.3672 41.006 11.3672 40.805C11.3672 40.604 11.4971 40.4699 11.6921 40.4699C21.7629 40.2019 32.1586 40.2689 42.5542 40.671C42.7492 40.671 42.8791 40.805 42.8791 41.006C42.8791 41.2071 42.7492 41.3411 42.5542 41.3411Z" fill="#23274D"/>
<path d="M23.4658 52.9351L17.6182 52.868C17.5533 52.868 17.4883 52.801 17.4883 52.734C17.4883 52.667 17.5533 52.6 17.6182 52.6L23.4658 52.667C23.5308 52.667 23.5958 52.734 23.5958 52.801C23.5958 52.868 23.5308 52.9351 23.4658 52.9351Z" fill="#23274D"/>
<path d="M36.5172 52.9348C35.0878 52.8678 33.4635 52.8678 31.8392 52.8678C31.3194 52.8678 30.8646 52.8678 30.3448 52.8678C30.2798 52.8678 30.2148 52.8008 30.2148 52.7338C30.2148 52.6667 30.2798 52.5997 30.3448 52.5997C30.7996 52.5997 31.3194 52.5997 31.8392 52.5997C33.4635 52.5997 35.1528 52.5997 36.5822 52.6668C36.6472 52.6668 36.7121 52.7338 36.7121 52.8008C36.6472 52.8678 36.5822 52.9348 36.5172 52.9348Z" fill="#23274D"/>
<path d="M23.3359 66.2709C22.4912 66.2709 21.5166 66.2709 20.542 66.2709C19.5674 66.2709 18.5279 66.2709 17.6182 66.2709C17.5533 66.2709 17.4883 66.2038 17.4883 66.1368C17.4883 66.0698 17.5533 66.0698 17.6182 66.0028C18.5279 66.0698 19.5025 66.0028 20.542 66.0028C21.5166 66.0028 22.5562 66.0028 23.4009 66.0028C23.4658 66.0028 23.5308 66.0698 23.5308 66.1368C23.4009 66.2709 23.4008 66.2709 23.3359 66.2709Z" fill="#23274D"/>
<path d="M36.3276 66.2705C34.9632 66.2035 32.7541 66.2035 30.4151 66.2035C30.3501 66.2035 30.2852 66.1365 30.2852 66.0694C30.2852 66.0024 30.3501 65.9354 30.4151 65.9354C32.8191 65.9354 34.9632 65.9354 36.3276 66.0024C36.3926 66.0024 36.4576 66.0694 36.4576 66.1365C36.3926 66.2035 36.3276 66.2705 36.3276 66.2705Z" fill="#23274D"/>
<path d="M20.6677 79.8082C19.5631 79.8082 18.4586 79.8082 17.419 79.7412C17.354 79.7412 17.2891 79.6742 17.2891 79.6072C17.2891 79.5402 17.354 79.5402 17.419 79.4731C18.9134 79.5402 20.4727 79.5402 21.9671 79.5402C22.4219 79.5402 22.8118 79.5402 23.2666 79.5402C23.3316 79.5402 23.3965 79.6072 23.3965 79.6742C23.3965 79.7412 23.3316 79.8082 23.2666 79.8082C22.8118 79.8082 22.4219 79.8082 21.9671 79.8082C21.5123 79.8082 21.0575 79.8082 20.6677 79.8082Z" fill="#23274D"/>
<path d="M30.3448 79.741C30.2798 79.741 30.2148 79.6739 30.2148 79.6069C30.2148 79.5399 30.2798 79.4729 30.3448 79.4729C32.294 79.4059 34.3081 79.4059 36.3223 79.4059C36.3873 79.4059 36.4522 79.4729 36.4522 79.5399C36.4522 79.6069 36.3873 79.6739 36.3223 79.6739C34.3081 79.6739 32.294 79.6739 30.3448 79.741Z" fill="#23274D"/>
<path d="M13.5128 46.9703C13.4478 46.9703 13.3828 46.9033 13.3828 46.8362V42.3462C13.3828 42.2792 13.4478 42.2122 13.5128 42.2122C13.5777 42.2122 13.6427 42.2792 13.6427 42.3462V46.8362C13.6427 46.9033 13.5777 46.9703 13.5128 46.9703Z" fill="#23274D"/>
<path d="M15.0778 44.4237C15.0128 44.4237 14.9478 44.3567 14.9478 44.2896L14.8828 42.3462C14.8828 42.2792 14.9478 42.2122 15.0128 42.2122C15.0777 42.2122 15.1427 42.2792 15.1427 42.3462L15.2077 44.2226C15.1427 44.3567 15.1427 44.4237 15.0778 44.4237Z" fill="#23274D"/>
<path d="M40.8643 48.1095C40.7993 48.1095 40.7344 48.0425 40.7344 47.9755C40.8643 46.1661 40.9293 44.3567 40.9293 42.5472C40.9293 42.4802 40.9943 42.4132 41.0592 42.4132C41.1242 42.4132 41.1892 42.4802 41.1892 42.5472C41.1892 44.3567 41.1242 46.1661 40.9942 47.9755C40.9942 48.0425 40.9293 48.1095 40.8643 48.1095Z" fill="#23274D"/>
<path d="M39.5035 44.893C39.4385 44.893 39.3736 44.826 39.3736 44.759L39.3086 42.8826C39.3086 42.8155 39.3736 42.7485 39.4385 42.7485C39.5035 42.7485 39.5685 42.8155 39.5685 42.8826L39.6335 44.759C39.6335 44.826 39.5685 44.893 39.5035 44.893Z" fill="#23274D"/>
<path d="M16.8888 43.6195C16.8238 43.6195 16.7589 43.5525 16.7589 43.5525L16.6289 42.4132C16.6289 42.3462 16.6939 42.2792 16.6939 42.2792C16.7589 42.2792 16.8238 42.3462 16.8238 42.3462L16.9538 43.4855C17.0187 43.5525 16.9538 43.6195 16.8888 43.6195Z" fill="#23274D"/>
<g opacity="0.1294">
<path d="M42.171 40.9392C41.9111 40.9392 41.7162 40.9392 41.4563 40.9392C40.6116 40.9392 39.702 40.9392 38.8574 40.8722C36.7133 40.7382 32.0352 40.6041 28.9815 40.7382C26.6424 40.6041 24.3034 40.6041 21.9644 40.5371C20.0802 40.5371 18.1959 40.6041 16.3117 40.6041C14.9473 40.6041 13.5828 40.6041 12.2834 40.7382C11.1139 40.7382 11.1139 42.6816 12.2834 42.7486C14.0377 42.4806 15.792 42.5476 17.5462 42.5476C20.47 42.5476 23.3288 42.5476 26.2526 42.6146C29.3063 42.7486 32.3601 42.7486 35.4138 42.7486C36.2585 42.7486 37.1031 42.8827 37.9477 42.8156C38.9873 42.8156 38.8574 42.8156 39.767 42.8156C40.5467 42.8827 41.3264 42.8827 42.0411 42.8156C41.9761 42.8156 41.9111 42.8156 41.8461 42.8827C42.4309 42.9497 43.0157 42.6816 43.0157 41.9444C43.0157 41.4083 42.6258 40.9392 42.171 40.9392Z" fill="#23274D"/>
</g>
<path d="M45.4788 88.931C44.12 90.1414 43.2553 89.8866 41.7112 88.8673C40.1672 87.848 39.426 85.8095 40.1054 84.1532C36.7702 84.9177 33.435 82.1147 32.5703 78.9931C31.9527 76.7635 32.6939 73.8331 35.1026 73.3235C33.0644 71.6035 32.6321 68.3545 34.2379 66.2523C35.8438 64.15 39.1789 63.513 41.5877 64.7871C41.2171 62.0478 42.3906 59.2448 44.6141 57.5248C45.417 56.8878 46.4052 56.3781 47.4551 56.3144C49.6168 56.2507 51.4697 58.1618 51.9021 60.2004C52.3344 62.2389 51.7785 64.2775 51.1609 66.316C52.5814 65.1693 55.1137 65.679 56.1019 67.2079C57.0901 68.7368 56.6578 70.9027 55.2373 72.1131C57.4607 73.3235 58.8195 75.7442 58.696 78.1013C58.5724 80.4584 56.9666 82.688 54.6196 83.6436C54.002 83.8984 53.1991 84.1532 53.0138 84.7902C52.8903 85.1725 53.5079 87.9755 49.8022 89.8866C48.6287 90.5236 47.0228 90.014 45.4788 88.931Z" fill="white"/>
<path d="M48.6859 90.5237C47.5742 90.5237 46.4007 89.9503 45.4743 89.377C44.1155 90.5237 43.1273 90.2051 41.5215 89.1859C39.9774 88.2303 39.2362 86.3192 39.6068 84.5992C39.3598 84.5992 39.1745 84.6629 38.9274 84.6629C35.8393 84.6629 32.9982 81.9873 32.257 79.1206C31.8247 77.6554 32.01 75.9354 32.7511 74.725C33.1835 74.0242 33.7393 73.4509 34.4805 73.1961C32.6894 71.285 32.3806 68.1634 33.9864 66.1249C35.5305 64.0864 38.7421 63.3219 41.2126 64.3412C41.0273 61.7293 42.2626 58.99 44.3625 57.3337C45.3507 56.5693 46.4007 56.1233 47.3889 56.0596C49.7977 55.9959 51.7123 58.0982 52.1446 60.2004C52.577 62.0478 52.1447 63.959 51.6506 65.679C52.2682 65.4242 52.9476 65.3605 53.6887 65.4242C54.8004 65.6153 55.7886 66.1886 56.3445 67.0168C57.3327 68.5457 57.0857 70.6479 55.7269 71.9857C57.8268 73.3235 59.1238 75.6806 59.0003 78.1013C58.8768 80.5858 57.1474 82.9428 54.7387 83.9621L54.5534 84.0258C53.9975 84.2169 53.4416 84.4717 53.3181 84.9177C53.3181 84.9177 53.3181 85.0451 53.3181 85.1088C53.3181 86.0007 53.3181 88.4851 49.983 90.1414C49.5506 90.3963 49.1182 90.5237 48.6859 90.5237ZM45.4743 88.6125C45.536 88.6125 45.5978 88.6125 45.6596 88.6762C47.3272 89.7592 48.7477 90.1414 49.7359 89.6318C52.7623 88.1029 52.7623 85.937 52.7623 85.1088C52.7623 84.9177 52.7623 84.7903 52.824 84.7266C53.0711 84.0258 53.7505 83.7073 54.4299 83.4525L54.6152 83.3888C56.8386 82.4969 58.3827 80.331 58.5062 78.1013C58.6297 75.808 57.2709 73.5146 55.171 72.3679C55.1092 72.3042 55.0475 72.2405 54.9857 72.1131C54.9857 71.9857 55.0475 71.922 55.1092 71.8583C56.468 70.7116 56.8386 68.7368 55.9122 67.399C55.4798 66.6982 54.6152 66.1886 53.6887 66.0612C52.824 65.9338 51.9594 66.1249 51.4035 66.5708C51.28 66.6346 51.1565 66.6346 51.0329 66.5708C50.9094 66.5071 50.8476 66.3797 50.9094 66.2523C51.4653 64.4049 52.0829 62.3027 51.6506 60.3278C51.28 58.4804 49.6741 56.6967 47.636 56.6967C47.5742 56.6967 47.5742 56.6967 47.5124 56.6967C46.6478 56.7604 45.7213 57.0789 44.7949 57.8434C42.6949 59.4997 41.5214 62.2389 41.892 64.8508C41.892 64.9782 41.8303 65.1056 41.7685 65.1693C41.645 65.233 41.5832 65.233 41.4597 65.1693C39.1745 63.959 36.0246 64.5323 34.4805 66.5071C32.9982 68.482 33.3688 71.4761 35.2834 73.1324C35.3452 73.1961 35.4069 73.3235 35.4069 73.4509C35.4069 73.5783 35.2834 73.642 35.1599 73.7057C34.357 73.8968 33.7394 74.3428 33.307 75.1072C32.6894 76.1902 32.5041 77.6554 32.8747 78.9932C33.6776 81.9236 36.8275 84.6629 40.0391 83.9621C40.1627 83.9621 40.2862 83.9621 40.3479 84.0895C40.4097 84.1532 40.4097 84.2806 40.4097 84.408C39.7921 85.937 40.4715 87.7844 41.892 88.7399C43.4361 89.7592 44.1155 89.8866 45.289 88.8036C45.3507 88.6762 45.4125 88.6125 45.4743 88.6125Z" fill="#23274D"/>
<path d="M45.4164 98.9326C45.2311 98.9326 45.1076 98.8052 45.1076 98.6141C44.9223 87.9755 44.737 76.9546 46.034 66.1886C46.034 65.9975 46.2193 65.8701 46.3428 65.9338C46.5281 65.9338 46.6517 66.1249 46.5899 66.2523C45.2929 76.9547 45.4782 87.9755 45.6635 98.6141C45.7252 98.8052 45.6017 98.9326 45.4164 98.9326Z" fill="#23274D"/>
<path d="M45.9034 72.1768C45.8416 72.1768 45.7798 72.1768 45.7181 72.1131C45.5945 72.0494 45.5328 71.8583 45.5945 71.6672C46.2739 70.5842 47.0151 69.5649 47.8798 68.6731C48.0033 68.5457 48.1886 68.5457 48.3121 68.6731C48.4356 68.8005 48.4356 68.9916 48.3121 69.119C47.4474 70.0109 46.7063 70.9664 46.0887 72.0494C46.0887 72.1131 45.9651 72.1768 45.9034 72.1768Z" fill="#23274D"/>
<path d="M45.3544 81.4777C45.2309 81.4777 45.1074 81.414 45.0456 81.2866C43.6868 77.8466 42.328 74.6614 39.7958 71.8584C39.6722 71.731 39.6722 71.5399 39.7958 71.4125C39.9193 71.285 40.1046 71.285 40.2281 71.4125C42.8839 74.3428 44.1809 77.5918 45.6014 81.0318C45.6632 81.1592 45.6014 81.3503 45.4162 81.414C45.4162 81.4777 45.3544 81.4777 45.3544 81.4777Z" fill="#23274D"/>
<path d="M42.9415 76.1902C42.8798 76.1902 42.818 76.1902 42.818 76.1265C41.7063 75.4894 40.471 75.0435 39.2358 74.9161C39.0505 74.9161 38.927 74.725 38.9887 74.5976C38.9887 74.4064 39.174 74.279 39.2975 74.3427C40.6563 74.4702 41.9533 74.9798 43.1268 75.6805C43.2503 75.7442 43.3121 75.9353 43.2503 76.1265C43.1268 76.1265 43.065 76.1902 42.9415 76.1902Z" fill="#23274D"/>
<path d="M45.4698 86.3194C45.408 86.3194 45.408 86.3194 45.3462 86.3194C45.2227 86.2557 45.0992 86.0646 45.161 85.9372C46.705 82.2423 49.052 78.9297 51.9549 76.2541C52.0784 76.1267 52.2636 76.1267 52.3872 76.2541C52.5107 76.3815 52.5107 76.5726 52.3872 76.7C49.5461 79.3119 47.2609 82.5609 45.7786 86.1283C45.7168 86.192 45.5933 86.3194 45.4698 86.3194Z" fill="#23274D"/>
<path d="M35.4698 71.0941C35.408 71.0941 35.408 71.0941 35.408 71.0304C34.7286 69.9474 34.7286 68.4822 35.408 67.3993C35.408 67.3356 35.4698 67.3356 35.5315 67.3356C35.5933 67.3356 35.5933 67.3993 35.5933 67.463C34.9757 68.4822 34.9757 69.8837 35.5933 70.903C35.5933 71.0304 35.5315 71.0941 35.4698 71.0941Z" fill="#23274D"/>
<path d="M36.698 70.7753C36.6362 70.7753 36.6362 70.7752 36.5744 70.7115C36.3892 70.1382 36.2656 69.5012 36.2656 68.9278C36.2656 68.8641 36.3274 68.8004 36.3892 68.8004C36.4509 68.8004 36.5127 68.8641 36.5127 68.9278C36.5127 69.5012 36.6362 70.1382 36.8215 70.7115C36.8215 70.6478 36.8215 70.7115 36.698 70.7753C36.7597 70.7753 36.7597 70.7753 36.698 70.7753Z" fill="#23274D"/>
<path d="M53.8079 70.9026C53.7461 70.9026 53.7461 70.9026 53.7461 70.8389C53.7461 70.7752 53.7461 70.7115 53.8079 70.7115C54.1167 70.5841 54.4255 70.2019 54.549 69.756C54.6725 69.31 54.7343 68.8641 54.7343 68.4182C54.7343 68.3545 54.7961 68.2908 54.8578 68.2908C54.9196 68.2908 54.9813 68.3545 54.9813 68.4182C54.9813 68.8641 54.9196 69.31 54.7961 69.756C54.549 70.3293 54.1785 70.7115 53.8079 70.9026Z" fill="#23274D"/>
<g opacity="0.1294">
<path d="M53.0045 84.4716C52.7574 84.0257 52.1398 84.1531 52.0163 84.599C51.8928 85.4272 51.7692 85.9368 51.5222 86.4465C50.9663 87.3383 50.534 87.9754 50.1017 88.2302C49.6693 88.485 49.9163 88.3576 49.4222 88.485C49.3605 88.485 49.3605 88.485 49.2987 88.485C48.7428 88.5487 48.187 88.6124 47.6311 88.5487C47.5694 88.5487 47.5694 88.5487 47.5076 88.5487C47.137 88.485 46.7665 88.4213 46.3959 88.2302C46.3959 88.2302 46.3959 88.2302 46.3341 88.2302C46.0871 88.1028 45.84 87.9116 45.5312 87.8479C45.0989 87.7842 44.4812 87.8479 44.2959 88.2939C44.2342 88.2302 44.1724 88.2302 44.1107 88.1665C43.6166 87.9116 43.8636 88.1665 43.3078 87.9116C42.5666 87.5294 42.3195 87.3383 41.8872 87.0198C41.146 86.2553 41.0225 85.8731 40.9607 85.1724C40.899 84.7264 41.0225 84.2805 40.899 83.8346C40.7137 83.3249 40.1578 83.1975 39.7873 83.4523C39.6637 83.3249 39.5402 83.1975 39.3549 83.1338C39.3549 83.1338 39.3549 83.1338 39.2932 83.1338C38.8608 83.0701 38.4285 83.1338 37.9961 83.0701C37.6256 83.0701 36.9462 82.9427 36.6373 82.7516C35.8344 82.3057 35.2786 81.8597 35.2168 81.7323C34.7845 81.3501 34.3521 81.0316 33.9816 80.5219C33.7963 80.2671 33.5492 79.9486 33.2404 79.9486C32.7463 79.9486 32.4993 80.5857 32.8698 80.9042C33.1786 81.2227 33.1786 81.2864 33.5492 81.796C33.858 82.1783 34.2286 82.5605 34.5374 82.879C35.0933 83.3249 35.6491 83.8346 36.3285 84.1531C36.7609 84.4079 37.3168 84.4716 37.8109 84.5353C38.0579 84.599 38.305 84.5353 38.552 84.599C38.8608 84.6627 39.1696 84.6627 39.4167 84.599C39.4167 86.3827 39.9725 87.6568 41.5166 88.7398C42.1342 89.1857 43.6783 90.1413 44.2959 89.4405C44.4195 89.3131 44.4812 89.1857 44.4812 89.0583C44.6665 89.1857 44.9136 89.3131 45.1606 89.1857C45.2224 89.1857 45.2224 89.122 45.2841 89.122C45.4077 89.1857 45.7165 89.3768 45.84 89.4405C46.8282 89.9502 47.9399 90.0139 48.9281 89.7591C49.6693 89.6317 50.3487 89.5043 50.9046 88.9946C51.2751 88.6761 51.5222 88.2939 51.831 87.9116C52.2016 87.402 52.5104 86.765 52.6957 86.1279C52.8192 85.8094 52.8192 85.4272 52.881 85.1087C53.0663 84.9813 53.128 84.7264 53.0045 84.4716Z" fill="#23274D"/>
</g>
<path d="M11.2527 1.26474C20.2454 0.837581 29.2974 0.77656 38.231 1.20372C38.8226 11.8217 39.1184 22.5617 37.1069 32.9966C36.8111 34.5832 36.3969 36.2308 35.5095 37.5733C34.0304 39.8311 31.2497 40.9296 28.5874 40.0752C21.6653 39.9532 15.9857 39.2209 8.94531 38.8548C12.2584 26.4671 11.016 13.9575 11.2527 1.26474Z" fill="white"/>
<path d="M30.3618 40.6245C29.7702 40.6245 29.1194 40.5635 28.5278 40.3804C24.3272 40.3194 20.6591 40.0143 16.7543 39.7092C14.2695 39.5261 11.6663 39.282 8.88566 39.16C8.8265 39.16 8.70816 39.0989 8.64899 39.0379C8.58983 38.9769 8.58984 38.8548 8.58984 38.7938C11.1338 29.5184 11.0155 20.3649 10.8972 10.6623C10.838 7.61117 10.838 4.37696 10.8972 1.2648C10.8972 1.08173 11.0155 0.959687 11.193 0.959687C20.3041 0.532528 29.356 0.471506 38.1713 0.898665C38.3488 0.898665 38.4671 1.02071 38.4671 1.20378C39.0588 11.4556 39.4137 22.3787 37.343 33.0577C37.0472 34.5832 36.6331 36.3529 35.7456 37.7564C34.5032 39.5871 32.4325 40.6245 30.3618 40.6245ZM9.29981 38.5497C11.9621 38.6718 14.447 38.9159 16.8135 39.0989C20.7182 39.404 24.3863 39.7092 28.5869 39.7702H28.6461C31.1309 40.5635 33.7933 39.5261 35.2132 37.3903C36.1006 36.0478 36.4556 34.4002 36.7514 32.8746C38.8221 22.3787 38.4671 11.5777 37.8755 1.44787C29.2377 1.08173 20.3632 1.08173 11.4888 1.50889C11.4296 4.56003 11.4888 7.61117 11.4888 10.6013C11.6071 19.8157 11.7255 29.3353 9.29981 38.5497Z" fill="#23274D"/>
<path d="M0.893729 32.0201C9.59068 31.837 18.2876 31.898 26.8662 32.0811C26.5704 34.461 27.0437 36.9629 28.1678 39.0377C28.5228 39.709 29.0553 40.3802 29.7061 40.3192C21.6008 40.2582 13.6137 41.0515 5.3901 40.3192C3.85186 40.0751 1.84034 39.4038 1.01206 37.085C0.420433 35.5594 0.242937 33.7287 0.893729 32.0201Z" fill="white"/>
<path d="M13.1447 40.9295C10.6007 40.9295 7.9975 40.8685 5.39433 40.6244C3.02781 40.3193 1.43042 39.0988 0.779631 37.2071C0.306328 35.8646 -0.10782 33.8509 0.661298 31.8981C0.720461 31.7761 0.779638 31.7151 0.897964 31.7151C8.35249 31.593 16.3986 31.593 26.8705 31.7761C26.9296 31.7761 27.048 31.8371 27.1071 31.8981C27.1663 31.9592 27.1663 32.0202 27.1663 32.1422C26.8705 34.4611 27.2846 36.902 28.4087 38.9158C28.6454 39.3429 29.0595 40.0142 29.592 40.0752C29.6511 40.0752 29.6512 40.0752 29.7103 40.0752C29.8878 40.0752 30.0061 40.1972 30.0061 40.3803C30.0061 40.5634 29.8878 40.6854 29.7103 40.6854C29.6512 40.6854 29.592 40.6854 29.5328 40.6854C26.5747 40.6854 23.6757 40.7464 20.7767 40.8075C18.2919 40.8685 15.6887 40.9295 13.1447 40.9295ZM1.13459 32.3253C0.483802 34.0339 0.897971 35.8036 1.31211 37.024C2.08123 39.1598 3.97444 39.8311 5.45352 40.0752C10.6007 40.5023 15.807 40.3803 20.7767 40.1972C23.3207 40.1362 25.8647 40.0752 28.4679 40.0142C28.2312 39.7701 28.0537 39.465 27.8762 39.1598C26.7521 37.0851 26.2789 34.7052 26.5155 32.3253C16.3395 32.2032 8.4708 32.2032 1.13459 32.3253Z" fill="#23274D"/>
<path d="M33.6763 8.83128C28.8841 8.70924 24.0919 8.64821 19.2997 8.77026C19.1222 8.77026 19.0039 8.64821 19.0039 8.46514C19.0039 8.28208 19.1222 8.16003 19.2997 8.16003C24.0919 8.03799 28.8841 8.09901 33.6763 8.22105C33.8538 8.22105 33.9721 8.3431 33.9721 8.52617C33.9721 8.70924 33.7946 8.83128 33.6763 8.83128Z" fill="#23274D"/>
<path d="M33.2594 14.5066L22.4325 14.3845C22.255 14.3845 22.1367 14.2625 22.1367 14.0794C22.1367 13.8963 22.255 13.7743 22.4325 13.7743L33.2594 13.8963C33.4369 13.8963 33.5552 14.0184 33.5552 14.2014C33.5552 14.3845 33.4369 14.5066 33.2594 14.5066Z" fill="#23274D"/>
<path d="M19.0068 20.3647C18.8293 20.3647 18.7109 20.2427 18.7109 20.0596C18.7109 19.8765 18.8293 19.7545 19.0068 19.7545C23.6806 19.5714 28.3545 19.5104 33.0284 19.5104C33.2059 19.5104 33.3242 19.6324 33.3242 19.8155C33.3242 19.9986 33.2059 20.1206 33.0284 20.1206C28.4137 20.1206 23.6806 20.1816 19.0068 20.3647Z" fill="#23274D"/>
<path d="M18.8896 25.6738C18.7121 25.6738 18.5938 25.5517 18.5938 25.3687C18.5938 25.1856 18.7121 25.0636 18.8896 25.0636L33.0887 24.8195C33.2662 24.8195 33.3845 24.9415 33.3845 25.1246C33.3845 25.3076 33.2662 25.4297 33.0887 25.4297L18.8896 25.6738Z" fill="#23274D"/>
<path d="M10.3561 15.9717L10.2969 27.0778H11.9535V15.9717H10.3561Z" fill="white"/>
<path d="M11.9557 27.3825H10.2991C10.24 27.3825 10.1216 27.3215 10.1216 27.3215C10.0625 27.2605 10.0625 27.1995 10.0625 27.1384V16.0323C10.0625 15.9713 10.1216 15.8492 10.1216 15.8492C10.1808 15.7882 10.24 15.7882 10.2991 15.7882H11.9557C12.1332 15.7882 12.2515 15.9103 12.2515 16.0933V27.1995C12.2515 27.2605 12.1332 27.3825 11.9557 27.3825ZM10.5949 26.7723H11.6599V16.2764H10.5949V26.7723Z" fill="#23274D"/>
<path d="M3.67578 11.9437C3.67578 11.3945 3.79409 10.8453 4.20823 10.6012C4.62237 10.3571 5.09566 10.3571 5.56897 10.2961C9.35539 10.2351 13.1418 10.1741 16.9283 10.113C17.4607 10.113 17.934 10.2351 18.1707 10.7233C18.4665 11.4555 18.3482 12.615 18.3482 13.5303C18.3482 15.483 18.4665 15.1779 18.4665 17.1917C18.4665 17.6188 18.4665 18.046 18.289 18.4121C18.1115 18.7783 17.1649 18.9003 16.8099 18.8393C12.9643 18.5952 9.35539 18.9003 5.27315 18.9003C4.85901 18.8393 4.44488 18.7173 4.20823 18.3511C3.91241 17.924 3.85326 17.3747 3.85326 16.8255C3.67577 14.4457 3.67578 14.5677 3.67578 11.9437Z" fill="#B8D4F7"/>
<path d="M5.21685 19.2054C5.15769 19.2054 5.15769 19.2054 5.21685 19.2054C4.62522 19.1444 4.15191 18.9003 3.91526 18.5952C3.56028 18.107 3.50111 17.4967 3.50111 16.8865L3.44196 15.8491C3.3828 14.4456 3.38281 14.1405 3.38281 11.9437C3.38281 11.2114 3.61944 10.6012 4.09274 10.3571C4.56604 10.052 5.15769 10.052 5.631 10.052L16.9903 9.8689C17.9369 9.8689 18.351 10.2961 18.4694 10.6622C18.706 11.2724 18.706 12.1267 18.6468 12.9811C18.6468 13.2251 18.6468 13.4082 18.6468 13.5913C18.6468 14.5676 18.6468 14.9948 18.706 15.3609C18.7652 15.7881 18.7652 16.2153 18.7652 17.1916C18.7652 17.6188 18.7651 18.107 18.5877 18.5341C18.2918 19.1444 17.1086 19.1444 16.8128 19.1444C14.2688 19.0223 11.8431 19.0833 9.23992 19.1444C7.87917 19.1444 6.51843 19.2054 5.21685 19.2054ZM16.9903 10.4181C16.9311 10.4181 16.9311 10.4181 16.9903 10.4181L5.631 10.6012C5.21686 10.6012 4.74353 10.6012 4.38855 10.8453C4.03358 11.0894 3.97444 11.6386 3.97444 11.9437C3.97444 14.0795 3.97443 14.3846 4.03359 15.7881L4.09274 16.8255C4.09274 17.3137 4.1519 17.8629 4.38855 18.168C4.56604 18.4121 4.86186 18.5341 5.276 18.5952C6.63674 18.5952 7.93835 18.5341 9.18077 18.5341C11.7839 18.4731 14.2688 18.4121 16.8128 18.5341C17.2861 18.5341 17.9369 18.4121 18.0552 18.229C18.1735 17.9239 18.1735 17.4967 18.1735 17.1306C18.1735 16.1542 18.1735 15.7271 18.1144 15.3609C18.0552 14.9338 18.0552 14.5066 18.0552 13.5303C18.0552 13.3472 18.0552 13.1031 18.0552 12.859C18.0552 12.1267 18.1144 11.3334 17.8777 10.7842C17.7594 10.5401 17.4636 10.4181 16.9903 10.4181Z" fill="#23274D"/>
<path d="M4.62615 12.3097C4.56698 12.3097 4.50781 12.2487 4.50781 12.1876C4.50781 12.0046 4.56698 11.8215 4.62615 11.6384C4.62615 11.5774 4.74448 11.5774 4.74448 11.6384C4.80365 11.6384 4.80365 11.7605 4.74448 11.7605C4.68532 11.8825 4.62615 12.0046 4.62615 12.1876C4.68531 12.2487 4.68531 12.3097 4.62615 12.3097Z" fill="#23274D"/>
<path d="M4.98243 11.6386H4.92328C4.86412 11.5775 4.86412 11.5165 4.92328 11.5165C5.0416 11.3945 5.2191 11.3335 5.33743 11.2724C5.57408 11.2114 5.75155 11.1504 5.9882 11.1504C6.04737 11.1504 6.10654 11.2114 6.10654 11.2114C6.10654 11.2724 6.04739 11.3335 6.04739 11.3335C5.8699 11.3335 5.63325 11.3945 5.45576 11.4555C5.33743 11.5165 5.21909 11.5775 5.10076 11.6386C5.0416 11.6386 4.98243 11.6386 4.98243 11.6386Z" fill="#23274D"/>
<path d="M17.106 17.8631C17.0469 17.8631 17.0469 17.8631 17.0469 17.802C17.0469 17.741 17.0469 17.68 17.106 17.68C17.1652 17.619 17.2244 17.558 17.2835 17.4969C17.3427 17.3749 17.3427 17.2528 17.3427 17.1918C17.4019 16.8867 17.4018 16.6426 17.4018 16.3375C17.4018 16.2765 17.461 16.2155 17.5202 16.2155C17.5793 16.2155 17.6385 16.2765 17.6385 16.3375C17.6385 16.6426 17.6385 16.9477 17.5794 17.2528C17.5794 17.3749 17.5202 17.4969 17.461 17.619C17.4019 17.68 17.2835 17.802 17.106 17.8631C17.1652 17.8631 17.1652 17.8631 17.106 17.8631Z" fill="#23274D"/>
<path d="M16.2763 17.9849C16.2171 17.9849 16.158 17.9849 16.0988 17.9849C16.0396 17.9849 15.9805 17.9239 15.9805 17.8629C15.9805 17.8019 16.0396 17.7408 16.0988 17.7408C16.2763 17.7408 16.5129 17.7408 16.6904 17.6798C16.7496 17.6798 16.8087 17.6798 16.8087 17.7408C16.8087 17.8019 16.8087 17.8629 16.7496 17.8629C16.5721 17.9239 16.4538 17.9849 16.2763 17.9849Z" fill="#23274D"/>
<path d="M10.8929 27.3823C9.828 27.3823 8.76309 27.3823 7.69816 27.3823C7.52067 27.3823 7.40234 27.2603 7.40234 27.0772C7.40234 26.8941 7.52067 26.7721 7.69816 26.7721C9.94635 26.8331 12.2537 26.8331 14.5019 26.7721C14.6794 26.7721 14.7977 26.8941 14.7977 27.0772C14.7977 27.2603 14.6794 27.3823 14.5019 27.3823C13.3186 27.3823 12.1354 27.3823 10.8929 27.3823Z" fill="#23274D"/>
<g opacity="0.1294">
<path d="M11.3693 18.7784C11.1918 18.8394 11.3102 18.8394 11.3693 18.7784C11.0735 18.8394 10.7185 18.7784 10.4227 19.0225C10.0677 19.3886 10.3044 20.1209 10.8368 20.0599C10.9552 20.0599 11.251 19.9988 11.3693 19.9988C11.606 19.9988 11.8426 19.9988 12.0201 19.8158C12.4934 19.3276 12.0201 18.5953 11.3693 18.7784Z" fill="#23274D"/>
</g>
<path d="M165.076 34.4848C170.831 34.5304 176.586 34.5761 182.385 34.6217C182.961 34.6217 183.581 34.6217 184.112 34.4392C188.318 32.9332 186.68 29.4649 186.414 28.7803C185.971 27.6395 184.466 27.2744 183.359 27.6851C182.253 28.0958 181.412 29.0542 180.659 29.9669C180.969 27.9133 179.995 25.6315 178.224 24.6275C176.453 23.6235 173.974 23.9886 172.69 25.5858C171.672 26.818 171.451 28.5522 171.274 30.1494C170.831 28.9629 170.255 27.7764 169.237 27.0462C168.219 26.316 166.714 26.1791 165.828 27.0462C164.81 28.0045 164.943 29.6474 165.12 31.0165C164.589 30.1494 163.261 30.0581 162.552 30.7427C161.844 31.4272 161.756 32.6594 162.287 33.5265C162.774 34.4392 163.748 34.4848 165.076 34.4848Z" fill="white"/>
<path d="M182.564 34.8498C182.52 34.8498 182.431 34.8498 182.387 34.8498L165.078 34.7129C163.838 34.7129 162.643 34.7129 162.067 33.7089C161.447 32.7506 161.624 31.3815 162.377 30.6513C162.775 30.2862 163.395 30.1037 163.971 30.1493C164.281 30.195 164.546 30.2862 164.812 30.4688C164.679 29.0997 164.768 27.7763 165.653 26.9092C166.716 25.9052 168.309 26.179 169.327 26.9092C170.169 27.5481 170.744 28.4608 171.143 29.3279C171.32 28.0044 171.629 26.5897 172.515 25.4945C173.843 23.806 176.411 23.3496 178.314 24.4905C179.952 25.4489 180.97 27.3656 180.926 29.3735C181.546 28.6434 182.343 27.8675 183.317 27.5025C184.512 27.0461 186.15 27.4568 186.637 28.689L186.681 28.7803C186.903 29.3735 187.567 30.9251 186.903 32.4311C186.46 33.3895 185.575 34.1653 184.202 34.6216C183.671 34.8042 183.14 34.8498 182.564 34.8498ZM163.705 30.6057C163.307 30.6057 162.953 30.7426 162.643 31.0164C162.023 31.6097 161.89 32.7049 162.377 33.5264C162.82 34.2565 163.705 34.3022 165.033 34.3478L182.343 34.4847C182.918 34.4847 183.494 34.4847 184.025 34.3022C185.265 33.8458 186.106 33.2069 186.46 32.3398C187.035 31.062 186.416 29.6017 186.194 29.0541L186.15 28.9628C185.752 27.9588 184.379 27.6394 183.361 28.0045C182.254 28.4152 181.457 29.3735 180.749 30.2406C180.705 30.3319 180.572 30.3319 180.484 30.2862C180.395 30.2406 180.351 30.1493 180.351 30.0581C180.616 28.0501 179.642 25.9052 178.004 24.9469C176.278 23.9429 173.932 24.3536 172.736 25.8596C171.718 27.0917 171.541 28.8715 171.364 30.3319C171.364 30.4231 171.275 30.5144 171.187 30.5144C171.098 30.5144 171.01 30.4688 170.965 30.3775C170.611 29.4648 170.036 28.1414 169.018 27.3655C168.132 26.7266 166.716 26.5441 165.874 27.3655C164.989 28.2326 165.033 29.693 165.255 31.1533C165.255 31.2446 165.21 31.3359 165.122 31.3815C165.033 31.4271 164.9 31.3815 164.856 31.2902C164.635 30.9708 164.281 30.7426 163.882 30.697C163.838 30.6057 163.794 30.6057 163.705 30.6057Z" fill="#D1D6DD"/>
<path d="M108.256 46.0834C114.011 46.1291 119.766 46.1747 125.565 46.2203C126.141 46.2203 126.76 46.2203 127.292 46.0378C131.497 44.5318 129.859 41.0635 129.594 40.379C129.151 39.2381 127.646 38.873 126.539 39.2837C125.432 39.6944 124.591 40.6528 123.839 41.5655C124.149 39.5119 123.175 37.2301 121.404 36.2261C119.633 35.2221 117.154 35.5872 115.87 37.1845C114.852 38.4166 114.63 40.1508 114.453 41.748C114.011 40.5615 113.435 39.375 112.417 38.6448C111.399 37.9146 109.894 37.7777 109.008 38.6448C107.99 39.6032 108.123 41.2461 108.3 42.6151C107.769 41.748 106.44 41.6568 105.732 42.3413C105.024 43.0258 104.935 44.258 105.467 45.1251C105.953 46.0378 106.927 46.0834 108.256 46.0834Z" fill="white"/>
<path d="M125.744 46.4486C125.7 46.4486 125.611 46.4486 125.567 46.4486L108.257 46.3117C107.018 46.3117 105.822 46.3116 105.247 45.3077C104.627 44.3493 104.804 42.9802 105.557 42.2501C105.955 41.885 106.575 41.7024 107.15 41.7481C107.46 41.7937 107.726 41.885 107.992 42.0675C107.859 40.6985 107.947 39.375 108.833 38.5079C109.895 37.504 111.489 37.7778 112.507 38.5079C113.348 39.1468 113.924 40.0596 114.322 40.9266C114.499 39.6032 114.809 38.1885 115.695 37.0932C117.023 35.4047 119.59 34.9484 121.494 36.0893C123.132 37.0476 124.15 38.9643 124.106 40.9723C124.726 40.2421 125.523 39.4663 126.496 39.1012C127.692 38.6449 129.33 39.0556 129.817 40.2877L129.861 40.379C130.082 40.9723 130.746 42.5239 130.082 44.0299C129.64 44.9882 128.754 45.764 127.382 46.2204C126.851 46.4029 126.319 46.4486 125.744 46.4486ZM106.885 42.2044C106.486 42.2044 106.132 42.3413 105.822 42.6152C105.203 43.2084 105.07 44.3037 105.557 45.1251C105.999 45.8553 106.885 45.9009 108.213 45.9466L125.523 46.0835C126.098 46.0835 126.674 46.0835 127.205 45.9009C128.444 45.4446 129.286 44.8057 129.64 43.9386C130.215 42.6608 129.595 41.2005 129.374 40.6528L129.33 40.5616C128.931 39.5576 127.559 39.2381 126.541 39.6032C125.434 40.0139 124.637 40.9723 123.929 41.8394C123.885 41.9306 123.752 41.9306 123.663 41.885C123.575 41.8394 123.53 41.7481 123.53 41.6568C123.796 39.6488 122.822 37.504 121.184 36.5456C119.458 35.5416 117.111 35.9524 115.916 37.4583C114.898 38.6905 114.721 40.4703 114.544 41.9306C114.544 42.0219 114.455 42.1132 114.366 42.1132C114.278 42.1132 114.189 42.0675 114.145 41.9763C113.791 41.0635 113.215 39.7401 112.197 38.9643C111.312 38.3254 109.895 38.1429 109.054 38.9643C108.169 39.8314 108.213 41.2917 108.434 42.7521C108.434 42.8433 108.39 42.9346 108.301 42.9802C108.213 43.0259 108.08 42.9802 108.036 42.889C107.815 42.5695 107.46 42.3413 107.062 42.2957C107.018 42.2044 106.973 42.2044 106.885 42.2044Z" fill="#D1D6DD"/>
<g opacity="0.1294">
<path d="M185.882 32.5682C185.705 32.5682 185.572 32.7051 185.439 32.7507C185.262 32.8876 185.041 32.9789 184.819 33.0702H184.775C183.757 33.4809 182.429 33.344 180.791 33.2984C178.223 33.1615 175.567 32.9333 172.999 33.0702C171.273 33.2071 169.546 33.2071 167.819 33.1615C166.536 33.2071 165.208 33.2984 163.924 33.2071C163.304 33.1158 163.348 33.1615 163.083 32.9333C162.905 32.7507 162.95 32.7964 162.905 32.7051C162.861 32.6138 162.728 32.5226 162.596 32.4769C162.197 32.34 161.843 32.842 162.064 33.2071C162.241 33.5265 162.463 33.8004 162.773 33.9829C163.038 34.1654 163.348 34.2111 163.702 34.2567C164.942 34.5762 166.137 34.5305 167.687 34.4393C169.015 34.4393 170.343 34.4393 171.671 34.348C171.715 34.4393 171.848 34.4849 171.981 34.4849C172.601 34.5762 173.22 34.5305 173.84 34.5305C174.947 34.5305 176.054 34.4393 177.205 34.4849C178.311 34.4393 179.418 34.6674 180.525 34.6218C180.702 34.6218 180.879 34.4849 180.923 34.3023C181.897 34.3023 182.827 34.4393 183.801 34.3023C184.509 34.2111 185.173 33.9829 185.793 33.6635C186.014 33.5265 186.28 33.4353 186.324 33.1615C186.413 32.8876 186.192 32.5682 185.882 32.5682Z" fill="#D1D6DD"/>
</g>
</svg>