<svg width="334" height="188" viewBox="0 0 334 188" fill="none" xmlns="http://www.w3.org/2000/svg">
<path d="M31.9761 177.456C60.2191 176.982 88.4621 177.1 116.586 177.693C116.586 157.413 116.942 137.132 117.299 117.089C108.517 116.258 99.6169 116.14 91.0728 117.089C90.8355 107.601 90.8355 98.2312 91.3102 88.6246C81.342 88.9804 71.3739 88.9804 61.7618 88.2688C61.1684 81.9829 61.0498 75.5785 61.6431 69.4113C52.031 68.5811 42.3002 68.5811 32.4507 68.5811C31.8574 105.11 31.8574 141.639 31.9761 177.456Z" fill="white"/>
<path d="M116.587 178.286C85.6145 177.693 57.9648 177.575 31.9765 178.049C31.8578 178.049 31.6205 178.049 31.5018 177.93C31.3831 177.812 31.3831 177.693 31.3831 177.575C31.1458 137.606 31.3831 102.026 31.8578 68.6996C31.8578 68.3438 32.0952 68.1066 32.4512 68.1066C42.3006 68.1066 52.0314 68.1066 61.6435 68.9368C61.7622 68.9368 61.9995 69.0554 61.9995 69.174C62.1182 69.2926 62.1182 69.4112 62.1182 69.6484C61.5249 74.9854 61.5249 80.9154 62.1182 87.9129C70.425 88.5059 79.9184 88.6244 91.0732 88.2686C91.1919 88.2686 91.4292 88.2687 91.5479 88.3873C91.6666 88.5059 91.6666 88.6244 91.6666 88.8616C91.3106 97.4009 91.1919 106.296 91.4292 116.733C99.38 115.903 108.043 115.903 117.18 116.733C117.536 116.733 117.655 116.97 117.655 117.326C117.536 122.188 117.536 127.051 117.418 131.914C117.18 146.976 116.943 162.512 116.943 177.93C116.943 178.049 116.824 178.286 116.824 178.286C116.943 178.168 116.824 178.286 116.587 178.286ZM67.5769 176.626C82.8851 176.626 99.024 176.744 116.112 177.1C116.112 161.919 116.35 146.501 116.587 131.676C116.706 127.051 116.706 122.307 116.824 117.682C107.687 116.851 99.1427 116.851 91.1919 117.8C91.0732 117.8 90.8359 117.8 90.7172 117.682C90.5986 117.563 90.4799 117.444 90.4799 117.207C90.2426 106.77 90.2426 97.8753 90.5986 89.3361C79.4438 89.6919 69.9503 89.5733 61.6435 88.8616C61.4062 88.8616 61.1689 88.3873 61.1689 88.3873C60.5755 81.5084 60.5755 75.4598 61.0502 70.0042C51.7941 69.2926 42.538 69.2926 33.1632 69.2926C32.5698 102.263 32.4512 137.488 32.6885 176.982C43.8433 176.626 55.4728 176.626 67.5769 176.626Z" fill="#636464"/>
<path d="M57.1348 116.733C53.5747 116.733 49.4214 116.614 45.98 116.496C45.98 113.056 45.98 109.38 45.98 105.822C49.6587 105.584 53.3374 105.584 57.2535 105.822C57.2535 109.38 57.2535 112.819 57.1348 116.733Z" fill="#B8D4F7"/>
<path d="M57.1354 117.326C55.3553 117.326 53.4566 117.326 51.558 117.207C49.6593 117.207 47.7606 117.089 45.9805 117.089C45.6245 117.089 45.3872 116.851 45.3872 116.496V115.547C45.3872 112.345 45.3872 109.024 45.3872 105.822C45.3872 105.466 45.6245 105.229 45.9805 105.229C49.6593 104.991 53.338 104.991 57.254 105.229C57.61 105.229 57.8474 105.466 57.8474 105.822C57.966 109.261 57.8474 112.7 57.7287 116.733C57.61 116.97 57.3727 117.326 57.1354 117.326ZM46.4552 115.903C48.1166 115.903 49.7779 115.903 51.4393 116.021C53.1006 116.021 54.8807 116.14 56.4234 116.14C56.542 112.582 56.542 109.498 56.542 106.415C52.982 106.296 49.6593 106.296 46.4552 106.415C46.4552 109.498 46.4552 112.582 46.4552 115.665V115.903Z" fill="#636464"/>
<path d="M56.5196 90.0804C52.9595 90.0804 48.8061 89.9618 45.3647 89.8432C45.3647 86.4038 45.3647 82.7272 45.3647 79.1691C49.0435 78.9319 52.7222 78.9319 56.6382 79.1691C56.6382 82.7272 56.6382 86.1666 56.5196 90.0804Z" fill="#B8D4F7"/>
<path d="M56.5201 90.6733C54.7401 90.6733 52.8414 90.6733 50.9427 90.5547C49.044 90.5547 47.1453 90.4361 45.3653 90.4361C45.0093 90.4361 44.772 90.1989 44.772 89.8431V88.8943C44.772 85.6921 44.772 82.3713 44.772 79.1691C44.772 78.8133 45.0093 78.5761 45.3653 78.5761C49.044 78.3389 52.7227 78.3389 56.6388 78.5761C56.9948 78.5761 57.2321 78.8133 57.2321 79.1691C57.3508 82.6085 57.2321 86.0479 57.1135 90.0803C56.9948 90.3175 56.7575 90.6733 56.5201 90.6733ZM45.84 89.2501C47.5013 89.2501 49.1627 89.2501 50.8241 89.3687C52.4854 89.3687 54.2654 89.4873 55.8081 89.4873C55.9268 85.9293 55.9268 82.8457 55.9268 79.7621C52.3667 79.6435 49.044 79.6435 45.84 79.7621C45.84 82.8457 45.84 85.9293 45.84 89.0129V89.2501Z" fill="#636464"/>
<path d="M80.5113 116.733C76.9512 116.733 72.7978 116.614 69.3564 116.496C69.3564 113.056 69.3564 109.38 69.3564 105.822C73.0352 105.584 76.7139 105.584 80.6299 105.822C80.7486 109.38 80.6299 112.819 80.5113 116.733Z" fill="#B8D4F7"/>
<path d="M80.5123 117.326C78.7323 117.326 76.8336 117.326 74.9349 117.207C73.0362 117.207 71.1375 117.089 69.3575 117.089C69.0015 117.089 68.7642 116.851 68.7642 116.496V115.547C68.7642 112.345 68.7642 109.024 68.7642 105.822C68.7642 105.466 69.0015 105.229 69.3575 105.229C73.0362 104.991 76.7149 104.991 80.631 105.229C80.987 105.229 81.2243 105.466 81.2243 105.822C81.343 109.261 81.2243 112.7 81.1057 116.733C81.1057 116.97 80.8683 117.326 80.5123 117.326ZM69.9508 115.903C71.6122 115.903 73.2735 115.903 74.9349 116.021C76.5963 116.021 78.3763 116.14 79.919 116.14C80.0376 112.582 80.0376 109.498 80.0376 106.415C76.4776 106.296 73.1549 106.296 69.9508 106.415C69.9508 109.498 69.9508 112.582 69.9508 115.665V115.903Z" fill="#636464"/>
<path d="M56.7779 139.504C53.2178 139.504 49.0644 139.385 45.623 139.267C45.623 135.827 45.623 132.151 45.623 128.593C49.3018 128.356 52.9805 128.356 56.8965 128.593C57.0152 132.151 56.8965 135.709 56.7779 139.504Z" fill="#B8D4F7"/>
<path d="M56.7774 140.097C54.9974 140.097 53.0987 140.097 51.2 139.979C49.3013 139.979 47.4027 139.86 45.6226 139.86C45.2666 139.86 45.0293 139.623 45.0293 139.267V138.318C45.0293 135.116 45.0293 131.795 45.0293 128.593C45.0293 128.237 45.2666 128 45.6226 128C49.3014 127.763 52.9801 127.763 56.8961 128C57.2521 128 57.4895 128.237 57.4895 128.593C57.6081 132.032 57.4895 135.472 57.3708 139.504C57.3708 139.86 57.1335 140.097 56.7774 140.097ZM46.0973 138.793C47.7587 138.793 49.42 138.793 51.2 138.911C52.8614 138.911 54.6414 139.03 56.1841 139.03C56.3028 135.472 56.3028 132.388 56.3028 129.305C52.7427 129.186 49.42 129.186 46.216 129.305C46.216 132.388 46.216 135.472 46.216 138.555L46.0973 138.793Z" fill="#636464"/>
<path d="M80.1553 139.504C76.5953 139.504 72.4419 139.385 69.0005 139.267C69.0005 135.827 69.0005 132.151 69.0005 128.593C72.6792 128.356 76.3579 128.356 80.274 128.593C80.3926 132.151 80.3926 135.709 80.1553 139.504Z" fill="#B8D4F7"/>
<path d="M80.1554 140.097C78.3754 140.097 76.4767 140.097 74.578 139.979C72.6793 139.979 70.7806 139.86 69.0006 139.86C68.6446 139.86 68.4072 139.623 68.4072 139.267V138.318C68.4072 135.116 68.4072 131.795 68.4072 128.593C68.4072 128.237 68.6446 128 69.0006 128C72.6793 127.763 76.358 127.763 80.274 128C80.63 128 80.8674 128.237 80.8674 128.593C80.9861 132.032 80.8674 135.472 80.7487 139.504C80.7487 139.86 80.5114 140.097 80.1554 140.097ZM69.5939 138.793C71.2553 138.793 72.9166 138.793 74.6966 138.911C76.358 138.911 78.138 139.03 79.6807 139.03C79.7994 135.472 79.7994 132.388 79.7994 129.305C76.2393 129.186 72.9166 129.186 69.7126 129.305C69.7126 132.388 69.7126 135.472 69.7126 138.437L69.5939 138.793Z" fill="#636464"/>
<path d="M56.7779 162.394C53.2178 162.394 49.0644 162.275 45.623 162.157C45.623 158.717 45.623 155.041 45.623 151.483C49.3018 151.246 52.9805 151.246 56.8965 151.483C57.0152 155.041 56.8965 158.48 56.7779 162.394Z" fill="#B8D4F7"/>
<path d="M56.7774 162.987C54.9974 162.987 53.0987 162.987 51.2 162.868C49.3013 162.868 47.4027 162.75 45.6226 162.75C45.2666 162.75 45.0293 162.513 45.0293 162.157V161.208C45.0293 158.006 45.0293 154.685 45.0293 151.483C45.0293 151.127 45.2666 150.89 45.6226 150.89C49.3014 150.652 52.9801 150.652 56.8961 150.89C57.2521 150.89 57.4895 151.127 57.4895 151.483C57.6081 154.922 57.4895 158.362 57.3708 162.394C57.3708 162.75 57.1335 162.987 56.7774 162.987ZM46.0973 161.682C47.7587 161.682 49.42 161.682 51.0814 161.801C52.7427 161.801 54.5227 161.92 56.0654 161.92C56.1841 158.362 56.1841 155.278 56.1841 152.194C52.6241 152.076 49.3014 152.076 46.0973 152.194C46.0973 155.278 46.0973 158.362 46.0973 161.445V161.682Z" fill="#636464"/>
<path d="M80.1553 162.394C76.5953 162.394 72.4419 162.275 69.0005 162.157C69.0005 158.717 69.0005 155.041 69.0005 151.483C72.6792 151.246 76.3579 151.246 80.274 151.483C80.3926 155.041 80.3926 158.48 80.1553 162.394Z" fill="#B8D4F7"/>
<path d="M80.1554 162.987C78.3754 162.987 76.4767 162.987 74.578 162.868C72.6793 162.868 70.7806 162.75 69.0006 162.75C68.6446 162.75 68.4072 162.513 68.4072 162.157V161.208C68.4072 158.006 68.4072 154.685 68.4072 151.483C68.4072 151.127 68.6446 150.89 69.0006 150.89C72.6793 150.652 76.358 150.652 80.274 150.89C80.63 150.89 80.8674 151.127 80.8674 151.483C80.9861 154.922 80.8674 158.362 80.7487 162.394C80.7487 162.75 80.5114 162.987 80.1554 162.987ZM69.5939 161.682C71.2553 161.682 72.9166 161.682 74.578 161.801C76.2393 161.801 78.0194 161.92 79.562 161.92C79.6807 158.362 79.6807 155.278 79.6807 152.194C76.1207 152.076 72.7979 152.076 69.5939 152.194C69.5939 155.278 69.5939 158.362 69.5939 161.327V161.682Z" fill="#636464"/>
<path d="M56.7778 109.735L46.0977 109.617C45.979 109.617 45.8604 109.498 45.8604 109.379C45.8604 109.261 45.979 109.142 46.0977 109.142L56.7778 109.261C56.8965 109.261 57.0152 109.379 57.0152 109.498C57.0152 109.617 56.8965 109.735 56.7778 109.735Z" fill="#636464"/>
<path d="M55.6895 83.0184L45.0093 82.8998C44.8906 82.8998 44.772 82.7812 44.772 82.6626C44.772 82.544 44.8906 82.4254 45.0093 82.4254L55.6895 82.544C55.8081 82.544 55.9268 82.6626 55.9268 82.7812C55.9268 82.8998 55.8081 83.0184 55.6895 83.0184Z" fill="#636464"/>
<path d="M80.5113 109.735C77.9006 109.617 74.9339 109.617 71.9672 109.617C71.0178 109.617 70.1872 109.617 69.2378 109.617C69.1192 109.617 69.0005 109.498 69.0005 109.379C69.0005 109.261 69.1192 109.142 69.2378 109.142C70.0685 109.142 71.0178 109.142 71.9672 109.142C74.9339 109.142 78.0193 109.142 80.5113 109.261C80.63 109.261 80.7486 109.379 80.7486 109.498C80.7486 109.617 80.63 109.735 80.5113 109.735Z" fill="#636464"/>
<path d="M56.4223 132.151C54.8796 132.151 53.0996 132.151 51.3196 132.151C49.5396 132.151 47.6409 132.151 45.9795 132.151C45.8609 132.151 45.7422 132.032 45.7422 131.914C45.7422 131.795 45.8609 131.676 45.9795 131.676C47.6409 131.676 49.4209 131.676 51.3196 131.676C53.0996 131.676 54.8796 131.676 56.4223 131.676C56.541 131.676 56.6597 131.795 56.6597 131.914C56.6597 132.032 56.541 132.151 56.4223 132.151Z" fill="#636464"/>
<path d="M80.1563 132.032C77.6642 131.914 73.6295 131.914 69.3575 131.914C69.2388 131.914 69.1201 131.795 69.1201 131.676C69.1201 131.558 69.2388 131.439 69.3575 131.439C71.3748 131.439 76.5962 131.439 80.1563 131.558C80.2749 131.558 80.3936 131.676 80.3936 131.795C80.2749 132.032 80.2749 132.032 80.1563 132.032Z" fill="#636464"/>
<path d="M51.558 154.803C49.5406 154.803 47.5232 154.803 45.6245 154.685C45.5059 154.685 45.3872 154.566 45.3872 154.448C45.3872 154.329 45.5059 154.21 45.6245 154.21C48.3539 154.329 51.202 154.329 53.9313 154.329C54.762 154.329 55.474 154.329 56.3047 154.329C56.4234 154.329 56.542 154.448 56.542 154.566C56.542 154.685 56.4234 154.803 56.3047 154.803C55.474 154.803 54.762 154.803 53.9313 154.803C53.2193 154.803 52.3886 154.803 51.558 154.803Z" fill="#636464"/>
<path d="M69.2378 154.685C69.1192 154.685 69.0005 154.566 69.0005 154.448C69.0005 154.329 69.1192 154.211 69.2378 154.211C72.7979 154.092 76.4766 154.092 80.1553 154.092C80.274 154.092 80.3926 154.211 80.3926 154.329C80.3926 154.448 80.274 154.566 80.1553 154.566C76.4766 154.566 72.7979 154.566 69.2378 154.685Z" fill="#636464"/>
<path d="M103.771 139.504C100.211 139.504 96.0576 139.385 92.6162 139.267C92.6162 135.827 92.6162 132.151 92.6162 128.593C96.2949 128.356 99.9736 128.356 103.89 128.593C103.89 132.151 103.89 135.709 103.771 139.504Z" fill="#B8D4F7"/>
<path d="M103.771 140.097C101.991 140.097 100.092 140.097 98.1937 139.979C96.295 139.979 94.3963 139.86 92.6163 139.86C92.2603 139.86 92.0229 139.623 92.0229 139.267V138.318C92.0229 135.116 92.0229 131.795 92.0229 128.593C92.0229 128.237 92.2603 128 92.6163 128C96.295 127.763 99.9737 127.763 103.89 128C104.246 128 104.483 128.237 104.483 128.593C104.602 132.032 104.483 135.472 104.364 139.504C104.246 139.86 104.008 140.097 103.771 140.097ZM93.091 138.793C94.7523 138.793 96.4137 138.793 98.1937 138.911C99.855 138.911 101.635 139.03 103.178 139.03C103.296 135.472 103.296 132.388 103.296 129.305C99.7364 129.186 96.4137 129.186 93.2096 129.305C93.2096 132.388 93.2096 135.472 93.2096 138.555L93.091 138.793Z" fill="#636464"/>
<path d="M103.771 162.394C100.211 162.394 96.0576 162.275 92.6162 162.157C92.6162 158.717 92.6162 155.041 92.6162 151.483C96.2949 151.246 99.9736 151.246 103.89 151.483C103.89 155.041 103.89 158.48 103.771 162.394Z" fill="#B8D4F7"/>
<path d="M103.771 162.987C101.991 162.987 100.092 162.987 98.1937 162.868C96.295 162.868 94.3963 162.75 92.6163 162.75C92.2603 162.75 92.0229 162.513 92.0229 162.157V161.208C92.0229 158.006 92.0229 154.685 92.0229 151.483C92.0229 151.127 92.2603 150.89 92.6163 150.89C96.295 150.652 99.9737 150.652 103.89 150.89C104.246 150.89 104.483 151.127 104.483 151.483C104.602 154.922 104.483 158.362 104.364 162.394C104.246 162.75 104.008 162.987 103.771 162.987ZM93.091 161.682C94.7523 161.682 96.4137 161.682 98.075 161.801C99.7364 161.801 101.516 161.92 103.059 161.92C103.178 158.362 103.178 155.278 103.178 152.194C99.6177 152.076 96.295 152.076 93.091 152.194C93.091 155.278 93.091 158.362 93.091 161.445V161.682Z" fill="#636464"/>
<path d="M103.653 132.032C101.161 131.914 97.1261 131.914 92.854 131.914C92.7354 131.914 92.6167 131.795 92.6167 131.676C92.6167 131.558 92.7354 131.439 92.854 131.439C94.8714 131.439 100.093 131.439 103.653 131.558C103.772 131.558 103.89 131.676 103.89 131.795C103.772 132.032 103.772 132.032 103.653 132.032Z" fill="#636464"/>
<path d="M92.7349 154.685C92.6162 154.685 92.4976 154.566 92.4976 154.448C92.4976 154.329 92.6162 154.211 92.7349 154.211C96.2949 154.092 99.9737 154.092 103.652 154.092C103.771 154.092 103.89 154.211 103.89 154.329C103.89 154.448 103.771 154.566 103.652 154.566C99.9737 154.566 96.4136 154.566 92.7349 154.685Z" fill="#636464"/>
<path d="M29.4844 179.354C59.8635 179.354 88.4625 179.117 117.655 179.354C118.486 179.354 118.486 172.831 118.486 172.831C108.992 173.542 54.5234 172.001 29.3657 173.187C29.2471 174.966 29.1284 177.1 29.4844 179.354Z" fill="white"/>
<path d="M29.485 179.828C29.2476 179.828 29.0103 179.591 28.8916 179.354C28.5356 176.863 28.6543 174.61 28.773 172.949C28.773 172.712 29.0103 172.475 29.3663 172.356C43.4878 171.763 67.3401 172.001 86.4457 172.119C101.398 172.238 114.333 172.356 118.486 172.001C118.605 172.001 118.842 172.001 118.961 172.119C119.079 172.238 119.198 172.356 119.198 172.594C119.198 179.71 118.367 179.71 117.893 179.71C98.6685 179.591 79.919 179.591 60.22 179.71C50.1332 179.828 39.8091 179.828 29.485 179.828ZM29.841 173.661C29.7223 175.084 29.7223 176.863 29.9596 178.761C40.1651 178.761 50.2519 178.761 59.9827 178.761C79.6816 178.761 98.1939 178.642 117.418 178.761C117.655 178.049 117.774 175.677 117.893 173.424C113.146 173.661 100.686 173.542 86.4457 173.424C67.5775 173.187 44.0812 172.949 29.841 173.661Z" fill="#636464"/>
<path d="M110.754 98.4408L110.045 179.182H152.565L153.096 98.6178L110.754 98.4408Z" fill="white"/>
<path d="M152.565 179.624H110.046C109.957 179.624 109.78 179.536 109.78 179.536C109.691 179.447 109.691 179.359 109.691 179.27L110.311 98.5293C110.311 98.2637 110.489 98.0867 110.754 98.0867L153.097 98.2637C153.185 98.2637 153.362 98.3523 153.362 98.3523C153.451 98.4408 153.451 98.5293 153.451 98.6179L152.92 179.093C153.008 179.447 152.831 179.624 152.565 179.624ZM110.489 178.739H152.122L152.654 99.0605L111.197 98.8834L110.489 178.739Z" fill="#636464"/>
<path d="M126.965 124.292C124.308 124.292 121.207 124.203 118.55 124.115C118.55 121.459 118.55 118.537 118.55 115.704C121.296 115.527 124.042 115.527 126.965 115.704C127.142 118.537 127.054 121.282 126.965 124.292Z" fill="#D1D6DD"/>
<path d="M126.965 124.735C125.637 124.735 124.219 124.735 122.802 124.646C121.385 124.646 119.967 124.558 118.639 124.558C118.373 124.558 118.196 124.38 118.196 124.115V123.407C118.196 120.928 118.196 118.272 118.196 115.704C118.196 115.439 118.373 115.262 118.639 115.262C121.385 115.085 124.131 115.085 127.143 115.262C127.408 115.262 127.585 115.439 127.585 115.704C127.674 118.36 127.586 121.105 127.497 124.292C127.408 124.558 127.231 124.735 126.965 124.735ZM118.993 123.761C120.233 123.761 121.473 123.761 122.802 123.849C124.042 123.849 125.371 123.938 126.522 123.938C126.611 121.105 126.611 118.626 126.611 116.236C123.954 116.147 121.473 116.147 118.993 116.236C118.993 118.626 118.993 121.105 118.993 123.495V123.761Z" fill="#636464"/>
<path d="M144.504 124.292C141.847 124.292 138.746 124.203 136.089 124.115C136.089 121.459 136.089 118.537 136.089 115.704C138.835 115.527 141.581 115.527 144.504 115.704C144.681 118.537 144.593 121.282 144.504 124.292Z" fill="#D1D6DD"/>
<path d="M144.505 124.735C143.176 124.735 141.758 124.735 140.341 124.646C138.924 124.646 137.507 124.558 136.178 124.558C135.912 124.558 135.735 124.38 135.735 124.115V123.407C135.735 120.928 135.735 118.272 135.735 115.704C135.735 115.439 135.912 115.262 136.178 115.262C138.924 115.085 141.67 115.085 144.682 115.262C144.947 115.262 145.125 115.439 145.125 115.704C145.213 118.36 145.125 121.105 145.036 124.292C144.947 124.558 144.77 124.735 144.505 124.735ZM136.532 123.761C137.772 123.761 139.012 123.761 140.341 123.849C141.581 123.849 142.91 123.938 144.062 123.938C144.15 121.105 144.15 118.626 144.15 116.236C141.493 116.147 139.012 116.147 136.532 116.236C136.532 118.626 136.532 121.105 136.532 123.495V123.761Z" fill="#636464"/>
<path d="M126.699 142.264C124.042 142.264 120.942 142.175 118.284 142.087C118.284 139.431 118.284 136.509 118.284 133.676C121.03 133.499 123.776 133.499 126.699 133.676C126.877 136.509 126.877 139.254 126.699 142.264Z" fill="#D1D6DD"/>
<path d="M126.699 142.707C125.371 142.707 123.953 142.707 122.536 142.618C121.119 142.618 119.701 142.53 118.373 142.53C118.107 142.53 117.93 142.352 117.93 142.087V141.379C117.93 138.9 117.93 136.244 117.93 133.676C117.93 133.411 118.107 133.234 118.373 133.234C121.119 133.057 123.865 133.057 126.876 133.234C127.142 133.234 127.319 133.411 127.319 133.676C127.408 136.332 127.319 139.077 127.231 142.264C127.142 142.53 126.965 142.707 126.699 142.707ZM118.816 141.733C120.056 141.733 121.296 141.733 122.625 141.821C123.865 141.821 125.193 141.91 126.345 141.91C126.434 139.077 126.434 136.598 126.434 134.208C123.776 134.119 121.296 134.119 118.816 134.208C118.816 136.598 118.816 139.077 118.816 141.467V141.733Z" fill="#636464"/>
<path d="M144.239 142.264C141.582 142.264 138.481 142.175 135.824 142.087C135.824 139.431 135.824 136.509 135.824 133.676C138.57 133.499 141.316 133.499 144.239 133.676C144.416 136.509 144.416 139.254 144.239 142.264Z" fill="#D1D6DD"/>
<path d="M144.239 142.707C142.91 142.707 141.493 142.707 140.076 142.618C138.658 142.618 137.241 142.53 135.912 142.53C135.646 142.53 135.469 142.352 135.469 142.087V141.379C135.469 138.9 135.469 136.244 135.469 133.676C135.469 133.411 135.646 133.234 135.912 133.234C138.658 133.057 141.404 133.057 144.416 133.234C144.682 133.234 144.859 133.411 144.859 133.676C144.948 136.332 144.859 139.077 144.77 142.264C144.682 142.53 144.505 142.707 144.239 142.707ZM136.355 141.733C137.595 141.733 138.835 141.733 140.164 141.821C141.404 141.821 142.733 141.91 143.885 141.91C143.973 139.077 143.973 136.598 143.973 134.208C141.316 134.119 138.835 134.119 136.355 134.208C136.355 136.598 136.355 139.077 136.355 141.467V141.733Z" fill="#636464"/>
<path d="M126.699 160.324C124.042 160.324 120.942 160.236 118.284 160.147C118.284 157.491 118.284 154.57 118.284 151.737C121.03 151.56 123.776 151.56 126.699 151.737C126.877 154.481 126.877 157.226 126.699 160.324Z" fill="#D1D6DD"/>
<path d="M126.699 160.767C125.371 160.767 123.953 160.767 122.536 160.678C121.119 160.678 119.701 160.59 118.373 160.59C118.107 160.59 117.93 160.413 117.93 160.147V159.439C117.93 156.96 117.93 154.304 117.93 151.737C117.93 151.471 118.107 151.294 118.373 151.294C121.119 151.117 123.865 151.117 126.876 151.294C127.142 151.294 127.319 151.471 127.319 151.737C127.408 154.393 127.319 157.137 127.231 160.324C127.142 160.501 126.965 160.767 126.699 160.767ZM118.816 159.705C120.056 159.705 121.296 159.705 122.625 159.793C123.865 159.793 125.193 159.882 126.345 159.882C126.434 157.049 126.434 154.57 126.434 152.179C123.776 152.091 121.296 152.091 118.816 152.179C118.816 154.57 118.816 157.049 118.816 159.439V159.705Z" fill="#636464"/>
<path d="M144.239 160.324C141.582 160.324 138.481 160.236 135.824 160.147C135.824 157.491 135.824 154.57 135.824 151.737C138.57 151.56 141.316 151.56 144.239 151.737C144.416 154.481 144.416 157.226 144.239 160.324Z" fill="#D1D6DD"/>
<path d="M144.239 160.767C142.91 160.767 141.493 160.767 140.076 160.678C138.658 160.678 137.241 160.59 135.912 160.59C135.646 160.59 135.469 160.413 135.469 160.147V159.439C135.469 156.96 135.469 154.304 135.469 151.737C135.469 151.471 135.646 151.294 135.912 151.294C138.658 151.117 141.404 151.117 144.416 151.294C144.682 151.294 144.859 151.471 144.859 151.737C144.948 154.393 144.859 157.137 144.77 160.324C144.682 160.501 144.505 160.767 144.239 160.767ZM136.355 159.705C137.595 159.705 138.835 159.705 140.164 159.793C141.404 159.793 142.733 159.882 143.885 159.882C143.973 157.049 143.973 154.57 143.973 152.179C141.316 152.091 138.835 152.091 136.355 152.179C136.355 154.57 136.355 157.049 136.355 159.439V159.705Z" fill="#636464"/>
<path d="M152.743 103.487C138.569 103.044 124.396 102.956 110.666 103.222C110.4 103.222 110.223 103.044 110.223 102.779C110.223 102.513 110.4 102.336 110.666 102.336C124.396 101.982 138.569 102.071 152.743 102.602C153.008 102.602 153.186 102.779 153.186 103.044C153.186 103.31 153.008 103.487 152.743 103.487Z" fill="#636464"/>
<path d="M126.699 118.803L118.727 118.714C118.638 118.714 118.55 118.626 118.55 118.537C118.55 118.449 118.638 118.36 118.727 118.36L126.699 118.449C126.788 118.449 126.877 118.537 126.877 118.626C126.877 118.714 126.788 118.803 126.699 118.803Z" fill="#EDEFF1"/>
<path d="M144.504 118.803C142.555 118.714 140.341 118.714 138.126 118.714C137.418 118.714 136.797 118.714 136.089 118.714C136 118.714 135.912 118.626 135.912 118.537C135.912 118.449 136 118.36 136.089 118.36C136.709 118.36 137.418 118.36 138.126 118.36C140.341 118.36 142.644 118.36 144.593 118.449C144.681 118.449 144.77 118.537 144.77 118.626C144.681 118.714 144.593 118.803 144.504 118.803Z" fill="#EDEFF1"/>
<path d="M126.522 136.421C125.371 136.421 124.042 136.421 122.713 136.421C121.384 136.421 119.967 136.421 118.727 136.421C118.638 136.421 118.55 136.332 118.55 136.244C118.55 136.155 118.638 136.155 118.727 136.067C119.967 136.155 121.296 136.067 122.713 136.067C124.042 136.067 125.459 136.067 126.611 136.067C126.699 136.067 126.788 136.155 126.788 136.244C126.611 136.421 126.611 136.421 126.522 136.421Z" fill="#EDEFF1"/>
<path d="M144.239 136.421C142.379 136.332 139.367 136.332 136.178 136.332C136.09 136.332 136.001 136.244 136.001 136.155C136.001 136.067 136.09 135.978 136.178 135.978C139.456 135.978 142.379 135.978 144.239 136.067C144.328 136.067 144.416 136.155 144.416 136.244C144.328 136.332 144.239 136.421 144.239 136.421Z" fill="#EDEFF1"/>
<path d="M122.89 154.304C121.385 154.304 119.879 154.304 118.461 154.216C118.373 154.216 118.284 154.127 118.284 154.039C118.284 153.95 118.373 153.95 118.461 153.862C120.499 153.95 122.625 153.95 124.662 153.95C125.282 153.95 125.814 153.95 126.434 153.95C126.522 153.95 126.611 154.039 126.611 154.127C126.611 154.216 126.522 154.304 126.434 154.304C125.814 154.304 125.282 154.304 124.662 154.304C124.042 154.304 123.422 154.304 122.89 154.304Z" fill="#EDEFF1"/>
<path d="M136.089 154.216C136 154.216 135.912 154.127 135.912 154.039C135.912 153.95 136 153.862 136.089 153.862C138.746 153.773 141.492 153.773 144.238 153.773C144.327 153.773 144.415 153.862 144.415 153.95C144.415 154.039 144.327 154.127 144.238 154.127C141.492 154.127 138.746 154.127 136.089 154.216Z" fill="#EDEFF1"/>
<g opacity="0.1294">
<path d="M152.211 102.956C151.856 102.956 151.591 102.956 151.236 102.956C150.085 102.956 148.845 102.956 147.693 102.867C144.77 102.69 138.392 102.513 134.229 102.69C131.04 102.513 127.851 102.513 124.662 102.425C122.093 102.425 119.524 102.513 116.955 102.513C115.095 102.513 113.235 102.513 111.463 102.69C109.868 102.69 109.868 105.258 111.463 105.346C113.855 104.992 116.246 105.081 118.638 105.081C122.624 105.081 126.522 105.081 130.508 105.169C134.671 105.346 138.835 105.346 142.998 105.346C144.15 105.346 145.301 105.523 146.453 105.435C147.87 105.435 147.693 105.435 148.933 105.435C149.996 105.523 151.059 105.523 152.034 105.435C151.945 105.435 151.856 105.435 151.768 105.523C152.565 105.612 153.362 105.258 153.362 104.284C153.362 103.576 152.831 102.956 152.211 102.956Z" fill="#636464"/>
</g>
<path d="M9.13544 70.0327C9.13544 68.8997 8.20185 67.9667 7.06821 67.9667C5.93457 67.9667 5.00098 68.8997 5.00098 70.0327C5.00098 71.1657 5.93457 72.0988 7.06821 72.0988C8.20185 72.0988 9.13544 71.1657 9.13544 70.0327Z" fill="#E1ECFB"/>
<path d="M7.06863 72.432C5.73493 72.432 4.66797 71.3657 4.66797 70.0327C4.66797 68.6998 5.73493 67.6335 7.06863 67.6335C8.40232 67.6335 9.46928 68.6998 9.46928 70.0327C9.46928 71.3657 8.40232 72.432 7.06863 72.432ZM7.06863 68.3666C6.13504 68.3666 5.33482 69.1663 5.33482 70.0994C5.33482 71.0324 6.13504 71.8322 7.06863 71.8322C8.00221 71.8322 8.80244 71.0324 8.80244 70.0994C8.80244 69.0997 8.00221 68.3666 7.06863 68.3666Z" fill="#E1ECFB"/>
<path d="M190.148 133.982L188.995 179.562H267.652L268.548 134.11L190.148 133.982Z" fill="white"/>
<path d="M267.651 180.202H188.994C188.866 180.202 188.61 180.074 188.61 180.074C188.482 179.946 188.482 179.818 188.482 179.562L189.635 133.982C189.635 133.598 189.891 133.342 190.275 133.342L268.676 133.47C268.804 133.47 269.06 133.598 269.06 133.598C269.188 133.726 269.188 133.854 269.188 134.11L268.292 179.562C268.292 179.818 268.035 180.202 267.651 180.202ZM189.635 178.921H267.011L267.907 134.75L190.788 134.622L189.635 178.921Z" fill="#636464"/>
<path d="M222.558 179.562C200.139 179.562 176.696 179.946 154.277 179.69C154.277 157.284 154.021 134.238 152.74 109.272C173.237 108.76 198.602 108.504 224.223 108.248C222.814 133.214 221.405 163.045 222.558 179.562Z" fill="white"/>
<path d="M166.575 180.33C162.476 180.33 158.377 180.33 154.277 180.33C153.893 180.33 153.637 180.074 153.637 179.69C153.637 159.845 153.509 135.903 152.1 109.272C152.1 109.144 152.1 108.888 152.228 108.76C152.356 108.632 152.484 108.504 152.612 108.504C171.828 107.992 194.759 107.864 219.099 107.608H224.095C224.223 107.608 224.479 107.736 224.607 107.864C224.735 107.992 224.735 108.12 224.735 108.376C223.454 132.702 221.917 162.917 223.198 179.562C223.198 179.69 223.198 179.946 223.07 180.074C222.942 180.202 222.814 180.202 222.558 180.33C212.95 180.33 203.086 180.33 193.35 180.458C184.638 180.33 175.543 180.33 166.575 180.33ZM154.918 179.049C167.6 179.177 180.667 179.049 193.478 178.921C202.829 178.921 212.565 178.793 221.917 178.793C220.764 162.149 222.301 132.702 223.454 108.76H219.099C195.015 109.016 172.34 109.144 153.253 109.656C154.662 136.031 154.918 159.46 154.918 179.049Z" fill="#636464"/>
<path d="M234.984 113.625C202.317 113.625 172.981 114.137 143.389 114.137C157.736 98.7735 173.237 81.4891 187.841 66.2533C203.086 81.2331 217.818 98.6454 234.984 113.625Z" fill="white"/>
<path d="M143.389 114.905C143.133 114.905 142.876 114.777 142.876 114.521C142.748 114.265 142.876 114.009 143.004 113.881C148.385 108.12 154.021 101.974 159.53 95.9567C168.754 85.8422 178.361 75.4716 187.457 65.9972C187.585 65.8692 187.713 65.8692 187.841 65.8692C187.969 65.8692 188.226 65.8692 188.226 65.9972C194.118 71.7587 199.883 77.7762 205.904 84.1778C215.256 94.0362 224.864 104.151 235.24 113.369C235.496 113.497 235.496 113.753 235.368 114.009C235.24 114.265 234.984 114.393 234.728 114.393C217.946 114.393 202.061 114.521 186.688 114.649C171.956 114.777 157.737 114.905 143.389 114.905ZM187.841 67.2775C178.746 76.6239 169.394 86.8664 160.299 96.7249C155.174 102.358 149.794 108.12 144.798 113.625C158.761 113.625 172.34 113.497 186.816 113.369C201.677 113.241 217.049 113.113 233.19 113.113C223.198 104.279 213.975 94.4203 205.007 84.946C199.115 78.6724 193.606 72.9109 187.841 67.2775Z" fill="#636464"/>
<path d="M199.883 155.492C192.453 155.492 185.023 155.364 177.593 155.364C176.824 147.81 176.44 140.384 176.568 132.83C184.254 132.446 191.94 132.446 200.139 132.83C200.267 140.256 200.267 147.426 199.883 155.492Z" fill="#EAF2FF"/>
<path d="M199.883 156.132L177.593 156.004C177.337 156.004 176.952 155.748 176.952 155.492C176.056 146.914 175.799 139.744 175.927 132.958C175.927 132.574 176.184 132.318 176.568 132.318C184.254 131.934 191.941 131.934 200.139 132.318C200.524 132.318 200.78 132.574 200.78 132.958C200.908 140.128 200.78 147.298 200.524 155.62C200.524 155.876 200.267 156.132 199.883 156.132ZM178.233 154.724L199.243 154.852C199.499 147.042 199.627 140.256 199.499 133.47C191.684 133.086 184.382 133.086 177.208 133.47C177.208 139.872 177.465 146.657 178.233 154.724Z" fill="#636464"/>
<path d="M192.069 93.6521C189.506 91.9876 185.663 92.7558 183.87 95.3165C182.076 97.8771 182.845 101.846 185.279 103.639C187.713 105.431 191.684 104.791 193.478 102.358C195.399 99.7976 195.143 95.7006 192.069 93.6521Z" fill="white"/>
<path d="M188.738 105.303C187.457 105.303 186.048 104.919 185.023 104.151C182.205 102.102 181.436 97.8772 183.486 94.9324C185.407 92.1157 189.635 91.2195 192.453 93.14C193.99 94.1642 194.887 95.7006 195.271 97.4931C195.656 99.2855 195.143 101.334 194.118 102.742C192.837 104.407 190.788 105.303 188.738 105.303ZM188.994 93.3961C187.201 93.3961 185.407 94.1642 184.51 95.7006C182.973 98.0052 183.614 101.59 185.792 103.126C187.969 104.791 191.556 104.151 193.094 101.974C193.99 100.822 194.247 99.2855 193.99 97.7491C193.734 96.2128 192.965 95.0605 191.684 94.1642C190.916 93.6521 189.891 93.3961 188.994 93.3961Z" fill="#636464"/>
<path d="M231.909 180.202C231.525 180.202 231.269 179.946 231.269 179.562C231.525 169.319 231.269 159.204 231.141 150.626C231.141 150.498 231.141 150.242 231.269 150.114C231.397 149.986 231.525 149.986 231.653 149.986C240.236 149.986 249.203 149.986 258.171 149.986C258.299 149.986 258.555 150.114 258.555 150.114C258.683 150.242 258.683 150.37 258.683 150.498C258.683 153.059 258.683 155.62 258.683 158.052C258.683 165.734 258.683 172.904 258.427 179.049C258.427 179.434 258.171 179.69 257.787 179.69C257.402 179.69 257.146 179.434 257.146 179.049C257.402 172.904 257.402 165.734 257.402 158.052C257.402 155.748 257.402 153.571 257.402 151.138C248.947 151.138 240.492 151.138 232.165 151.138C232.294 159.589 232.55 169.447 232.294 179.434C232.55 179.946 232.294 180.202 231.909 180.202Z" fill="#636464"/>
<path d="M232.421 154.851C232.293 154.851 232.165 154.723 232.165 154.595C232.165 154.467 232.293 154.339 232.421 154.339C240.748 153.955 249.075 153.827 257.402 153.955C257.53 153.955 257.658 154.083 257.658 154.211C257.658 154.339 257.53 154.467 257.402 154.467C249.075 154.211 240.748 154.339 232.421 154.851Z" fill="#636464"/>
<path d="M237.546 158.052C235.753 158.052 233.959 158.052 232.037 158.052C231.909 158.052 231.781 157.924 231.781 157.796C231.781 157.668 231.909 157.54 232.037 157.54C240.62 157.668 249.332 157.54 257.915 157.028C258.043 157.028 258.171 157.156 258.171 157.284C258.171 157.412 258.043 157.54 257.915 157.54C251.125 157.924 244.336 158.052 237.546 158.052Z" fill="#636464"/>
<path d="M231.91 162.277C231.781 162.277 231.653 162.149 231.653 162.021C231.653 161.893 231.781 161.765 231.91 161.765C240.621 161.125 249.46 160.997 258.171 161.253C258.299 161.253 258.427 161.381 258.427 161.509C258.427 161.637 258.299 161.765 258.171 161.765C249.46 161.381 240.621 161.637 231.91 162.277Z" fill="#636464"/>
<path d="M232.165 166.246C232.037 166.246 231.909 166.118 231.909 165.99C231.909 165.862 232.037 165.734 232.165 165.734L258.17 164.966C258.298 164.966 258.426 165.094 258.426 165.222C258.426 165.35 258.298 165.478 258.17 165.478L232.165 166.246Z" fill="#636464"/>
<path d="M240.877 169.575C237.93 169.575 234.856 169.575 231.91 169.575C231.781 169.575 231.653 169.447 231.653 169.319C231.653 169.191 231.781 169.063 231.91 169.063C240.493 169.063 249.332 169.063 257.915 168.935C258.043 168.935 258.171 169.063 258.171 169.191C258.171 169.319 258.043 169.447 257.915 169.447C252.406 169.447 246.642 169.575 240.877 169.575Z" fill="#636464"/>
<path d="M232.037 172.904C231.909 172.904 231.781 172.776 231.781 172.648C231.781 172.52 231.909 172.392 232.037 172.392H257.53C257.658 172.392 257.787 172.52 257.787 172.648C257.787 172.776 257.658 172.904 257.53 172.904H232.037Z" fill="#636464"/>
<path d="M243.951 176.105C240.108 176.105 236.137 175.977 232.294 175.849C232.166 175.849 232.038 175.721 232.038 175.593C232.038 175.465 232.166 175.337 232.294 175.337C240.877 175.593 249.46 175.593 258.043 175.208C258.171 175.208 258.299 175.337 258.299 175.465C258.299 175.593 258.171 175.721 258.043 175.721C253.431 175.977 248.691 176.105 243.951 176.105Z" fill="#636464"/>
<path d="M177.08 140.256C176.952 140.256 176.824 140.128 176.824 140C176.824 139.872 176.952 139.744 177.08 139.744C184.638 139.616 192.324 139.488 200.011 139.36C200.139 139.36 200.267 139.488 200.267 139.616C200.267 139.744 200.139 139.872 200.011 139.872C192.453 139.872 184.766 140 177.08 140.256Z" fill="#636464"/>
<path d="M188.354 155.364C188.226 155.364 188.098 155.235 188.098 155.107L188.482 139.872C188.482 139.744 188.61 139.616 188.738 139.616C188.866 139.616 188.994 139.744 188.994 139.872L188.61 155.107C188.482 155.235 188.482 155.364 188.354 155.364Z" fill="#636464"/>
<path d="M189.378 105.175C189.25 105.175 189.122 105.047 189.122 104.919C188.994 101.078 188.609 97.109 188.225 93.268C188.225 93.14 188.353 93.0119 188.353 93.0119C188.481 93.0119 188.609 93.14 188.609 93.14C188.994 96.9809 189.378 100.95 189.506 104.919C189.506 105.047 189.506 105.175 189.378 105.175Z" fill="#636464"/>
<path d="M183.23 99.0295C183.102 99.0295 182.974 98.9015 182.974 98.7734C182.974 98.6454 183.102 98.5174 183.23 98.5174L194.759 97.7492C194.887 97.7492 195.016 97.8772 195.016 98.0052C195.016 98.1333 194.887 98.2613 194.759 98.2613L183.23 99.0295Z" fill="#636464"/>
<path d="M157.608 129.885C157.48 129.885 157.352 129.757 157.352 129.629L156.967 118.106C156.967 117.978 157.095 117.85 157.224 117.85C157.352 117.85 157.48 117.978 157.48 118.106L157.864 129.629C157.864 129.757 157.736 129.885 157.608 129.885Z" fill="#636464"/>
<path d="M160.682 122.587C160.554 122.587 160.426 122.459 160.426 122.331L160.17 117.594C160.17 117.466 160.298 117.338 160.426 117.338C160.554 117.338 160.682 117.466 160.682 117.594L160.939 122.331C160.81 122.587 160.81 122.587 160.682 122.587Z" fill="#636464"/>
<path d="M155.045 175.337C154.661 175.337 154.405 175.081 154.405 174.697C154.405 174.312 154.661 174.056 155.045 174.056L221.916 173.288C222.301 173.288 222.557 173.544 222.557 173.928C222.557 174.312 222.301 174.568 221.916 174.568L155.045 175.337Z" fill="#636464"/>
<g opacity="0.1294">
<path d="M224.094 116.186C223.966 115.93 223.838 115.674 223.71 115.546C223.71 114.649 223.07 113.753 222.045 113.753C219.739 114.009 217.305 113.753 214.999 113.881C212.693 113.881 210.259 114.137 207.953 114.393C207.441 114.393 206.928 114.393 206.416 114.649C205.775 114.649 205.263 114.649 204.622 114.649C200.779 114.777 197.064 114.649 193.221 114.649C187.456 114.649 181.692 114.777 175.927 114.777C172.596 114.777 169.265 114.521 165.935 114.649C162.22 114.649 158.633 115.162 154.918 114.777C152.484 114.521 152.227 118.234 154.661 118.362C158.889 118.746 162.988 118.234 167.216 118.234C176.055 118.618 184.894 118.362 193.734 118.234C197.449 118.234 201.164 118.362 204.879 118.362C210.003 118.618 215.127 118.874 220.379 118.746C220.636 118.746 220.892 118.746 221.02 118.746C221.148 118.746 221.276 118.746 221.404 118.746C221.917 118.874 222.301 118.746 222.813 118.746C223.71 118.106 224.351 117.082 224.094 116.186Z" fill="#636464"/>
</g>
<g opacity="0.1294">
<path d="M257.658 150.754C257.274 150.498 256.762 150.498 256.377 150.498C254.968 150.498 253.687 150.498 252.278 150.498C249.588 150.498 246.769 150.37 244.079 150.37C240.62 150.498 237.162 150.498 233.703 150.242C232.934 150.242 232.165 150.114 231.525 150.754C230.5 151.779 231.269 153.699 232.678 153.699C236.521 154.083 240.492 153.955 244.335 153.699C248.05 153.699 251.894 153.955 255.609 153.955C256.121 153.955 256.762 154.083 257.274 153.827C258.811 153.443 258.811 151.395 257.658 150.754Z" fill="#636464"/>
</g>
<path d="M245.641 83.7011C265.475 83.5008 285.309 83.1004 305.143 82.9001C311.354 82.9001 317.965 82.6999 323.575 79.6965C329.385 76.4928 333.391 70.2857 333.191 63.6781C332.991 57.0705 328.383 50.8634 321.972 49.0613C315.561 47.2593 308.148 50.8634 305.744 56.8703C306.145 45.4572 296.127 34.6448 284.708 34.8451C273.288 34.8451 263.271 46.4584 265.475 57.6712C263.471 52.4653 257.261 49.8623 251.851 50.6632C246.442 51.6643 241.834 55.4687 238.829 60.074C236.225 63.8783 234.622 68.4836 235.223 73.0889C235.624 77.4939 238.829 83.7011 245.641 83.7011Z" fill="white"/>
<path d="M245.44 84.7022C238.629 84.7022 234.822 78.8955 234.221 73.0889C233.42 67.4824 235.824 62.4767 238.028 59.273C241.634 53.8668 246.642 50.2627 251.851 49.4618C256.66 48.6609 261.468 50.4629 264.273 53.6666C264.473 49.4618 266.076 45.257 269.081 41.6528C273.088 36.6471 278.898 33.8439 284.708 33.6436C290.317 33.6436 295.727 36.0464 299.934 40.4515C303.54 44.0556 305.744 48.6609 306.545 53.4664C309.951 48.8611 316.563 46.4583 322.172 48.0602C328.784 49.8622 333.792 56.4698 333.993 63.6781C334.193 70.4859 330.186 77.2937 323.775 80.6976C317.965 83.9013 310.953 83.9013 304.943 84.1015L245.44 84.7022C245.641 84.7022 245.44 84.7022 245.44 84.7022ZM254.055 51.2638C253.454 51.2638 252.653 51.2638 252.052 51.4641C247.444 52.265 242.836 55.4687 239.63 60.4744C237.627 63.4779 235.423 67.8829 236.024 72.8886C236.425 76.4928 239.029 82.6999 245.44 82.6999C245.44 82.6999 245.44 82.6999 245.641 82.6999L305.143 81.899C310.953 81.899 317.765 81.6987 323.174 78.6953C328.784 75.6919 332.39 69.4847 332.189 63.4779C331.989 57.2707 327.581 51.2638 321.772 49.8622C315.761 48.2604 308.949 51.4641 306.746 57.0705C306.545 57.471 306.145 57.6712 305.544 57.6712C305.143 57.6712 304.742 57.0705 304.742 56.67C304.943 51.2638 302.739 45.8576 298.532 41.8531C294.725 37.8485 289.716 35.6459 284.708 35.6459C279.499 35.6459 274.29 38.4492 270.483 42.8542C266.877 47.2593 265.475 52.4652 266.477 57.2707C266.477 57.6712 266.276 58.2719 265.876 58.4721C265.475 58.6723 264.874 58.2719 264.673 57.8714C262.87 53.4664 258.262 51.2638 254.055 51.2638Z" fill="#D1D6DD"/>
<g opacity="0.1294">
<path d="M328.183 70.6862C327.582 70.8864 327.182 71.2869 326.781 71.4871C326.38 71.8876 325.779 72.0878 325.178 72.4883C323.976 73.2892 322.774 74.0901 321.572 74.6908C321.372 74.6908 321.372 74.6908 321.372 74.891C318.767 75.4917 316.363 76.6931 313.558 77.0935C311.755 77.2938 305.344 77.0935 301.738 77.2938C293.924 77.494 285.911 77.494 278.097 77.6942C271.887 77.494 265.676 78.0947 259.465 78.8956C251.451 79.4963 248.847 79.8968 243.037 77.2938C243.037 77.2938 243.237 77.2938 243.237 77.494C241.835 77.0936 240.833 76.0924 239.431 75.6919C236.826 75.2915 235.624 78.8956 237.828 80.2972C241.034 81.899 244.239 83.5009 247.845 84.1016C255.859 85.5032 263.873 83.1004 271.887 83.3007C274.691 83.3007 277.496 83.5009 280.301 83.3007C284.108 83.1004 287.914 82.9002 291.721 82.9002C297.33 82.7 303.341 82.4997 307.548 81.8991C307.548 83.1004 308.55 84.3018 309.952 84.1016C314.56 83.7011 318.967 82.2995 322.974 80.097C323.976 79.6965 324.777 79.0958 325.779 78.4952C326.38 78.0947 326.981 77.8945 327.382 77.494C327.783 77.0936 327.783 76.4929 327.783 76.0924C328.384 75.6919 328.985 75.2915 329.586 74.6908C330.187 74.2903 330.587 73.4894 330.587 72.8887C330.988 71.2869 329.586 70.2857 328.183 70.6862Z" fill="#D1D6DD"/>
</g>
<path d="M10.391 32.5932C28.0521 32.7289 45.7132 32.8647 63.5102 33.0005C65.2763 33.0005 67.1783 33.0005 68.8085 32.4574C81.7147 27.9767 76.6881 17.6577 75.873 15.621C74.5144 12.2266 69.8954 11.1404 66.499 12.3624C63.1026 13.5844 60.5214 16.4357 58.2119 19.1512C59.1628 13.0413 56.174 6.25242 50.7399 3.26533C45.3057 0.278235 37.6978 1.36446 33.758 6.11665C30.6334 9.78263 29.9541 14.9422 29.4107 19.6943C28.0521 16.1641 26.286 12.6339 23.1614 10.4615C20.0367 8.28908 15.4177 7.88175 12.7006 10.4615C9.57591 13.3128 9.98347 18.2008 10.5269 22.2741C8.89663 19.6943 4.82101 19.4228 2.64733 21.4594C0.47366 23.4961 0.201942 27.1621 1.8322 29.7418C3.3266 32.4574 6.3154 32.5932 10.391 32.5932Z" fill="white"/>
<path d="M64.0538 33.6794C63.9179 33.6794 63.6462 33.6794 63.5103 33.6794L10.3912 33.2721C6.58726 33.2721 2.91918 33.2721 1.15307 30.285C-0.748896 27.4336 -0.205481 23.3604 2.10405 21.1879C3.32674 20.1017 5.22871 19.5586 6.99482 19.6944C7.94581 19.8302 8.76092 20.1017 9.57605 20.6448C9.16849 16.5715 9.44021 12.634 12.1573 10.0542C15.4178 7.06711 20.3086 7.88177 23.4332 10.0542C26.0145 11.9551 27.7806 14.6706 29.0033 17.2504C29.5467 13.3129 30.4977 9.10378 33.2148 5.84513C37.2904 0.821385 45.17 -0.53638 51.0117 2.85804C56.0383 5.70936 59.163 11.412 59.0272 17.3862C60.9291 15.2137 63.3745 12.9055 66.3633 11.8193C70.0314 10.4615 75.058 11.6835 76.5524 15.3495L76.6883 15.6211C77.3675 17.3862 79.4053 22.0026 77.3675 26.4832C76.009 29.3345 73.2919 31.6427 69.0804 33.0005C67.4501 33.5436 65.8199 33.6794 64.0538 33.6794ZM6.17969 21.0521C4.95699 21.0521 3.87017 21.4595 2.91918 22.2741C1.01722 24.0392 0.609646 27.2979 2.10405 29.7419C3.46259 31.9143 6.17969 32.0501 10.2553 32.1859L63.3745 32.5932C65.1406 32.5932 66.9067 32.5932 68.537 32.0501C72.3409 30.6923 74.9221 28.7914 76.009 26.2117C77.7751 22.4099 75.8731 18.0651 75.1938 16.4357L75.058 16.1642C73.8353 13.1771 69.6238 12.2266 66.4992 13.3129C63.1028 14.5349 60.6574 17.3862 58.4837 19.9659C58.3479 20.2375 57.9403 20.2375 57.6686 20.1017C57.3969 19.9659 57.261 19.6944 57.261 19.4228C58.0762 13.4486 55.0874 7.06713 50.0607 4.21581C44.7624 1.22872 37.5621 2.45071 33.894 6.93135C30.7694 10.5973 30.226 15.8926 29.6825 20.2375C29.6825 20.509 29.4108 20.7806 29.1391 20.7806C28.8674 20.7806 28.5957 20.6448 28.4599 20.3733C27.373 17.6577 25.6069 13.7202 22.4822 11.412C19.7652 9.5111 15.4178 8.96799 12.8366 11.412C10.1195 13.9917 10.2553 18.3366 10.9346 22.6815C10.9346 22.953 10.7987 23.2246 10.527 23.3603C10.2553 23.4961 9.84777 23.3604 9.71192 23.0888C9.03264 22.1384 7.94581 21.4595 6.72312 21.3237C6.58726 21.0521 6.4514 21.0521 6.17969 21.0521Z" fill="#D1D6DD"/>
<g opacity="0.1294">
<path d="M74.2431 26.8905C73.6997 26.8905 73.2921 27.2979 72.8845 27.4336C72.3411 27.841 71.6618 28.1125 70.9826 28.3841H70.8467C67.7221 29.6061 63.6464 29.1987 58.6198 29.0629C50.7402 28.6556 42.5889 27.9767 34.7094 28.3841C29.411 28.7914 24.1127 28.7914 18.8144 28.6556C14.8746 28.7914 10.799 29.063 6.85917 28.7914C4.9572 28.5199 5.09307 28.6556 4.27794 27.9767C3.73452 27.4336 3.87036 27.5694 3.73451 27.2979C3.59865 27.0263 3.19109 26.7548 2.78353 26.619C1.56084 26.2116 0.474005 27.7052 1.15328 28.7914C1.6967 29.7419 2.37598 30.5565 3.32696 31.0996C4.14209 31.6427 5.09306 31.7785 6.1799 31.9143C9.98383 32.8647 13.6519 32.7289 18.4068 32.4574C22.4825 32.4574 26.5581 32.4574 30.6337 32.1858C30.7696 32.4574 31.1771 32.5932 31.5847 32.5932C33.4867 32.8647 35.3887 32.7289 37.2906 32.7289C40.687 32.7289 44.0833 32.4574 47.6156 32.5932C51.0119 32.4574 54.4083 33.1362 57.8047 33.0005C58.3481 33.0005 58.8915 32.5932 59.0274 32.0501C62.0162 32.0501 64.8691 32.4574 67.8579 32.0501C70.0316 31.7785 72.0694 31.0996 73.9714 30.1492C74.6507 29.7419 75.4658 29.4703 75.6016 28.6556C75.8733 27.841 75.1941 26.8905 74.2431 26.8905Z" fill="#D1D6DD"/>
</g>
<path d="M220.813 162.855L220.747 186.715H224.614L224.681 162.922L220.813 162.855Z" fill="#F7F8F9"/>
<path d="M224.614 187.048H220.746C220.68 187.048 220.546 186.981 220.546 186.981C220.479 186.915 220.479 186.848 220.479 186.781L220.546 162.922C220.546 162.855 220.613 162.722 220.613 162.722C220.68 162.655 220.746 162.655 220.813 162.655L224.681 162.722C224.881 162.722 225.014 162.855 225.014 163.055L224.947 186.848C224.947 186.848 224.814 187.048 224.614 187.048ZM221.08 186.382H224.347L224.414 163.255L221.213 163.189L221.08 186.382Z" fill="#B8D4F7"/>
<path d="M204.875 154.191C204.875 152.992 205.208 151.792 206.209 151.259C207.209 150.726 208.343 150.659 209.476 150.659C218.479 150.526 227.414 150.392 236.417 150.259C237.617 150.259 238.818 150.526 239.284 151.592C240.018 153.192 239.684 155.724 239.684 157.657C239.684 161.922 239.951 161.256 239.951 165.455C239.951 166.321 239.951 167.254 239.551 168.054C239.151 168.854 236.884 169.054 236.017 169.054C226.881 168.587 218.279 169.12 208.543 169.187C207.609 169.054 206.609 168.787 205.942 168.054C205.208 167.187 205.142 165.921 205.075 164.788C204.942 159.59 204.875 159.856 204.875 154.191Z" fill="#F7F8F9"/>
<path d="M208.543 169.52C207.209 169.387 206.276 168.987 205.742 168.32C204.942 167.387 204.875 166.121 204.808 164.855C204.808 163.988 204.742 163.255 204.742 162.589C204.608 159.523 204.608 158.923 204.608 154.258C204.608 152.725 205.142 151.592 206.075 151.059C207.142 150.459 208.409 150.459 209.476 150.392L236.417 149.993C238.084 149.993 239.151 150.459 239.618 151.525C240.218 152.792 240.151 154.591 240.085 156.324C240.085 156.791 240.018 157.257 240.018 157.724C240.018 159.856 240.085 160.723 240.151 161.589C240.218 162.455 240.285 163.389 240.285 165.521C240.285 166.388 240.285 167.387 239.818 168.254C239.285 169.253 236.75 169.453 235.95 169.387C229.882 169.054 224.08 169.187 217.879 169.32C214.878 169.387 211.744 169.453 208.543 169.52ZM236.55 150.592C236.484 150.592 236.484 150.592 236.417 150.592L209.476 150.992C208.476 150.992 207.276 150.992 206.342 151.525C205.342 152.125 205.209 153.392 205.209 154.191C205.209 158.857 205.209 159.456 205.342 162.522C205.342 163.122 205.409 163.855 205.409 164.788C205.475 165.988 205.542 167.054 206.209 167.854C206.676 168.387 207.476 168.72 208.543 168.854C211.744 168.854 214.878 168.787 217.879 168.654C224.08 168.52 229.882 168.387 236.017 168.72C237.017 168.787 238.951 168.454 239.285 167.921C239.685 167.187 239.685 166.321 239.685 165.455C239.685 163.322 239.618 162.455 239.551 161.589C239.485 160.723 239.418 159.79 239.418 157.657C239.418 157.19 239.418 156.724 239.485 156.257C239.551 154.658 239.618 152.858 239.084 151.725C238.684 150.992 237.817 150.592 236.55 150.592Z" fill="#B8D4F7"/>
<path d="M209.81 167.787C208.676 167.654 207.876 167.321 207.342 166.788C206.676 166.054 206.542 164.921 206.542 163.855C206.475 162.522 206.475 161.656 206.409 160.989C206.342 159.256 206.275 158.59 206.275 155.058C206.275 153.791 206.742 152.858 207.542 152.392C208.476 151.859 209.61 151.859 210.61 151.859L235.35 151.525C236.817 151.525 237.751 151.925 238.084 152.725C238.618 153.858 238.551 155.391 238.484 156.924C238.484 157.324 238.484 157.79 238.484 158.123C238.484 159.99 238.551 160.656 238.618 161.323C238.684 161.989 238.751 162.655 238.751 164.522C238.751 165.255 238.751 166.121 238.351 166.854C237.951 167.587 235.817 167.787 235.017 167.787C229.415 167.521 224.08 167.654 218.412 167.787C215.611 167.721 212.744 167.787 209.81 167.787ZM235.417 151.659C235.35 151.659 235.35 151.659 235.283 151.659L210.543 151.992C209.61 151.992 208.476 151.992 207.609 152.525C206.609 153.058 206.475 154.325 206.475 154.991C206.475 158.523 206.475 159.19 206.609 160.923C206.609 161.656 206.676 162.522 206.742 163.855C206.809 164.921 206.876 165.921 207.476 166.654C207.943 167.187 208.676 167.521 209.743 167.587C212.677 167.587 215.545 167.521 218.279 167.454C223.947 167.321 229.282 167.187 234.883 167.454C235.683 167.521 237.684 167.254 238.017 166.654C238.417 165.988 238.417 165.188 238.417 164.455C238.417 162.589 238.351 161.922 238.284 161.256C238.217 160.589 238.151 159.923 238.151 158.057C238.151 157.657 238.151 157.257 238.151 156.791C238.217 155.391 238.284 153.791 237.751 152.725C237.551 151.992 236.75 151.659 235.417 151.659Z" fill="#B8D4F7"/>
<path d="M212.702 162.874C211.568 162.874 210.368 162.407 209.968 161.408C209.901 161.274 209.968 161.074 210.168 161.008C210.368 160.941 210.501 161.008 210.568 161.208C210.901 162.074 212.302 162.474 213.369 162.207C213.769 162.141 214.302 161.941 214.636 161.541C214.836 161.274 214.969 160.875 214.969 160.475C214.903 159.475 214.036 158.542 212.969 158.342C212.769 158.275 212.569 158.275 212.369 158.275C211.835 158.209 211.302 158.142 210.835 157.809C210.301 157.409 210.101 156.609 210.301 155.876C210.635 154.943 211.502 154.21 212.569 154.01C213.702 153.877 214.836 154.476 215.169 155.343C215.236 155.543 215.169 155.676 214.969 155.743C214.769 155.809 214.636 155.743 214.569 155.543C214.302 154.876 213.435 154.476 212.635 154.61C211.835 154.743 211.168 155.276 210.901 156.009C210.768 156.409 210.768 156.942 211.168 157.209C211.435 157.409 211.902 157.476 212.369 157.542C212.569 157.542 212.769 157.609 213.035 157.609C214.436 157.875 215.569 159.075 215.569 160.341C215.569 160.941 215.436 161.474 215.103 161.808C214.636 162.341 213.969 162.541 213.502 162.674C213.235 162.874 212.969 162.874 212.702 162.874Z" fill="#636464"/>
<path d="M217.97 162.607C217.77 162.607 217.636 162.474 217.636 162.274C217.57 160.608 217.77 158.875 218.103 157.209C218.303 156.409 218.503 155.543 219.037 154.876C219.17 154.676 219.303 154.543 219.57 154.41C219.97 154.276 220.37 154.41 220.637 154.676C220.837 154.876 220.971 155.143 221.037 155.476C221.837 157.675 222.304 159.941 222.504 162.207C222.504 162.407 222.371 162.541 222.238 162.541C222.038 162.541 221.904 162.407 221.904 162.274C221.704 160.075 221.237 157.875 220.437 155.743C220.37 155.543 220.304 155.343 220.17 155.21C220.037 155.076 219.904 155.076 219.77 155.076C219.704 155.076 219.637 155.21 219.57 155.276C219.103 155.876 218.903 156.676 218.77 157.409C218.437 159.008 218.236 160.675 218.303 162.274C218.303 162.407 218.17 162.607 217.97 162.607Z" fill="#636464"/>
<path d="M217.97 159.542C217.77 159.542 217.636 159.408 217.636 159.275C217.636 159.075 217.77 158.942 217.903 158.942L219.837 158.808C220.637 158.742 221.571 158.675 222.438 158.875C222.638 158.942 222.704 159.075 222.704 159.275C222.638 159.475 222.504 159.542 222.304 159.542C221.504 159.342 220.704 159.408 219.904 159.475L217.97 159.542C218.036 159.542 217.97 159.542 217.97 159.542Z" fill="#636464"/>
<path d="M225.439 162.674C225.372 162.674 225.305 162.674 225.238 162.607C225.172 162.541 225.105 162.474 225.105 162.341C225.105 161.541 225.105 160.741 225.105 160.008C225.105 158.209 225.105 156.542 224.838 154.743C224.838 154.543 224.905 154.41 225.105 154.343C225.305 154.343 225.439 154.41 225.505 154.61C225.772 156.476 225.772 158.142 225.772 159.941C225.772 160.608 225.772 161.274 225.772 161.941C226.972 161.874 228.173 161.874 229.373 161.941C229.573 161.941 229.706 162.141 229.64 162.274C229.64 162.474 229.44 162.607 229.306 162.541C228.039 162.541 226.772 162.541 225.439 162.674Z" fill="#636464"/>
<path d="M231.04 162.607C230.973 162.607 230.907 162.607 230.84 162.541C230.773 162.474 230.773 162.407 230.707 162.341C230.707 159.608 230.507 157.009 230.307 154.543C230.307 154.476 230.307 154.343 230.373 154.276C230.44 154.21 230.507 154.143 230.64 154.143C232.04 154.143 233.508 154.21 234.908 154.343C235.108 154.343 235.241 154.543 235.175 154.676C235.175 154.876 234.975 155.01 234.841 154.943C233.574 154.81 232.307 154.743 230.973 154.743C231.174 157.009 231.307 159.408 231.374 161.874C232.574 161.874 233.774 161.874 234.908 161.874C235.108 161.874 235.241 162.007 235.241 162.207C235.241 162.407 235.108 162.541 234.908 162.541C233.641 162.607 232.374 162.607 231.04 162.607Z" fill="#636464"/>
<path d="M230.373 159.342C230.173 159.342 230.04 159.208 230.04 159.008C230.04 158.809 230.173 158.675 230.307 158.675C231.574 158.609 232.774 158.542 234.041 158.542C234.241 158.542 234.375 158.675 234.375 158.875C234.375 159.075 234.241 159.208 234.041 159.208C232.907 159.208 231.64 159.275 230.373 159.342Z" fill="#636464"/>
<path d="M207.142 154.924C207.075 154.924 207.009 154.858 207.009 154.791C207.009 154.391 207.142 154.058 207.342 153.725C207.409 153.658 207.476 153.658 207.476 153.725C207.542 153.791 207.542 153.858 207.476 153.858C207.276 154.125 207.209 154.458 207.209 154.791C207.276 154.858 207.209 154.924 207.142 154.924Z" fill="#B8D4F7"/>
<path d="M208.009 153.458H207.942C207.875 153.391 207.875 153.325 207.942 153.325C208.209 153.058 208.542 152.925 208.942 152.792C209.409 152.658 209.943 152.525 210.476 152.458C210.543 152.458 210.609 152.525 210.609 152.525C210.609 152.592 210.543 152.658 210.543 152.658C210.076 152.725 209.543 152.792 209.076 152.992C208.742 153.058 208.409 153.192 208.209 153.458C208.075 153.458 208.009 153.458 208.009 153.458Z" fill="#B8D4F7"/>
<path d="M236.95 166.788C236.884 166.788 236.884 166.788 236.884 166.721C236.884 166.654 236.884 166.588 236.95 166.588C237.151 166.521 237.351 166.321 237.417 166.054C237.551 165.854 237.617 165.588 237.617 165.321C237.751 164.721 237.751 164.055 237.751 163.455C237.751 163.389 237.817 163.322 237.884 163.322C237.951 163.322 238.017 163.389 238.017 163.455C238.017 164.122 237.951 164.721 237.884 165.388C237.817 165.655 237.751 165.921 237.617 166.188C237.417 166.521 237.217 166.721 236.95 166.788Z" fill="#B8D4F7"/>
<path d="M234.95 167.054C234.817 167.054 234.617 167.054 234.483 167.054C234.417 167.054 234.35 166.987 234.35 166.921C234.35 166.854 234.417 166.787 234.483 166.787C234.95 166.854 235.484 166.787 235.951 166.721C236.017 166.721 236.084 166.721 236.084 166.787C236.084 166.854 236.084 166.921 236.017 166.921C235.684 166.987 235.284 167.054 234.95 167.054Z" fill="#B8D4F7"/>
<g opacity="0.1294">
<path d="M224.013 168.853C223.48 168.853 222.946 168.92 222.346 168.92C221.813 168.987 221.279 168.854 220.813 168.987C220.212 169.187 220.412 170.053 221.013 170.053C221.88 170.053 222.746 170.12 223.613 170.12C223.747 170.12 224.08 170.12 224.08 170.12C224.28 170.12 224.48 170.053 224.614 169.92C225.214 169.453 224.68 168.654 224.013 168.853Z" fill="#B8D4F7"/>
</g>
<path d="M104.241 112.736C104.007 112.048 103.974 111.267 104.509 110.736C105.044 110.204 105.814 109.954 106.55 109.704C112.472 107.735 118.428 105.798 124.35 103.829C125.153 103.579 126.023 103.485 126.558 103.985C127.361 104.766 127.696 106.329 128.098 107.485C129.001 109.986 129.871 112.486 130.774 114.986C130.975 115.517 131.142 116.048 131.042 116.58C130.942 117.111 129.469 117.736 128.901 117.892C122.744 119.517 117.123 121.643 110.699 123.705C110.063 123.83 109.327 123.893 108.758 123.58C108.089 123.236 107.754 122.518 107.487 121.861C106.249 118.861 105.412 116.017 104.241 112.736Z" fill="white"/>
<path d="M109.729 123.955C109.294 123.955 108.926 123.861 108.625 123.705C107.922 123.33 107.588 122.611 107.287 121.893C106.517 120.049 105.948 118.267 105.312 116.392C104.911 115.236 104.509 114.017 104.041 112.736C103.74 111.861 103.84 111.079 104.342 110.579C104.911 110.017 105.747 109.736 106.45 109.517L124.25 103.641C125.321 103.298 126.124 103.36 126.626 103.86C127.262 104.485 127.596 105.548 127.931 106.579C128.031 106.86 128.098 107.142 128.198 107.392L130.875 114.892C131.043 115.392 131.277 115.986 131.143 116.58C131.009 117.236 129.403 117.861 128.868 118.017C124.752 119.111 120.904 120.392 116.856 121.768C114.882 122.455 112.807 123.143 110.666 123.83C110.365 123.924 110.03 123.955 109.729 123.955ZM125.488 103.735C125.187 103.735 124.819 103.798 124.384 103.954L106.584 109.829C105.915 110.048 105.112 110.298 104.61 110.829C104.041 111.392 104.208 112.236 104.376 112.673C104.844 113.955 105.245 115.142 105.647 116.33C106.283 118.205 106.885 119.955 107.621 121.799C107.889 122.486 108.19 123.143 108.792 123.455C109.227 123.674 109.829 123.736 110.632 123.549C112.774 122.861 114.815 122.174 116.789 121.486C120.871 120.111 124.719 118.799 128.834 117.705C129.503 117.517 130.808 116.923 130.875 116.517C130.976 116.017 130.775 115.455 130.608 114.986L127.931 107.485C127.83 107.235 127.764 106.954 127.663 106.642C127.362 105.704 127.027 104.61 126.425 104.048C126.191 103.86 125.89 103.735 125.488 103.735Z" fill="#23274D"/>
<path d="M110.331 122.799C109.963 122.799 109.662 122.736 109.394 122.611C108.792 122.299 108.491 121.674 108.223 121.049C107.554 119.392 107.019 117.799 106.45 116.142C106.115 115.111 105.747 114.017 105.312 112.892C105.045 112.142 105.145 111.486 105.58 111.048C106.082 110.548 106.818 110.298 107.487 110.079L123.849 104.704C124.785 104.391 125.488 104.454 125.923 104.86C126.492 105.423 126.793 106.36 127.094 107.267C127.161 107.517 127.261 107.767 127.328 108.017L129.737 114.736C129.905 115.173 130.072 115.705 129.972 116.205C129.871 116.736 128.466 117.299 127.964 117.455C124.183 118.455 120.67 119.642 116.923 120.924C115.082 121.549 113.209 122.174 111.268 122.799C110.9 122.768 110.599 122.799 110.331 122.799ZM124.919 104.548C124.618 104.548 124.284 104.61 123.882 104.735L107.521 110.111C106.885 110.329 106.149 110.548 105.68 111.048C105.111 111.579 105.279 112.361 105.446 112.798C105.848 113.955 106.216 115.017 106.584 116.08C107.152 117.767 107.688 119.33 108.357 120.986C108.625 121.611 108.892 122.205 109.461 122.518C109.896 122.736 110.465 122.768 111.201 122.611C113.142 121.986 115.049 121.361 116.856 120.736C120.603 119.486 124.116 118.267 127.897 117.267C128.432 117.111 129.737 116.548 129.838 116.111C129.938 115.642 129.771 115.142 129.604 114.705L127.194 107.985C127.128 107.767 127.027 107.517 126.96 107.235C126.693 106.392 126.391 105.423 125.823 104.891C125.622 104.673 125.321 104.548 124.919 104.548Z" fill="#23274D"/>
<path d="M111.033 109.548C110.565 109.579 110.13 109.923 110.063 110.361C109.996 110.798 110.364 111.267 110.833 111.361C111.301 111.423 111.803 111.079 111.903 110.642C111.97 110.142 111.636 109.517 111.033 109.548Z" fill="white"/>
<path d="M110.967 111.486C110.933 111.486 110.866 111.486 110.833 111.486C110.264 111.392 109.829 110.861 109.896 110.329C109.963 109.829 110.465 109.423 111 109.392C111.268 109.361 111.535 109.486 111.736 109.673C111.97 109.923 112.104 110.298 112.071 110.642C111.97 111.111 111.502 111.486 110.967 111.486ZM111.034 109.704C110.632 109.736 110.264 110.017 110.231 110.361C110.164 110.736 110.498 111.111 110.866 111.173C111.268 111.236 111.669 110.954 111.736 110.579C111.77 110.361 111.669 110.048 111.502 109.892C111.402 109.798 111.268 109.673 111.034 109.704Z" fill="#23274D"/>
<path d="M121.238 106.329C120.77 106.36 120.335 106.704 120.268 107.142C120.201 107.579 120.569 108.048 121.038 108.142C121.506 108.204 122.008 107.86 122.108 107.423C122.209 106.985 121.841 106.266 121.238 106.329Z" fill="white"/>
<path d="M121.172 108.267C121.138 108.267 121.071 108.267 121.038 108.267C120.469 108.173 120.034 107.642 120.101 107.11C120.168 106.61 120.67 106.204 121.205 106.173C121.473 106.142 121.741 106.267 121.941 106.454C122.176 106.704 122.309 107.079 122.276 107.423C122.209 107.892 121.707 108.267 121.172 108.267ZM121.306 106.485H121.272C120.871 106.517 120.503 106.798 120.469 107.142C120.402 107.517 120.737 107.892 121.105 107.954C121.506 108.017 121.908 107.735 121.975 107.36C122.008 107.142 121.908 106.829 121.741 106.673C121.64 106.579 121.506 106.485 121.306 106.485Z" fill="#23274D"/>
<path d="M110.866 110.267C110.833 110.267 110.833 110.267 110.799 110.267C110.699 110.236 110.666 110.142 110.699 110.079C111.669 107.579 112.907 105.266 114.413 102.485C114.647 102.048 114.881 101.672 115.183 101.329C115.316 101.172 115.551 100.954 115.852 100.891C116.521 100.766 117.09 101.422 117.257 101.641C117.759 102.235 118.227 102.798 118.662 103.36C119.733 104.641 120.737 105.86 121.473 106.704C121.54 106.767 121.506 106.86 121.439 106.923C121.373 106.985 121.272 106.954 121.205 106.892C120.436 106.048 119.432 104.829 118.395 103.548C117.926 102.985 117.458 102.423 116.989 101.829C116.588 101.329 116.22 101.141 115.919 101.204C115.751 101.235 115.584 101.329 115.417 101.516C115.116 101.829 114.915 102.204 114.681 102.61C113.175 105.36 111.971 107.673 111 110.173C111 110.236 110.933 110.267 110.866 110.267Z" fill="#23274D"/>
<path d="M115.952 100.485C115.684 100.454 115.417 100.579 115.283 100.766C115.116 100.954 115.082 101.204 115.116 101.454C115.149 101.547 115.183 101.641 115.25 101.704C115.283 101.735 115.35 101.766 115.383 101.797C115.584 101.891 115.785 101.923 115.986 101.891C116.186 101.829 116.354 101.672 116.454 101.485C116.487 101.391 116.554 101.329 116.554 101.235C116.554 101.172 116.554 101.11 116.521 101.047C116.421 100.766 116.253 100.516 115.952 100.485Z" fill="#B8D4F7"/>
<path d="M115.818 102.016C115.651 102.016 115.484 101.985 115.316 101.891C115.249 101.86 115.182 101.829 115.149 101.798C115.049 101.735 115.015 101.61 114.982 101.485C114.915 101.204 114.982 100.891 115.182 100.672C115.383 100.422 115.718 100.297 116.019 100.329C116.32 100.36 116.554 100.579 116.722 100.922C116.755 101.016 116.788 101.11 116.788 101.172C116.788 101.298 116.722 101.391 116.688 101.485C116.521 101.735 116.32 101.923 116.119 101.985C115.952 102.016 115.885 102.016 115.818 102.016ZM115.852 100.61C115.684 100.61 115.517 100.704 115.383 100.829C115.249 100.985 115.216 101.204 115.249 101.391C115.283 101.454 115.283 101.516 115.316 101.548C115.35 101.579 115.383 101.579 115.417 101.61C115.617 101.704 115.785 101.735 115.885 101.704C116.019 101.673 116.153 101.548 116.287 101.36C116.32 101.298 116.353 101.235 116.353 101.172C116.353 101.141 116.353 101.079 116.32 101.047C116.22 100.797 116.086 100.672 115.885 100.641C115.918 100.61 115.885 100.61 115.852 100.61Z" fill="#23274D"/>
<path d="M121.874 110.548C121.808 110.548 121.741 110.517 121.707 110.454C121.674 110.361 121.741 110.298 121.808 110.267C122.878 109.954 123.949 109.611 124.986 109.204C125.053 109.173 125.153 109.204 125.187 109.298C125.22 109.361 125.187 109.454 125.087 109.486C124.049 109.892 122.979 110.236 121.908 110.548H121.874Z" fill="#006FFD"/>
<path d="M111.702 119.392C111.636 119.392 111.569 119.361 111.535 119.299C111.334 118.767 111.134 118.205 110.933 117.642C110.899 117.642 110.866 117.674 110.866 117.674C110.799 117.705 110.699 117.674 110.665 117.611C110.632 117.549 110.665 117.455 110.732 117.424C110.766 117.392 110.799 117.392 110.833 117.361C110.498 116.424 110.096 115.517 109.728 114.58C109.695 114.517 109.728 114.423 109.829 114.392C110.197 114.236 110.565 114.111 110.933 114.048C111.1 114.017 111.334 113.986 111.535 114.017C111.903 114.08 112.204 114.267 112.505 114.642C112.773 114.986 112.874 115.33 112.84 115.642C112.807 115.955 112.639 116.298 112.305 116.642C112.104 116.861 111.903 117.049 111.669 117.205C112.606 117.142 113.576 117.549 114.078 118.236C114.112 118.299 114.112 118.392 114.045 118.455C113.978 118.486 113.877 118.486 113.81 118.424C113.308 117.705 112.238 117.361 111.267 117.58C111.468 118.142 111.669 118.674 111.87 119.236C111.903 119.33 111.836 119.392 111.769 119.424C111.736 119.392 111.702 119.392 111.702 119.392ZM110.063 114.548C110.431 115.423 110.766 116.298 111.1 117.142C111.468 116.924 111.769 116.674 112.037 116.392C112.305 116.08 112.472 115.83 112.505 115.58C112.539 115.33 112.439 115.048 112.204 114.767C111.97 114.455 111.736 114.298 111.468 114.267C111.301 114.236 111.134 114.267 110.966 114.298C110.665 114.361 110.364 114.423 110.063 114.548Z" fill="#006FFD"/>
<path d="M115.717 117.892C115.651 117.892 115.584 117.861 115.55 117.799C114.981 116.173 114.379 114.642 113.743 113.236C113.71 113.204 113.71 113.142 113.743 113.111C113.777 113.079 113.81 113.048 113.844 113.017C114.714 112.767 115.584 112.486 116.454 112.142C116.52 112.111 116.621 112.142 116.654 112.236C116.688 112.298 116.654 112.392 116.554 112.423C115.751 112.736 114.914 113.017 114.111 113.236C114.747 114.611 115.316 116.111 115.885 117.674C115.918 117.767 115.851 117.83 115.784 117.861C115.751 117.892 115.751 117.892 115.717 117.892Z" fill="#006FFD"/>
<path d="M114.814 116.205C114.747 116.205 114.68 116.173 114.647 116.111C114.613 116.017 114.647 115.955 114.747 115.923L116.721 115.267C116.822 115.236 116.889 115.267 116.922 115.361C116.956 115.455 116.922 115.517 116.822 115.548L114.848 116.205H114.814Z" fill="#006FFD"/>
<path d="M115.717 117.892C115.651 117.892 115.584 117.861 115.55 117.799C115.517 117.736 115.55 117.642 115.651 117.611C116.487 117.267 117.39 116.986 118.26 116.705C118.361 116.674 118.428 116.736 118.461 116.799C118.495 116.892 118.428 116.955 118.361 116.986C117.491 117.236 116.621 117.549 115.784 117.892C115.751 117.892 115.751 117.892 115.717 117.892Z" fill="#006FFD"/>
<path d="M119.565 116.549C119.498 116.549 119.431 116.517 119.398 116.424C118.93 114.83 118.361 113.298 117.758 111.829C117.725 111.767 117.758 111.704 117.792 111.642C117.859 111.611 117.926 111.579 117.993 111.642C119.03 112.204 119.866 112.986 120.703 113.736C121.104 114.111 121.506 114.486 121.974 114.83C121.439 113.705 121.037 112.517 120.669 111.361C120.603 111.173 120.536 111.017 120.502 110.829C120.469 110.736 120.536 110.673 120.603 110.642C120.703 110.611 120.77 110.673 120.803 110.736C120.87 110.923 120.937 111.079 120.971 111.267C121.406 112.611 121.874 114.017 122.577 115.298C122.61 115.361 122.577 115.455 122.543 115.486C122.476 115.517 122.409 115.517 122.342 115.486C121.673 115.017 121.071 114.455 120.502 113.923C119.766 113.267 119.063 112.642 118.26 112.111C118.796 113.455 119.298 114.861 119.733 116.298C119.766 116.392 119.699 116.455 119.632 116.486C119.565 116.549 119.565 116.549 119.565 116.549Z" fill="#006FFD"/>
<path d="M125.253 114.517C125.186 114.517 125.119 114.486 125.086 114.423C124.45 112.955 123.848 111.423 123.279 109.923C123.246 109.829 123.279 109.767 123.38 109.736C123.48 109.704 123.547 109.736 123.58 109.829C124.149 111.329 124.751 112.861 125.387 114.33C125.421 114.423 125.387 114.486 125.287 114.517C125.32 114.517 125.287 114.517 125.253 114.517Z" fill="#006FFD"/>
<g opacity="0.1294">
<path d="M130.908 116.298C130.607 116.142 130.473 116.517 130.406 116.548C130.273 116.673 129.971 116.861 129.67 116.955C128.934 117.267 127.997 117.486 127.127 117.705C126.559 117.861 125.99 118.08 125.421 118.267C124.484 118.611 123.514 118.955 122.543 119.205C121.908 119.392 121.272 119.642 120.636 119.83C118.997 120.267 117.424 120.83 115.785 121.33C113.777 122.018 111.201 122.893 109.427 123.205C109.193 123.236 109.26 123.205 108.859 123.236C108.825 123.236 108.792 123.236 108.725 123.268C108.424 123.361 108.524 123.83 108.859 123.83C109.126 123.83 109.427 123.861 109.695 123.83C110.231 123.768 110.732 123.58 111.268 123.455C113.075 122.986 114.748 122.236 116.554 121.705C117.458 121.424 118.361 121.142 119.264 120.861C120.168 120.611 121.071 120.361 121.908 120.049C122.477 119.861 123.045 119.705 123.614 119.517C124.584 119.174 125.388 118.861 126.458 118.486C127.228 118.205 128.031 118.08 128.8 117.861C129.302 117.736 129.771 117.486 130.239 117.298C130.507 117.142 131.377 116.611 130.908 116.298Z" fill="#23274D"/>
</g>
<path d="M23.3306 125.736C16.5641 124.908 9.52144 128.772 6.20723 134.707C2.89303 140.641 3.03113 148.37 6.34533 154.442C7.86434 157.341 10.2119 159.825 13.1118 161.205C15.5975 162.309 18.3593 162.447 21.1211 162.585C23.1925 162.585 25.402 162.585 27.3353 161.757C28.9924 161.067 30.3733 159.963 31.6161 158.721C36.5874 153.752 38.935 146.3 37.416 139.537C35.8969 132.498 30.0971 126.426 23.3306 125.736Z" fill="white"/>
<path d="M21.9498 163.137C21.6736 163.137 21.3975 163.137 21.1213 163.137C18.4975 163.137 15.5976 162.999 12.9739 161.757C9.38347 160.101 7.17401 157.065 5.79309 154.718C2.3408 148.37 2.20271 140.365 5.655 134.431C9.24538 128.082 16.5642 124.218 23.4688 125.046C30.3734 125.874 36.4495 131.808 38.2446 139.261C39.7637 146.024 37.4161 153.89 32.1686 159.135C30.6496 160.653 29.1306 161.757 27.6116 162.309C25.6783 162.999 23.745 163.137 21.9498 163.137ZM21.5355 126.288C15.7357 126.288 9.79775 129.738 6.75973 135.121C3.58362 140.779 3.72171 148.232 6.89782 154.166C8.00256 156.375 10.0739 159.135 13.3881 160.653C15.8738 161.757 18.6356 161.895 21.1213 161.895C23.0546 161.895 25.264 161.895 27.0592 161.205C28.4401 160.653 29.683 159.687 31.0639 158.307C35.8971 153.338 38.1066 146.024 36.7256 139.675C35.2066 132.774 29.4068 127.254 23.1926 126.564C22.6403 126.288 22.0879 126.288 21.5355 126.288Z" fill="#D1D6DD"/>
<path d="M20.8451 181.217C20.4309 181.217 20.1547 180.941 20.1547 180.527L20.0166 135.397C20.0166 134.983 20.2928 134.707 20.7071 134.707C21.1213 134.707 21.3975 134.983 21.3975 135.397L21.5356 180.527C21.3975 180.941 21.1213 181.217 20.8451 181.217Z" fill="#D1D6DD"/>
<path d="M20.8449 154.304C20.7068 154.304 20.7068 154.304 20.5687 154.304C20.2925 154.166 20.0163 153.752 20.1544 153.476C21.8115 149.612 24.5733 146.162 28.1637 143.815C28.4399 143.677 28.8542 143.677 29.1304 143.953C29.2685 144.229 29.2685 144.643 28.9923 144.919C25.6781 147.128 23.0543 150.302 21.5353 154.028C21.2591 154.166 21.121 154.304 20.8449 154.304Z" fill="#D1D6DD"/>
<path d="M8.00311 142.435C7.86502 142.435 7.86502 142.297 7.72693 142.297C7.45074 140.227 8.00311 138.157 9.24593 136.501C9.38403 136.363 9.52212 136.363 9.52212 136.501C9.66021 136.639 9.66021 136.777 9.52212 136.777C8.41738 138.295 7.86502 140.365 8.1412 142.159C8.1412 142.297 8.1412 142.435 8.00311 142.435Z" fill="#D1D6DD"/>
<path d="M10.6263 142.849C10.4882 142.849 10.3501 142.711 10.3501 142.573L10.9025 139.399C10.9025 139.261 11.0406 139.261 11.1786 139.261C11.3167 139.261 11.3167 139.399 11.3167 139.537L10.7644 142.711C10.9025 142.711 10.7644 142.849 10.6263 142.849Z" fill="#D1D6DD"/>
<path d="M28.9929 156.789C28.9929 156.789 28.8548 156.789 28.8548 156.651C28.7167 156.513 28.8548 156.374 28.8548 156.374C30.3738 155.27 31.4786 153.752 32.169 151.958C32.169 151.82 32.3071 151.82 32.4452 151.82C32.5833 151.82 32.5833 151.958 32.5833 152.096C31.7548 153.89 30.65 155.546 28.9929 156.789Z" fill="#D1D6DD"/>
<g opacity="0.1294">
<path d="M33.4118 153.89C32.8594 153.89 32.5832 154.304 32.1689 154.718C31.4785 155.408 30.9261 156.099 30.2356 156.789C29.5452 157.341 28.1643 158.307 26.7834 158.997C26.6453 159.135 26.5072 159.135 26.3691 159.135C25.8167 159.273 25.1262 159.549 24.5739 159.549H24.4358C24.2977 159.549 24.2977 159.549 24.2977 159.549C22.2263 159.825 20.293 159.411 16.4265 158.583C14.9075 158.169 15.4598 158.307 14.0789 157.755C13.8027 157.755 12.9742 157.341 12.698 157.203C11.3171 156.513 10.6266 156.099 10.0743 155.546C9.52188 155.132 9.2457 154.58 8.69333 154.304C7.45051 153.752 6.34578 155.408 7.31242 156.375C8.41715 157.479 9.65998 158.445 11.0409 159.135C11.3171 159.273 12.5599 159.825 12.9742 159.963C14.6313 160.791 14.9075 161.067 16.2884 161.481C17.6693 162.033 19.0502 162.309 20.4311 162.447C21.812 162.723 23.193 162.723 24.5739 162.447C25.6786 162.171 26.6453 161.757 27.6119 161.205C29.5452 160.239 31.4785 159.135 32.8594 157.479C33.4118 156.927 33.9641 156.237 34.5165 155.684C34.7927 155.408 34.7927 155.132 34.7927 154.856C34.6546 154.442 34.1022 153.89 33.4118 153.89Z" fill="#D1D6DD"/>
</g>
</svg>