<svg width="307" height="227" viewBox="0 0 307 227" fill="none" xmlns="http://www.w3.org/2000/svg">
<rect x="0.288841" y="0.610374" width="134.694" height="174.259" rx="11.2049" fill="white"/>
<rect x="9.19531" y="100.423" width="74.6702" height="4.3287" rx="2.16435" fill="#D9D9D9"/>
<rect x="9.19531" y="111.245" width="65.4717" height="2.16435" rx="1.08218" fill="#D9D9D9"/>
<rect x="9.19531" y="119.902" width="111.464" height="1.62326" rx="0.811632" fill="#D9D9D9"/>
<rect x="9.19531" y="128.018" width="111.464" height="2.16435" rx="1.08218" fill="#D9D9D9"/>
<rect opacity="0.2" x="10.5078" y="16.0472" width="113.905" height="66.7281" rx="8.92542" fill="#A3AEBB"/>
<path d="M64.912 21.929L64.3828 82.2611H96.1366L96.5335 22.0613L64.912 21.929Z" fill="white"/>
<path d="M96.1395 82.5922H64.3857C64.3196 82.5922 64.1873 82.526 64.1873 82.526C64.1211 82.4599 64.1211 82.3937 64.1211 82.3276L64.5842 21.9954C64.5842 21.797 64.7165 21.6647 64.9149 21.6647L96.5364 21.797C96.6025 21.797 96.7349 21.8631 96.7349 21.8631C96.801 21.9293 96.801 21.9954 96.801 22.0616L96.4041 82.1953C96.4703 82.4599 96.3379 82.5922 96.1395 82.5922ZM64.7165 81.9307H95.8087L96.2056 22.3924L65.2457 22.2601L64.7165 81.9307Z" fill="#636464"/>
<path d="M77.019 41.2456C75.0344 41.2456 72.719 41.1795 70.7344 41.1133C70.7344 39.1287 70.7344 36.9456 70.7344 34.8287C72.7851 34.6964 74.8359 34.6964 77.019 34.8287C77.1513 36.9456 77.0851 38.9964 77.019 41.2456Z" fill="#006FFD"/>
<path d="M77.0218 41.5766C76.0295 41.5766 74.9711 41.5766 73.9127 41.5104C72.8542 41.5104 71.7957 41.4443 70.8034 41.4443C70.605 41.4443 70.4727 41.312 70.4727 41.1135V40.5843C70.4727 38.732 70.4727 36.7474 70.4727 34.8289C70.4727 34.6305 70.605 34.4982 70.8034 34.4982C72.8542 34.3658 74.9049 34.3658 77.1542 34.4982C77.3526 34.4982 77.4849 34.6305 77.4849 34.8289C77.5511 36.8135 77.4849 38.8643 77.4188 41.2458C77.3526 41.4443 77.2203 41.5766 77.0218 41.5766ZM71.068 40.8489C71.9942 40.8489 72.9203 40.8489 73.9127 40.9151C74.8388 40.9151 75.8311 40.9812 76.6911 40.9812C76.7572 38.8643 76.7573 37.012 76.7573 35.2259C74.7726 35.1597 72.9203 35.1597 71.068 35.2259C71.068 37.012 71.068 38.8643 71.068 40.6504V40.8489Z" fill="#636464"/>
<path d="M90.1088 41.2461C88.1242 41.2461 85.8088 41.18 83.8242 41.1138C83.8242 39.1292 83.8242 36.9461 83.8242 34.8292C85.875 34.6969 87.9257 34.6969 90.1088 34.8292C90.2411 36.9461 90.175 38.9969 90.1088 41.2461Z" fill="#006FFD"/>
<path d="M90.1117 41.5766C89.1194 41.5766 88.061 41.5766 87.0025 41.5104C85.944 41.5104 84.8856 41.4443 83.8933 41.4443C83.6948 41.4443 83.5625 41.312 83.5625 41.1135V40.5843C83.5625 38.732 83.5625 36.7474 83.5625 34.8289C83.5625 34.6305 83.6948 34.4982 83.8933 34.4982C85.944 34.3658 87.9948 34.3658 90.244 34.4982C90.4425 34.4982 90.5748 34.6305 90.5748 34.8289C90.6409 36.8135 90.5748 38.8643 90.5086 41.2458C90.4425 41.4443 90.3102 41.5766 90.1117 41.5766ZM84.1579 40.8489C85.0841 40.8489 86.0102 40.8489 87.0025 40.9151C87.9286 40.9151 88.921 40.9812 89.781 40.9812C89.8471 38.8643 89.8471 37.012 89.8471 35.2259C87.8625 35.1597 86.0102 35.1597 84.1579 35.2259C84.1579 37.012 84.1579 38.8643 84.1579 40.6504V40.8489Z" fill="#636464"/>
<path d="M76.8198 54.6751C74.8351 54.6751 72.5198 54.6089 70.5352 54.5428C70.5352 52.5582 70.5352 50.3751 70.5352 48.2582C72.5859 48.1259 74.6367 48.1259 76.8198 48.2582C76.9521 50.3751 76.9521 52.4259 76.8198 54.6751Z" fill="#006FFD"/>
<path d="M76.8226 55.0058C75.8303 55.0058 74.7719 55.0058 73.7134 54.9396C72.6549 54.9396 71.5965 54.8735 70.6042 54.8735C70.4057 54.8735 70.2734 54.7412 70.2734 54.5427V54.0135C70.2734 52.1612 70.2734 50.1766 70.2734 48.2581C70.2734 48.0597 70.4057 47.9274 70.6042 47.9274C72.655 47.795 74.7057 47.795 76.9549 47.9274C77.1534 47.9274 77.2857 48.0597 77.2857 48.2581C77.3519 50.2427 77.2857 52.2935 77.2196 54.675C77.1534 54.8735 77.0211 55.0058 76.8226 55.0058ZM70.935 54.2781C71.8611 54.2781 72.7873 54.2781 73.7796 54.3443C74.7057 54.3443 75.698 54.4104 76.558 54.4104C76.6242 52.2935 76.6242 50.4412 76.6242 48.655C74.6396 48.5889 72.7873 48.5889 70.935 48.655C70.935 50.4412 70.935 52.2935 70.935 54.0796V54.2781Z" fill="#636464"/>
<path d="M89.9174 54.6751C87.9328 54.6751 85.6174 54.6089 83.6328 54.5428C83.6328 52.5582 83.6328 50.3751 83.6328 48.2582C85.6836 48.1259 87.7343 48.1259 89.9174 48.2582C90.0497 50.3751 90.0497 52.4259 89.9174 54.6751Z" fill="#006FFD"/>
<path d="M89.9203 55.0058C88.928 55.0058 87.8696 55.0058 86.8111 54.9396C85.7526 54.9396 84.6942 54.8735 83.7019 54.8735C83.5034 54.8735 83.3711 54.7412 83.3711 54.5427V54.0135C83.3711 52.1612 83.3711 50.1766 83.3711 48.2581C83.3711 48.0597 83.5034 47.9274 83.7019 47.9274C85.7526 47.795 87.8034 47.795 90.0526 47.9274C90.2511 47.9274 90.3834 48.0597 90.3834 48.2581C90.4495 50.2427 90.3834 52.2935 90.3172 54.675C90.2511 54.8735 90.1187 55.0058 89.9203 55.0058ZM84.0326 54.2781C84.9588 54.2781 85.8849 54.2781 86.8772 54.3443C87.8034 54.3443 88.7957 54.4104 89.6557 54.4104C89.7218 52.2935 89.7218 50.4412 89.7218 48.655C87.7372 48.5889 85.8849 48.5889 84.0326 48.655C84.0326 50.4412 84.0326 52.2935 84.0326 54.0796V54.2781Z" fill="#636464"/>
<path d="M76.8198 68.1703C74.8351 68.1703 72.5198 68.1042 70.5352 68.038C70.5352 66.0534 70.5352 63.8703 70.5352 61.7534C72.5859 61.6211 74.6367 61.6211 76.8198 61.7534C76.9521 63.8042 76.9521 65.8549 76.8198 68.1703Z" fill="#006FFD"/>
<path d="M76.8226 68.5013C75.8303 68.5013 74.7719 68.5013 73.7134 68.4351C72.6549 68.4351 71.5965 68.369 70.6042 68.369C70.4057 68.369 70.2734 68.2367 70.2734 68.0382V67.509C70.2734 65.6567 70.2734 63.6721 70.2734 61.7536C70.2734 61.5551 70.4057 61.4228 70.6042 61.4228C72.655 61.2905 74.7057 61.2905 76.9549 61.4228C77.1534 61.4228 77.2857 61.5551 77.2857 61.7536C77.3519 63.7382 77.2857 65.789 77.2196 68.1705C77.1534 68.3028 77.0211 68.5013 76.8226 68.5013ZM70.935 67.7074C71.8611 67.7074 72.7873 67.7074 73.7796 67.7736C74.7057 67.7736 75.698 67.8398 76.558 67.8398C76.6242 65.7228 76.6242 63.8705 76.6242 62.0844C74.6396 62.0182 72.7873 62.0182 70.935 62.0844C70.935 63.8705 70.935 65.7228 70.935 67.509V67.7074Z" fill="#636464"/>
<path d="M89.9174 68.1703C87.9328 68.1703 85.6174 68.1042 83.6328 68.038C83.6328 66.0534 83.6328 63.8703 83.6328 61.7534C85.6836 61.6211 87.7343 61.6211 89.9174 61.7534C90.0497 63.8042 90.0497 65.8549 89.9174 68.1703Z" fill="#006FFD"/>
<path d="M89.9203 68.5013C88.928 68.5013 87.8696 68.5013 86.8111 68.4351C85.7526 68.4351 84.6942 68.369 83.7019 68.369C83.5034 68.369 83.3711 68.2367 83.3711 68.0382V67.509C83.3711 65.6567 83.3711 63.6721 83.3711 61.7536C83.3711 61.5551 83.5034 61.4228 83.7019 61.4228C85.7526 61.2905 87.8034 61.2905 90.0526 61.4228C90.2511 61.4228 90.3834 61.5551 90.3834 61.7536C90.4495 63.7382 90.3834 65.789 90.3172 68.1705C90.2511 68.3028 90.1187 68.5013 89.9203 68.5013ZM84.0326 67.7074C84.9588 67.7074 85.8849 67.7074 86.8772 67.7736C87.8034 67.7736 88.7957 67.8398 89.6557 67.8398C89.7218 65.7228 89.7218 63.8705 89.7218 62.0844C87.7372 62.0182 85.8849 62.0182 84.0326 62.0844C84.0326 63.8705 84.0326 65.7228 84.0326 67.509V67.7074Z" fill="#636464"/>
<path d="M96.2694 25.6999C85.6848 25.3691 75.1002 25.303 64.8464 25.5015C64.6479 25.5015 64.5156 25.3692 64.5156 25.1707C64.5156 24.9722 64.6479 24.8399 64.8464 24.8399C75.1002 24.5753 85.6848 24.6415 96.2694 25.0384C96.4678 25.0384 96.6002 25.1707 96.6002 25.3691C96.6002 25.5676 96.4678 25.6999 96.2694 25.6999Z" fill="#636464"/>
<path d="M77.3986 37.1447L71.4448 37.0786C71.3787 37.0786 71.3125 37.0124 71.3125 36.9463C71.3125 36.8801 71.3787 36.814 71.4448 36.814L77.3986 36.8801C77.4648 36.8801 77.531 36.9463 77.531 37.0124C77.531 37.0786 77.4648 37.1447 77.3986 37.1447Z" fill="#EDEFF1"/>
<path d="M90.1279 37.1447C88.6725 37.0786 87.0186 37.0786 85.3648 37.0786C84.8355 37.0786 84.3725 37.0786 83.8433 37.0786C83.7771 37.0786 83.7109 37.0124 83.7109 36.9463C83.7109 36.8801 83.7771 36.814 83.8433 36.814C84.3063 36.814 84.8355 36.814 85.3648 36.814C87.0186 36.814 88.7386 36.814 90.194 36.8801C90.2601 36.8801 90.3263 36.9463 90.3263 37.0124C90.2602 37.0786 90.194 37.1447 90.1279 37.1447Z" fill="#EDEFF1"/>
<path d="M76.696 50.3093C75.836 50.3093 74.8437 50.3093 73.8514 50.3093C72.8591 50.3093 71.8007 50.3093 70.8745 50.3093C70.8083 50.3093 70.7422 50.2431 70.7422 50.177C70.7422 50.1108 70.8083 50.1108 70.8745 50.0447C71.8007 50.1108 72.793 50.0447 73.8514 50.0447C74.8437 50.0447 75.9022 50.0447 76.7622 50.0447C76.8284 50.0447 76.8945 50.1108 76.8945 50.177C76.7622 50.3093 76.7622 50.3093 76.696 50.3093Z" fill="#EDEFF1"/>
<path d="M89.9218 50.3093C88.5326 50.2431 86.2834 50.2431 83.9018 50.2431C83.8357 50.2431 83.7695 50.177 83.7695 50.1108C83.7695 50.0447 83.8357 49.9785 83.9018 49.9785C86.3495 49.9785 88.5326 49.9785 89.9218 50.0447C89.988 50.0447 90.0541 50.1108 90.0541 50.177C89.988 50.2431 89.9218 50.3093 89.9218 50.3093Z" fill="#EDEFF1"/>
<path d="M73.983 63.6724C72.8584 63.6724 71.7337 63.6725 70.6753 63.6063C70.6091 63.6063 70.543 63.5401 70.543 63.474C70.543 63.4078 70.6091 63.4078 70.6753 63.3417C72.1968 63.4078 73.7845 63.4078 75.306 63.4078C75.7691 63.4078 76.166 63.4078 76.6291 63.4078C76.6953 63.4078 76.7614 63.474 76.7614 63.5401C76.7614 63.6063 76.6953 63.6724 76.6291 63.6724C76.166 63.6724 75.7691 63.6724 75.306 63.6724C74.843 63.6724 74.3799 63.6724 73.983 63.6724Z" fill="#EDEFF1"/>
<path d="M83.8433 63.6066C83.7771 63.6066 83.7109 63.5405 83.7109 63.4743C83.7109 63.4082 83.7771 63.342 83.8433 63.342C85.8279 63.2759 87.8786 63.2759 89.9294 63.2759C89.9955 63.2759 90.0617 63.342 90.0617 63.4082C90.0617 63.4743 89.9955 63.5405 89.9294 63.5405C87.8786 63.5405 85.8279 63.5405 83.8433 63.6066Z" fill="#EDEFF1"/>
<g opacity="0.1294">
<path d="M95.8784 25.3033C95.6138 25.3033 95.4154 25.3033 95.1508 25.3033C94.2908 25.3033 93.3646 25.3033 92.5046 25.2371C90.3216 25.1048 85.5585 24.9725 82.4493 25.1048C80.0677 24.9725 77.6862 24.9725 75.3047 24.9064C73.3862 24.9064 71.4678 24.9725 69.5493 24.9725C68.1601 24.9725 66.7708 24.9725 65.4478 25.1048C64.257 25.1048 64.257 27.0233 65.4478 27.0894C67.2339 26.8248 69.0201 26.891 70.8062 26.891C73.7831 26.891 76.6939 26.891 79.6708 26.9571C82.78 27.0894 85.8893 27.0894 88.9985 27.0894C89.8585 27.0894 90.7185 27.2218 91.5785 27.1556C92.6369 27.1556 92.5046 27.1556 93.4308 27.1556C94.2246 27.2218 95.0185 27.2218 95.7462 27.1556C95.68 27.1556 95.6138 27.1556 95.5477 27.2218C96.1431 27.2879 96.7385 27.0233 96.7385 26.2956C96.7385 25.7664 96.3415 25.3033 95.8784 25.3033Z" fill="#636464"/>
</g>
<path d="M37.8463 34.8357L37.4375 81.439H61.9655L62.2721 34.9379L37.8463 34.8357Z" fill="white"/>
<path d="M61.9629 81.6944H37.4349C37.3838 81.6944 37.2816 81.6433 37.2816 81.6433C37.2305 81.5922 37.2305 81.5411 37.2305 81.49L37.5882 34.8867C37.5882 34.7334 37.6904 34.6312 37.8437 34.6312L62.2695 34.7334C62.3206 34.7334 62.4228 34.7845 62.4228 34.7845C62.4739 34.8356 62.4739 34.8867 62.4739 34.9378L62.1673 81.3878C62.2184 81.5922 62.1162 81.6944 61.9629 81.6944ZM37.6904 81.1834H61.7074L62.014 35.1933L38.0992 35.0911L37.6904 81.1834Z" fill="#636464"/>
<path d="M47.1944 49.7566C45.6613 49.7566 43.8728 49.7055 42.3398 49.6544C42.3398 48.1214 42.3398 46.4351 42.3398 44.7999C43.9239 44.6977 45.508 44.6977 47.1944 44.7999C47.2966 46.4351 47.2455 48.0192 47.1944 49.7566Z" fill="#006FFD"/>
<path d="M47.1917 50.0123C46.4252 50.0123 45.6076 50.0122 44.79 49.9611C43.9724 49.9611 43.1548 49.9101 42.3883 49.9101C42.235 49.9101 42.1328 49.8079 42.1328 49.6546V49.2458C42.1328 47.8149 42.1328 46.2819 42.1328 44.8C42.1328 44.6467 42.235 44.5445 42.3883 44.5445C43.9724 44.4423 45.5565 44.4423 47.2939 44.5445C47.4472 44.5445 47.5494 44.6467 47.5494 44.8C47.6005 46.333 47.5494 47.9171 47.4983 49.7568C47.4472 49.9101 47.345 50.0123 47.1917 50.0123ZM42.5927 49.4501C43.3081 49.4501 44.0235 49.4502 44.79 49.5013C45.5054 49.5013 46.2719 49.5524 46.9362 49.5524C46.9873 47.9172 46.9873 46.4864 46.9873 45.1066C45.4543 45.0555 44.0235 45.0555 42.5927 45.1066C42.5927 46.4864 42.5927 47.9172 42.5927 49.2969V49.4501Z" fill="#636464"/>
<path d="M57.3154 49.7566C55.7824 49.7566 53.9939 49.7055 52.4609 49.6544C52.4609 48.1214 52.4609 46.4351 52.4609 44.7999C54.045 44.6977 55.6291 44.6977 57.3154 44.7999C57.4176 46.4351 57.3665 48.0192 57.3154 49.7566Z" fill="#006FFD"/>
<path d="M57.3128 50.0123C56.5463 50.0123 55.7287 50.0122 54.9111 49.9611C54.0935 49.9611 53.2759 49.9101 52.5094 49.9101C52.3561 49.9101 52.2539 49.8079 52.2539 49.6546V49.2458C52.2539 47.8149 52.2539 46.2819 52.2539 44.8C52.2539 44.6467 52.3561 44.5445 52.5094 44.5445C54.0935 44.4423 55.6776 44.4423 57.415 44.5445C57.5683 44.5445 57.6705 44.6467 57.6705 44.8C57.7216 46.333 57.6705 47.9171 57.6194 49.7568C57.5683 49.9101 57.4661 50.0123 57.3128 50.0123ZM52.7138 49.4501C53.4292 49.4501 54.1446 49.4502 54.9111 49.5013C55.6265 49.5013 56.393 49.5524 57.0573 49.5524C57.1084 47.9172 57.1084 46.4864 57.1084 45.1066C55.5754 45.0555 54.1446 45.0555 52.7138 45.1066C52.7138 46.4864 52.7138 47.9172 52.7138 49.2969V49.4501Z" fill="#636464"/>
<path d="M47.0459 60.1298C45.5129 60.1298 43.7244 60.0787 42.1914 60.0276C42.1914 58.4946 42.1914 56.8083 42.1914 55.1731C43.7755 55.0709 45.3596 55.0709 47.0459 55.1731C47.1481 56.8083 47.1481 58.3924 47.0459 60.1298Z" fill="#006FFD"/>
<path d="M47.0433 60.3854C46.2768 60.3854 45.4592 60.3854 44.6416 60.3343C43.824 60.3343 43.0064 60.2832 42.2399 60.2832C42.0866 60.2832 41.9844 60.181 41.9844 60.0277V59.6189C41.9844 58.1881 41.9844 56.6551 41.9844 55.1732C41.9844 55.0199 42.0866 54.9177 42.2399 54.9177C43.824 54.8155 45.4081 54.8155 47.1455 54.9177C47.2988 54.9177 47.401 55.0199 47.401 55.1732C47.4521 56.7062 47.401 58.2903 47.3499 60.1299C47.2988 60.2832 47.1966 60.3854 47.0433 60.3854ZM42.4954 59.8233C43.2108 59.8233 43.9262 59.8233 44.6927 59.8744C45.4081 59.8744 46.1746 59.9255 46.8389 59.9255C46.89 58.2903 46.89 56.8595 46.89 55.4798C45.357 55.4287 43.9262 55.4287 42.4954 55.4798C42.4954 56.8595 42.4954 58.2903 42.4954 59.67V59.8233Z" fill="#636464"/>
<path d="M57.167 60.1298C55.634 60.1298 53.8455 60.0787 52.3125 60.0276C52.3125 58.4946 52.3125 56.8083 52.3125 55.1731C53.8966 55.0709 55.4807 55.0709 57.167 55.1731C57.2692 56.8083 57.2692 58.3924 57.167 60.1298Z" fill="#006FFD"/>
<path d="M57.1644 60.3854C56.3979 60.3854 55.5803 60.3854 54.7627 60.3343C53.9451 60.3343 53.1275 60.2832 52.361 60.2832C52.2077 60.2832 52.1055 60.181 52.1055 60.0277V59.6189C52.1055 58.1881 52.1055 56.6551 52.1055 55.1732C52.1055 55.0199 52.2077 54.9177 52.361 54.9177C53.9451 54.8155 55.5292 54.8155 57.2666 54.9177C57.4199 54.9177 57.5221 55.0199 57.5221 55.1732C57.5732 56.7062 57.5221 58.2903 57.471 60.1299C57.4199 60.2832 57.3177 60.3854 57.1644 60.3854ZM52.6165 59.8233C53.3319 59.8233 54.0473 59.8233 54.8138 59.8744C55.5292 59.8744 56.2957 59.9255 56.96 59.9255C57.0111 58.2903 57.0111 56.8595 57.0111 55.4798C55.4781 55.4287 54.0473 55.4287 52.6165 55.4798C52.6165 56.8595 52.6165 58.2903 52.6165 59.67V59.8233Z" fill="#636464"/>
<path d="M47.0459 70.5541C45.5129 70.5541 43.7244 70.503 42.1914 70.4519C42.1914 68.9189 42.1914 67.2326 42.1914 65.5974C43.7755 65.4952 45.3596 65.4952 47.0459 65.5974C47.1481 67.1815 47.1481 68.7656 47.0459 70.5541Z" fill="#006FFD"/>
<path d="M47.0433 70.8097C46.2768 70.8097 45.4592 70.8097 44.6416 70.7586C43.824 70.7586 43.0064 70.7075 42.2399 70.7075C42.0866 70.7075 41.9844 70.6053 41.9844 70.452V70.0432C41.9844 68.6124 41.9844 67.0794 41.9844 65.5975C41.9844 65.4442 42.0866 65.342 42.2399 65.342C43.824 65.2398 45.4081 65.2398 47.1455 65.342C47.2988 65.342 47.401 65.4442 47.401 65.5975C47.4521 67.1305 47.401 68.7146 47.3499 70.5542C47.2988 70.6564 47.1966 70.8097 47.0433 70.8097ZM42.4954 70.1965C43.2108 70.1965 43.9262 70.1965 44.6927 70.2476C45.4081 70.2476 46.1746 70.2987 46.8389 70.2987C46.89 68.6635 46.89 67.2327 46.89 65.853C45.357 65.8019 43.9262 65.8019 42.4954 65.853C42.4954 67.2327 42.4954 68.6635 42.4954 70.0432V70.1965Z" fill="#636464"/>
<path d="M57.167 70.5539C55.634 70.5539 53.8455 70.5028 52.3125 70.4517C52.3125 68.9187 52.3125 67.2324 52.3125 65.5972C53.8966 65.495 55.4807 65.495 57.167 65.5972C57.2692 67.1813 57.2692 68.7654 57.167 70.5539Z" fill="#006FFD"/>
<path d="M57.1644 70.8095C56.3979 70.8095 55.5803 70.8095 54.7627 70.7584C53.9451 70.7584 53.1275 70.7073 52.361 70.7073C52.2077 70.7073 52.1055 70.6051 52.1055 70.4518V70.043C52.1055 68.6122 52.1055 67.0792 52.1055 65.5973C52.1055 65.444 52.2077 65.3418 52.361 65.3418C53.9451 65.2396 55.5292 65.2396 57.2666 65.3418C57.4199 65.3418 57.5221 65.444 57.5221 65.5973C57.5732 67.1303 57.5221 68.7144 57.471 70.554C57.4199 70.6562 57.3177 70.8095 57.1644 70.8095ZM52.6165 70.1963C53.3319 70.1963 54.0473 70.1963 54.8138 70.2474C55.5292 70.2474 56.2957 70.2985 56.96 70.2985C57.0111 68.6633 57.0111 67.2325 57.0111 65.8528C55.4781 65.8017 54.0473 65.8017 52.6165 65.8528C52.6165 67.2325 52.6165 68.6633 52.6165 70.043V70.1963Z" fill="#636464"/>
<path d="M62.0632 37.7481C53.8872 37.4926 45.7112 37.4415 37.7907 37.5948C37.6374 37.5948 37.5352 37.4926 37.5352 37.3393C37.5352 37.186 37.6374 37.0838 37.7907 37.0838C45.7112 36.8794 53.8872 36.9305 62.0632 37.2371C62.2165 37.2371 62.3187 37.3393 62.3187 37.4926C62.3187 37.6459 62.2165 37.7481 62.0632 37.7481Z" fill="#636464"/>
<path d="M47.045 46.5883L42.446 46.5372C42.3949 46.5372 42.3438 46.4861 42.3438 46.435C42.3438 46.3839 42.3949 46.3328 42.446 46.3328L47.045 46.3839C47.0961 46.3839 47.1472 46.435 47.1472 46.4861C47.1472 46.5372 47.0961 46.5883 47.045 46.5883Z" fill="#EDEFF1"/>
<path d="M57.3122 46.5883C56.188 46.5372 54.9105 46.5372 53.633 46.5372C53.2242 46.5372 52.8665 46.5372 52.4577 46.5372C52.4066 46.5372 52.3555 46.4861 52.3555 46.435C52.3555 46.3839 52.4066 46.3328 52.4577 46.3328C52.8154 46.3328 53.2242 46.3328 53.633 46.3328C54.9105 46.3328 56.2391 46.3328 57.3633 46.3839C57.4144 46.3839 57.4655 46.435 57.4655 46.4861C57.4144 46.5372 57.3633 46.5883 57.3122 46.5883Z" fill="#EDEFF1"/>
<path d="M46.9428 56.7576C46.2785 56.7576 45.512 56.7576 44.7455 56.7576C43.979 56.7576 43.1614 56.7576 42.446 56.7576C42.3949 56.7576 42.3438 56.7065 42.3438 56.6554C42.3438 56.6043 42.3949 56.6043 42.446 56.5532C43.1614 56.6043 43.9279 56.5532 44.7455 56.5532C45.512 56.5532 46.3296 56.5532 46.9939 56.5532C47.045 56.5532 47.0961 56.6043 47.0961 56.6554C46.9939 56.7576 46.9939 56.7576 46.9428 56.7576Z" fill="#EDEFF1"/>
<path d="M57.1664 56.7577C56.0933 56.7066 54.3559 56.7066 52.5163 56.7066C52.4652 56.7066 52.4141 56.6555 52.4141 56.6044C52.4141 56.5533 52.4652 56.5022 52.5163 56.5022C54.407 56.5022 56.0933 56.5022 57.1664 56.5533C57.2175 56.5533 57.2686 56.6044 57.2686 56.6555C57.2175 56.7066 57.1664 56.7577 57.1664 56.7577Z" fill="#EDEFF1"/>
<path d="M44.8447 67.0795C43.976 67.0795 43.1073 67.0795 42.2897 67.0284C42.2386 67.0284 42.1875 66.9773 42.1875 66.9262C42.1875 66.8751 42.2386 66.8751 42.2897 66.824C43.465 66.8751 44.6914 66.8751 45.8667 66.8751C46.2244 66.8751 46.531 66.8751 46.8887 66.8751C46.9398 66.8751 46.9909 66.9262 46.9909 66.9773C46.9909 67.0284 46.9398 67.0795 46.8887 67.0795C46.531 67.0795 46.2244 67.0795 45.8667 67.0795C45.509 67.0795 45.1513 67.0795 44.8447 67.0795Z" fill="#EDEFF1"/>
<path d="M52.4577 67.0286C52.4066 67.0286 52.3555 66.9775 52.3555 66.9264C52.3555 66.8753 52.4066 66.8242 52.4577 66.8242C53.9907 66.7731 55.5748 66.7731 57.1589 66.7731C57.21 66.7731 57.2611 66.8242 57.2611 66.8753C57.2611 66.9264 57.21 66.9775 57.1589 66.9775C55.5748 66.9775 53.9907 66.9775 52.4577 67.0286Z" fill="#EDEFF1"/>
<g opacity="0.1294">
<path d="M61.7623 37.4417C61.5579 37.4417 61.4046 37.4417 61.2002 37.4417C60.5359 37.4417 59.8205 37.4417 59.1562 37.3906C57.4699 37.2884 53.7907 37.1862 51.389 37.2884C49.5494 37.1862 47.7098 37.1862 45.8702 37.1351C44.3883 37.1351 42.9064 37.1862 41.4245 37.1862C40.3514 37.1862 39.2783 37.1862 38.2563 37.2884C37.3365 37.2884 37.3365 38.7703 38.2563 38.8214C39.636 38.617 41.0157 38.6681 42.3954 38.6681C44.6949 38.6681 46.9433 38.6681 49.2428 38.7192C51.6445 38.8214 54.0462 38.8214 56.4479 38.8214C57.1122 38.8214 57.7765 38.9236 58.4408 38.8725C59.2584 38.8725 59.1562 38.8725 59.8716 38.8725C60.4848 38.9236 61.098 38.9236 61.6601 38.8725C61.609 38.8725 61.5579 38.8725 61.5068 38.9236C61.9667 38.9747 62.4266 38.7703 62.4266 38.2082C62.4266 37.7994 62.12 37.4417 61.7623 37.4417Z" fill="#636464"/>
</g>
<rect x="8.19531" y="136.809" width="53.061" height="30.8366" rx="7.51832" fill="#006FFD"/>
<path d="M23.0317 156.227V148.064H26.0929C26.72 148.064 27.2462 148.181 27.6714 148.415C28.0992 148.649 28.422 148.97 28.6399 149.379C28.8605 149.786 28.9708 150.248 28.9708 150.766C28.9708 151.29 28.8605 151.755 28.6399 152.162C28.4194 152.568 28.0939 152.888 27.6634 153.122C27.2329 153.353 26.7028 153.469 26.073 153.469H24.0442V152.253H25.8737C26.2404 152.253 26.5407 152.189 26.7745 152.062C27.0084 151.934 27.1811 151.759 27.2927 151.536C27.407 151.313 27.4641 151.056 27.4641 150.766C27.4641 150.477 27.407 150.222 27.2927 150.001C27.1811 149.781 27.007 149.609 26.7705 149.487C26.5367 149.362 26.2351 149.3 25.8657 149.3H24.5105V156.227H23.0317ZM32.7744 156.347C32.1765 156.347 31.6583 156.215 31.2198 155.952C30.7814 155.689 30.4413 155.321 30.1994 154.848C29.9603 154.375 29.8407 153.822 29.8407 153.19C29.8407 152.557 29.9603 152.003 30.1994 151.528C30.4413 151.052 30.7814 150.683 31.2198 150.42C31.6583 150.157 32.1765 150.025 32.7744 150.025C33.3723 150.025 33.8904 150.157 34.3289 150.42C34.7673 150.683 35.1061 151.052 35.3453 151.528C35.5871 152.003 35.708 152.557 35.708 153.19C35.708 153.822 35.5871 154.375 35.3453 154.848C35.1061 155.321 34.7673 155.689 34.3289 155.952C33.8904 156.215 33.3723 156.347 32.7744 156.347ZM32.7823 155.191C33.1065 155.191 33.3776 155.102 33.5955 154.924C33.8134 154.743 33.9755 154.501 34.0817 154.198C34.1907 153.895 34.2452 153.558 34.2452 153.186C34.2452 152.811 34.1907 152.472 34.0817 152.169C33.9755 151.864 33.8134 151.621 33.5955 151.44C33.3776 151.259 33.1065 151.169 32.7823 151.169C32.4502 151.169 32.1738 151.259 31.9533 151.44C31.7354 151.621 31.5719 151.864 31.463 152.169C31.3567 152.472 31.3035 152.811 31.3035 153.186C31.3035 153.558 31.3567 153.895 31.463 154.198C31.5719 154.501 31.7354 154.743 31.9533 154.924C32.1738 155.102 32.4502 155.191 32.7823 155.191ZM41.7716 151.723L40.4563 151.867C40.4191 151.734 40.354 151.609 40.261 151.492C40.1706 151.375 40.0484 151.281 39.8942 151.209C39.7401 151.137 39.5515 151.101 39.3282 151.101C39.028 151.101 38.7755 151.166 38.5709 151.297C38.369 151.427 38.2693 151.596 38.272 151.803C38.2693 151.981 38.3344 152.126 38.4673 152.237C38.6028 152.349 38.826 152.441 39.1369 152.512L40.1812 152.735C40.7605 152.86 41.191 153.058 41.4727 153.329C41.757 153.6 41.9005 153.955 41.9032 154.394C41.9005 154.779 41.7876 155.119 41.5644 155.414C41.3438 155.706 41.0369 155.935 40.6436 156.1C40.2503 156.264 39.7986 156.347 39.2884 156.347C38.539 156.347 37.9358 156.19 37.4788 155.876C37.0217 155.56 36.7493 155.12 36.6617 154.557L38.0687 154.422C38.1325 154.698 38.268 154.906 38.4753 155.047C38.6825 155.188 38.9522 155.259 39.2844 155.259C39.6272 155.259 39.9022 155.188 40.1095 155.047C40.3194 154.906 40.4244 154.732 40.4244 154.525C40.4244 154.35 40.3566 154.205 40.2211 154.091C40.0882 153.976 39.881 153.889 39.5993 153.828L38.555 153.608C37.9677 153.486 37.5332 153.28 37.2516 152.991C36.9699 152.698 36.8304 152.329 36.833 151.882C36.8304 151.505 36.9327 151.178 37.14 150.902C37.3499 150.623 37.6409 150.408 38.0129 150.256C38.3876 150.102 38.8194 150.025 39.3083 150.025C40.0258 150.025 40.5905 150.178 41.0023 150.483C41.4169 150.789 41.6733 151.202 41.7716 151.723ZM46.1502 150.105V151.221H42.6306V150.105H46.1502ZM43.4995 148.638H44.9424V154.386C44.9424 154.58 44.9717 154.728 45.0301 154.832C45.0913 154.933 45.171 155.002 45.2693 155.039C45.3676 155.077 45.4766 155.095 45.5961 155.095C45.6865 155.095 45.7689 155.089 45.8433 155.075C45.9203 155.062 45.9788 155.05 46.0186 155.039L46.2618 156.167C46.1847 156.194 46.0745 156.223 45.931 156.255C45.7901 156.287 45.6174 156.306 45.4128 156.311C45.0514 156.322 44.7259 156.267 44.4362 156.147C44.1466 156.025 43.9167 155.837 43.7467 155.581C43.5793 155.326 43.4969 155.007 43.4995 154.625V148.638Z" fill="white"/>
<rect x="0.288841" y="0.610374" width="134.694" height="174.259" rx="11.2049" stroke="#D1D6DD" stroke-width="0.577682"/>
<path d="M201.51 51.3354C213.103 51.4245 224.697 51.5136 236.38 51.6027C237.539 51.6027 238.788 51.6028 239.858 51.2462C248.33 48.3049 245.03 41.531 244.495 40.194C243.603 37.9658 240.571 37.2527 238.342 38.0549C236.112 38.8571 234.418 40.7288 232.902 42.5114C233.526 38.5005 231.564 34.044 227.997 32.0831C224.429 30.1223 219.435 30.8353 216.849 33.9549C214.798 36.3614 214.352 39.7484 213.995 42.8679C213.103 40.5506 211.944 38.2331 209.893 36.8071C207.841 35.381 204.809 35.1136 203.026 36.8071C200.974 38.6788 201.242 41.8875 201.599 44.5614C200.529 42.8679 197.853 42.6897 196.426 44.0267C194.999 45.3636 194.821 47.7701 195.891 49.4636C196.872 51.2462 198.834 51.3354 201.51 51.3354Z" fill="#F8F9FF"/>
<path d="M236.736 52.0481C236.646 52.0481 236.468 52.0481 236.379 52.0481L201.509 51.7807C199.012 51.7807 196.604 51.7807 195.444 49.8198C194.196 47.948 194.553 45.2741 196.069 43.8481C196.871 43.135 198.12 42.7785 199.279 42.8676C199.904 42.9567 200.439 43.135 200.974 43.4915C200.706 40.8176 200.885 38.2328 202.668 36.5393C204.809 34.5784 208.019 35.1132 210.07 36.5393C211.765 37.7872 212.924 39.5698 213.727 41.2633C214.083 38.6785 214.708 35.9154 216.491 33.7763C219.167 30.4784 224.339 29.5871 228.174 31.8154C231.474 33.6871 233.525 37.4306 233.436 41.3524C234.684 39.9263 236.29 38.4111 238.252 37.698C240.66 36.8067 243.959 37.6089 244.94 40.0154L245.029 40.1937C245.475 41.3524 246.813 44.3828 245.475 47.3241C244.584 49.1959 242.8 50.7111 240.035 51.6024C238.965 51.9589 237.895 52.0481 236.736 52.0481ZM198.744 43.7589C197.942 43.7589 197.228 44.0263 196.604 44.5611C195.355 45.7198 195.088 47.8589 196.069 49.4633C196.961 50.8894 198.744 50.9785 201.42 51.0676L236.29 51.335C237.449 51.335 238.608 51.335 239.679 50.9785C242.176 50.0872 243.87 48.8394 244.584 47.1459C245.743 44.6502 244.494 41.798 244.048 40.7285L243.959 40.5502C243.157 38.5893 240.392 37.9654 238.341 38.6785C236.111 39.4806 234.506 41.3524 233.079 43.0459C232.99 43.2241 232.722 43.2241 232.544 43.135C232.366 43.0459 232.276 42.8676 232.276 42.6893C232.812 38.7676 230.85 34.5785 227.55 32.7067C224.072 30.7458 219.345 31.548 216.937 34.4893C214.886 36.8959 214.529 40.3719 214.173 43.2241C214.173 43.4024 213.994 43.5807 213.816 43.5807C213.638 43.5807 213.459 43.4915 213.37 43.3133C212.657 41.5306 211.497 38.9458 209.446 37.4306C207.662 36.1828 204.809 35.8263 203.114 37.4306C201.33 39.1241 201.42 41.9763 201.866 44.8285C201.866 45.0067 201.776 45.185 201.598 45.2741C201.42 45.3633 201.152 45.2741 201.063 45.0959C200.617 44.472 199.904 44.0263 199.101 43.9372C199.012 43.7589 198.923 43.7589 198.744 43.7589Z" fill="#D1D6DD"/>
<path d="M301.384 198.175C260.956 197.495 220.529 197.665 180.271 198.514C180.271 169.468 179.761 140.421 179.252 111.714C191.822 110.525 204.561 110.355 216.792 111.714C217.131 98.1248 217.131 84.7055 216.452 70.9465C230.72 71.4561 244.989 71.4561 258.748 70.4369C259.597 61.4341 259.767 52.2615 258.918 43.4286C272.677 42.2395 286.606 42.2395 300.704 42.2395C301.554 94.5576 301.554 146.876 301.384 198.175Z" fill="white"/>
<path d="M301.384 225.232C260.956 224.553 220.529 224.723 180.271 225.572C180.271 196.525 179.761 167.478 179.252 138.771C191.822 137.582 204.561 137.412 216.792 138.771C217.131 125.182 217.131 111.763 216.452 98.004C230.72 98.5136 244.989 98.5136 258.748 97.4944C259.597 88.4916 259.767 79.319 258.918 70.4861C272.677 69.297 286.606 69.297 300.704 69.297C301.554 121.615 301.554 173.933 301.384 225.232Z" fill="white"/>
<path d="M180.272 224.166C224.606 223.317 264.184 223.147 301.385 223.827C301.554 223.827 301.894 223.827 302.064 223.657C302.234 223.487 302.234 223.317 302.234 223.147C302.574 165.903 302.234 90.1409 301.554 42.4091C301.554 41.8995 301.215 41.5598 300.705 41.5598C286.606 41.5598 272.678 41.5598 258.919 42.7489C258.749 42.7489 258.409 42.9187 258.409 43.0886C258.239 43.2585 258.239 43.4283 258.239 43.7681C259.088 51.4119 259.088 59.9051 258.239 69.9271C246.349 70.7764 232.76 70.9463 216.792 70.4367C216.622 70.4367 216.283 70.4367 216.113 70.6066C215.943 70.7764 215.943 70.9463 215.943 71.286C216.453 83.5162 216.622 96.2561 216.283 111.204C204.902 110.015 192.502 110.015 179.422 111.204C178.913 111.204 178.743 111.544 178.743 112.053C178.913 119.018 178.913 125.982 179.082 132.947C179.422 154.519 179.762 201.575 179.762 223.657C179.762 223.827 179.932 224.166 179.932 224.166C179.762 223.997 179.932 224.166 180.272 224.166ZM250.425 221.788C228.513 221.788 205.411 221.958 180.951 222.468C180.951 200.725 180.611 153.84 180.272 132.607C180.102 125.982 180.102 119.188 179.932 112.563C193.011 111.374 205.242 111.374 216.622 112.733C216.792 112.733 217.132 112.733 217.302 112.563C217.472 112.393 217.642 112.223 217.642 111.884C217.981 96.9355 217.981 84.1957 217.472 71.9655C233.439 72.4751 247.028 72.3052 258.919 71.286C259.258 71.286 259.598 70.9463 259.598 70.6066C260.447 60.7545 260.447 52.0914 259.768 44.2777C273.017 43.2585 286.267 43.2585 299.686 43.2585C300.535 90.4807 300.705 165.733 300.365 222.298C284.398 221.788 267.752 221.788 250.425 221.788Z" fill="#636464"/>
<path d="M265.369 111.205C270.465 111.205 276.41 111.035 281.336 110.865C281.336 105.939 281.336 100.673 281.336 95.5771C276.07 95.2373 270.804 95.2373 265.199 95.5771C265.199 100.673 265.199 105.599 265.369 111.205Z" fill="#B8D4F7"/>
<path d="M265.367 112.054C267.915 112.054 270.633 112.054 273.351 111.884C276.068 111.884 278.786 111.714 281.334 111.714C281.844 111.714 282.184 111.374 282.184 110.865V109.506C282.184 104.92 282.184 100.163 282.184 95.577C282.184 95.0674 281.844 94.7277 281.334 94.7277C276.068 94.388 270.803 94.388 265.197 94.7277C264.688 94.7277 264.348 95.0674 264.348 95.577C264.178 100.503 264.348 105.429 264.518 111.205C264.688 111.544 265.027 112.054 265.367 112.054ZM280.655 110.015C278.277 110.015 275.899 110.015 273.521 110.185C271.142 110.185 268.594 110.355 266.386 110.355C266.216 105.259 266.216 100.843 266.216 96.4263C271.312 96.2565 276.068 96.2565 280.655 96.4263C280.655 100.843 280.655 105.259 280.655 109.676V110.015Z" fill="#636464"/>
<path d="M231.904 111.204C237 111.204 242.945 111.035 247.871 110.865C247.871 105.939 247.871 100.673 247.871 95.5769C242.605 95.2372 237.34 95.2372 231.734 95.5769C231.564 100.673 231.734 105.599 231.904 111.204Z" fill="#B8D4F7"/>
<path d="M231.902 112.054C234.45 112.054 237.168 112.054 239.886 111.884C242.604 111.884 245.321 111.714 247.869 111.714C248.379 111.714 248.719 111.374 248.719 110.865V109.506C248.719 104.919 248.719 100.163 248.719 95.5769C248.719 95.0673 248.379 94.7276 247.869 94.7276C242.604 94.3878 237.338 94.3878 231.732 94.7276C231.223 94.7276 230.883 95.0673 230.883 95.5769C230.713 100.503 230.883 105.429 231.053 111.204C231.053 111.544 231.393 112.054 231.902 112.054ZM247.02 110.015C244.642 110.015 242.264 110.015 239.886 110.185C237.508 110.185 234.96 110.355 232.752 110.355C232.582 105.259 232.582 100.843 232.582 96.4262C237.678 96.2564 242.434 96.2564 247.02 96.4262C247.02 100.843 247.02 105.259 247.02 109.676V110.015Z" fill="#636464"/>
<path d="M265.877 143.818C270.972 143.818 276.918 143.649 281.844 143.479C281.844 138.553 281.844 133.287 281.844 128.191C276.578 127.851 271.312 127.851 265.707 128.191C265.537 133.287 265.707 138.383 265.877 143.818Z" fill="#B8D4F7"/>
<path d="M265.875 144.668C268.423 144.668 271.141 144.668 273.858 144.498C276.576 144.498 279.294 144.328 281.842 144.328C282.352 144.328 282.691 143.988 282.691 143.479V142.12C282.691 137.533 282.691 132.777 282.691 128.191C282.691 127.681 282.352 127.341 281.842 127.341C276.576 127.002 271.311 127.002 265.705 127.341C265.195 127.341 264.856 127.681 264.856 128.191C264.686 133.117 264.856 138.043 265.026 143.818C265.026 144.328 265.365 144.668 265.875 144.668ZM281.163 142.799C278.785 142.799 276.406 142.799 273.858 142.969C271.48 142.969 268.932 143.139 266.724 143.139C266.554 138.043 266.554 133.626 266.554 129.21C271.65 129.04 276.406 129.04 280.993 129.21C280.993 133.626 280.993 138.043 280.993 142.459L281.163 142.799Z" fill="#636464"/>
<path d="M232.404 143.819C237.5 143.819 243.445 143.649 248.371 143.479C248.371 138.553 248.371 133.287 248.371 128.191C243.105 127.851 237.84 127.851 232.234 128.191C232.064 133.287 232.064 138.383 232.404 143.819Z" fill="#B8D4F7"/>
<path d="M232.402 144.668C234.95 144.668 237.668 144.668 240.386 144.498C243.104 144.498 245.821 144.328 248.369 144.328C248.879 144.328 249.219 143.988 249.219 143.479V142.12C249.219 137.533 249.219 132.777 249.219 128.191C249.219 127.681 248.879 127.342 248.369 127.342C243.104 127.002 237.838 127.002 232.232 127.342C231.723 127.342 231.383 127.681 231.383 128.191C231.213 133.117 231.383 138.043 231.553 143.818C231.553 144.328 231.893 144.668 232.402 144.668ZM247.52 142.799C245.142 142.799 242.764 142.799 240.216 142.969C237.838 142.969 235.29 143.139 233.082 143.139C232.912 138.043 232.912 133.627 232.912 129.21C238.008 129.04 242.764 129.04 247.35 129.21C247.35 133.627 247.35 138.043 247.35 142.29L247.52 142.799Z" fill="#636464"/>
<path d="M265.877 176.602C270.972 176.602 276.918 176.432 281.844 176.262C281.844 171.336 281.844 166.07 281.844 160.974C276.578 160.635 271.312 160.635 265.707 160.974C265.537 166.07 265.707 170.996 265.877 176.602Z" fill="#B8D4F7"/>
<path d="M265.875 177.451C268.423 177.451 271.141 177.451 273.858 177.281C276.576 177.281 279.294 177.111 281.842 177.111C282.352 177.111 282.691 176.772 282.691 176.262V174.903C282.691 170.317 282.691 165.561 282.691 160.974C282.691 160.465 282.352 160.125 281.842 160.125C276.576 159.785 271.311 159.785 265.705 160.125C265.195 160.125 264.856 160.465 264.856 160.974C264.686 165.9 264.856 170.826 265.026 176.602C265.026 177.111 265.365 177.451 265.875 177.451ZM281.163 175.583C278.785 175.583 276.406 175.583 274.028 175.752C271.65 175.752 269.102 175.922 266.894 175.922C266.724 170.826 266.724 166.41 266.724 161.993C271.82 161.824 276.576 161.824 281.163 161.993C281.163 166.41 281.163 170.826 281.163 175.243V175.583Z" fill="#636464"/>
<path d="M232.404 176.603C237.5 176.603 243.445 176.433 248.371 176.263C248.371 171.337 248.371 166.071 248.371 160.975C243.105 160.635 237.84 160.635 232.234 160.975C232.064 166.071 232.064 170.997 232.404 176.603Z" fill="#B8D4F7"/>
<path d="M232.402 177.452C234.95 177.452 237.668 177.452 240.386 177.282C243.104 177.282 245.821 177.112 248.369 177.112C248.879 177.112 249.219 176.772 249.219 176.262V174.904C249.219 170.317 249.219 165.561 249.219 160.975C249.219 160.465 248.879 160.125 248.369 160.125C243.104 159.786 237.838 159.786 232.232 160.125C231.723 160.125 231.383 160.465 231.383 160.975C231.213 165.901 231.383 170.827 231.553 176.602C231.553 177.112 231.893 177.452 232.402 177.452ZM247.52 175.583C245.142 175.583 242.764 175.583 240.386 175.753C238.008 175.753 235.46 175.923 233.252 175.923C233.082 170.827 233.082 166.41 233.082 161.994C238.178 161.824 242.934 161.824 247.52 161.994C247.52 166.41 247.52 170.827 247.52 175.073V175.583Z" fill="#636464"/>
<path d="M265.876 101.182L281.164 101.012C281.334 101.012 281.504 100.842 281.504 100.672C281.504 100.503 281.334 100.333 281.164 100.333L265.876 100.503C265.707 100.503 265.537 100.672 265.537 100.842C265.537 101.012 265.707 101.182 265.876 101.182Z" fill="#636464"/>
<path d="M231.902 101.182C235.639 101.012 239.886 101.012 244.132 101.012C245.491 101.012 246.68 101.012 248.039 101.012C248.209 101.012 248.379 100.842 248.379 100.672C248.379 100.502 248.209 100.333 248.039 100.333C246.85 100.333 245.491 100.333 244.132 100.333C239.886 100.333 235.469 100.333 231.902 100.502C231.732 100.502 231.562 100.672 231.562 100.842C231.562 101.012 231.732 101.182 231.902 101.182Z" fill="#636464"/>
<path d="M266.384 133.287C268.592 133.287 271.14 133.287 273.688 133.287C276.236 133.287 278.954 133.287 281.332 133.287C281.502 133.287 281.672 133.117 281.672 132.947C281.672 132.777 281.502 132.607 281.332 132.607C278.954 132.607 276.406 132.607 273.688 132.607C271.14 132.607 268.592 132.607 266.384 132.607C266.214 132.607 266.044 132.777 266.044 132.947C266.044 133.117 266.214 133.287 266.384 133.287Z" fill="#636464"/>
<path d="M232.41 133.117C235.977 132.947 241.752 132.947 247.867 132.947C248.037 132.947 248.207 132.777 248.207 132.607C248.207 132.437 248.037 132.267 247.867 132.267C244.98 132.267 237.506 132.267 232.41 132.437C232.24 132.437 232.07 132.607 232.07 132.777C232.24 133.117 232.24 133.117 232.41 133.117Z" fill="#636464"/>
<path d="M273.351 165.731C276.238 165.731 279.126 165.731 281.844 165.561C282.014 165.561 282.184 165.391 282.184 165.221C282.184 165.051 282.014 164.881 281.844 164.881C277.937 165.051 273.86 165.051 269.953 165.051C268.764 165.051 267.745 165.051 266.556 165.051C266.386 165.051 266.216 165.221 266.216 165.391C266.216 165.561 266.386 165.731 266.556 165.731C267.745 165.731 268.764 165.731 269.953 165.731C270.973 165.731 272.162 165.731 273.351 165.731Z" fill="#636464"/>
<path d="M248.039 165.561C248.209 165.561 248.379 165.391 248.379 165.221C248.379 165.051 248.209 164.881 248.039 164.881C242.943 164.711 237.677 164.711 232.412 164.711C232.242 164.711 232.072 164.881 232.072 165.051C232.072 165.221 232.242 165.391 232.412 165.391C237.677 165.391 242.943 165.391 248.039 165.561Z" fill="#636464"/>
<path d="M198.611 143.819C203.707 143.819 209.652 143.649 214.578 143.479C214.578 138.553 214.578 133.287 214.578 128.191C209.312 127.851 204.047 127.851 198.441 128.191C198.441 133.287 198.441 138.383 198.611 143.819Z" fill="#B8D4F7"/>
<path d="M198.609 144.668C201.157 144.668 203.875 144.668 206.593 144.498C209.311 144.498 212.028 144.328 214.576 144.328C215.086 144.328 215.426 143.988 215.426 143.479V142.12C215.426 137.533 215.426 132.777 215.426 128.191C215.426 127.681 215.086 127.342 214.576 127.342C209.311 127.002 204.045 127.002 198.439 127.342C197.93 127.342 197.59 127.681 197.59 128.191C197.42 133.117 197.59 138.043 197.76 143.818C197.93 144.328 198.27 144.668 198.609 144.668ZM213.897 142.799C211.519 142.799 209.141 142.799 206.593 142.969C204.215 142.969 201.667 143.139 199.459 143.139C199.289 138.043 199.289 133.627 199.289 129.21C204.385 129.04 209.141 129.04 213.727 129.21C213.727 133.627 213.727 138.043 213.727 142.46L213.897 142.799Z" fill="#636464"/>
<path d="M198.611 176.603C203.707 176.603 209.652 176.433 214.578 176.263C214.578 171.337 214.578 166.071 214.578 160.975C209.312 160.635 204.047 160.635 198.441 160.975C198.441 166.071 198.441 170.997 198.611 176.603Z" fill="#B8D4F7"/>
<path d="M198.609 177.452C201.157 177.452 203.875 177.452 206.593 177.282C209.311 177.282 212.028 177.112 214.576 177.112C215.086 177.112 215.426 176.772 215.426 176.263V174.904C215.426 170.317 215.426 165.561 215.426 160.975C215.426 160.465 215.086 160.126 214.576 160.126C209.311 159.786 204.045 159.786 198.439 160.126C197.93 160.126 197.59 160.465 197.59 160.975C197.42 165.901 197.59 170.827 197.76 176.602C197.93 177.112 198.27 177.452 198.609 177.452ZM213.897 175.583C211.519 175.583 209.141 175.583 206.763 175.753C204.385 175.753 201.837 175.923 199.628 175.923C199.459 170.827 199.459 166.411 199.459 161.994C204.554 161.824 209.311 161.824 213.897 161.994C213.897 166.411 213.897 170.827 213.897 175.243V175.583Z" fill="#636464"/>
<path d="M198.781 133.117C202.348 132.947 208.123 132.947 214.238 132.947C214.408 132.947 214.578 132.777 214.578 132.607C214.578 132.437 214.408 132.267 214.238 132.267C211.351 132.267 203.877 132.267 198.781 132.437C198.611 132.437 198.441 132.607 198.441 132.777C198.611 133.117 198.611 133.117 198.781 133.117Z" fill="#636464"/>
<path d="M214.41 165.561C214.58 165.561 214.75 165.391 214.75 165.221C214.75 165.051 214.58 164.881 214.41 164.881C209.314 164.711 204.049 164.711 198.783 164.711C198.613 164.711 198.443 164.881 198.443 165.051C198.443 165.221 198.613 165.391 198.783 165.391C204.049 165.391 209.144 165.391 214.41 165.561Z" fill="#636464"/>
<path d="M304.988 223.499C261.503 223.499 220.566 223.16 178.779 223.499C177.59 223.499 177.59 214.157 177.59 214.157C191.179 215.176 269.147 212.968 305.158 214.666C305.328 217.214 305.498 220.272 304.988 223.499Z" fill="white"/>
<path d="M304.987 224.179C305.326 224.179 305.666 223.839 305.836 223.499C306.346 219.932 306.176 216.705 306.006 214.327C306.006 213.987 305.666 213.647 305.157 213.477C284.943 212.628 250.8 212.968 223.452 213.138C202.049 213.307 183.534 213.477 177.589 212.968C177.419 212.968 177.079 212.968 176.909 213.138C176.739 213.307 176.569 213.477 176.569 213.817C176.569 224.009 177.758 224.009 178.438 224.009C205.956 223.839 232.794 223.839 260.992 224.009C275.43 224.179 290.209 224.179 304.987 224.179ZM304.477 215.346C304.647 217.384 304.647 219.932 304.307 222.65C289.699 222.65 275.261 222.65 261.332 222.65C233.134 222.65 206.635 222.48 179.117 222.65C178.778 221.631 178.608 218.234 178.438 215.006C185.233 215.346 203.068 215.176 223.452 215.006C250.46 214.666 284.093 214.327 304.477 215.346Z" fill="#636464"/>
<path d="M83.1977 153.533C92.1012 152.443 101.368 157.53 105.729 165.344C110.09 173.157 109.908 183.332 105.547 191.327C103.548 195.143 100.46 198.414 96.6438 200.231C93.3731 201.684 89.739 201.866 86.105 202.048C83.3794 202.048 80.4722 202.048 77.9283 200.957C75.7479 200.049 73.9309 198.595 72.2955 196.96C65.7542 190.419 62.6653 180.607 64.664 171.703C66.6627 162.436 74.2943 154.441 83.1977 153.533Z" fill="white"/>
<path d="M85.015 202.775C85.3784 202.775 85.7418 202.775 86.1052 202.775C89.5576 202.775 93.3734 202.593 96.8257 200.958C101.55 198.777 104.457 194.78 106.274 191.691C110.817 183.332 110.999 172.794 106.456 164.98C101.732 156.622 92.1014 151.534 83.0163 152.625C73.9311 153.715 65.9362 161.528 63.574 171.34C61.5753 180.243 64.6643 190.6 71.569 197.505C73.5677 199.504 75.5664 200.958 77.5652 201.684C80.109 202.593 82.6529 202.775 85.015 202.775ZM85.5601 154.26C93.1917 154.26 101.005 158.802 105.002 165.889C109.182 173.339 109 183.151 104.821 190.964C103.367 193.871 100.641 197.505 96.2806 199.504C93.01 200.958 89.3759 201.139 86.1052 201.139C83.5614 201.139 80.6541 201.139 78.292 200.231C76.475 199.504 74.8396 198.232 73.0226 196.415C66.663 189.874 63.7557 180.243 65.5728 171.885C67.5715 162.8 75.203 155.532 83.3797 154.623C84.1065 154.26 84.8333 154.26 85.5601 154.26Z" fill="#D1D6DD"/>
<path d="M86.4645 226.578C87.0096 226.578 87.373 226.214 87.373 225.669L87.5547 166.252C87.5547 165.707 87.1913 165.344 86.6462 165.344C86.1011 165.344 85.7377 165.707 85.7377 166.252L85.556 225.669C85.7377 226.214 86.1011 226.578 86.4645 226.578Z" fill="#D1D6DD"/>
<path d="M86.4689 191.146C86.6506 191.146 86.6506 191.146 86.8323 191.146C87.1957 190.964 87.5592 190.419 87.3775 190.056C85.197 184.968 81.5629 180.425 76.8387 177.336C76.4753 177.155 75.9301 177.155 75.5667 177.518C75.385 177.881 75.385 178.426 75.7484 178.79C80.1093 181.697 83.5617 185.876 85.5604 190.782C85.9238 190.964 86.1055 191.146 86.4689 191.146Z" fill="#D1D6DD"/>
<path d="M103.365 175.519C103.547 175.519 103.547 175.338 103.729 175.338C104.092 172.612 103.365 169.886 101.73 167.706C101.548 167.524 101.366 167.524 101.366 167.706C101.185 167.888 101.185 168.069 101.366 168.069C102.82 170.068 103.547 172.794 103.183 175.156C103.183 175.337 103.183 175.519 103.365 175.519Z" fill="#D1D6DD"/>
<path d="M99.9139 176.064C100.096 176.064 100.277 175.883 100.277 175.701L99.5505 171.522C99.5505 171.34 99.3688 171.34 99.1871 171.34C99.0054 171.34 99.0054 171.522 99.0054 171.703L99.7322 175.883C99.5505 175.883 99.7322 176.064 99.9139 176.064Z" fill="#D1D6DD"/>
<path d="M75.7454 194.416C75.7454 194.416 75.9271 194.416 75.9271 194.234C76.1088 194.053 75.9271 193.871 75.9271 193.871C73.9283 192.417 72.4747 190.419 71.5662 188.056C71.5662 187.875 71.3845 187.875 71.2028 187.875C71.0211 187.875 71.0211 188.056 71.0211 188.238C72.1113 190.6 73.5649 192.781 75.7454 194.416Z" fill="#D1D6DD"/>
<g opacity="0.1294">
<path d="M69.9277 190.6C70.6545 190.6 71.0179 191.146 71.563 191.691C72.4715 192.599 73.1983 193.508 74.1068 194.416C75.0154 195.143 76.8324 196.415 78.6494 197.324C78.8311 197.505 79.0128 197.505 79.1945 197.505C79.9213 197.687 80.8299 198.05 81.5567 198.05H81.7384C81.9201 198.05 81.9201 198.05 81.9201 198.05C84.6456 198.414 87.1895 197.869 92.2772 196.778C94.2759 196.233 93.5491 196.415 95.3661 195.688C95.7295 195.688 96.8197 195.143 97.1832 194.961C99.0002 194.053 99.9087 193.508 100.636 192.781C101.362 192.236 101.726 191.509 102.453 191.146C104.088 190.419 105.542 192.599 104.27 193.871C102.816 195.325 101.181 196.597 99.3636 197.505C99.0002 197.687 97.3649 198.414 96.8197 198.595C94.6393 199.686 94.2759 200.049 92.4589 200.594C90.6418 201.321 88.8248 201.684 87.0078 201.866C85.1907 202.229 83.3737 202.229 81.5567 201.866C80.103 201.503 78.8311 200.958 77.5592 200.231C75.0154 198.959 72.4715 197.505 70.6545 195.325C69.9277 194.598 69.2009 193.689 68.474 192.963C68.1106 192.599 68.1106 192.236 68.1106 191.872C68.2923 191.327 69.0191 190.6 69.9277 190.6Z" fill="#D1D6DD"/>
</g>
<path d="M25.7628 72.5459C27.4211 73.9781 28.4764 73.6766 30.3609 72.4705C32.2453 71.2645 33.1498 68.8524 32.3207 66.8925C36.3911 67.7971 40.4615 64.4804 41.5168 60.7869C42.2706 58.1487 41.3661 54.6813 38.4263 54.0782C40.9138 52.043 41.4414 48.1987 39.4816 45.7113C37.5218 43.2238 33.4514 42.47 30.5116 43.9776C30.9639 40.7363 29.5317 37.4197 26.8181 35.3845C25.8382 34.6307 24.6321 34.0277 23.3507 33.9523C20.7125 33.8769 18.4511 36.1382 17.9235 38.5503C17.3958 40.9624 18.0742 43.3746 18.828 45.7867C17.0943 44.4298 14.0038 45.0329 12.7978 46.8419C11.5917 48.651 12.1193 51.2139 13.853 52.6461C11.1394 54.0783 9.48111 56.9426 9.63187 59.7316C9.78263 62.5206 11.7424 65.1588 14.6068 66.2895C15.3606 66.591 16.3405 66.8925 16.5667 67.6463C16.7174 68.0986 15.9636 71.4152 20.4863 73.6766C21.9185 74.4304 23.8783 73.8273 25.7628 72.5459Z" fill="white"/>
<path d="M21.8449 74.4301C23.2017 74.4301 24.6338 73.7516 25.7645 73.0732C27.4228 74.43 28.6289 74.0532 30.5887 72.8471C32.4732 71.7164 33.3777 69.4551 32.9254 67.4199C33.2269 67.4199 33.4531 67.4953 33.7546 67.4953C37.5235 67.4953 40.9909 64.3294 41.8954 60.9374C42.4231 59.2037 42.197 57.1684 41.2924 55.7363C40.7648 54.9071 40.0864 54.2287 39.1818 53.9272C41.3678 51.6658 41.7447 47.9723 39.7849 45.5602C37.9004 43.1481 33.9807 42.2436 30.9656 43.4496C31.1917 40.3591 29.6842 37.1179 27.1213 35.158C25.9153 34.2535 24.6338 33.7259 23.4278 33.6505C20.488 33.5751 18.1513 36.0626 17.6237 38.5501C17.096 40.736 17.6237 42.9974 18.2267 45.0326C17.4729 44.7311 16.6438 44.6557 15.7392 44.7311C14.3824 44.9572 13.1764 45.6356 12.498 46.6155C11.2919 48.4246 11.5934 50.9121 13.2517 52.495C10.6889 54.078 9.10596 56.8669 9.25671 59.7313C9.40747 62.6711 11.518 65.46 14.4578 66.6661L14.684 66.7415C15.3624 66.9676 16.0408 67.2691 16.1915 67.7968C16.1915 67.7968 16.1915 67.9475 16.1915 68.0229C16.1915 69.0782 16.1915 72.018 20.2619 73.9778C20.7896 74.2793 21.3172 74.4301 21.8449 74.4301ZM25.7645 72.1687C25.6891 72.1687 25.6138 72.1687 25.5384 72.2441C23.5032 73.5255 21.7695 73.9778 20.5634 73.3748C16.8699 71.5657 16.8699 69.0028 16.8699 68.0229C16.8699 67.7968 16.8699 67.646 16.7945 67.5706C16.493 66.7415 15.6638 66.3646 14.8347 66.0631L14.6085 65.9877C11.8949 64.9324 10.0105 62.3696 9.85973 59.7313C9.70898 57.0177 11.3673 54.3041 13.9302 52.9473C14.0055 52.8719 14.0809 52.7965 14.1563 52.6458C14.1563 52.495 14.0809 52.4196 14.0055 52.3442C12.3472 50.9874 11.895 48.6507 13.0256 47.0678C13.5533 46.2386 14.6085 45.6356 15.7392 45.4849C16.7945 45.3341 17.8498 45.5602 18.5282 46.0879C18.679 46.1632 18.8297 46.1632 18.9805 46.0879C19.1312 46.0125 19.2066 45.8617 19.1312 45.711C18.4528 43.525 17.699 41.0375 18.2267 38.7008C18.679 36.5149 20.6388 34.4043 23.1263 34.4043C23.2016 34.4043 23.2017 34.4043 23.277 34.4043C24.3323 34.4796 25.463 34.8565 26.5937 35.7611C29.1565 37.7209 30.5887 40.9621 30.1365 44.0527C30.1365 44.2034 30.2118 44.3542 30.2872 44.4295C30.4379 44.5049 30.5133 44.5049 30.6641 44.4295C33.4531 42.9974 37.2974 43.6758 39.1818 46.0125C40.9909 48.3492 40.5386 51.892 38.2019 53.8518C38.1265 53.9272 38.0512 54.0779 38.0512 54.2287C38.0512 54.3795 38.2019 54.4549 38.3527 54.5302C39.3326 54.7564 40.0864 55.284 40.614 56.1885C41.3678 57.47 41.5939 59.2037 41.1417 60.7866C40.1617 64.254 36.3175 67.4953 32.3978 66.6661C32.2471 66.6661 32.0963 66.6661 32.0209 66.8169C31.9455 66.8922 31.9455 67.043 31.9455 67.1938C32.6993 69.0028 31.8702 71.1888 30.1365 72.3195C28.252 73.5255 27.4229 73.6763 25.9907 72.3948C25.9153 72.2441 25.8399 72.1687 25.7645 72.1687Z" fill="#A3AEBB"/>
<path d="M25.8343 84.3796C26.0604 84.3796 26.2112 84.2288 26.2112 84.0027C26.4373 71.4145 26.6635 58.3741 25.0805 45.6352C25.0805 45.4091 24.8544 45.2583 24.7036 45.3337C24.4775 45.3337 24.3267 45.5598 24.4021 45.7106C25.985 58.3741 25.7589 71.4145 25.5328 84.0027C25.4574 84.2288 25.6082 84.3796 25.8343 84.3796Z" fill="#A3AEBB"/>
<path d="M25.2381 52.7209C25.3134 52.7209 25.3888 52.7209 25.4642 52.6455C25.615 52.5702 25.6903 52.344 25.615 52.1179C24.7858 50.8365 23.8813 49.6304 22.826 48.5751C22.6752 48.4243 22.4491 48.4243 22.2983 48.5751C22.1475 48.7259 22.1475 48.952 22.2983 49.1028C23.3536 50.1581 24.2581 51.2887 25.0119 52.5702C25.0119 52.6455 25.1627 52.7209 25.2381 52.7209Z" fill="#A3AEBB"/>
<path d="M25.9076 63.7259C26.0583 63.7259 26.2091 63.6506 26.2845 63.4998C27.9428 59.4294 29.6011 55.6605 32.6916 52.3438C32.8424 52.1931 32.8424 51.9669 32.6916 51.8162C32.5409 51.6654 32.3147 51.6654 32.164 51.8162C28.9227 55.2836 27.3398 59.1279 25.6061 63.1983C25.5307 63.3491 25.6061 63.5752 25.8322 63.6505C25.8322 63.7259 25.9076 63.7259 25.9076 63.7259Z" fill="#A3AEBB"/>
<path d="M28.8593 57.4701C28.9347 57.4701 29.0101 57.4701 29.0101 57.3947C30.3669 56.6409 31.8745 56.1133 33.382 55.9625C33.6082 55.9625 33.7589 55.7364 33.6835 55.5856C33.6835 55.3595 33.4574 55.2088 33.3066 55.2841C31.6483 55.4349 30.0654 56.0379 28.6332 56.8671C28.4825 56.9424 28.4071 57.1686 28.4824 57.3947C28.6332 57.3947 28.7086 57.4701 28.8593 57.4701Z" fill="#A3AEBB"/>
<path d="M25.7671 69.4549C25.8425 69.4549 25.8425 69.4549 25.9179 69.4549C26.0686 69.3796 26.2194 69.1534 26.144 69.0027C24.2596 64.6307 21.3952 60.7111 17.8524 57.5452C17.7017 57.3944 17.4756 57.3944 17.3248 57.5452C17.174 57.696 17.174 57.9221 17.3248 58.0728C20.7922 61.1633 23.5812 65.0076 25.3902 69.2288C25.4656 69.3042 25.6164 69.4549 25.7671 69.4549Z" fill="#A3AEBB"/>
<g opacity="0.1294">
<path d="M16.5644 67.2688C16.866 66.7412 17.6197 66.8919 17.7705 67.4196C17.9212 68.3995 18.072 69.0025 18.3735 69.6056C19.0519 70.6609 19.5795 71.4146 20.1072 71.7162C20.6348 72.0177 20.3333 71.8669 20.9364 72.0177C21.0117 72.0177 21.0118 72.0177 21.0871 72.0177C21.7655 72.093 22.4439 72.1684 23.1223 72.093C23.1977 72.093 23.1977 72.093 23.2731 72.093C23.7253 72.0177 24.1776 71.9423 24.6299 71.7162C24.6299 71.7162 24.6299 71.7162 24.7053 71.7162C25.0068 71.5654 25.3083 71.3393 25.6852 71.2639C26.2128 71.1885 26.9666 71.2639 27.1927 71.7915C27.2681 71.7162 27.3435 71.7161 27.4189 71.6408C28.0219 71.3393 27.7204 71.6408 28.3988 71.3393C29.3033 70.887 29.6049 70.6609 30.1325 70.284C31.037 69.3794 31.1878 68.9272 31.2632 68.098C31.3386 67.5704 31.1878 67.0427 31.3385 66.5151C31.5647 65.912 32.2431 65.7613 32.6953 66.0628C32.8461 65.912 32.9969 65.7613 33.223 65.6859C33.223 65.6859 33.223 65.6859 33.2984 65.6859C33.826 65.6105 34.3537 65.6859 34.8813 65.6105C35.3336 65.6105 36.1628 65.4598 36.5397 65.2336C37.5196 64.706 38.198 64.1783 38.2733 64.0276C38.801 63.5753 39.3286 63.1984 39.7809 62.5954C40.007 62.2939 40.3086 61.917 40.6855 61.917C41.2885 61.917 41.59 62.6708 41.1377 63.0477C40.7608 63.4246 40.7608 63.4999 40.3086 64.103C39.9317 64.5552 39.4794 65.0075 39.1025 65.3844C38.4241 65.912 37.7457 66.5151 36.9165 66.892C36.3889 67.1935 35.7105 67.2688 35.1075 67.3442C34.8059 67.4196 34.5044 67.3442 34.2029 67.4196C33.826 67.495 33.4492 67.495 33.1476 67.4196C33.1476 69.5302 32.4692 71.0377 30.5848 72.3192C29.831 72.8468 27.9465 73.9775 27.1927 73.1483C27.042 72.9976 26.9666 72.8468 26.9666 72.6961C26.7405 72.8468 26.4389 72.9976 26.1374 72.8468C26.0621 72.8468 26.0621 72.7714 25.9867 72.7714C25.836 72.8468 25.459 73.073 25.3083 73.1483C24.1022 73.7514 22.7454 73.8267 21.5394 73.5252C20.6348 73.3745 19.8057 73.2237 19.1273 72.6207C18.675 72.2438 18.3735 71.7915 17.9966 71.3393C17.5443 70.7362 17.1675 69.9825 16.9413 69.2287C16.7906 68.8518 16.7905 68.3995 16.7152 68.0226C16.489 67.8719 16.4137 67.5704 16.5644 67.2688Z" fill="#A3AEBB"/>
</g>
<path d="M187.783 175.531L188.98 223.772H107.318L106.387 175.667L187.783 175.531Z" fill="#EAF2FF"/>
<path d="M107.321 224.449H188.984C189.117 224.449 189.383 224.313 189.383 224.313C189.516 224.178 189.516 224.042 189.516 223.771L188.319 175.531C188.319 175.125 188.053 174.854 187.654 174.854L106.257 174.989C106.124 174.989 105.858 175.125 105.858 175.125C105.725 175.26 105.725 175.396 105.725 175.667L106.656 223.771C106.656 224.042 106.922 224.449 107.321 224.449ZM188.319 223.094H107.986L107.055 176.344L187.122 176.209L188.319 223.094Z" fill="#A3AEBB"/>
<path d="M144.432 224.449C144.831 224.449 145.098 224.178 145.098 223.772C144.831 212.931 145.097 202.226 145.23 193.147C145.23 193.012 145.231 192.741 145.098 192.605C144.965 192.47 144.832 192.47 144.699 192.47C135.787 192.47 126.477 192.47 117.167 192.47C117.034 192.47 116.768 192.605 116.768 192.605C116.635 192.741 116.635 192.876 116.635 193.012C116.635 195.722 116.635 198.432 116.635 201.007C116.635 209.137 116.635 216.725 116.901 223.229C116.901 223.636 117.167 223.907 117.566 223.907C117.965 223.907 118.231 223.636 118.231 223.229C117.965 216.725 117.965 209.137 117.965 201.007C117.965 198.567 117.965 196.264 117.965 193.689C126.743 193.689 135.521 193.689 144.166 193.689C144.033 202.633 143.768 213.067 144.034 223.636C143.768 224.178 144.033 224.449 144.432 224.449Z" fill="#A3AEBB"/>
<path d="M143.902 197.619C144.035 197.619 144.168 197.483 144.168 197.348C144.168 197.212 144.035 197.077 143.902 197.077C135.257 196.67 126.612 196.535 117.967 196.67C117.834 196.67 117.701 196.806 117.701 196.941C117.701 197.077 117.834 197.212 117.967 197.212C126.612 196.941 135.257 197.077 143.902 197.619Z" fill="#A3AEBB"/>
<path d="M138.577 201.007C140.439 201.007 142.302 201.007 144.297 201.007C144.43 201.007 144.562 200.871 144.562 200.736C144.562 200.6 144.43 200.465 144.297 200.465C135.386 200.6 126.341 200.465 117.43 199.922C117.297 199.922 117.164 200.058 117.164 200.194C117.164 200.329 117.297 200.465 117.43 200.465C124.479 200.871 131.528 201.007 138.577 201.007Z" fill="#A3AEBB"/>
<path d="M144.425 205.478C144.558 205.478 144.691 205.343 144.691 205.207C144.691 205.072 144.558 204.936 144.425 204.936C135.381 204.259 126.204 204.123 117.16 204.394C117.027 204.394 116.894 204.53 116.894 204.665C116.894 204.801 117.027 204.936 117.16 204.936C126.204 204.53 135.381 204.801 144.425 205.478Z" fill="#A3AEBB"/>
<path d="M144.164 209.678C144.297 209.678 144.43 209.543 144.43 209.407C144.43 209.272 144.297 209.136 144.164 209.136L117.165 208.323C117.032 208.323 116.899 208.459 116.899 208.594C116.899 208.73 117.032 208.865 117.165 208.865L144.164 209.678Z" fill="#A3AEBB"/>
<path d="M135.115 213.202C138.174 213.202 141.366 213.202 144.425 213.202C144.558 213.202 144.691 213.066 144.691 212.931C144.691 212.795 144.558 212.66 144.425 212.66C135.514 212.66 126.337 212.66 117.426 212.524C117.293 212.524 117.16 212.66 117.16 212.795C117.16 212.931 117.293 213.066 117.426 213.066C123.145 213.066 129.13 213.202 135.115 213.202Z" fill="#A3AEBB"/>
<path d="M144.297 216.725C144.43 216.725 144.562 216.589 144.562 216.454C144.562 216.318 144.43 216.183 144.297 216.183H117.829C117.696 216.183 117.563 216.318 117.563 216.454C117.563 216.589 117.696 216.725 117.829 216.725H144.297Z" fill="#A3AEBB"/>
<path d="M131.928 220.113C135.918 220.113 140.041 219.977 144.031 219.842C144.164 219.842 144.297 219.706 144.297 219.571C144.297 219.435 144.164 219.3 144.031 219.3C135.12 219.571 126.209 219.571 117.298 219.164C117.165 219.164 117.032 219.3 117.032 219.435C117.032 219.571 117.165 219.706 117.298 219.706C122.086 219.977 127.007 220.113 131.928 220.113Z" fill="#A3AEBB"/>
<path d="M221.569 171.195C221.702 171.195 221.835 171.06 221.835 170.924L222.234 158.729C222.234 158.593 222.101 158.458 221.968 158.458C221.835 158.458 221.702 158.593 221.702 158.729L221.303 170.924C221.303 171.06 221.436 171.195 221.569 171.195Z" fill="#A3AEBB"/>
<path d="M218.374 163.471C218.507 163.471 218.64 163.336 218.64 163.2L218.906 158.186C218.906 158.051 218.773 157.915 218.64 157.915C218.507 157.915 218.374 158.051 218.374 158.186L218.108 163.2C218.241 163.471 218.241 163.471 218.374 163.471Z" fill="#A3AEBB"/>
<g opacity="0.1294">
<path d="M117.703 193.282C118.102 193.011 118.634 193.011 119.033 193.011C120.496 193.011 121.826 193.011 123.289 193.011C126.082 193.011 129.008 192.876 131.802 192.876C135.393 193.011 138.983 193.011 142.575 192.74C143.373 192.74 144.171 192.605 144.836 193.282C145.9 194.366 145.102 196.399 143.639 196.399C139.649 196.806 135.526 196.67 131.535 196.399C127.678 196.399 123.688 196.67 119.831 196.67C119.299 196.67 118.634 196.805 118.102 196.534C116.506 196.128 116.506 193.96 117.703 193.282Z" fill="#A3AEBB"/>
</g>
<rect x="102.351" y="27.7999" width="80.0956" height="80.0956" rx="40.0478" fill="#E1ECFB"/>
<path d="M150.316 82.102H134.478C128.142 82.102 126.559 80.5182 126.559 74.1829V61.5124C126.559 55.1772 128.142 53.5934 134.478 53.5934H150.316C156.651 53.5934 158.235 55.1772 158.235 61.5124V74.1829C158.235 80.5182 156.651 82.102 150.316 82.102Z" stroke="#A3AEBB" stroke-width="2.03633" stroke-linecap="round" stroke-linejoin="round"/>
<path d="M145.566 61.5123H153.485" stroke="#A3AEBB" stroke-width="2.03633" stroke-linecap="round" stroke-linejoin="round"/>
<path d="M147.152 67.8477H153.488" stroke="#A3AEBB" stroke-width="2.03633" stroke-linecap="round" stroke-linejoin="round"/>
<path d="M150.316 74.183H153.484" stroke="#A3AEBB" stroke-width="2.03633" stroke-linecap="round" stroke-linejoin="round"/>
<path d="M136.855 66.723C138.438 66.723 139.722 65.4396 139.722 63.8563C139.722 62.2731 138.438 60.9896 136.855 60.9896C135.272 60.9896 133.988 62.2731 133.988 63.8563C133.988 65.4396 135.272 66.723 136.855 66.723Z" stroke="#A3AEBB" stroke-width="2.03633" stroke-linecap="round" stroke-linejoin="round"/>
<path d="M142.399 74.7054C142.177 72.4088 140.356 70.6033 138.06 70.3974C137.268 70.3182 136.46 70.3182 135.652 70.3974C133.356 70.6191 131.534 72.4088 131.312 74.7054" stroke="#A3AEBB" stroke-width="2.03633" stroke-linecap="round" stroke-linejoin="round"/>
<rect x="102.351" y="27.7999" width="80.0956" height="80.0956" rx="40.0478" stroke="#D1D6DD" stroke-width="1.35755"/>
</svg>