<svg width="375" height="261" viewBox="0 0 375 261" fill="none" xmlns="http://www.w3.org/2000/svg">
<path d="M44.7088 246.74C84.1983 246.077 123.688 246.243 163.011 247.072C163.011 218.715 163.509 190.359 164.007 162.334C151.729 161.173 139.284 161.007 127.338 162.334C127.006 149.068 127.006 135.968 127.67 122.536C113.732 123.033 99.795 123.033 86.3553 122.038C85.5257 113.249 85.3597 104.295 86.1893 95.6715C72.7496 94.5107 59.144 94.5107 45.3725 94.5107C44.5429 145.586 44.5428 196.66 44.7088 246.74Z" fill="white"/>
<path d="M163.012 247.901C119.706 247.072 81.0463 246.906 44.7093 247.569C44.5434 247.569 44.2115 247.569 44.0456 247.403C43.8797 247.237 43.8797 247.072 43.8797 246.906C43.5479 191.022 43.8797 141.274 44.5434 94.6763C44.5434 94.1788 44.8752 93.8472 45.373 93.8472C59.1445 93.8472 72.7502 93.8472 86.1899 95.008C86.3558 95.008 86.6876 95.1738 86.6876 95.3396C86.8536 95.5054 86.8536 95.6713 86.8536 96.0029C86.024 103.465 86.024 111.757 86.8536 121.54C98.4681 122.369 111.742 122.535 127.339 122.038C127.505 122.038 127.836 122.038 128.002 122.204C128.168 122.369 128.168 122.535 128.168 122.867C127.67 134.807 127.505 147.244 127.836 161.836C138.953 160.676 151.065 160.676 163.841 161.836C164.339 161.836 164.505 162.168 164.505 162.666C164.339 169.464 164.339 176.263 164.173 183.062C163.841 204.122 163.51 225.846 163.51 247.403C163.51 247.569 163.344 247.901 163.344 247.901C163.51 247.735 163.344 247.901 163.012 247.901ZM94.486 245.579C115.89 245.579 138.455 245.745 162.348 246.243C162.348 225.017 162.68 203.459 163.012 182.731C163.178 176.263 163.178 169.63 163.344 163.163C150.568 162.002 138.621 162.002 127.505 163.329C127.339 163.329 127.007 163.329 126.841 163.163C126.675 162.997 126.509 162.831 126.509 162.5C126.177 147.907 126.177 135.47 126.675 123.53C111.078 124.028 97.8044 123.862 86.1899 122.867C85.858 122.867 85.5262 122.204 85.5262 122.204C84.6966 112.586 84.6966 104.128 85.3603 96.5004C72.4183 95.5055 59.4764 95.5054 46.3685 95.5054C45.5389 141.605 45.373 190.856 45.7048 246.077C61.3015 245.579 77.5619 245.579 94.486 245.579Z" fill="#636464"/>
<path d="M79.8858 161.837C74.9081 161.837 69.1008 161.671 64.2891 161.505C64.2891 156.696 64.2891 151.555 64.2891 146.58C69.4327 146.249 74.5762 146.249 80.0517 146.58C80.0517 151.555 80.0517 156.364 79.8858 161.837Z" fill="#B8D4F7"/>
<path d="M79.8868 162.666C77.3979 162.666 74.7432 162.666 72.0884 162.5C69.4337 162.5 66.7789 162.334 64.2901 162.334C63.7923 162.334 63.4604 162.002 63.4604 161.505V160.178C63.4604 155.701 63.4604 151.058 63.4604 146.58C63.4604 146.083 63.7923 145.751 64.2901 145.751C69.4337 145.42 74.5772 145.42 80.0527 145.751C80.5504 145.751 80.8823 146.083 80.8823 146.58C81.0482 151.389 80.8823 156.198 80.7164 161.836C80.5504 162.168 80.2186 162.666 79.8868 162.666ZM64.9538 160.676C67.2767 160.676 69.5996 160.676 71.9225 160.841C74.2454 160.841 76.7342 161.007 78.8912 161.007C79.0571 156.032 79.0571 151.721 79.0571 147.409C74.0795 147.244 69.4337 147.244 64.9538 147.409C64.9538 151.721 64.9538 156.032 64.9538 160.344V160.676Z" fill="#636464"/>
<path d="M79.0259 124.571C74.0482 124.571 68.2409 124.405 63.4292 124.239C63.4292 119.43 63.4292 114.29 63.4292 109.315C68.5728 108.983 73.7164 108.983 79.1918 109.315C79.1918 114.29 79.1918 119.099 79.0259 124.571Z" fill="#B8D4F7"/>
<path d="M79.0269 125.4C76.5381 125.4 73.8833 125.4 71.2286 125.234C68.5738 125.234 65.919 125.068 63.4302 125.068C62.9324 125.068 62.6006 124.737 62.6006 124.239V122.913C62.6006 118.435 62.6006 113.792 62.6006 109.315C62.6006 108.817 62.9324 108.486 63.4302 108.486C68.5738 108.154 73.7174 108.154 79.1928 108.486C79.6906 108.486 80.0224 108.817 80.0224 109.315C80.1883 114.124 80.0224 118.933 79.8565 124.571C79.6906 124.903 79.3587 125.4 79.0269 125.4ZM64.0939 123.41C66.4168 123.41 68.7397 123.41 71.0626 123.576C73.3855 123.576 75.8744 123.742 78.0314 123.742C78.1973 118.767 78.1973 114.455 78.1973 110.144C73.2196 109.978 68.5738 109.978 64.0939 110.144C64.0939 114.455 64.0939 118.767 64.0939 123.078V123.41Z" fill="#636464"/>
<path d="M112.571 161.837C107.594 161.837 101.786 161.671 96.9746 161.505C96.9746 156.696 96.9746 151.555 96.9746 146.58C102.118 146.249 107.262 146.249 112.737 146.58C112.903 151.555 112.737 156.364 112.571 161.837Z" fill="#B8D4F7"/>
<path d="M112.572 162.666C110.083 162.666 107.429 162.666 104.774 162.5C102.119 162.5 99.4644 162.334 96.9756 162.334C96.4778 162.334 96.146 162.002 96.146 161.505V160.178C96.146 155.701 96.146 151.058 96.146 146.58C96.146 146.083 96.4778 145.751 96.9756 145.751C102.119 145.42 107.263 145.42 112.738 145.751C113.236 145.751 113.568 146.083 113.568 146.58C113.734 151.389 113.568 156.198 113.402 161.836C113.402 162.168 113.07 162.666 112.572 162.666ZM97.8052 160.676C100.128 160.676 102.451 160.676 104.774 160.841C107.097 160.841 109.586 161.007 111.743 161.007C111.909 156.032 111.909 151.721 111.909 147.409C106.931 147.244 102.285 147.244 97.8052 147.409C97.8052 151.721 97.8052 156.032 97.8052 160.344V160.676Z" fill="#636464"/>
<path d="M79.3867 193.675C74.4091 193.675 68.6018 193.51 63.79 193.344C63.79 188.535 63.79 183.394 63.79 178.419C68.9336 178.088 74.0772 178.088 79.5527 178.419C79.7186 183.394 79.5527 188.369 79.3867 193.675Z" fill="#B8D4F7"/>
<path d="M79.3863 194.505C76.8974 194.505 74.2427 194.505 71.5879 194.339C68.9332 194.339 66.2784 194.173 63.7896 194.173C63.2918 194.173 62.96 193.841 62.96 193.344V192.017C62.96 187.54 62.96 182.897 62.96 178.419C62.96 177.922 63.2918 177.59 63.7896 177.59C68.9332 177.259 74.0768 177.259 79.5522 177.59C80.05 177.59 80.3818 177.922 80.3818 178.419C80.5477 183.228 80.3818 188.037 80.2159 193.675C80.2159 194.173 79.884 194.505 79.3863 194.505ZM64.4533 192.68C66.7762 192.68 69.0991 192.68 71.5879 192.846C73.9108 192.846 76.3997 193.012 78.5567 193.012C78.7226 188.037 78.7226 183.726 78.7226 179.414C73.7449 179.248 69.0991 179.248 64.6192 179.414C64.6192 183.726 64.6192 188.037 64.6192 192.349L64.4533 192.68Z" fill="#636464"/>
<path d="M112.074 193.675C107.096 193.675 101.289 193.51 96.4771 193.344C96.4771 188.535 96.4771 183.394 96.4771 178.419C101.621 178.088 106.764 178.088 112.24 178.419C112.406 183.394 112.406 188.369 112.074 193.675Z" fill="#B8D4F7"/>
<path d="M112.073 194.505C109.584 194.505 106.93 194.505 104.275 194.339C101.62 194.339 98.9654 194.173 96.4766 194.173C95.9788 194.173 95.647 193.841 95.647 193.344V192.017C95.647 187.54 95.647 182.897 95.647 178.419C95.647 177.922 95.9788 177.59 96.4766 177.59C101.62 177.259 106.764 177.259 112.239 177.59C112.737 177.59 113.069 177.922 113.069 178.419C113.235 183.228 113.069 188.037 112.903 193.675C112.903 194.173 112.571 194.505 112.073 194.505ZM97.3062 192.68C99.6291 192.68 101.952 192.68 104.441 192.846C106.764 192.846 109.253 193.012 111.41 193.012C111.576 188.037 111.576 183.726 111.576 179.414C106.598 179.248 101.952 179.248 97.4721 179.414C97.4721 183.726 97.4721 188.037 97.4721 192.183L97.3062 192.68Z" fill="#636464"/>
<path d="M79.3867 225.68C74.4091 225.68 68.6018 225.514 63.79 225.348C63.79 220.539 63.79 215.399 63.79 210.424C68.9336 210.092 74.0772 210.092 79.5527 210.424C79.7186 215.399 79.5527 220.208 79.3867 225.68Z" fill="#B8D4F7"/>
<path d="M79.3863 226.509C76.8974 226.509 74.2427 226.509 71.5879 226.343C68.9332 226.343 66.2784 226.177 63.7896 226.177C63.2918 226.177 62.96 225.846 62.96 225.348V224.022C62.96 219.544 62.96 214.901 62.96 210.424C62.96 209.926 63.2918 209.595 63.7896 209.595C68.9332 209.263 74.0768 209.263 79.5522 209.595C80.05 209.595 80.3818 209.926 80.3818 210.424C80.5477 215.233 80.3818 220.042 80.2159 225.68C80.2159 226.177 79.884 226.509 79.3863 226.509ZM64.4533 224.685C66.7762 224.685 69.0991 224.685 71.422 224.851C73.7449 224.851 76.2337 225.017 78.3907 225.017C78.5566 220.042 78.5567 215.73 78.5567 211.419C73.579 211.253 68.9332 211.253 64.4533 211.419C64.4533 215.73 64.4533 220.042 64.4533 224.353V224.685Z" fill="#636464"/>
<path d="M112.074 225.68C107.096 225.68 101.289 225.514 96.4771 225.348C96.4771 220.539 96.4771 215.399 96.4771 210.424C101.621 210.092 106.764 210.092 112.24 210.424C112.406 215.399 112.406 220.208 112.074 225.68Z" fill="#B8D4F7"/>
<path d="M112.073 226.509C109.584 226.509 106.93 226.509 104.275 226.343C101.62 226.343 98.9654 226.177 96.4766 226.177C95.9788 226.177 95.647 225.846 95.647 225.348V224.022C95.647 219.544 95.647 214.901 95.647 210.424C95.647 209.926 95.9788 209.595 96.4766 209.595C101.62 209.263 106.764 209.263 112.239 209.595C112.737 209.595 113.069 209.926 113.069 210.424C113.235 215.233 113.069 220.042 112.903 225.68C112.903 226.177 112.571 226.509 112.073 226.509ZM97.3062 224.685C99.6291 224.685 101.952 224.685 104.275 224.851C106.598 224.851 109.087 225.017 111.244 225.017C111.41 220.042 111.41 215.73 111.41 211.419C106.432 211.253 101.786 211.253 97.3062 211.419C97.3062 215.73 97.3062 220.042 97.3062 224.188V224.685Z" fill="#636464"/>
<path d="M79.3869 152.052L64.4539 151.887C64.288 151.887 64.1221 151.721 64.1221 151.555C64.1221 151.389 64.288 151.223 64.4539 151.223L79.3869 151.389C79.5528 151.389 79.7188 151.555 79.7188 151.721C79.7188 151.887 79.5528 152.052 79.3869 152.052Z" fill="#636464"/>
<path d="M77.8654 114.697L62.9324 114.531C62.7665 114.531 62.6006 114.365 62.6006 114.199C62.6006 114.034 62.7665 113.868 62.9324 113.868L77.8654 114.034C78.0314 114.034 78.1973 114.199 78.1973 114.365C78.1973 114.531 78.0314 114.697 77.8654 114.697Z" fill="#636464"/>
<path d="M112.571 152.053C108.921 151.887 104.773 151.887 100.625 151.887C99.2972 151.887 98.1358 151.887 96.8084 151.887C96.6425 151.887 96.4766 151.721 96.4766 151.555C96.4766 151.389 96.6425 151.223 96.8084 151.223C97.9699 151.223 99.2972 151.223 100.625 151.223C104.773 151.223 109.087 151.223 112.571 151.389C112.737 151.389 112.903 151.555 112.903 151.721C112.903 151.887 112.737 152.053 112.571 152.053Z" fill="#636464"/>
<path d="M78.89 183.394C76.733 183.394 74.2442 183.394 71.7554 183.394C69.2665 183.394 66.6118 183.394 64.2889 183.394C64.1229 183.394 63.957 183.228 63.957 183.062C63.957 182.896 64.1229 182.731 64.2889 182.731C66.6118 182.731 69.1006 182.731 71.7554 182.731C74.2442 182.731 76.733 182.731 78.89 182.731C79.056 182.731 79.2219 182.896 79.2219 183.062C79.2219 183.228 79.056 183.394 78.89 183.394Z" fill="#636464"/>
<path d="M112.075 183.228C108.59 183.062 102.949 183.062 96.9759 183.062C96.81 183.062 96.644 182.897 96.644 182.731C96.644 182.565 96.81 182.399 96.9759 182.399C99.7966 182.399 107.097 182.399 112.075 182.565C112.241 182.565 112.407 182.731 112.407 182.897C112.241 183.228 112.241 183.228 112.075 183.228Z" fill="#636464"/>
<path d="M72.0884 215.067C69.2677 215.067 66.4471 215.067 63.7923 214.901C63.6264 214.901 63.4604 214.735 63.4604 214.57C63.4604 214.404 63.6264 214.238 63.7923 214.238C67.6085 214.404 71.5906 214.404 75.4069 214.404C76.5683 214.404 77.5638 214.404 78.7253 214.404C78.8912 214.404 79.0571 214.57 79.0571 214.735C79.0571 214.901 78.8912 215.067 78.7253 215.067C77.5638 215.067 76.5683 215.067 75.4069 215.067C74.4113 215.067 73.2499 215.067 72.0884 215.067Z" fill="#636464"/>
<path d="M96.8084 214.901C96.6425 214.901 96.4766 214.736 96.4766 214.57C96.4766 214.404 96.6425 214.238 96.8084 214.238C101.786 214.072 106.93 214.072 112.073 214.072C112.239 214.072 112.405 214.238 112.405 214.404C112.405 214.57 112.239 214.736 112.073 214.736C106.93 214.736 101.786 214.736 96.8084 214.901Z" fill="#636464"/>
<path d="M145.093 193.675C140.116 193.675 134.308 193.51 129.497 193.344C129.497 188.535 129.497 183.394 129.497 178.419C134.64 178.088 139.784 178.088 145.259 178.419C145.259 183.394 145.259 188.369 145.093 193.675Z" fill="#B8D4F7"/>
<path d="M145.093 194.505C142.604 194.505 139.949 194.505 137.294 194.339C134.64 194.339 131.985 194.173 129.496 194.173C128.998 194.173 128.667 193.841 128.667 193.344V192.017C128.667 187.54 128.667 182.897 128.667 178.419C128.667 177.922 128.998 177.59 129.496 177.59C134.64 177.259 139.783 177.259 145.259 177.59C145.756 177.59 146.088 177.922 146.088 178.419C146.254 183.228 146.088 188.037 145.922 193.675C145.757 194.173 145.425 194.505 145.093 194.505ZM130.16 192.68C132.483 192.68 134.806 192.68 137.294 192.846C139.617 192.846 142.106 193.012 144.263 193.012C144.429 188.037 144.429 183.726 144.429 179.414C139.451 179.248 134.806 179.248 130.326 179.414C130.326 183.726 130.326 188.037 130.326 192.349L130.16 192.68Z" fill="#636464"/>
<path d="M145.093 225.68C140.116 225.68 134.308 225.514 129.497 225.348C129.497 220.539 129.497 215.399 129.497 210.424C134.64 210.092 139.784 210.092 145.259 210.424C145.259 215.399 145.259 220.208 145.093 225.68Z" fill="#B8D4F7"/>
<path d="M145.093 226.509C142.604 226.509 139.949 226.509 137.294 226.343C134.64 226.343 131.985 226.177 129.496 226.177C128.998 226.177 128.667 225.846 128.667 225.348V224.022C128.667 219.544 128.667 214.901 128.667 210.424C128.667 209.926 128.998 209.595 129.496 209.595C134.64 209.263 139.783 209.263 145.259 209.595C145.756 209.595 146.088 209.926 146.088 210.424C146.254 215.233 146.088 220.042 145.922 225.68C145.757 226.177 145.425 226.509 145.093 226.509ZM130.16 224.685C132.483 224.685 134.806 224.685 137.129 224.851C139.451 224.851 141.94 225.017 144.097 225.017C144.263 220.042 144.263 215.73 144.263 211.419C139.286 211.253 134.64 211.253 130.16 211.419C130.16 215.73 130.16 220.042 130.16 224.353V224.685Z" fill="#636464"/>
<path d="M144.928 183.228C141.443 183.062 135.802 183.062 129.829 183.062C129.663 183.062 129.497 182.897 129.497 182.731C129.497 182.565 129.663 182.399 129.829 182.399C132.65 182.399 139.95 182.399 144.928 182.565C145.094 182.565 145.26 182.731 145.26 182.897C145.094 183.228 145.094 183.228 144.928 183.228Z" fill="#636464"/>
<path d="M129.662 214.901C129.496 214.901 129.33 214.736 129.33 214.57C129.33 214.404 129.496 214.238 129.662 214.238C134.64 214.072 139.783 214.072 144.927 214.072C145.093 214.072 145.259 214.238 145.259 214.404C145.259 214.57 145.093 214.736 144.927 214.736C139.783 214.736 134.806 214.736 129.662 214.901Z" fill="#636464"/>
<path d="M41.2249 249.393C83.701 249.393 123.688 249.062 164.505 249.393C165.667 249.393 165.667 240.273 165.667 240.273C152.393 241.268 76.2345 239.112 41.059 240.77C40.8931 243.258 40.7271 246.243 41.2249 249.393Z" fill="white"/>
<path d="M41.2259 250.057C40.8941 250.057 40.5622 249.725 40.3963 249.393C39.8985 245.911 40.0644 242.76 40.2304 240.439C40.2304 240.107 40.5622 239.775 41.06 239.61C60.8047 238.78 94.1551 239.112 120.869 239.278C141.775 239.444 159.86 239.61 165.668 239.112C165.834 239.112 166.165 239.112 166.331 239.278C166.497 239.444 166.663 239.61 166.663 239.941C166.663 249.891 165.502 249.891 164.838 249.891C137.959 249.725 111.743 249.725 84.1998 249.891C70.0964 250.057 55.6612 250.057 41.2259 250.057ZM41.7237 241.434C41.5578 243.424 41.5577 245.911 41.8896 248.564C56.1589 248.564 70.2623 248.564 83.8679 248.564C111.411 248.564 137.295 248.398 164.174 248.564C164.506 247.569 164.672 244.253 164.838 241.102C158.201 241.434 140.779 241.268 120.869 241.102C94.487 240.77 61.6344 240.439 41.7237 241.434Z" fill="#636464"/>
<path d="M154.857 136.26L153.866 249.153H213.317L214.06 136.508L154.857 136.26Z" fill="white"/>
<path d="M213.317 249.771H153.867C153.743 249.771 153.495 249.648 153.495 249.648C153.371 249.524 153.371 249.4 153.371 249.276L154.238 136.384C154.238 136.013 154.486 135.765 154.857 135.765L214.061 136.013C214.184 136.013 214.432 136.137 214.432 136.137C214.556 136.261 214.556 136.384 214.556 136.508L213.813 249.029C213.937 249.524 213.689 249.771 213.317 249.771ZM154.486 248.534H212.698L213.441 137.127L155.477 136.879L154.486 248.534Z" fill="#636464"/>
<path d="M177.523 172.406C173.807 172.406 169.473 172.282 165.757 172.158C165.757 168.445 165.757 164.36 165.757 160.399C169.596 160.151 173.436 160.151 177.523 160.399C177.771 164.36 177.647 168.197 177.523 172.406Z" fill="#D1D6DD"/>
<path d="M177.523 173.025C175.666 173.025 173.684 173.025 171.702 172.901C169.721 172.901 167.739 172.777 165.881 172.777C165.509 172.777 165.262 172.529 165.262 172.158V171.168C165.262 167.702 165.262 163.988 165.262 160.399C165.262 160.027 165.509 159.78 165.881 159.78C169.721 159.532 173.56 159.532 177.771 159.78C178.143 159.78 178.39 160.027 178.39 160.399C178.514 164.112 178.39 167.949 178.267 172.406C178.143 172.777 177.895 173.025 177.523 173.025ZM166.376 171.663C168.11 171.663 169.844 171.663 171.702 171.787C173.436 171.787 175.294 171.911 176.904 171.911C177.028 167.949 177.028 164.483 177.028 161.141C173.312 161.017 169.844 161.017 166.376 161.141C166.376 164.483 166.376 167.949 166.376 171.292V171.663Z" fill="#636464"/>
<path d="M202.047 172.406C198.331 172.406 193.996 172.282 190.28 172.158C190.28 168.445 190.28 164.36 190.28 160.399C194.12 160.151 197.959 160.151 202.047 160.399C202.294 164.36 202.17 168.197 202.047 172.406Z" fill="#D1D6DD"/>
<path d="M202.046 173.025C200.189 173.025 198.207 173.025 196.225 172.901C194.243 172.901 192.262 172.777 190.404 172.777C190.032 172.777 189.785 172.529 189.785 172.158V171.168C189.785 167.702 189.785 163.988 189.785 160.399C189.785 160.027 190.032 159.78 190.404 159.78C194.243 159.532 198.083 159.532 202.294 159.78C202.666 159.78 202.913 160.027 202.913 160.399C203.037 164.112 202.913 167.949 202.79 172.406C202.666 172.777 202.418 173.025 202.046 173.025ZM190.899 171.663C192.633 171.663 194.367 171.663 196.225 171.787C197.959 171.787 199.817 171.911 201.427 171.911C201.551 167.949 201.551 164.483 201.551 161.141C197.835 161.017 194.367 161.017 190.899 161.141C190.899 164.483 190.899 167.949 190.899 171.292V171.663Z" fill="#636464"/>
<path d="M177.152 197.534C173.436 197.534 169.101 197.411 165.385 197.287C165.385 193.573 165.385 189.488 165.385 185.527C169.225 185.28 173.064 185.28 177.152 185.527C177.399 189.488 177.399 193.326 177.152 197.534Z" fill="#D1D6DD"/>
<path d="M177.151 198.153C175.294 198.153 173.312 198.153 171.33 198.029C169.348 198.029 167.367 197.906 165.509 197.906C165.137 197.906 164.89 197.658 164.89 197.287V196.296C164.89 192.83 164.89 189.117 164.89 185.527C164.89 185.156 165.137 184.908 165.509 184.908C169.348 184.661 173.188 184.661 177.399 184.908C177.771 184.908 178.018 185.156 178.018 185.527C178.142 189.241 178.018 193.078 177.895 197.534C177.771 197.906 177.523 198.153 177.151 198.153ZM166.128 196.792C167.862 196.792 169.596 196.792 171.454 196.915C173.188 196.915 175.046 197.039 176.656 197.039C176.78 193.078 176.78 189.612 176.78 186.27C173.064 186.146 169.596 186.146 166.128 186.27C166.128 189.612 166.128 193.078 166.128 196.42V196.792Z" fill="#636464"/>
<path d="M201.675 197.534C197.96 197.534 193.625 197.411 189.909 197.287C189.909 193.573 189.909 189.488 189.909 185.527C193.749 185.28 197.588 185.28 201.675 185.527C201.923 189.488 201.923 193.326 201.675 197.534Z" fill="#D1D6DD"/>
<path d="M201.675 198.153C199.817 198.153 197.836 198.153 195.854 198.029C193.872 198.029 191.891 197.906 190.033 197.906C189.661 197.906 189.414 197.658 189.414 197.287V196.296C189.414 192.83 189.414 189.117 189.414 185.527C189.414 185.156 189.661 184.908 190.033 184.908C193.872 184.661 197.712 184.661 201.923 184.908C202.295 184.908 202.542 185.156 202.542 185.527C202.666 189.241 202.542 193.078 202.418 197.534C202.295 197.906 202.047 198.153 201.675 198.153ZM190.652 196.792C192.386 196.792 194.12 196.792 195.978 196.915C197.712 196.915 199.57 197.039 201.18 197.039C201.304 193.078 201.304 189.612 201.304 186.27C197.588 186.146 194.12 186.146 190.652 186.27C190.652 189.612 190.652 193.078 190.652 196.42V196.792Z" fill="#636464"/>
<path d="M177.152 222.786C173.436 222.786 169.101 222.663 165.385 222.539C165.385 218.825 165.385 214.74 165.385 210.779C169.225 210.532 173.064 210.532 177.152 210.779C177.399 214.617 177.399 218.454 177.152 222.786Z" fill="#D1D6DD"/>
<path d="M177.151 223.405C175.294 223.405 173.312 223.405 171.33 223.282C169.348 223.282 167.367 223.158 165.509 223.158C165.137 223.158 164.89 222.91 164.89 222.539V221.549C164.89 218.083 164.89 214.369 164.89 210.779C164.89 210.408 165.137 210.16 165.509 210.16C169.348 209.913 173.188 209.913 177.399 210.16C177.771 210.16 178.018 210.408 178.018 210.779C178.142 214.493 178.018 218.33 177.895 222.786C177.771 223.034 177.523 223.405 177.151 223.405ZM166.128 221.92C167.862 221.92 169.596 221.92 171.454 222.044C173.188 222.044 175.046 222.167 176.656 222.167C176.78 218.206 176.78 214.74 176.78 211.398C173.064 211.274 169.596 211.274 166.128 211.398C166.128 214.74 166.128 218.206 166.128 221.549V221.92Z" fill="#636464"/>
<path d="M201.675 222.786C197.96 222.786 193.625 222.663 189.909 222.539C189.909 218.825 189.909 214.74 189.909 210.779C193.749 210.532 197.588 210.532 201.675 210.779C201.923 214.617 201.923 218.454 201.675 222.786Z" fill="#D1D6DD"/>
<path d="M201.675 223.405C199.817 223.405 197.836 223.405 195.854 223.282C193.872 223.282 191.891 223.158 190.033 223.158C189.661 223.158 189.414 222.91 189.414 222.539V221.549C189.414 218.083 189.414 214.369 189.414 210.779C189.414 210.408 189.661 210.16 190.033 210.16C193.872 209.913 197.712 209.913 201.923 210.16C202.295 210.16 202.542 210.408 202.542 210.779C202.666 214.493 202.542 218.33 202.418 222.786C202.295 223.034 202.047 223.405 201.675 223.405ZM190.652 221.92C192.386 221.92 194.12 221.92 195.978 222.044C197.712 222.044 199.57 222.167 201.18 222.167C201.304 218.206 201.304 214.74 201.304 211.398C197.588 211.274 194.12 211.274 190.652 211.398C190.652 214.74 190.652 218.206 190.652 221.549V221.92Z" fill="#636464"/>
<path d="M213.565 143.316C193.748 142.697 173.931 142.574 154.734 142.945C154.362 142.945 154.114 142.697 154.114 142.326C154.114 141.955 154.362 141.707 154.734 141.707C173.931 141.212 193.748 141.336 213.565 142.078C213.937 142.078 214.184 142.326 214.184 142.697C214.184 143.069 213.937 143.316 213.565 143.316Z" fill="#636464"/>
<path d="M177.152 164.731L166.005 164.607C165.881 164.607 165.757 164.483 165.757 164.36C165.757 164.236 165.881 164.112 166.005 164.112L177.152 164.236C177.275 164.236 177.399 164.36 177.399 164.483C177.399 164.607 177.275 164.731 177.152 164.731Z" fill="#EDEFF1"/>
<path d="M202.046 164.731C199.321 164.607 196.225 164.607 193.129 164.607C192.138 164.607 191.271 164.607 190.28 164.607C190.156 164.607 190.032 164.483 190.032 164.36C190.032 164.236 190.156 164.112 190.28 164.112C191.147 164.112 192.138 164.112 193.129 164.112C196.225 164.112 199.445 164.112 202.17 164.236C202.294 164.236 202.418 164.36 202.418 164.483C202.294 164.607 202.17 164.731 202.046 164.731Z" fill="#EDEFF1"/>
<path d="M176.904 189.365C175.294 189.365 173.436 189.365 171.578 189.365C169.72 189.365 167.739 189.365 166.005 189.365C165.881 189.365 165.757 189.241 165.757 189.117C165.757 188.993 165.881 188.993 166.005 188.869C167.739 188.993 169.596 188.869 171.578 188.869C173.436 188.869 175.418 188.869 177.028 188.869C177.152 188.869 177.276 188.993 177.276 189.117C177.028 189.365 177.028 189.365 176.904 189.365Z" fill="#EDEFF1"/>
<path d="M201.675 189.364C199.074 189.241 194.863 189.241 190.404 189.241C190.281 189.241 190.157 189.117 190.157 188.993C190.157 188.869 190.281 188.746 190.404 188.746C194.987 188.746 199.074 188.746 201.675 188.869C201.799 188.869 201.923 188.993 201.923 189.117C201.799 189.241 201.675 189.364 201.675 189.364Z" fill="#EDEFF1"/>
<path d="M171.826 214.369C169.72 214.369 167.615 214.369 165.633 214.245C165.509 214.245 165.385 214.121 165.385 213.998C165.385 213.874 165.509 213.874 165.633 213.75C168.482 213.874 171.454 213.874 174.303 213.874C175.17 213.874 175.913 213.874 176.78 213.874C176.904 213.874 177.028 213.998 177.028 214.121C177.028 214.245 176.904 214.369 176.78 214.369C175.913 214.369 175.17 214.369 174.303 214.369C173.436 214.369 172.569 214.369 171.826 214.369Z" fill="#EDEFF1"/>
<path d="M190.28 214.245C190.156 214.245 190.032 214.121 190.032 213.998C190.032 213.874 190.156 213.75 190.28 213.75C193.996 213.626 197.835 213.626 201.675 213.626C201.798 213.626 201.922 213.75 201.922 213.874C201.922 213.998 201.798 214.121 201.675 214.121C197.835 214.121 193.996 214.121 190.28 214.245Z" fill="#EDEFF1"/>
<g opacity="0.1294">
<path d="M212.822 142.574C212.326 142.574 211.955 142.574 211.459 142.574C209.849 142.574 208.115 142.574 206.505 142.45C202.418 142.202 193.5 141.955 187.679 142.202C183.22 141.955 178.761 141.955 174.302 141.831C170.711 141.831 167.119 141.955 163.527 141.955C160.926 141.955 158.325 141.955 155.848 142.202C153.618 142.202 153.618 145.792 155.848 145.916C159.192 145.421 162.536 145.544 165.88 145.544C171.454 145.544 176.903 145.544 182.477 145.668C188.298 145.916 194.119 145.916 199.941 145.916C201.551 145.916 203.161 146.163 204.771 146.04C206.753 146.04 206.505 146.04 208.239 146.04C209.725 146.163 211.212 146.163 212.574 146.04C212.45 146.04 212.326 146.04 212.202 146.163C213.317 146.287 214.432 145.792 214.432 144.43C214.432 143.44 213.689 142.574 212.822 142.574Z" fill="#636464"/>
</g>
<path d="M12.7735 96.5403C12.7735 94.9562 11.4682 93.6516 9.88309 93.6516C8.29803 93.6516 6.99268 94.9562 6.99268 96.5403C6.99268 98.1245 8.29803 99.4291 9.88309 99.4291C11.4682 99.4291 12.7735 98.1245 12.7735 96.5403Z" fill="#E1ECFB"/>
<path d="M9.88346 99.895C8.01868 99.895 6.52686 98.404 6.52686 96.5403C6.52686 94.6766 8.01868 93.1856 9.88346 93.1856C11.7482 93.1856 13.2401 94.6766 13.2401 96.5403C13.2401 98.404 11.7482 99.895 9.88346 99.895ZM9.88346 94.2107C8.57812 94.2107 7.45924 95.3289 7.45924 96.6335C7.45924 97.9381 8.57812 99.0563 9.88346 99.0563C11.1888 99.0563 12.3077 97.9381 12.3077 96.6335C12.3077 95.2357 11.1888 94.2107 9.88346 94.2107Z" fill="#E1ECFB"/>
<path d="M265.866 185.955L264.253 249.684H374.231L375.485 186.134L265.866 185.955Z" fill="white"/>
<path d="M374.231 250.579H264.253C264.074 250.579 263.715 250.4 263.715 250.4C263.536 250.221 263.536 250.042 263.536 249.684L265.148 185.955C265.148 185.418 265.506 185.06 266.044 185.06L375.664 185.239C375.843 185.239 376.201 185.418 376.201 185.418C376.38 185.597 376.38 185.776 376.38 186.134L375.126 249.684C375.126 250.042 374.768 250.579 374.231 250.579ZM265.148 248.789H373.335L374.589 187.029L266.76 186.85L265.148 248.789Z" fill="#636464"/>
<path d="M311.181 249.684C279.835 249.684 247.057 250.221 215.711 249.863C215.711 218.535 215.353 186.313 213.562 151.405C242.221 150.689 277.686 150.331 313.509 149.973C311.539 184.88 309.569 226.591 311.181 249.684Z" fill="white"/>
<path d="M232.906 250.758C227.174 250.758 221.443 250.758 215.711 250.758C215.174 250.758 214.815 250.4 214.815 249.863C214.815 222.116 214.636 188.64 212.666 151.405C212.666 151.226 212.666 150.868 212.845 150.689C213.024 150.51 213.203 150.331 213.382 150.331C240.25 149.615 272.312 149.436 306.344 149.078H313.33C313.509 149.078 313.867 149.257 314.046 149.436C314.225 149.615 314.226 149.794 314.226 150.152C312.434 184.164 310.285 226.412 312.076 249.684C312.076 249.863 312.076 250.221 311.897 250.4C311.718 250.579 311.539 250.579 311.18 250.758C297.747 250.758 283.955 250.758 270.342 250.937C258.162 250.758 245.444 250.758 232.906 250.758ZM216.607 248.968C234.339 249.147 252.609 248.968 270.521 248.789C283.596 248.789 297.209 248.61 310.285 248.61C308.673 225.338 310.822 184.164 312.434 150.689H306.344C272.67 151.047 240.967 151.226 214.278 151.942C216.248 188.819 216.607 221.578 216.607 248.968Z" fill="#636464"/>
<path d="M328.555 157.491C282.88 157.491 241.862 158.207 200.486 158.207C220.547 136.726 242.221 112.559 262.64 91.2559C283.955 112.201 304.553 136.547 328.555 157.491Z" fill="white"/>
<path d="M200.486 159.281C200.128 159.281 199.77 159.102 199.77 158.744C199.591 158.386 199.77 158.028 199.949 157.849C207.472 149.794 215.353 141.201 223.055 132.787C235.952 118.645 249.385 104.145 262.103 90.8978C262.282 90.7188 262.461 90.7188 262.64 90.7188C262.819 90.7188 263.178 90.7188 263.178 90.8978C271.417 98.9535 279.477 107.367 287.896 116.318C300.971 130.102 314.405 144.244 328.913 157.133C329.272 157.312 329.272 157.67 329.093 158.028C328.914 158.386 328.555 158.565 328.197 158.565C304.733 158.565 282.522 158.744 261.028 158.923C240.43 159.102 220.548 159.281 200.486 159.281ZM262.64 92.688C249.923 105.756 236.847 120.077 224.13 133.861C216.965 141.738 209.442 149.794 202.457 157.491C221.981 157.491 240.967 157.312 261.207 157.133C281.985 156.954 303.479 156.775 326.048 156.775C312.076 144.423 299.18 130.639 286.642 117.392C278.402 108.62 270.7 100.565 262.64 92.688Z" fill="#636464"/>
<path d="M279.477 216.029C269.088 216.029 258.699 215.85 248.311 215.85C247.236 205.288 246.699 194.906 246.878 184.344C257.625 183.807 268.372 183.807 279.835 184.344C280.014 194.727 280.014 204.751 279.477 216.029Z" fill="#EAF2FF"/>
<path d="M279.477 216.924L248.311 216.745C247.953 216.745 247.415 216.387 247.415 216.029C246.161 204.035 245.803 194.01 245.982 184.523C245.982 183.986 246.34 183.628 246.878 183.628C257.625 183.091 268.372 183.091 279.835 183.628C280.373 183.628 280.731 183.986 280.731 184.523C280.91 194.548 280.731 204.572 280.373 216.208C280.373 216.566 280.014 216.924 279.477 216.924ZM249.206 214.955L278.582 215.134C278.94 204.214 279.119 194.727 278.94 185.239C268.014 184.702 257.804 184.702 247.773 185.239C247.773 194.189 248.132 203.677 249.206 214.955Z" fill="#636464"/>
<path d="M268.551 129.565C264.969 127.238 259.595 128.312 257.087 131.892C254.58 135.472 255.654 141.022 259.058 143.528C262.461 146.034 268.014 145.139 270.521 141.738C273.208 138.158 272.85 132.429 268.551 129.565Z" fill="white"/>
<path d="M263.894 145.855C262.103 145.855 260.133 145.318 258.7 144.244C254.759 141.38 253.684 135.473 256.55 131.355C259.237 127.417 265.148 126.164 269.089 128.849C271.238 130.281 272.492 132.429 273.029 134.935C273.566 137.442 272.85 140.306 271.417 142.275C269.626 144.602 266.76 145.855 263.894 145.855ZM264.252 129.207C261.745 129.207 259.237 130.281 257.983 132.429C255.834 135.652 256.729 140.664 259.774 142.812C262.819 145.139 267.835 144.244 269.984 141.201C271.238 139.59 271.596 137.442 271.238 135.293C270.88 133.145 269.805 131.534 268.014 130.281C266.939 129.565 265.506 129.207 264.252 129.207Z" fill="#636464"/>
<path d="M324.256 250.579C323.719 250.579 323.361 250.221 323.361 249.684C323.719 235.363 323.361 221.221 323.182 209.227C323.182 209.048 323.182 208.69 323.361 208.511C323.54 208.331 323.719 208.331 323.898 208.331C335.899 208.331 348.437 208.331 360.975 208.331C361.154 208.331 361.513 208.511 361.513 208.511C361.692 208.69 361.692 208.869 361.692 209.048C361.692 212.628 361.692 216.208 361.692 219.609C361.692 230.35 361.692 240.375 361.334 248.968C361.334 249.505 360.975 249.863 360.438 249.863C359.901 249.863 359.542 249.505 359.542 248.968C359.901 240.375 359.901 230.35 359.901 219.609C359.901 216.387 359.901 213.344 359.901 209.943C348.079 209.943 336.257 209.943 324.615 209.943C324.794 221.758 325.152 235.542 324.794 249.505C325.152 250.221 324.794 250.579 324.256 250.579Z" fill="#636464"/>
<path d="M324.973 215.134C324.793 215.134 324.614 214.955 324.614 214.776C324.614 214.597 324.793 214.418 324.973 214.418C336.615 213.881 348.258 213.702 359.9 213.881C360.079 213.881 360.259 214.06 360.259 214.239C360.259 214.418 360.079 214.597 359.9 214.597C348.258 214.239 336.615 214.418 324.973 215.134Z" fill="#636464"/>
<path d="M332.137 219.609C329.63 219.609 327.122 219.609 324.435 219.609C324.256 219.609 324.077 219.43 324.077 219.251C324.077 219.072 324.256 218.893 324.435 218.893C336.436 219.072 348.616 218.893 360.617 218.177C360.796 218.177 360.975 218.356 360.975 218.535C360.975 218.714 360.796 218.893 360.617 218.893C351.124 219.43 341.631 219.609 332.137 219.609Z" fill="#636464"/>
<path d="M324.257 225.517C324.078 225.517 323.898 225.338 323.898 225.159C323.898 224.98 324.078 224.801 324.257 224.801C336.437 223.906 348.796 223.727 360.976 224.085C361.155 224.085 361.334 224.264 361.334 224.443C361.334 224.622 361.155 224.801 360.976 224.801C348.796 224.264 336.437 224.622 324.257 225.517Z" fill="#636464"/>
<path d="M324.614 231.066C324.435 231.066 324.256 230.887 324.256 230.708C324.256 230.529 324.435 230.35 324.614 230.35L360.975 229.276C361.154 229.276 361.333 229.455 361.333 229.634C361.333 229.813 361.154 229.992 360.975 229.992L324.614 231.066Z" fill="#636464"/>
<path d="M336.795 235.721C332.675 235.721 328.376 235.721 324.257 235.721C324.078 235.721 323.898 235.542 323.898 235.363C323.898 235.184 324.078 235.005 324.257 235.005C336.258 235.005 348.617 235.005 360.617 234.826C360.797 234.826 360.976 235.005 360.976 235.184C360.976 235.363 360.797 235.542 360.617 235.542C352.915 235.542 344.855 235.721 336.795 235.721Z" fill="#636464"/>
<path d="M324.435 240.375C324.256 240.375 324.077 240.196 324.077 240.017C324.077 239.838 324.256 239.659 324.435 239.659H360.08C360.259 239.659 360.438 239.838 360.438 240.017C360.438 240.196 360.259 240.375 360.08 240.375H324.435Z" fill="#636464"/>
<path d="M341.094 244.851C335.721 244.851 330.168 244.672 324.794 244.492C324.615 244.492 324.436 244.313 324.436 244.134C324.436 243.955 324.615 243.776 324.794 243.776C336.795 244.134 348.796 244.134 360.797 243.597C360.976 243.597 361.155 243.776 361.155 243.955C361.155 244.134 360.976 244.313 360.797 244.313C354.349 244.671 347.721 244.851 341.094 244.851Z" fill="#636464"/>
<path d="M247.594 194.726C247.414 194.726 247.235 194.547 247.235 194.368C247.235 194.189 247.414 194.01 247.594 194.01C258.162 193.831 268.908 193.652 279.656 193.473C279.835 193.473 280.014 193.652 280.014 193.831C280.014 194.01 279.835 194.189 279.656 194.189C269.088 194.189 258.341 194.368 247.594 194.726Z" fill="#636464"/>
<path d="M263.357 215.85C263.178 215.85 262.999 215.671 262.999 215.492L263.536 194.189C263.536 194.01 263.715 193.831 263.895 193.831C264.074 193.831 264.253 194.01 264.253 194.189L263.716 215.492C263.536 215.671 263.536 215.85 263.357 215.85Z" fill="#636464"/>
<path d="M264.789 145.676C264.61 145.676 264.431 145.497 264.431 145.318C264.252 139.948 263.715 134.398 263.177 129.028C263.177 128.849 263.356 128.67 263.356 128.67C263.535 128.67 263.715 128.849 263.715 128.849C264.252 134.219 264.789 139.769 264.968 145.318C264.968 145.497 264.968 145.676 264.789 145.676Z" fill="#636464"/>
<path d="M256.193 137.084C256.014 137.084 255.834 136.905 255.834 136.726C255.834 136.547 256.014 136.368 256.193 136.368L272.313 135.294C272.492 135.294 272.672 135.473 272.672 135.652C272.672 135.831 272.492 136.01 272.313 136.01L256.193 137.084Z" fill="#636464"/>
<path d="M220.368 180.226C220.189 180.226 220.009 180.047 220.009 179.868L219.472 163.757C219.472 163.578 219.651 163.399 219.83 163.399C220.01 163.399 220.189 163.578 220.189 163.757L220.726 179.868C220.726 180.047 220.547 180.226 220.368 180.226Z" fill="#636464"/>
<path d="M224.667 170.022C224.488 170.022 224.308 169.843 224.308 169.664L223.95 163.041C223.95 162.862 224.129 162.683 224.308 162.683C224.488 162.683 224.667 162.862 224.667 163.041L225.025 169.664C224.846 170.022 224.846 170.022 224.667 170.022Z" fill="#636464"/>
<path d="M216.785 243.777C216.248 243.777 215.89 243.419 215.89 242.882C215.89 242.344 216.248 241.986 216.785 241.986L310.284 240.912C310.822 240.912 311.18 241.27 311.18 241.807C311.18 242.344 310.822 242.703 310.284 242.703L216.785 243.777Z" fill="#636464"/>
<g opacity="0.1294">
<path d="M313.33 161.072C313.15 160.714 312.971 160.356 312.792 160.177C312.792 158.924 311.897 157.67 310.464 157.67C307.24 158.028 303.836 157.67 300.612 157.849C297.388 157.849 293.985 158.207 290.761 158.565C290.044 158.565 289.328 158.565 288.611 158.924C287.716 158.924 286.999 158.924 286.104 158.924C280.73 159.103 275.536 158.924 270.162 158.924C262.102 158.924 254.042 159.103 245.981 159.103C241.324 159.103 236.667 158.744 232.01 158.924C226.816 158.924 221.801 159.64 216.606 159.103C213.203 158.745 212.845 163.936 216.248 164.115C222.159 164.652 227.891 163.936 233.802 163.936C246.161 164.473 258.52 164.115 270.879 163.936C276.073 163.936 281.268 164.115 286.462 164.115C293.627 164.473 300.791 164.831 308.135 164.652C308.493 164.652 308.852 164.652 309.031 164.652C309.21 164.652 309.389 164.652 309.568 164.652C310.285 164.831 310.822 164.652 311.538 164.652C312.792 163.757 313.688 162.325 313.33 161.072Z" fill="#636464"/>
</g>
<g opacity="0.1294">
<path d="M360.259 209.406C359.721 209.048 359.005 209.048 358.467 209.048C356.497 209.048 354.706 209.048 352.736 209.048C348.974 209.048 345.034 208.869 341.272 208.869C336.436 209.048 331.6 209.048 326.764 208.69C325.689 208.69 324.614 208.511 323.719 209.406C322.286 210.838 323.36 213.523 325.331 213.523C330.704 214.06 336.257 213.881 341.63 213.523C346.825 213.523 352.198 213.881 357.393 213.881C358.109 213.881 359.005 214.06 359.721 213.702C361.871 213.165 361.871 210.301 360.259 209.406Z" fill="#636464"/>
</g>
<path d="M343.457 115.651C371.189 115.371 398.921 114.811 426.653 114.531C435.337 114.531 444.581 114.252 452.424 110.052C460.548 105.573 466.15 96.8939 465.87 87.6552C465.59 78.4164 459.147 69.7376 450.183 67.218C441.219 64.6983 430.855 69.7376 427.493 78.1365C428.053 62.1787 414.047 47.0607 398.08 47.3407C382.113 47.3407 368.107 63.5785 371.189 79.2563C368.387 71.9773 359.704 68.3378 352.14 69.4577C344.577 70.8575 338.134 76.1767 333.932 82.6158C330.291 87.9351 328.05 94.3742 328.89 100.813C329.451 106.973 333.932 115.651 343.457 115.651Z" fill="white"/>
<path d="M343.176 117.051C333.652 117.051 328.33 108.932 327.49 100.813C326.369 92.9744 329.73 85.9754 332.812 81.496C337.854 73.937 344.857 68.8977 352.14 67.7779C358.863 66.658 365.586 69.1777 369.508 73.6571C369.788 67.7779 372.029 61.8987 376.231 56.8594C381.833 49.8603 389.957 45.9409 398.08 45.6609C405.924 45.6609 413.487 49.0204 419.369 55.1796C424.412 60.2189 427.493 66.658 428.613 73.3771C433.376 66.938 442.62 63.5784 450.463 65.8181C459.707 68.3378 466.71 77.5765 466.99 87.6551C467.27 97.1738 461.668 106.693 452.704 111.452C444.58 115.931 434.776 115.931 426.373 116.211L343.176 117.051C343.176 117.051 343.456 117.051 343.176 117.051ZM355.222 70.2975C354.381 70.2975 353.261 70.2975 352.42 70.5775C345.978 71.6973 339.535 76.1767 335.053 83.1758C332.252 87.3752 329.17 93.5343 330.011 100.533C330.571 105.573 334.212 114.252 343.176 114.252C343.176 114.252 343.176 114.252 343.456 114.252L426.653 113.132C434.776 113.132 444.3 112.852 451.864 108.652C459.707 104.453 464.749 95.774 464.469 87.3752C464.189 78.6964 458.026 70.2975 449.903 68.3378C441.499 66.0981 431.975 70.5775 428.894 78.4164C428.613 78.9763 428.053 79.2563 427.213 79.2563C426.653 79.2563 426.092 78.4164 426.092 77.8565C426.372 70.2975 423.291 62.7385 417.409 57.1393C412.086 51.5401 405.083 48.4605 398.08 48.4605C390.797 48.4605 383.514 52.38 378.192 58.5391C373.149 64.6983 371.188 71.9773 372.589 78.6964C372.589 79.2563 372.309 80.0962 371.749 80.3761C371.188 80.6561 370.348 80.0962 370.068 79.5362C367.547 73.3771 361.104 70.2975 355.222 70.2975Z" fill="#D1D6DD"/>
<g opacity="0.1294">
<path d="M458.867 97.4539C458.027 97.7339 457.467 98.2938 456.907 98.5738C456.346 99.1337 455.506 99.4136 454.666 99.9736C452.985 101.093 451.304 102.213 449.623 103.053C449.343 103.053 449.343 103.053 449.343 103.333C445.702 104.173 442.34 105.853 438.418 106.413C435.897 106.693 426.933 106.413 421.891 106.693C410.967 106.973 399.762 106.973 388.837 107.253C380.153 106.973 371.469 107.812 362.786 108.932C351.581 109.772 347.939 110.332 339.816 106.693C339.816 106.693 340.096 106.693 340.096 106.973C338.135 106.413 336.734 105.013 334.773 104.453C331.132 103.893 329.451 108.932 332.532 110.892C337.014 113.132 341.496 115.371 346.538 116.211C357.743 118.171 368.948 114.812 380.153 115.091C384.075 115.091 387.997 115.371 391.918 115.091C397.241 114.812 402.563 114.532 407.885 114.532C415.729 114.252 424.132 113.972 430.015 113.132C430.015 114.812 431.415 116.491 433.376 116.211C439.819 115.651 445.982 113.692 451.584 110.612C452.985 110.052 454.105 109.212 455.506 108.372C456.346 107.812 457.187 107.533 457.747 106.973C458.307 106.413 458.307 105.573 458.307 105.013C459.147 104.453 459.988 103.893 460.828 103.053C461.669 102.493 462.229 101.373 462.229 100.533C462.789 98.2938 460.828 96.894 458.867 97.4539Z" fill="#D1D6DD"/>
</g>
<path d="M14.5285 44.1921C39.2224 44.382 63.9162 44.5718 88.7999 44.7616C91.2693 44.7616 93.9287 44.7616 96.2081 44.0023C114.254 37.7374 107.225 23.3093 106.086 20.4616C104.186 15.7156 97.7277 14.1968 92.9789 15.9054C88.2301 17.614 84.621 21.6007 81.3918 25.3976C82.7215 16.8546 78.5425 7.36241 70.9444 3.18585C63.3463 -0.990717 52.709 0.528045 47.2003 7.17258C42.8314 12.2984 41.8817 19.5124 41.1219 26.157C39.2224 21.221 36.753 16.2851 32.3841 13.2476C28.0151 10.2101 21.5568 9.64054 17.7577 13.2476C13.3888 17.2343 13.9587 24.0687 14.7185 29.764C12.439 26.1569 6.7405 25.7773 3.70126 28.6249C0.662022 31.4726 0.282105 36.5984 2.56153 40.2054C4.65101 44.0023 8.82997 44.1921 14.5285 44.1921Z" fill="white"/>
<path d="M89.5602 45.7109C89.3703 45.7109 88.9903 45.7109 88.8004 45.7109L14.529 45.1414C9.21033 45.1414 4.08161 45.1413 1.61223 40.9648C-1.04711 36.978 -0.287305 31.2828 2.94189 28.2453C4.65146 26.7265 7.3108 25.9671 9.78019 26.157C11.1099 26.3468 12.2496 26.7265 13.3893 27.4859C12.8194 21.7906 13.1993 16.2851 16.9984 12.6781C21.5572 8.50149 28.3955 9.64055 32.7644 12.6781C36.3735 15.3359 38.8429 19.1327 40.5525 22.7398C41.3123 17.2343 42.642 11.3492 46.441 6.79291C52.1396 -0.231307 63.1568 -2.12974 71.3248 2.61636C78.353 6.60308 82.7219 14.5765 82.532 22.9296C85.1913 19.8921 88.6104 16.6648 92.7894 15.146C97.9181 13.2476 104.946 14.9562 107.036 20.082L107.226 20.4617C108.176 22.9296 111.025 29.3843 108.176 35.6492C106.276 39.6359 102.477 42.8632 96.5884 44.7616C94.309 45.521 92.0296 45.7109 89.5602 45.7109ZM8.64046 28.0554C6.93089 28.0554 5.41128 28.6249 4.08161 29.764C1.42228 32.232 0.85241 36.7882 2.94189 40.2054C4.84141 43.2429 8.64046 43.4328 14.339 43.6226L88.6104 44.1921C91.0798 44.1921 93.5492 44.1921 95.8286 43.4328C101.147 41.5343 104.756 38.8765 106.276 35.2695C108.745 29.9538 106.086 23.8789 105.136 21.6007L104.946 21.221C103.237 17.0445 97.3483 15.7156 92.9794 17.2343C88.2305 18.9429 84.8114 22.9296 81.7721 26.5367C81.5822 26.9163 81.0124 26.9164 80.6325 26.7265C80.2525 26.5367 80.0626 26.157 80.0626 25.7773C81.2023 17.4242 77.0233 8.50151 69.9951 4.51479C62.587 0.338231 52.5195 2.04682 47.3908 8.31167C43.0219 13.4375 42.2621 20.8413 41.5022 26.9163C41.5022 27.296 41.1223 27.6757 40.7424 27.6757C40.3625 27.6757 39.9826 27.4859 39.7927 27.1062C38.2731 23.3093 35.8037 17.8038 31.4348 14.5765C27.6357 11.9187 21.5572 11.1593 17.9481 14.5765C14.1491 18.1835 14.339 24.2585 15.2888 30.3335C15.2888 30.7132 15.0988 31.0929 14.7189 31.2827C14.339 31.4726 13.7692 31.2828 13.5792 30.9031C12.6295 29.5742 11.1099 28.6249 9.40029 28.4351C9.21033 28.0554 9.02036 28.0554 8.64046 28.0554Z" fill="#D1D6DD"/>
<g opacity="0.1294">
<path d="M103.807 36.2187C103.047 36.2187 102.477 36.7883 101.908 36.9781C101.148 37.5477 100.198 37.9273 99.2482 38.307H99.0583C94.6894 40.0156 88.9908 39.4461 81.9625 39.2562C70.9453 38.6867 59.5481 37.7375 48.5309 38.307C41.1228 38.8765 33.7146 38.8766 26.3065 38.6867C20.7978 38.8766 15.0993 39.2563 9.59065 38.8766C6.93131 38.4969 7.12128 38.6867 5.98156 37.7375C5.22175 36.9781 5.41169 37.168 5.22174 36.7883C5.03178 36.4086 4.46193 36.0289 3.89207 35.8391C2.1825 35.2695 0.662889 37.3578 1.61265 38.8766C2.37246 40.2055 3.32223 41.3445 4.6519 42.1039C5.79162 42.8632 7.12127 43.0531 8.64089 43.2429C13.9596 44.5719 19.0883 44.382 25.7366 44.0023C31.4352 44.0023 37.1338 44.0023 42.8323 43.6227C43.0223 44.0023 43.5921 44.1922 44.162 44.1922C46.8213 44.5719 49.4807 44.382 52.14 44.382C56.8888 44.382 61.6376 44.0023 66.5764 44.1922C71.3252 44.0023 76.074 44.9515 80.8228 44.7617C81.5826 44.7617 82.3425 44.1922 82.5324 43.4328C86.7114 43.4328 90.7004 44.0023 94.8793 43.4328C97.9186 43.0531 100.768 42.1039 103.427 40.775C104.377 40.2055 105.517 39.8258 105.707 38.6867C106.087 37.5476 105.137 36.2187 103.807 36.2187Z" fill="#D1D6DD"/>
</g>
<path d="M308.741 226.325L308.648 259.686H314.056L314.149 226.418L308.741 226.325Z" fill="#F7F8F9"/>
<path d="M314.056 260.152H308.648C308.555 260.152 308.368 260.058 308.368 260.058C308.275 259.965 308.275 259.872 308.275 259.779L308.368 226.418C308.368 226.325 308.461 226.139 308.461 226.139C308.555 226.046 308.648 226.046 308.741 226.046L314.149 226.139C314.429 226.139 314.615 226.325 314.615 226.605L314.522 259.872C314.522 259.872 314.335 260.152 314.056 260.152ZM309.114 259.22H313.683L313.776 226.884L309.301 226.791L309.114 259.22Z" fill="#B8D4F7"/>
<path d="M286.457 214.211C286.457 212.534 286.923 210.856 288.322 210.111C289.72 209.365 291.305 209.272 292.891 209.272C305.478 209.086 317.972 208.9 330.559 208.713C332.237 208.713 333.916 209.086 334.568 210.577C335.594 212.813 335.128 216.354 335.128 219.057C335.128 225.021 335.501 224.089 335.501 229.959C335.501 231.171 335.501 232.475 334.941 233.594C334.382 234.712 331.212 234.991 330 234.991C317.226 234.339 305.198 235.085 291.585 235.178C290.28 234.991 288.881 234.619 287.949 233.594C286.923 232.382 286.83 230.612 286.737 229.028C286.55 221.759 286.457 222.132 286.457 214.211Z" fill="#F7F8F9"/>
<path d="M291.585 235.644C289.72 235.457 288.415 234.898 287.669 233.966C286.55 232.662 286.457 230.891 286.364 229.121C286.364 227.909 286.27 226.884 286.27 225.952C286.084 221.666 286.084 220.827 286.084 214.304C286.084 212.161 286.83 210.577 288.135 209.831C289.627 208.993 291.399 208.993 292.89 208.899L330.559 208.34C332.89 208.34 334.382 208.993 335.034 210.484C335.874 212.254 335.78 214.77 335.687 217.193C335.687 217.845 335.594 218.498 335.594 219.15C335.594 222.132 335.687 223.343 335.78 224.555C335.874 225.766 335.967 227.071 335.967 230.053C335.967 231.264 335.967 232.662 335.314 233.873C334.568 235.271 331.025 235.551 329.906 235.457C321.422 234.991 313.31 235.178 304.639 235.364C300.443 235.457 296.061 235.551 291.585 235.644ZM330.745 209.179C330.652 209.179 330.652 209.179 330.559 209.179L292.89 209.738C291.492 209.738 289.814 209.738 288.508 210.484C287.11 211.322 286.923 213.093 286.923 214.211C286.923 220.734 286.923 221.573 287.11 225.859C287.11 226.698 287.203 227.723 287.203 229.028C287.296 230.705 287.389 232.196 288.322 233.314C288.974 234.06 290.093 234.526 291.585 234.712C296.061 234.712 300.443 234.619 304.639 234.432C313.31 234.246 321.422 234.06 330 234.526C331.398 234.619 334.102 234.153 334.568 233.407C335.128 232.382 335.128 231.171 335.128 229.959C335.128 226.978 335.034 225.766 334.941 224.555C334.848 223.343 334.755 222.039 334.755 219.057C334.755 218.404 334.755 217.752 334.848 217.1C334.941 214.863 335.034 212.347 334.289 210.763C333.729 209.738 332.517 209.179 330.745 209.179Z" fill="#B8D4F7"/>
<path d="M293.357 233.221C291.772 233.035 290.653 232.569 289.907 231.823C288.974 230.798 288.788 229.214 288.788 227.723C288.695 225.859 288.695 224.648 288.602 223.716C288.508 221.293 288.415 220.361 288.415 215.423C288.415 213.652 289.068 212.347 290.187 211.695C291.492 210.95 293.077 210.95 294.476 210.95L329.067 210.484C331.118 210.484 332.424 211.043 332.89 212.161C333.636 213.745 333.543 215.888 333.449 218.032C333.449 218.591 333.449 219.243 333.449 219.709C333.449 222.318 333.543 223.25 333.636 224.182C333.729 225.114 333.822 226.046 333.822 228.655C333.822 229.68 333.822 230.891 333.263 231.916C332.704 232.941 329.72 233.221 328.601 233.221C320.769 232.848 313.31 233.035 305.385 233.221C301.469 233.128 297.459 233.221 293.357 233.221ZM329.16 210.67C329.067 210.67 329.067 210.67 328.974 210.67L294.382 211.136C293.077 211.136 291.492 211.136 290.28 211.881C288.881 212.627 288.695 214.398 288.695 215.329C288.695 220.268 288.695 221.2 288.881 223.623C288.881 224.648 288.974 225.859 289.068 227.723C289.161 229.214 289.254 230.612 290.093 231.637C290.746 232.382 291.772 232.848 293.263 232.941C297.366 232.941 301.375 232.848 305.198 232.755C313.123 232.569 320.582 232.382 328.415 232.755C329.533 232.848 332.331 232.476 332.797 231.637C333.356 230.705 333.356 229.587 333.356 228.562C333.356 225.953 333.263 225.021 333.17 224.089C333.076 223.157 332.983 222.225 332.983 219.616C332.983 219.057 332.983 218.498 332.983 217.845C333.077 215.888 333.17 213.652 332.424 212.161C332.144 211.136 331.025 210.67 329.16 210.67Z" fill="#B8D4F7"/>
<path d="M297.401 226.351C295.816 226.351 294.138 225.699 293.578 224.301C293.485 224.115 293.578 223.835 293.858 223.742C294.138 223.649 294.324 223.742 294.418 224.021C294.884 225.233 296.842 225.792 298.334 225.419C298.893 225.326 299.639 225.047 300.105 224.487C300.385 224.115 300.571 223.556 300.571 222.996C300.478 221.599 299.266 220.294 297.774 220.015C297.494 219.921 297.215 219.921 296.935 219.921C296.189 219.828 295.443 219.735 294.791 219.269C294.045 218.71 293.765 217.592 294.045 216.567C294.511 215.262 295.723 214.237 297.215 213.957C298.8 213.771 300.385 214.61 300.851 215.821C300.944 216.101 300.851 216.287 300.571 216.38C300.292 216.473 300.105 216.38 300.012 216.101C299.639 215.169 298.427 214.61 297.308 214.796C296.189 214.982 295.257 215.728 294.884 216.753C294.697 217.312 294.697 218.058 295.257 218.43C295.63 218.71 296.282 218.803 296.935 218.896C297.215 218.896 297.494 218.989 297.867 218.989C299.825 219.362 301.411 221.04 301.411 222.81C301.411 223.649 301.224 224.394 300.758 224.86C300.105 225.606 299.173 225.885 298.52 226.072C298.147 226.351 297.774 226.351 297.401 226.351Z" fill="#636464"/>
<path d="M304.767 225.978C304.487 225.978 304.301 225.792 304.301 225.512C304.207 223.183 304.487 220.76 304.953 218.43C305.233 217.312 305.513 216.101 306.259 215.169C306.445 214.889 306.632 214.703 307.005 214.517C307.564 214.33 308.123 214.517 308.496 214.889C308.776 215.169 308.963 215.542 309.056 216.008C310.175 219.083 310.827 222.251 311.107 225.419C311.107 225.699 310.921 225.885 310.734 225.885C310.454 225.885 310.268 225.699 310.268 225.512C309.988 222.437 309.335 219.362 308.217 216.38C308.123 216.101 308.03 215.821 307.844 215.635C307.657 215.448 307.471 215.448 307.284 215.448C307.191 215.448 307.098 215.635 307.005 215.728C306.352 216.567 306.072 217.685 305.886 218.71C305.419 220.946 305.14 223.276 305.233 225.512C305.233 225.699 305.046 225.978 304.767 225.978Z" fill="#636464"/>
<path d="M304.767 221.692C304.487 221.692 304.301 221.505 304.301 221.319C304.301 221.039 304.487 220.853 304.674 220.853L307.378 220.667C308.497 220.574 309.802 220.48 311.014 220.76C311.294 220.853 311.387 221.039 311.387 221.319C311.294 221.599 311.107 221.692 310.828 221.692C309.709 221.412 308.59 221.505 307.471 221.599L304.767 221.692C304.767 221.692 304.86 221.692 304.767 221.692Z" fill="#636464"/>
<path d="M315.21 226.072C315.117 226.072 315.023 226.072 314.93 225.978C314.837 225.885 314.744 225.792 314.744 225.606C314.744 224.487 314.744 223.369 314.744 222.344C314.744 219.828 314.744 217.498 314.371 214.982C314.371 214.703 314.464 214.517 314.744 214.423C315.023 214.423 315.21 214.517 315.303 214.796C315.676 217.405 315.676 219.735 315.676 222.251C315.676 223.183 315.676 224.115 315.676 225.047C317.354 224.953 319.033 224.953 320.711 225.047C320.991 225.047 321.177 225.326 321.084 225.512C321.084 225.792 320.804 225.978 320.618 225.885C318.846 225.885 317.075 225.885 315.21 226.072Z" fill="#636464"/>
<path d="M323.042 225.978C322.949 225.978 322.855 225.978 322.762 225.885C322.669 225.792 322.669 225.699 322.576 225.606C322.576 221.785 322.296 218.151 322.016 214.703C322.016 214.61 322.016 214.423 322.109 214.33C322.203 214.237 322.296 214.144 322.482 214.144C324.44 214.144 326.492 214.237 328.45 214.423C328.729 214.423 328.916 214.703 328.823 214.889C328.823 215.169 328.543 215.355 328.356 215.262C326.585 215.076 324.813 214.982 322.949 214.982C323.228 218.151 323.415 221.505 323.508 224.953C325.186 224.953 326.865 224.953 328.45 224.953C328.729 224.953 328.916 225.14 328.916 225.419C328.916 225.699 328.729 225.885 328.45 225.885C326.678 225.978 324.907 225.978 323.042 225.978Z" fill="#636464"/>
<path d="M322.109 221.412C321.83 221.412 321.643 221.226 321.643 220.946C321.643 220.667 321.83 220.48 322.016 220.48C323.788 220.387 325.466 220.294 327.237 220.294C327.517 220.294 327.704 220.48 327.704 220.76C327.704 221.04 327.517 221.226 327.237 221.226C325.652 221.226 323.881 221.319 322.109 221.412Z" fill="#636464"/>
<path d="M289.627 215.236C289.534 215.236 289.441 215.143 289.441 215.05C289.441 214.491 289.627 214.025 289.907 213.559C290 213.466 290.094 213.466 290.094 213.559C290.187 213.652 290.187 213.745 290.094 213.745C289.814 214.118 289.721 214.584 289.721 215.05C289.814 215.143 289.721 215.236 289.627 215.236Z" fill="#B8D4F7"/>
<path d="M290.839 213.186H290.746C290.653 213.093 290.653 213 290.746 213C291.119 212.627 291.585 212.441 292.145 212.254C292.797 212.068 293.543 211.881 294.289 211.788C294.383 211.788 294.476 211.881 294.476 211.881C294.476 211.975 294.383 212.068 294.383 212.068C293.73 212.161 292.984 212.254 292.331 212.534C291.865 212.627 291.399 212.813 291.119 213.186C290.933 213.186 290.839 213.186 290.839 213.186Z" fill="#B8D4F7"/>
<path d="M331.305 231.823C331.212 231.823 331.212 231.823 331.212 231.73C331.212 231.637 331.212 231.544 331.305 231.544C331.585 231.45 331.865 231.171 331.958 230.798C332.144 230.519 332.238 230.146 332.238 229.773C332.424 228.934 332.424 228.003 332.424 227.164C332.424 227.071 332.517 226.978 332.61 226.978C332.704 226.978 332.797 227.071 332.797 227.164C332.797 228.096 332.704 228.934 332.61 229.866C332.517 230.239 332.424 230.612 332.238 230.985C331.958 231.45 331.678 231.73 331.305 231.823Z" fill="#B8D4F7"/>
<path d="M328.508 232.196C328.321 232.196 328.041 232.196 327.855 232.196C327.762 232.196 327.668 232.103 327.668 232.009C327.668 231.916 327.762 231.823 327.855 231.823C328.508 231.916 329.254 231.823 329.906 231.73C329.999 231.73 330.093 231.73 330.093 231.823C330.093 231.916 330.093 232.009 329.999 232.009C329.533 232.103 328.974 232.196 328.508 232.196Z" fill="#B8D4F7"/>
<g opacity="0.1294">
<path d="M313.217 234.712C312.471 234.712 311.725 234.805 310.886 234.805C310.14 234.898 309.394 234.712 308.742 234.898C307.902 235.178 308.182 236.389 309.021 236.389C310.233 236.389 311.445 236.482 312.658 236.482C312.844 236.482 313.31 236.482 313.31 236.482C313.59 236.482 313.87 236.389 314.056 236.203C314.895 235.55 314.149 234.432 313.217 234.712Z" fill="#B8D4F7"/>
</g>
<path d="M145.75 156.248C145.423 155.286 145.376 154.194 146.125 153.451C146.873 152.708 147.949 152.359 148.978 152.009C157.259 149.256 165.586 146.547 173.867 143.794C174.99 143.445 176.206 143.314 176.954 144.013C178.077 145.105 178.545 147.29 179.106 148.907C180.37 152.402 181.586 155.898 182.849 159.394C183.13 160.137 183.364 160.88 183.223 161.622C183.083 162.365 181.025 163.239 180.229 163.458C171.621 165.73 163.762 168.701 154.779 171.585C153.891 171.76 152.861 171.847 152.066 171.41C151.13 170.93 150.663 169.925 150.288 169.007C148.557 164.812 147.388 160.836 145.75 156.248Z" fill="white"/>
<path d="M153.423 171.935C152.815 171.935 152.301 171.804 151.879 171.585C150.897 171.061 150.429 170.056 150.008 169.051C148.932 166.473 148.137 163.982 147.248 161.36C146.687 159.743 146.125 158.039 145.47 156.248C145.049 155.024 145.19 153.932 145.891 153.233C146.687 152.446 147.856 152.053 148.839 151.747L173.727 143.532C175.224 143.051 176.347 143.139 177.049 143.838C177.937 144.712 178.405 146.198 178.873 147.64C179.013 148.033 179.107 148.426 179.247 148.776L182.99 159.263C183.224 159.962 183.551 160.792 183.364 161.622C183.177 162.54 180.932 163.414 180.183 163.632C174.429 165.162 169.049 166.953 163.388 168.876C160.628 169.837 157.727 170.799 154.733 171.76C154.312 171.891 153.844 171.935 153.423 171.935ZM175.458 143.663C175.037 143.663 174.522 143.751 173.914 143.969L149.026 152.184C148.09 152.49 146.967 152.839 146.266 153.582C145.47 154.369 145.704 155.549 145.938 156.16C146.593 157.952 147.154 159.612 147.716 161.273C148.605 163.895 149.447 166.342 150.476 168.92C150.85 169.881 151.271 170.799 152.113 171.236C152.722 171.542 153.564 171.629 154.686 171.367C157.681 170.405 160.534 169.444 163.294 168.483C169.002 166.56 174.382 164.725 180.136 163.196C181.072 162.933 182.896 162.103 182.99 161.535C183.13 160.836 182.85 160.049 182.616 159.394L178.873 148.907C178.733 148.557 178.639 148.164 178.499 147.727C178.078 146.416 177.61 144.887 176.768 144.1C176.44 143.838 176.019 143.663 175.458 143.663Z" fill="#23274D"/>
<path d="M154.265 170.318C153.751 170.318 153.33 170.231 152.955 170.056C152.113 169.619 151.692 168.745 151.318 167.871C150.382 165.555 149.634 163.327 148.839 161.011C148.371 159.569 147.856 158.039 147.248 156.466C146.874 155.418 147.014 154.5 147.622 153.888C148.324 153.189 149.353 152.839 150.289 152.534L173.166 145.018C174.475 144.581 175.458 144.668 176.066 145.236C176.861 146.023 177.282 147.334 177.703 148.601C177.797 148.95 177.937 149.3 178.031 149.65L181.399 159.044C181.633 159.656 181.867 160.399 181.727 161.098C181.586 161.841 179.622 162.627 178.92 162.846C173.633 164.244 168.721 165.905 163.482 167.696C160.909 168.57 158.289 169.444 155.575 170.318C155.061 170.274 154.64 170.318 154.265 170.318ZM174.663 144.799C174.242 144.799 173.774 144.887 173.212 145.061L150.336 152.577C149.447 152.883 148.418 153.189 147.763 153.888C146.967 154.631 147.201 155.723 147.435 156.335C147.996 157.952 148.511 159.438 149.026 160.923C149.821 163.283 150.57 165.468 151.505 167.784C151.879 168.658 152.254 169.488 153.049 169.925C153.657 170.231 154.452 170.274 155.482 170.056C158.195 169.182 160.862 168.308 163.388 167.434C168.628 165.686 173.54 163.982 178.826 162.584C179.575 162.365 181.399 161.579 181.54 160.967C181.68 160.312 181.446 159.612 181.212 159.001L177.844 149.606C177.75 149.3 177.61 148.95 177.516 148.557C177.142 147.377 176.721 146.023 175.926 145.28C175.645 144.974 175.224 144.799 174.663 144.799Z" fill="#23274D"/>
<path d="M155.248 151.791C154.593 151.834 153.984 152.315 153.891 152.927C153.797 153.539 154.312 154.194 154.967 154.325C155.622 154.412 156.324 153.932 156.464 153.32C156.558 152.621 156.09 151.747 155.248 151.791Z" fill="white"/>
<path d="M155.154 154.5C155.107 154.5 155.014 154.5 154.967 154.5C154.172 154.369 153.563 153.626 153.657 152.883C153.751 152.184 154.452 151.616 155.201 151.572C155.575 151.529 155.949 151.703 156.23 151.966C156.558 152.315 156.745 152.839 156.698 153.32C156.558 153.976 155.903 154.5 155.154 154.5ZM155.248 152.009C154.686 152.053 154.172 152.446 154.125 152.927C154.031 153.451 154.499 153.976 155.014 154.063C155.575 154.15 156.136 153.757 156.23 153.233C156.277 152.927 156.136 152.49 155.903 152.271C155.762 152.14 155.575 151.966 155.248 152.009Z" fill="#23274D"/>
<path d="M169.516 147.29C168.861 147.334 168.253 147.814 168.159 148.426C168.066 149.038 168.581 149.693 169.235 149.824C169.89 149.912 170.592 149.431 170.733 148.819C170.873 148.208 170.358 147.202 169.516 147.29Z" fill="white"/>
<path d="M169.423 149.999C169.376 149.999 169.283 149.999 169.236 149.999C168.441 149.868 167.832 149.125 167.926 148.382C168.02 147.683 168.721 147.115 169.47 147.071C169.844 147.028 170.218 147.203 170.499 147.465C170.827 147.814 171.014 148.339 170.967 148.819C170.873 149.475 170.172 149.999 169.423 149.999ZM169.61 147.508H169.563C169.002 147.552 168.487 147.945 168.441 148.426C168.347 148.95 168.815 149.475 169.33 149.562C169.891 149.65 170.452 149.256 170.546 148.732C170.593 148.426 170.452 147.989 170.218 147.771C170.078 147.64 169.891 147.508 169.61 147.508Z" fill="#23274D"/>
<path d="M155.014 152.796C154.967 152.796 154.967 152.796 154.92 152.796C154.78 152.752 154.733 152.621 154.78 152.533C156.136 149.038 157.867 145.804 159.973 141.915C160.3 141.303 160.628 140.779 161.049 140.298C161.236 140.08 161.563 139.774 161.984 139.687C162.92 139.512 163.715 140.43 163.949 140.735C164.651 141.566 165.306 142.352 165.914 143.139C167.411 144.93 168.815 146.634 169.844 147.814C169.937 147.902 169.891 148.033 169.797 148.12C169.703 148.208 169.563 148.164 169.47 148.076C168.394 146.897 166.99 145.192 165.54 143.401C164.885 142.614 164.23 141.828 163.575 140.998C163.014 140.298 162.499 140.036 162.078 140.124C161.844 140.167 161.61 140.298 161.376 140.561C160.955 140.998 160.674 141.522 160.347 142.09C158.242 145.935 156.557 149.169 155.201 152.665C155.201 152.752 155.107 152.796 155.014 152.796Z" fill="#23274D"/>
<path d="M162.125 139.119C161.751 139.075 161.376 139.25 161.189 139.512C160.955 139.774 160.908 140.124 160.955 140.473C161.002 140.604 161.049 140.735 161.142 140.823C161.189 140.866 161.283 140.91 161.33 140.954C161.61 141.085 161.891 141.129 162.172 141.085C162.452 140.998 162.686 140.779 162.827 140.517C162.873 140.386 162.967 140.298 162.967 140.167C162.967 140.08 162.967 139.993 162.92 139.905C162.78 139.512 162.546 139.162 162.125 139.119Z" fill="#B8D4F7"/>
<path d="M161.938 141.26C161.704 141.26 161.47 141.216 161.236 141.085C161.142 141.041 161.049 140.998 161.002 140.954C160.862 140.867 160.815 140.692 160.768 140.517C160.674 140.124 160.768 139.687 161.049 139.381C161.329 139.031 161.797 138.857 162.218 138.9C162.639 138.944 162.967 139.25 163.201 139.73C163.247 139.862 163.294 139.993 163.294 140.08C163.294 140.255 163.201 140.386 163.154 140.517C162.92 140.867 162.639 141.129 162.359 141.216C162.125 141.26 162.031 141.26 161.938 141.26ZM161.984 139.293C161.75 139.293 161.517 139.425 161.329 139.599C161.142 139.818 161.095 140.124 161.142 140.386C161.189 140.473 161.189 140.561 161.236 140.604C161.283 140.648 161.329 140.648 161.376 140.692C161.657 140.823 161.891 140.867 162.031 140.823C162.218 140.779 162.405 140.604 162.593 140.342C162.639 140.255 162.686 140.167 162.686 140.08C162.686 140.036 162.686 139.949 162.639 139.905C162.499 139.556 162.312 139.381 162.031 139.337C162.078 139.293 162.031 139.293 161.984 139.293Z" fill="#23274D"/>
<path d="M170.405 153.189C170.311 153.189 170.218 153.145 170.171 153.058C170.124 152.927 170.218 152.839 170.311 152.796C171.809 152.359 173.306 151.878 174.756 151.31C174.849 151.266 174.99 151.31 175.037 151.441C175.083 151.529 175.037 151.66 174.896 151.703C173.446 152.271 171.949 152.752 170.452 153.189H170.405Z" fill="#006FFD"/>
<path d="M156.183 165.555C156.089 165.555 155.996 165.511 155.949 165.424C155.668 164.681 155.388 163.895 155.107 163.108C155.06 163.108 155.013 163.152 155.013 163.152C154.92 163.196 154.78 163.152 154.733 163.064C154.686 162.977 154.733 162.846 154.826 162.802C154.873 162.759 154.92 162.759 154.967 162.715C154.499 161.404 153.937 160.137 153.423 158.826C153.376 158.738 153.423 158.607 153.563 158.564C154.078 158.345 154.592 158.17 155.107 158.083C155.341 158.039 155.668 157.996 155.949 158.039C156.464 158.127 156.885 158.389 157.306 158.913C157.68 159.394 157.82 159.875 157.774 160.312C157.727 160.749 157.493 161.229 157.025 161.71C156.744 162.016 156.464 162.278 156.136 162.496C157.446 162.409 158.803 162.977 159.505 163.938C159.551 164.026 159.551 164.157 159.458 164.244C159.364 164.288 159.224 164.288 159.13 164.201C158.429 163.196 156.932 162.715 155.575 163.021C155.856 163.807 156.136 164.55 156.417 165.337C156.464 165.468 156.37 165.555 156.277 165.599C156.23 165.555 156.183 165.555 156.183 165.555ZM153.891 158.782C154.405 160.006 154.873 161.229 155.341 162.409C155.856 162.103 156.277 161.754 156.651 161.36C157.025 160.923 157.259 160.574 157.306 160.224C157.353 159.875 157.212 159.481 156.885 159.088C156.557 158.651 156.23 158.433 155.856 158.389C155.622 158.345 155.388 158.389 155.154 158.433C154.733 158.52 154.312 158.607 153.891 158.782Z" fill="#006FFD"/>
<path d="M161.797 163.458C161.703 163.458 161.61 163.414 161.563 163.327C160.768 161.054 159.925 158.913 159.037 156.947C158.99 156.903 158.99 156.816 159.037 156.772C159.083 156.728 159.13 156.685 159.177 156.641C160.393 156.291 161.61 155.898 162.826 155.417C162.92 155.374 163.06 155.417 163.107 155.549C163.153 155.636 163.107 155.767 162.966 155.811C161.844 156.248 160.674 156.641 159.551 156.947C160.44 158.869 161.235 160.967 162.031 163.152C162.077 163.283 161.984 163.37 161.89 163.414C161.844 163.458 161.844 163.458 161.797 163.458Z" fill="#006FFD"/>
<path d="M160.534 161.098C160.44 161.098 160.347 161.054 160.3 160.967C160.253 160.836 160.3 160.749 160.44 160.705L163.2 159.787C163.341 159.744 163.434 159.787 163.481 159.918C163.528 160.049 163.481 160.137 163.341 160.18L160.58 161.098C160.58 161.098 160.534 161.098 160.534 161.098Z" fill="#006FFD"/>
<path d="M161.796 163.458C161.703 163.458 161.609 163.414 161.562 163.327C161.516 163.239 161.562 163.108 161.703 163.064C162.872 162.584 164.136 162.19 165.352 161.797C165.492 161.754 165.586 161.841 165.633 161.928C165.679 162.059 165.586 162.147 165.492 162.19C164.276 162.54 163.06 162.977 161.89 163.458C161.843 163.458 161.843 163.458 161.796 163.458Z" fill="#006FFD"/>
<path d="M167.177 161.579C167.083 161.579 166.989 161.535 166.943 161.404C166.288 159.175 165.492 157.034 164.65 154.981C164.603 154.893 164.65 154.806 164.697 154.718C164.791 154.675 164.884 154.631 164.978 154.718C166.428 155.505 167.598 156.597 168.767 157.646C169.329 158.17 169.89 158.695 170.545 159.175C169.796 157.602 169.235 155.942 168.72 154.325C168.627 154.063 168.533 153.844 168.486 153.582C168.44 153.451 168.533 153.364 168.627 153.32C168.767 153.276 168.861 153.364 168.907 153.451C169.001 153.713 169.095 153.932 169.141 154.194C169.75 156.073 170.405 158.039 171.387 159.831C171.434 159.918 171.387 160.049 171.34 160.093C171.247 160.137 171.153 160.137 171.059 160.093C170.124 159.438 169.282 158.651 168.486 157.908C167.457 156.991 166.475 156.117 165.352 155.374C166.101 157.253 166.802 159.219 167.41 161.229C167.457 161.36 167.364 161.448 167.27 161.491C167.177 161.579 167.177 161.579 167.177 161.579Z" fill="#006FFD"/>
<path d="M175.13 158.739C175.036 158.739 174.943 158.695 174.896 158.607C174.007 156.554 173.165 154.413 172.37 152.315C172.323 152.184 172.37 152.097 172.51 152.053C172.65 152.009 172.744 152.053 172.791 152.184C173.586 154.281 174.428 156.423 175.317 158.476C175.364 158.607 175.317 158.695 175.177 158.739C175.223 158.739 175.177 158.739 175.13 158.739Z" fill="#006FFD"/>
<g opacity="0.1294">
<path d="M183.036 161.229C182.615 161.011 182.428 161.535 182.335 161.579C182.148 161.753 181.726 162.016 181.305 162.147C180.276 162.584 178.966 162.89 177.75 163.195C176.955 163.414 176.159 163.72 175.364 163.982C174.054 164.463 172.697 164.943 171.341 165.293C170.452 165.555 169.563 165.905 168.674 166.167C166.382 166.779 164.183 167.565 161.891 168.264C159.084 169.226 155.481 170.449 153.002 170.886C152.674 170.93 152.768 170.886 152.207 170.93C152.16 170.93 152.113 170.93 152.019 170.973C151.598 171.105 151.739 171.76 152.207 171.76C152.581 171.76 153.002 171.804 153.376 171.76C154.125 171.673 154.826 171.41 155.575 171.236C158.101 170.58 160.44 169.531 162.967 168.789C164.23 168.395 165.493 168.002 166.756 167.609C168.019 167.259 169.282 166.91 170.452 166.473C171.247 166.211 172.042 165.992 172.838 165.73C174.194 165.249 175.317 164.812 176.814 164.288C177.89 163.895 179.013 163.72 180.089 163.414C180.791 163.239 181.446 162.89 182.101 162.627C182.475 162.409 183.691 161.666 183.036 161.229Z" fill="#23274D"/>
</g>
<path d="M32.6207 174.424C23.1598 173.267 13.3127 178.67 8.67875 186.967C4.04483 195.265 4.23791 206.071 8.87183 214.562C10.9957 218.615 14.2781 222.088 18.3328 224.018C21.8082 225.561 25.6698 225.754 29.5314 225.947C32.4276 225.947 35.5169 225.947 38.22 224.79C40.537 223.825 42.4678 222.281 44.2055 220.544C51.1564 213.597 54.4388 203.177 52.3149 193.721C50.191 183.88 42.0817 175.389 32.6207 174.424Z" fill="white"/>
<path d="M30.6905 226.719C30.3043 226.719 29.9182 226.719 29.532 226.719C25.8635 226.719 21.8088 226.526 18.1403 224.79C13.1202 222.474 10.0309 218.229 8.10008 214.948C3.27307 206.072 3.07999 194.879 7.907 186.582C12.9271 177.705 23.1603 172.302 32.8144 173.46C42.4684 174.617 50.9639 182.915 53.474 193.336C55.5978 202.791 52.3155 213.79 44.9784 221.123C42.8545 223.246 40.7307 224.79 38.6068 225.562C35.9036 226.526 33.2005 226.719 30.6905 226.719ZM30.1112 175.196C22.0019 175.196 13.6994 180.021 9.45164 187.546C5.01079 195.458 5.20387 205.879 9.64472 214.176C11.1894 217.264 14.0856 221.123 18.7195 223.246C22.1949 224.79 26.0565 224.983 29.532 224.983C32.2351 224.983 35.3244 224.983 37.8345 224.018C39.7653 223.246 41.503 221.895 43.4338 219.965C50.1916 213.018 53.2809 202.791 51.3501 193.914C49.2262 184.266 41.1168 176.547 32.4282 175.582C31.6559 175.196 30.8836 175.196 30.1112 175.196Z" fill="#D1D6DD"/>
<path d="M29.1458 251.998C28.5665 251.998 28.1804 251.612 28.1804 251.034L27.9873 187.932C27.9873 187.353 28.3735 186.968 28.9527 186.968C29.5319 186.968 29.9181 187.353 29.9181 187.932L30.1112 251.034C29.9181 251.612 29.5319 251.998 29.1458 251.998Z" fill="#D1D6DD"/>
<path d="M29.1457 214.369C28.9526 214.369 28.9526 214.369 28.7595 214.369C28.3733 214.176 27.9872 213.597 28.1803 213.211C30.4972 207.808 34.3588 202.984 39.3789 199.703C39.7651 199.511 40.3443 199.51 40.7305 199.896C40.9236 200.282 40.9236 200.861 40.5374 201.247C35.9035 204.335 32.2349 208.773 30.1111 213.983C29.7249 214.176 29.5318 214.369 29.1457 214.369Z" fill="#D1D6DD"/>
<path d="M11.1897 197.774C10.9966 197.774 10.9966 197.581 10.8035 197.581C10.4173 194.686 11.1897 191.792 12.9274 189.476C13.1205 189.283 13.3136 189.283 13.3136 189.476C13.5066 189.669 13.5066 189.862 13.3136 189.862C11.7689 191.985 10.9966 194.879 11.3827 197.388C11.3827 197.581 11.3827 197.774 11.1897 197.774Z" fill="#D1D6DD"/>
<path d="M14.8578 198.353C14.6648 198.353 14.4717 198.16 14.4717 197.967L15.244 193.528C15.244 193.335 15.4371 193.336 15.6302 193.336C15.8232 193.336 15.8232 193.528 15.8232 193.721L15.0509 198.16C15.244 198.16 15.0509 198.353 14.8578 198.353Z" fill="#D1D6DD"/>
<path d="M40.5377 217.843C40.5377 217.843 40.3446 217.843 40.3446 217.65C40.1515 217.457 40.3446 217.264 40.3446 217.264C42.4685 215.72 44.0131 213.597 44.9785 211.089C44.9785 210.896 45.1716 210.896 45.3647 210.896C45.5578 210.896 45.5578 211.089 45.5578 211.282C44.3993 213.79 42.8546 216.106 40.5377 217.843Z" fill="#D1D6DD"/>
<g opacity="0.1294">
<path d="M46.7163 213.79C45.944 213.79 45.5578 214.369 44.9786 214.948C44.0132 215.913 43.2409 216.878 42.2755 217.843C41.3101 218.615 39.3793 219.965 37.4485 220.93C37.2554 221.123 37.0623 221.123 36.8692 221.123C36.0969 221.316 35.1315 221.702 34.3592 221.702H34.1661C33.973 221.702 33.973 221.702 33.973 221.702C31.0768 222.088 28.3737 221.509 22.9674 220.351C20.8435 219.772 21.6159 219.965 19.6851 219.193C19.2989 219.193 18.1404 218.615 17.7543 218.422C15.8235 217.457 14.8581 216.878 14.0857 216.106C13.3134 215.527 12.9272 214.755 12.1549 214.369C10.4172 213.597 8.87256 215.913 10.2241 217.264C11.7688 218.808 13.5065 220.158 15.4373 221.123C15.8235 221.316 17.5612 222.088 18.1404 222.281C20.4574 223.439 20.8435 223.825 22.7743 224.404C24.7051 225.176 26.636 225.561 28.5668 225.754C30.4976 226.14 32.4284 226.14 34.3592 225.754C35.9038 225.369 37.2554 224.79 38.6069 224.018C41.3101 222.667 44.0132 221.123 45.944 218.808C46.7163 218.036 47.4886 217.071 48.261 216.299C48.6471 215.913 48.6471 215.527 48.6471 215.141C48.454 214.562 47.6817 213.79 46.7163 213.79Z" fill="#D1D6DD"/>
</g>
</svg>