<svg width="525" height="461" viewBox="0 0 525 461" fill="none" xmlns="http://www.w3.org/2000/svg">
<g clip-path="url(#clip0_14161_73658)">
<path d="M480.058 189.94C477.368 183.14 474.548 172.99 466.808 169.28C473.638 168.68 480.628 172.9 482.848 178.98C481.908 170.49 480.928 161.84 477.328 153.99C483.198 159.75 486.888 167.43 487.988 174.77C488.168 165.37 488.388 155.74 492.058 146.99C493.908 157.23 494.458 167.67 493.778 177.79C494.618 174.05 495.458 170.28 496.948 166.72C498.438 163.16 500.628 159.78 503.778 157.34C500.718 164.17 499.258 171.62 499.418 178.69C499.448 179.8 504.798 171.72 511.858 169.14C506.478 174.97 503.918 183.7 501.378 189.94H480.058Z" fill="#E1ECFB"/>
<path d="M501.367 190.44H480.047C479.847 190.44 479.657 190.32 479.587 190.13C479.227 189.22 478.867 188.26 478.487 187.25C476.087 180.84 473.107 172.87 466.577 169.74C466.377 169.64 466.267 169.42 466.307 169.2C466.347 168.98 466.527 168.81 466.757 168.79C472.847 168.25 478.957 171.34 482.037 176.23C481.177 168.77 480.067 161.17 476.877 154.21C476.777 153.99 476.847 153.73 477.047 153.6C477.247 153.46 477.507 153.48 477.677 153.65C482.347 158.24 485.837 164.22 487.577 170.51C487.797 162.72 488.427 154.35 491.597 146.81C491.687 146.61 491.887 146.48 492.107 146.51C492.327 146.53 492.507 146.7 492.547 146.92C494.067 155.36 494.727 163.95 494.517 172.52C495.047 170.5 495.677 168.49 496.487 166.54C498.207 162.45 500.557 159.22 503.467 156.96C503.647 156.82 503.897 156.82 504.077 156.96C504.257 157.1 504.317 157.35 504.227 157.55C501.367 163.95 499.867 170.93 499.897 177.81C500.117 177.58 500.377 177.31 500.627 177.04C502.787 174.74 506.797 170.46 511.677 168.68C511.887 168.6 512.137 168.68 512.257 168.87C512.387 169.06 512.367 169.31 512.207 169.48C507.917 174.13 505.467 180.6 503.297 186.31C502.787 187.66 502.307 188.93 501.817 190.13C501.737 190.32 501.557 190.44 501.357 190.44H501.367ZM480.387 189.45H501.027C501.467 188.36 501.907 187.19 502.367 185.97C504.317 180.82 506.497 175.07 510.057 170.49C506.267 172.48 503.147 175.81 501.347 177.73C500.047 179.12 499.737 179.45 499.277 179.27C499.057 179.19 498.917 178.98 498.917 178.72C498.767 172.12 499.997 165.41 502.477 159.16C500.427 161.18 498.727 163.79 497.407 166.93C495.927 170.46 495.077 174.25 494.257 177.92C494.197 178.17 493.957 178.34 493.697 178.3C493.437 178.26 493.257 178.03 493.267 177.77C493.917 168.11 493.447 158.38 491.857 148.83C488.797 157.15 488.627 166.11 488.467 174.79C488.467 175.05 488.257 175.26 487.997 175.28C487.747 175.29 487.507 175.11 487.477 174.86C486.477 168.17 483.377 161.56 478.837 156.35C481.627 163.63 482.487 171.4 483.327 178.94C483.357 179.19 483.187 179.42 482.947 179.48C482.707 179.54 482.457 179.4 482.367 179.17C480.427 173.86 474.597 169.97 468.617 169.75C474.397 173.47 477.167 180.87 479.417 186.91C479.747 187.8 480.067 188.65 480.387 189.46V189.45Z" fill="#23274D"/>
<path d="M490.938 189.63C490.848 189.63 490.778 189.55 490.778 189.46C490.898 186.36 490.818 183.21 490.558 180.12C490.558 180.03 490.618 179.95 490.708 179.94C490.798 179.94 490.878 180 490.888 180.09C491.148 183.19 491.218 186.35 491.108 189.47C491.108 189.56 491.028 189.63 490.938 189.63Z" fill="#23274D"/>
<path d="M494.588 189.63C494.498 189.63 494.428 189.56 494.418 189.47C494.378 187.07 494.728 184.7 495.468 182.42C495.498 182.33 495.588 182.28 495.678 182.31C495.768 182.34 495.808 182.43 495.788 182.52C495.068 184.77 494.718 187.1 494.758 189.46C494.758 189.55 494.688 189.63 494.598 189.63H494.588Z" fill="#23274D"/>
<path d="M497.948 189.76C497.948 189.76 497.928 189.76 497.908 189.76C497.818 189.74 497.758 189.65 497.788 189.56C498.268 187.44 499.088 185.43 500.218 183.58C500.268 183.5 500.368 183.48 500.448 183.53C500.528 183.58 500.548 183.68 500.498 183.76C499.378 185.58 498.578 187.56 498.108 189.64C498.088 189.72 498.018 189.77 497.948 189.77V189.76Z" fill="#23274D"/>
<path d="M487.748 189.98C487.668 189.98 487.598 189.93 487.588 189.85L486.308 183.6C486.288 183.51 486.348 183.42 486.438 183.4C486.528 183.38 486.618 183.44 486.638 183.53L487.918 189.78C487.938 189.87 487.878 189.96 487.788 189.98C487.778 189.98 487.768 189.98 487.758 189.98H487.748Z" fill="#23274D"/>
<path d="M483.707 190.11C483.617 190.11 483.547 190.04 483.537 189.95C483.487 187.86 482.997 185.76 482.117 183.86C482.077 183.78 482.117 183.68 482.197 183.64C482.277 183.6 482.377 183.64 482.417 183.72C483.307 185.66 483.817 187.81 483.867 189.94C483.867 190.03 483.797 190.11 483.707 190.11Z" fill="#23274D"/>
<path d="M470.087 189.2L478.277 219.09L504.347 218.93L511.357 189.72L470.087 189.2Z" fill="white"/>
<path d="M478.278 219.59C478.058 219.59 477.858 219.44 477.798 219.22L469.618 189.34C469.578 189.19 469.618 189.03 469.708 188.9C469.808 188.78 469.938 188.7 470.108 188.71L511.368 189.23C511.518 189.23 511.658 189.3 511.758 189.42C511.848 189.54 511.888 189.69 511.848 189.84L504.838 219.05C504.788 219.27 504.588 219.43 504.358 219.43L478.288 219.59H478.278ZM470.748 189.71L478.658 218.59L503.958 218.44L510.728 190.22L470.748 189.72V189.71Z" fill="#23274D"/>
<path d="M509.978 194.85C497.328 194.41 484.498 194.4 471.848 194.84C471.768 194.84 471.678 194.77 471.678 194.68C471.678 194.59 471.748 194.51 471.838 194.51C484.498 194.08 497.328 194.08 509.988 194.52C510.078 194.52 510.148 194.6 510.148 194.69C510.148 194.78 510.068 194.85 509.978 194.85Z" fill="#23274D"/>
<path d="M390.547 224.65C390.857 231.1 391.157 237.55 391.467 244C391.627 247.41 391.797 250.85 392.697 254.14C392.957 255.1 393.297 256.06 393.937 256.82C394.577 257.57 395.597 258.08 396.567 257.88C398.407 257.5 398.917 255.15 399.027 253.27C399.587 243.66 399.957 234.04 400.147 224.41L390.547 224.65Z" fill="#B8D4F7"/>
<path d="M396.147 258.42C395.227 258.42 394.247 257.95 393.557 257.14C392.827 256.29 392.467 255.21 392.217 254.27C391.297 250.91 391.137 247.41 390.967 244.02L390.047 224.67C390.047 224.54 390.087 224.41 390.177 224.31C390.267 224.21 390.397 224.15 390.527 224.15L400.127 223.91C400.257 223.91 400.397 223.96 400.487 224.05C400.587 224.15 400.637 224.28 400.637 224.41C400.447 233.99 400.067 243.71 399.517 253.29C399.297 257.04 397.847 258.12 396.667 258.36C396.497 258.39 396.327 258.41 396.147 258.41V258.42ZM391.067 225.13L391.957 243.97C392.117 247.3 392.277 250.75 393.167 254.01C393.397 254.85 393.707 255.79 394.307 256.5C394.897 257.19 395.747 257.54 396.457 257.4C397.977 257.09 398.417 254.97 398.517 253.25C399.057 243.86 399.437 234.33 399.627 224.93L391.057 225.15L391.067 225.13Z" fill="#23274D"/>
<path d="M482.047 224.65C482.357 231.1 482.657 237.55 482.967 244C483.127 247.41 483.297 250.85 484.197 254.14C484.457 255.1 484.797 256.06 485.437 256.82C486.077 257.57 487.097 258.08 488.067 257.88C489.907 257.5 490.417 255.15 490.527 253.27C491.087 243.66 491.457 234.04 491.647 224.41L482.047 224.65Z" fill="#B8D4F7"/>
<path d="M487.647 258.42C486.727 258.42 485.747 257.95 485.057 257.14C484.327 256.29 483.967 255.21 483.717 254.27C482.797 250.91 482.637 247.41 482.467 244.02L481.547 224.67C481.547 224.54 481.587 224.41 481.677 224.31C481.767 224.21 481.897 224.15 482.027 224.15L491.627 223.91C491.757 223.91 491.897 223.96 491.987 224.05C492.087 224.15 492.137 224.28 492.137 224.41C491.947 233.99 491.567 243.71 491.007 253.29C490.787 257.04 489.337 258.12 488.157 258.36C487.987 258.39 487.817 258.41 487.637 258.41L487.647 258.42ZM482.567 225.13L483.457 243.97C483.617 247.3 483.777 250.75 484.667 254.01C484.897 254.85 485.207 255.79 485.807 256.5C486.397 257.19 487.247 257.54 487.957 257.4C489.477 257.09 489.917 254.97 490.017 253.25C490.557 243.86 490.937 234.33 491.127 224.93L482.557 225.15L482.567 225.13Z" fill="#23274D"/>
<path d="M523.578 227.57C523.538 224.72 523.588 221.86 523.728 219.01C468.578 218.81 413.138 219.51 357.768 219.79C357.808 221.02 357.988 226.72 357.988 229.37C388.078 228.4 418.128 228.77 448.298 228.77C474.888 228.77 502.728 229.02 523.478 228.35C523.298 228.18 523.128 228 523.578 227.56V227.57Z" fill="#B8D4F7"/>
<path d="M357.997 229.87C357.867 229.87 357.747 229.82 357.647 229.73C357.547 229.64 357.497 229.51 357.497 229.37C357.497 226.68 357.307 220.78 357.277 219.81C357.277 219.68 357.317 219.55 357.417 219.45C357.507 219.35 357.637 219.3 357.777 219.3C375.367 219.21 393.257 219.08 410.567 218.95C447.707 218.67 486.117 218.38 523.747 218.52C523.887 218.52 524.017 218.58 524.107 218.68C524.197 218.78 524.247 218.91 524.247 219.05C524.107 221.88 524.057 224.75 524.097 227.58C524.097 227.72 524.047 227.85 523.947 227.94C523.907 227.98 523.887 228.01 523.867 228.03C523.997 228.17 524.037 228.37 523.967 228.56C523.897 228.75 523.717 228.87 523.517 228.88C507.197 229.41 486.937 229.37 465.487 229.32C459.757 229.31 454.007 229.3 448.317 229.3C441.757 229.3 435.097 229.28 428.647 229.26C405.497 229.2 381.557 229.13 358.017 229.89C358.017 229.89 358.007 229.89 357.997 229.89V229.87ZM358.287 220.28C358.337 221.93 358.477 226.32 358.487 228.85C381.877 228.11 405.647 228.17 428.637 228.23C435.077 228.25 441.737 228.27 448.297 228.27C453.987 228.27 459.747 228.28 465.467 228.29C486.627 228.33 506.617 228.37 522.807 227.87C522.847 227.67 522.957 227.5 523.077 227.36C523.047 224.75 523.087 222.1 523.207 219.49C485.747 219.36 447.527 219.64 410.557 219.92C393.417 220.05 375.707 220.18 358.277 220.27L358.287 220.28Z" fill="#23274D"/>
</g>
<g clip-path="url(#clip1_14161_73658)">
<path d="M143.995 361.466L141.485 440.136L300.525 440.512L295.267 357.928L143.995 361.466Z" fill="white"/>
<path d="M300.525 441.5L141.485 441.125C141.228 441.125 140.971 441.006 140.773 440.828C140.595 440.63 140.497 440.373 140.497 440.116L143.027 361.447C143.027 360.933 143.462 360.498 143.995 360.498L295.267 356.96C295.267 356.96 295.267 356.96 295.287 356.96C295.8 356.96 296.235 357.355 296.275 357.889L301.533 440.472C301.533 440.749 301.454 441.006 301.276 441.204C301.098 441.401 300.841 441.52 300.564 441.52L300.525 441.5ZM142.493 439.168L299.477 439.543L294.338 358.956L144.944 362.435L142.493 439.168Z" fill="#23274D"/>
<path d="M166.963 379.295C162.693 349.646 160.598 319.581 160.657 289.576C160.677 277.914 161.349 265.283 167.793 256.408C173.427 248.64 182.381 245.378 190.959 243.184C213.315 237.492 235.671 239.053 258.343 243.343C265.913 244.785 274.156 251.862 278.524 259.195C281.864 264.809 283.149 269.731 283.268 276.51C283.821 309.243 282.26 337.43 278.643 369.847C278.168 374.077 277.298 378.939 274.037 380.896L166.963 379.295Z" fill="white"/>
<path d="M274.037 381.885L166.963 380.284C166.489 380.284 166.073 379.928 166.014 379.434C161.745 349.804 159.63 319.562 159.709 289.576C159.728 278.092 160.321 265.066 167.042 255.835C172.972 247.672 182.361 244.371 190.762 242.236C210.567 237.195 231.48 237.255 258.58 242.374C265.972 243.778 274.531 250.478 279.413 258.681C282.754 264.295 284.177 269.454 284.296 276.491C284.829 308.117 283.446 336.066 279.651 369.946C279.117 374.808 278.129 379.592 274.59 381.727C274.432 381.825 274.254 381.865 274.077 381.865L274.037 381.885ZM167.813 378.327L273.76 379.908C276.389 378.109 277.219 373.761 277.654 369.728C281.43 335.928 282.813 308.058 282.28 276.53C282.161 269.79 280.876 265.066 277.674 259.689C273.128 252.06 264.925 245.596 258.165 244.311C231.362 239.231 210.706 239.172 191.196 244.133C183.152 246.189 174.158 249.312 168.584 256.981C162.219 265.738 161.666 278.388 161.626 289.576C161.547 319.186 163.622 349.053 167.793 378.327H167.813Z" fill="#23274D"/>
<path d="M180.998 329.543C179.99 327.784 178.962 325.906 178.922 323.871C178.883 321.835 180.227 319.601 182.203 319.463C185.05 319.265 186.572 322.942 189.201 324.127C190.96 324.918 192.976 324.464 194.854 324.048C206.299 321.499 218.316 320.57 229.643 323.554C232.588 324.345 235.79 325.373 238.597 324.127C240.514 323.278 242.214 321.38 244.289 321.716C246.562 322.072 247.61 324.958 247.215 327.27C246.819 329.583 245.436 331.579 244.704 333.813C243.163 338.517 244.546 343.617 245.238 348.519C246.345 356.366 245.594 364.49 243.024 371.804C243.677 373.741 244.309 375.678 244.961 377.595C245.238 378.426 245.515 379.355 245.218 380.165C245.021 380.679 244.625 381.074 244.171 381.351C242.629 382.28 240.633 381.766 239.051 380.916C237.47 380.066 236.007 378.88 234.288 378.445C232.766 378.07 231.165 378.287 229.603 378.505C216.834 380.205 203.887 380.343 191.098 378.939C189.952 378.821 188.766 378.682 187.679 379.098C186.769 379.453 186.038 380.165 185.267 380.797C183.844 381.944 182.085 382.853 180.306 382.636C178.507 382.418 176.807 380.718 177.104 378.9C177.282 377.833 178.033 376.983 178.645 376.113C180.227 373.899 181.136 371.132 180.998 368.384C180.879 365.913 179.95 363.581 179.238 361.229C176.649 352.69 176.787 343.301 179.634 334.841C180.543 332.153 181.67 329.01 181.017 329.543H180.998Z" fill="#B8D4F7"/>
<path d="M180.839 383.664C180.622 383.664 180.404 383.664 180.207 383.624C178.962 383.486 177.736 382.774 176.945 381.727C176.273 380.837 175.977 379.77 176.135 378.742C176.313 377.615 176.965 376.726 177.538 375.955C177.637 375.816 177.736 375.678 177.835 375.54C179.357 373.405 180.128 370.895 179.989 368.424C179.891 366.586 179.337 364.826 178.724 362.968C178.566 362.474 178.408 362 178.27 361.506C175.621 352.769 175.759 343.182 178.665 334.525L179.001 333.517C179.377 332.39 179.93 330.789 180.108 330.018C179.159 328.338 177.953 326.223 177.914 323.89C177.874 321.439 179.456 318.672 182.104 318.474C184.219 318.316 185.722 319.838 187.046 321.163C187.876 322.013 188.667 322.823 189.576 323.218C191.039 323.871 192.857 323.475 194.616 323.08C208.137 320.056 219.66 319.898 229.88 322.606L230.591 322.803C233.22 323.515 235.928 324.246 238.201 323.238C238.755 323.001 239.308 322.645 239.901 322.25C241.206 321.42 242.668 320.471 244.447 320.728C245.515 320.886 246.444 321.499 247.136 322.447C248.084 323.772 248.48 325.669 248.183 327.409C247.926 328.911 247.294 330.275 246.681 331.579C246.286 332.429 245.91 333.24 245.633 334.09C244.447 337.667 245.119 341.68 245.772 345.534C245.93 346.483 246.088 347.412 246.207 348.341C247.333 356.307 246.582 364.392 244.072 371.764L245.89 377.24C246.167 378.05 246.562 379.276 246.127 380.462C245.87 381.134 245.357 381.746 244.665 382.161C242.49 383.486 239.901 382.478 238.577 381.766C238.063 381.489 237.569 381.193 237.094 380.896C236.066 380.264 235.098 379.651 234.03 379.394C232.726 379.058 231.322 379.256 229.84 379.453H229.721C216.893 381.173 203.847 381.331 190.979 379.908C189.892 379.789 188.884 379.671 188.034 380.007C187.441 380.224 186.908 380.679 186.334 381.173C186.176 381.311 186.038 381.43 185.88 381.549C184.18 382.932 182.44 383.644 180.82 383.644L180.839 383.664ZM181.63 328.634C181.63 328.634 181.709 328.674 181.729 328.694C182.559 329.267 182.282 330.117 180.899 334.169L180.563 335.177C177.795 343.439 177.657 352.611 180.187 360.952C180.325 361.427 180.484 361.901 180.642 362.375C181.254 364.273 181.887 366.25 181.986 368.345C182.124 371.25 181.235 374.215 179.456 376.706C179.357 376.844 179.238 377.002 179.139 377.141C178.645 377.793 178.191 378.426 178.092 379.078C177.993 379.71 178.27 380.224 178.527 380.56C178.981 381.173 179.713 381.608 180.444 381.687C182.045 381.885 183.626 380.896 184.674 380.066C184.812 379.948 184.97 379.829 185.109 379.71C185.781 379.157 186.473 378.564 187.362 378.228C188.667 377.734 190.031 377.872 191.236 378.011C203.966 379.414 216.834 379.276 229.524 377.576H229.642C231.243 377.338 232.904 377.121 234.584 377.556C235.928 377.892 237.094 378.604 238.201 379.295C238.676 379.592 239.13 379.869 239.585 380.106C240.356 380.521 242.332 381.41 243.716 380.56C244.032 380.363 244.25 380.125 244.348 379.869C244.526 379.374 244.348 378.683 244.092 377.951L242.154 372.16C242.095 371.962 242.095 371.725 242.154 371.527C244.665 364.352 245.416 356.465 244.309 348.697C244.171 347.788 244.032 346.859 243.874 345.93C243.182 341.838 242.49 337.588 243.815 333.536C244.131 332.588 244.546 331.698 244.941 330.828C245.515 329.583 246.068 328.397 246.286 327.132C246.503 325.926 246.226 324.562 245.594 323.653C245.218 323.119 244.744 322.803 244.19 322.724C243.162 322.566 242.174 323.199 241.008 323.95C240.375 324.345 239.743 324.76 239.031 325.076C236.126 326.361 232.943 325.491 230.117 324.74L229.425 324.562C219.522 321.933 208.295 322.111 195.091 325.057C193.114 325.491 190.881 326.005 188.825 325.057C187.599 324.503 186.631 323.535 185.702 322.586C184.536 321.4 183.567 320.392 182.302 320.471C180.859 320.57 179.891 322.349 179.93 323.871C179.97 325.551 180.8 327.172 181.63 328.634Z" fill="#23274D"/>
<path d="M139.408 440.512C135.317 425.39 132.688 377.793 131.581 362.197C131.126 355.635 130.929 348.954 132.629 342.589C134.329 336.224 138.143 330.136 144.054 326.934C149.964 323.732 158.068 324.068 162.851 328.733C167.062 332.844 167.912 339.091 168.504 344.862C170.679 365.716 171.509 419.599 173.031 440.512H139.408Z" fill="white"/>
<path d="M173.031 441.5H139.409C138.974 441.5 138.578 441.203 138.46 440.769C134.902 427.644 132.471 390.404 131.146 370.401C130.929 367.198 130.751 364.431 130.593 362.277C130.059 354.746 130.039 348.46 131.68 342.332C133.617 335.039 137.966 329.109 143.579 326.065C150.26 322.447 158.661 323.278 163.523 328.022C167.852 332.252 168.801 338.34 169.473 344.744C170.718 356.782 171.529 379.276 172.28 401.019C172.833 416.713 173.347 431.558 174 440.433C174.019 440.709 173.921 440.966 173.743 441.164C173.565 441.362 173.288 441.48 173.031 441.48V441.5ZM140.16 439.543H171.983C171.371 430.549 170.857 416.239 170.323 401.117C169.552 379.394 168.762 356.94 167.516 344.961C166.884 338.933 166.014 333.2 162.16 329.445C157.949 325.333 150.379 324.642 144.528 327.804C139.389 330.591 135.396 336.066 133.597 342.846C132.036 348.717 132.056 354.805 132.569 362.138C132.728 364.293 132.905 367.06 133.123 370.282C134.408 389.87 136.78 426.003 140.179 439.543H140.16Z" fill="#23274D"/>
<path d="M304.318 440.512C308.252 425.39 310.762 378.603 311.83 363.008C312.284 356.445 312.442 349.764 310.822 343.4C309.201 337.035 305.524 330.947 299.871 327.745C294.198 324.543 286.41 324.879 281.844 329.543C277.812 333.655 277.001 339.901 276.408 345.673C274.313 366.526 272.554 419.539 271.091 440.472L304.318 440.531V440.512Z" fill="white"/>
<path d="M304.318 441.5L271.091 441.441C270.814 441.441 270.557 441.322 270.38 441.124C270.202 440.927 270.103 440.65 270.123 440.393C270.696 432.111 271.328 418.67 272 404.438C273.028 382.755 274.175 358.185 275.44 345.574C276.072 339.17 277.001 333.082 281.152 328.852C285.758 324.147 294.02 323.297 300.365 326.875C305.761 329.919 309.932 335.849 311.79 343.143C313.352 349.27 313.332 355.536 312.818 363.067C312.679 365.123 312.521 367.712 312.324 370.697C311.059 390.562 308.726 427.545 305.287 440.749C305.168 441.184 304.773 441.48 304.338 441.48L304.318 441.5ZM272.139 439.484L303.547 439.543C306.829 425.904 309.122 390.029 310.347 370.598C310.545 367.614 310.703 365.004 310.841 362.949C311.335 355.615 311.355 349.508 309.853 343.637C308.113 336.857 304.299 331.382 299.357 328.595C293.763 325.432 286.529 326.144 282.516 330.235C278.82 334.011 277.97 339.723 277.357 345.772C276.092 358.343 274.946 382.893 273.918 404.537C273.265 418.196 272.672 431.123 272.099 439.484H272.139Z" fill="#23274D"/>
<path d="M254.191 397.777C237.647 397.777 221.023 397.283 204.835 396.828C195.742 396.571 186.333 396.295 177.083 396.097C176.905 396.097 176.767 395.939 176.767 395.761C176.767 395.583 176.925 395.425 177.103 395.445C186.353 395.622 195.762 395.899 204.855 396.176C224.898 396.769 245.632 397.362 266.011 397.046C266.189 397.046 266.328 397.184 266.348 397.362C266.348 397.54 266.209 397.698 266.031 397.698C262.098 397.757 258.164 397.797 254.211 397.797L254.191 397.777Z" fill="#23274D"/>
<path d="M193.669 293.688C192.7 293.688 191.81 293.51 191.02 293.134C189.142 292.245 187.62 289.833 188.371 287.619C188.984 285.821 190.723 284.872 192.087 284.398C193.352 283.943 195.764 283.389 197.8 284.595C198.531 285.03 199.539 285.722 200.112 286.868C200.666 288.015 200.725 289.319 200.27 290.347C199.796 291.434 198.788 292.284 197.207 292.937C195.981 293.431 194.775 293.688 193.669 293.688ZM194.993 284.516C193.945 284.516 192.957 284.773 192.324 285.01C191.316 285.366 189.557 286.196 189.004 287.817C188.371 289.695 189.676 291.77 191.297 292.521C193.392 293.49 195.744 292.818 196.95 292.324C198.373 291.751 199.262 291.019 199.658 290.09C200.033 289.22 199.994 288.133 199.5 287.145C199.025 286.157 198.096 285.524 197.444 285.149C196.653 284.674 195.784 284.516 194.953 284.516H194.993Z" fill="#23274D"/>
<path d="M194.163 284.397C194.025 284.397 193.886 284.299 193.847 284.14L192.72 279.436C192.681 279.258 192.779 279.08 192.957 279.041C193.135 279.001 193.313 279.1 193.353 279.278L194.479 283.982C194.519 284.16 194.42 284.338 194.242 284.378C194.222 284.378 194.183 284.378 194.163 284.378V284.397Z" fill="#23274D"/>
<path d="M188.41 288.114C188.41 288.114 188.272 288.094 188.213 288.035C187.284 287.303 186.276 286.671 185.208 286.196C185.05 286.117 184.971 285.92 185.05 285.761C185.129 285.603 185.327 285.524 185.485 285.603C186.612 286.117 187.659 286.769 188.628 287.54C188.766 287.659 188.786 287.857 188.687 287.995C188.628 288.074 188.529 288.114 188.43 288.114H188.41Z" fill="#23274D"/>
<path d="M199.935 286.67C199.836 286.67 199.737 286.631 199.678 286.532C199.579 286.394 199.599 286.176 199.737 286.077C200.785 285.287 201.912 284.575 203.058 283.923C203.216 283.844 203.414 283.883 203.513 284.042C203.611 284.2 203.552 284.397 203.394 284.496C202.267 285.129 201.18 285.84 200.152 286.611C200.093 286.651 200.034 286.67 199.955 286.67H199.935Z" fill="#23274D"/>
<path d="M187.462 296.119C187.462 296.119 187.324 296.099 187.265 296.06C187.126 295.961 187.087 295.743 187.186 295.605C187.996 294.498 188.945 293.51 190.012 292.68C190.151 292.561 190.368 292.601 190.467 292.739C190.586 292.877 190.546 293.095 190.408 293.194C189.38 293.984 188.471 294.933 187.719 295.981C187.66 296.06 187.561 296.119 187.462 296.119Z" fill="#23274D"/>
<path d="M201.93 295.644C201.93 295.644 201.732 295.605 201.673 295.506C200.744 294.3 199.578 293.272 198.273 292.521C198.115 292.422 198.056 292.225 198.155 292.067C198.254 291.909 198.451 291.849 198.609 291.948C199.993 292.739 201.238 293.826 202.207 295.111C202.325 295.249 202.286 295.467 202.148 295.565C202.088 295.605 202.009 295.625 201.95 295.625L201.93 295.644Z" fill="#23274D"/>
<path d="M251.522 293.747C250.396 293.747 249.21 293.49 247.984 292.996C246.403 292.344 245.395 291.494 244.921 290.406C244.466 289.359 244.525 288.054 245.079 286.928C245.632 285.781 246.66 285.089 247.391 284.654C249.427 283.449 251.839 284.022 253.104 284.457C254.468 284.931 256.207 285.9 256.82 287.679C257.571 289.892 256.049 292.304 254.171 293.193C253.381 293.569 252.491 293.747 251.522 293.747ZM247.708 285.208C247.055 285.603 246.126 286.216 245.652 287.204C245.178 288.173 245.118 289.28 245.494 290.149C245.909 291.078 246.779 291.81 248.202 292.383C249.427 292.877 251.779 293.569 253.875 292.6C255.496 291.849 256.82 289.774 256.187 287.896C255.634 286.275 253.875 285.425 252.867 285.069C251.72 284.654 249.506 284.14 247.708 285.208Z" fill="#23274D"/>
<path d="M251.028 284.477C251.028 284.477 250.969 284.477 250.949 284.477C250.771 284.437 250.672 284.259 250.712 284.081L251.858 279.377C251.898 279.199 252.076 279.1 252.254 279.14C252.431 279.179 252.53 279.357 252.491 279.535L251.344 284.239C251.305 284.397 251.166 284.496 251.028 284.496V284.477Z" fill="#23274D"/>
<path d="M256.762 288.212C256.762 288.212 256.564 288.173 256.505 288.094C256.386 287.956 256.406 287.738 256.564 287.639C257.533 286.868 258.6 286.216 259.707 285.722C259.865 285.643 260.063 285.722 260.142 285.88C260.221 286.038 260.142 286.236 259.984 286.315C258.916 286.789 257.889 287.422 256.979 288.153C256.92 288.193 256.841 288.232 256.782 288.232L256.762 288.212Z" fill="#23274D"/>
<path d="M245.237 286.73C245.237 286.73 245.099 286.71 245.039 286.671C244.012 285.9 242.924 285.188 241.798 284.556C241.64 284.457 241.58 284.259 241.679 284.101C241.758 283.943 241.976 283.884 242.134 283.982C243.28 284.635 244.387 285.366 245.435 286.137C245.573 286.236 245.613 286.453 245.494 286.592C245.435 286.671 245.336 286.73 245.237 286.73Z" fill="#23274D"/>
<path d="M257.71 296.198C257.611 296.198 257.512 296.159 257.453 296.06C256.682 294.992 255.793 294.063 254.765 293.273C254.626 293.154 254.587 292.956 254.705 292.818C254.824 292.68 255.022 292.64 255.16 292.759C256.227 293.589 257.176 294.577 257.987 295.684C258.086 295.822 258.066 296.04 257.908 296.139C257.848 296.178 257.789 296.198 257.71 296.198Z" fill="#23274D"/>
<path d="M243.24 295.704C243.24 295.704 243.101 295.684 243.042 295.644C242.904 295.526 242.864 295.328 242.983 295.19C243.951 293.925 245.197 292.818 246.58 292.027C246.738 291.928 246.936 291.988 247.035 292.146C247.134 292.304 247.074 292.502 246.916 292.6C245.612 293.352 244.446 294.379 243.517 295.585C243.457 295.664 243.358 295.704 243.26 295.704H243.24Z" fill="#23274D"/>
<path d="M159.128 243.36C159.128 243.36 159.178 243.421 159.191 243.436C159.483 243.887 159.35 244.506 158.9 244.798C153.202 248.509 149.615 255.27 149.76 262.07C149.775 262.619 149.338 263.053 148.801 263.083C148.251 263.098 147.818 262.661 147.787 262.124C147.639 254.664 151.562 247.22 157.814 243.157C158.234 242.89 158.788 242.974 159.101 243.357L159.128 243.36Z" fill="#23274D"/>
<path d="M151.557 240.373C151.557 240.373 151.633 240.436 151.678 240.475C152.035 240.88 151.99 241.515 151.57 241.858C147.71 245.17 144.864 249.7 143.551 254.621C143.414 255.152 142.878 255.449 142.347 255.312C141.816 255.174 141.519 254.638 141.657 254.107C143.063 248.8 146.119 243.929 150.279 240.354C150.646 240.042 151.193 240.039 151.555 240.345L151.557 240.373Z" fill="#23274D"/>
</g>
<path d="M40.9402 102.658C40.09 127.04 39.9422 151.401 40.2564 175.783C40.3488 182.747 40.4966 189.712 40.6445 196.677C40.6445 197.108 41.8089 197.108 41.8089 196.677C42.3448 172.305 42.5297 147.923 42.2524 123.552C42.1785 116.587 41.7719 109.622 41.5316 102.658C41.5316 102.447 40.9587 102.447 40.9402 102.658Z" fill="#23274D"/>
<path d="M31.2234 196.808C34.9269 196.976 38.6168 197.129 42.3339 197.143C45.9149 197.171 49.6184 197.339 53.1722 196.836C53.7576 196.752 53.7576 195.719 53.1722 195.635C49.6184 195.133 45.9149 195.314 42.3339 195.328C38.6168 195.356 34.9269 195.496 31.2234 195.663C30.5154 195.691 30.5154 196.752 31.2234 196.794V196.808Z" fill="#23274D"/>
<path d="M25.2595 237.752C30.8693 237.919 36.479 238.059 42.116 238.087C47.7121 238.115 53.3899 238.31 58.9724 237.808C59.7485 237.738 59.7485 236.635 58.9724 236.565C53.4035 236.063 47.7121 236.258 42.116 236.286C36.4926 236.314 30.8829 236.454 25.2595 236.621C24.5515 236.649 24.5515 237.724 25.2595 237.752Z" fill="#23274D"/>
<path d="M0.98219 260.45C14.6934 260.618 28.4045 260.758 42.1157 260.785C55.8132 260.813 69.5516 261.023 83.2492 260.506C84.0253 260.478 84.0253 259.292 83.2492 259.264C69.5516 258.747 55.8132 258.957 42.1157 258.985C28.4045 259.013 14.6934 259.152 0.98219 259.32C0.274166 259.32 0.274166 260.436 0.98219 260.45Z" fill="#23274D"/>
<path d="M30.9769 195.985C30.7319 197.004 30.337 197.869 30.1736 198.944C30.0374 199.851 29.8877 200.745 29.7515 201.652C29.4383 203.69 29.1524 205.729 28.8529 207.767C28.281 211.731 27.6955 215.696 27.1236 219.66C26.5654 223.513 25.9935 227.366 25.4353 231.205C25.2038 232.838 23.815 237.04 26.1705 237.78C27.0692 238.059 27.3824 236.705 26.5518 236.37C25.7893 236.063 26.8513 231.61 26.9603 230.926C27.1917 229.334 27.4232 227.757 27.6411 226.165C28.1312 222.773 28.6214 219.367 29.1116 215.975C29.6017 212.583 30.0919 209.177 30.5821 205.784C30.8135 204.193 31.045 202.615 31.2492 201.024C31.3718 200.117 31.508 199.209 31.6169 198.302C31.7122 197.478 31.5352 196.934 31.576 196.082C31.5897 195.733 31.0586 195.664 30.9769 195.999V195.985Z" fill="#23274D"/>
<path d="M52.5864 196.236C52.9813 199.502 53.8118 202.699 54.4109 205.924C55.0236 209.176 55.541 212.457 55.9904 215.737C56.9299 222.633 57.5426 229.557 58.1417 236.495C58.2234 237.375 59.5577 237.389 59.5032 236.495C59.0403 229.739 58.414 222.969 57.4881 216.268C57.0388 212.987 56.5078 209.721 55.895 206.482C55.2415 203.006 54.6424 199.432 53.417 196.11C53.2672 195.691 52.5183 195.705 52.5864 196.222V196.236Z" fill="#23274D"/>
<path d="M1.13296 258.957C3.70636 257.854 6.0619 256.011 8.30852 254.35C10.6504 252.633 12.9243 250.818 15.1437 248.934C19.8003 244.955 24.171 240.628 28.2149 236.007C28.8412 235.295 27.82 234.248 27.1937 234.96C23.2179 239.427 18.997 243.671 14.4765 247.566C12.2435 249.492 9.95603 251.321 7.58688 253.08C5.31303 254.769 2.76687 256.221 0.642793 258.105C0.275165 258.44 0.670025 259.18 1.13296 258.985V258.957Z" fill="#23274D"/>
<path d="M58.3046 237.375C60.0883 239.427 62.1579 241.256 64.1186 243.126C66.1337 245.067 68.1897 246.951 70.273 248.808C74.3577 252.451 78.5242 255.997 82.7859 259.403C83.5348 260.004 84.5832 258.929 83.8344 258.329C79.5862 254.894 75.3789 251.391 71.2533 247.789C69.2109 246.002 67.1822 244.187 65.1534 242.387C63.0702 240.516 61.0686 238.506 58.9037 236.733C58.468 236.384 57.8962 236.928 58.2774 237.375H58.3046Z" fill="#23274D"/>
<path d="M28.1195 260.213C30.3389 265.406 35.5401 268.966 41.0954 269.022C46.7868 269.078 51.7702 265.392 54.684 260.576C55.3376 259.487 53.6628 258.496 53.0229 259.571C50.4495 263.871 45.9971 267.207 40.9184 267.165C35.8397 267.137 31.646 263.689 28.5416 259.864C28.3237 259.599 27.9969 259.934 28.1195 260.199V260.213Z" fill="#23274D"/>
<path d="M53.2262 196.822C53.199 197.297 53.1309 197.73 53.199 198.288C53.3079 199.195 53.4441 200.103 53.5666 201.01C53.7845 202.602 54.016 204.179 54.2338 205.77C54.724 209.163 55.2142 212.569 55.7043 215.961C56.1945 219.353 56.6847 222.759 57.1748 226.152C57.4063 227.743 57.6378 229.32 57.8556 230.912C57.9373 231.484 58.6726 234.611 58.5092 235.854C58.2233 235.532 57.9237 235.225 57.6514 234.904C57.0251 234.192 56.0039 235.239 56.6302 235.951C56.7936 236.147 56.9706 236.328 57.134 236.51C55.4865 236.468 53.8526 236.426 52.205 236.384C51.0613 223.29 49.6725 209.93 48.6377 196.962C50.1627 196.906 51.7013 196.85 53.2262 196.78V196.822Z" fill="#B8D4F7"/>
<path d="M28.8251 215.752C29.2744 212.471 29.8054 209.19 30.4045 205.938C30.9628 202.923 31.7252 199.935 32.1337 196.892C35.5377 197.311 39.0642 197.171 42.4818 197.143C44.5378 197.143 46.5801 197.073 48.6225 197.004C49.6437 209.972 51.0325 223.332 52.1899 236.426C49.031 236.356 45.8585 236.286 42.6996 236.272C37.3758 236.258 31.9703 236.077 26.6602 236.496C27.2729 229.558 27.872 222.634 28.8115 215.738L28.8251 215.752Z" fill="#E1ECFB"/>
<path d="M32.6387 260.828C36.0018 260.814 39.3513 260.8 42.7008 260.786C46.9898 260.786 51.2788 260.744 55.5678 260.716C52.545 264.192 48.6101 267.151 43.899 267.179C39.3377 267.207 35.2801 264.499 32.6387 260.814V260.828Z" fill="white"/>
<path d="M57.6513 234.932C58.5091 235.881 83.8482 259.32 83.8482 259.32L69.3882 259.557C62.9343 251.558 56.2081 243.838 50.2852 235.309L57.6649 234.932H57.6513Z" fill="#B8D4F7"/>
<path d="M26.6608 236.51L50.2707 235.309C56.1936 243.852 62.9334 251.558 69.3737 259.557L0.708984 260.716L26.6472 236.51H26.6608Z" fill="#E1ECFB"/>
<path d="M40.7514 0.420859C40.3911 25.8035 40.0309 51.1206 40.0069 76.5252C39.9828 101.886 40.0189 127.247 40.163 152.63C40.247 167.125 40.3671 181.62 40.4992 196.115C40.4992 197.295 41.4959 197.295 41.5079 196.115C41.9762 145.393 42.1324 94.6494 41.8802 43.9278C41.8081 29.4328 41.4599 14.9377 41.2437 0.442721C41.2437 -0.147574 40.7514 -0.147574 40.7394 0.442721L40.7514 0.420859Z" fill="#23274D"/>
<path d="M31.2232 196.99C34.9267 197.227 38.603 197.408 42.3337 197.436C46.0645 197.464 49.6999 197.702 53.2264 197.031C54.0025 196.878 54.0025 195.58 53.2264 195.426C49.6999 194.756 45.9011 194.993 42.3337 195.021C38.7664 195.049 34.9267 195.245 31.2232 195.468C30.2837 195.524 30.2837 196.92 31.2232 196.976V196.99Z" fill="#23274D"/>
<path d="M25.2593 237.933C30.8827 238.157 36.4788 238.352 42.1157 238.38C47.7527 238.408 53.4305 238.687 58.9722 238.003C60.007 237.878 60.007 236.468 58.9722 236.342C53.4305 235.672 47.6982 235.937 42.1157 235.965C36.5332 235.993 30.8827 236.188 25.2593 236.412C24.3198 236.454 24.3198 237.878 25.2593 237.919V237.933Z" fill="#23274D"/>
<path d="M0.981964 260.646C14.6931 260.869 28.4043 261.065 42.1155 261.093C55.8266 261.12 69.565 261.4 83.249 260.716C84.2838 260.66 84.2838 259.11 83.249 259.054C69.565 258.37 55.813 258.65 42.1155 258.677C28.4179 258.705 14.6931 258.901 0.981964 259.124C0.0424702 259.138 0.0424702 260.618 0.981964 260.632V260.646Z" fill="#23274D"/>
<path d="M30.8827 195.957C30.6512 196.78 30.2291 197.325 30.0657 198.204C29.8887 199.209 29.7389 200.242 29.5755 201.247C29.276 203.174 29.0037 205.1 28.7177 207.027C28.1186 211.103 27.5195 215.179 26.9341 219.255C26.3486 223.332 25.7767 227.184 25.1912 231.149C24.9325 232.95 23.5165 237.263 26.1035 238.017C27.3017 238.366 27.7102 236.607 26.6073 236.147C26.1852 235.965 27.1111 231.54 27.1792 230.995C27.4106 229.404 27.6285 227.827 27.8599 226.235C28.3501 222.829 28.8403 219.437 29.3305 216.031C29.8206 212.624 30.3108 209.232 30.801 205.826C31.0052 204.374 31.2231 202.936 31.4137 201.485C31.5362 200.577 31.6588 199.67 31.7677 198.762C31.8902 197.729 31.6452 197.059 31.6724 196.04C31.6724 195.566 31.0052 195.482 30.8827 195.929V195.957Z" fill="#23274D"/>
<path d="M52.4502 196.236C52.7089 199.516 53.6075 202.755 54.2066 205.994C54.8057 209.232 55.3368 212.527 55.7861 215.821C56.7256 222.703 57.3111 229.599 57.951 236.509C58.0599 237.682 59.8436 237.71 59.7619 236.509C59.3126 229.627 58.6726 222.731 57.7059 215.919C57.243 212.638 56.6983 209.372 56.0856 206.133C55.4321 202.727 54.8466 199.167 53.5258 195.957C53.308 195.426 52.4366 195.691 52.4774 196.25L52.4502 196.236Z" fill="#23274D"/>
<path d="M1.08467 258.811C3.50039 257.915 5.72738 256.056 7.79081 254.5C9.96747 252.865 12.0938 251.138 14.1447 249.345C18.4602 245.588 22.4864 241.514 26.2107 237.123C26.9782 236.227 25.72 234.909 24.9399 235.792C21.266 240.011 17.353 244.019 13.1884 247.697C11.1502 249.503 9.03641 251.23 6.87233 252.865C4.70825 254.5 2.31769 255.818 0.455577 257.69C0.0152111 258.125 0.455574 259.022 1.07209 258.798L1.08467 258.811Z" fill="#23274D"/>
<path d="M58.2098 237.473C59.9254 239.567 62.0358 241.395 63.9693 243.28C65.9027 245.164 68.0268 247.119 70.11 248.975C74.1948 252.619 78.3476 256.179 82.623 259.585C83.617 260.381 85.0194 258.957 84.0254 258.147C79.7092 254.657 75.4338 251.111 71.2674 247.454C69.225 245.667 67.1962 243.866 65.1539 242.065C63.1115 240.265 61.11 238.199 58.9178 236.523C58.3459 236.091 57.8149 236.984 58.2098 237.459V237.473Z" fill="#23274D"/>
<path d="M27.9966 260.171C29.9981 265.56 35.3083 269.175 40.9044 269.329C46.5006 269.482 51.9469 265.713 54.9424 260.757C55.8138 259.306 53.5808 257.979 52.723 259.431C50.2041 263.619 45.8606 266.914 40.9044 266.886C35.9483 266.858 31.809 263.424 28.5957 259.822C28.3642 259.557 27.8604 259.822 27.9966 260.185V260.171Z" fill="#23274D"/>
<g clip-path="url(#clip2_14161_73658)">
<path d="M332.246 433.563C330.378 437.582 328.676 441.689 327.128 445.848C326.603 447.269 326.091 448.753 326.181 450.263C326.27 451.773 327.14 453.347 328.574 453.783C330.352 454.333 332.157 453.053 333.513 451.761C336.674 448.766 339.387 445.285 341.537 441.485C342.535 439.706 343.38 437.351 342.113 435.752C341.601 435.099 340.833 434.728 340.078 434.37C338.542 433.64 336.943 432.885 335.241 432.924C333.539 432.962 331.735 434.037 332.234 433.551L332.246 433.563Z" fill="white"/>
<path d="M329.469 454.55C329.098 454.55 328.753 454.499 328.395 454.384C326.577 453.821 325.656 451.927 325.554 450.289C325.451 448.702 325.963 447.167 326.539 445.618C328.036 441.562 329.725 437.518 331.53 433.589C331.555 433.448 331.619 433.282 331.799 433.103C331.965 432.937 332.221 432.873 332.438 432.949H332.464C333.104 432.719 334.166 432.335 335.241 432.31C337.122 432.271 338.85 433.09 340.36 433.82C341.089 434.165 341.998 434.6 342.612 435.381C343.802 436.878 343.61 439.105 342.087 441.818C339.912 445.682 337.173 449.189 333.948 452.234C332.298 453.795 330.826 454.563 329.444 454.563L329.469 454.55ZM332.643 434.229C330.864 438.094 329.214 442.074 327.729 446.066C327.179 447.538 326.731 448.869 326.821 450.225C326.897 451.377 327.537 452.797 328.766 453.181C329.956 453.552 331.363 452.938 333.078 451.313C336.201 448.357 338.862 444.953 340.974 441.191C341.844 439.642 342.663 437.505 341.601 436.161C341.166 435.611 340.436 435.266 339.797 434.958C338.44 434.306 336.904 433.576 335.356 433.576C335.318 433.576 335.292 433.576 335.254 433.576C334.383 433.589 333.437 433.935 332.873 434.139C332.784 434.165 332.707 434.203 332.618 434.229H332.643Z" fill="#23274D"/>
<path d="M347.846 440.013C345.978 444.031 344.276 448.139 342.727 452.298C342.203 453.719 341.691 455.203 341.78 456.713C341.87 458.223 342.74 459.797 344.173 460.232C345.952 460.782 347.756 459.503 349.113 458.21C352.274 455.216 354.987 451.735 357.137 447.934C358.135 446.156 358.979 443.801 357.712 442.201C357.2 441.549 356.433 441.178 355.678 440.819C354.142 440.09 352.542 439.335 350.84 439.373C349.138 439.412 347.334 440.487 347.833 440L347.846 440.013Z" fill="white"/>
<path d="M345.056 461C344.685 461 344.339 460.949 343.981 460.834C342.164 460.271 341.242 458.377 341.14 456.739C341.038 455.152 341.55 453.616 342.125 452.068C343.623 448.011 345.312 443.967 347.116 440.039C347.142 439.898 347.206 439.732 347.385 439.553C347.551 439.386 347.807 439.322 348.025 439.399H348.05C348.69 439.169 349.752 438.785 350.827 438.759C352.721 438.721 354.436 439.54 355.946 440.269C356.675 440.615 357.584 441.05 358.198 441.83C359.388 443.328 359.196 445.554 357.674 448.267C355.498 452.132 352.76 455.638 349.535 458.684C347.884 460.245 346.412 461.013 345.03 461.013L345.056 461ZM348.23 440.679C346.451 444.543 344.8 448.523 343.316 452.516C342.765 453.987 342.317 455.318 342.407 456.675C342.484 457.826 343.124 459.247 344.352 459.631C345.542 460.002 346.95 459.388 348.665 457.762C351.787 454.806 354.449 451.402 356.56 447.64C357.43 446.092 358.249 443.955 357.187 442.624C356.752 442.074 356.023 441.728 355.383 441.421C353.988 440.755 352.401 440 350.84 440.039C349.97 440.052 349.023 440.397 348.46 440.602C348.37 440.627 348.294 440.666 348.204 440.691L348.23 440.679Z" fill="#23274D"/>
<path d="M375.986 436.827C377.739 443.097 377.304 449.943 374.783 455.945C374.668 456.227 374.527 456.521 374.271 456.675C374.028 456.815 373.721 456.815 373.439 456.803C369.869 456.623 366.184 456.073 363.202 454.102C360.22 452.132 358.134 448.433 359.017 444.978C359.849 441.715 363.01 439.527 366.248 438.554C369.485 437.582 372.902 437.518 375.986 436.827Z" fill="#ACD4F7"/>
<path d="M373.683 457.442C373.58 457.442 373.491 457.442 373.401 457.442C370.228 457.276 366.145 456.815 362.857 454.64C359.35 452.336 357.52 448.293 358.403 444.825C359.197 441.728 362.05 439.156 366.056 437.94C367.988 437.364 369.972 437.095 371.891 436.839C373.273 436.66 374.579 436.481 375.845 436.2C376.178 436.123 376.511 436.328 376.6 436.648C378.405 443.084 377.97 450.02 375.372 456.188C375.218 456.559 375.014 456.969 374.591 457.225C374.284 457.404 373.952 457.442 373.67 457.442H373.683ZM375.526 437.569C374.387 437.799 373.209 437.953 372.058 438.106C370.189 438.349 368.257 438.605 366.427 439.156C362.857 440.231 360.31 442.47 359.632 445.132C358.762 448.574 361.052 451.927 363.548 453.565C366.593 455.574 370.445 456.009 373.465 456.163C373.606 456.163 373.849 456.188 373.939 456.124C374.041 456.06 374.143 455.817 374.195 455.689C376.6 449.969 377.061 443.558 375.526 437.556V437.569Z" fill="#23274D"/>
<path d="M333.103 439.924C327.588 420.127 328.625 403.926 344.262 391.321C370.24 370.36 415.131 379.126 425.138 404.297C428.965 413.92 429.182 427.357 424.639 436.622C418.727 448.677 398.265 459.797 372.825 456.905C368.973 456.47 364.942 455.677 361.96 453.079C358.991 450.481 357.571 445.541 359.874 442.278C354.052 443.596 348.063 444.134 342.112 443.878C338.056 443.699 333.769 442.278 333.116 439.924H333.103Z" fill="white"/>
<path d="M381.054 458.018C378.354 458.018 375.589 457.865 372.748 457.545C368.769 457.097 364.661 456.291 361.538 453.565C358.774 451.159 357.188 446.693 358.646 443.2C353.195 444.313 347.628 444.748 342.074 444.518C338.005 444.338 333.27 442.88 332.49 440.103C329.431 429.149 328.689 420.472 330.122 412.82C331.747 404.169 336.239 396.977 343.853 390.835C357.405 379.893 377.407 376.131 396.039 381.032C410.602 384.859 421.415 393.253 425.715 404.08C429.822 414.419 429.605 427.92 425.19 436.916C419.854 447.806 403.064 458.031 381.041 458.031L381.054 458.018ZM359.875 441.651C360.08 441.651 360.284 441.753 360.4 441.933C360.54 442.15 360.54 442.444 360.4 442.649C358.25 445.682 359.683 450.251 362.383 452.592C365.25 455.088 369.127 455.83 372.902 456.265C387.695 457.954 398.969 454.755 405.816 451.786C414.453 448.037 421.108 442.406 424.077 436.34C428.338 427.639 428.543 414.56 424.55 404.527C420.404 394.085 409.898 385.959 395.732 382.248C377.483 377.462 357.917 381.122 344.672 391.82C330.762 403.043 327.499 417.388 333.731 439.757C334.23 441.562 337.851 443.059 342.138 443.251C348.038 443.507 353.963 442.969 359.734 441.677C359.785 441.677 359.824 441.664 359.875 441.664V441.651Z" fill="#23274D"/>
<path d="M340.078 402.89C344.084 400.228 356.279 400.919 362.908 403.158C365.173 400.138 367.771 398.155 371.187 397.157C375.155 406.972 376.895 419.27 373.427 430.544C370.317 440.653 360.848 445.849 351.173 446.604C341.499 447.346 328.971 440.615 325.298 430.659C318.49 412.244 333.757 395.416 333.757 395.416C333.757 395.416 338.3 399.844 340.066 402.89H340.078Z" fill="white"/>
<path d="M349.779 447.282C340.501 447.282 328.408 440.883 324.71 430.876C317.851 412.321 333.143 395.16 333.296 394.994C333.411 394.866 333.578 394.789 333.744 394.789C333.923 394.789 334.09 394.853 334.205 394.968C334.384 395.135 338.325 398.999 340.283 402.032C345.057 399.537 356.484 400.458 362.665 402.429C365.033 399.396 367.694 397.515 370.996 396.555C371.316 396.466 371.636 396.632 371.764 396.926C376.332 408.226 377.151 420.549 374.029 430.736C370.612 441.869 360.003 446.565 351.225 447.243C350.751 447.282 350.265 447.295 349.766 447.295L349.779 447.282ZM333.808 396.35C331.39 399.281 319.962 414.356 325.9 430.428C329.598 440.436 342.165 446.642 351.135 445.964C359.504 445.324 369.588 440.883 372.826 430.352C375.82 420.613 375.078 408.827 370.817 397.937C367.912 398.91 365.544 400.701 363.42 403.542C363.254 403.76 362.972 403.849 362.703 403.76C356.113 401.52 344.135 400.957 340.437 403.414C340.296 403.517 340.117 403.542 339.938 403.504C339.772 403.465 339.618 403.35 339.528 403.21C338.159 400.842 335.011 397.566 333.808 396.35Z" fill="#23274D"/>
<path d="M339.093 422.213C338.952 422.213 338.798 422.213 338.658 422.187C337.16 422.034 335.727 421.163 334.729 419.794C334.524 419.513 334.588 419.116 334.87 418.911C335.151 418.707 335.548 418.77 335.753 419.052C336.52 420.114 337.647 420.818 338.773 420.933C339.976 421.061 341.178 420.472 341.69 419.5C341.857 419.193 342.241 419.078 342.548 419.244C342.855 419.41 342.97 419.794 342.804 420.101C342.113 421.381 340.615 422.213 339.067 422.213H339.093Z" fill="#23274D"/>
<path d="M358.634 423.288C358.493 423.288 358.339 423.288 358.199 423.262C356.701 423.109 355.268 422.238 354.27 420.869C354.065 420.588 354.129 420.191 354.411 419.986C354.692 419.781 355.089 419.845 355.294 420.127C356.061 421.189 357.188 421.893 358.314 422.008C359.517 422.136 360.72 421.547 361.231 420.575C361.398 420.268 361.782 420.152 362.089 420.319C362.396 420.485 362.511 420.869 362.345 421.176C361.654 422.456 360.156 423.288 358.608 423.288H358.634Z" fill="#23274D"/>
<path d="M394.081 438.695C391.266 438.695 388.54 438.452 385.994 438.158C385.149 438.055 384.317 437.953 383.486 437.838C378.61 437.198 373.99 436.596 369.601 438.606C369.281 438.746 368.91 438.606 368.756 438.298C368.616 437.978 368.756 437.607 369.064 437.454C373.786 435.291 378.572 435.918 383.639 436.584C384.458 436.686 385.29 436.801 386.122 436.904C391.624 437.543 398.074 437.94 404.114 436.046C410.308 434.101 415.171 429.661 416.796 424.478C416.898 424.145 417.256 423.953 417.589 424.056C417.922 424.158 418.114 424.516 418.011 424.849C416.271 430.428 411.088 435.189 404.498 437.262C401.056 438.35 397.498 438.708 394.069 438.708L394.081 438.695Z" fill="#23274D"/>
<path d="M346.784 428.458C346.029 427.997 345.351 427.395 344.8 426.679C344.57 426.372 344.353 426.039 344.276 425.655C344.212 425.271 344.301 424.836 344.609 424.606C344.788 424.465 345.005 424.414 345.236 424.363C346.605 424.081 348.025 424.235 349.407 424.503C349.74 424.567 350.086 424.644 350.38 424.823C350.674 425.002 350.905 425.31 350.917 425.668C350.917 425.988 350.725 426.282 350.533 426.538C350.137 427.05 349.676 427.511 349.164 427.907C348.78 428.214 348.358 428.483 347.872 428.598C347.398 428.701 346.848 428.624 346.784 428.458Z" fill="#23274D"/>
<path d="M347.014 433.372C347.014 433.372 346.988 433.372 346.975 433.372C346.63 433.359 346.361 433.052 346.374 432.706L346.617 428.061C346.63 427.715 346.937 427.447 347.283 427.46C347.628 427.472 347.897 427.779 347.884 428.125L347.641 432.77C347.628 433.116 347.347 433.372 347.001 433.372H347.014Z" fill="#23274D"/>
<path d="M369.229 380.751C370.253 383.08 371.635 385.243 373.324 387.162C374.13 388.071 375.026 388.941 376.165 389.376C377.329 389.824 378.622 389.747 379.876 389.76C383.382 389.786 386.889 390.502 390.126 391.859C391.38 392.383 392.609 393.01 393.927 393.318C396.499 393.932 399.276 393.305 401.503 391.884C403.729 390.477 405.444 388.327 406.609 385.959C395.335 379.804 381.872 377.757 369.229 380.751Z" fill="#ACD4F7"/>
<path d="M395.962 394.188C395.22 394.188 394.491 394.111 393.787 393.932C392.725 393.676 391.739 393.241 390.779 392.818C390.485 392.691 390.191 392.563 389.884 392.435C386.736 391.116 383.28 390.413 379.877 390.387C379.71 390.387 379.544 390.387 379.377 390.387C378.239 390.387 377.074 390.387 375.948 389.965C374.643 389.466 373.657 388.48 372.864 387.572C371.136 385.601 369.729 383.4 368.666 381.007C368.59 380.828 368.59 380.636 368.666 380.47C368.756 380.303 368.91 380.175 369.089 380.137C381.591 377.181 395.373 379.113 406.916 385.409C407.211 385.575 407.339 385.947 407.185 386.254C405.867 388.915 404.024 391.053 401.849 392.435C400.019 393.586 397.958 394.201 395.962 394.201V394.188ZM379.569 389.12C379.672 389.12 379.774 389.12 379.877 389.12C383.447 389.146 387.081 389.888 390.37 391.27C390.677 391.398 390.984 391.526 391.279 391.667C392.225 392.076 393.121 392.473 394.068 392.703C396.359 393.254 398.944 392.754 401.158 391.36C402.988 390.208 404.562 388.442 405.752 386.241C394.836 380.444 381.937 378.627 370.138 381.212C371.098 383.221 372.326 385.076 373.798 386.753C374.489 387.533 375.334 388.391 376.383 388.8C377.292 389.146 378.29 389.133 379.365 389.146H379.569V389.12Z" fill="#23274D"/>
<path d="M412.662 389.67C413.404 391.935 412.252 394.93 412.713 397.272C413.148 399.511 414.799 401.482 416.936 402.314C419.073 403.145 421.888 402.659 423.731 401.303C422.951 400.087 419.713 395.595 418.792 394.546C416.859 392.358 414.543 390.361 412.662 389.67Z" fill="#ACD4F7"/>
<path d="M419.265 403.363C418.369 403.363 417.499 403.222 416.718 402.915C414.389 402.019 412.585 399.857 412.099 397.412C411.868 396.248 412.009 394.968 412.137 393.727C412.29 392.319 412.431 390.988 412.06 389.888C411.983 389.658 412.047 389.402 412.226 389.235C412.406 389.069 412.662 389.018 412.892 389.094C414.683 389.747 417.013 391.59 419.278 394.136C420.199 395.186 423.462 399.69 424.281 400.97C424.46 401.251 424.396 401.623 424.128 401.827C422.771 402.838 420.992 403.376 419.278 403.376L419.265 403.363ZM413.532 390.796C413.621 391.795 413.506 392.831 413.404 393.842C413.276 395.045 413.161 396.171 413.353 397.156C413.749 399.178 415.259 400.97 417.179 401.725C418.881 402.378 421.171 402.122 422.861 401.124C421.735 399.473 419.098 395.851 418.318 394.968C416.667 393.1 414.952 391.615 413.532 390.796Z" fill="#23274D"/>
<path d="M328.087 427.587C327.997 427.587 327.908 427.523 327.882 427.434C327.844 427.319 327.908 427.203 328.023 427.165C330.378 426.436 332.809 426.116 335.279 426.218C335.394 426.218 335.484 426.32 335.484 426.436C335.484 426.551 335.381 426.64 335.266 426.64C332.847 426.538 330.467 426.845 328.164 427.562C328.138 427.562 328.125 427.562 328.1 427.562L328.087 427.587Z" fill="#23274D"/>
<path d="M330.941 431.542C330.941 431.542 330.813 431.516 330.775 431.465C330.698 431.375 330.711 431.235 330.801 431.171C332.144 430.083 333.744 429.315 335.433 428.957C335.548 428.931 335.663 429.008 335.689 429.123C335.715 429.238 335.638 429.354 335.523 429.379C333.897 429.725 332.362 430.467 331.069 431.503C331.031 431.529 330.98 431.555 330.941 431.555V431.542Z" fill="#23274D"/>
<path d="M367.834 430.044C367.834 430.044 367.77 430.044 367.732 430.019C365.249 428.688 362.46 427.971 359.644 427.971C359.529 427.971 359.427 427.882 359.427 427.754C359.427 427.626 359.516 427.536 359.644 427.536C362.524 427.536 365.403 428.266 367.937 429.635C368.039 429.686 368.077 429.814 368.026 429.916C367.988 429.993 367.911 430.032 367.834 430.032V430.044Z" fill="#23274D"/>
<path d="M362.613 432.681C362.613 432.681 362.523 432.668 362.485 432.629C361.282 431.695 359.874 430.991 358.403 430.607C358.288 430.582 358.224 430.467 358.249 430.352C358.275 430.236 358.39 430.172 358.505 430.198C360.028 430.595 361.5 431.324 362.741 432.297C362.831 432.373 362.843 432.501 362.779 432.591C362.741 432.642 362.677 432.668 362.613 432.668V432.681Z" fill="#23274D"/>
<path d="M374.207 453.872C374.207 453.872 374.105 453.859 374.067 453.821C373.977 453.744 373.964 453.616 374.041 453.527C377.279 449.649 378.52 444.185 377.279 439.284C377.253 439.169 377.317 439.053 377.432 439.028C377.547 439.002 377.663 439.066 377.688 439.181C378.955 444.211 377.688 449.816 374.361 453.795C374.323 453.847 374.259 453.872 374.195 453.872H374.207Z" fill="#23274D"/>
<path d="M381.604 445.26C381.604 445.26 381.566 445.26 381.553 445.26C381.438 445.234 381.374 445.119 381.4 445.004C381.873 443.174 381.886 441.242 381.425 439.412C381.4 439.296 381.464 439.181 381.579 439.156C381.694 439.13 381.809 439.194 381.835 439.309C382.308 441.203 382.308 443.212 381.809 445.106C381.784 445.196 381.694 445.26 381.604 445.26Z" fill="#23274D"/>
<path d="M326.949 387.52C326.744 387.52 326.565 387.431 326.437 387.265C326.309 387.098 326.271 386.868 326.348 386.663C326.744 385.55 327.678 384.82 328.421 384.232L335.804 378.371C335.51 378.294 335.152 378.281 334.793 378.268L327.141 378.192C326.795 378.192 326.501 377.897 326.514 377.552C326.514 377.206 326.795 376.925 327.154 376.925L334.806 377.001C335.433 377.001 336.726 377.014 337.391 377.961C337.583 378.243 337.532 378.614 337.263 378.831L329.201 385.23C328.792 385.55 328.421 385.857 328.139 386.177C331.3 385.998 334.486 385.921 337.634 385.972C337.98 385.972 338.261 386.266 338.261 386.625C338.261 386.97 337.967 387.252 337.622 387.252C334.09 387.201 330.519 387.29 327 387.533C326.987 387.533 326.975 387.533 326.962 387.533L326.949 387.52Z" fill="#23274D"/>
<path d="M313.64 371.588C313.448 371.588 313.256 371.499 313.141 371.345C313.013 371.179 312.975 370.949 313.039 370.757C313.551 369.247 314.779 368.223 315.764 367.391L326.117 358.702C325.644 358.433 324.953 358.382 324.262 358.382H324.159L313.896 358.267C313.551 358.267 313.269 357.973 313.269 357.627C313.269 357.282 313.538 357 313.909 357L324.274 357.102C325.081 357.102 326.77 357.128 327.602 358.369C327.781 358.638 327.729 358.996 327.486 359.214L316.571 368.364C315.803 369.003 315.15 369.579 314.702 370.245C319.156 369.95 323.66 369.848 328.101 369.925C328.446 369.925 328.728 370.219 328.728 370.577C328.728 370.923 328.421 371.205 328.075 371.205C323.289 371.128 318.452 371.256 313.679 371.601C313.666 371.601 313.653 371.601 313.627 371.601L313.64 371.588Z" fill="#23274D"/>
<path d="M313.64 371.588C313.448 371.588 313.256 371.499 313.141 371.345C313.013 371.179 312.975 370.949 313.039 370.757C313.551 369.247 314.779 368.223 315.764 367.391L326.117 358.702C325.644 358.433 324.953 358.382 324.262 358.382H324.159L313.896 358.267C313.551 358.267 313.269 357.973 313.269 357.627C313.269 357.282 313.538 357 313.909 357L324.274 357.102C325.081 357.102 326.77 357.128 327.602 358.369C327.781 358.638 327.729 358.996 327.486 359.214L316.571 368.364C315.803 369.003 315.15 369.579 314.702 370.245C319.156 369.95 323.66 369.848 328.101 369.925C328.446 369.925 328.728 370.219 328.728 370.577C328.728 370.923 328.421 371.205 328.075 371.205C323.289 371.128 318.452 371.256 313.679 371.601C313.666 371.601 313.653 371.601 313.627 371.601L313.64 371.588Z" fill="#23274D"/>
</g>
<defs>
<clipPath id="clip0_14161_73658">
<rect width="166.95" height="111.92" fill="white" transform="translate(357.277 146.5)"/>
</clipPath>
<clipPath id="clip1_14161_73658">
<rect width="182.838" height="203" fill="white" transform="translate(130.277 238.5)"/>
</clipPath>
<clipPath id="clip2_14161_73658">
<rect width="115.671" height="104" fill="white" transform="translate(313 357)"/>
</clipPath>
</defs>
</svg>
