<svg width="207" height="134" viewBox="0 0 207 134" fill="none" xmlns="http://www.w3.org/2000/svg">
<mask id="mask0_10775_16876" style="mask-type:alpha" maskUnits="userSpaceOnUse" x="0" y="0" width="207" height="133">
<path d="M195.075 132.845H11.9249C5.80822 132.845 0.851562 127.889 0.851562 121.772V11.425C0.851562 5.30828 5.80822 0.351624 11.9249 0.351624H195.075C201.192 0.351624 206.148 5.30828 206.148 11.425V121.772C206.148 127.889 201.192 132.845 195.075 132.845Z" fill="#E1EDF7"/>
</mask>
<g mask="url(#mask0_10775_16876)">
<path d="M230.932 -14.4128H-22.1738V21.4438H230.932V-14.4128Z" fill="#B8D4F7"/>
</g>
<path d="M195.075 133.197H11.9249C5.63242 133.197 0.5 128.065 0.5 121.772V11.4249C0.5 5.13242 5.63242 0 11.9249 0H195.075C201.368 0 206.5 5.13242 206.5 11.4249V121.772C206.5 128.065 201.368 133.197 195.075 133.197ZM11.9249 0.703072C6.01911 0.703072 1.20307 5.51911 1.20307 11.4249V121.772C1.20307 127.678 6.01911 132.494 11.9249 132.494H195.075C200.981 132.494 205.797 127.678 205.797 121.772V11.4249C205.797 5.51911 200.981 0.703072 195.075 0.703072H11.9249Z" fill="#CAD9E6"/>
<path d="M80.8356 33.1031H11.7351V121.42H80.8356V33.1031Z" fill="white"/>
<path d="M56.4966 101.6C56.4966 101.6 59.8205 105.272 63.651 106.444C67.0067 107.457 72.5466 108.85 75.9972 110.496C76.9786 110.971 77.7067 111.857 77.9916 112.902L80.1443 121.038H47.6643L56.4966 101.6Z" fill="#636464"/>
<path d="M36.394 101.6C36.394 101.6 33.07 105.272 29.2396 106.444C25.8839 107.457 20.344 108.85 16.8934 110.496C15.912 110.971 15.1839 111.857 14.899 112.902L12.7463 121.038H45.2896L36.394 101.6Z" fill="#636464"/>
<path d="M79.6374 121.006C79.6374 116.352 76.3134 110.623 69.9187 108.85C63.4291 107.014 59.3137 106.412 57.7625 103.975C56.4962 101.98 54.6601 98.3397 56.0847 88.3994C56.4646 85.8352 48.0755 89.634 46.3977 90.3622C44.7199 89.634 36.3624 85.8352 36.7107 88.3994C38.1352 98.3397 36.2991 102.012 35.0329 103.975C33.4817 106.412 29.3663 107.014 22.8766 108.85C16.4819 110.654 13.158 116.352 13.158 120.974V121.006H79.6374Z" fill="#FEC49D"/>
<path d="M31.1396 73.0142C31.1396 73.0142 30.4115 71.5579 29.4618 71.1781C28.5121 70.7665 29.81 79.0923 30.5698 81.6248C31.3296 84.1574 32.7225 81.8464 33.039 80.8018C33.3556 79.7887 31.1396 73.0142 31.1396 73.0142Z" fill="#F7AA80"/>
<path d="M61.6247 73.0142C61.6247 73.0142 62.3528 71.5579 63.3025 71.1781C64.2522 70.7665 62.9543 79.0923 62.1945 81.6248C61.4348 84.1574 60.0419 81.8464 59.7253 80.8018C59.4087 79.7887 61.6247 73.0142 61.6247 73.0142Z" fill="#F7AA80"/>
<path d="M61.7199 64.2452C61.4983 61.5544 60.6119 57.439 56.4649 54.115C52.9826 51.3292 47.9492 50.886 46.398 50.8227C46.398 50.8227 46.398 50.8227 46.3663 50.8227C46.3663 50.8227 46.3663 50.8227 46.3347 50.8227C44.8151 50.886 39.75 51.3292 36.2678 54.115C32.1524 57.439 31.2343 61.5544 31.0127 64.2452C30.7911 66.936 31.0761 69.5636 31.1394 73.4574C31.2027 77.3512 32.184 83.176 33.482 86.5C35.0332 90.5204 39.3702 95.3956 40.7631 96.5669C41.5545 97.2 42.6308 97.6432 43.2956 97.8648C44.3086 98.1814 45.3217 98.3397 46.3663 98.403C46.3663 98.403 46.3663 98.403 46.398 98.403C46.398 98.403 46.398 98.403 46.4296 98.403C47.4743 98.3397 48.4873 98.1814 49.5004 97.8648C50.1651 97.6432 51.2415 97.2317 52.0329 96.5669C53.4258 95.4272 57.7311 90.5521 59.314 86.5C60.6119 83.176 61.5933 77.3512 61.6566 73.4574C61.6566 69.5636 61.9415 66.936 61.7199 64.2452Z" fill="#FEC49D"/>
<path d="M30.6327 65.638C30.6327 65.543 30.6327 65.4797 30.6327 65.3848C30.6011 65.6064 30.6327 65.638 30.6327 65.638Z" fill="#C7671D"/>
<path d="M61.1818 54.5581C59.8522 52.7854 58.5543 52.9436 58.2061 53.007C58.1744 52.9753 58.1428 52.9436 58.1111 52.912C58.0478 52.2472 57.5413 48.67 52.6028 45.8842C48.8989 43.7948 42.4093 43.6049 37.7557 44.5229C33.1338 45.441 30.7596 46.8022 30.7596 46.8022L35.5081 46.454C35.5081 46.454 31.4243 47.9735 28.8918 50.791C26.4542 53.5135 26.9924 54.0833 26.9924 54.0833C26.9924 54.0833 28.0054 52.9753 28.8601 52.4688C27.6572 55.1596 27.214 58.8002 27.214 58.8002L28.5119 56.4892C28.5119 56.4892 30.443 61.491 30.6013 65.3531C30.6013 65.3215 30.6013 65.2898 30.6013 65.2898C30.7596 68.5821 31.1394 74.4703 31.1394 74.4703C31.1394 74.4703 31.7726 73.8372 31.9942 72.7292C32.2158 71.6212 31.8992 69.6585 31.9625 67.031C31.9942 64.4034 33.4821 60.9528 35.1282 59.37C36.7744 57.7555 38.2306 56.2676 39.8767 55.7611C40.6365 55.5395 42.0927 55.5395 43.4223 55.6028C45.4167 55.6978 47.4111 55.6978 49.4055 55.6028C50.7034 55.5395 52.0963 55.5395 52.8244 55.7611C54.4706 56.2676 55.9268 57.7871 57.5729 59.37C59.2191 60.9845 60.6753 64.4351 60.7386 67.031C60.7703 69.6585 60.4854 71.6212 60.707 72.7292C60.9286 73.8372 61.5617 74.4703 61.5617 74.4703C61.5617 74.4703 62.0049 67.8224 62.1315 64.72V64.7517C62.1632 64.7833 62.733 56.6475 61.1818 54.5581Z" fill="#6B2E00"/>
<path d="M32.4369 105.589C29.0813 106.602 20.344 108.945 16.8934 110.591C15.912 111.066 15.1839 111.952 14.899 112.997L12.7463 121.133C12.7463 121.133 40.7943 121.323 40.7943 121.133C31.5505 111.446 32.4369 105.589 32.4369 105.589Z" fill="#636464"/>
<path d="M60.4536 105.589C63.8092 106.602 72.5465 108.945 75.9971 110.591C76.9785 111.066 77.7066 111.952 77.9915 112.997L80.1442 121.133C80.1442 121.133 52.0962 121.323 52.0962 121.133C61.3717 111.446 60.4536 105.589 60.4536 105.589Z" fill="#636464"/>
<path d="M92.8448 105.566H91.7488V121.21H92.8448V105.566Z" fill="#929292"/>
<path d="M98.1784 105.566H94.5251V121.21H98.1784V105.566Z" fill="#929292"/>
<path d="M101.503 105.566H99.7126V121.21H101.503V105.566Z" fill="#929292"/>
<path d="M103.987 105.566H103.037V121.21H103.987V105.566Z" fill="#929292"/>
<path d="M109.321 105.566H105.923V121.21H109.321V105.566Z" fill="#929292"/>
<path d="M111.513 105.566H111.002V121.21H111.513V105.566Z" fill="#929292"/>
<path d="M113.961 105.566H113.084V121.21H113.961V105.566Z" fill="#929292"/>
<path d="M118.126 105.566H115.751V121.21H118.126V105.566Z" fill="#929292"/>
<path d="M120.975 105.566H119.806V121.21H120.975V105.566Z" fill="#929292"/>
<path d="M125.432 105.566H122.4V121.21H125.432V105.566Z" fill="#929292"/>
<path d="M127.259 105.566H126.893V121.21H127.259V105.566Z" fill="#929292"/>
<path d="M129.085 105.566H128.501V121.21H129.085V105.566Z" fill="#929292"/>
<path d="M132.483 105.566H130.839V121.21H132.483V105.566Z" fill="#929292"/>
<path d="M135.259 105.566H134.053V121.21H135.259V105.566Z" fill="#929292"/>
<path d="M139.643 105.566H136.976V121.21H139.643V105.566Z" fill="#929292"/>
<path d="M145.16 105.566H141.324V121.21H145.16V105.566Z" fill="#929292"/>
<path d="M190.726 121.19H195.877V105.546H190.726V121.19Z" fill="#929292"/>
<path d="M185.373 121.19H189.026V105.546H185.373V121.19Z" fill="#929292"/>
<path d="M182.032 121.19H183.823V105.546H182.032V121.19Z" fill="#929292"/>
<path d="M179.56 121.19H180.51V105.546H179.56V121.19Z" fill="#929292"/>
<path d="M176.615 121.19H177.857V105.546H176.615V121.19Z" fill="#929292"/>
<path d="M174.368 121.19H174.879V105.546H174.368V121.19Z" fill="#929292"/>
<path d="M171.946 121.19H172.823V105.546H171.946V121.19Z" fill="#929292"/>
<path d="M167.783 121.19H170.158V105.546H167.783V121.19Z" fill="#929292"/>
<path d="M164.933 121.19H166.102V105.546H164.933V121.19Z" fill="#929292"/>
<path d="M160.475 121.19H163.508V105.546H160.475V121.19Z" fill="#929292"/>
<path d="M158.655 121.19H159.021V105.546H158.655V121.19Z" fill="#929292"/>
<path d="M156.792 121.19H157.376V105.546H156.792V121.19Z" fill="#929292"/>
<path d="M153.407 121.19H155.051V105.546H153.407V121.19Z" fill="#929292"/>
<path d="M150.641 121.19H151.846V105.546H150.641V121.19Z" fill="#929292"/>
<path d="M146.253 121.19H148.92V105.546H146.253V121.19Z" fill="#929292"/>
<path d="M140.761 121.19H144.597V105.546H140.761V121.19Z" fill="#929292"/>
<path d="M199.083 123.073H88.9358V103.738H199.083V123.073ZM89.6665 122.37H198.352V104.441H89.6665V122.37Z" fill="#929292"/>
<path d="M160.273 29.6696H150.782V32.8334H160.273V29.6696Z" fill="#D1D6DD"/>
<path d="M145.86 29.6696H123.081V32.8334H145.86V29.6696Z" fill="#D1D6DD"/>
<path d="M113.941 29.6696H89.0518V32.8334H113.941V29.6696Z" fill="#D1D6DD"/>
<path d="M120.7 28.4314L115.554 33.5768L116.3 34.3226L121.445 29.1771L120.7 28.4314Z" fill="#D1D6DD"/>
<path d="M107.859 37.0519H89.0518V40.2158H107.859V37.0519Z" fill="#D1D6DD"/>
<path d="M122.026 43.7311H89.0518V46.895H122.026V43.7311Z" fill="#D1D6DD"/>
<path d="M126.49 64.1202H113.94V67.284H126.49V64.1202Z" fill="#D1D6DD"/>
<path d="M104.801 64.1202H89.0518V67.284H104.801V64.1202Z" fill="#D1D6DD"/>
<path d="M111.559 62.8819L106.414 68.0273L107.16 68.7731L112.305 63.6276L111.559 62.8819Z" fill="#D1D6DD"/>
<path d="M197.747 43.7311H190.47V46.895H197.747V43.7311Z" fill="#D1D6DD"/>
<path d="M185.091 43.7311H164.773V46.895H185.091V43.7311Z" fill="#D1D6DD"/>
<path d="M171.03 76.3184H154.965V79.4822H171.03V76.3184Z" fill="#D1D6DD"/>
<path d="M149.376 76.3184H118.194V79.4822H149.376V76.3184Z" fill="#D1D6DD"/>
<path d="M111.972 76.3184H89.0518V79.4822H111.972V76.3184Z" fill="#D1D6DD"/>
<path d="M143.364 82.9976H105.222V86.1614H143.364V82.9976Z" fill="#D1D6DD"/>
<path d="M99.7736 82.9976H89.0518V86.1614H99.7736V82.9976Z" fill="#D1D6DD"/>
<path d="M198.555 94.3523H183.966V97.5161H198.555V94.3523Z" fill="#D1D6DD"/>
<path d="M164.843 94.3523H129.408V97.5161H164.843V94.3523Z" fill="#D1D6DD"/>
<path d="M120.268 94.3523H89.0518V97.5161H120.268V94.3523Z" fill="#D1D6DD"/>
<path d="M127.027 93.114L121.881 98.2594L122.627 99.0051L127.772 93.8597L127.027 93.114Z" fill="#D1D6DD"/>
<path d="M85.853 8.05023H87.1186V15.1864H85.853V8.05023Z" fill="white"/>
<path d="M88.8762 8.05023H90.7745C92.954 8.05023 94.2547 9.2103 94.2547 11.5656C94.2547 13.9209 92.954 15.1513 90.8448 15.1513H88.8762V8.05023ZM90.7042 14.1318C92.1455 14.1318 92.954 13.3233 92.954 11.5656C92.954 9.80791 92.1104 9.06969 90.7042 9.06969H90.1418V14.1318H90.7042Z" fill="white"/>
<path d="M100.828 7.90955C101.707 7.90955 102.41 8.33139 102.867 8.82354L102.164 9.59692C101.778 9.24538 101.391 8.99931 100.828 8.99931C99.6684 8.99931 98.8247 9.98361 98.8247 11.5655C98.8247 13.1826 99.5981 14.1669 100.793 14.1669C101.426 14.1669 101.883 13.9208 102.305 13.4638L103.008 14.2372C102.446 14.9051 101.672 15.2566 100.793 15.2566C99.0005 15.2566 97.5592 13.956 97.5592 11.6007C97.5241 9.28054 99.0005 7.90955 100.828 7.90955Z" fill="white"/>
<path d="M107.472 13.253H105.082L104.519 15.1864H103.219L105.539 8.05023H107.015L109.335 15.1864H107.999L107.472 13.253ZM107.191 12.2335L106.945 11.3547C106.734 10.6164 106.523 9.77276 106.312 8.99938H106.277C106.066 9.80791 105.89 10.6164 105.644 11.3547L105.398 12.2335H107.191Z" fill="white"/>
<path d="M114.081 15.1864L112.535 12.4093H111.445V15.1864H110.179V8.05023H112.57C114.046 8.05023 115.206 8.57754 115.206 10.1594C115.206 11.2492 114.644 11.9171 113.765 12.1984L115.452 15.1864H114.081ZM111.48 11.3898H112.5C113.484 11.3898 114.011 10.968 114.011 10.1594C114.011 9.35091 113.484 9.06969 112.5 9.06969H111.48V11.3898Z" fill="white"/>
<path d="M116.718 8.05023H118.616C120.795 8.05023 122.096 9.2103 122.096 11.5656C122.096 13.9209 120.795 15.1513 118.686 15.1513H116.718V8.05023ZM118.51 14.1318C119.952 14.1318 120.76 13.3233 120.76 11.5656C120.76 9.80791 119.917 9.06969 118.51 9.06969H117.983V14.1318H118.51Z" fill="white"/>
</svg>