<svg width="40" height="40" viewBox="0 0 40 40" fill="none" xmlns="http://www.w3.org/2000/svg">
<g clip-path="url(#clip0_16213_37809)">
<path fill-rule="evenodd" clip-rule="evenodd" d="M19.9984 35.1999C29.7186 35.1999 37.5984 27.3201 37.5984 17.5999C37.5984 7.87967 29.7186 -0.00012207 19.9984 -0.00012207C10.2782 -0.00012207 2.39844 7.87967 2.39844 17.5999C2.39844 22.1321 4.11157 26.2643 6.92562 29.384C7.3435 29.8473 7.5981 30.4404 7.5981 31.0643V37.0695C7.5981 38.7959 9.40279 39.9286 10.9575 39.1781L19.1854 35.206C19.1904 35.2036 19.1903 35.1964 19.1853 35.1941C19.1787 35.1911 19.181 35.1812 19.1882 35.1816C19.4568 35.1937 19.7269 35.1999 19.9984 35.1999Z" fill="#006FFD"/>
<path fill-rule="evenodd" clip-rule="evenodd" d="M17.9961 18.4035C17.9961 19.3734 18.7823 20.1596 19.7522 20.1596H19.9049C20.8748 20.1596 21.661 19.3734 21.661 18.4035L21.661 10.5138C21.661 9.54392 20.8748 8.75769 19.9049 8.75769H19.7522C18.7823 8.75769 17.9961 9.54392 17.9961 10.5138V18.4035ZM19.8288 25.0462C20.8408 25.0462 21.6612 24.2257 21.6612 23.2137C21.6612 22.2017 20.8408 21.3813 19.8288 21.3813C18.8167 21.3813 17.9963 22.2017 17.9963 23.2137C17.9963 24.2257 18.8167 25.0462 19.8288 25.0462Z" fill="white"/>
</g>
<defs>
<clipPath id="clip0_16213_37809">
<rect width="40" height="40" fill="white"/>
</clipPath>
</defs>
</svg>
