<svg width="20" height="20" viewBox="0 0 20 20" fill="none" xmlns="http://www.w3.org/2000/svg">
<circle cx="10" cy="10" r="10" fill="#F2C94C"/>
<path fill-rule="evenodd" clip-rule="evenodd" d="M8.63037 11.1657C8.63037 11.8666 9.19857 12.4348 9.89947 12.4348H10.1004C10.8013 12.4348 11.3695 11.8666 11.3695 11.1657L11.3695 5.18219C11.3695 4.48128 10.8013 3.91309 10.1004 3.91309L9.89948 3.91309C9.19857 3.91309 8.63037 4.48128 8.63037 5.18219L8.63037 11.1657ZM9.99994 16.087C10.7563 16.087 11.3695 15.4738 11.3695 14.7174C11.3695 13.961 10.7563 13.3479 9.99994 13.3479C9.24355 13.3479 8.63037 13.961 8.63037 14.7174C8.63037 15.4738 9.24355 16.087 9.99994 16.087Z" fill="white"/>
</svg>
