<svg width="17" height="17" viewBox="0 0 17 17" fill="none" xmlns="http://www.w3.org/2000/svg">
<path d="M8.49798 5.80989C6.97177 5.80989 5.72627 7.05539 5.72627 8.5816C5.72627 10.1078 6.97177 11.3533 8.49798 11.3533C10.0242 11.3533 11.2697 10.1078 11.2697 8.5816C11.2697 7.05539 10.0242 5.80989 8.49798 5.80989ZM16.811 8.5816C16.811 7.43383 16.8214 6.29645 16.757 5.15076C16.6925 3.82 16.3889 2.63896 15.4158 1.66585C14.4406 0.690656 13.2617 0.389158 11.9309 0.3247C10.7831 0.260241 9.64575 0.270638 8.50006 0.270638C7.35228 0.270638 6.21491 0.260241 5.06921 0.3247C3.73846 0.389158 2.55742 0.692736 1.58431 1.66585C0.609114 2.64104 0.307615 3.82 0.243157 5.15076C0.178699 6.29853 0.189095 7.43591 0.189095 8.5816C0.189095 9.72729 0.178699 10.8668 0.243157 12.0124C0.307615 13.3432 0.611193 14.5242 1.58431 15.4974C2.5595 16.4725 3.73846 16.774 5.06921 16.8385C6.21699 16.903 7.35436 16.8926 8.50006 16.8926C9.64783 16.8926 10.7852 16.903 11.9309 16.8385C13.2617 16.774 14.4427 16.4705 15.4158 15.4974C16.391 14.5222 16.6925 13.3432 16.757 12.0124C16.8235 10.8668 16.811 9.72937 16.811 8.5816ZM8.49798 12.8462C6.13797 12.8462 4.23333 10.9416 4.23333 8.5816C4.23333 6.22159 6.13797 4.31696 8.49798 4.31696C10.858 4.31696 12.7626 6.22159 12.7626 8.5816C12.7626 10.9416 10.858 12.8462 8.49798 12.8462ZM12.9373 5.13828C12.3863 5.13828 11.9413 4.69331 11.9413 4.14229C11.9413 3.59128 12.3863 3.14631 12.9373 3.14631C13.4883 3.14631 13.9333 3.59128 13.9333 4.14229C13.9334 4.27314 13.9078 4.40272 13.8578 4.52364C13.8078 4.64455 13.7344 4.75441 13.6419 4.84693C13.5494 4.93945 13.4395 5.0128 13.3186 5.0628C13.1977 5.11279 13.0681 5.13844 12.9373 5.13828Z" fill="#23274D"/>
</svg>