<svg width="41" height="41" viewBox="0 0 41 41" fill="none" xmlns="http://www.w3.org/2000/svg">
<path d="M34.2465 10.6175L28.7296 5.10064C27.0404 3.41143 24.7582 2.47705 22.3681 2.47705H13.5088C8.11773 2.47705 4.52368 6.0711 4.52368 11.4622V29.4324C4.52368 34.8235 8.11773 38.4176 13.5088 38.4176H27.885C33.2761 38.4176 36.8701 34.8235 36.8701 29.4324V16.9791C36.8701 14.571 35.9177 12.2888 34.2465 10.6175Z" stroke="#23274D" stroke-width="3.08061" stroke-linecap="round" stroke-linejoin="round"/>
<path d="M13.2474 20.5272H13.2781H28.563" stroke="#006FFD" stroke-width="3.08061" stroke-linecap="round" stroke-linejoin="round"/>
<path d="M13.2474 15.1362H13.2625H20.7949" stroke="#006FFD" stroke-width="3.08061" stroke-linecap="round" stroke-linejoin="round"/>
<path d="M19.0703 29.6585C19.0247 29.941 19.0339 30.2271 19.0957 30.5039H18.7916L19.2987 31.0265C19.6141 31.3516 20.0119 31.5986 20.4545 31.7479C20.8911 31.8952 21.3601 31.9438 21.8209 31.8903H26.9774C27.2422 31.8903 27.5019 31.796 27.6981 31.6197C27.8954 31.4423 28.0135 31.1943 28.0135 30.9279C28.0135 30.6614 27.8954 30.4134 27.6981 30.2361C27.5019 30.0597 27.2422 29.9655 26.9774 29.9655H21.8052C21.6075 29.962 21.5032 29.9213 21.4512 29.8875C21.4047 29.8572 21.383 29.822 21.3713 29.7798C21.3415 29.672 21.3811 29.5211 21.4203 29.4498C21.6063 29.1603 21.7519 28.8503 21.8532 28.5269L21.8556 28.5195L21.8575 28.5119C21.939 28.1965 21.9 27.8662 21.7495 27.5759L21.476 27.7177L21.7495 27.5759C21.5995 27.2865 21.3497 27.0575 21.0467 26.9189L21.0468 26.9186L21.0342 26.9135C20.5833 26.731 20.0803 26.6867 19.6006 26.7862C19.1249 26.8849 18.6925 27.1208 18.3711 27.4642C18.2451 27.5813 18.1031 27.7189 17.9516 27.8689C17.9757 27.7996 18 27.7298 18.0247 27.6591C18.031 27.6409 18.0374 27.6227 18.0437 27.6044C18.222 27.0932 18.4125 26.5432 18.6014 25.8898C18.7341 25.5154 18.7051 25.1091 18.522 24.7548C18.3381 24.3987 18.0157 24.1272 17.6286 23.9857L17.6212 23.983L17.6137 23.9807C17.1917 23.8506 16.7312 23.8689 16.3226 24.033C15.9182 24.1954 15.5874 24.4918 15.4042 24.8724C15.1773 25.2593 14.1975 26.6517 13.25 27.9806C12.6269 28.8545 12.0191 29.6991 11.6722 30.1813C11.5016 30.4183 11.3941 30.5677 11.3787 30.59L11.3787 30.59C11.3061 30.6992 11.2571 30.8219 11.2359 30.9514C11.2148 31.0809 11.2223 31.2129 11.2577 31.3393C11.2931 31.4655 11.3553 31.5822 11.4389 31.6832C11.5224 31.784 11.6255 31.8672 11.7412 31.9293C11.9739 32.0542 12.2483 32.0896 12.5064 32.0311C12.7646 31.9726 12.9957 31.8222 13.1419 31.6022L13.1422 31.6018C13.1704 31.5592 13.3373 31.3305 13.5905 30.9836C13.8941 30.5675 14.3219 29.9813 14.7832 29.3424C15.1454 28.8407 15.527 28.3082 15.8802 27.8069C15.742 28.2511 15.6106 28.6647 15.4934 29.031C15.4328 29.2203 15.3759 29.3975 15.3237 29.5598C15.2577 29.765 15.1995 29.9463 15.1513 30.0979C15.0739 30.3414 15.0133 30.536 14.9935 30.627C14.9278 30.8675 14.9502 31.1208 15.056 31.3471C15.1631 31.5764 15.3476 31.7612 15.5744 31.879L15.5826 31.8832L15.5909 31.8869C15.8389 31.9975 16.1183 32.0299 16.3866 31.9811C16.6485 31.9334 16.8911 31.8097 17.0757 31.6231C17.2285 31.4952 17.495 31.2187 18.0844 30.6035L18.0857 30.6021C18.4148 30.2542 18.7485 29.9099 19.0866 29.5691C19.0806 29.5988 19.0752 29.6286 19.0703 29.6585Z" fill="#006FFD" stroke="#006FFD" stroke-width="0.616123"/>
</svg>