<svg width="71" height="70" viewBox="0 0 71 70" fill="none" xmlns="http://www.w3.org/2000/svg">
<path d="M42.5422 27.8398C39.6938 24.9543 35.8313 23.3334 31.8039 23.3334C27.7765 23.3334 23.9139 24.9543 21.0655 27.8398L10.3237 38.7225C7.47524 41.6093 5.875 45.5246 5.875 49.607C5.875 53.6895 7.47524 57.6048 10.3237 60.4915C13.1721 63.3783 17.0355 65 21.0638 65C25.0921 65 28.9554 63.3783 31.8039 60.4915L37.173 55.0502" stroke="#23274D" stroke-width="3.5" stroke-linecap="round" stroke-linejoin="round"/>
<path d="M29.209 42.1602C32.0574 45.0457 35.9199 46.6667 39.9473 46.6667C43.9747 46.6667 47.8373 45.0457 50.6857 42.1602L61.4275 31.2775C64.276 28.3907 65.8762 24.4755 65.8762 20.393C65.8762 16.3105 64.276 12.3953 61.4275 9.5085C58.5791 6.62176 54.7157 5 50.6874 5C46.6591 5 42.7958 6.62176 39.9473 9.5085L34.5782 14.9499" stroke="#006FFD" stroke-width="3.5" stroke-linecap="round" stroke-linejoin="round"/>
</svg>