<svg width="18" height="18" viewBox="0 0 18 18" fill="none" xmlns="http://www.w3.org/2000/svg">
<path d="M15 1H3C1.89543 1 1 1.89543 1 3V15C1 16.1046 1.89543 17 3 17H15C16.1046 17 17 16.1046 17 15V3C17 1.89543 16.1046 1 15 1Z" stroke="white" stroke-width="2" stroke-linecap="round" stroke-linejoin="round"/>
<path d="M5 8V13M5 5V5.01M9 13V8M13 13V10C13 9.46957 12.7893 8.96086 12.4142 8.58579C12.0391 8.21071 11.5304 8 11 8C10.4696 8 9.96086 8.21071 9.58579 8.58579C9.21071 8.96086 9 9.46957 9 10" stroke="white" stroke-width="2" stroke-linecap="round" stroke-linejoin="round"/>
</svg>
