<svg width="18" height="18" viewBox="0 0 18 18" fill="none" xmlns="http://www.w3.org/2000/svg">
<path d="M3.85688 0.675293C2.08886 0.675293 0.641846 2.12228 0.641846 3.89033V13.8672C0.641846 15.6352 2.08883 17.0817 3.85688 17.0817H13.8337C15.6018 17.0817 17.0482 15.6352 17.0482 13.8672V3.89033C17.0482 2.12231 15.6018 0.675293 13.8337 0.675293H3.85688ZM4.66551 3.38268C5.51324 3.38268 6.03541 3.93919 6.05152 4.67073C6.05152 5.38612 5.51321 5.95828 4.64912 5.95828H4.63321C3.80162 5.95828 3.26412 5.38615 3.26412 4.67073C3.26412 3.93921 3.81789 3.38268 4.6655 3.38268H4.66551ZM11.9709 6.80178C13.6012 6.80178 14.8234 7.86738 14.8234 10.1573V14.4322H12.3457V10.4439C12.3457 9.44171 11.9871 8.75795 11.0905 8.75795C10.4059 8.75795 9.99793 9.21881 9.8188 9.66401C9.75336 9.82329 9.73727 10.0457 9.73727 10.2686V14.4322H7.25959C7.25959 14.4322 7.29211 7.67617 7.25959 6.97662H9.73778V8.03241C10.067 7.52441 10.656 6.80177 11.9709 6.80177V6.80178ZM3.41027 6.97716H5.88795V14.4322H3.41027V6.97716Z" fill="#23274D"/>
</svg>