<svg width="19" height="23" viewBox="0 0 19 23" fill="none" xmlns="http://www.w3.org/2000/svg">
<path d="M17.4014 11.6053L16.4465 9.49738L15.7236 7.89815L14.8562 5.98123C14.5099 5.21553 13.7139 4.75682 12.8768 4.83892L10.7832 5.04597L9.03582 5.21909L6.73158 5.44577C5.37867 5.58142 4.16497 6.36318 3.48494 7.54118L0.356107 12.96C-0.124017 13.7917 0.161559 14.8591 0.993298 15.3392L1.18071 15.4481C1.76078 15.7836 2.40333 15.9086 3.02445 15.8479C3.99541 15.7586 4.90925 15.216 5.43221 14.3075L7.19386 11.2554C7.45266 10.8075 7.91494 10.5201 8.43076 10.488L10.6743 10.3434C10.8885 10.3291 11.0884 10.4451 11.1848 10.6379L12.1807 12.653C12.411 13.117 12.3931 13.6614 12.1343 14.1094L10.3727 17.1615C9.84971 18.0682 9.83543 19.132 10.2424 20.0173C10.4994 20.5849 10.9313 21.0793 11.5114 21.4148L11.6988 21.5237C12.5306 22.0038 13.5979 21.7182 14.078 20.8865L17.2069 15.4677C17.8869 14.2897 17.9583 12.8493 17.3978 11.6089L17.4014 11.6053ZM12.8465 20.169C12.759 20.3207 12.5662 20.3725 12.4163 20.285L12.2289 20.1761C11.4239 19.7103 11.1473 18.6786 11.6114 17.8719L13.373 14.8198C13.871 13.9577 13.9049 12.91 13.4622 12.0176L13.4069 11.9069L12.4681 10.0025C12.2914 9.64552 12.0201 9.36352 11.6917 9.17432C11.3633 8.98513 10.9831 8.89053 10.5851 8.91552L8.46645 9.05474L8.3433 9.06188C7.34914 9.12435 6.46029 9.67764 5.96231 10.5397L4.20067 13.5918C3.73482 14.3968 2.70318 14.6734 1.89643 14.2094L1.70902 14.1005C1.55731 14.013 1.50555 13.8203 1.59301 13.6704L4.72184 8.25156C5.17341 7.4698 5.97659 6.95219 6.87259 6.86473L8.15768 6.738L9.52665 6.60235L9.90504 6.56488L13.0178 6.25609C13.2445 6.23289 13.4622 6.35784 13.5551 6.56666L14.8437 9.41706L15.0865 9.9543L15.5666 11.0163L16.0985 12.1925C16.4697 13.0135 16.4233 13.9684 15.9735 14.7502L12.8447 20.169H12.8465Z" fill="#EAF2FF"/>
<path d="M17.4317 7.79109L16.4483 9.49562L15.7254 7.89639L16.1984 7.07894C16.2252 7.03254 16.252 6.98255 16.2769 6.93615C16.8534 5.84739 16.9445 4.57123 16.525 3.40751L16.0895 2.19916C16.0092 1.9707 15.7754 1.83685 15.538 1.88147L14.2743 2.10814C13.0571 2.32589 11.9987 3.0434 11.3418 4.08575C11.3133 4.13216 11.2847 4.17856 11.2579 4.22496L10.785 5.04242L9.0376 5.21556L10.021 3.51102C10.876 2.0296 12.336 1.0051 14.0209 0.701675L15.2846 0.475007C16.2091 0.309016 17.1122 0.830192 17.4317 1.71369L17.8672 2.92203C18.4473 4.53196 18.2902 6.30788 17.4335 7.78931L17.4317 7.79109Z" fill="#EAF2FF"/>
<path d="M15.5704 11.0162L13.375 14.8197C13.873 13.9576 13.9069 12.9099 13.4642 12.0175L13.4089 11.9068L14.8475 9.41516L15.0902 9.9524L15.5704 11.0144V11.0162Z" fill="#EAF2FF"/>
<path d="M9.90513 6.56494L8.46654 9.05658L8.34339 9.06373C7.34923 9.1262 6.46037 9.67949 5.9624 10.5416L8.15776 6.73807L9.52674 6.60242L9.90513 6.56494Z" fill="#EAF2FF"/>
<path d="M9.57181 20.6706C8.81325 21.2935 7.8994 21.7218 6.90881 21.9003L4.04771 22.4144L3.06247 19.68C2.72156 18.7322 2.63589 17.7273 2.79653 16.76C3.32663 16.7528 3.85137 16.6386 4.33685 16.428C4.06198 17.3258 4.07983 18.2949 4.40646 19.1963L4.98296 20.7973L6.65715 20.4956C7.59955 20.3261 8.44914 19.8585 9.08811 19.1713C9.1488 19.696 9.31122 20.2083 9.57181 20.6706Z" fill="#EAF2FF"/>
</svg>
