<svg width="221" height="203" viewBox="0 0 221 203" fill="none" xmlns="http://www.w3.org/2000/svg">
<rect width="221" height="202.773" fill="#EAF2FF"/>
<path d="M110.497 49.1365C99.5992 49.1365 89.1475 53.4657 81.4415 61.1717C73.7355 68.8778 69.4063 79.3294 69.4062 90.2274C69.4063 99.9454 71.4711 106.304 77.1108 113.341L110.497 151.864L143.884 113.341C149.523 106.304 151.588 99.9454 151.588 90.2274C151.588 79.3294 147.259 68.8778 139.553 61.1717C131.847 53.4657 121.395 49.1365 110.497 49.1365V49.1365Z" stroke="#006FFD" stroke-width="8.475" stroke-linecap="round" stroke-linejoin="round"/>
<path d="M110.495 105.637C119.005 105.637 125.904 98.7381 125.904 90.2279C125.904 81.7177 119.005 74.8188 110.495 74.8188C101.985 74.8188 95.0859 81.7177 95.0859 90.2279C95.0859 98.7381 101.985 105.637 110.495 105.637Z" stroke="#B8D4F7" stroke-width="8.475" stroke-linecap="round" stroke-linejoin="round"/>
</svg>