<svg width="30" height="38" viewBox="0 0 30 38" fill="none" xmlns="http://www.w3.org/2000/svg">
<path d="M14.9986 0.818176C11.1409 0.818176 7.44119 2.35064 4.71339 5.07844C1.98559 7.80624 0.453125 11.5059 0.453125 15.3636C0.453125 18.8036 1.18403 21.0545 3.1804 23.5455L14.9986 37.1818L26.8168 23.5455C28.8131 21.0545 29.544 18.8036 29.544 15.3636C29.544 11.5059 28.0116 7.80624 25.2838 5.07844C22.556 2.35064 18.8563 0.818176 14.9986 0.818176Z" fill="#006FFD"/>
<path d="M14.9975 20.8184C18.01 20.8184 20.4521 18.3763 20.4521 15.3638C20.4521 12.3514 18.01 9.9093 14.9975 9.9093C11.9851 9.9093 9.54297 12.3514 9.54297 15.3638C9.54297 18.3763 11.9851 20.8184 14.9975 20.8184Z" fill="white"/>
</svg>
