<svg width="21" height="21" viewBox="0 0 21 21" fill="none" xmlns="http://www.w3.org/2000/svg">
<path d="M2.41699 11.0083H16.5837" stroke="#23274D" stroke-width="1.5" stroke-miterlimit="10" stroke-linecap="round" stroke-linejoin="round"/>
<path d="M16.5837 9.06671V15.025C16.5587 17.4 15.9086 18 13.4336 18H5.56702C3.05035 18 2.41699 17.375 2.41699 14.8917V9.06671C2.41699 6.81671 2.94199 6.09171 4.91699 5.97504C5.11699 5.96671 5.33368 5.95837 5.56702 5.95837H13.4336C15.9503 5.95837 16.5837 6.58337 16.5837 9.06671Z" stroke="#23274D" stroke-width="1.5" stroke-linecap="round" stroke-linejoin="round"/>
<path d="M19.0837 6.10833V11.9333C19.0837 14.1833 18.5587 14.9083 16.5837 15.025V9.06667C16.5837 6.58333 15.9503 5.95833 13.4336 5.95833H5.56702C5.33368 5.95833 5.11699 5.96667 4.91699 5.975C4.94199 3.6 5.59202 3 8.06702 3H15.9336C18.4503 3 19.0837 3.625 19.0837 6.10833Z" stroke="#23274D" stroke-width="1.5" stroke-linecap="round" stroke-linejoin="round"/>
<path d="M5.125 15.3417H6.55831" stroke="#006FFD" stroke-width="1.5" stroke-miterlimit="10" stroke-linecap="round" stroke-linejoin="round"/>
<path d="M8.3418 15.3417H11.2085" stroke="#006FFD" stroke-width="1.5" stroke-miterlimit="10" stroke-linecap="round" stroke-linejoin="round"/>
</svg>