<svg width="70" height="70" viewBox="0 0 70 70" fill="none" xmlns="http://www.w3.org/2000/svg">
<path fill-rule="evenodd" clip-rule="evenodd" d="M18.5908 46.6593L30.2556 69.989H32.0783C34.7211 69.989 36.9652 68.7245 38.4575 67.0728C39.9498 65.421 40.8269 63.4161 40.8269 61.2403C40.8269 60.981 40.8338 60.6962 40.8413 60.3892L40.8413 60.3888C40.8787 58.8481 40.9298 56.7476 40.189 54.4966C38.9994 50.8885 38.8025 49.0283 38.6318 47.4147C38.6047 47.1587 38.5783 46.9089 38.5486 46.6593H61.2403C66.7424 46.6593 70.9572 41.4762 69.8067 36.0881L63.5186 6.92599C62.6529 2.90482 59.0646 0 54.9523 0H0V46.6593H18.5908ZM33.8304 63.317C33.726 63.3419 33.6222 63.3666 33.5409 63.4275L23.3342 43.0141V5.83241H54.9568C56.3466 5.83241 57.5769 6.74373 57.873 8.1107L64.07 37.2728C64.4687 39.1524 63.1701 40.8269 61.2449 40.8269H31.9006L32.0828 43.9254C32.0828 43.9254 32.4588 49.7236 34.6345 56.3192C35.0107 57.4479 35.0058 58.9759 35.0004 60.6359V60.636C34.9997 60.8357 34.999 61.0373 34.999 61.2403C34.999 61.7188 34.7256 62.5504 34.1789 63.1541C34.0905 63.2551 33.9601 63.2862 33.8304 63.317ZM5.83697 40.8269H17.5018V5.83243H5.83697V40.8269ZM8.75 12.6648C8.75 14.271 10.06 15.5811 11.6662 15.5811C13.2724 15.5811 14.5824 14.271 14.5824 12.6648C14.5824 11.0587 13.2724 9.74864 11.6662 9.74864C10.06 9.74864 8.75 11.0587 8.75 12.6648Z" fill="#F14B4B"/>
</svg>