<svg width="71" height="70" viewBox="0 0 71 70" fill="none" xmlns="http://www.w3.org/2000/svg">
<path fill-rule="evenodd" clip-rule="evenodd" d="M19.0908 23.3297L30.7556 0H32.5783C35.2211 0 37.4652 1.26445 38.9575 2.91621C40.4498 4.56796 41.3269 6.57286 41.3269 8.74862C41.3269 9.00794 41.3338 9.29274 41.3413 9.59977L41.3413 9.60021C41.3787 11.1409 41.4298 13.2414 40.689 15.4923C39.4994 19.1005 39.3025 20.9607 39.1318 22.5742C39.1047 22.8302 39.0783 23.0801 39.0486 23.3297H61.7403C67.2424 23.3297 71.4572 28.5128 70.3067 33.9009L64.0186 63.063C63.1529 67.0842 59.5646 69.989 55.4523 69.989H0.5V23.3297H19.0908ZM34.3304 6.67194C34.226 6.64711 34.1222 6.6224 34.0409 6.56147L23.8342 26.9749V64.1566H55.4568C56.8466 64.1566 58.0769 63.2452 58.373 61.8783L64.57 32.7162C64.9687 30.8366 63.6701 29.1621 61.7449 29.1621H32.4006L32.5828 26.0636C32.5828 26.0636 32.9588 20.2654 35.1345 13.6697C35.5107 12.5411 35.5058 11.0131 35.5004 9.35305V9.35301C35.4997 9.15331 35.499 8.95169 35.499 8.74862C35.499 8.27018 35.2256 7.43861 34.6789 6.83486C34.5905 6.73384 34.4601 6.70281 34.3304 6.67194ZM6.33697 29.162H18.0018V64.1565H6.33697V29.162ZM9.24862 58.3241C9.24862 56.7179 10.5586 55.4079 12.1648 55.4079C13.771 55.4079 15.081 56.7179 15.081 58.3241C15.081 59.9303 13.771 61.2403 12.1648 61.2403C10.5586 61.2403 9.24862 59.9303 9.24862 58.3241Z" fill="#6FCF97"/>
</svg>