<svg width="40" height="26" viewBox="0 0 40 26" fill="none" xmlns="http://www.w3.org/2000/svg">
<g clip-path="url(#clip0_13613_26179)">
<path d="M39.401 13.0001C39.401 19.7299 33.9563 25.1747 27.2264 25.1747C24.3857 25.1747 21.7817 24.194 19.7188 22.5707C22.5595 20.3387 24.3519 16.8892 24.3519 13.0001C24.3519 9.11095 22.5257 5.66148 19.7188 3.42946C21.7817 1.80618 24.3857 0.825439 27.2264 0.825439C33.9563 0.825439 39.401 6.30402 39.401 13.0001Z" fill="#F79E1B"/>
<path d="M19.7178 3.42944C19.7177 3.42945 19.7178 3.42944 19.7178 3.42944C22.5247 5.66146 24.3509 9.11094 24.3509 13.0001C24.3509 16.8892 22.5585 20.3387 19.7177 22.5707L19.6838 22.5707C16.8769 20.3725 15.0508 16.8892 15.0508 13.0001C15.0508 9.11101 16.877 5.66153 19.6839 3.42952C19.6839 3.42949 19.6839 3.42954 19.6839 3.42952L19.7178 3.42944Z" fill="#FF5F00"/>
<path d="M15.0492 13.0003C15.0492 9.11119 16.8754 5.66172 19.6823 3.4297C17.6194 1.80642 15.0154 0.825684 12.1746 0.825684C5.44476 0.825684 0 6.27045 0 13.0003C0 19.7302 5.44476 25.1749 12.1746 25.1749C15.0154 25.1749 17.6194 24.1942 19.6823 22.5709C16.8754 20.3727 15.0492 16.8894 15.0492 13.0003Z" fill="#EB001B"/>
</g>
<defs>
<clipPath id="clip0_13613_26179">
<rect width="39.3984" height="24.3493" fill="white" transform="translate(0 0.825439)"/>
</clipPath>
</defs>
</svg>
