<svg width="28" height="29" viewBox="0 0 28 29" fill="none" xmlns="http://www.w3.org/2000/svg">
<path d="M20.9998 8.83165C20.9298 8.81998 20.8481 8.81998 20.7781 8.83165C19.1681 8.77332 17.8848 7.45498 17.8848 5.82165C17.8848 4.15331 19.2264 2.81165 20.8948 2.81165C22.5631 2.81165 23.9048 4.16498 23.9048 5.82165C23.8931 7.45498 22.6098 8.77332 20.9998 8.83165Z" stroke="#006FFD" stroke-width="2" stroke-linecap="round" stroke-linejoin="round"/>
<path d="M19.7987 17.325C21.397 17.5934 23.1587 17.3134 24.3953 16.485C26.0403 15.3884 26.0403 13.5917 24.3953 12.495C23.147 11.6667 21.362 11.3867 19.7637 11.6667" stroke="#006FFD" stroke-width="2" stroke-linecap="round" stroke-linejoin="round"/>
<path d="M6.96555 8.83165C7.03555 8.81998 7.11721 8.81998 7.18721 8.83165C8.79721 8.77332 10.0805 7.45498 10.0805 5.82165C10.0805 4.15331 8.73888 2.81165 7.07055 2.81165C5.40222 2.81165 4.06055 4.16498 4.06055 5.82165C4.07221 7.45498 5.35555 8.77332 6.96555 8.83165Z" stroke="#006FFD" stroke-width="2" stroke-linecap="round" stroke-linejoin="round"/>
<path d="M8.16635 17.325C6.56802 17.5934 4.80635 17.3134 3.56969 16.485C1.92469 15.3884 1.92469 13.5917 3.56969 12.495C4.81802 11.6667 6.60302 11.3867 8.20135 11.6667" stroke="#006FFD" stroke-width="2" stroke-linecap="round" stroke-linejoin="round"/>
<path d="M13.9998 17.5466C13.9298 17.5349 13.8481 17.5349 13.7781 17.5466C12.1681 17.4883 10.8848 16.1699 10.8848 14.5366C10.8848 12.8683 12.2264 11.5266 13.8948 11.5266C15.5631 11.5266 16.9048 12.8799 16.9048 14.5366C16.8931 16.1699 15.6098 17.4999 13.9998 17.5466Z" stroke="#006FFD" stroke-width="2" stroke-linecap="round" stroke-linejoin="round"/>
<path d="M10.6048 21.2216C8.95984 22.3182 8.95984 24.1149 10.6048 25.2116C12.4715 26.4599 15.5282 26.4599 17.3948 25.2116C19.0398 24.1149 19.0398 22.3182 17.3948 21.2216C15.5398 19.9849 12.4715 19.9849 10.6048 21.2216Z" stroke="#006FFD" stroke-width="2" stroke-linecap="round" stroke-linejoin="round"/>
</svg>