<svg width="21" height="21" viewBox="0 0 21 21" fill="none" xmlns="http://www.w3.org/2000/svg">
<path d="M14.668 17.8953H6.33464C3.0013 17.8953 2.16797 17.0619 2.16797 13.7286V7.06193C2.16797 3.7286 3.0013 2.89526 6.33464 2.89526H14.668C18.0013 2.89526 18.8346 3.7286 18.8346 7.06193V13.7286C18.8346 17.0619 18.0013 17.8953 14.668 17.8953Z" stroke="#23274D" stroke-width="1.5" stroke-linecap="round" stroke-linejoin="round"/>
<path d="M12.168 7.06201H16.3346" stroke="#006FFD" stroke-width="1.5" stroke-linecap="round" stroke-linejoin="round"/>
<path d="M13 10.3953H16.3333" stroke="#006FFD" stroke-width="1.5" stroke-linecap="round" stroke-linejoin="round"/>
<path d="M14.668 13.7285H16.3346" stroke="#006FFD" stroke-width="1.5" stroke-linecap="round" stroke-linejoin="round"/>
<path d="M7.58255 9.80353C8.41558 9.80353 9.09089 9.12823 9.09089 8.2952C9.09089 7.46217 8.41558 6.78687 7.58255 6.78687C6.74952 6.78687 6.07422 7.46217 6.07422 8.2952C6.07422 9.12823 6.74952 9.80353 7.58255 9.80353Z" stroke="#006FFD" stroke-width="1.5" stroke-linecap="round" stroke-linejoin="round"/>
<path d="M10.5013 14.0035C10.3846 12.7951 9.4263 11.8451 8.21797 11.7368C7.8013 11.6951 7.3763 11.6951 6.9513 11.7368C5.74297 11.8535 4.78464 12.7951 4.66797 14.0035" stroke="#006FFD" stroke-width="1.5" stroke-linecap="round" stroke-linejoin="round"/>
</svg>