<svg width="315" height="151" viewBox="0 0 315 151" fill="none" xmlns="http://www.w3.org/2000/svg">
<path d="M313.739 7.74609H0.506958V150.581H313.739V7.74609Z" fill="#006FFD"/>
<path d="M313.739 150.995H0.506848C0.202739 150.995 0 150.788 0 150.478V7.74613C0 7.43629 0.202739 7.22974 0.506848 7.22974H313.739C314.043 7.22974 314.246 7.43629 314.246 7.74613V150.581C314.246 150.788 314.043 150.995 313.739 150.995ZM1.0137 150.065H313.232V8.26253H1.0137V150.065V150.065Z" fill="white"/>
<path d="M313.739 0.619629H0.506958V13.0131H313.739V0.619629Z" fill="#006FFD"/>
<path d="M313.739 13.4263H0.506848C0.202739 13.4263 0 13.2198 0 12.9099V0.516397C0 0.206559 0.202739 0 0.506848 0H313.739C314.043 0 314.246 0.206559 314.246 0.516397V12.9099C314.246 13.2198 314.043 13.4263 313.739 13.4263ZM1.0137 12.3935H313.232V1.03279H1.0137V12.3935V12.3935Z" fill="white"/>
<path d="M14.3137 57.6365C16.0493 57.6365 17.4562 56.203 17.4562 54.4348C17.4562 52.6666 16.0493 51.2332 14.3137 51.2332C12.5782 51.2332 11.1713 52.6666 11.1713 54.4348C11.1713 56.203 12.5782 57.6365 14.3137 57.6365Z" fill="#006FFD"/>
<path d="M14.3136 58.0499C12.2862 58.0499 10.6643 56.3974 10.6643 54.3318C10.6643 52.2662 12.2862 50.6138 14.3136 50.6138C16.341 50.6138 17.9629 52.2662 17.9629 54.3318C17.9629 56.3974 16.341 58.0499 14.3136 58.0499ZM14.3136 51.7498C12.8944 51.7498 11.678 52.9892 11.678 54.4351C11.678 55.881 12.8944 57.1204 14.3136 57.1204C15.7328 57.1204 16.9492 55.881 16.9492 54.4351C16.9492 52.9892 15.7328 51.7498 14.3136 51.7498Z" fill="white"/>
<path d="M302.451 125.531C302.451 123.775 301.032 122.329 299.309 122.329C297.586 122.329 296.166 123.775 296.166 125.531C296.166 127.287 297.586 128.733 299.309 128.733C301.133 128.733 302.451 127.287 302.451 125.531Z" fill="#006FFD"/>
<path d="M299.41 129.146C297.383 129.146 295.761 127.493 295.761 125.428C295.761 123.362 297.383 121.71 299.41 121.71C301.438 121.71 303.06 123.362 303.06 125.428C303.06 127.493 301.336 129.146 299.41 129.146ZM299.41 122.846C297.991 122.846 296.775 124.085 296.775 125.531C296.775 126.977 297.991 128.216 299.41 128.216C300.829 128.216 302.046 126.977 302.046 125.531C302.046 124.085 300.829 122.846 299.41 122.846Z" fill="white"/>
<path d="M254.966 140.843C253.254 140.843 251.371 140.672 249.659 140.158C237.503 139.987 226.889 139.131 215.589 138.275C208.399 137.762 200.866 137.077 192.82 136.734C192.648 136.734 192.306 136.563 192.135 136.392C191.964 136.221 191.964 135.878 191.964 135.707C199.325 109.685 198.983 84.0045 198.64 56.7835C198.469 48.2234 198.469 39.1497 198.64 30.4185C198.64 29.9049 198.983 29.5625 199.496 29.5625C225.861 28.3641 252.055 28.1929 277.564 29.3913C278.078 29.3913 278.42 29.7337 278.42 30.2473C280.132 59.0091 281.159 89.6541 275.167 119.614C274.311 123.894 273.113 128.859 270.545 132.797C266.95 137.933 260.958 140.843 254.966 140.843ZM194.018 135.022C201.722 135.365 208.913 136.05 215.761 136.563C227.06 137.419 237.674 138.275 249.83 138.446H250.001C257.191 140.672 264.895 137.762 269.004 131.77C271.572 128.003 272.599 123.381 273.455 119.101C279.447 89.6541 278.42 59.3515 276.708 30.9321C251.713 29.9049 226.033 29.9049 200.352 31.1033C200.181 39.6633 200.352 48.2234 200.352 56.6123C200.695 82.4636 201.037 109.171 194.018 135.022Z" fill="white"/>
<path d="M264.553 51.6477C250.686 51.3053 236.819 51.1341 222.951 51.4765C222.438 51.4765 222.095 51.1341 222.095 50.6205C222.095 50.1069 222.438 49.7645 222.951 49.7645C236.819 49.4221 250.686 49.5933 264.553 49.9357C265.067 49.9357 265.409 50.2781 265.409 50.7917C265.409 51.3053 264.896 51.6477 264.553 51.6477Z" fill="white"/>
<path d="M263.355 67.5691L232.025 67.2267C231.511 67.2267 231.169 66.8843 231.169 66.3707C231.169 65.8571 231.511 65.5146 232.025 65.5146L263.355 65.857C263.869 65.857 264.211 66.1994 264.211 66.7131C264.211 67.2267 263.869 67.5691 263.355 67.5691Z" fill="white"/>
<path d="M222.095 84.0045C221.582 84.0045 221.239 83.6621 221.239 83.1485C221.239 82.6349 221.582 82.2925 222.095 82.2925C235.62 81.7789 249.145 81.6077 262.67 81.6077C263.184 81.6077 263.526 81.9501 263.526 82.4637C263.526 82.9773 263.184 83.3197 262.67 83.3197C249.316 83.3197 235.62 83.4909 222.095 84.0045Z" fill="white"/>
<path d="M221.753 98.8988C221.239 98.8988 220.897 98.5564 220.897 98.0428C220.897 97.5292 221.239 97.1868 221.753 97.1868L262.841 96.502C263.355 96.502 263.697 96.8444 263.697 97.358C263.697 97.8716 263.355 98.214 262.841 98.214L221.753 98.8988Z" fill="white"/>
<path d="M177.804 134.593H170.79C170.54 134.593 170.039 134.343 170.039 134.343C169.788 134.092 169.788 133.842 169.788 133.591V87.9998C169.788 87.7493 170.039 87.2483 170.039 87.2483C170.289 86.9978 170.54 86.9978 170.79 86.9978H177.804C178.556 86.9978 179.057 87.4988 179.057 88.2503V133.842C179.057 134.092 178.556 134.593 177.804 134.593ZM172.043 132.088H176.552V89.0018H172.043V132.088Z" fill="white"/>
<path d="M142.734 71.2167C142.734 68.9622 143.235 66.7077 144.989 65.7057C146.742 64.7037 148.746 64.7037 150.75 64.4532C166.782 64.2027 182.814 63.9522 198.846 63.7017C201.101 63.7017 203.105 64.2027 204.107 66.2067C205.36 69.2127 204.858 73.9722 204.858 77.7297C204.858 85.7458 205.36 84.4933 205.36 92.7598C205.36 94.5133 205.359 96.2668 204.608 97.7698C203.856 99.2728 199.848 99.7738 198.345 99.5233C182.063 98.5213 166.782 99.7738 149.498 99.7738C147.744 99.5233 145.991 99.0223 144.989 97.5193C143.736 95.7658 143.486 93.5113 143.486 91.2568C142.734 81.4872 142.734 81.9882 142.734 71.2167Z" fill="#006FFD"/>
<path d="M149.247 101.027C148.997 101.027 148.997 101.027 149.247 101.027C146.742 100.776 144.738 99.7741 143.736 98.5216C142.233 96.5176 141.982 94.0126 141.982 91.5076L141.732 87.249C141.482 81.4875 141.482 80.235 141.482 71.217C141.482 68.211 142.483 65.706 144.487 64.704C146.491 63.4515 148.997 63.4515 151.001 63.4515L199.097 62.7C203.105 62.7 204.858 64.4535 205.359 65.9565C206.361 68.4615 206.361 71.9685 206.111 75.4755C206.111 76.4775 206.111 77.229 206.111 77.9805C206.111 81.9885 206.111 83.742 206.361 85.245C206.612 86.9986 206.612 88.7521 206.612 92.7601C206.612 94.5136 206.612 96.5176 205.86 98.2711C204.608 100.776 199.598 100.776 198.345 100.776C187.574 100.275 177.303 100.526 166.281 100.776C160.52 100.776 154.758 101.027 149.247 101.027ZM199.097 64.9545C198.846 64.9545 198.846 64.9545 199.097 64.9545L151.001 65.706C149.247 65.706 147.243 65.706 145.74 66.708C144.237 67.71 143.987 69.9645 143.987 71.217C143.987 79.9845 143.987 81.237 144.237 86.9985L144.487 91.2571C144.487 93.2611 144.738 95.5156 145.74 96.7681C146.491 97.7701 147.744 98.2711 149.497 98.5216C155.259 98.5216 160.77 98.2711 166.031 98.2711C177.053 98.0206 187.574 97.7701 198.345 98.2711C200.349 98.2711 203.105 97.7701 203.606 97.0186C204.107 95.7661 204.107 94.0126 204.107 92.5096C204.107 88.5016 204.107 86.7481 203.856 85.245C203.606 83.4915 203.606 81.738 203.606 77.73C203.606 76.9785 203.606 75.9765 203.606 74.9745C203.606 71.9685 203.856 68.712 202.854 66.4575C202.353 65.4555 201.101 64.9545 199.097 64.9545Z" fill="white"/>
<path d="M151.26 89.3114V78.1033H152.179V79.6582H152.29C152.403 79.4141 152.559 79.1646 152.757 78.9099C152.955 78.6516 153.217 78.4341 153.542 78.2572C153.871 78.0803 154.285 77.9918 154.784 77.9918C155.456 77.9918 156.044 78.1687 156.546 78.5225C157.052 78.8728 157.445 79.3645 157.724 79.9978C158.007 80.6276 158.149 81.3617 158.149 82.2002C158.149 83.0422 158.007 83.7799 157.724 84.4132C157.445 85.0464 157.052 85.54 156.546 85.8938C156.044 86.2476 155.46 86.4245 154.795 86.4245C154.303 86.4245 153.891 86.336 153.558 86.1591C153.229 85.9822 152.962 85.7646 152.757 85.5064C152.555 85.2446 152.4 84.9898 152.29 84.7422H152.205V89.3114H151.26ZM152.194 82.1843C152.194 82.8423 152.292 83.4261 152.486 83.9355C152.684 84.4415 152.967 84.8395 153.335 85.1296C153.707 85.4162 154.156 85.5594 154.683 85.5594C155.225 85.5594 155.681 85.4108 156.053 85.1137C156.428 84.8129 156.712 84.4078 156.907 83.8984C157.105 83.3889 157.204 82.8175 157.204 82.1843C157.204 81.558 157.107 80.9937 156.912 80.4914C156.721 79.989 156.438 79.591 156.063 79.2973C155.688 79.0001 155.228 78.8515 154.683 78.8515C154.153 78.8515 153.702 78.9948 153.33 79.2814C152.959 79.5644 152.676 79.9571 152.481 80.4595C152.29 80.9584 152.194 81.5333 152.194 82.1843ZM160.221 86.2546V78.1033H161.139V79.3557H161.208C161.371 78.9453 161.654 78.6145 162.057 78.3633C162.464 78.1086 162.924 77.9812 163.437 77.9812C163.515 77.9812 163.602 77.983 163.697 77.9865C163.793 77.9901 163.872 77.9936 163.936 77.9971V78.9577C163.893 78.9506 163.819 78.94 163.713 78.9258C163.607 78.9117 163.492 78.9046 163.368 78.9046C162.944 78.9046 162.565 78.9948 162.232 79.1753C161.903 79.3522 161.643 79.598 161.452 79.9129C161.261 80.2278 161.166 80.5869 161.166 80.9902V86.2546H160.221ZM165.558 86.2546V78.1033H166.508V86.2546H165.558ZM166.041 76.7022C165.847 76.7022 165.681 76.6368 165.543 76.5059C165.405 76.3715 165.336 76.2105 165.336 76.023C165.336 75.8355 165.405 75.6763 165.543 75.5453C165.681 75.4109 165.847 75.3437 166.041 75.3437C166.236 75.3437 166.402 75.4109 166.54 75.5453C166.678 75.6763 166.747 75.8355 166.747 76.023C166.747 76.2105 166.678 76.3715 166.54 76.5059C166.402 76.6368 166.236 76.7022 166.041 76.7022ZM172.191 86.4245C171.462 86.4245 170.827 86.2423 170.286 85.8779C169.748 85.5134 169.33 85.0146 169.033 84.3813C168.736 83.748 168.587 83.0263 168.587 82.2161C168.587 81.3988 168.738 80.6718 169.038 80.035C169.343 79.3981 169.764 78.8993 170.302 78.5384C170.839 78.174 171.464 77.9918 172.175 77.9918C172.72 77.9918 173.213 78.098 173.655 78.3102C174.098 78.519 174.462 78.8144 174.749 79.1965C175.039 79.575 175.221 80.0173 175.295 80.5232H174.34C174.241 80.0633 174.002 79.6706 173.624 79.3451C173.249 79.0161 172.771 78.8515 172.191 78.8515C171.671 78.8515 171.211 78.9931 170.811 79.2761C170.411 79.5556 170.098 79.9465 169.872 80.4489C169.649 80.9478 169.537 81.5262 169.537 82.1843C169.537 82.8459 169.647 83.4314 169.866 83.9408C170.086 84.4468 170.394 84.843 170.79 85.1296C171.19 85.4162 171.657 85.5594 172.191 85.5594C172.552 85.5594 172.881 85.4922 173.178 85.3578C173.479 85.2198 173.73 85.0252 173.931 84.774C174.137 84.5228 174.275 84.2239 174.345 83.8772H175.301C175.23 84.3689 175.055 84.8076 174.775 85.1933C174.499 85.5754 174.14 85.8761 173.698 86.0954C173.259 86.3148 172.757 86.4245 172.191 86.4245ZM177.336 86.2546V78.1033H178.286V86.2546H177.336ZM177.819 76.7022C177.624 76.7022 177.458 76.6368 177.32 76.5059C177.182 76.3715 177.113 76.2105 177.113 76.023C177.113 75.8355 177.182 75.6763 177.32 75.5453C177.458 75.4109 177.624 75.3437 177.819 75.3437C178.013 75.3437 178.18 75.4109 178.318 75.5453C178.456 75.6763 178.525 75.8355 178.525 76.023C178.525 76.2105 178.456 76.3715 178.318 76.5059C178.18 76.6368 178.013 76.7022 177.819 76.7022ZM181.729 81.16V86.2546H180.784V78.1033H181.702V79.3822H181.787C181.978 78.9648 182.275 78.6304 182.678 78.3792C183.085 78.1245 183.588 77.9971 184.186 77.9971C184.734 77.9971 185.215 78.1121 185.629 78.3421C186.047 78.5685 186.37 78.9028 186.6 79.3451C186.834 79.7873 186.951 80.3304 186.951 80.9743V86.2546H186.006V81.0327C186.006 80.364 185.818 79.8351 185.443 79.4459C185.072 79.0567 184.573 78.8622 183.947 78.8622C183.519 78.8622 183.138 78.9541 182.806 79.1381C182.473 79.3221 182.21 79.5874 182.015 79.9341C181.824 80.2773 181.729 80.6859 181.729 81.16ZM192.548 89.4812C191.993 89.4812 191.506 89.4087 191.089 89.2636C190.671 89.1221 190.319 88.9275 190.033 88.6799C189.746 88.4322 189.523 88.1545 189.364 87.8467L190.139 87.3372C190.255 87.5424 190.411 87.7441 190.606 87.9422C190.804 88.1404 191.06 88.3049 191.375 88.4358C191.694 88.5667 192.085 88.6321 192.548 88.6321C193.27 88.6321 193.852 88.4517 194.294 88.0908C194.74 87.73 194.963 87.1692 194.963 86.4085V84.5724H194.878C194.768 84.82 194.611 85.0677 194.405 85.3153C194.2 85.5594 193.931 85.7629 193.599 85.9256C193.27 86.0884 192.861 86.1697 192.373 86.1697C191.722 86.1697 191.143 86.0088 190.637 85.6868C190.135 85.3649 189.739 84.9049 189.449 84.307C189.162 83.7056 189.019 82.9891 189.019 82.1577C189.019 81.3334 189.159 80.6081 189.438 79.9819C189.721 79.3557 190.116 78.8675 190.622 78.5172C191.127 78.1669 191.717 77.9918 192.389 77.9918C192.888 77.9918 193.302 78.0803 193.631 78.2572C193.96 78.4305 194.223 78.6463 194.421 78.9046C194.623 79.1629 194.78 79.4141 194.894 79.6582H194.989V78.1033H195.913V86.4669C195.913 87.1568 195.766 87.7246 195.472 88.1704C195.178 88.6162 194.779 88.9452 194.273 89.1575C193.767 89.3733 193.192 89.4812 192.548 89.4812ZM192.484 85.3047C193.008 85.3047 193.455 85.1791 193.827 84.9279C194.198 84.6732 194.483 84.3088 194.681 83.8347C194.879 83.3606 194.979 82.7963 194.979 82.1418C194.979 81.505 194.881 80.9407 194.687 80.4489C194.492 79.9536 194.209 79.5644 193.838 79.2814C193.47 78.9948 193.019 78.8515 192.484 78.8515C191.939 78.8515 191.48 78.9984 191.104 79.292C190.729 79.5857 190.446 79.9819 190.255 80.4808C190.064 80.9761 189.969 81.5297 189.969 82.1418C189.969 82.7645 190.066 83.3146 190.261 83.7922C190.455 84.2663 190.74 84.6378 191.115 84.9067C191.49 85.172 191.947 85.3047 192.484 85.3047Z" fill="white"/>
<path d="M146.742 72.7193C146.491 72.7193 146.241 72.4688 146.241 72.2183C146.241 71.4668 146.491 70.7153 146.742 69.9638C146.742 69.7133 147.243 69.7133 147.243 69.9638C147.493 69.9638 147.493 70.4648 147.243 70.4648C146.992 70.9658 146.742 71.4668 146.742 72.2183C146.992 72.4688 146.992 72.7193 146.742 72.7193Z" fill="white"/>
<path d="M148.245 69.9645H147.995C147.744 69.714 147.744 69.4635 147.995 69.4635C148.496 68.9624 149.247 68.712 149.748 68.4615C150.75 68.211 151.502 67.9604 152.504 67.9604C152.754 67.9604 153.005 68.2109 153.005 68.2109C153.005 68.4614 152.754 68.712 152.754 68.712C152.003 68.712 151.001 68.9625 150.249 69.213C149.748 69.4635 149.247 69.714 148.746 69.9645C148.495 69.9645 148.245 69.9645 148.245 69.9645Z" fill="white"/>
<path d="M199.598 95.5152C199.347 95.5152 199.348 95.5152 199.348 95.2647C199.348 95.0142 199.347 94.7637 199.598 94.7637C199.848 94.5132 200.099 94.2627 200.35 94.0122C200.6 93.5112 200.6 93.0102 200.6 92.7597C200.851 91.5072 200.85 90.5052 200.85 89.2527C200.85 89.0022 201.101 88.7517 201.352 88.7517C201.602 88.7517 201.853 89.0022 201.853 89.2527C201.853 90.5052 201.853 91.7577 201.602 93.0102C201.602 93.5112 201.352 94.0122 201.101 94.5132C200.851 94.7637 200.349 95.2647 199.598 95.5152C199.848 95.5152 199.848 95.5152 199.598 95.5152Z" fill="white"/>
<path d="M196.091 96.0164C195.84 96.0164 195.59 96.0164 195.339 96.0164C195.089 96.0164 194.838 95.7659 194.838 95.5154C194.838 95.2649 195.089 95.0144 195.339 95.0144C196.091 95.0144 197.093 95.0144 197.844 94.7639C198.095 94.7639 198.345 94.7639 198.345 95.0144C198.345 95.2649 198.345 95.5154 198.095 95.5154C197.343 95.7659 196.842 96.0164 196.091 96.0164Z" fill="white"/>
<path d="M173.295 134.594C168.786 134.594 164.277 134.594 159.768 134.594C159.017 134.594 158.516 134.093 158.516 133.341C158.516 132.59 159.017 132.089 159.768 132.089C169.287 132.339 179.057 132.339 188.576 132.089C189.327 132.089 189.828 132.59 189.828 133.341C189.828 134.093 189.327 134.594 188.576 134.594C183.566 134.594 178.556 134.594 173.295 134.594Z" fill="white"/>
<g opacity="0.1294">
<path d="M175.299 99.2733C174.548 99.5238 175.049 99.5238 175.299 99.2733C174.047 99.5238 172.544 99.2733 171.291 100.275C169.788 101.778 170.79 104.784 173.045 104.534C173.546 104.534 174.798 104.283 175.299 104.283C176.301 104.283 177.303 104.283 178.055 103.532C180.059 101.528 178.055 98.5218 175.299 99.2733Z" fill="white"/>
</g>
<path d="M112.688 59.8856H112.617C112.403 59.8285 112.332 59.7143 112.332 59.543C112.545 58.8578 112.759 58.1725 112.972 57.3731C113.043 57.2018 113.185 57.1447 113.399 57.1447C113.612 57.2018 113.683 57.316 113.683 57.4873C113.47 58.2867 113.256 58.972 113.043 59.6572C112.972 59.7714 112.83 59.8856 112.688 59.8856ZM181.438 59.4288C181.367 59.4288 181.296 59.4288 181.225 59.3717C180.585 58.8578 179.945 58.2868 179.305 57.7157C179.163 57.6015 179.234 57.4302 179.376 57.316C179.518 57.2018 179.732 57.2589 179.874 57.3731C180.442 57.9441 181.082 58.5152 181.722 58.972C181.864 59.0862 181.864 59.2575 181.722 59.3717C181.58 59.4288 181.509 59.4288 181.438 59.4288ZM177.954 56.0027C177.812 56.0027 177.741 55.9456 177.67 55.8885C177.172 55.2604 176.745 54.6323 176.319 53.8899C176.248 53.7757 176.319 53.6044 176.461 53.4902C176.603 53.4331 176.817 53.4902 176.959 53.6044C177.385 54.2896 177.812 54.9178 178.31 55.5459C178.381 55.6601 178.381 55.8314 178.167 55.9456C178.096 55.9456 178.025 56.0027 177.954 56.0027ZM113.825 55.4888C113.541 55.4317 113.47 55.3175 113.47 55.1462C113.683 54.4039 113.825 53.6615 114.038 52.9763C114.11 52.805 114.252 52.7479 114.465 52.7479C114.678 52.805 114.749 52.9192 114.749 53.0905C114.607 53.8328 114.394 54.5752 114.181 55.2604C114.181 55.4317 114.038 55.4888 113.825 55.4888ZM175.466 52.0056C175.324 52.0056 175.181 51.9485 175.11 51.8343C174.755 51.1491 174.47 50.4639 174.115 49.7215C174.044 49.5502 174.115 49.436 174.328 49.3789C174.542 49.3218 174.684 49.3789 174.755 49.5502C175.039 50.2926 175.395 50.9778 175.679 51.6059C175.75 51.7772 175.679 51.8914 175.466 51.9485C175.537 52.0056 175.537 52.0056 175.466 52.0056ZM114.892 51.1491C114.607 51.092 114.536 50.9778 114.536 50.8065C114.749 50.0642 114.892 49.3218 115.105 48.6366C115.176 48.4653 115.318 48.4082 115.531 48.4082C115.745 48.4653 115.816 48.5795 115.816 48.7508C115.603 49.4931 115.46 50.1784 115.247 50.9207C115.247 51.0349 115.105 51.1491 114.892 51.1491ZM173.617 47.7801C173.475 47.7801 173.333 47.723 173.262 47.6088C173.048 46.9807 172.764 46.3526 172.48 45.4389C172.409 45.2676 172.551 45.1534 172.693 45.0963C172.906 45.0392 173.048 45.1534 173.12 45.2676C173.404 46.1242 173.688 46.8094 173.902 47.3804C173.973 47.5517 173.831 47.6659 173.688 47.723C173.688 47.7801 173.688 47.7801 173.617 47.7801ZM116.029 46.7523H115.958C115.745 46.6952 115.674 46.581 115.674 46.4097C115.887 45.6674 116.1 44.925 116.314 44.2398C116.385 44.0685 116.527 44.0114 116.74 44.0114C116.953 44.0685 117.025 44.1827 117.025 44.354C116.811 45.0392 116.598 45.7245 116.385 46.5239C116.385 46.6952 116.242 46.7523 116.029 46.7523ZM172.124 43.4975C171.982 43.4975 171.84 43.4404 171.769 43.2691C171.555 42.6981 171.271 41.8987 170.987 41.1563C170.916 40.985 171.058 40.8708 171.2 40.8137C171.413 40.7566 171.555 40.8708 171.627 40.985C171.911 41.7845 172.195 42.5268 172.409 43.1549C172.48 43.3262 172.338 43.4404 172.195 43.4975H172.124ZM117.451 42.4697H117.38C117.167 42.4126 117.096 42.2984 117.167 42.1271C117.451 41.3848 117.735 40.6995 118.02 40.0143C118.091 39.843 118.304 39.7859 118.446 39.843C118.66 39.9001 118.731 40.0714 118.66 40.1856C118.375 40.8708 118.091 41.5561 117.807 42.2984C117.735 42.3555 117.593 42.4697 117.451 42.4697ZM170.56 39.2149C170.418 39.2149 170.276 39.1578 170.205 39.0436C169.92 38.3013 169.565 37.6161 169.28 36.9308C169.209 36.7595 169.28 36.6453 169.494 36.5882C169.707 36.5311 169.849 36.5882 169.92 36.7595C170.205 37.4448 170.56 38.13 170.844 38.8723C170.916 39.0436 170.773 39.1578 170.631 39.2149H170.56ZM119.3 38.2442C119.228 38.2442 119.229 38.2442 119.157 38.2442C119.015 38.1871 118.873 38.0158 118.944 37.9016C119.3 37.2164 119.655 36.5311 120.082 35.8459C120.153 35.7317 120.366 35.6746 120.579 35.7317C120.722 35.7888 120.793 35.9601 120.722 36.1314C120.366 36.7595 119.939 37.4448 119.584 38.13C119.513 38.1871 119.442 38.2442 119.3 38.2442ZM168.498 35.0465C168.356 35.0465 168.214 34.9894 168.214 34.8752C167.787 34.19 167.361 33.5048 166.934 32.9338C166.863 32.8195 166.863 32.6482 167.076 32.534C167.219 32.4769 167.432 32.4769 167.574 32.6482C168.001 33.2764 168.498 33.9616 168.854 34.6468C168.925 34.761 168.854 34.9323 168.712 34.9894C168.569 35.0465 168.569 35.0465 168.498 35.0465ZM121.717 34.2471C121.646 34.2471 121.575 34.2471 121.575 34.19C121.432 34.1329 121.361 33.9616 121.432 33.7903C121.93 33.1051 122.428 32.4769 122.926 31.9059C123.068 31.7917 123.281 31.7346 123.423 31.8488C123.565 31.963 123.636 32.1343 123.494 32.2485C122.997 32.8195 122.499 33.4477 122.072 34.1329C121.93 34.19 121.788 34.2471 121.717 34.2471ZM165.726 31.2207C165.583 31.2207 165.512 31.1636 165.441 31.1065C164.872 30.5355 164.304 29.9645 163.735 29.3935C163.593 29.2793 163.593 29.108 163.735 28.9938C163.877 28.8796 164.09 28.8796 164.233 28.9938C164.872 29.5648 165.441 30.1358 166.01 30.7639C166.152 30.8781 166.081 31.0494 165.939 31.1636C165.868 31.2207 165.797 31.2207 165.726 31.2207ZM124.845 30.5355C124.774 30.5355 124.703 30.5355 124.632 30.4784C124.49 30.3642 124.49 30.1929 124.561 30.0787C125.13 29.5077 125.769 28.9367 126.409 28.4227C126.551 28.3085 126.765 28.3085 126.907 28.4227C127.049 28.537 127.049 28.7083 126.907 28.8225C126.267 29.3364 125.627 29.9074 125.058 30.4784C124.987 30.4784 124.916 30.5355 124.845 30.5355ZM161.957 27.9659C161.886 27.9659 161.815 27.9659 161.744 27.9088C161.033 27.452 160.322 26.9952 159.611 26.5384C159.469 26.4242 159.398 26.2529 159.54 26.1387C159.682 26.0245 159.896 25.9674 160.038 26.0816C160.82 26.5384 161.531 26.9952 162.242 27.452C162.384 27.5662 162.384 27.7375 162.242 27.8517C162.1 27.9088 162.029 27.9659 161.957 27.9659ZM128.755 27.3949C128.684 27.3949 128.542 27.3378 128.471 27.2807C128.329 27.1665 128.4 26.9952 128.542 26.881C129.253 26.4242 130.035 25.9674 130.817 25.5677C130.959 25.5106 131.173 25.5106 131.315 25.6248C131.386 25.739 131.386 25.9103 131.244 26.0245C130.462 26.4242 129.751 26.881 129.04 27.3378C128.898 27.3378 128.827 27.3949 128.755 27.3949ZM157.407 25.3964C157.336 25.3964 157.265 25.3964 157.265 25.3393C156.483 24.9967 155.63 24.6541 154.777 24.3685C154.635 24.3114 154.492 24.1401 154.563 24.0259C154.634 23.9117 154.848 23.7975 154.99 23.8546C155.843 24.1401 156.696 24.4828 157.549 24.8254C157.692 24.8825 157.763 25.0538 157.692 25.2251C157.621 25.3393 157.549 25.3964 157.407 25.3964ZM133.377 24.9967C133.234 24.9967 133.092 24.9396 133.092 24.8254C133.021 24.7112 133.092 24.5399 133.234 24.4257C134.088 24.083 134.941 23.7975 135.794 23.512C136.007 23.4549 136.149 23.512 136.221 23.6833C136.292 23.8546 136.221 23.9688 136.007 24.0259C135.154 24.2543 134.301 24.597 133.519 24.8825C133.519 24.9967 133.448 24.9967 133.377 24.9967ZM152.288 23.6262H152.217C151.364 23.3978 150.44 23.2265 149.587 23.1123C149.373 23.1123 149.302 22.941 149.302 22.7697C149.302 22.5984 149.516 22.5413 149.729 22.5413C150.653 22.6555 151.577 22.8839 152.431 23.0552C152.644 23.1123 152.715 23.2836 152.644 23.3978C152.573 23.5691 152.431 23.6262 152.288 23.6262ZM138.567 23.4549C138.425 23.4549 138.282 23.3978 138.211 23.2265C138.14 23.0552 138.282 22.941 138.496 22.8839C139.42 22.7126 140.344 22.5413 141.268 22.4271C141.482 22.4271 141.624 22.4842 141.695 22.6555C141.695 22.8268 141.624 22.941 141.411 22.9981C140.486 23.1123 139.633 23.2265 138.709 23.4549C138.638 23.3978 138.638 23.4549 138.567 23.4549ZM146.885 22.8268C146.814 22.8268 146.814 22.8268 146.885 22.8268C145.961 22.7697 145.036 22.7697 144.112 22.7697C143.899 22.7697 143.757 22.6555 143.757 22.4842C143.757 22.3129 143.899 22.1987 144.112 22.1987C145.036 22.1416 146.032 22.1987 146.956 22.2558C147.169 22.2558 147.312 22.4271 147.312 22.5413C147.169 22.7126 147.027 22.8268 146.885 22.8268Z" fill="white"/>
<path d="M54.2864 101.106C54.1693 101.106 53.9352 100.989 53.8181 100.872C46.2062 92.44 39.6483 84.5939 34.2614 77.9189C34.0272 77.6847 34.1443 77.3334 34.2614 77.0992C38.9457 72.2978 46.2062 66.3255 52.5299 60.9386C54.872 59.0649 56.9799 57.1912 58.8536 55.6689C60.8444 53.9123 63.772 53.0926 66.9339 53.4439C71.3839 53.9123 75.7168 56.3715 78.6444 60.236C85.3194 68.7847 81.9234 76.2794 79.2299 79.0899C71.501 86.936 63.1865 94.3136 54.4036 100.989C54.6378 101.106 54.5207 101.106 54.2864 101.106ZM35.5496 77.6847C40.8193 84.1255 47.0259 91.7373 54.4036 99.8176C62.9523 93.2597 71.1496 86.1163 78.7615 78.3873C81.2207 75.811 84.2655 69.0189 78.0589 61.0557C75.2484 57.4255 71.2668 55.2004 67.051 54.732C64.1233 54.4978 61.547 55.0833 59.7904 56.7228C57.9167 58.3623 55.8089 60.1189 53.4668 62.1097C47.2602 67.1452 40.2338 73.0005 35.5496 77.6847ZM69.8615 71.5952H69.7444C69.6273 71.5952 69.5102 71.5952 69.3931 71.5952C68.8075 71.5952 68.1049 71.2439 67.6365 70.7755C66.9339 70.307 66.2312 69.4873 65.5286 68.5505C65.2944 68.1991 64.9431 67.3794 64.9431 66.4426C65.0602 65.6228 65.2944 64.9202 65.6457 64.4518C65.7628 64.3347 65.7628 64.3347 65.8799 64.2176C65.997 64.1005 65.997 63.9833 66.1141 63.8662C66.3483 63.632 66.4654 63.3978 66.8167 63.1636C67.4023 62.6952 67.9878 62.461 68.5733 62.461H68.6905C68.6905 62.461 68.6904 62.461 68.8075 62.461C70.0957 61.7583 71.8523 62.461 72.9062 63.3978C73.726 64.2176 74.3115 65.2715 74.5457 66.3255C74.6628 66.911 74.6628 67.4965 74.5457 68.082C74.5457 68.3163 74.4286 68.5505 74.3115 68.9018C74.1944 69.3702 73.9601 69.7215 73.6088 70.0728C72.9062 70.7755 71.9694 71.361 70.9154 71.5952C70.5641 71.5952 70.2128 71.5952 69.8615 71.5952ZM66.8167 64.9202C66.8167 64.9202 66.8168 65.0373 66.6997 65.0373C66.5826 65.1544 66.5825 65.1544 66.4654 65.2715C66.2312 65.6228 66.1141 66.0912 65.997 66.6768C65.997 67.0281 66.1141 67.4965 66.3484 67.9649C66.8168 68.7847 67.4023 69.4873 68.1049 69.8386C68.1049 69.8386 68.1049 69.8386 68.222 69.8386C68.5733 70.1899 69.0418 70.307 69.3931 70.4242H69.5101C69.6273 70.4242 69.6273 70.4242 69.7444 70.4242H69.8615C70.0957 70.4242 70.3299 70.4242 70.5641 70.4242C71.3839 70.307 72.2036 69.8386 72.672 69.2531C72.9062 69.0189 73.0233 68.7847 73.1405 68.5505C73.2576 68.3162 73.2575 68.1991 73.2575 67.9649C73.3746 67.4965 73.3746 67.0281 73.2575 66.5597C73.1404 65.7399 72.672 64.8031 71.9694 64.2176C71.2668 63.5149 70.0957 63.0465 69.276 63.5149C69.276 63.5149 69.2759 63.5149 69.1588 63.5149C69.0417 63.5149 69.0417 63.632 68.9246 63.632H68.6905C68.222 63.632 67.8707 63.8662 67.5194 64.1005C67.4023 64.2176 67.1681 64.4518 67.051 64.5689L66.9339 64.686C66.9339 64.8031 66.8167 64.9202 66.8167 64.9202ZM66.8167 64.5689V64.686V64.5689Z" fill="white"/>
<path d="M65.6456 84.9453C65.6456 84.9453 65.5285 84.9453 65.5285 84.8282L52.6469 69.1361C52.5298 69.019 52.6469 68.9019 52.6469 68.9019C52.764 68.7848 52.8811 68.9019 52.8811 68.9019L65.7627 84.594C65.8798 84.7111 65.7627 84.8282 65.7627 84.8282C65.7627 84.9453 65.7627 84.9453 65.6456 84.9453Z" fill="white"/>
<path d="M60.9615 88.8093C60.9615 88.8093 60.8444 88.8093 60.8444 88.6922C56.6286 83.4225 52.2956 78.1527 47.8456 73.1172C47.7285 73.0001 47.7285 72.883 47.8456 72.883C47.9627 72.7659 48.0799 72.7659 48.0799 72.883C52.5299 77.9185 56.8628 83.1883 61.0786 88.458C61.1957 88.5751 61.0786 88.6922 61.0786 88.6922C61.0786 88.8093 61.0786 88.8093 60.9615 88.8093Z" fill="white"/>
<path d="M56.6282 92.9085C56.6282 92.9085 56.5111 92.9084 56.5111 92.7913C52.1782 87.4045 47.8453 82.1348 43.3953 76.865C43.2782 76.7479 43.2782 76.6308 43.3953 76.6308C43.5124 76.5137 43.6295 76.5137 43.6295 76.6308C48.0796 81.7834 52.5296 87.1703 56.7454 92.5571C56.8625 92.6742 56.7454 92.7913 56.7454 92.7913C56.7454 92.7913 56.7453 92.9085 56.6282 92.9085Z" fill="white"/>
<path d="M90.4719 130.616C89.5351 130.616 88.4811 130.148 87.8956 129.328C87.193 128.391 86.8417 127.22 86.8417 125.581C86.8417 124.995 87.193 124.293 87.6614 123.59C87.6614 123.473 87.7785 123.473 87.7785 123.356C87.6614 123.239 87.6614 123.239 87.5443 123.122C86.7246 122.185 85.3193 120.662 85.9048 119.374C86.3732 118.32 87.8956 117.969 90.1206 118.32C90.3548 117.852 90.5891 117.383 90.7062 116.915C90.5891 116.798 90.472 116.681 90.3549 116.564C89.5351 115.861 88.0127 114.573 88.7154 113.168C89.3009 111.879 91.0575 111.411 93.1653 111.762C93.2825 111.411 93.5167 111.06 93.868 110.24C91.8772 108.718 90.9404 107.898 91.8772 105.907C92.8141 104.033 94.8048 104.268 95.7417 104.385C95.8588 104.385 96.093 104.385 96.2101 104.385C96.4443 104.268 96.6786 103.799 96.7957 103.565L98.2009 100.754C97.1469 100.286 96.2101 99.8176 95.2732 99.4662C95.1561 99.4662 95.039 99.3491 94.9219 99.1149C94.8048 98.9978 94.8048 98.7636 94.9219 98.6465C96.2101 95.836 97.4983 93.0254 98.9035 90.332C96.093 86.7017 94.9219 82.3688 95.7417 78.2702C96.5614 74.0544 99.3719 70.4241 103.119 68.5504C104.525 67.8478 106.047 67.3793 107.452 67.2622C109.443 67.1451 111.668 67.4965 114.244 68.5504C118.929 70.5412 124.198 74.757 125.018 80.7294C125.604 84.8281 123.847 89.161 120.568 91.9715C117.406 94.6649 113.19 95.6018 109.092 94.782L93.0483 128.157C92.8141 128.743 92.4627 129.445 91.7601 129.914C91.5259 130.382 90.9404 130.616 90.4719 130.616ZM88.7154 119.257C87.8956 119.257 87.3101 119.491 87.0759 119.843C86.8416 120.428 88.0127 121.833 88.4811 122.302C88.8325 122.77 89.0667 122.887 89.0667 123.122C89.0667 123.356 88.9496 123.473 88.7154 123.941C88.4811 124.293 88.0128 125.112 88.0128 125.464C88.0128 126.869 88.2469 127.806 88.8324 128.508C89.418 129.211 90.472 129.562 91.2917 129.094C91.7601 128.743 91.9943 128.274 92.2285 127.689L108.506 93.9623C108.623 93.7281 108.857 93.611 109.209 93.611C113.073 94.5478 117.172 93.611 120.1 91.1517C123.027 88.6925 124.667 84.5938 124.198 80.9636C123.496 75.4596 118.46 71.478 114.127 69.6044C111.785 68.6675 109.794 68.1991 107.921 68.3162C106.633 68.4333 105.344 68.7846 103.939 69.4872C100.543 71.2438 97.9667 74.6399 97.147 78.5044C96.3272 82.3688 97.4983 86.4675 100.309 89.8636C100.426 89.9807 100.426 90.332 100.426 90.4491C99.1377 93.0254 97.8496 95.836 96.5614 98.5294C97.4983 98.8807 98.4351 99.3491 99.4891 99.8175C99.6062 99.9346 99.7233 100.052 99.7233 100.169C99.7233 100.286 99.7233 100.52 99.7233 100.637L97.9667 104.033C97.7325 104.502 97.2641 105.321 96.5614 105.439C96.3272 105.439 96.093 105.439 95.8588 105.439C94.6877 105.321 93.6338 105.204 93.1653 106.375C92.5798 107.547 92.814 107.781 95.1562 109.537C95.3904 109.654 95.3904 110.006 95.3904 110.24C94.6877 111.879 94.5706 112.231 94.3364 112.582C94.2193 112.816 93.9851 112.933 93.6338 112.933C91.9943 112.582 90.472 112.816 90.1206 113.636C89.8864 114.222 90.8232 115.041 91.4088 115.627C91.7601 115.978 92.1114 116.212 92.2285 116.447C92.3456 116.564 92.3456 116.798 92.2285 116.915L92.1114 117.149C91.8772 117.735 91.4088 118.554 91.2917 119.023C91.1746 119.257 90.9403 119.374 90.589 119.374C89.7693 119.374 89.1838 119.257 88.7154 119.257ZM110.731 89.0438C109.209 89.0438 107.921 88.5754 107.218 88.3412C104.993 87.2873 103.471 85.5307 102.885 83.5399C102.417 81.6662 102.651 79.5583 103.588 77.4504C104.29 75.928 105.461 74.8741 106.984 74.4057C108.975 73.703 111.668 74.0544 114.127 75.3425C116.938 76.8649 119.514 80.1438 117.406 84.5938C115.884 87.8728 113.425 88.8096 111.668 89.0438C111.317 89.0438 111.082 89.0438 110.731 89.0438ZM109.326 75.1083C108.623 75.1083 108.038 75.2254 107.452 75.3425C106.164 75.6938 105.344 76.6307 104.642 77.8017C103.822 79.5583 103.588 81.432 104.056 83.0715C104.525 84.8281 105.813 86.2333 107.804 87.1702C108.389 87.4044 109.911 87.8728 111.551 87.7557C113.659 87.5215 115.415 86.2333 116.469 84.0083C118.811 79.207 114.596 76.6307 113.659 76.1623C112.254 75.4596 110.731 75.1083 109.326 75.1083Z" fill="white"/>
<path d="M112.839 77.3332C112.722 77.3332 112.722 77.3332 112.605 77.3332C112.371 77.2161 112.136 76.8648 112.371 76.6306C114.01 73.1174 114.127 69.0187 112.722 65.7398C111.199 62.2266 108.038 59.6503 104.407 59.1819C103.119 59.0648 101.714 59.1819 100.309 59.299C99.489 59.4161 98.5521 59.4161 97.6152 59.5332C95.8586 59.5332 92.6968 59.299 91.0574 56.8398C90.5889 56.1371 90.3547 55.4345 90.0034 54.7319C89.7692 54.0293 89.535 53.4437 89.1837 52.8582C87.6613 50.6332 84.031 50.6332 81.6889 52.0385C79.2297 53.5608 77.8245 56.2543 76.3021 58.9477L76.185 59.0648C74.7797 61.7582 73.3745 64.6858 70.7981 66.5595C70.5639 66.7937 70.2126 66.6766 69.9784 66.4424C69.7442 66.2082 69.8612 65.8569 70.0955 65.6227C72.4376 63.8661 73.8429 61.1727 75.131 58.5964L75.2481 58.4793C76.7705 55.5516 78.2929 52.7411 80.9863 51.1016C83.7968 49.345 88.0126 49.345 90.0034 52.2727C90.4718 52.9753 90.7061 53.6779 90.9403 54.3806C91.1745 55.0832 91.4087 55.6687 91.8771 56.2543C93.2824 58.245 96.3271 58.4793 97.4981 58.4793C98.3179 58.4793 99.2547 58.3622 100.074 58.2451C101.48 58.1279 103.002 58.0108 104.407 58.1279C108.389 58.5964 112.019 61.4069 113.659 65.3885C115.181 69.0187 115.064 73.2345 113.307 77.2161C113.307 77.2161 113.073 77.3332 112.839 77.3332Z" fill="white"/>
<g opacity="0.1294">
<path d="M95.8587 77.5673C95.7416 77.8015 95.7416 78.0357 95.8587 78.1528C95.9758 78.6213 96.5613 78.8555 97.0298 78.7384C97.6153 78.6213 98.2008 76.7476 98.435 76.5134C98.5521 76.2792 99.2548 75.5765 99.2548 75.4594C99.3719 75.3423 99.489 75.2252 99.7232 75.1081C100.192 74.5226 100.777 74.0542 101.246 73.4686C101.948 72.8831 102.651 72.4147 103.353 71.9462C103.353 71.9462 103.471 71.9463 103.471 71.8291C103.588 71.8291 103.588 71.712 103.705 71.712C106.398 70.6581 107.804 70.0726 110.263 70.0726C109.56 70.0726 110.614 70.0726 111.082 70.0726C111.082 70.0726 111.082 70.0726 111.2 70.0726C112.019 70.0726 112.956 70.3068 113.659 70.3068C114.947 70.0726 114.947 68.1989 113.659 67.9647C111.668 67.7305 109.794 67.262 107.803 67.7305C106.047 68.0818 104.29 68.7844 102.651 69.7212C101.831 70.1897 101.128 70.7752 100.426 71.3607C99.7232 71.9462 99.0206 72.6489 98.318 73.3515C98.0837 73.5857 97.8495 73.8199 97.7324 74.1713C97.1469 74.8739 96.6785 75.6936 96.2101 76.5134C96.093 76.8647 95.9758 77.216 95.8587 77.5673Z" fill="white"/>
</g>
<g opacity="0.1294">
<path d="M35.4323 78.504C36.6033 79.2066 36.9546 78.3869 37.7744 77.8014C37.3059 78.1527 37.8915 77.8014 38.0086 77.5672C38.1257 77.45 38.7112 76.9816 39.4139 76.279C43.981 72.5316 47.0257 69.604 50.656 66.5592C52.7639 64.5685 56.277 61.875 57.5652 60.5869C58.9705 59.2987 60.4928 57.7763 62.8349 56.4882C63.4205 56.254 64.1231 56.0198 64.7086 55.7856C64.8257 55.7856 64.9428 55.7855 65.0599 55.6684C65.177 55.6684 65.177 55.6684 65.2941 55.6684C67.0507 55.6684 67.1678 53.2092 65.4112 53.2092C64.3573 53.3263 63.3033 53.6777 62.3665 54.2632C62.4836 54.2632 62.6007 54.1461 62.6007 54.1461C61.0784 54.7316 59.7902 55.6684 58.502 56.7224C56.8626 58.0105 55.3401 59.7671 54.2862 60.5869C51.9441 62.3435 51.1243 63.3974 49.0165 65.0369C46.9086 66.7935 44.9178 68.55 42.8099 70.3066C40.9362 71.9461 38.9454 73.4685 37.0718 75.225C36.7204 75.5764 36.3691 75.9277 35.9007 76.279C35.6665 76.5132 35.4323 76.6303 35.3152 76.8645C34.8468 77.45 34.9638 78.1527 35.4323 78.504Z" fill="white"/>
</g>
<path d="M41.1319 29.6031L42.1095 31.5583C42.2428 31.8249 42.5983 32.0915 42.8945 32.1359L44.6645 32.4322C45.7976 32.6247 46.0642 33.4394 45.2496 34.254L43.8721 35.6315C43.6425 35.8611 43.5092 36.3128 43.5832 36.6387L43.9758 38.3495C44.2868 39.6973 43.5684 40.2231 42.3761 39.5196L40.7172 38.5346C40.4135 38.3569 39.9248 38.3569 39.6211 38.5346L37.9622 39.5196C36.7698 40.2231 36.0515 39.6973 36.3625 38.3495L36.755 36.6387C36.8291 36.3202 36.6958 35.8685 36.4662 35.6315L35.0887 34.254C34.2741 33.4394 34.5407 32.6173 35.6738 32.4322L37.4438 32.1359C37.74 32.0841 38.0955 31.8249 38.2288 31.5583L39.2064 29.6031C39.7322 28.5441 40.6061 28.5441 41.1319 29.6031Z" stroke="white" stroke-width="1.11088" stroke-linecap="round" stroke-linejoin="round"/>
</svg>