<svg width="277" height="175" viewBox="0 0 277 175" fill="none" xmlns="http://www.w3.org/2000/svg">
<rect opacity="0.5" x="22.9523" y="27.9607" width="237.048" height="138.868" rx="18.5747" fill="#B8D4F7" fill-opacity="0.5"/>
<path d="M2.89177 10.8921L1.51331 107.845L76.5635 108.151L77.7888 11.3516L2.89177 10.8921Z" fill="white"/>
<path d="M76.5634 108.916L1.36008 108.61C1.20692 108.61 0.90061 108.457 0.90061 108.457C0.747446 108.304 0.747437 108.151 0.747437 107.997L2.1259 11.0449C2.1259 10.5854 2.43223 10.2791 2.89172 10.2791L77.7888 10.7385C77.9419 10.7385 78.2483 10.8917 78.2483 10.8917C78.4014 11.0449 78.4014 11.1981 78.4014 11.3512L77.1761 108.151C77.3293 108.61 77.0229 108.916 76.5634 108.916ZM2.1259 107.079L75.7976 107.232L77.023 11.9639L3.65754 11.5044L2.1259 107.079Z" fill="#636464"/>
<path d="M99.5382 7.98147C100.151 6.44983 100.764 5.07137 101.376 3.53973C101.683 2.77391 101.989 2.16126 102.601 1.70177C103.214 1.39545 103.98 1.39544 104.746 1.5486C105.665 1.70176 106.584 2.0081 106.89 2.77391C107.196 3.53973 106.737 4.30554 106.277 4.9182C105.358 6.44983 104.286 7.98147 103.214 9.51311C103.061 9.81944 102.755 10.1258 102.448 10.4321C102.142 10.5853 101.836 10.5853 101.529 10.5853C100.764 10.5853 99.9977 10.2789 99.5382 9.66628C99.0787 9.20679 99.0787 8.2878 99.5382 7.98147Z" fill="white"/>
<path d="M101.53 11.504C100.457 11.504 99.3852 11.0445 98.9257 10.1255C98.4662 9.51286 98.3131 8.74704 98.4663 8.13438C98.6194 7.82806 98.7726 7.52173 98.9257 7.36857L100.611 3.23315C100.917 2.6205 101.376 1.54834 102.295 1.08885C103.214 0.629355 104.133 0.629359 104.899 0.782523C106.278 1.08885 107.197 1.54835 107.656 2.46733C108.116 3.69264 107.35 4.76478 107.043 5.37743C106.124 6.90907 105.052 8.44071 103.98 9.97234C103.674 10.2787 103.367 10.7382 102.908 11.0445C102.448 11.504 101.989 11.504 101.53 11.504ZM99.9979 8.59388C99.9979 8.74704 99.9979 9.05337 100.151 9.3597C100.457 9.81919 100.917 9.97234 101.53 9.97234C101.836 9.97234 101.989 9.97236 102.142 9.81919C102.295 9.66603 102.602 9.35969 102.755 9.20652C103.827 7.67489 104.899 6.14325 105.818 4.61161C106.124 3.99896 106.431 3.53947 106.278 3.07998C106.124 2.77365 105.665 2.46732 104.746 2.31416C104.286 2.161 103.521 2.16101 103.061 2.46733C102.602 2.77366 102.295 3.23315 102.142 3.99897L100.304 8.44071C100.151 8.44071 99.9979 8.59388 99.9979 8.59388Z" fill="#636464"/>
<path d="M81.464 39.2268C77.0223 48.1103 73.4995 56.228 68.4451 66.0304C67.9856 67.4089 67.373 68.6342 67.0666 70.0127C66.7603 71.3912 66.7603 72.9228 67.5261 74.1481C68.2919 75.3734 69.8235 76.1393 71.202 75.6798C72.2742 75.2203 73.04 74.1481 73.6526 73.2291C79.4729 63.2735 84.6804 52.552 90.0412 42.2901L81.464 39.2268Z" fill="white"/>
<path d="M70.4368 76.5992C69.0584 76.5992 67.8331 75.8334 67.0673 74.6081C66.1483 73.0764 66.1482 71.2385 66.4546 70.0132C66.6077 68.941 67.0672 68.022 67.3735 67.1031C67.5267 66.6436 67.6799 66.3372 67.8331 65.8777C67.8331 65.8777 67.8331 65.8778 67.8331 65.7246C70.4369 60.6702 72.5811 56.0753 74.7254 51.4804C76.7166 47.1918 78.7077 43.0564 80.852 38.7678C81.0051 38.4615 81.4646 38.3083 81.7709 38.4615L90.3481 41.5247C90.5013 41.5247 90.6545 41.6779 90.8076 41.9842C90.9608 42.1374 90.8076 42.4437 90.8076 42.5969C89.276 45.507 87.7443 48.5703 86.2127 51.4804C82.3836 58.8322 78.5545 66.3372 74.4191 73.5359C73.8064 74.4549 73.0406 75.8334 71.6622 76.2929C71.2027 76.446 70.8963 76.5992 70.4368 76.5992ZM69.2115 66.4904C69.0584 66.7967 68.9052 67.2562 68.752 67.5625C68.4457 68.4815 68.1394 69.4005 67.8331 70.3195C67.6799 71.2385 67.5267 72.7701 68.2925 73.8422C68.752 74.7612 69.9773 75.3739 71.0495 75.0676C71.9685 74.7612 72.428 73.8423 73.0406 72.9233C77.176 65.7246 81.1583 58.2196 84.8342 50.8677C86.2127 48.2639 87.5912 45.507 88.9696 42.75L81.7709 40.2994C79.6266 44.4348 77.7887 48.2639 75.9507 52.3993C73.9596 56.6879 71.8153 61.436 69.2115 66.4904Z" fill="#636464"/>
<path d="M90.347 44.5877C88.6622 43.8219 82.3825 40.9118 79.7787 39.227C82.9951 33.8663 84.0673 30.4966 86.8242 24.8296C87.8964 22.6853 92.0318 14.874 92.7976 13.1892C96.1672 6.60313 100.915 7.98161 103.519 9.81957C108.114 13.036 102.906 19.3157 101.834 21.1537C97.5457 29.1182 94.0229 35.8574 90.347 44.5877Z" fill="#ACD4F7"/>
<path d="M90.3476 45.3542C90.1944 45.3542 90.1944 45.3542 90.0413 45.3542C88.3565 44.5884 82.0767 41.6783 79.3198 39.8403C79.0135 39.6872 78.8603 39.2277 79.0135 38.7682C81.0046 35.3986 82.0767 32.948 83.4552 30.0379C84.221 28.3531 84.9868 26.5151 86.059 24.3708C86.6716 22.9923 88.6628 19.4696 90.0413 16.5595C90.9602 14.8747 91.726 13.343 92.0324 12.7304C93.564 9.82026 95.402 8.13547 97.5463 7.52282C100.303 6.91016 102.754 8.13547 103.826 9.05445C108.421 12.2709 104.592 17.9379 103.06 20.3886C102.754 20.848 102.601 21.1544 102.447 21.3075C97.8526 29.7315 94.483 36.3176 90.8071 44.7416C90.6539 44.8947 90.6539 45.0479 90.3476 45.2011C90.5007 45.3542 90.3476 45.3542 90.3476 45.3542ZM80.6983 38.9214C83.302 40.453 87.897 42.5973 89.8881 43.6694C93.4108 35.3986 96.7804 28.8126 101.222 20.6949C101.375 20.3886 101.682 20.0822 101.835 19.6227C104.132 16.1 105.97 12.424 103.06 10.4329C101.988 9.6671 100.15 8.59495 97.8526 9.2076C96.0146 9.66709 94.483 11.0456 93.2577 13.6494C92.9513 14.262 92.1855 15.7937 91.2665 17.4785C89.7349 20.3886 87.8969 23.9113 87.2843 25.2898C86.2121 27.4341 85.4463 29.1189 84.6805 30.8037C83.6084 33.4075 82.3831 35.8581 80.6983 38.9214Z" fill="#636464"/>
<path d="M96.4747 43.0567C95.862 43.0567 95.4025 42.9036 94.943 42.5972C93.7177 41.8314 93.2583 39.9934 93.7178 38.4618C94.1772 37.0833 95.0962 36.0112 95.862 35.0922L103.52 26.2087C105.052 24.3708 106.584 22.5328 107.656 20.5417C108.728 18.2442 109.034 15.9467 108.421 14.1088C107.809 11.9645 105.818 10.2797 103.827 10.2797C103.367 10.2797 103.061 9.97336 103.061 9.51387C103.061 9.05437 103.367 8.74805 103.827 8.74805C106.43 8.90121 108.881 10.8924 109.8 13.6493C110.413 15.9468 110.106 18.5505 108.881 21.1543C107.809 23.4518 106.124 25.2897 104.592 27.1277L96.9342 36.0112C96.1684 36.9302 95.4025 37.8492 95.0962 38.9213C94.7899 39.8403 94.943 40.9124 95.7089 41.5251C96.0152 41.6782 96.6279 41.8314 96.9342 41.5251C97.0874 41.3719 97.3937 41.2187 97.3937 40.9124C97.3937 40.4529 97.8532 40.1466 98.1595 40.2998C98.619 40.2998 98.9253 40.7593 98.7721 41.0656C98.619 41.8314 98.1595 42.4441 97.3937 42.9035C97.2405 42.9035 96.781 43.0567 96.4747 43.0567Z" fill="#636464"/>
<path d="M66.7606 80.7339C66.6075 80.7339 66.6074 80.7339 66.4543 80.7339C66.148 80.5807 65.9948 80.1212 66.148 79.8149L68.2923 75.3731C68.4454 75.0668 68.9049 74.7605 69.2113 75.0668C69.5176 75.22 69.6707 75.6795 69.5176 75.9858L67.3733 80.4276C67.3733 80.5807 67.067 80.7339 66.7606 80.7339Z" fill="#636464"/>
<path d="M63.544 33.1019C47.4618 32.6424 31.0733 32.4893 14.9912 32.7956C14.5317 32.7956 14.2253 32.4893 14.2253 32.0298C14.2253 31.5703 14.5317 31.264 14.9912 31.264C31.0733 30.9576 47.4618 30.9576 63.544 31.5703C64.0035 31.5703 64.3098 31.8766 64.3098 32.3361C64.3098 32.7956 64.0035 33.1019 63.544 33.1019Z" fill="#636464"/>
<path d="M44.3987 48.8758C34.2899 48.8758 24.3343 48.5695 14.3786 48.11C13.9191 48.11 13.6128 47.8037 13.6128 47.3442C13.6128 46.8847 13.9191 46.5784 14.3786 46.5784C30.0013 47.3442 45.9304 47.4973 61.5531 47.0378C62.0125 47.0378 62.3189 47.3442 62.3189 47.8037C62.3189 48.2632 62.0125 48.5695 61.5531 48.5695C56.0392 48.7226 50.2189 48.8758 44.3987 48.8758Z" fill="#636464"/>
<path d="M44.5518 64.6516C34.2899 64.6516 24.0279 64.4985 13.7659 64.039C13.3064 64.039 13.0001 63.7326 13.0001 63.2731C13.0001 62.8137 13.3064 62.5073 13.7659 62.5073C29.0823 63.12 44.5518 63.2731 59.8682 62.9668C60.3277 62.9668 60.634 63.2731 60.634 63.7326C60.634 64.1921 60.3277 64.4985 59.8682 64.4985C54.8138 64.6516 49.6062 64.6516 44.5518 64.6516Z" fill="#636464"/>
<path d="M30.6143 79.203C24.7941 79.203 18.9739 79.0499 13.1536 78.8967C12.6941 78.8967 12.3878 78.5904 12.3878 78.1309C12.3878 77.6714 12.6941 77.3651 13.1536 77.3651C25.7131 77.8246 38.5788 77.8246 51.1382 77.2119C51.5977 77.2119 51.904 77.5182 51.904 77.9777C51.904 78.4372 51.5977 78.7436 51.1382 78.7436C44.399 79.0499 37.5066 79.203 30.6143 79.203Z" fill="#636464"/>
<path d="M12.5415 92.6811C12.082 92.6811 11.7756 92.3748 11.7756 91.9153C11.7756 91.4558 12.082 91.1495 12.5415 91.1495L60.9412 90.9963C61.4007 90.9963 61.707 91.3027 61.707 91.7622C61.707 92.2216 61.4007 92.528 60.9412 92.528L12.5415 92.6811Z" fill="#636464"/>
<g opacity="0.1294">
<path d="M86.8253 42.9044C85.7531 42.2918 84.8342 41.6791 83.762 41.3728C83.762 41.3728 83.762 41.3728 83.6088 41.3728C82.9962 41.0665 82.3835 40.7601 81.7708 40.607C81.4645 40.4538 81.0051 40.3007 80.6987 40.4538C79.4734 40.7602 79.3202 42.4449 80.3924 43.0576C81.3114 43.5171 82.2304 43.8234 82.9962 44.2829C84.2215 45.2019 85.6 45.9677 86.9785 46.5804C86.8253 46.5804 86.6721 46.4272 86.5189 46.4272C87.5911 47.0399 89.1227 46.8867 89.2759 45.3551C89.5822 43.8234 87.8974 43.3639 86.8253 42.9044Z" fill="#636464"/>
</g>
<g opacity="0.1294">
<path d="M105.205 11.9639C104.745 10.7386 102.754 11.0449 102.754 12.4234C102.754 14.7208 100.763 17.6309 98.9251 21.0005C97.3935 23.7575 95.8618 26.6676 94.4834 29.5777C93.2581 32.1815 91.8796 34.6321 90.6543 37.2359C90.0416 38.6144 89.429 39.8397 88.8163 41.065C88.51 41.984 87.8973 43.2093 88.8163 43.8219C89.429 44.2814 90.1948 44.2814 90.8075 43.6688C91.4201 42.9029 91.5732 41.984 91.8796 41.065C91.8796 41.065 91.8796 40.9118 92.0327 40.7587C93.1049 38.6144 94.0239 36.4701 95.2492 34.3258C98.3125 28.0461 102.142 22.2259 104.745 15.6398C105.052 14.874 105.205 13.955 105.358 13.1892C105.205 12.8829 105.358 12.4234 105.205 11.9639Z" fill="#636464"/>
</g>
<g opacity="0.1294">
<path d="M77.9411 35.8573C78.2474 30.4966 77.6348 24.9827 77.4816 19.6219C77.4816 17.6308 77.1753 15.6397 77.1753 13.4954C77.1753 12.7296 77.1753 11.9638 76.5626 11.3511C75.6437 10.279 73.6526 11.0448 73.8057 12.5764C74.2652 17.1713 74.2652 21.7662 74.4184 26.5143C74.7247 33.1003 74.5715 39.8395 74.4184 46.4256C74.4184 47.0382 74.2652 47.6509 74.5715 48.1104C74.8779 48.8762 75.6437 49.1825 76.4095 49.0294C77.6348 48.723 77.6348 47.3446 77.6348 46.4256C77.6348 45.2003 77.9411 44.1281 77.9411 42.9028C77.9411 40.6054 77.9411 38.3079 77.9411 35.8573Z" fill="#636464"/>
</g>
<g opacity="0.1294">
<path d="M76.8693 88.3938C76.8693 84.7179 76.8693 81.042 77.1756 77.5192C77.3288 75.9876 77.0224 74.4559 77.1756 72.9243C77.3288 72.1585 77.6351 71.3927 77.6351 70.6269C77.482 68.9421 74.8782 68.6357 74.4187 70.3205C74.1123 71.0863 73.9592 71.8522 73.806 72.618C73.3465 73.0775 73.1934 73.6901 72.7339 74.1496C72.5807 74.3028 72.4276 74.4559 72.2744 74.6091C72.1212 74.6091 72.1212 74.6091 71.968 74.6091C70.1301 74.6091 68.7516 75.8344 69.5174 77.6724C70.2832 78.8977 71.9681 78.8977 73.1934 78.4382C73.0402 80.7356 73.0402 83.0331 73.1934 85.3305C73.1934 87.1685 73.0402 88.8533 73.1934 90.6913C73.1934 93.4482 73.6529 96.2052 73.806 99.1153C73.806 102.025 73.6528 102.638 73.4997 105.242C73.4997 105.701 73.1933 106.161 73.3465 106.773C73.3465 107.846 74.725 108.458 75.4908 107.846C75.7972 107.692 75.9503 107.386 76.1035 107.233C76.1035 107.08 76.2567 106.927 76.2567 106.927V107.08C76.7161 106.161 76.8693 105.242 77.0225 104.17C77.3288 103.251 77.3288 99.7279 77.3288 97.2773C77.0224 94.3672 76.8693 91.4571 76.8693 88.3938Z" fill="#636464"/>
</g>
<path d="M7.79267 25.5963C7.63951 25.5963 7.48633 25.4431 7.48633 25.29L7.94585 15.028C7.94585 14.8748 8.09898 14.7217 8.25215 14.7217C8.40531 14.7217 8.55849 14.8748 8.55849 15.028L8.09902 25.29C8.09902 25.5963 7.94584 25.5963 7.79267 25.5963Z" fill="#636464"/>
<path d="M11.6216 21.0013C11.4685 21.0013 11.3153 20.8481 11.3153 20.6949C11.1621 18.5506 11.3153 16.5595 11.4684 14.4152C11.4684 14.2621 11.6216 14.1089 11.7748 14.1089C11.928 14.1089 12.0811 14.2621 12.0811 14.4152C11.9279 16.4064 11.928 18.5507 11.928 20.5418C11.928 20.8481 11.7748 21.0013 11.6216 21.0013Z" fill="#636464"/>
<path d="M71.815 22.8394C71.6618 22.8394 71.5087 22.6863 71.5087 22.5331L71.9681 15.3344C71.9681 15.1812 72.1213 15.0281 72.2745 15.0281C72.4276 15.0281 72.5808 15.1812 72.5808 15.3344L72.1213 22.5331C72.1213 22.6863 71.9681 22.8394 71.815 22.8394Z" fill="#636464"/>
<path d="M69.0584 18.8568C68.9053 18.8568 68.7521 18.7036 68.7521 18.5505V15.1809C68.7521 15.0277 68.9053 14.8745 69.0584 14.8745C69.2116 14.8745 69.3648 15.0277 69.3648 15.1809V18.5505C69.3648 18.7036 69.2116 18.8568 69.0584 18.8568Z" fill="#636464"/>
<path d="M5.64851 105.547C5.49535 105.547 5.34216 105.394 5.34216 105.241V99.4206C5.34216 99.2674 5.49535 99.1143 5.64851 99.1143C5.80167 99.1143 5.95481 99.2674 5.95481 99.4206V105.241C5.95481 105.394 5.80167 105.547 5.64851 105.547Z" fill="#636464"/>
<path d="M8.55786 105.701C8.4047 105.701 8.25151 105.548 8.25151 105.395L8.09839 102.638C8.09839 102.485 8.25152 102.332 8.40469 102.332C8.55785 102.332 8.71103 102.485 8.71103 102.638L8.86421 105.395C8.86421 105.548 8.71102 105.701 8.55786 105.701Z" fill="#636464"/>
<path d="M71.5091 106.161C71.3559 106.161 71.2028 106.008 71.2028 105.855L71.5091 96.9711C71.5091 96.818 71.6622 96.6648 71.8154 96.6648C71.9686 96.6648 72.1217 96.818 72.1217 96.9711L71.8154 105.855C71.6622 106.008 71.6623 106.161 71.5091 106.161Z" fill="#636464"/>
<path d="M69.0584 105.547C68.9053 105.547 68.7521 105.394 68.7521 105.241L68.9052 101.871C68.9052 101.718 69.0584 101.565 69.2116 101.565C69.3648 101.565 69.5179 101.718 69.5179 101.871L69.3648 105.241C69.3648 105.547 69.2116 105.547 69.0584 105.547Z" fill="#636464"/>
<path d="M66.1477 106.314C65.9945 106.314 65.8413 106.161 65.8413 106.007L65.9945 103.557C65.9945 103.404 66.1477 103.25 66.3008 103.25C66.454 103.25 66.6071 103.404 66.6071 103.557L66.454 106.007C66.3008 106.161 66.3008 106.314 66.1477 106.314Z" fill="#636464"/>
<g opacity="0.9">
<path d="M152.607 106.332C146.572 105.594 140.291 109.04 137.335 114.333C134.38 119.625 134.503 126.518 137.459 131.934C138.813 134.519 140.907 136.734 143.493 137.965C145.71 138.95 148.173 139.073 150.636 139.196C152.483 139.196 154.454 139.196 156.178 138.457C157.656 137.842 158.887 136.857 159.996 135.749C164.429 131.318 166.523 124.672 165.168 118.641C163.814 112.363 158.641 106.948 152.607 106.332Z" fill="white"/>
<path d="M151.377 139.688C151.131 139.688 150.885 139.688 150.638 139.688C148.298 139.688 145.712 139.565 143.372 138.457C140.17 136.98 138.2 134.272 136.968 132.18C133.889 126.518 133.766 119.379 136.845 114.087C140.047 108.425 146.574 104.978 152.732 105.717C158.89 106.455 164.309 111.748 165.91 118.394C167.264 124.426 165.171 131.441 160.491 136.119C159.136 137.473 157.781 138.457 156.427 138.95C154.702 139.565 152.978 139.688 151.377 139.688ZM151.008 106.825C145.835 106.825 140.54 109.902 137.83 114.702C134.998 119.748 135.121 126.395 137.953 131.688C138.939 133.657 140.786 136.119 143.742 137.473C145.958 138.457 148.422 138.58 150.638 138.58C152.363 138.58 154.333 138.58 155.934 137.965C157.166 137.473 158.274 136.611 159.505 135.38C163.816 130.949 165.786 124.426 164.555 118.764C163.2 112.61 158.028 107.686 152.486 107.071C151.993 106.825 151.5 106.825 151.008 106.825Z" fill="#D1D6DD"/>
<path d="M150.393 155.81C150.024 155.81 149.778 155.564 149.778 155.195L149.655 114.946C149.655 114.577 149.901 114.331 150.27 114.331C150.64 114.331 150.886 114.577 150.886 114.946L151.009 155.195C150.886 155.564 150.64 155.81 150.393 155.81Z" fill="#D1D6DD"/>
<path d="M150.39 131.809C150.267 131.809 150.267 131.809 150.144 131.809C149.897 131.686 149.651 131.316 149.774 131.07C151.252 127.624 153.715 124.547 156.917 122.454C157.163 122.331 157.533 122.331 157.779 122.577C157.902 122.824 157.902 123.193 157.656 123.439C154.7 125.408 152.36 128.239 151.006 131.563C150.759 131.686 150.636 131.809 150.39 131.809Z" fill="#D1D6DD"/>
<path d="M138.932 121.225C138.809 121.225 138.809 121.102 138.686 121.102C138.44 119.256 138.932 117.41 140.041 115.933C140.164 115.81 140.287 115.81 140.287 115.933C140.41 116.056 140.41 116.179 140.287 116.179C139.302 117.533 138.809 119.379 139.056 120.979C139.056 121.102 139.056 121.225 138.932 121.225Z" fill="#D1D6DD"/>
<path d="M141.279 121.593C141.156 121.593 141.033 121.47 141.033 121.347L141.525 118.516C141.525 118.393 141.648 118.393 141.772 118.393C141.895 118.393 141.895 118.516 141.895 118.639L141.402 121.47C141.525 121.47 141.402 121.593 141.279 121.593Z" fill="#D1D6DD"/>
<path d="M157.653 134.025C157.653 134.025 157.53 134.025 157.53 133.902C157.406 133.779 157.53 133.656 157.53 133.656C158.884 132.671 159.87 131.317 160.485 129.717C160.485 129.594 160.608 129.594 160.732 129.594C160.855 129.594 160.855 129.717 160.855 129.84C160.116 131.44 159.131 132.917 157.653 134.025Z" fill="#D1D6DD"/>
<g opacity="0.1294">
<path d="M161.598 131.441C161.105 131.441 160.859 131.81 160.489 132.18C159.874 132.795 159.381 133.411 158.765 134.026C158.15 134.518 156.918 135.38 155.686 135.995C155.563 136.118 155.44 136.118 155.317 136.118C154.824 136.241 154.209 136.488 153.716 136.488H153.593C153.47 136.488 153.47 136.488 153.47 136.488C151.622 136.734 149.898 136.365 146.45 135.626C145.095 135.257 145.588 135.38 144.356 134.888C144.11 134.888 143.371 134.518 143.125 134.395C141.893 133.78 141.277 133.411 140.785 132.918C140.292 132.549 140.046 132.057 139.553 131.81C138.445 131.318 137.46 132.795 138.322 133.657C139.307 134.641 140.415 135.503 141.647 136.118C141.893 136.241 143.002 136.734 143.371 136.857C144.849 137.595 145.095 137.842 146.327 138.211C147.558 138.703 148.79 138.949 150.021 139.072C151.253 139.319 152.484 139.319 153.716 139.072C154.701 138.826 155.563 138.457 156.425 137.965C158.15 137.103 159.874 136.118 161.105 134.641C161.598 134.149 162.091 133.534 162.583 133.041C162.829 132.795 162.829 132.549 162.829 132.303C162.706 131.934 162.214 131.441 161.598 131.441Z" fill="#D1D6DD"/>
</g>
</g>
<path d="M103 134.788L102.198 166.496H156.887L157.51 134.877L103 134.788Z" fill="white"/>
<path d="M156.883 166.942H102.194C102.105 166.942 101.927 166.853 101.927 166.853C101.838 166.763 101.838 166.674 101.838 166.496L102.64 134.788C102.64 134.52 102.818 134.342 103.085 134.342L157.596 134.431C157.685 134.431 157.863 134.52 157.863 134.52C157.952 134.609 157.952 134.699 157.952 134.877L157.328 166.496C157.328 166.674 157.15 166.942 156.883 166.942ZM102.64 166.051H156.438L157.061 135.322L103.441 135.233L102.64 166.051Z" fill="#A3AEBB"/>
<path d="M125.524 166.497C109.937 166.497 93.6374 166.765 78.0503 166.586C78.0503 150.999 77.8721 134.967 76.9814 117.598C91.2325 117.242 108.868 117.064 126.682 116.886C125.702 134.254 124.723 155.007 125.524 166.497Z" fill="white"/>
<path d="M86.6067 167.031C83.7565 167.031 80.9062 167.031 78.056 167.031C77.7888 167.031 77.6107 166.853 77.6107 166.586C77.6107 152.78 77.5216 136.124 76.5419 117.598C76.5419 117.509 76.5418 117.331 76.6309 117.242C76.72 117.153 76.8091 117.063 76.8981 117.063C90.2585 116.707 106.202 116.618 123.125 116.44H126.599C126.688 116.44 126.866 116.529 126.955 116.618C127.044 116.707 127.044 116.796 127.044 116.974C126.153 133.898 125.085 154.918 125.975 166.497C125.975 166.586 125.975 166.764 125.886 166.853C125.797 166.942 125.708 166.942 125.53 167.031C118.85 167.031 111.991 167.031 105.222 167.12C99.1655 167.031 92.8415 167.031 86.6067 167.031ZM78.5014 166.141C87.3192 166.23 96.4043 166.141 105.311 166.052C111.813 166.052 118.583 165.962 125.085 165.962C124.283 154.383 125.352 133.898 126.153 117.242H123.125C106.38 117.42 90.6148 117.509 77.3435 117.865C78.3232 136.213 78.5014 152.513 78.5014 166.141Z" fill="#A3AEBB"/>
<path d="M134.2 120.626C111.488 120.626 91.0907 120.982 70.5157 120.982C80.4915 110.294 91.2689 98.2697 101.423 87.6704C112.022 98.0915 122.265 110.205 134.2 120.626Z" fill="white"/>
<path d="M70.5086 121.517C70.3305 121.517 70.1524 121.428 70.1524 121.25C70.0633 121.071 70.1524 120.893 70.2414 120.804C73.9824 116.796 77.9014 112.521 81.7314 108.335C88.1444 101.298 94.8245 94.0835 101.148 87.4924C101.238 87.4033 101.327 87.4033 101.416 87.4033C101.505 87.4033 101.683 87.4033 101.683 87.4924C105.78 91.5005 109.788 95.6868 113.974 100.14C120.477 106.999 127.157 114.035 134.371 120.448C134.549 120.537 134.549 120.715 134.46 120.893C134.371 121.071 134.193 121.161 134.015 121.161C122.347 121.161 111.302 121.25 100.614 121.339C90.3711 121.428 80.4844 121.517 70.5086 121.517ZM101.416 88.3831C95.0917 94.8851 88.5897 102.011 82.2658 108.869C78.703 112.788 74.9621 116.796 71.4884 120.626C81.197 120.626 90.6383 120.537 100.703 120.448C111.035 120.359 121.723 120.27 132.946 120.27C125.999 114.124 119.586 107.266 113.351 100.675C109.254 96.3102 105.424 92.3021 101.416 88.3831Z" fill="#A3AEBB"/>
<path d="M109.768 149.752C104.602 149.752 99.4364 149.663 94.2703 149.663C93.7359 144.408 93.4687 139.242 93.5578 133.987C98.9019 133.719 104.246 133.719 109.947 133.987C110.036 139.153 110.036 144.14 109.768 149.752Z" fill="#B8D4F7"/>
<path d="M109.779 150.197L94.281 150.108C94.1028 150.108 93.8356 149.93 93.8356 149.752C93.2122 143.784 93.034 138.796 93.1231 134.075C93.1231 133.808 93.3012 133.63 93.5684 133.63C98.9126 133.363 104.257 133.363 109.957 133.63C110.224 133.63 110.403 133.808 110.403 134.075C110.492 139.063 110.403 144.051 110.224 149.841C110.224 150.019 110.046 150.197 109.779 150.197ZM94.7263 149.217L109.334 149.306C109.512 143.873 109.601 139.152 109.512 134.432C104.079 134.165 99.0016 134.165 94.0138 134.432C94.0138 138.885 94.1919 143.606 94.7263 149.217Z" fill="#006FFD"/>
<path d="M104.372 106.732C102.59 105.575 99.9181 106.109 98.6711 107.89C97.4242 109.672 97.9586 112.433 99.6509 113.68C101.343 114.927 104.104 114.482 105.351 112.789C106.687 111.008 106.509 108.158 104.372 106.732Z" fill="white"/>
<path d="M102.044 114.838C101.153 114.838 100.173 114.57 99.4607 114.036C97.5011 112.611 96.9667 109.672 98.3918 107.623C99.7279 105.663 102.667 105.04 104.627 106.376C105.696 107.088 106.319 108.157 106.586 109.404C106.853 110.651 106.497 112.076 105.785 113.056C104.894 114.214 103.469 114.838 102.044 114.838ZM102.222 106.554C100.975 106.554 99.7278 107.088 99.1044 108.157C98.0355 109.761 98.4809 112.255 99.9951 113.323C101.509 114.481 104.003 114.036 105.072 112.522C105.696 111.72 105.874 110.651 105.696 109.582C105.517 108.514 104.983 107.712 104.092 107.088C103.558 106.732 102.845 106.554 102.222 106.554Z" fill="#006FFD"/>
<path d="M132.035 166.942C131.768 166.942 131.59 166.764 131.59 166.497C131.768 159.371 131.59 152.335 131.5 146.367C131.5 146.278 131.5 146.1 131.59 146.011C131.679 145.922 131.768 145.922 131.857 145.922C137.824 145.922 144.059 145.922 150.294 145.922C150.383 145.922 150.561 146.011 150.561 146.011C150.65 146.1 150.65 146.189 150.65 146.278C150.65 148.059 150.65 149.841 150.65 151.533C150.65 156.877 150.65 161.865 150.472 166.14C150.472 166.408 150.294 166.586 150.027 166.586C149.76 166.586 149.582 166.408 149.582 166.14C149.76 161.865 149.76 156.877 149.76 151.533C149.76 149.93 149.76 148.416 149.76 146.723C143.881 146.723 138.003 146.723 132.213 146.723C132.302 152.602 132.48 159.46 132.302 166.408C132.48 166.764 132.302 166.942 132.035 166.942Z" fill="#A3AEBB"/>
<path d="M132.392 149.307C132.303 149.307 132.214 149.217 132.214 149.128C132.214 149.039 132.303 148.95 132.392 148.95C138.182 148.683 143.971 148.594 149.761 148.683C149.85 148.683 149.939 148.772 149.939 148.861C149.939 148.95 149.85 149.039 149.761 149.039C143.971 148.861 138.182 148.95 132.392 149.307Z" fill="#A3AEBB"/>
<path d="M135.983 151.532C134.736 151.532 133.489 151.532 132.153 151.532C132.064 151.532 131.975 151.443 131.975 151.354C131.975 151.265 132.064 151.176 132.153 151.176C138.121 151.265 144.177 151.176 150.145 150.82C150.234 150.82 150.323 150.909 150.323 150.998C150.323 151.087 150.234 151.176 150.145 151.176C145.424 151.443 140.704 151.532 135.983 151.532Z" fill="#A3AEBB"/>
<path d="M132.059 154.472C131.97 154.472 131.88 154.383 131.88 154.294C131.88 154.205 131.97 154.116 132.059 154.116C138.115 153.671 144.261 153.582 150.318 153.76C150.407 153.76 150.496 153.849 150.496 153.938C150.496 154.027 150.407 154.116 150.318 154.116C144.261 153.849 138.115 154.027 132.059 154.472Z" fill="#A3AEBB"/>
<path d="M132.229 157.234C132.139 157.234 132.05 157.145 132.05 157.056C132.05 156.967 132.139 156.878 132.229 156.878L150.31 156.344C150.399 156.344 150.488 156.433 150.488 156.522C150.488 156.611 150.399 156.7 150.31 156.7L132.229 157.234Z" fill="#A3AEBB"/>
<path d="M138.293 159.55C136.245 159.55 134.107 159.55 132.059 159.55C131.97 159.55 131.88 159.461 131.88 159.371C131.88 159.282 131.97 159.193 132.059 159.193C138.026 159.193 144.172 159.193 150.14 159.104C150.229 159.104 150.318 159.193 150.318 159.282C150.318 159.371 150.229 159.461 150.14 159.461C146.31 159.461 142.302 159.55 138.293 159.55Z" fill="#A3AEBB"/>
<path d="M132.153 161.864C132.064 161.864 131.975 161.775 131.975 161.686C131.975 161.597 132.064 161.508 132.153 161.508H149.878C149.967 161.508 150.056 161.597 150.056 161.686C150.056 161.775 149.967 161.864 149.878 161.864H132.153Z" fill="#A3AEBB"/>
<path d="M140.397 164.091C137.725 164.091 134.963 164.001 132.291 163.912C132.202 163.912 132.113 163.823 132.113 163.734C132.113 163.645 132.202 163.556 132.291 163.556C138.259 163.734 144.227 163.734 150.194 163.467C150.283 163.467 150.372 163.556 150.372 163.645C150.372 163.734 150.283 163.823 150.194 163.823C146.988 164.001 143.692 164.091 140.397 164.091Z" fill="#A3AEBB"/>
<path d="M93.9015 139.152C93.8125 139.152 93.7234 139.063 93.7234 138.974C93.7234 138.885 93.8125 138.796 93.9015 138.796C99.1566 138.707 104.501 138.618 109.845 138.529C109.934 138.529 110.023 138.618 110.023 138.707C110.023 138.796 109.934 138.885 109.845 138.885C104.59 138.885 99.2457 138.974 93.9015 139.152Z" fill="#006FFD"/>
<path d="M101.775 149.663C101.686 149.663 101.597 149.574 101.597 149.485L101.864 138.886C101.864 138.797 101.953 138.708 102.042 138.708C102.131 138.708 102.22 138.797 102.22 138.886L101.953 149.485C101.864 149.574 101.864 149.663 101.775 149.663Z" fill="#006FFD"/>
<path d="M102.477 114.747C102.388 114.747 102.298 114.658 102.298 114.569C102.209 111.897 101.942 109.136 101.675 106.464C101.675 106.375 101.764 106.286 101.764 106.286C101.853 106.286 101.942 106.375 101.942 106.375C102.209 109.047 102.477 111.808 102.566 114.569C102.566 114.658 102.566 114.747 102.477 114.747Z" fill="#006FFD"/>
<path d="M98.1998 110.472C98.1107 110.472 98.0216 110.383 98.0216 110.294C98.0216 110.205 98.1107 110.116 98.1998 110.116L106.216 109.582C106.305 109.582 106.394 109.671 106.394 109.76C106.394 109.849 106.305 109.938 106.216 109.938L98.1998 110.472Z" fill="#006FFD"/>
<path d="M78.5956 163.558C78.3284 163.558 78.1503 163.38 78.1503 163.113C78.1503 162.846 78.3284 162.667 78.5956 162.667L125.09 162.133C125.357 162.133 125.535 162.311 125.535 162.578C125.535 162.846 125.357 163.024 125.09 163.024L78.5956 163.558Z" fill="#006FFD"/>
<g opacity="0.1294">
<path d="M126.615 122.408C126.526 122.23 126.437 122.052 126.348 121.963C126.348 121.339 125.903 120.716 125.19 120.716C123.587 120.894 121.895 120.716 120.291 120.805C118.688 120.805 116.996 120.983 115.393 121.161C115.036 121.161 114.68 121.161 114.324 121.339C113.878 121.339 113.522 121.339 113.077 121.339C110.405 121.428 107.822 121.339 105.15 121.339C101.142 121.339 97.1334 121.428 93.1253 121.428C90.8095 121.428 88.4937 121.25 86.1779 121.339C83.5949 121.339 81.1009 121.695 78.5179 121.428C76.8256 121.25 76.6475 123.833 78.3398 123.922C81.2791 124.189 84.1293 123.833 87.0686 123.833C93.2144 124.1 99.3602 123.922 105.506 123.833C108.089 123.833 110.672 123.922 113.255 123.922C116.818 124.1 120.38 124.278 124.032 124.189C124.21 124.189 124.389 124.189 124.478 124.189C124.567 124.189 124.656 124.189 124.745 124.189C125.101 124.278 125.368 124.189 125.725 124.189C126.348 123.744 126.794 123.031 126.615 122.408Z" fill="#A3AEBB"/>
</g>
<g opacity="0.1294">
<path d="M149.949 146.456C149.682 146.278 149.326 146.278 149.058 146.278C148.079 146.278 147.188 146.278 146.208 146.278C144.338 146.278 142.378 146.189 140.508 146.189C138.103 146.278 135.698 146.278 133.293 146.1C132.759 146.1 132.224 146.01 131.779 146.456C131.066 147.168 131.601 148.504 132.581 148.504C135.253 148.772 138.014 148.683 140.686 148.504C143.269 148.504 145.941 148.683 148.524 148.683C148.88 148.683 149.326 148.772 149.682 148.593C150.751 148.326 150.751 146.901 149.949 146.456Z" fill="#A3AEBB"/>
</g>
<path d="M178.074 121.292C177.417 120.553 175.775 121.045 175.857 122.031C175.939 124.33 175.611 126.383 173.886 128.846C173.065 130.078 171.916 131.145 171.177 132.377C170.273 133.855 170.027 135.415 169.945 136.976C169.863 139.932 170.438 142.888 172.819 145.023C175.118 147.076 179.388 147.979 182.837 146.501C185.875 145.187 187.6 142.395 187.846 139.85C188.092 137.304 187.025 134.841 185.957 132.541C183.822 128.189 181.113 124.823 178.074 121.292Z" fill="#ACD4F7"/>
<path d="M177.254 121.21C177.09 121.21 176.925 121.21 176.761 121.292C176.433 121.374 176.186 121.62 176.186 121.949C176.269 124.002 176.104 126.219 174.134 128.928C173.805 129.421 173.312 129.914 172.902 130.407C172.327 131.063 171.752 131.72 171.342 132.459C170.603 133.691 170.274 135.087 170.192 136.976C170.028 140.342 171.013 142.97 172.902 144.777C174.955 146.665 179.06 147.733 182.674 146.255C185.383 145.105 187.272 142.56 187.518 139.85C187.765 137.304 186.697 134.923 185.63 132.706C183.659 128.682 181.195 125.397 177.911 121.538C177.747 121.21 177.5 121.21 177.254 121.21ZM179.06 147.487C176.679 147.487 174.216 146.665 172.573 145.187C170.52 143.299 169.535 140.507 169.617 136.976C169.699 135.005 170.11 133.527 170.849 132.213C171.259 131.474 171.834 130.817 172.409 130.078C172.82 129.585 173.23 129.093 173.559 128.6C175.365 126.054 175.529 123.919 175.447 121.949C175.447 121.456 175.776 120.963 176.433 120.717C177.008 120.471 177.747 120.471 178.239 121.045C181.606 124.987 184.069 128.189 186.04 132.377C187.19 134.677 188.257 137.14 188.011 139.768C187.765 142.724 185.712 145.434 182.838 146.665C181.77 147.158 180.456 147.404 179.06 147.487Z" fill="black"/>
<path d="M184.48 141.738C184.48 139.028 184.233 136.236 183.741 133.198C184.808 132.623 186.04 132.212 187.19 131.966C187.764 131.884 188.339 131.802 188.75 132.13C188.996 132.294 189.16 132.623 189.325 132.951C190.31 135.004 191.213 137.057 192.199 139.11C192.281 139.274 192.363 139.439 192.363 139.603C192.363 139.849 192.199 140.095 192.034 140.26C190.228 142.23 187.025 142.969 184.48 141.738Z" fill="white"/>
<path d="M184.726 141.492C187.108 142.56 190.146 141.903 191.87 139.932C192.035 139.768 192.117 139.604 192.117 139.44C192.117 139.357 192.035 139.193 192.035 139.029L189.161 132.87C189.078 132.624 188.914 132.296 188.668 132.131C188.339 131.885 187.765 131.967 187.272 132.049C186.122 132.296 185.055 132.624 184.069 133.199C184.48 136.319 184.726 138.947 184.726 141.492ZM187.19 142.642C186.204 142.642 185.219 142.396 184.316 141.985C184.234 141.903 184.152 141.821 184.152 141.739C184.152 139.029 183.905 136.401 183.412 133.199C183.412 133.117 183.495 132.952 183.577 132.952C184.726 132.378 185.876 131.885 187.108 131.639C187.682 131.556 188.422 131.474 188.914 131.885C189.243 132.131 189.407 132.542 189.571 132.788L192.445 138.947C192.527 139.111 192.609 139.357 192.609 139.604C192.609 139.932 192.363 140.261 192.199 140.425C190.967 141.821 189.078 142.642 187.19 142.642Z" fill="black"/>
<path d="M218.311 164.484C217.08 159.475 211.906 146.994 207.554 142.724C204.27 139.521 196.633 138.29 191.952 137.961C191.131 139.932 188.832 142.149 186.779 141.903C185.712 141.821 184.644 140.999 183.987 139.85C180.292 141.738 176.515 143.709 173.641 146.748C169.535 151.182 167.975 159.886 166.25 166.127C168.303 166.762 170.438 167.173 172.409 167.173C174.38 167.255 176.515 167.337 178.568 167.173C180.785 167.091 183.412 167.173 185.547 167.173C192.691 167.337 219.275 168.405 218.311 164.484Z" fill="white"/>
<path d="M173.066 118.007C173.887 120.47 174.873 122.933 174.708 125.561C174.626 126.957 175.94 133.855 181.852 134.758C184.973 135.251 188.257 134.43 190.885 132.048C192.692 130.406 194.416 126.136 193.267 122.441C194.991 122.605 196.469 121.127 196.223 119.649C196.058 118.746 194.909 117.842 193.923 118.089C193.184 118.253 193.02 118.335 192.527 118.828C191.788 117.103 191.214 115.379 190.885 113.326C188.586 111.602 185.301 111.109 182.181 111.191C181.113 111.191 180.046 111.355 179.061 111.684C176.022 112.587 172.245 115.543 173.066 118.007Z" fill="white"/>
<path d="M173.312 117.924C173.394 118.253 173.477 118.499 173.641 118.828C174.38 120.963 175.119 123.262 174.955 125.561C174.872 126.546 175.858 133.526 181.852 134.512C185.055 135.004 188.175 134.101 190.639 131.884C192.281 130.406 194.087 126.218 192.938 122.605C192.938 122.523 192.938 122.441 193.02 122.359C193.102 122.276 193.184 122.276 193.266 122.276C194.087 122.359 194.827 122.03 195.401 121.455C195.812 120.963 196.058 120.388 195.894 119.813C195.812 119.484 195.483 119.074 195.155 118.745C194.744 118.499 194.334 118.417 193.923 118.499C193.184 118.663 193.184 118.663 192.692 119.156C192.609 119.238 192.527 119.238 192.445 119.238C192.363 119.238 192.281 119.156 192.199 119.074C191.378 117.185 190.803 115.461 190.557 113.572C188.093 111.766 184.644 111.437 182.099 111.601C181.277 111.601 180.128 111.684 179.06 112.012C177.09 112.669 174.544 114.311 173.641 116.118C173.23 116.693 173.148 117.349 173.312 117.924ZM183.495 135.169C182.92 135.169 182.345 135.086 181.77 135.004C175.858 134.101 174.298 127.285 174.462 125.479C174.626 123.262 173.887 121.045 173.148 118.91C173.066 118.581 172.984 118.335 172.82 118.006C172.573 117.267 172.655 116.528 173.066 115.707C174.051 113.736 176.761 112.012 178.814 111.355C179.964 111.027 181.113 110.944 182.017 110.862C184.644 110.78 188.257 111.109 190.885 113.079C190.967 113.162 190.967 113.162 190.967 113.244C191.296 114.968 191.706 116.61 192.445 118.335C192.774 118.006 193.02 117.924 193.677 117.76C194.17 117.596 194.827 117.76 195.319 118.089C195.894 118.417 196.222 118.992 196.305 119.484C196.469 120.224 196.222 121.045 195.648 121.619C195.073 122.194 194.334 122.605 193.513 122.605C194.58 126.382 192.774 130.57 190.967 132.13C188.832 134.183 186.204 135.169 183.495 135.169Z" fill="black"/>
<path d="M190.721 100.352C189.078 97.2319 185.137 96.0002 182.017 97.6425C178.896 99.2848 177.664 103.226 179.307 106.347C180.949 109.467 184.891 110.699 188.011 109.057C191.131 107.414 192.363 103.473 190.721 100.352Z" fill="#ACD4F7"/>
<path d="M184.973 97.1495C183.987 97.1495 183.002 97.3958 182.099 97.8885C179.06 99.4487 177.911 103.226 179.471 106.182C181.031 109.22 184.808 110.37 187.765 108.81C190.803 107.25 191.952 103.472 190.392 100.516C189.325 98.2991 187.19 97.1495 184.973 97.1495ZM184.973 110.042C182.509 110.042 180.21 108.728 178.978 106.429C177.254 103.144 178.568 99.0381 181.852 97.3137C185.137 95.5893 189.243 96.9031 190.967 100.188C192.692 103.472 191.378 107.578 188.093 109.303C187.108 109.795 186.04 110.042 184.973 110.042Z" fill="black"/>
<path d="M192.281 118.993C189.818 117.186 187.683 114.805 186.041 112.177C181.606 117.679 176.023 119.075 170.521 120.881C170.028 119.978 169.864 118.993 169.946 117.925C170.11 115.462 170.603 113.162 173.313 110.453C175.201 108.564 178.075 106.757 180.703 106.183C183.331 105.608 185.959 106.183 188.258 107.086C190.146 107.825 192.035 109.467 193.267 111.438C194.252 113.08 194.991 116.119 194.827 118.171C194.499 118.007 194.088 117.925 193.431 118.171C193.103 118.336 192.61 118.664 192.281 118.993Z" fill="#ACD4F7"/>
<path d="M182.837 106.182C182.098 106.182 181.359 106.265 180.702 106.429C177.911 107.004 175.119 108.974 173.476 110.617C170.684 113.326 170.356 115.708 170.192 117.925C170.11 118.828 170.274 119.731 170.602 120.47C171.013 120.306 171.423 120.224 171.752 120.06C176.925 118.418 181.77 116.857 185.711 111.848C185.794 111.766 185.876 111.766 185.958 111.766C186.04 111.766 186.122 111.848 186.204 111.93C187.682 114.476 189.735 116.693 192.116 118.582C192.445 118.335 192.856 118.007 193.184 117.843C193.595 117.679 194.005 117.679 194.416 117.761C194.416 115.708 193.759 112.998 192.856 111.52C191.706 109.713 189.817 108.071 188.011 107.332C186.286 106.593 184.562 106.182 182.837 106.182ZM170.52 121.127C170.438 121.127 170.356 121.045 170.274 120.963C169.781 120.06 169.617 119.075 169.699 117.925C169.863 115.133 170.52 112.834 173.148 110.288C174.872 108.564 177.746 106.593 180.702 105.936C183.084 105.443 185.629 105.772 188.421 106.921C190.392 107.743 192.363 109.467 193.512 111.356C194.58 112.998 195.237 116.036 195.155 118.253C195.155 118.335 195.073 118.418 194.991 118.5C194.908 118.582 194.826 118.582 194.744 118.5C194.498 118.418 194.169 118.253 193.595 118.5C193.348 118.582 192.938 118.828 192.527 119.239C192.445 119.321 192.281 119.321 192.199 119.239C189.735 117.432 187.682 115.133 186.122 112.67C182.098 117.514 177.007 119.157 172.08 120.717C171.588 120.881 171.177 121.045 170.684 121.21L170.52 121.127Z" fill="black"/>
<path d="M184.809 131.556C184.48 131.556 184.234 131.474 183.905 131.309C183.741 131.227 183.741 131.063 183.823 130.899C183.905 130.735 184.07 130.735 184.234 130.817C184.891 131.227 185.63 130.817 185.794 130.652C186.451 130.242 186.862 129.585 187.026 128.846C187.026 128.682 187.19 128.6 187.354 128.682C187.519 128.682 187.601 128.846 187.519 129.01C187.272 129.913 186.779 130.652 186.04 131.145C185.712 131.474 185.219 131.638 184.809 131.556Z" fill="black"/>
<path d="M186.451 121.866C186.369 121.538 186.04 121.374 185.712 121.538C185.383 121.62 185.219 121.948 185.301 122.277C185.383 122.605 185.712 122.77 186.04 122.605C186.369 122.523 186.533 122.195 186.451 121.866Z" fill="black"/>
<path d="M177.336 124.083C177.254 123.755 176.926 123.59 176.597 123.755C176.269 123.837 176.105 124.165 176.187 124.494C176.269 124.822 176.597 124.986 176.926 124.822C177.254 124.74 177.418 124.412 177.336 124.083Z" fill="black"/>
<path d="M182.181 127.286L181.278 127.121C181.196 127.121 180.95 127.039 180.785 126.875C180.621 126.629 180.785 126.382 180.785 126.218C181.196 125.315 181.278 124.247 180.785 123.344C180.703 123.18 180.785 123.016 180.95 122.934C181.114 122.851 181.278 122.934 181.36 123.098C181.853 124.165 181.853 125.397 181.36 126.465V126.547H181.442L182.346 126.711C182.51 126.711 182.592 126.875 182.592 127.039C182.428 127.121 182.346 127.286 182.181 127.286Z" fill="black"/>
<path d="M186.78 118.828C186.451 118.828 186.205 118.91 185.876 118.992C184.234 119.567 183.331 121.455 183.988 123.344C184.316 124.247 184.891 124.986 185.63 125.397C186.369 125.808 187.272 125.972 188.093 125.643C188.915 125.397 189.489 124.822 189.9 124.001C190.228 123.18 190.311 122.277 189.982 121.373C189.489 119.813 188.093 118.828 186.78 118.828ZM187.19 126.3C186.533 126.3 185.958 126.136 185.384 125.808C184.48 125.315 183.823 124.412 183.495 123.426C182.838 121.291 183.823 118.992 185.794 118.417C187.765 117.76 189.9 118.992 190.557 121.127C190.885 122.194 190.803 123.262 190.393 124.165C189.982 125.151 189.243 125.808 188.258 126.136C187.847 126.3 187.519 126.3 187.19 126.3Z" fill="black"/>
<path d="M176.843 121.128C176.514 121.128 176.268 121.21 175.94 121.292C175.119 121.538 174.544 122.113 174.133 122.934C173.805 123.755 173.723 124.659 174.051 125.562C174.626 127.45 176.514 128.436 178.157 127.943C179.799 127.368 180.702 125.48 180.045 123.591C179.553 122.113 178.239 121.128 176.843 121.128ZM177.254 128.682C175.611 128.682 174.051 127.533 173.476 125.808C173.23 124.741 173.23 123.673 173.64 122.688C174.051 121.702 174.79 121.045 175.775 120.717C177.746 120.06 179.881 121.292 180.538 123.427C181.195 125.562 180.21 127.861 178.239 128.436C177.993 128.6 177.664 128.682 177.254 128.682Z" fill="black"/>
<path d="M180.128 123.18C179.964 123.18 179.882 123.098 179.882 122.934C179.718 122.359 180.21 121.866 180.785 121.538C181.606 121.127 182.674 121.209 183.495 121.62C183.659 121.702 183.659 121.866 183.577 122.03C183.495 122.195 183.331 122.195 183.166 122.113C182.509 121.702 181.688 121.702 180.949 122.03C180.621 122.195 180.292 122.523 180.374 122.769C180.457 123.016 180.374 123.18 180.128 123.18Z" fill="black"/>
<path d="M189.079 119.731C188.915 119.731 188.832 119.649 188.832 119.485C188.832 119.32 188.915 119.156 189.079 119.156L191.871 118.746C192.035 118.746 192.199 118.828 192.199 118.992C192.199 119.156 192.117 119.32 191.953 119.32L189.079 119.731Z" fill="black"/>
<path d="M189.243 105.771C189.161 105.771 189.079 105.771 189.079 105.689C188.504 105.196 187.683 104.868 186.779 104.704C185.958 104.539 185.055 104.539 184.234 104.539C184.07 104.539 183.987 104.375 183.987 104.293C183.987 104.211 183.987 103.965 184.152 103.965C185.055 103.965 185.958 103.965 186.861 104.129C187.847 104.293 188.75 104.704 189.407 105.278C189.489 105.361 189.571 105.525 189.407 105.689C189.407 105.771 189.325 105.771 189.243 105.771Z" fill="black"/>
<path d="M192.856 121.292C192.692 121.292 192.61 121.21 192.61 121.045C192.446 120.306 192.199 119.649 191.789 119.075C191.707 118.91 191.707 118.746 191.871 118.664C192.035 118.582 192.199 118.582 192.281 118.746C192.692 119.403 193.02 120.142 193.185 120.963C193.103 121.045 193.02 121.21 192.856 121.292Z" fill="black"/>
<path d="M189.407 107.332C189.078 107.168 188.75 106.921 188.339 106.839C186.451 106.018 184.562 105.69 182.838 105.69C182.098 105.69 181.359 105.772 180.62 105.936C180.538 105.936 180.374 106.018 180.292 106.018C180.046 105.772 180.046 105.279 180.374 105.033C180.538 104.869 180.703 104.869 180.949 104.786C181.277 104.704 181.606 104.622 181.934 104.622C182.427 104.54 183.002 104.458 183.494 104.458C183.659 104.458 183.823 104.458 183.987 104.458C184.069 104.54 184.069 104.54 184.151 104.54C184.233 104.54 184.316 104.54 184.316 104.54C184.48 104.54 184.644 104.54 184.808 104.54C185.712 104.622 186.615 104.869 187.436 105.197C187.929 105.361 188.339 105.608 188.832 105.772C189.078 105.936 189.407 106.018 189.571 106.265C189.982 106.675 189.735 107.168 189.407 107.332Z" fill="#96B9D7"/>
<path d="M189.078 107.414C188.914 107.414 188.832 107.414 188.668 107.332C187.683 106.675 185.794 106.1 184.562 106.018C184.069 105.936 183.741 105.936 183.413 105.936C183.002 105.936 182.673 106.018 182.099 106.1C181.77 106.1 181.524 106.182 181.195 106.264C181.031 106.264 180.949 106.346 180.785 106.346C180.621 106.346 180.538 106.346 180.456 106.264C180.374 106.264 180.374 106.182 180.292 106.1C180.374 106.1 180.538 106.018 180.621 106.018C181.36 105.854 182.099 105.771 182.838 105.771C184.562 105.771 186.369 106.182 188.339 106.921C188.668 107.085 188.996 107.25 189.407 107.414C189.325 107.414 189.161 107.414 189.078 107.414Z" fill="black"/>
<path d="M184.891 104.54C184.727 104.54 184.562 104.54 184.398 104.54C184.316 104.54 184.234 104.54 184.234 104.54C184.152 104.54 184.07 104.54 184.07 104.458C184.234 104.458 184.562 104.54 184.891 104.54Z" fill="black"/>
<path d="M173.723 120.963C173.641 120.963 173.641 120.963 173.559 120.963C173.312 120.88 173.148 120.634 173.148 120.388C173.23 120.388 173.312 120.306 173.477 120.306C173.559 120.47 173.641 120.716 173.723 120.963Z" fill="#DEDEDE"/>
<path d="M174.215 120.799C174.133 120.552 174.051 120.306 173.969 119.978C178.239 118.582 182.509 116.775 185.958 112.587C186.04 112.669 186.122 112.834 186.122 112.916C185.137 114.229 184.069 115.625 182.755 116.611C181.934 117.268 181.031 117.76 180.128 118.335C179.389 118.746 178.65 119.074 177.911 119.403C176.761 119.895 175.611 120.388 174.38 120.799C174.38 120.799 174.298 120.799 174.215 120.799Z" fill="#DEDEDE"/>
<path d="M173.723 120.963C173.641 120.717 173.559 120.47 173.477 120.224C173.641 120.142 173.805 120.142 173.969 120.06C174.051 120.306 174.134 120.553 174.216 120.881C174.134 120.881 173.969 120.963 173.887 120.963C173.805 120.881 173.723 120.963 173.723 120.963Z" fill="black"/>
<path d="M173.148 120.306C173.148 120.142 173.312 119.895 173.559 119.895C173.641 119.895 173.969 119.731 174.051 119.731C174.626 119.567 175.201 119.403 175.776 119.239C176.843 118.828 177.911 118.417 178.896 117.925C180.128 117.35 181.195 116.693 182.509 115.708C183.659 114.804 184.398 113.983 185.383 112.669C185.547 112.505 185.712 112.177 185.958 112.094C185.958 112.094 185.958 112.094 186.04 112.094C186.369 112.094 186.615 112.505 186.369 112.751C186.287 112.834 186.287 112.916 186.204 112.998C186.122 112.916 186.04 112.751 186.04 112.669C182.509 116.857 178.239 118.664 174.051 120.06C173.887 120.142 173.723 120.142 173.559 120.224C173.394 120.224 173.23 120.224 173.148 120.306Z" fill="black"/>
<path d="M184.808 139.029C184.726 139.029 184.726 139.029 184.644 139.029C184.562 137.797 184.48 136.565 184.315 135.169C185.547 135.087 186.697 134.759 187.764 134.348C188.093 134.266 188.257 134.184 188.339 134.102L188.421 134.02C188.668 133.938 188.832 133.773 189.078 133.691C189.16 133.609 189.324 133.609 189.407 133.527L189.735 134.266C188.832 135.169 187.929 135.991 187.107 136.894C186.697 137.387 186.204 137.879 185.794 138.29C185.629 138.454 185.383 138.7 185.137 138.865H185.054H184.972C184.972 139.029 184.89 139.029 184.808 139.029Z" fill="#DEDEDE"/>
<path d="M184.644 139.028C184.562 139.028 184.398 138.946 184.398 138.782L184.316 138.7C184.316 138.618 184.316 138.453 184.316 138.371C184.316 138.125 184.316 137.961 184.316 137.714C184.316 137.304 184.316 136.893 184.234 136.483C184.234 136.072 184.152 135.661 184.152 135.333L183.987 135.169C184.07 135.169 184.152 135.169 184.234 135.169C184.48 136.483 184.562 137.796 184.644 139.028ZM189.736 134.265L189.407 133.526C189.407 133.526 189.489 133.526 189.489 133.444V133.526L189.571 133.691L189.653 133.773C189.736 133.855 189.818 134.019 189.9 134.101L189.818 134.183L189.736 134.265Z" fill="black"/>
<path d="M183.987 135.168V135.086C183.987 135.004 183.905 134.922 183.905 134.922C183.987 134.758 184.152 134.758 184.316 134.758C184.48 134.758 184.644 134.84 184.809 134.84C184.973 134.84 185.055 134.84 185.301 134.84C185.465 134.84 185.548 134.84 185.794 134.84C186.04 134.84 187.108 134.593 187.847 134.347C186.697 134.84 185.548 135.086 184.398 135.168C184.234 135.168 184.152 135.168 183.987 135.168ZM188.422 134.019C188.504 133.937 188.586 133.854 188.668 133.854C188.832 133.772 188.914 133.772 189.079 133.69C188.832 133.772 188.668 133.854 188.422 134.019Z" fill="black"/>
<path d="M186.861 141.738C188.914 141.984 191.131 140.013 192.034 138.043C194.826 138.207 203.202 139.11 206.733 142.395C210.839 146.336 215.684 157.75 216.997 162.595L217.08 162.924C217.244 163.498 217.408 164.237 217.654 165.059C217.819 165.059 218.065 165.141 218.229 165.141C217.983 164.237 217.819 163.498 217.572 162.759L217.49 162.431C216.176 157.586 211.249 145.926 207.062 141.984C203.366 138.453 194.498 137.632 191.87 137.468C191.788 137.468 191.624 137.55 191.624 137.632C190.885 139.439 188.75 141.327 186.943 141.163C185.958 141.081 185.055 140.424 184.48 139.356C184.398 139.192 184.233 139.192 184.151 139.274C180.62 140.999 176.925 142.805 174.051 145.761C170.11 149.867 167.892 159.7 166.25 165.448L166.168 165.776C166.085 165.94 166.168 166.105 166.332 166.105C166.496 166.187 166.66 166.105 166.66 165.94L166.742 165.694C168.303 160.357 170.52 150.278 174.38 146.254C177.089 143.462 180.62 141.656 184.069 139.931C184.808 140.999 185.794 141.656 186.861 141.738Z" fill="black"/>
<path d="M206.323 163.991C206.487 163.991 206.733 163.991 206.898 163.909C205.666 161.199 204.106 157.504 203.285 154.794C203.202 154.63 203.12 154.548 202.956 154.63C202.792 154.712 202.71 154.876 202.792 155.041C203.531 157.75 205.091 161.281 206.323 163.991Z" fill="black"/>
<path d="M190.556 143.627C190.474 143.627 190.392 143.545 190.31 143.462C190.228 143.298 190.31 143.134 190.392 143.052C191.706 142.231 192.609 140.917 192.773 139.357C192.773 139.192 192.938 139.11 193.102 139.11C193.266 139.11 193.348 139.275 193.348 139.439C193.102 141.081 192.117 142.641 190.721 143.462C190.721 143.627 190.638 143.627 190.556 143.627Z" fill="black"/>
<path d="M194.088 142.231H194.006C193.841 142.149 193.759 141.985 193.841 141.903L194.58 139.768C194.662 139.604 194.827 139.522 194.909 139.604C195.073 139.686 195.155 139.85 195.073 139.932L194.334 142.067C194.334 142.149 194.252 142.231 194.088 142.231Z" fill="black"/>
<path d="M206.406 163.746H204.517C204.271 163.663 204.106 163.499 204.024 163.335C203.367 161.611 202.875 157.833 202.464 155.37C202.382 155.041 202.546 154.795 202.792 154.713C202.792 154.795 202.792 154.795 202.792 154.877C203.121 156.027 203.696 157.423 204.188 158.819C204.188 158.819 204.188 158.819 204.188 158.901C204.927 160.543 205.666 162.268 206.406 163.746Z" fill="#DEDEDE"/>
<path d="M203.531 155.37C203.449 155.123 203.367 154.959 203.367 154.713C203.367 154.713 203.367 154.713 203.367 154.795C203.449 154.959 203.531 155.206 203.531 155.37Z" fill="#DEDEDE"/>
<path d="M206.404 163.745C205.747 162.267 204.926 160.543 204.187 158.818C204.433 158.818 204.762 159.065 204.844 159.393C205.172 160.132 205.501 160.871 205.829 161.528C206.076 162.103 206.486 162.678 206.568 163.253C206.568 163.499 206.486 163.663 206.404 163.745ZM204.187 158.736C203.612 157.34 203.12 155.944 202.791 154.795C202.791 154.713 202.791 154.713 202.791 154.63C202.873 154.63 202.955 154.548 203.037 154.548C203.202 154.548 203.284 154.63 203.448 154.713C203.53 154.877 203.612 155.123 203.612 155.369C203.612 155.452 203.612 155.534 203.694 155.616C203.777 156.273 203.859 156.93 204.023 157.587C204.023 157.997 204.105 158.326 204.187 158.736Z" fill="black"/>
<path d="M215.821 134.773V134.691C215.821 134.609 215.738 134.527 215.738 134.527C215.821 134.362 215.985 134.362 216.149 134.362C216.313 134.362 216.477 134.445 216.642 134.445C216.806 134.445 216.888 134.445 217.134 134.445C217.299 134.445 217.381 134.445 217.627 134.445C217.873 134.445 218.941 134.198 219.68 133.952C218.53 134.445 217.381 134.691 216.231 134.773C216.067 134.773 215.985 134.773 215.821 134.773ZM220.255 133.623C220.337 133.541 220.419 133.459 220.501 133.459C220.665 133.377 220.747 133.377 220.912 133.295C220.665 133.377 220.501 133.459 220.255 133.623Z" fill="black"/>
<path d="M216.56 141.097C218.941 142.164 221.979 141.507 223.704 139.536C223.868 139.372 223.95 139.208 223.95 139.044C223.95 138.962 223.868 138.797 223.868 138.633L220.994 132.475C220.912 132.228 220.748 131.9 220.501 131.736C220.173 131.489 219.598 131.571 219.105 131.653C217.956 131.9 216.888 132.228 215.903 132.803C216.313 135.923 216.56 138.551 216.56 141.097ZM219.023 142.246C218.038 142.246 217.053 142 216.149 141.589C216.067 141.507 215.985 141.425 215.985 141.343C215.985 138.633 215.739 136.006 215.246 132.803C215.246 132.721 215.328 132.557 215.41 132.557C216.56 131.982 217.709 131.489 218.941 131.243C219.516 131.161 220.255 131.079 220.748 131.489C221.076 131.736 221.24 132.146 221.405 132.392L224.279 138.551C224.361 138.715 224.443 138.962 224.443 139.208C224.443 139.536 224.197 139.865 224.032 140.029C222.801 141.425 220.912 142.246 219.023 142.246Z" fill="black"/>
<path d="M216.478 138.634C216.396 138.634 216.231 138.552 216.231 138.387L216.149 138.305C216.149 138.223 216.149 138.059 216.149 137.977C216.149 137.73 216.149 137.566 216.149 137.32C216.149 136.909 216.149 136.499 216.067 136.088C216.067 135.677 215.985 135.267 215.985 134.938L215.821 134.774C215.903 134.774 215.985 134.774 216.067 134.774C216.313 136.088 216.396 137.402 216.478 138.634ZM221.569 133.871L221.24 133.132C221.24 133.132 221.323 133.132 221.323 133.05V133.132L221.405 133.296L221.487 133.378C221.569 133.46 221.651 133.625 221.733 133.707L221.651 133.789L221.569 133.871Z" fill="black"/>
<path d="M207.939 116.099C207.577 118.445 206.179 122.55 206.542 125.167C206.459 126.563 207.773 133.46 213.686 134.364C216.806 134.856 220.091 134.035 222.718 131.654C224.525 130.011 226.249 125.741 225.1 122.046C226.824 122.21 228.302 120.732 228.056 119.254C227.892 118.351 226.742 117.448 225.757 117.694C225.018 117.858 224.853 117.94 224.361 118.433C223.622 116.709 223.047 114.984 222.718 112.931C220.419 111.207 217.134 110.714 214.014 110.796C212.947 110.796 211.879 110.961 210.894 111.289C207.855 112.192 209.923 112.58 207.939 116.099Z" fill="white"/>
<path d="M203.604 108.755C204.342 106.452 207.312 104.665 209.24 106.087C209.003 105.488 208.958 105.409 209.075 104.714C209.192 104.02 209.554 103.396 210.127 102.966C210.469 102.668 210.933 102.406 211.364 102.266C211.796 102.127 212.349 102.022 212.838 102.165C213.327 102.307 213.783 102.572 214.053 103.048C215.053 101.748 216.733 101.111 218.31 101.37C219.963 101.586 221.39 102.663 222.043 104.178C222.617 103.749 223.402 103.513 224.046 103.568C224.767 103.579 225.5 103.792 226.123 104.172C226.991 104.623 227.75 105.241 228.276 105.99C228.802 106.739 229.109 107.822 228.773 108.851C231.79 109.132 230.592 116.931 230.507 117.503C230.308 120.757 228.678 125.451 224.496 128.342C225.575 125.741 225.722 122.935 225.036 121.543C227.146 122.024 227.717 119.607 227.3 118.691C226.749 117.537 224.506 115.56 223.143 118.741C219.95 115.626 220.172 114.035 220.127 113.955C219.581 113.532 218.264 112.288 217.91 112.383C217.438 113.174 216.768 113.973 215.917 114.454C214.803 115.19 213.419 115.45 212.152 115.015C211.648 115.929 210.855 116.692 209.87 116.936C208.885 117.179 207.508 116.912 206.885 116.532C203.079 114.498 203.073 110.521 203.604 108.755Z" fill="#ACD4F7"/>
<path d="M222.508 104.646C222.894 104.427 223.448 104.323 223.969 104.342C224.568 104.317 225.224 104.574 225.924 104.91C226.792 105.361 227.551 105.979 228.032 106.649C228.603 107.478 228.698 108.366 228.516 109.307C228.484 109.43 228.529 109.51 228.529 109.51C228.574 109.589 228.696 109.624 228.696 109.624C229.018 109.652 229.307 109.802 229.609 110.155C230.437 111.257 230.632 113.764 230.194 117.678C230.206 117.88 230.174 118.003 230.174 118.003C229.962 121.055 228.539 125.213 225.033 128.036C225.706 125.979 225.813 123.824 225.404 122.38C226.124 122.391 226.71 122.164 227.117 121.62C227.71 120.865 227.835 119.642 227.52 119.087C227.194 118.33 226.166 117.236 224.969 117.285C224.37 117.31 223.585 117.546 222.984 118.828C220.806 116.605 220.442 115.241 220.36 114.554C220.315 114.475 220.347 114.352 220.225 114.317C220.18 114.237 220.058 114.202 219.968 114.043C218.619 112.922 218.117 112.578 217.796 112.551C217.718 112.594 217.641 112.638 217.564 112.682C217.015 113.516 216.377 114.192 215.726 114.665C214.611 115.401 213.26 115.538 212.16 115.218C212.038 115.183 211.883 115.27 211.851 115.393C211.424 116.263 210.664 116.903 209.724 117.226C208.739 117.47 207.516 117.115 206.938 116.814C203.331 114.772 203.338 110.998 203.792 109.275C204.116 108.044 205.205 106.904 206.5 106.485C207.44 106.162 208.328 106.287 208.996 106.747C209.118 106.782 209.24 106.818 209.318 106.774C209.395 106.73 209.427 106.607 209.415 106.405C209.178 105.806 209.178 105.806 209.218 105.155C209.302 104.583 209.632 104.083 210.16 103.574C210.502 103.276 210.888 103.057 211.32 102.917C211.828 102.734 212.227 102.718 212.594 102.824C213.038 102.887 213.417 103.196 213.642 103.592C213.687 103.672 213.809 103.707 213.854 103.787C213.976 103.822 214.053 103.778 214.086 103.655C215.053 102.479 216.612 101.806 218.066 102.03C219.642 102.289 221.068 103.366 221.677 104.802C221.722 104.881 221.767 104.961 221.889 104.996C221.967 104.952 222.044 104.909 222.121 104.865C222.198 104.821 222.353 104.733 222.508 104.646ZM224.497 129.072C228.679 126.181 230.386 121.444 230.65 117.943C230.605 117.864 230.638 117.741 230.67 117.618C230.814 116.07 231.37 111.462 229.983 109.734C229.681 109.381 229.392 109.23 229.102 109.08C229.284 108.139 229.022 107.136 228.451 106.307C227.88 105.479 227.121 104.861 226.131 104.374C225.386 103.959 224.575 103.789 223.932 103.735C223.211 103.724 222.58 103.872 222.039 104.178C221.275 102.83 219.849 101.753 218.195 101.538C216.619 101.278 214.938 101.916 213.849 103.056C213.547 102.704 213.09 102.438 212.601 102.296C212.113 102.154 211.559 102.258 211.05 102.442C210.542 102.625 210.155 102.844 209.736 103.186C209.13 103.738 208.691 104.406 208.574 105.1C208.522 105.549 208.535 105.751 208.547 105.954C207.891 105.697 207.093 105.73 206.308 105.965C204.859 106.471 203.614 107.7 203.226 109.177C202.662 111.066 202.636 115.166 206.654 117.394C207.277 117.774 208.699 118.121 209.838 117.79C210.823 117.546 211.661 116.862 212.165 115.948C213.387 116.304 214.848 116 215.963 115.264C216.691 114.747 217.374 114.15 217.923 113.316C218.334 113.502 219.182 114.279 219.562 114.588C219.607 114.667 219.729 114.702 219.774 114.782C219.894 116.075 221.081 117.811 222.912 119.602C222.957 119.682 223.079 119.717 223.156 119.673C223.234 119.63 223.311 119.586 223.343 119.463C223.757 118.391 224.286 117.882 225.006 117.893C225.804 117.86 226.742 118.795 226.979 119.393C227.204 119.79 227.099 120.687 226.66 121.354C226.331 121.855 225.7 122.003 225.089 121.825C224.967 121.79 224.89 121.833 224.813 121.877C224.735 121.921 224.748 122.123 224.793 122.203C225.389 123.436 225.352 126.075 224.195 128.72C224.163 128.843 224.13 128.966 224.298 129.081C224.342 129.16 224.42 129.116 224.497 129.072Z" fill="#23274D"/>
<path d="M216.313 141.342C216.313 138.633 216.067 135.841 215.574 132.802C216.642 132.228 217.873 131.817 219.023 131.571C219.598 131.489 220.173 131.407 220.583 131.735C220.829 131.899 220.994 132.228 221.158 132.556C222.143 134.609 223.047 136.662 224.032 138.715C224.114 138.879 224.196 139.043 224.196 139.207C224.196 139.454 224.032 139.7 223.868 139.864C222.061 141.835 218.859 142.574 216.313 141.342Z" fill="white"/>
<path d="M250.145 164.089C248.913 159.08 243.74 146.599 239.388 142.329C236.103 139.126 228.467 137.894 223.786 137.566C222.965 139.537 220.666 141.754 218.613 141.507C217.545 141.425 216.478 140.604 215.821 139.455C212.126 141.343 208.348 143.314 205.474 146.352C201.369 150.786 199.808 159.491 198.084 165.731C200.137 166.367 202.272 166.778 204.243 166.778C206.213 166.86 208.348 166.942 210.401 166.778C212.618 166.695 215.246 166.778 217.381 166.778C224.525 166.942 251.109 168.009 250.145 164.089Z" fill="#E1ECFB"/>
<path d="M216.642 131.161C216.314 131.161 216.067 131.079 215.739 130.915C215.575 130.832 215.575 130.668 215.657 130.504C215.739 130.34 215.903 130.34 216.067 130.422C216.724 130.832 217.463 130.422 217.627 130.258C218.284 129.847 218.695 129.19 218.859 128.451C218.859 128.287 219.023 128.205 219.188 128.287C219.352 128.287 219.434 128.451 219.352 128.615C219.106 129.519 218.613 130.258 217.874 130.75C217.545 131.079 217.053 131.243 216.642 131.161Z" fill="black"/>
<path d="M218.284 121.471C218.202 121.142 217.873 120.978 217.545 121.142C217.217 121.224 217.052 121.553 217.134 121.881C217.217 122.21 217.545 122.374 217.873 122.21C218.202 122.127 218.366 121.799 218.284 121.471Z" fill="black"/>
<path d="M209.169 123.688C209.087 123.36 208.759 123.196 208.43 123.36C208.102 123.442 207.938 123.77 208.02 124.099C208.102 124.427 208.43 124.592 208.759 124.427C209.087 124.345 209.252 124.017 209.169 123.688Z" fill="black"/>
<path d="M214.014 126.891L213.111 126.727C213.029 126.727 212.782 126.645 212.618 126.481C212.454 126.234 212.618 125.988 212.618 125.824C213.029 124.92 213.111 123.853 212.618 122.95C212.536 122.785 212.618 122.621 212.782 122.539C212.947 122.457 213.111 122.539 213.193 122.703C213.686 123.771 213.686 125.003 213.193 126.07V126.152H213.275L214.178 126.316C214.343 126.316 214.425 126.481 214.425 126.645C214.26 126.727 214.178 126.891 214.014 126.891Z" fill="black"/>
<path d="M216.724 104.145C216.56 104.145 216.396 104.145 216.231 104.145C216.149 104.145 216.067 104.145 216.067 104.145C215.985 104.145 215.903 104.145 215.903 104.063C216.067 104.063 216.396 104.145 216.724 104.145Z" fill="black"/>
<path d="M216.642 138.633C216.56 138.633 216.56 138.633 216.477 138.633C216.395 137.401 216.313 136.17 216.149 134.774C217.381 134.692 218.53 134.363 219.598 133.953C219.926 133.87 220.09 133.788 220.173 133.706L220.255 133.624C220.501 133.542 220.665 133.378 220.912 133.296C220.994 133.213 221.158 133.213 221.24 133.131L221.569 133.87C220.665 134.774 219.762 135.595 218.941 136.498C218.53 136.991 218.038 137.483 217.627 137.894C217.463 138.058 217.216 138.305 216.97 138.469H216.888H216.806C216.806 138.633 216.724 138.633 216.642 138.633Z" fill="#DEDEDE"/>
<path d="M218.694 141.343C220.747 141.589 222.965 139.618 223.868 137.647C226.66 137.812 235.035 138.715 238.566 141.999C242.672 145.941 247.517 157.355 248.831 162.2L248.913 162.528C249.077 163.103 249.241 163.842 249.488 164.663C249.652 164.663 249.898 164.745 250.063 164.745C249.816 163.842 249.652 163.103 249.406 162.364L249.324 162.036C248.01 157.191 243.083 145.53 238.895 141.589C235.2 138.058 226.331 137.237 223.704 137.073C223.621 137.073 223.457 137.155 223.457 137.237C222.718 139.043 220.583 140.932 218.777 140.768C217.791 140.686 216.888 140.029 216.313 138.961C216.231 138.797 216.067 138.797 215.985 138.879C212.454 140.603 208.759 142.41 205.885 145.366C201.943 149.472 199.725 159.304 198.083 165.052L198.001 165.381C197.919 165.545 198.001 165.709 198.165 165.709C198.329 165.791 198.494 165.709 198.494 165.545L198.576 165.299C200.136 159.961 202.354 149.883 206.213 145.859C208.923 143.067 212.454 141.26 215.903 139.536C216.642 140.603 217.627 141.26 218.694 141.343Z" fill="black"/>
<path d="M238.156 163.596C238.32 163.596 238.567 163.596 238.731 163.513C237.499 160.804 235.939 157.108 235.118 154.399C235.036 154.234 234.954 154.152 234.789 154.234C234.625 154.316 234.543 154.481 234.625 154.645C235.364 157.355 236.924 160.886 238.156 163.596Z" fill="black"/>
<path d="M222.39 143.231C222.308 143.231 222.226 143.149 222.143 143.067C222.061 142.903 222.143 142.739 222.226 142.657C223.539 141.835 224.443 140.522 224.607 138.961C224.607 138.797 224.771 138.715 224.935 138.715C225.1 138.715 225.182 138.879 225.182 139.044C224.935 140.686 223.95 142.246 222.554 143.067C222.554 143.231 222.472 143.231 222.39 143.231Z" fill="black"/>
<path d="M225.92 141.836H225.838C225.674 141.754 225.592 141.589 225.674 141.507L226.413 139.372C226.495 139.208 226.659 139.126 226.742 139.208C226.906 139.29 226.988 139.454 226.906 139.536L226.167 141.671C226.167 141.754 226.085 141.836 225.92 141.836Z" fill="black"/>
<path d="M238.239 163.35H236.35C236.104 163.268 235.939 163.103 235.857 162.939C235.2 161.215 234.708 157.438 234.297 154.974C234.215 154.646 234.379 154.399 234.626 154.317C234.626 154.399 234.626 154.399 234.626 154.481C234.954 155.631 235.529 157.027 236.022 158.423C236.022 158.423 236.022 158.423 236.022 158.505C236.761 160.147 237.5 161.872 238.239 163.35Z" fill="#DEDEDE"/>
<path d="M235.364 154.974C235.282 154.728 235.2 154.563 235.2 154.317C235.2 154.317 235.2 154.317 235.2 154.399C235.282 154.563 235.364 154.81 235.364 154.974Z" fill="#DEDEDE"/>
<path d="M238.238 163.35C237.581 161.872 236.76 160.147 236.021 158.423C236.267 158.423 236.596 158.669 236.678 158.998C237.006 159.737 237.335 160.476 237.663 161.133C237.91 161.707 238.32 162.282 238.402 162.857C238.402 163.103 238.32 163.268 238.238 163.35ZM236.021 158.341C235.446 156.945 234.954 155.549 234.625 154.399C234.625 154.317 234.625 154.317 234.625 154.235C234.707 154.235 234.789 154.153 234.871 154.153C235.036 154.153 235.118 154.235 235.282 154.317C235.364 154.481 235.446 154.728 235.446 154.974C235.446 155.056 235.446 155.138 235.528 155.22C235.611 155.877 235.693 156.534 235.857 157.191C235.857 157.602 235.939 157.93 236.021 158.341Z" fill="black"/>
<path d="M189.499 84.0353C196.491 83.9647 203.483 83.8236 210.475 83.753C212.664 83.753 214.995 83.6824 216.972 82.6236C219.021 81.4942 220.433 79.306 220.362 76.9767C220.292 74.6473 218.667 72.4592 216.407 71.8239C214.147 71.1886 211.534 72.4592 210.687 74.5767C210.828 70.5533 207.296 66.7417 203.271 66.8122C199.245 66.8122 195.714 70.9063 196.491 74.8591C195.784 73.0238 193.595 72.1062 191.688 72.3886C189.781 72.7415 188.157 74.0826 187.097 75.7061C186.179 77.0473 185.614 78.6707 185.826 80.2942C185.967 81.8471 187.097 84.0353 189.499 84.0353Z" fill="white"/>
<path d="M189.428 84.3887C187.027 84.3887 185.685 82.3417 185.473 80.2947C185.19 78.3182 186.038 76.5536 186.815 75.4242C188.086 73.5184 189.852 72.2478 191.688 71.9655C193.383 71.6831 195.078 72.3184 196.067 73.4478C196.138 71.9655 196.703 70.4832 197.762 69.2126C199.175 67.448 201.223 66.4597 203.271 66.3892C205.248 66.3892 207.155 67.2362 208.639 68.7891C209.91 70.0597 210.687 71.6831 210.969 73.3772C212.17 71.7537 214.501 70.9067 216.478 71.4714C218.809 72.1067 220.574 74.436 220.645 76.9771C220.716 79.377 219.303 81.777 217.043 82.9769C214.995 84.1063 212.523 84.1063 210.404 84.1769L189.428 84.3887C189.499 84.3887 189.428 84.3887 189.428 84.3887ZM192.465 72.6008C192.253 72.6008 191.971 72.6008 191.759 72.6713C190.134 72.9537 188.51 74.0831 187.38 75.8477C186.674 76.9065 185.897 78.4594 186.109 80.2241C186.25 81.4946 187.168 83.6828 189.428 83.6828C189.428 83.6828 189.428 83.6828 189.499 83.6828L210.475 83.4005C212.523 83.4005 214.924 83.3299 216.831 82.2711C218.809 81.2123 220.08 79.0241 220.009 76.9065C219.939 74.7183 218.385 72.6008 216.337 72.1067C214.218 71.542 211.817 72.6713 211.04 74.6478C210.969 74.7889 210.828 74.8595 210.616 74.8595C210.475 74.8595 210.334 74.6478 210.334 74.5066C210.404 72.6008 209.627 70.6949 208.144 69.2832C206.802 67.8715 205.037 67.095 203.271 67.095C201.435 67.095 199.598 68.0832 198.256 69.6361C196.985 71.189 196.491 73.0243 196.844 74.7183C196.844 74.8595 196.773 75.0713 196.632 75.1419C196.491 75.2125 196.279 75.0713 196.208 74.9301C195.573 73.3772 193.948 72.6008 192.465 72.6008Z" fill="#D1D6DD"/>
<g opacity="0.1294">
<path d="M218.597 79.4469C218.385 79.5175 218.244 79.6587 218.103 79.7292C217.961 79.8704 217.749 79.941 217.538 80.0822C217.114 80.3645 216.69 80.6469 216.266 80.8586C216.196 80.8586 216.196 80.8586 216.196 80.9292C215.278 81.141 214.43 81.5645 213.441 81.7057C212.806 81.7762 210.546 81.7057 209.274 81.7762C206.52 81.8468 203.695 81.8468 200.94 81.9174C198.751 81.8468 196.561 82.0586 194.372 82.3409C191.547 82.5527 190.629 82.6939 188.581 81.7762C188.581 81.7762 188.651 81.7763 188.651 81.8468C188.157 81.7057 187.804 81.3527 187.309 81.2116C186.391 81.0704 185.967 82.3409 186.744 82.835C187.874 83.3997 189.004 83.9644 190.276 84.1762C193.101 84.6703 195.926 83.8233 198.751 83.8938C199.74 83.8938 200.728 83.9644 201.717 83.8938C203.059 83.8233 204.401 83.7527 205.743 83.7527C207.72 83.6821 209.839 83.6115 211.322 83.3997C211.322 83.8233 211.676 84.2468 212.17 84.1762C213.794 84.035 215.348 83.5409 216.761 82.7645C217.114 82.6233 217.396 82.4115 217.749 82.1998C217.961 82.0586 218.173 81.988 218.314 81.8468C218.456 81.7057 218.456 81.4939 218.456 81.3527C218.668 81.2116 218.879 81.0704 219.091 80.8586C219.303 80.7175 219.444 80.4351 219.444 80.2233C219.586 79.6587 219.091 79.3057 218.597 79.4469Z" fill="#D1D6DD"/>
</g>
<path d="M225.345 70.4625C236.832 70.3466 248.32 70.1146 259.808 69.9986C263.405 69.9986 267.234 69.8827 270.483 68.1431C273.848 66.2876 276.169 62.6925 276.053 58.8655C275.937 55.0384 273.268 51.4433 269.555 50.3996C265.842 49.3558 261.548 51.4433 260.156 54.9224C260.388 48.3121 254.586 42.0497 247.972 42.1656C241.358 42.1656 235.556 48.892 236.832 55.3863C235.672 52.3711 232.075 50.8635 228.942 51.3273C225.809 51.9072 223.14 54.1106 221.399 56.778C219.891 58.9814 218.963 61.6487 219.311 64.3161C219.543 66.8674 221.399 70.4625 225.345 70.4625Z" fill="white"/>
<path d="M225.229 71.0423C221.284 71.0423 219.079 67.6791 218.731 64.316C218.267 61.0688 219.659 58.1695 220.936 56.314C223.024 53.1828 225.925 51.0953 228.942 50.6314C231.727 50.1675 234.512 51.2113 236.136 53.0668C236.252 50.6314 237.181 48.196 238.921 46.1086C241.242 43.2093 244.607 41.5857 247.972 41.4697C251.221 41.4697 254.354 42.8614 256.791 45.4127C258.88 47.5002 260.156 50.1675 260.62 52.9508C262.593 50.2835 266.422 48.8919 269.671 49.8196C273.5 50.8634 276.401 54.6904 276.517 58.8654C276.633 62.8084 274.313 66.7514 270.599 68.7229C267.234 70.5784 263.173 70.5784 259.692 70.6944L225.229 71.0423C225.345 71.0423 225.229 71.0423 225.229 71.0423ZM230.219 51.6752C229.87 51.6752 229.406 51.6752 229.058 51.7911C226.389 52.255 223.72 54.1105 221.864 57.0098C220.703 58.7494 219.427 61.3007 219.775 64.2C220.007 66.2875 221.516 69.8826 225.229 69.8826C225.229 69.8826 225.229 69.8826 225.345 69.8826L259.808 69.4187C263.173 69.4187 267.118 69.3027 270.251 67.5632C273.5 65.8236 275.589 62.2285 275.473 58.7494C275.357 55.1543 272.804 51.6752 269.439 50.8634C265.958 49.9356 262.013 51.7911 260.736 55.0383C260.62 55.2703 260.388 55.3862 260.04 55.3862C259.808 55.3862 259.576 55.0383 259.576 54.8064C259.692 51.6752 258.416 48.5439 255.979 46.2245C253.774 43.9051 250.873 42.6294 247.972 42.6294C244.955 42.6294 241.938 44.253 239.734 46.8044C237.645 49.3557 236.833 52.371 237.413 55.1543C237.413 55.3862 237.297 55.7341 237.065 55.8501C236.833 55.9661 236.485 55.7341 236.368 55.5022C235.324 52.9508 232.655 51.6752 230.219 51.6752Z" fill="#D1D6DD"/>
</svg>
