<svg width="703" height="622" viewBox="0 0 703 622" fill="none" xmlns="http://www.w3.org/2000/svg">
<g filter="url(#filter0_d_673_6164)">
<rect x="256.065" y="47.3572" width="321.435" height="415.45" rx="27.3115" fill="white"/>
<rect x="278.401" y="291.936" width="184.272" height="7.8176" rx="3.9088" fill="#D9D9D9"/>
<rect x="278.401" y="313.156" width="161.936" height="3.3504" rx="1.6752" fill="#D9D9D9"/>
<rect x="278.401" y="328.791" width="270.266" height="4.4672" rx="2.2336" fill="#D9D9D9"/>
<rect x="278.401" y="345.543" width="270.266" height="3.3504" rx="1.6752" fill="#D9D9D9"/>
<rect opacity="0.5" x="278.283" y="84.7249" width="270.663" height="158.56" rx="21.2087" fill="#D1D6DD"/>
<path d="M371.241 184.737L369.788 242.201H468.897L470.027 184.898L371.241 184.737Z" fill="white"/>
<path d="M468.897 243.008H369.788C369.626 243.008 369.304 242.846 369.304 242.846C369.142 242.685 369.142 242.524 369.142 242.201L370.595 184.737C370.595 184.253 370.918 183.93 371.402 183.93L470.188 184.091C470.349 184.091 470.672 184.253 470.672 184.253C470.834 184.414 470.834 184.575 470.834 184.898L469.704 242.201C469.704 242.524 469.381 243.008 468.897 243.008ZM370.595 241.394H468.09L469.219 185.705L372.048 185.544L370.595 241.394Z" fill="#A3AEBB"/>
<path d="M412.078 242.201C383.831 242.201 354.292 242.685 326.044 242.362C326.044 214.115 325.721 185.06 324.107 153.584C349.933 152.938 381.894 152.615 414.177 152.293C412.401 183.769 410.625 221.378 412.078 242.201Z" fill="white"/>
<path d="M341.54 243.17C336.375 243.17 331.21 243.17 326.044 243.17C325.56 243.17 325.237 242.847 325.237 242.362C325.237 217.343 325.076 187.158 323.3 153.584C323.3 153.423 323.3 153.1 323.462 152.938C323.623 152.777 323.785 152.616 323.946 152.616C348.158 151.97 377.052 151.809 407.72 151.486H414.016C414.177 151.486 414.5 151.647 414.661 151.809C414.823 151.97 414.823 152.131 414.823 152.454C413.209 183.123 411.272 221.217 412.886 242.201C412.886 242.362 412.886 242.685 412.724 242.847C412.563 243.008 412.401 243.008 412.079 243.17C399.972 243.17 387.544 243.17 375.276 243.331C364.3 243.17 352.839 243.17 341.54 243.17ZM326.851 241.555C342.831 241.717 359.296 241.555 375.437 241.394C387.221 241.394 399.488 241.233 411.272 241.233C409.819 220.249 411.756 183.123 413.209 152.938H407.72C377.374 153.261 348.804 153.423 324.753 154.068C326.529 187.32 326.851 216.859 326.851 241.555Z" fill="#A3AEBB"/>
<path d="M427.736 159.072C386.575 159.072 349.611 159.718 312.324 159.718C330.402 140.348 349.933 118.557 368.335 99.3484C387.543 118.234 406.106 140.186 427.736 159.072Z" fill="white"/>
<path d="M312.324 160.686C312.001 160.686 311.678 160.525 311.678 160.202C311.517 159.879 311.678 159.556 311.84 159.395C318.619 152.131 325.722 144.383 332.662 136.797C344.284 124.045 356.39 110.97 367.851 99.0254C368.012 98.8639 368.174 98.864 368.335 98.864C368.497 98.864 368.819 98.8639 368.819 99.0254C376.245 106.289 383.508 113.876 391.095 121.946C402.878 134.375 414.984 147.127 428.059 158.749C428.382 158.91 428.382 159.233 428.22 159.556C428.059 159.879 427.736 160.04 427.413 160.04C406.268 160.04 386.252 160.202 366.882 160.363C348.32 160.525 330.403 160.686 312.324 160.686ZM368.335 100.64C356.875 112.423 345.091 125.336 333.631 137.765C327.174 144.867 320.395 152.131 314.1 159.072C331.694 159.072 348.804 158.91 367.044 158.749C385.768 158.588 405.138 158.426 425.476 158.426C412.886 147.288 401.264 134.86 389.965 122.915C382.54 115.005 375.599 107.742 368.335 100.64Z" fill="#A3AEBB"/>
<path d="M383.508 211.855C374.146 211.855 364.784 211.693 355.422 211.693C354.453 202.17 353.969 192.808 354.13 183.284C363.815 182.8 373.5 182.8 383.831 183.284C383.992 192.646 383.992 201.686 383.508 211.855Z" fill="#B8D4F7"/>
<path d="M383.508 212.662L355.421 212.501C355.099 212.501 354.614 212.178 354.614 211.855C353.484 201.04 353.161 192.001 353.323 183.446C353.323 182.962 353.646 182.639 354.13 182.639C363.815 182.154 373.5 182.154 383.83 182.639C384.315 182.639 384.637 182.962 384.637 183.446C384.799 192.485 384.637 201.524 384.315 212.016C384.315 212.339 383.992 212.662 383.508 212.662ZM356.228 210.886L382.7 211.048C383.023 201.201 383.185 192.646 383.023 184.091C373.177 183.607 363.976 183.607 354.937 184.091C354.937 192.162 355.26 200.717 356.228 210.886Z" fill="#006FFD"/>
<path d="M373.662 133.891C370.433 131.793 365.591 132.762 363.331 135.99C361.071 139.218 362.04 144.222 365.107 146.482C368.173 148.742 373.177 147.935 375.437 144.868C377.858 141.639 377.536 136.474 373.662 133.891Z" fill="white"/>
<path d="M369.465 148.58C367.85 148.58 366.075 148.096 364.784 147.127C361.232 144.545 360.264 139.218 362.847 135.505C365.268 131.954 370.595 130.824 374.146 133.245C376.083 134.537 377.213 136.474 377.697 138.734C378.181 140.993 377.535 143.576 376.244 145.352C374.63 147.45 372.047 148.58 369.465 148.58ZM369.787 133.568C367.528 133.568 365.268 134.537 364.138 136.474C362.201 139.379 363.008 143.899 365.752 145.836C368.496 147.934 373.016 147.127 374.953 144.383C376.083 142.93 376.405 140.993 376.083 139.056C375.76 137.119 374.791 135.667 373.177 134.537C372.209 133.891 370.917 133.568 369.787 133.568Z" fill="#006FFD"/>
<path d="M423.862 243.008C423.378 243.008 423.055 242.685 423.055 242.201C423.378 229.288 423.055 216.536 422.893 205.721C422.893 205.56 422.893 205.237 423.055 205.075C423.216 204.914 423.377 204.914 423.539 204.914C434.354 204.914 445.653 204.914 456.952 204.914C457.113 204.914 457.436 205.075 457.436 205.075C457.598 205.237 457.598 205.398 457.598 205.56C457.598 208.788 457.598 212.016 457.598 215.083C457.598 224.768 457.598 233.807 457.275 241.555C457.275 242.04 456.952 242.362 456.468 242.362C455.983 242.362 455.661 242.04 455.661 241.555C455.983 233.807 455.983 224.768 455.983 215.083C455.983 212.178 455.983 209.434 455.983 206.367C445.33 206.367 434.677 206.367 424.185 206.367C424.346 217.02 424.669 229.449 424.346 242.04C424.669 242.685 424.346 243.008 423.862 243.008Z" fill="#A3AEBB"/>
<path d="M424.508 211.047C424.346 211.047 424.185 210.886 424.185 210.725C424.185 210.563 424.346 210.402 424.508 210.402C435 209.917 445.492 209.756 455.984 209.917C456.145 209.917 456.306 210.079 456.306 210.24C456.306 210.402 456.145 210.563 455.984 210.563C445.492 210.24 435 210.402 424.508 211.047Z" fill="#A3AEBB"/>
<path d="M430.964 215.083C428.704 215.083 426.444 215.083 424.023 215.083C423.862 215.083 423.7 214.921 423.7 214.76C423.7 214.599 423.862 214.437 424.023 214.437C434.838 214.599 445.814 214.437 456.629 213.792C456.79 213.792 456.952 213.953 456.952 214.114C456.952 214.276 456.79 214.437 456.629 214.437C448.074 214.921 439.519 215.083 430.964 215.083Z" fill="#A3AEBB"/>
<path d="M423.862 220.409C423.7 220.409 423.539 220.248 423.539 220.087C423.539 219.925 423.7 219.764 423.862 219.764C434.838 218.957 445.976 218.795 456.952 219.118C457.113 219.118 457.275 219.279 457.275 219.441C457.275 219.602 457.113 219.764 456.952 219.764C445.976 219.279 434.838 219.602 423.862 220.409Z" fill="#A3AEBB"/>
<path d="M424.185 225.414C424.023 225.414 423.862 225.252 423.862 225.091C423.862 224.929 424.023 224.768 424.185 224.768L456.952 223.799C457.113 223.799 457.275 223.961 457.275 224.122C457.275 224.284 457.113 224.445 456.952 224.445L424.185 225.414Z" fill="#A3AEBB"/>
<path d="M435.161 229.61C431.448 229.61 427.574 229.61 423.862 229.61C423.7 229.61 423.539 229.449 423.539 229.287C423.539 229.126 423.7 228.965 423.862 228.965C434.676 228.965 445.814 228.965 456.629 228.803C456.79 228.803 456.952 228.965 456.952 229.126C456.952 229.287 456.79 229.449 456.629 229.449C449.688 229.449 442.424 229.61 435.161 229.61Z" fill="#A3AEBB"/>
<path d="M424.023 233.807C423.862 233.807 423.7 233.646 423.7 233.484C423.7 233.323 423.862 233.161 424.023 233.161H456.145C456.306 233.161 456.467 233.323 456.467 233.484C456.467 233.646 456.306 233.807 456.145 233.807H424.023Z" fill="#A3AEBB"/>
<path d="M439.035 237.843C434.192 237.843 429.188 237.681 424.346 237.52C424.185 237.52 424.023 237.358 424.023 237.197C424.023 237.035 424.185 236.874 424.346 236.874C435.161 237.197 445.976 237.197 456.791 236.713C456.952 236.713 457.113 236.874 457.113 237.035C457.113 237.197 456.952 237.358 456.791 237.358C450.98 237.681 445.007 237.843 439.035 237.843Z" fill="#A3AEBB"/>
<path d="M354.776 192.646C354.615 192.646 354.454 192.485 354.454 192.323C354.454 192.162 354.615 192.001 354.776 192.001C364.3 191.839 373.985 191.678 383.67 191.516C383.831 191.516 383.993 191.678 383.993 191.839C383.993 192.001 383.831 192.162 383.67 192.162C374.146 192.162 364.461 192.323 354.776 192.646Z" fill="#006FFD"/>
<path d="M368.981 211.693C368.819 211.693 368.658 211.532 368.658 211.37L369.142 192.162C369.142 192.001 369.304 191.839 369.465 191.839C369.626 191.839 369.788 192.001 369.788 192.162L369.304 211.37C369.142 211.532 369.142 211.693 368.981 211.693Z" fill="#006FFD"/>
<path d="M370.272 148.418C370.111 148.418 369.949 148.257 369.949 148.095C369.788 143.253 369.304 138.249 368.819 133.407C368.819 133.245 368.981 133.084 368.981 133.084C369.142 133.084 369.304 133.245 369.304 133.245C369.788 138.088 370.272 143.092 370.433 148.095C370.433 148.257 370.433 148.418 370.272 148.418Z" fill="#006FFD"/>
<path d="M362.524 140.67C362.363 140.67 362.201 140.509 362.201 140.348C362.201 140.186 362.363 140.025 362.524 140.025L377.051 139.056C377.213 139.056 377.374 139.218 377.374 139.379C377.374 139.541 377.213 139.702 377.051 139.702L362.524 140.67Z" fill="#006FFD"/>
<path d="M327.013 236.874C326.529 236.874 326.206 236.551 326.206 236.067C326.206 235.583 326.529 235.26 327.013 235.26L411.272 234.291C411.756 234.291 412.079 234.614 412.079 235.098C412.079 235.583 411.756 235.905 411.272 235.905L327.013 236.874Z" fill="#006FFD"/>
<g opacity="0.1294">
<path d="M414.016 162.3C413.854 161.977 413.693 161.654 413.531 161.493C413.531 160.363 412.724 159.233 411.433 159.233C408.528 159.556 405.461 159.233 402.555 159.394C399.65 159.394 396.583 159.717 393.677 160.04C393.032 160.04 392.386 160.04 391.74 160.363C390.933 160.363 390.288 160.363 389.481 160.363C384.638 160.524 379.957 160.363 375.115 160.363C367.851 160.363 360.587 160.524 353.324 160.524C349.127 160.524 344.93 160.202 340.733 160.363C336.052 160.363 331.533 161.009 326.851 160.524C323.785 160.202 323.462 164.883 326.529 165.044C331.855 165.528 337.021 164.883 342.347 164.883C353.485 165.367 364.623 165.044 375.76 164.883C380.441 164.883 385.122 165.044 389.803 165.044C396.26 165.367 402.717 165.69 409.335 165.528C409.657 165.528 409.98 165.528 410.142 165.528C410.303 165.528 410.465 165.528 410.626 165.528C411.272 165.69 411.756 165.528 412.402 165.528C413.531 164.721 414.339 163.43 414.016 162.3Z" fill="#A3AEBB"/>
</g>
<g opacity="0.1294">
<path d="M456.306 205.882C455.822 205.56 455.176 205.56 454.692 205.56C452.916 205.56 451.302 205.56 449.527 205.56C446.137 205.56 442.586 205.398 439.196 205.398C434.838 205.56 430.48 205.56 426.122 205.237C425.153 205.237 424.185 205.075 423.378 205.882C422.086 207.174 423.055 209.595 424.83 209.595C429.673 210.079 434.677 209.918 439.519 209.595C444.2 209.595 449.043 209.918 453.724 209.918C454.369 209.918 455.176 210.079 455.822 209.756C457.759 209.272 457.759 206.69 456.306 205.882Z" fill="#A3AEBB"/>
</g>
<path d="M486.584 222.006C483.701 224.496 481.866 223.972 478.59 221.875C475.314 219.778 473.741 215.585 475.183 212.177C468.106 213.75 461.029 207.984 459.195 201.562C457.884 196.976 459.457 190.948 464.568 189.899C460.243 186.361 459.326 179.677 462.733 175.353C466.14 171.028 473.217 169.718 478.328 172.339C477.541 166.704 480.031 160.938 484.749 157.399C486.453 156.089 488.549 155.04 490.777 154.909C495.364 154.778 499.295 158.71 500.213 162.903C501.13 167.097 499.951 171.29 498.64 175.484C501.654 173.125 507.027 174.173 509.124 177.319C511.221 180.464 510.303 184.919 507.289 187.409C512.007 189.899 514.89 194.879 514.628 199.728C514.366 204.576 510.959 209.163 505.979 211.129C504.668 211.653 502.965 212.177 502.572 213.488C502.309 214.274 503.62 220.04 495.757 223.972C493.267 225.282 489.86 224.234 486.584 222.006Z" fill="white"/>
<path d="M493.398 225.282C491.039 225.282 488.55 224.103 486.584 222.923C483.701 225.282 481.604 224.627 478.197 222.53C474.921 220.564 473.348 216.633 474.134 213.095C473.61 213.095 473.217 213.226 472.693 213.226C466.14 213.226 460.112 207.722 458.54 201.824C457.622 198.81 458.015 195.272 459.588 192.782C460.505 191.341 461.685 190.161 463.257 189.637C459.457 185.706 458.802 179.284 462.209 175.091C465.485 170.897 472.3 169.325 477.542 171.421C477.148 166.048 479.769 160.413 484.225 157.006C486.322 155.433 488.55 154.516 490.646 154.385C495.757 154.254 499.82 158.579 500.737 162.903C501.654 166.704 500.737 170.635 499.689 174.173C500.999 173.649 502.441 173.518 504.013 173.649C506.372 174.042 508.469 175.222 509.648 176.925C511.745 180.071 511.221 184.395 508.338 187.147C512.793 189.899 515.545 194.748 515.283 199.728C515.021 204.839 511.352 209.687 506.241 211.784L505.848 211.915C504.668 212.308 503.489 212.832 503.227 213.75C503.227 213.75 503.227 214.012 503.227 214.143C503.227 215.978 503.227 221.088 496.15 224.496C495.233 225.02 494.316 225.282 493.398 225.282ZM486.584 221.351C486.715 221.351 486.846 221.351 486.977 221.482C490.515 223.709 493.529 224.496 495.626 223.447C502.048 220.302 502.048 215.847 502.048 214.143C502.048 213.75 502.048 213.488 502.179 213.357C502.703 211.915 504.144 211.26 505.586 210.736L505.979 210.605C510.697 208.77 513.973 204.314 514.235 199.728C514.497 195.01 511.614 190.292 507.158 187.933C507.027 187.802 506.896 187.671 506.765 187.409C506.765 187.147 506.896 187.016 507.027 186.885C509.91 184.526 510.697 180.464 508.731 177.712C507.814 176.27 505.979 175.222 504.013 174.96C502.179 174.698 500.344 175.091 499.164 176.008C498.902 176.139 498.64 176.139 498.378 176.008C498.116 175.877 497.985 175.615 498.116 175.353C499.296 171.552 500.606 167.228 499.689 163.165C498.902 159.365 495.495 155.696 491.171 155.696C491.04 155.696 491.04 155.696 490.908 155.696C489.074 155.827 487.108 156.482 485.142 158.054C480.687 161.462 478.197 167.097 478.983 172.47C478.983 172.732 478.852 172.994 478.721 173.125C478.459 173.256 478.328 173.256 478.066 173.125C473.217 170.635 466.534 171.814 463.257 175.877C460.112 179.939 460.899 186.099 464.961 189.506C465.092 189.637 465.223 189.899 465.223 190.161C465.223 190.423 464.961 190.554 464.699 190.685C462.995 191.079 461.685 191.996 460.767 193.568C459.457 195.796 459.064 198.81 459.85 201.562C461.554 207.591 468.237 213.226 475.052 211.784C475.314 211.784 475.576 211.784 475.707 212.046C475.838 212.177 475.838 212.439 475.838 212.701C474.527 215.847 475.969 219.647 478.983 221.613C482.259 223.709 483.701 223.972 486.191 221.744C486.322 221.482 486.453 221.351 486.584 221.351Z" fill="#A3AEBB"/>
<path d="M486.453 242.58C486.059 242.58 485.797 242.318 485.797 241.925C485.404 220.04 485.011 197.369 487.763 175.222C487.763 174.829 488.156 174.566 488.418 174.698C488.811 174.698 489.074 175.091 488.942 175.353C486.19 197.369 486.584 220.04 486.977 241.925C487.108 242.318 486.846 242.58 486.453 242.58Z" fill="#A3AEBB"/>
<path d="M487.501 187.54C487.37 187.54 487.239 187.54 487.108 187.409C486.846 187.278 486.715 186.885 486.846 186.492C488.287 184.264 489.86 182.167 491.695 180.333C491.957 180.071 492.35 180.071 492.612 180.333C492.874 180.595 492.874 180.988 492.612 181.25C490.777 183.085 489.205 185.05 487.894 187.278C487.894 187.409 487.632 187.54 487.501 187.54Z" fill="#A3AEBB"/>
<path d="M486.322 206.673C486.06 206.673 485.798 206.542 485.667 206.28C482.784 199.203 479.901 192.651 474.528 186.885C474.266 186.623 474.266 186.23 474.528 185.967C474.79 185.705 475.183 185.705 475.445 185.967C481.08 191.996 483.832 198.679 486.846 205.756C486.977 206.018 486.846 206.411 486.453 206.542C486.453 206.673 486.322 206.673 486.322 206.673Z" fill="#A3AEBB"/>
<path d="M481.211 195.796C481.08 195.796 480.949 195.796 480.949 195.665C478.59 194.355 475.969 193.437 473.348 193.175C472.955 193.175 472.693 192.782 472.824 192.52C472.824 192.127 473.217 191.865 473.479 191.996C476.362 192.258 479.114 193.306 481.604 194.748C481.866 194.879 481.997 195.272 481.866 195.665C481.604 195.665 481.473 195.796 481.211 195.796Z" fill="#A3AEBB"/>
<path d="M486.584 216.633C486.453 216.633 486.453 216.633 486.322 216.633C486.06 216.502 485.798 216.108 485.929 215.846C489.205 208.246 494.185 201.431 500.344 195.927C500.606 195.665 500.999 195.665 501.261 195.927C501.523 196.189 501.523 196.582 501.261 196.844C495.233 202.217 490.384 208.901 487.239 216.239C487.108 216.371 486.846 216.633 486.584 216.633Z" fill="#A3AEBB"/>
<g opacity="0.1294">
<path d="M502.572 212.832C502.047 211.915 500.737 212.177 500.475 213.094C500.213 214.798 499.951 215.846 499.427 216.895C498.247 218.729 497.33 220.04 496.412 220.564C495.495 221.088 496.019 220.826 494.971 221.088C494.84 221.088 494.84 221.088 494.709 221.088C493.529 221.219 492.35 221.35 491.171 221.219C491.039 221.219 491.039 221.219 490.908 221.219C490.122 221.088 489.336 220.957 488.55 220.564C488.55 220.564 488.55 220.564 488.418 220.564C487.894 220.302 487.37 219.909 486.715 219.778C485.798 219.647 484.487 219.778 484.094 220.695C483.963 220.564 483.832 220.564 483.701 220.433C482.652 219.909 483.177 220.433 481.997 219.909C480.425 219.123 479.9 218.729 478.983 218.074C477.41 216.502 477.148 215.715 477.017 214.274C476.886 213.356 477.148 212.439 476.886 211.522C476.493 210.473 475.314 210.211 474.527 210.735C474.265 210.473 474.003 210.211 473.61 210.08C473.61 210.08 473.61 210.08 473.479 210.08C472.562 209.949 471.644 210.08 470.727 209.949C469.941 209.949 468.499 209.687 467.844 209.294C466.14 208.377 464.961 207.459 464.83 207.197C463.912 206.411 462.995 205.756 462.209 204.707C461.816 204.183 461.292 203.528 460.636 203.528C459.588 203.528 459.064 204.838 459.85 205.494C460.505 206.149 460.505 206.28 461.292 207.328C461.947 208.115 462.733 208.901 463.388 209.556C464.568 210.473 465.747 211.522 467.189 212.177C468.106 212.701 469.285 212.832 470.334 212.963C470.858 213.094 471.382 212.963 471.906 213.094C472.562 213.225 473.217 213.225 473.741 213.094C473.741 216.764 474.921 219.385 478.197 221.612C479.507 222.53 482.783 224.495 484.094 223.054C484.356 222.792 484.487 222.53 484.487 222.268C484.88 222.53 485.404 222.792 485.929 222.53C486.06 222.53 486.06 222.399 486.191 222.399C486.453 222.53 487.108 222.923 487.37 223.054C489.467 224.102 491.826 224.233 493.922 223.709C495.495 223.447 496.937 223.185 498.116 222.137C498.902 221.481 499.427 220.695 500.082 219.909C500.868 218.86 501.523 217.55 501.916 216.239C502.178 215.584 502.179 214.798 502.31 214.143C502.703 213.881 502.834 213.356 502.572 212.832Z" fill="#A3AEBB"/>
</g>
<rect x="278.401" y="377.93" width="91.5753" height="53.1451" rx="13.0146" fill="#EAF2FF"/>
<path d="M304.082 411.503V397.372H309.381C310.467 397.372 311.378 397.574 312.114 397.979C312.854 398.384 313.413 398.94 313.79 399.649C314.172 400.352 314.363 401.153 314.363 402.05C314.363 402.956 314.172 403.761 313.79 404.465C313.409 405.168 312.845 405.723 312.1 406.128C311.355 406.528 310.437 406.728 309.347 406.728H305.835V404.623H309.002C309.637 404.623 310.156 404.513 310.561 404.292C310.966 404.071 311.265 403.768 311.458 403.381C311.656 402.995 311.755 402.551 311.755 402.05C311.755 401.548 311.656 401.107 311.458 400.725C311.265 400.343 310.964 400.046 310.554 399.835C310.15 399.619 309.627 399.511 308.988 399.511H306.642V411.503H304.082ZM320.947 411.71C319.912 411.71 319.015 411.482 318.256 411.026C317.497 410.571 316.909 409.934 316.49 409.115C316.076 408.296 315.869 407.34 315.869 406.245C315.869 405.15 316.076 404.191 316.49 403.368C316.909 402.544 317.497 401.905 318.256 401.449C319.015 400.994 319.912 400.766 320.947 400.766C321.982 400.766 322.879 400.994 323.638 401.449C324.397 401.905 324.984 402.544 325.398 403.368C325.816 404.191 326.026 405.15 326.026 406.245C326.026 407.34 325.816 408.296 325.398 409.115C324.984 409.934 324.397 410.571 323.638 411.026C322.879 411.482 321.982 411.71 320.947 411.71ZM320.961 409.709C321.522 409.709 321.992 409.554 322.369 409.246C322.746 408.934 323.026 408.515 323.21 407.991C323.399 407.466 323.493 406.882 323.493 406.238C323.493 405.589 323.399 405.003 323.21 404.478C323.026 403.949 322.746 403.529 322.369 403.216C321.992 402.903 321.522 402.747 320.961 402.747C320.386 402.747 319.908 402.903 319.526 403.216C319.149 403.529 318.866 403.949 318.677 404.478C318.493 405.003 318.401 405.589 318.401 406.238C318.401 406.882 318.493 407.466 318.677 407.991C318.866 408.515 319.149 408.934 319.526 409.246C319.908 409.554 320.386 409.709 320.961 409.709ZM336.522 403.706L334.245 403.954C334.181 403.724 334.068 403.508 333.907 403.305C333.751 403.103 333.539 402.94 333.272 402.816C333.005 402.691 332.679 402.629 332.292 402.629C331.773 402.629 331.336 402.742 330.981 402.967C330.632 403.193 330.459 403.485 330.464 403.844C330.459 404.152 330.572 404.403 330.802 404.596C331.037 404.789 331.423 404.948 331.961 405.072L333.769 405.458C334.772 405.674 335.517 406.017 336.005 406.486C336.497 406.956 336.745 407.57 336.75 408.329C336.745 408.996 336.55 409.584 336.163 410.095C335.782 410.601 335.25 410.997 334.569 411.282C333.889 411.567 333.107 411.71 332.223 411.71C330.926 411.71 329.882 411.438 329.091 410.895C328.3 410.348 327.828 409.587 327.676 408.612L330.112 408.377C330.223 408.855 330.457 409.216 330.816 409.46C331.175 409.704 331.642 409.826 332.217 409.826C332.81 409.826 333.286 409.704 333.645 409.46C334.008 409.216 334.19 408.915 334.19 408.556C334.19 408.253 334.073 408.002 333.838 407.804C333.608 407.606 333.249 407.455 332.762 407.349L330.954 406.969C329.937 406.758 329.185 406.401 328.698 405.9C328.21 405.394 327.969 404.754 327.973 403.982C327.969 403.328 328.146 402.763 328.504 402.284C328.868 401.801 329.372 401.429 330.016 401.167C330.664 400.9 331.412 400.766 332.258 400.766C333.5 400.766 334.477 401.031 335.19 401.56C335.908 402.089 336.352 402.804 336.522 403.706ZM344.102 400.904V402.836H338.009V400.904H344.102ZM339.513 398.365H342.011V408.315C342.011 408.651 342.062 408.908 342.163 409.088C342.269 409.262 342.407 409.382 342.577 409.446C342.747 409.511 342.936 409.543 343.143 409.543C343.299 409.543 343.442 409.531 343.57 409.508C343.704 409.485 343.805 409.465 343.874 409.446L344.295 411.399C344.161 411.445 343.971 411.496 343.722 411.551C343.478 411.606 343.179 411.638 342.825 411.647C342.2 411.666 341.636 411.572 341.135 411.365C340.633 411.153 340.235 410.826 339.941 410.385C339.651 409.943 339.509 409.391 339.513 408.729V398.365Z" fill="#006FFD"/>
</g>
<path d="M261.624 407.493C261.586 407.942 261.371 408.357 261.027 408.647C260.683 408.937 260.237 409.079 259.788 409.041L254.149 408.56C253.7 408.522 253.285 408.307 252.994 407.963C252.704 407.618 252.563 407.173 252.601 406.724C252.639 406.275 252.854 405.86 253.198 405.57C253.543 405.28 253.988 405.138 254.437 405.176L260.077 405.657C260.525 405.695 260.941 405.91 261.231 406.254C261.521 406.599 261.663 407.044 261.624 407.493ZM258.099 396.331C258.389 396.675 258.53 397.121 258.492 397.569C258.454 398.017 258.239 398.432 257.895 398.722L253.611 402.334C253.442 402.487 253.244 402.604 253.029 402.679C252.813 402.754 252.585 402.785 252.357 402.769C252.13 402.754 251.908 402.693 251.704 402.59C251.501 402.487 251.32 402.344 251.173 402.169C251.026 401.995 250.916 401.793 250.849 401.575C250.782 401.357 250.759 401.128 250.782 400.901C250.806 400.674 250.875 400.454 250.985 400.255C251.095 400.055 251.244 399.88 251.424 399.739L255.708 396.127C256.052 395.838 256.497 395.696 256.946 395.734C257.394 395.773 257.809 395.987 258.099 396.331V396.331ZM256.262 417.898C255.917 418.187 255.472 418.329 255.024 418.291C254.575 418.252 254.161 418.038 253.87 417.694L250.259 413.41C250.106 413.241 249.988 413.043 249.914 412.827C249.839 412.612 249.808 412.383 249.824 412.156C249.839 411.928 249.9 411.706 250.003 411.503C250.106 411.299 250.249 411.119 250.423 410.972C250.598 410.825 250.8 410.715 251.018 410.647C251.236 410.58 251.465 410.558 251.692 410.581C251.919 410.604 252.138 410.673 252.338 410.783C252.538 410.894 252.713 411.043 252.854 411.222L256.465 415.506C256.755 415.851 256.896 416.296 256.858 416.744C256.82 417.193 256.605 417.607 256.262 417.898V417.898ZM247.694 390.968C248.143 391.006 248.558 391.221 248.849 391.566C249.139 391.91 249.28 392.356 249.242 392.804L248.762 398.444C248.724 398.893 248.509 399.308 248.164 399.598C247.82 399.889 247.374 400.03 246.926 399.992C246.477 399.954 246.062 399.739 245.771 399.394C245.481 399.05 245.34 398.605 245.378 398.156L245.858 392.516C245.897 392.067 246.112 391.652 246.456 391.362C246.8 391.072 247.246 390.93 247.694 390.968ZM246.718 409.466C248.539 407.678 247.421 404.579 244.879 404.362L219.445 402.195C216.716 401.963 215.138 405.225 217.018 407.219L223.109 413.678C223.751 414.36 224.087 415.27 224.046 416.205L223.656 424.897C223.534 427.607 226.798 429.062 228.735 427.159L246.718 409.468L246.718 409.466ZM220.226 405.67L243.701 407.67L227.094 424.006L227.44 416.355C227.48 415.439 227.337 414.524 227.017 413.664C226.698 412.804 226.209 412.018 225.58 411.35L220.226 405.67Z" fill="#636464"/>
<rect x="0.5" y="13.8533" width="234.164" height="302.653" rx="19.8963" fill="white"/>
<rect x="16.4231" y="187.134" width="129.258" height="7.49324" rx="3.74662" fill="#D9D9D9"/>
<rect x="16.4231" y="205.867" width="113.335" height="3.74662" rx="1.87331" fill="#D9D9D9"/>
<rect x="16.4231" y="220.854" width="192.951" height="2.80996" rx="1.40498" fill="#D9D9D9"/>
<rect x="16.4231" y="234.904" width="192.951" height="3.74662" rx="1.87331" fill="#D9D9D9"/>
<rect opacity="0.2" x="16.686" y="41.0754" width="197.177" height="115.51" rx="15.4504" fill="#A3AEBB"/>
<path d="M112.873 51.2579L111.957 155.696H166.925L167.612 51.4869L112.873 51.2579Z" fill="white"/>
<path d="M166.925 156.269H111.957C111.843 156.269 111.614 156.154 111.614 156.154C111.499 156.04 111.499 155.925 111.499 155.811L112.301 51.3724C112.301 51.0288 112.53 50.7998 112.873 50.7998L167.612 51.0288C167.726 51.0288 167.955 51.1434 167.955 51.1434C168.07 51.2579 168.07 51.3724 168.07 51.4869L167.383 155.582C167.497 156.04 167.268 156.269 166.925 156.269ZM112.53 155.124H166.352L167.039 52.0595L113.446 51.8304L112.53 155.124Z" fill="#636464"/>
<path d="M133.83 84.6965C130.394 84.6965 126.386 84.5821 122.951 84.4675C122.951 81.0321 122.951 77.253 122.951 73.5885C126.501 73.3595 130.051 73.3595 133.83 73.5885C134.059 77.253 133.944 80.803 133.83 84.6965Z" fill="#006FFD"/>
<path d="M133.83 85.269C132.112 85.269 130.28 85.269 128.448 85.1545C126.615 85.1545 124.783 85.04 123.065 85.04C122.722 85.04 122.493 84.811 122.493 84.4674V83.5513C122.493 80.3448 122.493 76.9094 122.493 73.5884C122.493 73.2449 122.722 73.0158 123.065 73.0158C126.615 72.7868 130.165 72.7868 134.059 73.0158C134.402 73.0158 134.631 73.2449 134.631 73.5884C134.746 77.0239 134.631 80.5739 134.517 84.6964C134.402 85.04 134.173 85.269 133.83 85.269ZM123.523 84.0093C125.126 84.0093 126.73 84.0093 128.448 84.1239C130.051 84.1239 131.768 84.2384 133.257 84.2384C133.372 80.5739 133.372 77.3674 133.372 74.2755C129.936 74.161 126.73 74.161 123.523 74.2755C123.523 77.3674 123.523 80.5739 123.523 83.6658V84.0093Z" fill="#636464"/>
<path d="M156.504 84.6965C153.068 84.6965 149.06 84.5821 145.625 84.4675C145.625 81.0321 145.625 77.253 145.625 73.5885C149.175 73.3595 152.724 73.3595 156.504 73.5885C156.733 77.253 156.618 80.803 156.504 84.6965Z" fill="#006FFD"/>
<path d="M156.504 85.269C154.786 85.269 152.954 85.269 151.121 85.1545C149.289 85.1545 147.457 85.04 145.739 85.04C145.396 85.04 145.167 84.811 145.167 84.4674V83.5513C145.167 80.3448 145.167 76.9094 145.167 73.5884C145.167 73.2449 145.396 73.0158 145.739 73.0158C149.289 72.7868 152.839 72.7868 156.733 73.0158C157.076 73.0158 157.305 73.2449 157.305 73.5884C157.42 77.0239 157.305 80.5739 157.191 84.6964C157.076 85.04 156.847 85.269 156.504 85.269ZM146.197 84.0093C147.8 84.0093 149.404 84.0093 151.121 84.1239C152.725 84.1239 154.442 84.2384 155.931 84.2384C156.046 80.5739 156.046 77.3674 156.046 74.2755C152.61 74.161 149.404 74.161 146.197 74.2755C146.197 77.3674 146.197 80.5739 146.197 83.6658V84.0093Z" fill="#636464"/>
<path d="M133.486 107.943C130.05 107.943 126.042 107.829 122.607 107.714C122.607 104.279 122.607 100.5 122.607 96.8353C126.157 96.6063 129.707 96.6063 133.486 96.8353C133.715 100.5 133.715 104.05 133.486 107.943Z" fill="#006FFD"/>
<path d="M133.486 108.516C131.768 108.516 129.936 108.516 128.104 108.401C126.272 108.401 124.439 108.287 122.722 108.287C122.378 108.287 122.149 108.058 122.149 107.714V106.798C122.149 103.592 122.149 100.156 122.149 96.8352C122.149 96.4917 122.378 96.2627 122.722 96.2627C126.272 96.0336 129.822 96.0336 133.715 96.2627C134.059 96.2627 134.288 96.4917 134.288 96.8352C134.402 100.271 134.288 103.821 134.173 107.943C134.059 108.287 133.83 108.516 133.486 108.516ZM123.294 107.256C124.898 107.256 126.501 107.256 128.218 107.371C129.822 107.371 131.539 107.485 133.028 107.485C133.143 103.821 133.143 100.614 133.143 97.5223C129.707 97.4078 126.501 97.4078 123.294 97.5223C123.294 100.614 123.294 103.821 123.294 106.913V107.256Z" fill="#636464"/>
<path d="M156.16 107.943C152.725 107.943 148.717 107.829 145.281 107.714C145.281 104.279 145.281 100.5 145.281 96.8353C148.831 96.6063 152.381 96.6063 156.16 96.8353C156.389 100.5 156.389 104.05 156.16 107.943Z" fill="#006FFD"/>
<path d="M156.16 108.516C154.443 108.516 152.61 108.516 150.778 108.401C148.946 108.401 147.114 108.287 145.396 108.287C145.052 108.287 144.823 108.058 144.823 107.714V106.798C144.823 103.592 144.823 100.156 144.823 96.8352C144.823 96.4917 145.052 96.2627 145.396 96.2627C148.946 96.0336 152.496 96.0336 156.389 96.2627C156.733 96.2627 156.962 96.4917 156.962 96.8352C157.076 100.271 156.962 103.821 156.847 107.943C156.733 108.287 156.504 108.516 156.16 108.516ZM145.968 107.256C147.572 107.256 149.175 107.256 150.893 107.371C152.496 107.371 154.214 107.485 155.702 107.485C155.817 103.821 155.817 100.614 155.817 97.5223C152.381 97.4078 149.175 97.4078 145.968 97.5223C145.968 100.614 145.968 103.821 145.968 106.913V107.256Z" fill="#636464"/>
<path d="M133.486 131.304C130.05 131.304 126.042 131.19 122.607 131.075C122.607 127.64 122.607 123.861 122.607 120.196C126.157 119.967 129.707 119.967 133.486 120.196C133.715 123.746 133.715 127.296 133.486 131.304Z" fill="#006FFD"/>
<path d="M133.486 131.877C131.768 131.877 129.936 131.877 128.104 131.762C126.272 131.762 124.439 131.648 122.722 131.648C122.378 131.648 122.149 131.419 122.149 131.075V130.159C122.149 126.953 122.149 123.517 122.149 120.196C122.149 119.853 122.378 119.624 122.722 119.624C126.272 119.395 129.822 119.395 133.715 119.624C134.059 119.624 134.288 119.853 134.288 120.196C134.402 123.632 134.288 127.182 134.173 131.304C134.059 131.533 133.83 131.877 133.486 131.877ZM123.294 130.503C124.898 130.503 126.501 130.503 128.218 130.617C129.822 130.617 131.539 130.732 133.028 130.732C133.143 127.067 133.143 123.861 133.143 120.769C129.707 120.654 126.501 120.654 123.294 120.769C123.294 123.861 123.294 127.067 123.294 130.159V130.503Z" fill="#636464"/>
<path d="M156.16 131.304C152.725 131.304 148.717 131.19 145.281 131.075C145.281 127.64 145.281 123.861 145.281 120.196C148.831 119.967 152.381 119.967 156.16 120.196C156.389 123.746 156.389 127.296 156.16 131.304Z" fill="#006FFD"/>
<path d="M156.16 131.877C154.443 131.877 152.61 131.877 150.778 131.762C148.946 131.762 147.114 131.648 145.396 131.648C145.052 131.648 144.823 131.419 144.823 131.075V130.159C144.823 126.953 144.823 123.517 144.823 120.196C144.823 119.853 145.052 119.624 145.396 119.624C148.946 119.395 152.496 119.395 156.389 119.624C156.733 119.624 156.962 119.853 156.962 120.196C157.076 123.632 156.962 127.182 156.847 131.304C156.733 131.533 156.504 131.877 156.16 131.877ZM145.968 130.503C147.572 130.503 149.175 130.503 150.893 130.617C152.496 130.617 154.214 130.732 155.702 130.732C155.817 127.067 155.817 123.861 155.817 120.769C152.381 120.654 149.175 120.654 145.968 120.769C145.968 123.861 145.968 127.067 145.968 130.159V130.503Z" fill="#636464"/>
<path d="M167.154 57.7853C148.831 57.2127 130.509 57.0982 112.759 57.4418C112.415 57.4418 112.186 57.2128 112.186 56.8692C112.186 56.5257 112.415 56.2966 112.759 56.2966C130.509 55.8386 148.831 55.9531 167.154 56.6402C167.497 56.6402 167.726 56.8692 167.726 57.2127C167.726 57.5563 167.497 57.7853 167.154 57.7853Z" fill="#636464"/>
<path d="M133.486 77.5964L123.18 77.4819C123.065 77.4819 122.951 77.3673 122.951 77.2528C122.951 77.1383 123.065 77.0238 123.18 77.0238L133.486 77.1383C133.601 77.1383 133.715 77.2528 133.715 77.3674C133.715 77.4819 133.601 77.5964 133.486 77.5964Z" fill="#EDEFF1"/>
<path d="M156.503 77.5964C153.984 77.4819 151.121 77.4819 148.258 77.4819C147.342 77.4819 146.54 77.4819 145.624 77.4819C145.51 77.4819 145.395 77.3673 145.395 77.2528C145.395 77.1383 145.51 77.0238 145.624 77.0238C146.426 77.0238 147.342 77.0238 148.258 77.0238C151.121 77.0238 154.098 77.0238 156.618 77.1383C156.732 77.1383 156.847 77.2528 156.847 77.3674C156.732 77.4819 156.618 77.5964 156.503 77.5964Z" fill="#EDEFF1"/>
<path d="M133.257 100.385C131.769 100.385 130.051 100.385 128.333 100.385C126.615 100.385 124.783 100.385 123.18 100.385C123.065 100.385 122.951 100.271 122.951 100.156C122.951 100.042 123.065 100.042 123.18 99.9272C124.783 100.042 126.501 99.9272 128.333 99.9272C130.051 99.9272 131.883 99.9272 133.372 99.9272C133.486 99.9272 133.601 100.042 133.601 100.156C133.372 100.385 133.372 100.385 133.257 100.385Z" fill="#EDEFF1"/>
<path d="M156.16 100.385C153.755 100.271 149.862 100.271 145.739 100.271C145.625 100.271 145.51 100.156 145.51 100.042C145.51 99.9271 145.625 99.8126 145.739 99.8126C149.976 99.8126 153.755 99.8126 156.16 99.9271C156.275 99.9271 156.389 100.042 156.389 100.156C156.275 100.271 156.16 100.385 156.16 100.385Z" fill="#EDEFF1"/>
<path d="M128.562 123.517C126.615 123.517 124.668 123.517 122.836 123.403C122.721 123.403 122.607 123.288 122.607 123.174C122.607 123.059 122.721 123.059 122.836 122.945C125.47 123.059 128.218 123.059 130.852 123.059C131.654 123.059 132.341 123.059 133.142 123.059C133.257 123.059 133.371 123.174 133.371 123.288C133.371 123.403 133.257 123.517 133.142 123.517C132.341 123.517 131.654 123.517 130.852 123.517C130.05 123.517 129.249 123.517 128.562 123.517Z" fill="#EDEFF1"/>
<path d="M145.624 123.403C145.51 123.403 145.395 123.288 145.395 123.174C145.395 123.059 145.51 122.945 145.624 122.945C149.06 122.83 152.61 122.83 156.16 122.83C156.274 122.83 156.389 122.945 156.389 123.059C156.389 123.174 156.274 123.288 156.16 123.288C152.61 123.288 149.06 123.288 145.624 123.403Z" fill="#EDEFF1"/>
<g opacity="0.1294">
<path d="M166.467 57.0982C166.009 57.0982 165.665 57.0982 165.207 57.0982C163.719 57.0982 162.115 57.0982 160.627 56.9837C156.848 56.7546 148.602 56.5256 143.22 56.7546C139.098 56.5256 134.975 56.5256 130.852 56.4111C127.532 56.4111 124.211 56.5256 120.89 56.5256C118.485 56.5256 116.08 56.5256 113.79 56.7546C111.728 56.7546 111.728 60.0756 113.79 60.1901C116.882 59.732 119.974 59.8465 123.065 59.8465C128.219 59.8465 133.257 59.8466 138.411 59.9611C143.793 60.1901 149.175 60.1901 154.557 60.1901C156.046 60.1901 157.535 60.4191 159.023 60.3046C160.856 60.3046 160.627 60.3046 162.23 60.3046C163.604 60.4191 164.978 60.4191 166.238 60.3046C166.123 60.3046 166.009 60.3046 165.894 60.4191C166.925 60.5336 167.956 60.0756 167.956 58.8159C167.956 57.8998 167.268 57.0982 166.467 57.0982Z" fill="#636464"/>
</g>
<path d="M47.7205 154.093C74.9752 153.635 102.23 153.75 129.37 154.322C129.37 134.74 129.714 115.158 130.057 95.8047C121.583 95.0031 112.994 94.8886 104.749 95.8047C104.52 86.6435 104.52 77.5967 104.978 68.3209C95.3591 68.6645 85.7397 68.6645 76.4639 67.9774C75.8914 61.9081 75.7769 55.7242 76.3494 49.7694C67.0737 48.9678 57.6834 48.9678 48.1785 48.9678C47.606 84.2386 47.606 119.509 47.7205 154.093Z" fill="white"/>
<path d="M129.37 154.895C99.4814 154.322 72.7993 154.208 47.7203 154.666C47.6058 154.666 47.3767 154.666 47.2622 154.551C47.1477 154.437 47.1477 154.322 47.1477 154.208C46.9187 115.616 47.1477 81.2612 47.6058 49.0822C47.6058 48.7387 47.8348 48.5096 48.1784 48.5096C57.6832 48.5096 67.0735 48.5096 76.3492 49.3113C76.4638 49.3113 76.6928 49.4258 76.6928 49.5403C76.8073 49.6548 76.8073 49.7693 76.8073 49.9984C76.2347 55.1516 76.2347 60.8774 76.8073 67.6338C84.8234 68.2064 93.9847 68.3209 104.749 67.9773C104.864 67.9773 105.093 67.9773 105.207 68.0919C105.322 68.2064 105.322 68.3209 105.322 68.5499C104.978 76.795 104.864 85.3837 105.093 95.4611C112.765 94.6595 121.125 94.6595 129.943 95.4611C130.286 95.4611 130.401 95.6902 130.401 96.0337C130.286 100.729 130.286 105.424 130.172 110.119C129.943 124.663 129.714 139.664 129.714 154.551C129.714 154.666 129.599 154.895 129.599 154.895C129.714 154.78 129.599 154.895 129.37 154.895ZM82.075 153.292C96.8476 153.292 112.422 153.406 128.912 153.75C128.912 139.092 129.141 124.205 129.37 109.89C129.485 105.424 129.485 100.843 129.599 96.3773C120.781 95.5756 112.536 95.5756 104.864 96.4918C104.749 96.4918 104.52 96.4918 104.406 96.3773C104.291 96.2627 104.177 96.1482 104.177 95.9192C103.948 85.8418 103.948 77.2531 104.291 69.008C93.5266 69.3515 84.3653 69.237 76.3492 68.5499C76.1202 68.5499 75.8912 68.3209 75.8912 68.0919C75.3186 61.4499 75.3186 55.6096 75.7767 50.3419C66.8444 49.6548 57.9122 49.6548 48.8654 49.6548C48.2929 81.4902 48.1784 115.501 48.4074 153.635C59.1719 153.292 70.3944 153.292 82.075 153.292Z" fill="#636464"/>
<path d="M71.9986 95.4613C68.5631 95.4613 64.5551 95.3468 61.2341 95.2323C61.2341 91.9113 61.2341 88.3613 61.2341 84.9259C64.7841 84.6968 68.3341 84.6968 72.1131 84.9259C72.1131 88.3613 72.1131 91.6823 71.9986 95.4613Z" fill="#B8D4F7"/>
<path d="M71.9987 96.0338C70.281 96.0338 68.4487 96.0338 66.6164 95.9193C64.7842 95.9193 62.9519 95.8047 61.2342 95.8047C60.8907 95.8047 60.6616 95.5757 60.6616 95.2322V94.316C60.6616 91.2241 60.6616 88.0177 60.6616 84.9257C60.6616 84.5822 60.8907 84.3532 61.2342 84.3532C64.7842 84.1241 68.3342 84.1241 72.1132 84.3532C72.4567 84.3532 72.6858 84.5822 72.6858 84.9257C72.8003 88.2467 72.6858 91.5677 72.5713 95.4612C72.4568 95.6902 72.2277 96.0338 71.9987 96.0338ZM61.6923 94.6596C63.2955 94.6596 64.8987 94.6596 66.5019 94.7741C68.1052 94.7741 69.8229 94.8886 71.3116 94.8886C71.4261 91.4531 71.4261 88.4757 71.4261 85.4983C67.9906 85.3838 64.7842 85.3838 61.6923 85.4983C61.6923 88.4757 61.6923 91.4532 61.6923 94.4306V94.6596Z" fill="#636464"/>
<path d="M94.5579 95.4613C91.1225 95.4613 87.1144 95.3468 83.7935 95.2323C83.7935 91.9113 83.7935 88.3613 83.7935 84.9259C87.3434 84.6968 90.8934 84.6968 94.6725 84.9259C94.787 88.3613 94.6725 91.6823 94.5579 95.4613Z" fill="#B8D4F7"/>
<path d="M94.5583 96.0338C92.8405 96.0338 91.0083 96.0338 89.176 95.9193C87.3438 95.9193 85.5115 95.8047 83.7938 95.8047C83.4502 95.8047 83.2212 95.5757 83.2212 95.2322V94.316C83.2212 91.2241 83.2212 88.0177 83.2212 84.9257C83.2212 84.5822 83.4502 84.3532 83.7938 84.3532C87.3438 84.1241 90.8938 84.1241 94.6728 84.3532C95.0163 84.3532 95.2454 84.5822 95.2454 84.9257C95.3599 88.2467 95.2454 91.5677 95.1308 95.4612C95.1308 95.6902 94.9018 96.0338 94.5583 96.0338ZM84.3663 94.6596C85.9696 94.6596 87.5728 94.6596 89.176 94.7741C90.7792 94.7741 92.497 94.8886 93.9857 94.8886C94.1002 91.4531 94.1002 88.4757 94.1002 85.4983C90.6647 85.3838 87.4583 85.3838 84.3663 85.4983C84.3663 88.4757 84.3663 91.4532 84.3663 94.4306V94.6596Z" fill="#636464"/>
<path d="M71.6551 117.448C68.2196 117.448 64.2116 117.334 60.8906 117.219C60.8906 113.898 60.8906 110.348 60.8906 106.913C64.4406 106.684 67.9906 106.684 71.7696 106.913C71.8841 110.348 71.7696 113.784 71.6551 117.448Z" fill="#B8D4F7"/>
<path d="M71.6544 118.021C69.9367 118.021 68.1045 118.021 66.2722 117.906C64.4399 117.906 62.6077 117.792 60.89 117.792C60.5464 117.792 60.3174 117.563 60.3174 117.219V116.303C60.3174 113.211 60.3174 110.005 60.3174 106.913C60.3174 106.569 60.5464 106.34 60.89 106.34C64.44 106.111 67.9899 106.111 71.769 106.34C72.1125 106.34 72.3415 106.569 72.3415 106.913C72.4561 110.234 72.3415 113.555 72.227 117.448C72.227 117.792 71.998 118.021 71.6544 118.021ZM61.348 116.761C62.9512 116.761 64.5545 116.761 66.2722 116.876C67.8754 116.876 69.5932 116.99 71.0819 116.99C71.1964 113.555 71.1964 110.577 71.1964 107.6C67.7609 107.485 64.5545 107.485 61.4625 107.6C61.4625 110.577 61.4625 113.555 61.4625 116.532L61.348 116.761Z" fill="#636464"/>
<path d="M94.2142 117.448C90.7787 117.448 86.7707 117.334 83.4497 117.219C83.4497 113.898 83.4497 110.348 83.4497 106.913C86.9997 106.684 90.5497 106.684 94.3287 106.913C94.4432 110.348 94.4432 113.784 94.2142 117.448Z" fill="#B8D4F7"/>
<path d="M94.214 118.021C92.4963 118.021 90.664 118.021 88.8318 117.906C86.9995 117.906 85.1673 117.792 83.4495 117.792C83.106 117.792 82.877 117.563 82.877 117.219V116.303C82.877 113.211 82.877 110.005 82.877 106.913C82.877 106.569 83.106 106.34 83.4495 106.34C86.9995 106.111 90.5495 106.111 94.3285 106.34C94.6721 106.34 94.9011 106.569 94.9011 106.913C95.0156 110.234 94.9011 113.555 94.7866 117.448C94.7866 117.792 94.5576 118.021 94.214 118.021ZM84.0221 116.761C85.6253 116.761 87.2286 116.761 88.9463 116.876C90.5495 116.876 92.2672 116.99 93.756 116.99C93.8705 113.555 93.8705 110.577 93.8705 107.6C90.435 107.485 87.2286 107.485 84.1366 107.6C84.1366 110.577 84.1366 113.555 84.1366 116.418L84.0221 116.761Z" fill="#636464"/>
<path d="M71.6551 139.55C68.2196 139.55 64.2116 139.435 60.8906 139.321C60.8906 136 60.8906 132.45 60.8906 129.014C64.4406 128.785 67.9906 128.785 71.7696 129.014C71.8841 132.45 71.7696 135.771 71.6551 139.55Z" fill="#B8D4F7"/>
<path d="M71.6544 140.122C69.9367 140.122 68.1045 140.122 66.2722 140.008C64.4399 140.008 62.6077 139.893 60.89 139.893C60.5464 139.893 60.3174 139.664 60.3174 139.321V138.405C60.3174 135.313 60.3174 132.106 60.3174 129.014C60.3174 128.671 60.5464 128.442 60.89 128.442C64.44 128.213 67.9899 128.213 71.769 128.442C72.1125 128.442 72.3415 128.671 72.3415 129.014C72.4561 132.335 72.3415 135.656 72.227 139.55C72.227 139.893 71.998 140.122 71.6544 140.122ZM61.348 138.863C62.9512 138.863 64.5545 138.863 66.1577 138.977C67.7609 138.977 69.4786 139.092 70.9673 139.092C71.0819 135.656 71.0819 132.679 71.0819 129.701C67.6464 129.587 64.44 129.587 61.348 129.701C61.348 132.679 61.348 135.656 61.348 138.634V138.863Z" fill="#636464"/>
<path d="M94.2142 139.55C90.7787 139.55 86.7707 139.435 83.4497 139.321C83.4497 136 83.4497 132.45 83.4497 129.014C86.9997 128.785 90.5497 128.785 94.3287 129.014C94.4432 132.45 94.4432 135.771 94.2142 139.55Z" fill="#B8D4F7"/>
<path d="M94.214 140.122C92.4963 140.122 90.664 140.122 88.8318 140.008C86.9995 140.008 85.1673 139.893 83.4495 139.893C83.106 139.893 82.877 139.664 82.877 139.321V138.405C82.877 135.313 82.877 132.106 82.877 129.014C82.877 128.671 83.106 128.442 83.4495 128.442C86.9995 128.213 90.5495 128.213 94.3285 128.442C94.6721 128.442 94.9011 128.671 94.9011 129.014C95.0156 132.335 94.9011 135.656 94.7866 139.55C94.7866 139.893 94.5576 140.122 94.214 140.122ZM84.0221 138.863C85.6253 138.863 87.2286 138.863 88.8318 138.977C90.435 138.977 92.1527 139.092 93.6414 139.092C93.756 135.656 93.756 132.679 93.756 129.701C90.3205 129.587 87.114 129.587 84.0221 129.701C84.0221 132.679 84.0221 135.656 84.0221 138.519V138.863Z" fill="#636464"/>
<path d="M71.6544 88.7047L61.3479 88.5901C61.2334 88.5901 61.1189 88.4756 61.1189 88.3611C61.1189 88.2466 61.2334 88.1321 61.3479 88.1321L71.6544 88.2466C71.7689 88.2466 71.8834 88.3611 71.8834 88.4756C71.8834 88.5901 71.7689 88.7047 71.6544 88.7047Z" fill="#636464"/>
<path d="M94.5577 88.7047C92.0384 88.5901 89.1755 88.5901 86.3126 88.5901C85.3965 88.5901 84.5949 88.5901 83.6787 88.5901C83.5642 88.5901 83.4497 88.4756 83.4497 88.3611C83.4497 88.2466 83.5642 88.1321 83.6787 88.1321C84.4804 88.1321 85.3965 88.1321 86.3126 88.1321C89.1755 88.1321 92.1529 88.1321 94.5577 88.2466C94.6723 88.2466 94.7868 88.3611 94.7868 88.4756C94.7868 88.5901 94.6723 88.7047 94.5577 88.7047Z" fill="#636464"/>
<path d="M71.3113 110.348C69.8226 110.348 68.1049 110.348 66.3871 110.348C64.6694 110.348 62.8371 110.348 61.2339 110.348C61.1194 110.348 61.0049 110.234 61.0049 110.119C61.0049 110.005 61.1194 109.89 61.2339 109.89C62.8371 109.89 64.5549 109.89 66.3871 109.89C68.1049 109.89 69.8226 109.89 71.3113 109.89C71.4258 109.89 71.5403 110.005 71.5403 110.119C71.5403 110.234 71.4258 110.348 71.3113 110.348Z" fill="#636464"/>
<path d="M94.2142 110.234C91.8094 110.119 87.9158 110.119 83.7932 110.119C83.6787 110.119 83.5642 110.005 83.5642 109.89C83.5642 109.776 83.6787 109.661 83.7932 109.661C85.74 109.661 90.7787 109.661 94.2142 109.776C94.3287 109.776 94.4432 109.89 94.4432 110.005C94.3287 110.234 94.3287 110.234 94.2142 110.234Z" fill="#636464"/>
<path d="M66.6164 132.221C64.6697 132.221 62.7229 132.221 60.8907 132.106C60.7761 132.106 60.6616 131.992 60.6616 131.877C60.6616 131.763 60.7761 131.648 60.8907 131.648C63.5245 131.763 66.2729 131.763 68.9068 131.763C69.7084 131.763 70.3955 131.763 71.1971 131.763C71.3116 131.763 71.4261 131.877 71.4261 131.992C71.4261 132.106 71.3116 132.221 71.1971 132.221C70.3955 132.221 69.7084 132.221 68.9068 132.221C68.2197 132.221 67.4181 132.221 66.6164 132.221Z" fill="#636464"/>
<path d="M83.6787 132.106C83.5642 132.106 83.4497 131.992 83.4497 131.877C83.4497 131.763 83.5642 131.648 83.6787 131.648C87.1142 131.534 90.6642 131.534 94.2142 131.534C94.3287 131.534 94.4432 131.648 94.4432 131.763C94.4432 131.877 94.3287 131.992 94.2142 131.992C90.6642 131.992 87.1142 131.992 83.6787 132.106Z" fill="#636464"/>
<path d="M117.003 117.448C113.568 117.448 109.56 117.334 106.239 117.219C106.239 113.898 106.239 110.348 106.239 106.913C109.789 106.684 113.339 106.684 117.118 106.913C117.118 110.348 117.118 113.784 117.003 117.448Z" fill="#B8D4F7"/>
<path d="M117.003 118.021C115.285 118.021 113.453 118.021 111.621 117.906C109.788 117.906 107.956 117.792 106.238 117.792C105.895 117.792 105.666 117.563 105.666 117.219V116.303C105.666 113.211 105.666 110.005 105.666 106.913C105.666 106.569 105.895 106.34 106.238 106.34C109.788 106.111 113.338 106.111 117.117 106.34C117.461 106.34 117.69 106.569 117.69 106.913C117.804 110.234 117.69 113.555 117.575 117.448C117.461 117.792 117.232 118.021 117.003 118.021ZM106.696 116.761C108.3 116.761 109.903 116.761 111.621 116.876C113.224 116.876 114.942 116.99 116.43 116.99C116.545 113.555 116.545 110.577 116.545 107.6C113.109 107.485 109.903 107.485 106.811 107.6C106.811 110.577 106.811 113.555 106.811 116.532L106.696 116.761Z" fill="#636464"/>
<path d="M117.003 139.55C113.568 139.55 109.56 139.435 106.239 139.321C106.239 136 106.239 132.45 106.239 129.014C109.789 128.785 113.339 128.785 117.118 129.014C117.118 132.45 117.118 135.771 117.003 139.55Z" fill="#B8D4F7"/>
<path d="M117.003 140.122C115.285 140.122 113.453 140.122 111.621 140.008C109.788 140.008 107.956 139.893 106.238 139.893C105.895 139.893 105.666 139.664 105.666 139.321V138.405C105.666 135.313 105.666 132.106 105.666 129.014C105.666 128.671 105.895 128.442 106.238 128.442C109.788 128.213 113.338 128.213 117.117 128.442C117.461 128.442 117.69 128.671 117.69 129.014C117.804 132.335 117.69 135.656 117.575 139.55C117.461 139.893 117.232 140.122 117.003 140.122ZM106.696 138.863C108.3 138.863 109.903 138.863 111.506 138.977C113.109 138.977 114.827 139.092 116.316 139.092C116.43 135.656 116.43 132.679 116.43 129.701C112.995 129.587 109.788 129.587 106.696 129.701C106.696 132.679 106.696 135.656 106.696 138.634V138.863Z" fill="#636464"/>
<path d="M116.889 110.234C114.484 110.119 110.59 110.119 106.468 110.119C106.353 110.119 106.239 110.005 106.239 109.89C106.239 109.776 106.353 109.661 106.468 109.661C108.415 109.661 113.453 109.661 116.889 109.776C117.003 109.776 117.118 109.89 117.118 110.005C117.003 110.234 117.003 110.234 116.889 110.234Z" fill="#636464"/>
<path d="M106.353 132.106C106.238 132.106 106.124 131.992 106.124 131.877C106.124 131.763 106.238 131.648 106.353 131.648C109.788 131.534 113.338 131.534 116.888 131.534C117.003 131.534 117.117 131.648 117.117 131.763C117.117 131.877 117.003 131.992 116.888 131.992C113.338 131.992 109.903 131.992 106.353 132.106Z" fill="#636464"/>
<path d="M45.3159 155.926C74.632 155.926 102.23 155.697 130.401 155.926C131.203 155.926 131.203 149.627 131.203 149.627C122.042 150.314 69.4788 148.826 45.2014 149.971C45.0869 151.688 44.9724 153.75 45.3159 155.926Z" fill="white"/>
<path d="M45.3163 156.384C45.0872 156.384 44.8582 156.155 44.7437 155.926C44.4001 153.521 44.5146 151.345 44.6292 149.742C44.6292 149.513 44.8582 149.284 45.2017 149.169C58.8291 148.597 81.8468 148.826 100.284 148.94C114.713 149.055 127.195 149.169 131.203 148.826C131.318 148.826 131.547 148.826 131.661 148.94C131.776 149.055 131.89 149.169 131.89 149.398C131.89 156.269 131.089 156.269 130.631 156.269C112.079 156.155 93.9855 156.155 74.9759 156.269C65.242 156.384 55.2791 156.384 45.3163 156.384ZM45.6598 150.429C45.5453 151.803 45.5453 153.521 45.7743 155.353C55.6227 155.353 65.3565 155.353 74.7468 155.353C93.7564 155.353 111.621 155.239 130.172 155.353C130.402 154.666 130.516 152.376 130.631 150.2C126.05 150.429 114.026 150.314 100.284 150.2C82.0758 149.971 59.4017 149.742 45.6598 150.429Z" fill="#636464"/>
<rect x="14.678" y="250.121" width="91.5753" height="53.1451" rx="13.0146" fill="#006FFD"/>
<path d="M40.3594 283.693V269.562H45.6585C46.7441 269.562 47.6548 269.765 48.3908 270.17C49.1314 270.574 49.6903 271.131 50.0675 271.839C50.4493 272.543 50.6402 273.344 50.6402 274.241C50.6402 275.147 50.4493 275.952 50.0675 276.656C49.6857 277.359 49.1222 277.914 48.377 278.318C47.6318 278.719 46.7142 278.919 45.624 278.919H42.1119V276.814H45.279C45.9138 276.814 46.4336 276.704 46.8384 276.483C47.2431 276.262 47.5421 275.959 47.7353 275.572C47.9331 275.186 48.032 274.742 48.032 274.241C48.032 273.739 47.9331 273.298 47.7353 272.916C47.5421 272.534 47.2408 272.237 46.8315 272.026C46.4267 271.81 45.9046 271.701 45.2652 271.701H42.9192V283.693H40.3594ZM57.2244 283.9C56.1894 283.9 55.2925 283.673 54.5335 283.217C53.7745 282.762 53.1857 282.125 52.7671 281.306C52.3531 280.487 52.1461 279.531 52.1461 278.436C52.1461 277.341 52.3531 276.382 52.7671 275.559C53.1857 274.735 53.7745 274.096 54.5335 273.64C55.2925 273.185 56.1894 272.957 57.2244 272.957C58.2594 272.957 59.1564 273.185 59.9154 273.64C60.6744 274.096 61.2609 274.735 61.6749 275.559C62.0934 276.382 62.3027 277.341 62.3027 278.436C62.3027 279.531 62.0934 280.487 61.6749 281.306C61.2609 282.125 60.6744 282.762 59.9154 283.217C59.1564 283.673 58.2594 283.9 57.2244 283.9ZM57.2382 281.9C57.7994 281.9 58.2686 281.745 58.6458 281.437C59.023 281.124 59.3036 280.706 59.4876 280.181C59.6762 279.657 59.7705 279.073 59.7705 278.429C59.7705 277.78 59.6762 277.194 59.4876 276.669C59.3036 276.14 59.023 275.72 58.6458 275.407C58.2686 275.094 57.7994 274.938 57.2382 274.938C56.6632 274.938 56.1848 275.094 55.803 275.407C55.4258 275.72 55.143 276.14 54.9544 276.669C54.7704 277.194 54.6784 277.78 54.6784 278.429C54.6784 279.073 54.7704 279.657 54.9544 280.181C55.143 280.706 55.4258 281.124 55.803 281.437C56.1848 281.745 56.6632 281.9 57.2382 281.9ZM72.7992 275.897L70.5222 276.145C70.4578 275.915 70.3451 275.699 70.1841 275.496C70.0277 275.294 69.8162 275.131 69.5494 275.007C69.2826 274.882 68.956 274.82 68.5696 274.82C68.0498 274.82 67.6128 274.933 67.2586 275.158C66.909 275.384 66.7365 275.676 66.7411 276.035C66.7365 276.343 66.8492 276.593 67.0792 276.787C67.3138 276.98 67.7002 277.139 68.2384 277.263L70.0461 277.649C71.0489 277.865 71.7941 278.208 72.2817 278.677C72.7739 279.146 73.0223 279.761 73.0269 280.52C73.0223 281.187 72.8268 281.775 72.4404 282.286C72.0586 282.792 71.5273 283.187 70.8465 283.473C70.1657 283.758 69.3838 283.9 68.5006 283.9C67.2034 283.9 66.1592 283.629 65.368 283.086C64.5768 282.539 64.1053 281.778 63.9535 280.802L66.3892 280.568C66.4996 281.046 66.7342 281.407 67.093 281.651C67.4518 281.895 67.9187 282.017 68.4937 282.017C69.0871 282.017 69.5632 281.895 69.922 281.651C70.2853 281.407 70.467 281.106 70.467 280.747C70.467 280.444 70.3497 280.193 70.1151 279.995C69.8852 279.797 69.5264 279.646 69.0388 279.54L67.231 279.16C66.2144 278.949 65.4623 278.592 64.9747 278.091C64.4871 277.585 64.2456 276.945 64.2502 276.173C64.2456 275.519 64.4227 274.954 64.7815 274.475C65.1449 273.992 65.6486 273.62 66.2926 273.357C66.9412 273.091 67.6887 272.957 68.5351 272.957C69.7771 272.957 70.7545 273.222 71.4675 273.751C72.1851 274.28 72.629 274.995 72.7992 275.897ZM80.3787 273.095V275.027H74.2861V273.095H80.3787ZM75.7903 270.556H78.2881V280.506C78.2881 280.842 78.3387 281.099 78.4399 281.279C78.5457 281.453 78.6837 281.573 78.8539 281.637C79.0241 281.702 79.2127 281.734 79.4197 281.734C79.5761 281.734 79.7186 281.722 79.8474 281.699C79.9808 281.676 80.082 281.656 80.151 281.637L80.5719 283.59C80.4385 283.636 80.2476 283.687 79.9992 283.742C79.7554 283.797 79.4565 283.829 79.1023 283.838C78.4767 283.857 77.9132 283.762 77.4118 283.555C76.9104 283.344 76.5125 283.017 76.2181 282.576C75.9283 282.134 75.7857 281.582 75.7903 280.92V270.556Z" fill="white"/>
<path d="M212.628 69.8232C211.847 67.527 211.735 64.9177 213.522 63.1433C215.309 61.369 217.877 60.534 220.334 59.699C240.102 53.1236 259.981 46.6525 279.748 40.077C282.428 39.242 285.332 38.9289 287.119 40.5988C289.799 43.2082 290.916 48.4268 292.256 52.2886C295.271 60.6384 298.175 68.9882 301.19 77.338C301.861 79.1123 302.419 80.8867 302.084 82.661C301.749 84.4353 296.835 86.5228 294.936 87.0446C274.387 92.472 255.625 99.5694 234.182 106.458C232.061 106.875 229.604 107.084 227.705 106.04C225.471 104.892 224.355 102.492 223.461 100.3C219.329 90.2802 216.537 80.7823 212.628 69.8232Z" fill="white"/>
<path d="M230.944 107.293C229.492 107.293 228.264 106.98 227.259 106.458C224.913 105.206 223.797 102.805 222.791 100.404C220.223 94.2465 218.324 88.2972 216.202 82.0349C214.862 78.1731 213.522 74.1026 211.958 69.8233C210.953 66.9009 211.288 64.2915 212.964 62.6216C214.862 60.7429 217.654 59.8035 219.999 59.0729L279.413 39.4509C282.987 38.3028 285.667 38.5115 287.342 40.1815C289.464 42.2689 290.581 45.8176 291.698 49.2619C292.033 50.2013 292.256 51.1406 292.591 51.9756L301.526 77.025C302.084 78.695 302.866 80.6781 302.419 82.6611C301.973 84.853 296.612 86.9404 294.825 87.4622C281.088 91.1153 268.245 95.3946 254.732 99.987C248.143 102.283 241.219 104.579 234.071 106.876C233.066 107.189 231.949 107.293 230.944 107.293ZM283.545 39.764C282.54 39.764 281.312 39.9727 279.86 40.4946L220.446 60.1166C218.213 60.8473 215.532 61.6822 213.857 63.4566C211.958 65.3353 212.517 68.1533 213.075 69.6146C214.639 73.8938 215.979 77.86 217.319 81.8261C219.441 88.0885 221.451 93.9334 223.908 100.091C224.802 102.388 225.807 104.579 227.817 105.623C229.269 106.354 231.279 106.562 233.959 105.936C241.107 103.64 247.919 101.344 254.509 99.0476C268.133 94.4552 280.977 90.0716 294.713 86.4185C296.947 85.7923 301.302 83.8092 301.526 82.4524C301.861 80.7824 301.191 78.9037 300.632 77.3381L291.698 52.2887C291.363 51.4537 291.14 50.5144 290.805 49.4706C289.799 46.3395 288.683 42.6864 286.672 40.8077C285.891 40.1815 284.885 39.764 283.545 39.764Z" fill="#23274D"/>
<path d="M232.954 103.431C231.726 103.431 230.72 103.223 229.827 102.805C227.817 101.761 226.812 99.674 225.918 97.5865C223.685 92.0548 221.898 86.7318 219.999 81.2C218.882 77.7557 217.654 74.1027 216.202 70.3453C215.309 67.8403 215.644 65.6485 217.096 64.1873C218.771 62.5173 221.228 61.6824 223.461 60.9517L278.073 42.9997C281.2 41.956 283.545 42.1647 284.997 43.5215C286.895 45.4003 287.901 48.5314 288.906 51.5582C289.129 52.3932 289.464 53.2282 289.687 54.0632L297.728 76.5033C298.287 77.9645 298.845 79.7388 298.51 81.4088C298.175 83.1831 293.485 85.0618 291.809 85.5837C279.19 88.9236 267.463 92.8898 254.955 97.1691C248.813 99.2565 242.559 101.344 236.081 103.431C234.853 103.327 233.848 103.431 232.954 103.431ZM281.647 42.4778C280.641 42.4778 279.525 42.6865 278.184 43.104L223.573 61.0561C221.451 61.7867 218.994 62.5173 217.431 64.1873C215.532 65.9616 216.09 68.571 216.649 70.0322C217.989 73.894 219.217 77.4426 220.446 80.9913C222.344 86.6274 224.131 91.846 226.365 97.3778C227.258 99.4652 228.152 101.448 230.05 102.492C231.502 103.223 233.401 103.327 235.858 102.805C242.335 100.718 248.701 98.6303 254.732 96.5428C267.24 92.3679 278.966 88.2974 291.586 84.9574C293.373 84.4356 297.728 82.5569 298.063 81.0957C298.399 79.5301 297.84 77.8601 297.282 76.3989L289.241 53.9588C289.017 53.2282 288.682 52.3932 288.459 51.4538C287.566 48.6358 286.56 45.4002 284.662 43.6259C283.992 42.8953 282.987 42.4778 281.647 42.4778Z" fill="#23274D"/>
<path d="M235.299 59.1773C233.736 59.2817 232.284 60.4298 232.06 61.891C231.837 63.3522 233.066 64.9178 234.629 65.2309C236.193 65.4397 237.868 64.2916 238.203 62.8304C238.426 61.1604 237.309 59.073 235.299 59.1773Z" fill="white"/>
<path d="M235.076 65.6485C234.964 65.6485 234.741 65.6485 234.629 65.6485C232.73 65.3353 231.279 63.561 231.502 61.7867C231.725 60.1167 233.401 58.7599 235.187 58.6555C236.081 58.5511 236.974 58.9686 237.644 59.5949C238.426 60.4298 238.873 61.6823 238.761 62.8304C238.426 64.396 236.863 65.6485 235.076 65.6485ZM235.299 59.6992C233.959 59.8036 232.73 60.7429 232.619 61.891C232.395 63.1435 233.512 64.396 234.741 64.6047C236.081 64.8135 237.421 63.8741 237.644 62.6217C237.756 61.891 237.421 60.8473 236.863 60.3254C236.528 60.0123 236.081 59.5949 235.299 59.6992Z" fill="#23274D"/>
<path d="M269.362 48.4267C267.798 48.5311 266.347 49.6792 266.123 51.1404C265.9 52.6016 267.128 54.1672 268.692 54.4803C270.255 54.6891 271.931 53.541 272.266 52.0797C272.601 50.6185 271.372 48.218 269.362 48.4267Z" fill="white"/>
<path d="M269.138 54.898C269.027 54.898 268.803 54.898 268.692 54.898C266.793 54.5849 265.341 52.8105 265.565 51.0362C265.788 49.3662 267.463 48.0094 269.25 47.905C270.144 47.8006 271.037 48.2181 271.707 48.8444C272.489 49.6794 272.936 50.9318 272.824 52.0799C272.601 53.6455 270.925 54.898 269.138 54.898ZM269.585 48.9487H269.474C268.133 49.0531 266.905 49.9925 266.793 51.1406C266.57 52.3931 267.687 53.6455 268.915 53.8543C270.255 54.063 271.595 53.1237 271.819 51.8712C271.93 51.1406 271.595 50.0969 271.037 49.575C270.702 49.2619 270.255 48.9487 269.585 48.9487Z" fill="#23274D"/>
<path d="M234.741 61.5779C234.629 61.5779 234.629 61.5779 234.518 61.5779C234.183 61.4735 234.071 61.1604 234.183 60.9516C237.421 52.6018 241.553 44.8783 246.579 35.5891C247.361 34.1279 248.143 32.8754 249.148 31.7273C249.594 31.2054 250.376 30.4748 251.381 30.2661C253.615 29.8486 255.513 32.0404 256.072 32.771C257.747 34.7541 259.311 36.6328 260.762 38.5115C264.336 42.7908 267.686 46.8613 270.143 49.6794C270.367 49.8881 270.255 50.2012 270.032 50.41C269.808 50.6187 269.473 50.5144 269.25 50.3056C266.681 47.4876 263.331 43.417 259.869 39.1378C258.305 37.2591 256.742 35.3803 255.178 33.3973C253.838 31.7273 252.61 31.1011 251.605 31.3098C251.046 31.4142 250.488 31.7273 249.929 32.3535C248.924 33.3973 248.254 34.6497 247.472 36.0066C242.447 45.1914 238.426 52.915 235.188 61.2648C235.188 61.4735 234.964 61.5779 234.741 61.5779Z" fill="#23274D"/>
<path d="M251.717 28.9092C250.823 28.8048 249.93 29.2223 249.483 29.8485C248.925 30.4748 248.813 31.3097 248.925 32.1447C249.036 32.4578 249.148 32.771 249.371 32.9797C249.483 33.0841 249.706 33.1884 249.818 33.2928C250.488 33.6059 251.158 33.7103 251.828 33.6059C252.498 33.3972 253.057 32.8753 253.392 32.2491C253.504 31.936 253.727 31.7272 253.727 31.4141C253.727 31.2054 253.727 30.9966 253.615 30.7879C253.28 29.8485 252.722 29.0135 251.717 28.9092Z" fill="#B8D4F7"/>
<path d="M251.27 34.0235C250.711 34.0235 250.153 33.9191 249.595 33.606C249.371 33.5016 249.148 33.3972 249.036 33.2928C248.701 33.0841 248.589 32.6666 248.478 32.2491C248.254 31.3098 248.478 30.266 249.148 29.5354C249.818 28.7004 250.935 28.283 251.94 28.3873C252.945 28.4917 253.727 29.2223 254.285 30.3704C254.397 30.6835 254.509 30.9966 254.509 31.2054C254.509 31.6229 254.285 31.936 254.173 32.2491C253.615 33.0841 252.945 33.7103 252.275 33.9191C251.717 34.0235 251.493 34.0235 251.27 34.0235ZM251.381 29.3267C250.823 29.3267 250.265 29.6398 249.818 30.0573C249.371 30.5791 249.26 31.3098 249.371 31.936C249.483 32.1448 249.483 32.3535 249.595 32.4579C249.706 32.5622 249.818 32.5622 249.93 32.6666C250.6 32.9797 251.158 33.0841 251.493 32.9797C251.94 32.8754 252.387 32.4579 252.833 31.8316C252.945 31.6229 253.057 31.4141 253.057 31.2054C253.057 31.101 253.057 30.8923 252.945 30.7879C252.61 29.9529 252.163 29.5354 251.493 29.4311C251.605 29.3267 251.493 29.3267 251.381 29.3267Z" fill="#23274D"/>
<path d="M271.484 62.5173C271.26 62.5173 271.037 62.413 270.925 62.2042C270.814 61.8911 271.037 61.6823 271.26 61.578C274.834 60.5343 278.408 59.3862 281.87 58.0293C282.093 57.9249 282.428 58.0293 282.54 58.3424C282.652 58.5512 282.54 58.8643 282.205 58.9687C278.743 60.3255 275.169 61.4736 271.595 62.5173H271.484Z" fill="#006FFD"/>
<path d="M237.533 92.0548C237.31 92.0548 237.086 91.9504 236.975 91.7417C236.305 89.9674 235.635 88.0887 234.964 86.21C234.853 86.21 234.741 86.3143 234.741 86.3143C234.518 86.4187 234.183 86.3143 234.071 86.1056C233.959 85.8968 234.071 85.5837 234.294 85.4793C234.406 85.375 234.518 85.375 234.629 85.2706C233.513 82.1394 232.172 79.1126 230.944 75.9814C230.832 75.7727 230.944 75.4596 231.279 75.3552C232.508 74.8334 233.736 74.4159 234.964 74.2071C235.523 74.1027 236.305 73.9984 236.975 74.1027C238.203 74.3115 239.208 74.9377 240.213 76.1902C241.107 77.3383 241.442 78.4864 241.33 79.5301C241.219 80.5739 240.66 81.7219 239.543 82.87C238.873 83.6006 238.203 84.2269 237.421 84.7488C240.548 84.54 243.787 85.8968 245.462 88.193C245.574 88.4018 245.574 88.7149 245.351 88.9237C245.127 89.028 244.792 89.028 244.569 88.8193C242.894 86.4187 239.32 85.2706 236.081 86.0012C236.751 87.8799 237.421 89.6543 238.092 91.533C238.203 91.8461 237.98 92.0548 237.756 92.1592C237.645 92.0548 237.533 92.0548 237.533 92.0548ZM232.061 75.8771C233.289 78.7995 234.406 81.7219 235.523 84.54C236.751 83.8094 237.756 82.9744 238.65 82.0351C239.543 80.9913 240.102 80.1564 240.213 79.3214C240.325 78.4864 239.99 77.547 239.208 76.6077C238.427 75.564 237.645 75.0421 236.751 74.9377C236.193 74.8333 235.635 74.9377 235.076 75.0421C234.071 75.2508 233.066 75.4596 232.061 75.8771Z" fill="#006FFD"/>
<path d="M250.935 87.0448C250.711 87.0448 250.488 86.9404 250.376 86.7317C248.478 81.3043 246.467 76.19 244.345 71.4933C244.234 71.3889 244.234 71.1802 244.345 71.0758C244.457 70.9714 244.569 70.867 244.681 70.7626C247.584 69.9277 250.488 68.9883 253.392 67.8402C253.615 67.7359 253.95 67.8402 254.062 68.1533C254.173 68.3621 254.062 68.6752 253.727 68.7796C251.046 69.8233 248.254 70.7627 245.574 71.4933C247.696 76.0857 249.594 81.0956 251.493 86.3142C251.605 86.6273 251.381 86.836 251.158 86.9404C251.046 87.0448 251.046 87.0448 250.935 87.0448Z" fill="#006FFD"/>
<path d="M247.919 81.4087C247.696 81.4087 247.472 81.3044 247.36 81.0956C247.249 80.7825 247.36 80.5737 247.696 80.4694L254.285 78.2775C254.62 78.1732 254.843 78.2775 254.955 78.5907C255.066 78.9038 254.955 79.1125 254.62 79.2169L248.031 81.4087C248.031 81.4087 247.919 81.4087 247.919 81.4087Z" fill="#006FFD"/>
<path d="M250.935 87.0448C250.711 87.0448 250.488 86.9405 250.376 86.7317C250.264 86.523 250.376 86.2098 250.711 86.1055C253.503 84.9574 256.519 84.018 259.422 83.0787C259.757 82.9743 259.981 83.183 260.092 83.3918C260.204 83.7049 259.981 83.9136 259.757 84.018C256.854 84.853 253.95 85.8967 251.158 87.0448C251.046 87.0448 251.046 87.0448 250.935 87.0448Z" fill="#006FFD"/>
<path d="M263.778 82.5568C263.555 82.5568 263.331 82.4525 263.22 82.1394C261.656 76.8164 259.757 71.7021 257.747 66.7966C257.636 66.5878 257.747 66.3791 257.859 66.1703C258.082 66.066 258.306 65.9616 258.529 66.1703C261.991 68.049 264.783 70.6584 267.575 73.1633C268.915 74.4158 270.255 75.6683 271.819 76.8164C270.032 73.0589 268.692 69.0928 267.463 65.231C267.24 64.6048 267.017 64.0829 266.905 63.4566C266.793 63.1435 267.017 62.9348 267.24 62.8304C267.575 62.7261 267.798 62.9348 267.91 63.1435C268.133 63.7698 268.357 64.2917 268.468 64.9179C269.92 69.4059 271.484 74.1027 273.829 78.3819C273.941 78.5907 273.829 78.9038 273.717 79.0082C273.494 79.1126 273.271 79.1126 273.047 79.0082C270.814 77.4426 268.804 75.5639 266.905 73.7896C264.448 71.5977 262.103 69.5103 259.422 67.7359C261.209 72.224 262.884 76.9207 264.336 81.7218C264.448 82.035 264.225 82.2437 264.001 82.3481C263.778 82.5568 263.778 82.5568 263.778 82.5568Z" fill="#006FFD"/>
<path d="M282.763 75.7727C282.54 75.7727 282.316 75.6684 282.205 75.4596C280.083 70.5541 278.073 65.4399 276.174 60.43C276.062 60.1168 276.174 59.9081 276.509 59.8037C276.844 59.6994 277.067 59.8037 277.179 60.1169C279.078 65.1267 281.088 70.241 283.21 75.1465C283.321 75.4596 283.21 75.6684 282.875 75.7727C282.986 75.7727 282.875 75.7727 282.763 75.7727Z" fill="#006FFD"/>
<g opacity="0.1294">
<path d="M301.637 81.7216C300.632 81.1998 300.186 82.4523 299.962 82.5566C299.515 82.9741 298.51 83.6004 297.505 83.9135C295.048 84.9572 291.921 85.6878 289.018 86.4184C287.119 86.9403 285.22 87.6709 283.322 88.2971C280.195 89.4452 276.956 90.5933 273.717 91.4283C271.595 92.0546 269.474 92.8895 267.352 93.5158C261.879 94.977 256.63 96.8557 251.158 98.5256C244.457 100.822 235.858 103.744 229.939 104.788C229.157 104.892 229.38 104.788 228.04 104.892C227.929 104.892 227.817 104.892 227.594 104.997C226.588 105.31 226.923 106.875 228.04 106.875C228.934 106.875 229.939 106.98 230.832 106.875C232.619 106.667 234.294 106.04 236.081 105.623C242.112 104.057 247.696 101.552 253.727 99.7781C256.742 98.8388 259.757 97.8994 262.773 96.9601C265.788 96.1251 268.803 95.2901 271.595 94.2464C273.494 93.6201 275.393 93.0983 277.291 92.472C280.53 91.3239 283.21 90.2802 286.784 89.0277C289.353 88.0884 292.033 87.6709 294.602 86.9403C296.277 86.5228 297.84 85.6878 299.404 85.0616C300.297 84.5397 303.201 82.7654 301.637 81.7216Z" fill="#23274D"/>
</g>
<defs>
<filter id="filter0_d_673_6164" x="183.006" y="0.0838814" width="527.719" height="621.733" filterUnits="userSpaceOnUse" color-interpolation-filters="sRGB">
<feFlood flood-opacity="0" result="BackgroundImageFix"/>
<feColorMatrix in="SourceAlpha" type="matrix" values="0 0 0 0 0 0 0 0 0 0 0 0 0 0 0 0 0 0 127 0" result="hardAlpha"/>
<feOffset dx="30.083" dy="55.8684"/>
<feGaussianBlur stdDeviation="51.5709"/>
<feComposite in2="hardAlpha" operator="out"/>
<feColorMatrix type="matrix" values="0 0 0 0 0.145104 0 0 0 0 0.286634 0 0 0 0 0.829167 0 0 0 0.1 0"/>
<feBlend mode="normal" in2="BackgroundImageFix" result="effect1_dropShadow_673_6164"/>
<feBlend mode="normal" in="SourceGraphic" in2="effect1_dropShadow_673_6164" result="shape"/>
</filter>
</defs>
</svg>