<svg width="615" height="487" viewBox="0 0 615 487" fill="none" xmlns="http://www.w3.org/2000/svg">
<g filter="url(#filter0_d_673_6164)">
<rect x="256.065" y="34.3572" width="321.435" height="415.45" rx="27.3115" fill="white"/>
<rect x="278.401" y="278.936" width="184.272" height="7.8176" rx="3.9088" fill="#D9D9D9"/>
<rect x="278.401" y="300.156" width="161.936" height="3.3504" rx="1.6752" fill="#D9D9D9"/>
<rect x="278.401" y="315.791" width="270.266" height="4.4672" rx="2.2336" fill="#D9D9D9"/>
<rect x="278.401" y="332.543" width="270.266" height="3.3504" rx="1.6752" fill="#D9D9D9"/>
<rect opacity="0.5" x="278.283" y="71.7249" width="270.663" height="158.56" rx="21.2087" fill="#D1D6DD"/>
<path d="M371.241 171.737L369.788 229.201H468.897L470.027 171.898L371.241 171.737Z" fill="white"/>
<path d="M468.897 230.008H369.788C369.626 230.008 369.304 229.846 369.304 229.846C369.142 229.685 369.142 229.524 369.142 229.201L370.595 171.737C370.595 171.253 370.918 170.93 371.402 170.93L470.188 171.091C470.349 171.091 470.672 171.253 470.672 171.253C470.834 171.414 470.834 171.575 470.834 171.898L469.704 229.201C469.704 229.524 469.381 230.008 468.897 230.008ZM370.595 228.394H468.09L469.219 172.705L372.048 172.544L370.595 228.394Z" fill="#A3AEBB"/>
<path d="M412.078 229.201C383.831 229.201 354.292 229.685 326.044 229.362C326.044 201.115 325.721 172.06 324.107 140.584C349.933 139.938 381.894 139.615 414.177 139.293C412.401 170.769 410.625 208.378 412.078 229.201Z" fill="white"/>
<path d="M341.54 230.17C336.375 230.17 331.21 230.17 326.044 230.17C325.56 230.17 325.237 229.847 325.237 229.362C325.237 204.343 325.076 174.158 323.3 140.584C323.3 140.423 323.3 140.1 323.462 139.938C323.623 139.777 323.785 139.616 323.946 139.616C348.158 138.97 377.052 138.809 407.72 138.486H414.016C414.177 138.486 414.5 138.647 414.661 138.809C414.823 138.97 414.823 139.131 414.823 139.454C413.209 170.123 411.272 208.217 412.886 229.201C412.886 229.362 412.886 229.685 412.724 229.847C412.563 230.008 412.401 230.008 412.079 230.17C399.972 230.17 387.544 230.17 375.276 230.331C364.3 230.17 352.839 230.17 341.54 230.17ZM326.851 228.555C342.831 228.717 359.296 228.555 375.437 228.394C387.221 228.394 399.488 228.233 411.272 228.233C409.819 207.249 411.756 170.123 413.209 139.938H407.72C377.374 140.261 348.804 140.423 324.753 141.068C326.529 174.32 326.851 203.859 326.851 228.555Z" fill="#A3AEBB"/>
<path d="M427.736 146.072C386.575 146.072 349.611 146.718 312.324 146.718C330.402 127.348 349.933 105.557 368.335 86.3484C387.543 105.234 406.106 127.186 427.736 146.072Z" fill="white"/>
<path d="M312.324 147.686C312.001 147.686 311.678 147.525 311.678 147.202C311.517 146.879 311.678 146.556 311.84 146.395C318.619 139.131 325.722 131.383 332.662 123.797C344.284 111.045 356.39 97.9701 367.851 86.0254C368.012 85.8639 368.174 85.864 368.335 85.864C368.497 85.864 368.819 85.8639 368.819 86.0254C376.245 93.289 383.508 100.876 391.095 108.946C402.878 121.375 414.984 134.127 428.059 145.749C428.382 145.91 428.382 146.233 428.22 146.556C428.059 146.879 427.736 147.04 427.413 147.04C406.268 147.04 386.252 147.202 366.882 147.363C348.32 147.525 330.403 147.686 312.324 147.686ZM368.335 87.6395C356.875 99.4228 345.091 112.336 333.631 124.765C327.174 131.867 320.395 139.131 314.1 146.072C331.694 146.072 348.804 145.91 367.044 145.749C385.768 145.588 405.138 145.426 425.476 145.426C412.886 134.288 401.264 121.86 389.965 109.915C382.54 102.005 375.599 94.7418 368.335 87.6395Z" fill="#A3AEBB"/>
<path d="M383.508 198.855C374.146 198.855 364.784 198.693 355.422 198.693C354.453 189.17 353.969 179.808 354.13 170.284C363.815 169.8 373.5 169.8 383.831 170.284C383.992 179.646 383.992 188.686 383.508 198.855Z" fill="#B8D4F7"/>
<path d="M383.508 199.662L355.421 199.501C355.099 199.501 354.614 199.178 354.614 198.855C353.484 188.04 353.161 179.001 353.323 170.446C353.323 169.962 353.646 169.639 354.13 169.639C363.815 169.154 373.5 169.154 383.83 169.639C384.315 169.639 384.637 169.962 384.637 170.446C384.799 179.485 384.637 188.524 384.315 199.016C384.315 199.339 383.992 199.662 383.508 199.662ZM356.228 197.886L382.7 198.048C383.023 188.201 383.185 179.646 383.023 171.091C373.177 170.607 363.976 170.607 354.937 171.091C354.937 179.162 355.26 187.717 356.228 197.886Z" fill="#006FFD"/>
<path d="M373.662 120.891C370.433 118.793 365.591 119.762 363.331 122.99C361.071 126.218 362.04 131.222 365.107 133.482C368.173 135.742 373.177 134.935 375.437 131.868C377.858 128.639 377.536 123.474 373.662 120.891Z" fill="white"/>
<path d="M369.465 135.58C367.85 135.58 366.075 135.096 364.784 134.127C361.232 131.545 360.264 126.218 362.847 122.505C365.268 118.954 370.595 117.824 374.146 120.245C376.083 121.537 377.213 123.474 377.697 125.734C378.181 127.993 377.535 130.576 376.244 132.352C374.63 134.45 372.047 135.58 369.465 135.58ZM369.787 120.568C367.528 120.568 365.268 121.537 364.138 123.474C362.201 126.379 363.008 130.899 365.752 132.836C368.496 134.934 373.016 134.127 374.953 131.383C376.083 129.93 376.405 127.993 376.083 126.056C375.76 124.119 374.791 122.667 373.177 121.537C372.209 120.891 370.917 120.568 369.787 120.568Z" fill="#006FFD"/>
<path d="M423.862 230.008C423.378 230.008 423.055 229.685 423.055 229.201C423.378 216.288 423.055 203.536 422.893 192.721C422.893 192.56 422.893 192.237 423.055 192.075C423.216 191.914 423.377 191.914 423.539 191.914C434.354 191.914 445.653 191.914 456.952 191.914C457.113 191.914 457.436 192.075 457.436 192.075C457.598 192.237 457.598 192.398 457.598 192.56C457.598 195.788 457.598 199.016 457.598 202.083C457.598 211.768 457.598 220.807 457.275 228.555C457.275 229.04 456.952 229.362 456.468 229.362C455.983 229.362 455.661 229.04 455.661 228.555C455.983 220.807 455.983 211.768 455.983 202.083C455.983 199.178 455.983 196.434 455.983 193.367C445.33 193.367 434.677 193.367 424.185 193.367C424.346 204.02 424.669 216.449 424.346 229.04C424.669 229.685 424.346 230.008 423.862 230.008Z" fill="#A3AEBB"/>
<path d="M424.508 198.047C424.346 198.047 424.185 197.886 424.185 197.725C424.185 197.563 424.346 197.402 424.508 197.402C435 196.917 445.492 196.756 455.984 196.917C456.145 196.917 456.306 197.079 456.306 197.24C456.306 197.402 456.145 197.563 455.984 197.563C445.492 197.24 435 197.402 424.508 198.047Z" fill="#A3AEBB"/>
<path d="M430.964 202.083C428.704 202.083 426.444 202.083 424.023 202.083C423.862 202.083 423.7 201.921 423.7 201.76C423.7 201.599 423.862 201.437 424.023 201.437C434.838 201.599 445.814 201.437 456.629 200.792C456.79 200.792 456.952 200.953 456.952 201.114C456.952 201.276 456.79 201.437 456.629 201.437C448.074 201.921 439.519 202.083 430.964 202.083Z" fill="#A3AEBB"/>
<path d="M423.862 207.409C423.7 207.409 423.539 207.248 423.539 207.087C423.539 206.925 423.7 206.764 423.862 206.764C434.838 205.957 445.976 205.795 456.952 206.118C457.113 206.118 457.275 206.279 457.275 206.441C457.275 206.602 457.113 206.764 456.952 206.764C445.976 206.279 434.838 206.602 423.862 207.409Z" fill="#A3AEBB"/>
<path d="M424.185 212.414C424.023 212.414 423.862 212.252 423.862 212.091C423.862 211.929 424.023 211.768 424.185 211.768L456.952 210.799C457.113 210.799 457.275 210.961 457.275 211.122C457.275 211.284 457.113 211.445 456.952 211.445L424.185 212.414Z" fill="#A3AEBB"/>
<path d="M435.161 216.61C431.448 216.61 427.574 216.61 423.862 216.61C423.7 216.61 423.539 216.449 423.539 216.287C423.539 216.126 423.7 215.965 423.862 215.965C434.676 215.965 445.814 215.965 456.629 215.803C456.79 215.803 456.952 215.965 456.952 216.126C456.952 216.287 456.79 216.449 456.629 216.449C449.688 216.449 442.424 216.61 435.161 216.61Z" fill="#A3AEBB"/>
<path d="M424.023 220.807C423.862 220.807 423.7 220.646 423.7 220.484C423.7 220.323 423.862 220.161 424.023 220.161H456.145C456.306 220.161 456.467 220.323 456.467 220.484C456.467 220.646 456.306 220.807 456.145 220.807H424.023Z" fill="#A3AEBB"/>
<path d="M439.035 224.843C434.192 224.843 429.188 224.681 424.346 224.52C424.185 224.52 424.023 224.358 424.023 224.197C424.023 224.035 424.185 223.874 424.346 223.874C435.161 224.197 445.976 224.197 456.791 223.713C456.952 223.713 457.113 223.874 457.113 224.035C457.113 224.197 456.952 224.358 456.791 224.358C450.98 224.681 445.007 224.843 439.035 224.843Z" fill="#A3AEBB"/>
<path d="M354.776 179.646C354.615 179.646 354.454 179.485 354.454 179.323C354.454 179.162 354.615 179.001 354.776 179.001C364.3 178.839 373.985 178.678 383.67 178.516C383.831 178.516 383.993 178.678 383.993 178.839C383.993 179.001 383.831 179.162 383.67 179.162C374.146 179.162 364.461 179.323 354.776 179.646Z" fill="#006FFD"/>
<path d="M368.981 198.693C368.819 198.693 368.658 198.532 368.658 198.37L369.142 179.162C369.142 179.001 369.304 178.839 369.465 178.839C369.626 178.839 369.788 179.001 369.788 179.162L369.304 198.37C369.142 198.532 369.142 198.693 368.981 198.693Z" fill="#006FFD"/>
<path d="M370.272 135.418C370.111 135.418 369.949 135.257 369.949 135.095C369.788 130.253 369.304 125.249 368.819 120.407C368.819 120.245 368.981 120.084 368.981 120.084C369.142 120.084 369.304 120.245 369.304 120.245C369.788 125.088 370.272 130.092 370.433 135.095C370.433 135.257 370.433 135.418 370.272 135.418Z" fill="#006FFD"/>
<path d="M362.524 127.67C362.363 127.67 362.201 127.509 362.201 127.348C362.201 127.186 362.363 127.025 362.524 127.025L377.051 126.056C377.213 126.056 377.374 126.218 377.374 126.379C377.374 126.541 377.213 126.702 377.051 126.702L362.524 127.67Z" fill="#006FFD"/>
<path d="M327.013 223.874C326.529 223.874 326.206 223.551 326.206 223.067C326.206 222.583 326.529 222.26 327.013 222.26L411.272 221.291C411.756 221.291 412.079 221.614 412.079 222.098C412.079 222.583 411.756 222.905 411.272 222.905L327.013 223.874Z" fill="#006FFD"/>
<g opacity="0.1294">
<path d="M414.016 149.3C413.854 148.977 413.693 148.654 413.531 148.493C413.531 147.363 412.724 146.233 411.433 146.233C408.528 146.556 405.461 146.233 402.555 146.394C399.65 146.394 396.583 146.717 393.677 147.04C393.032 147.04 392.386 147.04 391.74 147.363C390.933 147.363 390.288 147.363 389.481 147.363C384.638 147.524 379.957 147.363 375.115 147.363C367.851 147.363 360.587 147.524 353.324 147.524C349.127 147.524 344.93 147.202 340.733 147.363C336.052 147.363 331.533 148.009 326.851 147.524C323.785 147.202 323.462 151.883 326.529 152.044C331.855 152.528 337.021 151.883 342.347 151.883C353.485 152.367 364.623 152.044 375.76 151.883C380.441 151.883 385.122 152.044 389.803 152.044C396.26 152.367 402.717 152.69 409.335 152.528C409.657 152.528 409.98 152.528 410.142 152.528C410.303 152.528 410.465 152.528 410.626 152.528C411.272 152.69 411.756 152.528 412.402 152.528C413.531 151.721 414.339 150.43 414.016 149.3Z" fill="#A3AEBB"/>
</g>
<g opacity="0.1294">
<path d="M456.306 192.882C455.822 192.56 455.176 192.56 454.692 192.56C452.916 192.56 451.302 192.56 449.527 192.56C446.137 192.56 442.586 192.398 439.196 192.398C434.838 192.56 430.48 192.56 426.122 192.237C425.153 192.237 424.185 192.075 423.378 192.882C422.086 194.174 423.055 196.595 424.83 196.595C429.673 197.079 434.677 196.918 439.519 196.595C444.2 196.595 449.043 196.918 453.724 196.918C454.369 196.918 455.176 197.079 455.822 196.756C457.759 196.272 457.759 193.69 456.306 192.882Z" fill="#A3AEBB"/>
</g>
<path d="M486.584 209.006C483.701 211.496 481.866 210.972 478.59 208.875C475.314 206.778 473.741 202.585 475.183 199.177C468.106 200.75 461.029 194.984 459.195 188.562C457.884 183.976 459.457 177.948 464.568 176.899C460.243 173.361 459.326 166.677 462.733 162.353C466.14 158.028 473.217 156.718 478.328 159.339C477.541 153.704 480.031 147.938 484.749 144.399C486.453 143.089 488.549 142.04 490.777 141.909C495.364 141.778 499.295 145.71 500.213 149.903C501.13 154.097 499.951 158.29 498.64 162.484C501.654 160.125 507.027 161.173 509.124 164.319C511.221 167.464 510.303 171.919 507.289 174.409C512.007 176.899 514.89 181.879 514.628 186.728C514.366 191.576 510.959 196.163 505.979 198.129C504.668 198.653 502.965 199.177 502.572 200.488C502.309 201.274 503.62 207.04 495.757 210.972C493.267 212.282 489.86 211.234 486.584 209.006Z" fill="white"/>
<path d="M493.398 212.282C491.039 212.282 488.55 211.103 486.584 209.923C483.701 212.282 481.604 211.627 478.197 209.53C474.921 207.564 473.348 203.633 474.134 200.095C473.61 200.095 473.217 200.226 472.693 200.226C466.14 200.226 460.112 194.722 458.54 188.824C457.622 185.81 458.015 182.272 459.588 179.782C460.505 178.341 461.685 177.161 463.257 176.637C459.457 172.706 458.802 166.284 462.209 162.091C465.485 157.897 472.3 156.325 477.542 158.421C477.148 153.048 479.769 147.413 484.225 144.006C486.322 142.433 488.55 141.516 490.646 141.385C495.757 141.254 499.82 145.579 500.737 149.903C501.654 153.704 500.737 157.635 499.689 161.173C500.999 160.649 502.441 160.518 504.013 160.649C506.372 161.042 508.469 162.222 509.648 163.925C511.745 167.071 511.221 171.395 508.338 174.147C512.793 176.899 515.545 181.748 515.283 186.728C515.021 191.839 511.352 196.687 506.241 198.784L505.848 198.915C504.668 199.308 503.489 199.832 503.227 200.75C503.227 200.75 503.227 201.012 503.227 201.143C503.227 202.978 503.227 208.088 496.15 211.496C495.233 212.02 494.316 212.282 493.398 212.282ZM486.584 208.351C486.715 208.351 486.846 208.351 486.977 208.482C490.515 210.709 493.529 211.496 495.626 210.447C502.048 207.302 502.048 202.847 502.048 201.143C502.048 200.75 502.048 200.488 502.179 200.357C502.703 198.915 504.144 198.26 505.586 197.736L505.979 197.605C510.697 195.77 513.973 191.314 514.235 186.728C514.497 182.01 511.614 177.292 507.158 174.933C507.027 174.802 506.896 174.671 506.765 174.409C506.765 174.147 506.896 174.016 507.027 173.885C509.91 171.526 510.697 167.464 508.731 164.712C507.814 163.27 505.979 162.222 504.013 161.96C502.179 161.698 500.344 162.091 499.164 163.008C498.902 163.139 498.64 163.139 498.378 163.008C498.116 162.877 497.985 162.615 498.116 162.353C499.296 158.552 500.606 154.228 499.689 150.165C498.902 146.365 495.495 142.696 491.171 142.696C491.04 142.696 491.04 142.696 490.908 142.696C489.074 142.827 487.108 143.482 485.142 145.054C480.687 148.462 478.197 154.097 478.983 159.47C478.983 159.732 478.852 159.994 478.721 160.125C478.459 160.256 478.328 160.256 478.066 160.125C473.217 157.635 466.534 158.814 463.257 162.877C460.112 166.939 460.899 173.099 464.961 176.506C465.092 176.637 465.223 176.899 465.223 177.161C465.223 177.423 464.961 177.554 464.699 177.685C462.995 178.079 461.685 178.996 460.767 180.568C459.457 182.796 459.064 185.81 459.85 188.562C461.554 194.591 468.237 200.226 475.052 198.784C475.314 198.784 475.576 198.784 475.707 199.046C475.838 199.177 475.838 199.439 475.838 199.701C474.527 202.847 475.969 206.647 478.983 208.613C482.259 210.709 483.701 210.972 486.191 208.744C486.322 208.482 486.453 208.351 486.584 208.351Z" fill="#A3AEBB"/>
<path d="M486.453 229.58C486.059 229.58 485.797 229.318 485.797 228.925C485.404 207.04 485.011 184.369 487.763 162.222C487.763 161.829 488.156 161.566 488.418 161.698C488.811 161.698 489.074 162.091 488.942 162.353C486.19 184.369 486.584 207.04 486.977 228.925C487.108 229.318 486.846 229.58 486.453 229.58Z" fill="#A3AEBB"/>
<path d="M487.501 174.54C487.37 174.54 487.239 174.54 487.108 174.409C486.846 174.278 486.715 173.885 486.846 173.492C488.287 171.264 489.86 169.167 491.695 167.333C491.957 167.071 492.35 167.071 492.612 167.333C492.874 167.595 492.874 167.988 492.612 168.25C490.777 170.085 489.205 172.05 487.894 174.278C487.894 174.409 487.632 174.54 487.501 174.54Z" fill="#A3AEBB"/>
<path d="M486.322 193.673C486.06 193.673 485.798 193.542 485.667 193.28C482.784 186.203 479.901 179.651 474.528 173.885C474.266 173.623 474.266 173.23 474.528 172.967C474.79 172.705 475.183 172.705 475.445 172.967C481.08 178.996 483.832 185.679 486.846 192.756C486.977 193.018 486.846 193.411 486.453 193.542C486.453 193.673 486.322 193.673 486.322 193.673Z" fill="#A3AEBB"/>
<path d="M481.211 182.796C481.08 182.796 480.949 182.796 480.949 182.665C478.59 181.355 475.969 180.437 473.348 180.175C472.955 180.175 472.693 179.782 472.824 179.52C472.824 179.127 473.217 178.865 473.479 178.996C476.362 179.258 479.114 180.306 481.604 181.748C481.866 181.879 481.997 182.272 481.866 182.665C481.604 182.665 481.473 182.796 481.211 182.796Z" fill="#A3AEBB"/>
<path d="M486.584 203.633C486.453 203.633 486.453 203.633 486.322 203.633C486.06 203.502 485.798 203.108 485.929 202.846C489.205 195.246 494.185 188.431 500.344 182.927C500.606 182.665 500.999 182.665 501.261 182.927C501.523 183.189 501.523 183.582 501.261 183.844C495.233 189.217 490.384 195.901 487.239 203.239C487.108 203.371 486.846 203.633 486.584 203.633Z" fill="#A3AEBB"/>
<g opacity="0.1294">
<path d="M502.572 199.832C502.047 198.915 500.737 199.177 500.475 200.094C500.213 201.798 499.951 202.846 499.427 203.895C498.247 205.729 497.33 207.04 496.412 207.564C495.495 208.088 496.019 207.826 494.971 208.088C494.84 208.088 494.84 208.088 494.709 208.088C493.529 208.219 492.35 208.35 491.171 208.219C491.039 208.219 491.039 208.219 490.908 208.219C490.122 208.088 489.336 207.957 488.55 207.564C488.55 207.564 488.55 207.564 488.418 207.564C487.894 207.302 487.37 206.909 486.715 206.778C485.798 206.647 484.487 206.778 484.094 207.695C483.963 207.564 483.832 207.564 483.701 207.433C482.652 206.909 483.177 207.433 481.997 206.909C480.425 206.123 479.9 205.729 478.983 205.074C477.41 203.502 477.148 202.715 477.017 201.274C476.886 200.356 477.148 199.439 476.886 198.522C476.493 197.473 475.314 197.211 474.527 197.735C474.265 197.473 474.003 197.211 473.61 197.08C473.61 197.08 473.61 197.08 473.479 197.08C472.562 196.949 471.644 197.08 470.727 196.949C469.941 196.949 468.499 196.687 467.844 196.294C466.14 195.377 464.961 194.459 464.83 194.197C463.912 193.411 462.995 192.756 462.209 191.707C461.816 191.183 461.292 190.528 460.636 190.528C459.588 190.528 459.064 191.838 459.85 192.494C460.505 193.149 460.505 193.28 461.292 194.328C461.947 195.115 462.733 195.901 463.388 196.556C464.568 197.473 465.747 198.522 467.189 199.177C468.106 199.701 469.285 199.832 470.334 199.963C470.858 200.094 471.382 199.963 471.906 200.094C472.562 200.225 473.217 200.225 473.741 200.094C473.741 203.764 474.921 206.385 478.197 208.612C479.507 209.53 482.783 211.495 484.094 210.054C484.356 209.792 484.487 209.53 484.487 209.268C484.88 209.53 485.404 209.792 485.929 209.53C486.06 209.53 486.06 209.399 486.191 209.399C486.453 209.53 487.108 209.923 487.37 210.054C489.467 211.102 491.826 211.233 493.922 210.709C495.495 210.447 496.937 210.185 498.116 209.137C498.902 208.481 499.427 207.695 500.082 206.909C500.868 205.86 501.523 204.55 501.916 203.239C502.178 202.584 502.179 201.798 502.31 201.143C502.703 200.881 502.834 200.356 502.572 199.832Z" fill="#A3AEBB"/>
</g>
<rect x="278.401" y="364.93" width="91.5753" height="53.1451" rx="13.0146" fill="#EAF2FF"/>
<path d="M304.082 398.503V384.372H309.381C310.467 384.372 311.378 384.574 312.114 384.979C312.854 385.384 313.413 385.94 313.79 386.649C314.172 387.352 314.363 388.153 314.363 389.05C314.363 389.956 314.172 390.761 313.79 391.465C313.409 392.168 312.845 392.723 312.1 393.128C311.355 393.528 310.437 393.728 309.347 393.728H305.835V391.623H309.002C309.637 391.623 310.156 391.513 310.561 391.292C310.966 391.071 311.265 390.768 311.458 390.381C311.656 389.995 311.755 389.551 311.755 389.05C311.755 388.548 311.656 388.107 311.458 387.725C311.265 387.343 310.964 387.046 310.554 386.835C310.15 386.619 309.627 386.511 308.988 386.511H306.642V398.503H304.082ZM320.947 398.71C319.912 398.71 319.015 398.482 318.256 398.026C317.497 397.571 316.909 396.934 316.49 396.115C316.076 395.296 315.869 394.34 315.869 393.245C315.869 392.15 316.076 391.191 316.49 390.368C316.909 389.544 317.497 388.905 318.256 388.449C319.015 387.994 319.912 387.766 320.947 387.766C321.982 387.766 322.879 387.994 323.638 388.449C324.397 388.905 324.984 389.544 325.398 390.368C325.816 391.191 326.026 392.15 326.026 393.245C326.026 394.34 325.816 395.296 325.398 396.115C324.984 396.934 324.397 397.571 323.638 398.026C322.879 398.482 321.982 398.71 320.947 398.71ZM320.961 396.709C321.522 396.709 321.992 396.554 322.369 396.246C322.746 395.934 323.026 395.515 323.21 394.991C323.399 394.466 323.493 393.882 323.493 393.238C323.493 392.589 323.399 392.003 323.21 391.478C323.026 390.949 322.746 390.529 322.369 390.216C321.992 389.903 321.522 389.747 320.961 389.747C320.386 389.747 319.908 389.903 319.526 390.216C319.149 390.529 318.866 390.949 318.677 391.478C318.493 392.003 318.401 392.589 318.401 393.238C318.401 393.882 318.493 394.466 318.677 394.991C318.866 395.515 319.149 395.934 319.526 396.246C319.908 396.554 320.386 396.709 320.961 396.709ZM336.522 390.706L334.245 390.954C334.181 390.724 334.068 390.508 333.907 390.305C333.751 390.103 333.539 389.94 333.272 389.816C333.005 389.691 332.679 389.629 332.292 389.629C331.773 389.629 331.336 389.742 330.981 389.967C330.632 390.193 330.459 390.485 330.464 390.844C330.459 391.152 330.572 391.403 330.802 391.596C331.037 391.789 331.423 391.948 331.961 392.072L333.769 392.458C334.772 392.674 335.517 393.017 336.005 393.486C336.497 393.956 336.745 394.57 336.75 395.329C336.745 395.996 336.55 396.584 336.163 397.095C335.782 397.601 335.25 397.997 334.569 398.282C333.889 398.567 333.107 398.71 332.223 398.71C330.926 398.71 329.882 398.438 329.091 397.895C328.3 397.348 327.828 396.587 327.676 395.612L330.112 395.377C330.223 395.855 330.457 396.216 330.816 396.46C331.175 396.704 331.642 396.826 332.217 396.826C332.81 396.826 333.286 396.704 333.645 396.46C334.008 396.216 334.19 395.915 334.19 395.556C334.19 395.253 334.073 395.002 333.838 394.804C333.608 394.606 333.249 394.455 332.762 394.349L330.954 393.969C329.937 393.758 329.185 393.401 328.698 392.9C328.21 392.394 327.969 391.754 327.973 390.982C327.969 390.328 328.146 389.763 328.504 389.284C328.868 388.801 329.372 388.429 330.016 388.167C330.664 387.9 331.412 387.766 332.258 387.766C333.5 387.766 334.477 388.031 335.19 388.56C335.908 389.089 336.352 389.804 336.522 390.706ZM344.102 387.904V389.836H338.009V387.904H344.102ZM339.513 385.365H342.011V395.315C342.011 395.651 342.062 395.908 342.163 396.088C342.269 396.262 342.407 396.382 342.577 396.446C342.747 396.511 342.936 396.543 343.143 396.543C343.299 396.543 343.442 396.531 343.57 396.508C343.704 396.485 343.805 396.465 343.874 396.446L344.295 398.399C344.161 398.445 343.971 398.496 343.722 398.551C343.478 398.606 343.179 398.638 342.825 398.647C342.2 398.666 341.636 398.572 341.135 398.365C340.633 398.153 340.235 397.826 339.941 397.385C339.651 396.943 339.509 396.391 339.513 395.729V385.365Z" fill="#006FFD"/>
</g>
<path d="M261.624 394.493C261.586 394.942 261.371 395.357 261.027 395.647C260.683 395.937 260.237 396.079 259.788 396.041L254.149 395.56C253.7 395.522 253.285 395.307 252.994 394.963C252.704 394.618 252.563 394.173 252.601 393.724C252.639 393.275 252.854 392.86 253.198 392.57C253.543 392.28 253.988 392.138 254.437 392.176L260.077 392.657C260.525 392.695 260.941 392.91 261.231 393.254C261.521 393.599 261.663 394.044 261.624 394.493ZM258.099 383.331C258.389 383.675 258.53 384.121 258.492 384.569C258.454 385.017 258.239 385.432 257.895 385.722L253.611 389.334C253.442 389.487 253.244 389.604 253.029 389.679C252.813 389.754 252.585 389.785 252.357 389.769C252.13 389.754 251.908 389.693 251.704 389.59C251.501 389.487 251.32 389.344 251.173 389.169C251.026 388.995 250.916 388.793 250.849 388.575C250.782 388.357 250.759 388.128 250.782 387.901C250.806 387.674 250.875 387.454 250.985 387.255C251.095 387.055 251.244 386.88 251.424 386.739L255.708 383.127C256.052 382.838 256.497 382.696 256.946 382.734C257.394 382.773 257.809 382.987 258.099 383.331ZM256.262 404.898C255.917 405.187 255.472 405.329 255.024 405.291C254.575 405.252 254.161 405.038 253.87 404.694L250.259 400.41C250.106 400.241 249.988 400.043 249.914 399.827C249.839 399.612 249.808 399.383 249.824 399.156C249.839 398.928 249.9 398.706 250.003 398.503C250.106 398.299 250.249 398.119 250.423 397.972C250.598 397.825 250.8 397.715 251.018 397.647C251.236 397.58 251.465 397.558 251.692 397.581C251.919 397.604 252.138 397.673 252.338 397.783C252.538 397.894 252.713 398.043 252.854 398.222L256.465 402.506C256.755 402.851 256.896 403.296 256.858 403.744C256.82 404.193 256.605 404.607 256.262 404.898ZM247.694 377.968C248.143 378.006 248.558 378.221 248.849 378.566C249.139 378.91 249.28 379.356 249.242 379.804L248.762 385.444C248.724 385.893 248.509 386.308 248.164 386.598C247.82 386.889 247.374 387.03 246.926 386.992C246.477 386.954 246.062 386.739 245.771 386.394C245.481 386.05 245.34 385.605 245.378 385.156L245.858 379.516C245.897 379.067 246.112 378.652 246.456 378.362C246.8 378.072 247.246 377.93 247.694 377.968ZM246.718 396.466C248.539 394.678 247.421 391.579 244.879 391.362L219.445 389.195C216.716 388.963 215.138 392.225 217.018 394.219L223.109 400.678C223.751 401.36 224.087 402.27 224.046 403.205L223.656 411.897C223.534 414.607 226.798 416.062 228.735 414.159L246.718 396.468L246.718 396.466ZM220.226 392.67L243.701 394.67L227.094 411.006L227.44 403.355C227.48 402.439 227.337 401.524 227.017 400.664C226.698 399.804 226.209 399.018 225.58 398.35L220.226 392.67Z" fill="#636464"/>
<rect x="0.5" y="0.853271" width="234.164" height="302.653" rx="19.8963" fill="white"/>
<rect x="16.4231" y="174.134" width="129.258" height="7.49324" rx="3.74662" fill="#D9D9D9"/>
<rect x="16.4231" y="192.867" width="113.335" height="3.74662" rx="1.87331" fill="#D9D9D9"/>
<rect x="16.4231" y="207.854" width="192.951" height="2.80996" rx="1.40498" fill="#D9D9D9"/>
<rect x="16.4231" y="221.904" width="192.951" height="3.74662" rx="1.87331" fill="#D9D9D9"/>
<rect opacity="0.2" x="16.686" y="28.0754" width="197.177" height="115.51" rx="15.4504" fill="#A3AEBB"/>
<path d="M112.873 38.2579L111.957 142.696H166.925L167.612 38.4869L112.873 38.2579Z" fill="white"/>
<path d="M166.925 143.269H111.957C111.843 143.269 111.614 143.154 111.614 143.154C111.499 143.04 111.499 142.925 111.499 142.811L112.301 38.3724C112.301 38.0288 112.53 37.7998 112.873 37.7998L167.612 38.0288C167.726 38.0288 167.955 38.1434 167.955 38.1434C168.07 38.2579 168.07 38.3724 168.07 38.4869L167.383 142.582C167.497 143.04 167.268 143.269 166.925 143.269ZM112.53 142.124H166.352L167.039 39.0595L113.446 38.8304L112.53 142.124Z" fill="#636464"/>
<path d="M133.83 71.6965C130.394 71.6965 126.386 71.5821 122.951 71.4675C122.951 68.0321 122.951 64.253 122.951 60.5885C126.501 60.3595 130.051 60.3595 133.83 60.5885C134.059 64.253 133.944 67.803 133.83 71.6965Z" fill="#006FFD"/>
<path d="M133.83 72.269C132.112 72.269 130.28 72.269 128.448 72.1545C126.615 72.1545 124.783 72.04 123.065 72.04C122.722 72.04 122.493 71.811 122.493 71.4674V70.5513C122.493 67.3448 122.493 63.9094 122.493 60.5884C122.493 60.2449 122.722 60.0158 123.065 60.0158C126.615 59.7868 130.165 59.7868 134.059 60.0158C134.402 60.0158 134.631 60.2449 134.631 60.5884C134.746 64.0239 134.631 67.5739 134.517 71.6964C134.402 72.04 134.173 72.269 133.83 72.269ZM123.523 71.0093C125.126 71.0093 126.73 71.0093 128.448 71.1239C130.051 71.1239 131.768 71.2384 133.257 71.2384C133.372 67.5739 133.372 64.3674 133.372 61.2755C129.936 61.161 126.73 61.161 123.523 61.2755C123.523 64.3674 123.523 67.5739 123.523 70.6658V71.0093Z" fill="#636464"/>
<path d="M156.504 71.6965C153.068 71.6965 149.06 71.5821 145.625 71.4675C145.625 68.0321 145.625 64.253 145.625 60.5885C149.175 60.3595 152.724 60.3595 156.504 60.5885C156.733 64.253 156.618 67.803 156.504 71.6965Z" fill="#006FFD"/>
<path d="M156.504 72.269C154.786 72.269 152.954 72.269 151.121 72.1545C149.289 72.1545 147.457 72.04 145.739 72.04C145.396 72.04 145.167 71.811 145.167 71.4674V70.5513C145.167 67.3448 145.167 63.9094 145.167 60.5884C145.167 60.2449 145.396 60.0158 145.739 60.0158C149.289 59.7868 152.839 59.7868 156.733 60.0158C157.076 60.0158 157.305 60.2449 157.305 60.5884C157.42 64.0239 157.305 67.5739 157.191 71.6964C157.076 72.04 156.847 72.269 156.504 72.269ZM146.197 71.0093C147.8 71.0093 149.404 71.0093 151.121 71.1239C152.725 71.1239 154.442 71.2384 155.931 71.2384C156.046 67.5739 156.046 64.3674 156.046 61.2755C152.61 61.161 149.404 61.161 146.197 61.2755C146.197 64.3674 146.197 67.5739 146.197 70.6658V71.0093Z" fill="#636464"/>
<path d="M133.486 94.9433C130.05 94.9433 126.042 94.8288 122.607 94.7143C122.607 91.2788 122.607 87.4998 122.607 83.8353C126.157 83.6063 129.707 83.6063 133.486 83.8353C133.715 87.4998 133.715 91.0498 133.486 94.9433Z" fill="#006FFD"/>
<path d="M133.486 95.5159C131.768 95.5159 129.936 95.5159 128.104 95.4013C126.272 95.4013 124.439 95.2868 122.722 95.2868C122.378 95.2868 122.149 95.0578 122.149 94.7142V93.7981C122.149 90.5917 122.149 87.1562 122.149 83.8352C122.149 83.4917 122.378 83.2627 122.722 83.2627C126.272 83.0336 129.822 83.0336 133.715 83.2627C134.059 83.2627 134.288 83.4917 134.288 83.8352C134.402 87.2707 134.288 90.8207 134.173 94.9433C134.059 95.2868 133.83 95.5159 133.486 95.5159ZM123.294 94.2562C124.898 94.2562 126.501 94.2562 128.218 94.3707C129.822 94.3707 131.539 94.4852 133.028 94.4852C133.143 90.8207 133.143 87.6143 133.143 84.5223C129.707 84.4078 126.501 84.4078 123.294 84.5223C123.294 87.6143 123.294 90.8207 123.294 93.9126V94.2562Z" fill="#636464"/>
<path d="M156.16 94.9433C152.725 94.9433 148.717 94.8288 145.281 94.7143C145.281 91.2788 145.281 87.4998 145.281 83.8353C148.831 83.6063 152.381 83.6063 156.16 83.8353C156.389 87.4998 156.389 91.0498 156.16 94.9433Z" fill="#006FFD"/>
<path d="M156.16 95.5159C154.443 95.5159 152.61 95.5159 150.778 95.4013C148.946 95.4013 147.114 95.2868 145.396 95.2868C145.052 95.2868 144.823 95.0578 144.823 94.7142V93.7981C144.823 90.5917 144.823 87.1562 144.823 83.8352C144.823 83.4917 145.052 83.2627 145.396 83.2627C148.946 83.0336 152.496 83.0336 156.389 83.2627C156.733 83.2627 156.962 83.4917 156.962 83.8352C157.076 87.2707 156.962 90.8207 156.847 94.9433C156.733 95.2868 156.504 95.5159 156.16 95.5159ZM145.968 94.2562C147.572 94.2562 149.175 94.2562 150.893 94.3707C152.496 94.3707 154.214 94.4852 155.702 94.4852C155.817 90.8207 155.817 87.6143 155.817 84.5223C152.381 84.4078 149.175 84.4078 145.968 84.5223C145.968 87.6143 145.968 90.8207 145.968 93.9126V94.2562Z" fill="#636464"/>
<path d="M133.486 118.304C130.05 118.304 126.042 118.19 122.607 118.075C122.607 114.64 122.607 110.861 122.607 107.196C126.157 106.967 129.707 106.967 133.486 107.196C133.715 110.746 133.715 114.296 133.486 118.304Z" fill="#006FFD"/>
<path d="M133.486 118.877C131.768 118.877 129.936 118.877 128.104 118.762C126.272 118.762 124.439 118.648 122.722 118.648C122.378 118.648 122.149 118.419 122.149 118.075V117.159C122.149 113.953 122.149 110.517 122.149 107.196C122.149 106.853 122.378 106.624 122.722 106.624C126.272 106.395 129.822 106.395 133.715 106.624C134.059 106.624 134.288 106.853 134.288 107.196C134.402 110.632 134.288 114.182 134.173 118.304C134.059 118.533 133.83 118.877 133.486 118.877ZM123.294 117.503C124.898 117.503 126.501 117.503 128.218 117.617C129.822 117.617 131.539 117.732 133.028 117.732C133.143 114.067 133.143 110.861 133.143 107.769C129.707 107.654 126.501 107.654 123.294 107.769C123.294 110.861 123.294 114.067 123.294 117.159V117.503Z" fill="#636464"/>
<path d="M156.16 118.304C152.725 118.304 148.717 118.19 145.281 118.075C145.281 114.64 145.281 110.861 145.281 107.196C148.831 106.967 152.381 106.967 156.16 107.196C156.389 110.746 156.389 114.296 156.16 118.304Z" fill="#006FFD"/>
<path d="M156.16 118.877C154.443 118.877 152.61 118.877 150.778 118.762C148.946 118.762 147.114 118.648 145.396 118.648C145.052 118.648 144.823 118.419 144.823 118.075V117.159C144.823 113.953 144.823 110.517 144.823 107.196C144.823 106.853 145.052 106.624 145.396 106.624C148.946 106.395 152.496 106.395 156.389 106.624C156.733 106.624 156.962 106.853 156.962 107.196C157.076 110.632 156.962 114.182 156.847 118.304C156.733 118.533 156.504 118.877 156.16 118.877ZM145.968 117.503C147.572 117.503 149.175 117.503 150.893 117.617C152.496 117.617 154.214 117.732 155.702 117.732C155.817 114.067 155.817 110.861 155.817 107.769C152.381 107.654 149.175 107.654 145.968 107.769C145.968 110.861 145.968 114.067 145.968 117.159V117.503Z" fill="#636464"/>
<path d="M167.154 44.7853C148.831 44.2127 130.509 44.0982 112.759 44.4418C112.415 44.4418 112.186 44.2128 112.186 43.8692C112.186 43.5257 112.415 43.2966 112.759 43.2966C130.509 42.8386 148.831 42.9531 167.154 43.6402C167.497 43.6402 167.726 43.8692 167.726 44.2127C167.726 44.5563 167.497 44.7853 167.154 44.7853Z" fill="#636464"/>
<path d="M133.486 64.5964L123.18 64.4819C123.065 64.4819 122.951 64.3673 122.951 64.2528C122.951 64.1383 123.065 64.0238 123.18 64.0238L133.486 64.1383C133.601 64.1383 133.715 64.2528 133.715 64.3674C133.715 64.4819 133.601 64.5964 133.486 64.5964Z" fill="#EDEFF1"/>
<path d="M156.503 64.5964C153.984 64.4819 151.121 64.4819 148.258 64.4819C147.342 64.4819 146.54 64.4819 145.624 64.4819C145.51 64.4819 145.395 64.3673 145.395 64.2528C145.395 64.1383 145.51 64.0238 145.624 64.0238C146.426 64.0238 147.342 64.0238 148.258 64.0238C151.121 64.0238 154.098 64.0238 156.618 64.1383C156.732 64.1383 156.847 64.2528 156.847 64.3674C156.732 64.4819 156.618 64.5964 156.503 64.5964Z" fill="#EDEFF1"/>
<path d="M133.257 87.3853C131.769 87.3853 130.051 87.3853 128.333 87.3853C126.615 87.3853 124.783 87.3853 123.18 87.3853C123.065 87.3853 122.951 87.2708 122.951 87.1563C122.951 87.0417 123.065 87.0418 123.18 86.9272C124.783 87.0418 126.501 86.9272 128.333 86.9272C130.051 86.9272 131.883 86.9272 133.372 86.9272C133.486 86.9272 133.601 87.0417 133.601 87.1563C133.372 87.3853 133.372 87.3853 133.257 87.3853Z" fill="#EDEFF1"/>
<path d="M156.16 87.3852C153.755 87.2707 149.862 87.2707 145.739 87.2707C145.625 87.2707 145.51 87.1561 145.51 87.0416C145.51 86.9271 145.625 86.8126 145.739 86.8126C149.976 86.8126 153.755 86.8126 156.16 86.9271C156.275 86.9271 156.389 87.0416 156.389 87.1562C156.275 87.2707 156.16 87.3852 156.16 87.3852Z" fill="#EDEFF1"/>
<path d="M128.562 110.517C126.615 110.517 124.668 110.517 122.836 110.403C122.721 110.403 122.607 110.288 122.607 110.174C122.607 110.059 122.721 110.059 122.836 109.945C125.47 110.059 128.218 110.059 130.852 110.059C131.654 110.059 132.341 110.059 133.142 110.059C133.257 110.059 133.371 110.174 133.371 110.288C133.371 110.403 133.257 110.517 133.142 110.517C132.341 110.517 131.654 110.517 130.852 110.517C130.05 110.517 129.249 110.517 128.562 110.517Z" fill="#EDEFF1"/>
<path d="M145.624 110.403C145.51 110.403 145.395 110.288 145.395 110.174C145.395 110.059 145.51 109.945 145.624 109.945C149.06 109.83 152.61 109.83 156.16 109.83C156.274 109.83 156.389 109.945 156.389 110.059C156.389 110.174 156.274 110.288 156.16 110.288C152.61 110.288 149.06 110.288 145.624 110.403Z" fill="#EDEFF1"/>
<g opacity="0.1294">
<path d="M166.467 44.0982C166.009 44.0982 165.665 44.0982 165.207 44.0982C163.719 44.0982 162.115 44.0982 160.627 43.9837C156.848 43.7546 148.602 43.5256 143.22 43.7546C139.098 43.5256 134.975 43.5256 130.852 43.4111C127.532 43.4111 124.211 43.5256 120.89 43.5256C118.485 43.5256 116.08 43.5256 113.79 43.7546C111.728 43.7546 111.728 47.0756 113.79 47.1901C116.882 46.732 119.974 46.8465 123.065 46.8465C128.219 46.8465 133.257 46.8466 138.411 46.9611C143.793 47.1901 149.175 47.1901 154.557 47.1901C156.046 47.1901 157.535 47.4191 159.023 47.3046C160.856 47.3046 160.627 47.3046 162.23 47.3046C163.604 47.4191 164.978 47.4191 166.238 47.3046C166.123 47.3046 166.009 47.3046 165.894 47.4191C166.925 47.5336 167.956 47.0756 167.956 45.8159C167.956 44.8998 167.268 44.0982 166.467 44.0982Z" fill="#636464"/>
</g>
<path d="M47.7205 141.093C74.9752 140.635 102.23 140.75 129.37 141.322C129.37 121.74 129.714 102.158 130.057 82.8047C121.583 82.0031 112.994 81.8886 104.749 82.8047C104.52 73.6435 104.52 64.5967 104.978 55.3209C95.3591 55.6645 85.7397 55.6645 76.4639 54.9774C75.8914 48.9081 75.7769 42.7242 76.3494 36.7694C67.0737 35.9678 57.6834 35.9678 48.1785 35.9678C47.606 71.2386 47.606 106.509 47.7205 141.093Z" fill="white"/>
<path d="M129.37 141.895C99.4814 141.322 72.7993 141.208 47.7203 141.666C47.6058 141.666 47.3767 141.666 47.2622 141.551C47.1477 141.437 47.1477 141.322 47.1477 141.208C46.9187 102.616 47.1477 68.2612 47.6058 36.0822C47.6058 35.7387 47.8348 35.5096 48.1784 35.5096C57.6832 35.5096 67.0735 35.5096 76.3492 36.3113C76.4638 36.3113 76.6928 36.4258 76.6928 36.5403C76.8073 36.6548 76.8073 36.7693 76.8073 36.9984C76.2347 42.1516 76.2347 47.8774 76.8073 54.6338C84.8234 55.2064 93.9847 55.3209 104.749 54.9773C104.864 54.9773 105.093 54.9773 105.207 55.0919C105.322 55.2064 105.322 55.3209 105.322 55.5499C104.978 63.795 104.864 72.3837 105.093 82.4611C112.765 81.6595 121.125 81.6595 129.943 82.4611C130.286 82.4611 130.401 82.6902 130.401 83.0337C130.286 87.7289 130.286 92.424 130.172 97.1192C129.943 111.663 129.714 126.664 129.714 141.551C129.714 141.666 129.599 141.895 129.599 141.895C129.714 141.78 129.599 141.895 129.37 141.895ZM82.075 140.292C96.8476 140.292 112.422 140.406 128.912 140.75C128.912 126.092 129.141 111.205 129.37 96.8901C129.485 92.424 129.485 87.8434 129.599 83.3773C120.781 82.5756 112.536 82.5756 104.864 83.4918C104.749 83.4918 104.52 83.4918 104.406 83.3773C104.291 83.2627 104.177 83.1482 104.177 82.9192C103.948 72.8418 103.948 64.2531 104.291 56.008C93.5266 56.3515 84.3653 56.237 76.3492 55.5499C76.1202 55.5499 75.8912 55.3209 75.8912 55.0919C75.3186 48.4499 75.3186 42.6096 75.7767 37.3419C66.8444 36.6548 57.9122 36.6548 48.8654 36.6548C48.2929 68.4902 48.1784 102.501 48.4074 140.635C59.1719 140.292 70.3944 140.292 82.075 140.292Z" fill="#636464"/>
<path d="M71.9986 82.4613C68.5631 82.4613 64.5551 82.3468 61.2341 82.2323C61.2341 78.9113 61.2341 75.3613 61.2341 71.9259C64.7841 71.6968 68.3341 71.6968 72.1131 71.9259C72.1131 75.3613 72.1131 78.6823 71.9986 82.4613Z" fill="#B8D4F7"/>
<path d="M71.9987 83.0338C70.281 83.0338 68.4487 83.0338 66.6164 82.9193C64.7842 82.9193 62.9519 82.8047 61.2342 82.8047C60.8907 82.8047 60.6616 82.5757 60.6616 82.2322V81.316C60.6616 78.2241 60.6616 75.0177 60.6616 71.9257C60.6616 71.5822 60.8907 71.3532 61.2342 71.3532C64.7842 71.1241 68.3342 71.1241 72.1132 71.3532C72.4567 71.3532 72.6858 71.5822 72.6858 71.9257C72.8003 75.2467 72.6858 78.5677 72.5713 82.4612C72.4568 82.6902 72.2277 83.0338 71.9987 83.0338ZM61.6923 81.6596C63.2955 81.6596 64.8987 81.6596 66.5019 81.7741C68.1052 81.7741 69.8229 81.8886 71.3116 81.8886C71.4261 78.4531 71.4261 75.4757 71.4261 72.4983C67.9906 72.3838 64.7842 72.3838 61.6923 72.4983C61.6923 75.4757 61.6923 78.4532 61.6923 81.4306V81.6596Z" fill="#636464"/>
<path d="M94.5579 82.4613C91.1225 82.4613 87.1144 82.3468 83.7935 82.2323C83.7935 78.9113 83.7935 75.3613 83.7935 71.9259C87.3434 71.6968 90.8934 71.6968 94.6725 71.9259C94.787 75.3613 94.6725 78.6823 94.5579 82.4613Z" fill="#B8D4F7"/>
<path d="M94.5583 83.0338C92.8405 83.0338 91.0083 83.0338 89.176 82.9193C87.3438 82.9193 85.5115 82.8047 83.7938 82.8047C83.4502 82.8047 83.2212 82.5757 83.2212 82.2322V81.316C83.2212 78.2241 83.2212 75.0177 83.2212 71.9257C83.2212 71.5822 83.4502 71.3532 83.7938 71.3532C87.3438 71.1241 90.8938 71.1241 94.6728 71.3532C95.0163 71.3532 95.2454 71.5822 95.2454 71.9257C95.3599 75.2467 95.2454 78.5677 95.1308 82.4612C95.1308 82.6902 94.9018 83.0338 94.5583 83.0338ZM84.3663 81.6596C85.9696 81.6596 87.5728 81.6596 89.176 81.7741C90.7792 81.7741 92.497 81.8886 93.9857 81.8886C94.1002 78.4531 94.1002 75.4757 94.1002 72.4983C90.6647 72.3838 87.4583 72.3838 84.3663 72.4983C84.3663 75.4757 84.3663 78.4532 84.3663 81.4306V81.6596Z" fill="#636464"/>
<path d="M71.6551 104.448C68.2196 104.448 64.2116 104.334 60.8906 104.219C60.8906 100.898 60.8906 97.3482 60.8906 93.9127C64.4406 93.6837 67.9906 93.6837 71.7696 93.9127C71.8841 97.3482 71.7696 100.784 71.6551 104.448Z" fill="#B8D4F7"/>
<path d="M71.6544 105.021C69.9367 105.021 68.1045 105.021 66.2722 104.906C64.4399 104.906 62.6077 104.792 60.89 104.792C60.5464 104.792 60.3174 104.563 60.3174 104.219V103.303C60.3174 100.211 60.3174 97.0047 60.3174 93.9128C60.3174 93.5693 60.5464 93.3402 60.89 93.3402C64.44 93.1112 67.9899 93.1112 71.769 93.3402C72.1125 93.3402 72.3415 93.5693 72.3415 93.9128C72.4561 97.2338 72.3415 100.555 72.227 104.448C72.227 104.792 71.998 105.021 71.6544 105.021ZM61.348 103.761C62.9512 103.761 64.5545 103.761 66.2722 103.876C67.8754 103.876 69.5932 103.99 71.0819 103.99C71.1964 100.555 71.1964 97.5773 71.1964 94.5999C67.7609 94.4854 64.5545 94.4854 61.4625 94.5999C61.4625 97.5773 61.4625 100.555 61.4625 103.532L61.348 103.761Z" fill="#636464"/>
<path d="M94.2142 104.448C90.7787 104.448 86.7707 104.334 83.4497 104.219C83.4497 100.898 83.4497 97.3482 83.4497 93.9127C86.9997 93.6837 90.5497 93.6837 94.3287 93.9127C94.4432 97.3482 94.4432 100.784 94.2142 104.448Z" fill="#B8D4F7"/>
<path d="M94.214 105.021C92.4963 105.021 90.664 105.021 88.8318 104.906C86.9995 104.906 85.1673 104.792 83.4495 104.792C83.106 104.792 82.877 104.563 82.877 104.219V103.303C82.877 100.211 82.877 97.0047 82.877 93.9128C82.877 93.5693 83.106 93.3402 83.4495 93.3402C86.9995 93.1112 90.5495 93.1112 94.3285 93.3402C94.6721 93.3402 94.9011 93.5693 94.9011 93.9128C95.0156 97.2338 94.9011 100.555 94.7866 104.448C94.7866 104.792 94.5576 105.021 94.214 105.021ZM84.0221 103.761C85.6253 103.761 87.2286 103.761 88.9463 103.876C90.5495 103.876 92.2672 103.99 93.756 103.99C93.8705 100.555 93.8705 97.5773 93.8705 94.5999C90.435 94.4854 87.2286 94.4854 84.1366 94.5999C84.1366 97.5773 84.1366 100.555 84.1366 103.418L84.0221 103.761Z" fill="#636464"/>
<path d="M71.6551 126.55C68.2196 126.55 64.2116 126.435 60.8906 126.321C60.8906 123 60.8906 119.45 60.8906 116.014C64.4406 115.785 67.9906 115.785 71.7696 116.014C71.8841 119.45 71.7696 122.771 71.6551 126.55Z" fill="#B8D4F7"/>
<path d="M71.6544 127.122C69.9367 127.122 68.1045 127.122 66.2722 127.008C64.4399 127.008 62.6077 126.893 60.89 126.893C60.5464 126.893 60.3174 126.664 60.3174 126.321V125.405C60.3174 122.313 60.3174 119.106 60.3174 116.014C60.3174 115.671 60.5464 115.442 60.89 115.442C64.44 115.213 67.9899 115.213 71.769 115.442C72.1125 115.442 72.3415 115.671 72.3415 116.014C72.4561 119.335 72.3415 122.656 72.227 126.55C72.227 126.893 71.998 127.122 71.6544 127.122ZM61.348 125.863C62.9512 125.863 64.5545 125.863 66.1577 125.977C67.7609 125.977 69.4786 126.092 70.9673 126.092C71.0819 122.656 71.0819 119.679 71.0819 116.701C67.6464 116.587 64.44 116.587 61.348 116.701C61.348 119.679 61.348 122.656 61.348 125.634V125.863Z" fill="#636464"/>
<path d="M94.2142 126.55C90.7787 126.55 86.7707 126.435 83.4497 126.321C83.4497 123 83.4497 119.45 83.4497 116.014C86.9997 115.785 90.5497 115.785 94.3287 116.014C94.4432 119.45 94.4432 122.771 94.2142 126.55Z" fill="#B8D4F7"/>
<path d="M94.214 127.122C92.4963 127.122 90.664 127.122 88.8318 127.008C86.9995 127.008 85.1673 126.893 83.4495 126.893C83.106 126.893 82.877 126.664 82.877 126.321V125.405C82.877 122.313 82.877 119.106 82.877 116.014C82.877 115.671 83.106 115.442 83.4495 115.442C86.9995 115.213 90.5495 115.213 94.3285 115.442C94.6721 115.442 94.9011 115.671 94.9011 116.014C95.0156 119.335 94.9011 122.656 94.7866 126.55C94.7866 126.893 94.5576 127.122 94.214 127.122ZM84.0221 125.863C85.6253 125.863 87.2286 125.863 88.8318 125.977C90.435 125.977 92.1527 126.092 93.6414 126.092C93.756 122.656 93.756 119.679 93.756 116.701C90.3205 116.587 87.114 116.587 84.0221 116.701C84.0221 119.679 84.0221 122.656 84.0221 125.519V125.863Z" fill="#636464"/>
<path d="M71.6544 75.7047L61.3479 75.5901C61.2334 75.5901 61.1189 75.4756 61.1189 75.3611C61.1189 75.2466 61.2334 75.1321 61.3479 75.1321L71.6544 75.2466C71.7689 75.2466 71.8834 75.3611 71.8834 75.4756C71.8834 75.5901 71.7689 75.7047 71.6544 75.7047Z" fill="#636464"/>
<path d="M94.5577 75.7047C92.0384 75.5901 89.1755 75.5901 86.3126 75.5901C85.3965 75.5901 84.5949 75.5901 83.6787 75.5901C83.5642 75.5901 83.4497 75.4756 83.4497 75.3611C83.4497 75.2466 83.5642 75.1321 83.6787 75.1321C84.4804 75.1321 85.3965 75.1321 86.3126 75.1321C89.1755 75.1321 92.1529 75.1321 94.5577 75.2466C94.6723 75.2466 94.7868 75.3611 94.7868 75.4756C94.7868 75.5901 94.6723 75.7047 94.5577 75.7047Z" fill="#636464"/>
<path d="M71.3113 97.3482C69.8226 97.3482 68.1049 97.3482 66.3871 97.3482C64.6694 97.3482 62.8371 97.3482 61.2339 97.3482C61.1194 97.3482 61.0049 97.2337 61.0049 97.1192C61.0049 97.0046 61.1194 96.8901 61.2339 96.8901C62.8371 96.8901 64.5549 96.8901 66.3871 96.8901C68.1049 96.8901 69.8226 96.8901 71.3113 96.8901C71.4258 96.8901 71.5403 97.0046 71.5403 97.1192C71.5403 97.2337 71.4258 97.3482 71.3113 97.3482Z" fill="#636464"/>
<path d="M94.2142 97.2338C91.8094 97.1193 87.9158 97.1193 83.7932 97.1193C83.6787 97.1193 83.5642 97.0048 83.5642 96.8903C83.5642 96.7758 83.6787 96.6613 83.7932 96.6613C85.74 96.6613 90.7787 96.6612 94.2142 96.7758C94.3287 96.7758 94.4432 96.8903 94.4432 97.0048C94.3287 97.2338 94.3287 97.2338 94.2142 97.2338Z" fill="#636464"/>
<path d="M66.6164 119.221C64.6697 119.221 62.7229 119.221 60.8907 119.106C60.7761 119.106 60.6616 118.992 60.6616 118.877C60.6616 118.763 60.7761 118.648 60.8907 118.648C63.5245 118.763 66.2729 118.763 68.9068 118.763C69.7084 118.763 70.3955 118.763 71.1971 118.763C71.3116 118.763 71.4261 118.877 71.4261 118.992C71.4261 119.106 71.3116 119.221 71.1971 119.221C70.3955 119.221 69.7084 119.221 68.9068 119.221C68.2197 119.221 67.4181 119.221 66.6164 119.221Z" fill="#636464"/>
<path d="M83.6787 119.106C83.5642 119.106 83.4497 118.992 83.4497 118.877C83.4497 118.763 83.5642 118.648 83.6787 118.648C87.1142 118.534 90.6642 118.534 94.2142 118.534C94.3287 118.534 94.4432 118.648 94.4432 118.763C94.4432 118.877 94.3287 118.992 94.2142 118.992C90.6642 118.992 87.1142 118.992 83.6787 119.106Z" fill="#636464"/>
<path d="M117.003 104.448C113.568 104.448 109.56 104.334 106.239 104.219C106.239 100.898 106.239 97.3482 106.239 93.9127C109.789 93.6837 113.339 93.6837 117.118 93.9127C117.118 97.3482 117.118 100.784 117.003 104.448Z" fill="#B8D4F7"/>
<path d="M117.003 105.021C115.285 105.021 113.453 105.021 111.621 104.906C109.788 104.906 107.956 104.792 106.238 104.792C105.895 104.792 105.666 104.563 105.666 104.219V103.303C105.666 100.211 105.666 97.0047 105.666 93.9128C105.666 93.5693 105.895 93.3402 106.238 93.3402C109.788 93.1112 113.338 93.1112 117.117 93.3402C117.461 93.3402 117.69 93.5693 117.69 93.9128C117.804 97.2338 117.69 100.555 117.575 104.448C117.461 104.792 117.232 105.021 117.003 105.021ZM106.696 103.761C108.3 103.761 109.903 103.761 111.621 103.876C113.224 103.876 114.942 103.99 116.43 103.99C116.545 100.555 116.545 97.5773 116.545 94.5999C113.109 94.4854 109.903 94.4854 106.811 94.5999C106.811 97.5773 106.811 100.555 106.811 103.532L106.696 103.761Z" fill="#636464"/>
<path d="M117.003 126.55C113.568 126.55 109.56 126.435 106.239 126.321C106.239 123 106.239 119.45 106.239 116.014C109.789 115.785 113.339 115.785 117.118 116.014C117.118 119.45 117.118 122.771 117.003 126.55Z" fill="#B8D4F7"/>
<path d="M117.003 127.122C115.285 127.122 113.453 127.122 111.621 127.008C109.788 127.008 107.956 126.893 106.238 126.893C105.895 126.893 105.666 126.664 105.666 126.321V125.405C105.666 122.313 105.666 119.106 105.666 116.014C105.666 115.671 105.895 115.442 106.238 115.442C109.788 115.213 113.338 115.213 117.117 115.442C117.461 115.442 117.69 115.671 117.69 116.014C117.804 119.335 117.69 122.656 117.575 126.55C117.461 126.893 117.232 127.122 117.003 127.122ZM106.696 125.863C108.3 125.863 109.903 125.863 111.506 125.977C113.109 125.977 114.827 126.092 116.316 126.092C116.43 122.656 116.43 119.679 116.43 116.701C112.995 116.587 109.788 116.587 106.696 116.701C106.696 119.679 106.696 122.656 106.696 125.634V125.863Z" fill="#636464"/>
<path d="M116.889 97.2338C114.484 97.1193 110.59 97.1193 106.468 97.1193C106.353 97.1193 106.239 97.0048 106.239 96.8903C106.239 96.7758 106.353 96.6613 106.468 96.6613C108.415 96.6613 113.453 96.6612 116.889 96.7758C117.003 96.7758 117.118 96.8903 117.118 97.0048C117.003 97.2338 117.003 97.2338 116.889 97.2338Z" fill="#636464"/>
<path d="M106.353 119.106C106.238 119.106 106.124 118.992 106.124 118.877C106.124 118.763 106.238 118.648 106.353 118.648C109.788 118.534 113.338 118.534 116.888 118.534C117.003 118.534 117.117 118.648 117.117 118.763C117.117 118.877 117.003 118.992 116.888 118.992C113.338 118.992 109.903 118.992 106.353 119.106Z" fill="#636464"/>
<path d="M45.3159 142.926C74.632 142.926 102.23 142.697 130.401 142.926C131.203 142.926 131.203 136.627 131.203 136.627C122.042 137.314 69.4788 135.826 45.2014 136.971C45.0869 138.688 44.9724 140.75 45.3159 142.926Z" fill="white"/>
<path d="M45.3163 143.384C45.0872 143.384 44.8582 143.155 44.7437 142.926C44.4001 140.521 44.5146 138.345 44.6292 136.742C44.6292 136.513 44.8582 136.284 45.2017 136.169C58.8291 135.597 81.8468 135.826 100.284 135.94C114.713 136.055 127.195 136.169 131.203 135.826C131.318 135.826 131.547 135.826 131.661 135.94C131.776 136.055 131.89 136.169 131.89 136.398C131.89 143.269 131.089 143.269 130.631 143.269C112.079 143.155 93.9855 143.155 74.9759 143.269C65.242 143.384 55.2791 143.384 45.3163 143.384ZM45.6598 137.429C45.5453 138.803 45.5453 140.521 45.7743 142.353C55.6227 142.353 65.3565 142.353 74.7468 142.353C93.7565 142.353 111.621 142.239 130.172 142.353C130.402 141.666 130.516 139.376 130.631 137.2C126.05 137.429 114.026 137.314 100.284 137.2C82.0758 136.971 59.4017 136.742 45.6598 137.429Z" fill="#636464"/>
<rect x="14.678" y="237.121" width="91.5753" height="53.1451" rx="13.0146" fill="#006FFD"/>
<path d="M40.3594 270.693V256.562H45.6585C46.7441 256.562 47.6548 256.765 48.3908 257.17C49.1314 257.574 49.6903 258.131 50.0675 258.839C50.4493 259.543 50.6402 260.344 50.6402 261.241C50.6402 262.147 50.4493 262.952 50.0675 263.656C49.6857 264.359 49.1222 264.914 48.377 265.318C47.6318 265.719 46.7142 265.919 45.624 265.919H42.1119V263.814H45.279C45.9138 263.814 46.4336 263.704 46.8384 263.483C47.2431 263.262 47.5421 262.959 47.7353 262.572C47.9331 262.186 48.032 261.742 48.032 261.241C48.032 260.739 47.9331 260.298 47.7353 259.916C47.5421 259.534 47.2408 259.237 46.8315 259.026C46.4267 258.81 45.9046 258.701 45.2652 258.701H42.9192V270.693H40.3594ZM57.2244 270.9C56.1894 270.9 55.2925 270.673 54.5335 270.217C53.7745 269.762 53.1857 269.125 52.7671 268.306C52.3531 267.487 52.1461 266.531 52.1461 265.436C52.1461 264.341 52.3531 263.382 52.7671 262.559C53.1857 261.735 53.7745 261.096 54.5335 260.64C55.2925 260.185 56.1894 259.957 57.2244 259.957C58.2594 259.957 59.1564 260.185 59.9154 260.64C60.6744 261.096 61.2609 261.735 61.6749 262.559C62.0934 263.382 62.3027 264.341 62.3027 265.436C62.3027 266.531 62.0934 267.487 61.6749 268.306C61.2609 269.125 60.6744 269.762 59.9154 270.217C59.1564 270.673 58.2594 270.9 57.2244 270.9ZM57.2382 268.9C57.7994 268.9 58.2686 268.745 58.6458 268.437C59.023 268.124 59.3036 267.706 59.4876 267.181C59.6762 266.657 59.7705 266.073 59.7705 265.429C59.7705 264.78 59.6762 264.194 59.4876 263.669C59.3036 263.14 59.023 262.72 58.6458 262.407C58.2686 262.094 57.7994 261.938 57.2382 261.938C56.6632 261.938 56.1848 262.094 55.803 262.407C55.4258 262.72 55.143 263.14 54.9544 263.669C54.7704 264.194 54.6784 264.78 54.6784 265.429C54.6784 266.073 54.7704 266.657 54.9544 267.181C55.143 267.706 55.4258 268.124 55.803 268.437C56.1848 268.745 56.6632 268.9 57.2382 268.9ZM72.7992 262.897L70.5222 263.145C70.4578 262.915 70.3451 262.699 70.1841 262.496C70.0277 262.294 69.8162 262.131 69.5494 262.007C69.2826 261.882 68.956 261.82 68.5696 261.82C68.0498 261.82 67.6128 261.933 67.2586 262.158C66.909 262.384 66.7365 262.676 66.7411 263.035C66.7365 263.343 66.8492 263.593 67.0792 263.787C67.3138 263.98 67.7002 264.139 68.2384 264.263L70.0461 264.649C71.0489 264.865 71.7941 265.208 72.2817 265.677C72.7739 266.146 73.0223 266.761 73.0269 267.52C73.0223 268.187 72.8268 268.775 72.4404 269.286C72.0586 269.792 71.5273 270.187 70.8465 270.473C70.1657 270.758 69.3838 270.9 68.5006 270.9C67.2034 270.9 66.1592 270.629 65.368 270.086C64.5768 269.539 64.1053 268.778 63.9535 267.802L66.3892 267.568C66.4996 268.046 66.7342 268.407 67.093 268.651C67.4518 268.895 67.9187 269.017 68.4937 269.017C69.0871 269.017 69.5632 268.895 69.922 268.651C70.2853 268.407 70.467 268.106 70.467 267.747C70.467 267.444 70.3497 267.193 70.1151 266.995C69.8852 266.797 69.5264 266.646 69.0388 266.54L67.231 266.16C66.2144 265.949 65.4623 265.592 64.9747 265.091C64.4871 264.585 64.2456 263.945 64.2502 263.173C64.2456 262.519 64.4227 261.954 64.7815 261.475C65.1449 260.992 65.6486 260.62 66.2926 260.357C66.9412 260.091 67.6887 259.957 68.5351 259.957C69.7771 259.957 70.7545 260.222 71.4675 260.751C72.1851 261.28 72.629 261.995 72.7992 262.897ZM80.3787 260.095V262.027H74.2861V260.095H80.3787ZM75.7903 257.556H78.2881V267.506C78.2881 267.842 78.3387 268.099 78.4399 268.279C78.5457 268.453 78.6837 268.573 78.8539 268.637C79.0241 268.702 79.2127 268.734 79.4197 268.734C79.5761 268.734 79.7186 268.722 79.8474 268.699C79.9808 268.676 80.082 268.656 80.151 268.637L80.5719 270.59C80.4385 270.636 80.2476 270.687 79.9992 270.742C79.7554 270.797 79.4565 270.829 79.1023 270.838C78.4767 270.857 77.9132 270.762 77.4118 270.555C76.9104 270.344 76.5125 270.017 76.2181 269.576C75.9283 269.134 75.7857 268.582 75.7903 267.92V257.556Z" fill="white"/>
<path d="M224.025 59.3224C223.201 56.9236 223.083 54.1978 224.966 52.3443C226.849 50.4907 229.556 49.6185 232.145 48.7462C252.974 41.8771 273.921 35.117 294.751 28.248C297.575 27.3757 300.635 27.0486 302.518 28.7931C305.342 31.519 306.519 36.9706 307.931 41.0048C311.108 49.7275 314.168 58.4501 317.345 67.1728C318.051 69.0263 318.64 70.8799 318.287 72.7334C317.934 74.587 312.756 76.7676 310.755 77.3128C289.102 82.9825 269.332 90.3968 246.737 97.5929C244.501 98.0291 241.912 98.2472 239.912 97.1568C237.558 95.9575 236.381 93.4497 235.44 91.16C231.086 80.6928 228.144 70.7708 224.025 59.3224Z" fill="white"/>
<path d="M243.325 98.4653C241.795 98.4653 240.5 98.1382 239.441 97.5931C236.97 96.2847 235.793 93.7769 234.734 91.2692C232.027 84.8362 230.027 78.6213 227.791 72.0794C226.379 68.0451 224.967 63.7928 223.319 59.3225C222.26 56.2696 222.613 53.5438 224.378 51.7992C226.379 49.8366 229.321 48.8553 231.792 48.0921L294.398 27.5939C298.164 26.3945 300.988 26.6126 302.753 28.3571C304.989 30.5378 306.166 34.2449 307.343 37.843C307.696 38.8243 307.931 39.8056 308.284 40.6778L317.699 66.8458C318.287 68.5903 319.111 70.6619 318.64 72.7336C318.169 75.0233 312.521 77.2039 310.638 77.7491C296.163 81.5652 282.63 86.0356 268.391 90.833C261.448 93.2317 254.151 95.6305 246.62 98.0292C245.561 98.3563 244.384 98.4653 243.325 98.4653ZM298.752 27.921C297.693 27.921 296.398 28.1391 294.869 28.6842L232.263 49.1824C229.909 49.9457 227.085 50.8179 225.32 52.6715C223.319 54.6341 223.908 57.578 224.496 59.1044C226.143 63.5748 227.556 67.718 228.968 71.8613C231.204 78.4033 233.322 84.5091 235.911 90.9421C236.852 93.3408 237.911 95.6305 240.03 96.7208C241.56 97.4841 243.678 97.7021 246.502 97.0479C254.034 94.6492 261.212 92.2505 268.155 89.8517C282.512 85.0543 296.045 80.4749 310.52 76.6587C312.874 76.0045 317.463 73.9329 317.699 72.5155C318.052 70.771 317.346 68.8084 316.757 67.1729L307.343 41.005C306.99 40.1327 306.754 39.1514 306.401 38.0611C305.342 34.7901 304.165 30.9739 302.047 29.0113C301.223 28.3571 300.164 27.921 298.752 27.921Z" fill="#23274D"/>
<path d="M245.443 94.4312C244.148 94.4312 243.089 94.2132 242.148 93.777C240.03 92.6867 238.97 90.506 238.029 88.3254C235.675 82.5466 233.792 76.9859 231.792 71.2072C230.615 67.6091 229.321 63.7929 227.791 59.8678C226.849 57.251 227.202 54.9613 228.732 53.4348C230.497 51.6903 233.086 50.818 235.44 50.0548L292.986 31.3011C296.281 30.2108 298.752 30.4289 300.282 31.8463C302.282 33.8089 303.341 37.0799 304.401 40.2418C304.636 41.1141 304.989 41.9863 305.224 42.8586L313.697 66.3007C314.286 67.8272 314.874 69.6807 314.521 71.4253C314.168 73.2788 309.225 75.2414 307.46 75.7866C294.162 79.2756 281.806 83.4189 268.626 87.8892C262.153 90.0699 255.563 92.2506 248.738 94.4312C247.443 94.3222 246.384 94.4312 245.443 94.4312ZM296.751 30.756C295.692 30.756 294.515 30.974 293.103 31.4101L235.558 50.1638C233.322 50.9271 230.733 51.6903 229.085 53.4348C227.085 55.2884 227.673 58.0142 228.262 59.5407C229.674 63.5749 230.968 67.282 232.263 70.9891C234.263 76.8769 236.146 82.3285 238.5 88.1073C239.441 90.288 240.383 92.3596 242.383 93.4499C243.913 94.2132 245.914 94.3222 248.503 93.777C255.328 91.5964 262.036 89.4157 268.39 87.235C281.571 82.8737 293.927 78.6214 307.225 75.1324C309.108 74.5872 313.697 72.6246 314.05 71.0982C314.403 69.4627 313.815 67.7181 313.227 66.1917L304.754 42.7496C304.518 41.9864 304.165 41.1141 303.93 40.1328C302.988 37.1889 301.929 33.8089 299.929 31.9553C299.223 31.1921 298.164 30.756 296.751 30.756Z" fill="#23274D"/>
<path d="M247.914 48.2012C246.266 48.3102 244.736 49.5096 244.501 51.036C244.266 52.5625 245.56 54.198 247.208 54.5251C248.855 54.7432 250.62 53.5438 250.974 52.0174C251.209 50.2728 250.032 48.0922 247.914 48.2012Z" fill="white"/>
<path d="M247.678 54.9612C247.561 54.9612 247.325 54.9612 247.208 54.9612C245.207 54.6341 243.677 52.7806 243.913 50.927C244.148 49.1825 245.913 47.7651 247.796 47.656C248.737 47.547 249.679 47.9831 250.385 48.6373C251.209 49.5096 251.679 50.818 251.562 52.0174C251.209 53.6529 249.561 54.9612 247.678 54.9612ZM247.914 48.7464C246.502 48.8554 245.207 49.8367 245.089 51.036C244.854 52.3444 246.031 53.6528 247.325 53.8709C248.737 54.089 250.15 53.1077 250.385 51.7993C250.503 51.0361 250.15 49.9457 249.561 49.4005C249.208 49.0734 248.737 48.6373 247.914 48.7464Z" fill="#23274D"/>
<path d="M283.807 36.9705C282.159 37.0795 280.629 38.2789 280.394 39.8053C280.159 41.3318 281.453 42.9673 283.101 43.2944C284.748 43.5125 286.513 42.3131 286.866 40.7866C287.219 39.2602 285.925 36.7524 283.807 36.9705Z" fill="white"/>
<path d="M283.571 43.7307C283.454 43.7307 283.218 43.7307 283.1 43.7307C281.1 43.4036 279.57 41.5501 279.805 39.6965C280.041 37.952 281.806 36.5345 283.689 36.4255C284.63 36.3165 285.572 36.7526 286.278 37.4068C287.102 38.2791 287.572 39.5875 287.455 40.7868C287.219 42.4223 285.454 43.7307 283.571 43.7307ZM284.042 37.5158H283.924C282.512 37.6249 281.218 38.6062 281.1 39.8055C280.865 41.1139 282.041 42.4223 283.336 42.6404C284.748 42.8585 286.16 41.8772 286.396 40.5688C286.513 39.8056 286.16 38.7152 285.572 38.17C285.219 37.8429 284.748 37.5158 284.042 37.5158Z" fill="#23274D"/>
<path d="M247.326 50.7089C247.208 50.7089 247.208 50.7089 247.09 50.7089C246.737 50.5998 246.62 50.2727 246.737 50.0547C250.15 41.332 254.504 33.2636 259.8 23.5596C260.623 22.0332 261.447 20.7248 262.506 19.5254C262.977 18.9803 263.801 18.217 264.86 17.999C267.214 17.5628 269.214 19.8525 269.803 20.6157C271.568 22.6874 273.215 24.65 274.745 26.6126C278.511 31.0829 282.041 35.3352 284.63 38.2791C284.866 38.4972 284.748 38.8242 284.513 39.0423C284.277 39.2604 283.924 39.1514 283.689 38.9333C280.982 35.9894 277.452 31.7371 273.804 27.2668C272.156 25.3042 270.509 23.3416 268.861 21.27C267.449 19.5254 266.154 18.8712 265.095 19.0893C264.507 19.1983 263.919 19.5254 263.33 20.1796C262.271 21.27 261.565 22.5783 260.741 23.9958C255.446 33.5907 251.209 41.6591 247.796 50.3818C247.796 50.5998 247.561 50.7089 247.326 50.7089Z" fill="#23274D"/>
<path d="M265.213 16.5815C264.272 16.4724 263.331 16.9085 262.86 17.5627C262.271 18.2169 262.154 19.0892 262.271 19.9615C262.389 20.2886 262.507 20.6157 262.742 20.8337C262.86 20.9428 263.095 21.0518 263.213 21.1608C263.919 21.4879 264.625 21.597 265.331 21.4879C266.037 21.2699 266.626 20.7247 266.979 20.0705C267.096 19.7434 267.332 19.5253 267.332 19.1982C267.332 18.9802 267.332 18.7621 267.214 18.544C266.861 17.5627 266.273 16.6905 265.213 16.5815Z" fill="#B8D4F7"/>
<path d="M264.743 21.9241C264.154 21.9241 263.566 21.8151 262.977 21.488C262.742 21.379 262.507 21.2699 262.389 21.1609C262.036 20.9428 261.918 20.5067 261.801 20.0706C261.565 19.0893 261.801 17.9989 262.507 17.2357C263.213 16.3634 264.39 15.9273 265.449 16.0364C266.508 16.1454 267.332 16.9086 267.92 18.108C268.038 18.4351 268.155 18.7622 268.155 18.9802C268.155 19.4164 267.92 19.7435 267.802 20.0706C267.214 20.9428 266.508 21.597 265.802 21.8151C265.213 21.9241 264.978 21.9241 264.743 21.9241ZM264.86 17.0177C264.272 17.0177 263.684 17.3447 263.213 17.7809C262.742 18.326 262.624 19.0893 262.742 19.7435C262.86 19.9615 262.86 20.1796 262.977 20.2886C263.095 20.3977 263.213 20.3977 263.33 20.5067C264.037 20.8338 264.625 20.9428 264.978 20.8338C265.449 20.7248 265.919 20.2886 266.39 19.6344C266.508 19.4164 266.626 19.1983 266.626 18.9802C266.626 18.8712 266.626 18.6531 266.508 18.5441C266.155 17.6718 265.684 17.2357 264.978 17.1267C265.096 17.0177 264.978 17.0177 264.86 17.0177Z" fill="#23274D"/>
<path d="M286.042 51.6903C285.807 51.6903 285.572 51.5813 285.454 51.3632C285.336 51.0361 285.572 50.818 285.807 50.709C289.573 49.6187 293.338 48.4193 296.987 47.0019C297.222 46.8929 297.575 47.0019 297.693 47.329C297.81 47.547 297.693 47.8741 297.34 47.9832C293.692 49.4006 289.926 50.6 286.16 51.6903H286.042Z" fill="#006FFD"/>
<path d="M250.268 82.5467C250.032 82.5467 249.797 82.4377 249.679 82.2196C248.973 80.366 248.267 78.4035 247.561 76.4409C247.443 76.4409 247.326 76.5499 247.326 76.5499C247.09 76.6589 246.737 76.5499 246.62 76.3318C246.502 76.1138 246.62 75.7866 246.855 75.6776C246.973 75.5686 247.09 75.5686 247.208 75.4596C246.031 72.1886 244.619 69.0266 243.325 65.7556C243.207 65.5375 243.325 65.2105 243.678 65.1014C244.972 64.5563 246.267 64.1201 247.561 63.9021C248.15 63.793 248.973 63.684 249.679 63.793C250.974 64.0111 252.033 64.6653 253.092 65.9737C254.034 67.173 254.387 68.3724 254.269 69.4628C254.151 70.5531 253.563 71.7524 252.386 72.9518C251.68 73.715 250.974 74.3692 250.15 74.9144C253.445 74.6963 256.858 76.1138 258.623 78.5125C258.741 78.7305 258.741 79.0577 258.505 79.2757C258.27 79.3848 257.917 79.3847 257.682 79.1667C255.916 76.6589 252.151 75.4595 248.738 76.2228C249.444 78.1854 250.15 80.039 250.856 82.0015C250.974 82.3286 250.738 82.5467 250.503 82.6557C250.385 82.5467 250.268 82.5467 250.268 82.5467ZM244.501 65.6466C245.796 68.6995 246.973 71.7524 248.15 74.6963C249.444 73.9331 250.503 73.0608 251.445 72.0795C252.386 70.9892 252.974 70.1169 253.092 69.2447C253.21 68.3724 252.857 67.3911 252.033 66.4098C251.209 65.3195 250.385 64.7743 249.444 64.6653C248.856 64.5562 248.267 64.6653 247.679 64.7743C246.62 64.9924 245.561 65.2105 244.501 65.6466Z" fill="#006FFD"/>
<path d="M264.389 77.3129C264.154 77.3129 263.919 77.2039 263.801 76.9858C261.8 71.3161 259.682 65.9735 257.446 61.067C257.328 60.958 257.328 60.7399 257.446 60.6309C257.564 60.5218 257.682 60.4128 257.799 60.3038C260.859 59.4315 263.919 58.4502 266.978 57.2509C267.214 57.1418 267.567 57.2508 267.684 57.5779C267.802 57.796 267.684 58.1231 267.331 58.2321C264.507 59.3225 261.565 60.3038 258.741 61.067C260.977 65.8645 262.977 71.0981 264.978 76.5497C265.095 76.8768 264.86 77.0948 264.625 77.2039C264.507 77.3129 264.507 77.3129 264.389 77.3129Z" fill="#006FFD"/>
<path d="M261.212 71.4252C260.976 71.4252 260.741 71.3162 260.623 71.0981C260.506 70.771 260.623 70.553 260.976 70.4439L267.919 68.1542C268.272 68.0452 268.508 68.1542 268.625 68.4813C268.743 68.8084 268.625 69.0265 268.272 69.1355L261.329 71.4252H261.212Z" fill="#006FFD"/>
<path d="M264.389 77.313C264.154 77.313 263.918 77.204 263.801 76.9859C263.683 76.7678 263.801 76.4407 264.154 76.3317C267.096 75.1323 270.273 74.151 273.333 73.1697C273.686 73.0607 273.921 73.2788 274.039 73.4968C274.157 73.8239 273.921 74.042 273.686 74.151C270.626 75.0233 267.566 76.1136 264.624 77.313C264.507 77.313 264.507 77.313 264.389 77.313Z" fill="#006FFD"/>
<path d="M277.923 72.6246C277.687 72.6246 277.452 72.5156 277.334 72.1885C275.687 66.6278 273.686 61.2852 271.568 56.1606C271.45 55.9426 271.568 55.7245 271.685 55.5064C271.921 55.3974 272.156 55.2884 272.392 55.5064C276.04 57.469 278.982 60.1949 281.924 62.8117C283.336 64.1201 284.748 65.4285 286.395 66.6278C284.513 62.7026 283.1 58.5594 281.806 54.5252C281.571 53.871 281.335 53.3258 281.218 52.6716C281.1 52.3445 281.335 52.1264 281.571 52.0174C281.924 51.9084 282.159 52.1264 282.277 52.3445C282.512 52.9987 282.747 53.5439 282.865 54.1981C284.395 58.8865 286.042 63.793 288.514 68.2633C288.631 68.4814 288.514 68.8085 288.396 68.9175C288.161 69.0266 287.925 69.0266 287.69 68.9175C285.336 67.282 283.218 65.3194 281.218 63.4659C278.629 61.1762 276.157 58.9955 273.333 57.1419C275.216 61.8304 276.981 66.7368 278.511 71.7523C278.629 72.0794 278.393 72.2975 278.158 72.4066C277.923 72.6246 277.923 72.6246 277.923 72.6246Z" fill="#006FFD"/>
<path d="M297.928 65.5376C297.693 65.5376 297.457 65.4286 297.34 65.2105C295.104 60.086 292.985 54.7434 290.985 49.5098C290.867 49.1827 290.985 48.9646 291.338 48.8556C291.691 48.7465 291.926 48.8556 292.044 49.1827C294.044 54.4163 296.163 59.7589 298.399 64.8834C298.516 65.2105 298.399 65.4286 298.046 65.5376C298.163 65.5376 298.046 65.5376 297.928 65.5376Z" fill="#006FFD"/>
<g opacity="0.1294">
<path d="M317.816 71.7521C316.757 71.207 316.287 72.5154 316.051 72.6244C315.58 73.0606 314.521 73.7147 313.462 74.0418C310.873 75.1322 307.578 75.8954 304.519 76.6586C302.518 77.2038 300.517 77.967 298.517 78.6212C295.222 79.8206 291.809 81.02 288.396 81.8922C286.16 82.5464 283.924 83.4187 281.689 84.0729C275.922 85.5994 270.391 87.5619 264.625 89.3065C257.564 91.7052 248.503 94.7581 242.266 95.8484C241.442 95.9575 241.677 95.8484 240.265 95.9575C240.147 95.9575 240.03 95.9575 239.794 96.0665C238.735 96.3936 239.088 98.0291 240.265 98.0291C241.207 98.0291 242.266 98.1381 243.207 98.0291C245.09 97.811 246.855 97.1569 248.738 96.7207C255.093 95.0852 260.977 92.4684 267.332 90.6149C270.509 89.6336 273.686 88.6523 276.864 87.671C280.041 86.7987 283.218 85.9264 286.16 84.8361C288.161 84.1819 290.162 83.6368 292.162 82.9826C295.575 81.7832 298.399 80.6929 302.165 79.3845C304.872 78.4032 307.696 77.967 310.403 77.2038C312.168 76.7677 313.815 75.8954 315.463 75.2412C316.404 74.696 319.464 72.8425 317.816 71.7521Z" fill="#23274D"/>
</g>
<defs>
<filter id="filter0_d_673_6164" x="243.718" y="22.01" width="370.824" height="464.838" filterUnits="userSpaceOnUse" color-interpolation-filters="sRGB">
<feFlood flood-opacity="0" result="BackgroundImageFix"/>
<feColorMatrix in="SourceAlpha" type="matrix" values="0 0 0 0 0 0 0 0 0 0 0 0 0 0 0 0 0 0 127 0" result="hardAlpha"/>
<feOffset dx="12.3472" dy="12.3472"/>
<feGaussianBlur stdDeviation="12.3472"/>
<feComposite in2="hardAlpha" operator="out"/>
<feColorMatrix type="matrix" values="0 0 0 0 0.145104 0 0 0 0 0.286634 0 0 0 0 0.829167 0 0 0 0.05 0"/>
<feBlend mode="normal" in2="BackgroundImageFix" result="effect1_dropShadow_673_6164"/>
<feBlend mode="normal" in="SourceGraphic" in2="effect1_dropShadow_673_6164" result="shape"/>
</filter>
</defs>
</svg>