<svg width="32" height="32" viewBox="0 0 32 32" fill="none" xmlns="http://www.w3.org/2000/svg">
<path d="M7.94444 1.5H4.72222C3.86764 1.5 3.04805 1.83948 2.44377 2.44377C1.83948 3.04805 1.5 3.86764 1.5 4.72222V7.94444M24.0556 1.5H27.2778C28.1324 1.5 28.9519 1.83948 29.5562 2.44377C30.1605 3.04805 30.5 3.86764 30.5 4.72222V7.94444M22.4444 9.55556V12.7778M9.55556 9.55556V12.7778M11.1667 22.4444C11.1667 22.4444 12.7778 24.0556 16 24.0556C19.2222 24.0556 20.8333 22.4444 20.8333 22.4444M16 9.55556V17.6111H14.3889M7.94444 30.5H4.72222C3.86764 30.5 3.04805 30.1605 2.44377 29.5562C1.83948 28.9519 1.5 28.1324 1.5 27.2778V24.0556M24.0556 30.5H27.2778C28.1324 30.5 28.9519 30.1605 29.5562 29.5562C30.1605 28.9519 30.5 28.1324 30.5 27.2778V24.0556" stroke="#23274D" stroke-width="2.5" stroke-linecap="round" stroke-linejoin="round"/>
</svg>