<svg width="405" height="279" viewBox="0 0 405 279" fill="none" xmlns="http://www.w3.org/2000/svg">
<g opacity="0.4" filter="url(#filter0_f_9580_53837)">
<ellipse cx="202.699" cy="258.787" rx="181.477" ry="2.00527" fill="black"/>
<path d="M22.1299 258.787C22.1467 258.785 22.1639 258.783 22.1813 258.781C22.7952 258.715 23.7126 258.648 24.9204 258.583C27.335 258.453 30.8981 258.327 35.4892 258.207C44.6709 257.967 57.9581 257.751 74.3782 257.57C107.218 257.207 152.586 256.982 202.699 256.982C252.812 256.982 298.181 257.207 331.021 257.57C347.441 257.751 360.728 257.967 369.909 258.207C374.501 258.327 378.064 258.453 380.478 258.583C381.686 258.648 382.603 258.715 383.217 258.781C383.235 258.783 383.252 258.785 383.269 258.787C383.252 258.789 383.235 258.791 383.217 258.793C382.603 258.859 381.686 258.926 380.478 258.991C378.064 259.121 374.501 259.247 369.909 259.367C360.728 259.607 347.441 259.823 331.021 260.004C298.181 260.367 252.812 260.592 202.699 260.592C152.586 260.592 107.218 260.367 74.3782 260.004C57.9581 259.823 44.6709 259.607 35.4892 259.367C30.8981 259.247 27.335 259.121 24.9204 258.991C23.7126 258.926 22.7952 258.859 22.1813 258.793C22.1639 258.791 22.1467 258.789 22.1299 258.787Z" stroke="#EDEFF1" stroke-width="0.401054"/>
</g>
<path d="M40.0729 39.8123C40.0729 33.8319 44.921 28.9838 50.9014 28.9838H355.702C361.682 28.9838 366.53 33.8319 366.53 39.8123V249.162C366.53 249.827 365.992 250.365 365.327 250.365H41.2761C40.6116 250.365 40.0729 249.827 40.0729 249.162V39.8123Z" fill="#E2E8F0" stroke="#EDEFF1" stroke-width="0.802107"/>
<path d="M42.4779 39.4113C42.4779 34.9814 46.069 31.3902 50.499 31.3902H356.102C360.532 31.3902 364.123 34.9814 364.123 39.4113V241.542H42.4779V39.4113Z" fill="#E2E8F0" stroke="#EDEFF1" stroke-width="1.60421"/>
<rect x="50.9037" y="42.6195" width="303.597" height="190.099" fill="white" stroke="#EDEFF1" stroke-width="1.60421"/>
<path d="M83.3203 92.466L96.1723 79.614" stroke="#EDEFF1" stroke-width="4.08721" stroke-linecap="round" stroke-linejoin="round"/>
<path d="M96.1723 92.466L83.3203 79.614" stroke="#EDEFF1" stroke-width="4.08721" stroke-linecap="round" stroke-linejoin="round"/>
<path d="M82.3928 110.564H97.1068C109.368 110.564 114.273 105.659 114.273 93.3973V78.6834C114.273 66.4217 109.368 61.5171 97.1068 61.5171H82.3928C70.1312 61.5171 65.2266 66.4217 65.2266 78.6834V93.3973C65.2266 105.659 70.1312 110.564 82.3928 110.564Z" stroke="#EDEFF1" stroke-width="4.41418" stroke-linecap="round" stroke-linejoin="round"/>
<path d="M0.567714 249.964C0.567714 249.632 0.837051 249.362 1.16929 249.362H403.827C404.159 249.362 404.429 249.632 404.429 249.964V251.368H0.567714V249.964Z" fill="#E2E8F0"/>
<path d="M0.567714 249.964C0.567714 249.632 0.837051 249.362 1.16929 249.362H403.827C404.159 249.362 404.429 249.632 404.429 249.964V251.368H0.567714V249.964Z" fill="url(#paint0_linear_9580_53837)"/>
<path d="M0.567714 249.964C0.567714 249.632 0.837051 249.362 1.16929 249.362H403.827C404.159 249.362 404.429 249.632 404.429 249.964V251.368H0.567714V249.964Z" stroke="#EDEFF1" stroke-width="0.401054"/>
<path d="M4.8771 252.365L2.19394 251.769H402.621L396.426 253.018C385.999 255.121 375.388 256.18 364.751 256.18H39.6339C27.9438 256.18 16.2888 254.901 4.8771 252.365Z" fill="#E2E8F0"/>
<path d="M4.8771 252.365L2.19394 251.769H402.621L396.426 253.018C385.999 255.121 375.388 256.18 364.751 256.18H39.6339C27.9438 256.18 16.2888 254.901 4.8771 252.365Z" fill="url(#paint1_linear_9580_53837)"/>
<path d="M4.8771 252.365L2.19394 251.769H402.621L396.426 253.018C385.999 255.121 375.388 256.18 364.751 256.18H39.6339C27.9438 256.18 16.2888 254.901 4.8771 252.365Z" stroke="#EDEFF1" stroke-width="0.401054"/>
<path d="M175.225 251.368C174.435 251.368 173.926 251.301 173.6 251.191C173.283 251.084 173.157 250.944 173.097 250.794C173.029 250.625 173.03 250.411 173.045 250.115C173.046 250.09 173.048 250.065 173.049 250.039C173.06 249.836 173.073 249.606 173.056 249.363H232.339C232.322 249.606 232.335 249.836 232.346 250.039C232.347 250.065 232.348 250.09 232.35 250.115C232.365 250.411 232.366 250.625 232.298 250.794C232.238 250.944 232.112 251.084 231.795 251.191C231.469 251.301 230.96 251.368 230.17 251.368H175.225Z" fill="#E2E8F0"/>
<path d="M175.225 251.368C174.435 251.368 173.926 251.301 173.6 251.191C173.283 251.084 173.157 250.944 173.097 250.794C173.029 250.625 173.03 250.411 173.045 250.115C173.046 250.09 173.048 250.065 173.049 250.039C173.06 249.836 173.073 249.606 173.056 249.363H232.339C232.322 249.606 232.335 249.836 232.346 250.039C232.347 250.065 232.348 250.09 232.35 250.115C232.365 250.411 232.366 250.625 232.298 250.794C232.238 250.944 232.112 251.084 231.795 251.191C231.469 251.301 230.96 251.368 230.17 251.368H175.225Z" fill="url(#paint2_linear_9580_53837)"/>
<path d="M175.225 251.368C174.435 251.368 173.926 251.301 173.6 251.191C173.283 251.084 173.157 250.944 173.097 250.794C173.029 250.625 173.03 250.411 173.045 250.115C173.046 250.09 173.048 250.065 173.049 250.039C173.06 249.836 173.073 249.606 173.056 249.363H232.339C232.322 249.606 232.335 249.836 232.346 250.039C232.347 250.065 232.348 250.09 232.35 250.115C232.365 250.411 232.366 250.625 232.298 250.794C232.238 250.944 232.112 251.084 231.795 251.191C231.469 251.301 230.96 251.368 230.17 251.368H175.225Z" stroke="#EDEFF1" stroke-width="0.401054"/>
<g clip-path="url(#clip0_9580_53837)">
<path d="M266.67 242H134.039C131.516 242 129.702 239.95 129.939 237.427L152.727 11.5915C152.964 9.06825 155.251 7.01807 157.774 7.01807H290.405C292.928 7.01807 294.742 9.06825 294.505 11.5915L271.716 237.427C271.48 239.95 269.193 242 266.67 242Z" fill="#B8D4F7"/>
<path d="M246.788 24.1291H197.742C195.692 24.1291 194.272 22.4732 194.43 20.5019L195.849 6.86032C195.849 6.46605 196.244 6.22949 196.559 6.22949H251.598C251.993 6.22949 252.229 6.5449 252.15 6.86032L250.81 20.423C250.652 22.4732 248.839 24.1291 246.788 24.1291Z" fill="#929292"/>
<path d="M224.718 0.000244141C222.668 0.000244141 220.854 1.65616 220.697 3.62748L220.145 9.3049H227.478L228.03 3.62748C228.266 1.65616 226.768 0.000244141 224.718 0.000244141ZM224.245 5.4411C223.456 5.4411 222.826 4.81028 222.904 3.9429C222.983 3.15437 223.693 2.44469 224.56 2.44469C225.349 2.44469 225.98 3.07551 225.901 3.9429C225.743 4.81028 225.033 5.4411 224.245 5.4411Z" fill="#929292"/>
<path d="M247.264 10.1721L246.239 20.0287H226.368C226.447 18.1363 225.028 16.5592 223.057 16.5592C221.085 16.5592 219.35 18.0574 219.035 20.0287H199.164L200.189 10.1721H247.264V10.1721Z" stroke="#FAFBFF" stroke-width="1.57706" stroke-miterlimit="10" stroke-linecap="round" stroke-linejoin="round"/>
<path d="M243.555 10.1723C243.634 9.38377 244.186 9.06836 244.186 9.06836H203.183C203.183 9.06836 202.631 9.30492 202.552 10.1723C202.473 11.0397 202.946 11.2762 202.946 11.2762H243.95C243.95 11.2762 243.398 11.0397 243.555 10.1723Z" fill="#B8D4F7"/>
<path d="M267.152 235.061H135.625L157.94 13.8784H289.467L267.152 235.061Z" fill="#FAFBFF"/>
<path d="M278.977 37.219H163.773C163.537 37.219 163.379 37.0612 163.379 36.8247C163.379 36.5881 163.537 36.4304 163.773 36.4304H279.056C279.293 36.4304 279.451 36.5881 279.451 36.8247C279.372 37.0612 279.214 37.219 278.977 37.219Z" fill="#929292"/>
<path d="M178.745 26.7313C178.43 30.2009 175.355 32.9607 171.885 32.9607C168.416 32.9607 165.892 30.2009 166.287 26.7313C166.602 23.2618 169.677 20.502 173.147 20.502C176.616 20.502 179.14 23.3407 178.745 26.7313Z" fill="#B8D4F7"/>
<path d="M168.969 25.8638C168.969 25.8638 165.578 30.2796 166.603 31.6201C167.628 32.9606 176.933 25.3907 179.141 22.7886C181.349 20.1864 178.747 21.2115 178.747 21.2115C178.747 21.2115 179.772 21.2904 179.22 22.0789C178.116 23.7348 169.284 29.5699 168.417 29.2545C167.471 28.9391 168.969 25.8638 168.969 25.8638Z" fill="#929292"/>
<path d="M278.804 24.6811H266.976C266.503 24.6811 266.188 24.3657 266.188 23.8925C266.188 23.4194 266.503 23.104 266.976 23.104H278.804C279.277 23.104 279.593 23.4194 279.593 23.8925C279.593 24.2868 279.198 24.6811 278.804 24.6811Z" fill="#929292"/>
<path d="M278.414 28.3085H270.765C270.292 28.3085 269.977 27.9931 269.977 27.52C269.977 27.0469 270.292 26.7314 270.765 26.7314H278.414C278.887 26.7314 279.202 27.0469 279.202 27.52C279.202 27.9931 278.887 28.3085 278.414 28.3085Z" fill="#929292"/>
<path d="M278.102 32.0146H258.152C257.679 32.0146 257.363 31.6991 257.363 31.226C257.363 30.7529 257.679 30.4375 258.152 30.4375H278.102C278.575 30.4375 278.89 30.7529 278.89 31.226C278.89 31.6991 278.496 32.0146 278.102 32.0146Z" fill="#929292"/>
<path d="M193.573 46.6812C193.809 44.7099 195.465 43.2905 197.436 43.2905C198.54 43.2905 199.408 43.6848 199.96 44.3945L199.092 45.1041C198.698 44.5522 198.067 44.3156 197.436 44.3156C196.096 44.3156 194.992 45.2619 194.834 46.6812C194.677 48.0217 195.623 49.0468 196.963 49.0468C197.673 49.0468 198.304 48.8102 198.777 48.2583L199.487 49.0468C198.777 49.7565 197.831 50.1507 196.727 50.1507C194.755 50.0719 193.336 48.6525 193.573 46.6812Z" fill="#23274D"/>
<path d="M200.274 46.6812C200.432 44.7099 202.167 43.2905 204.217 43.2905C206.267 43.2905 207.608 44.7099 207.45 46.6812C207.213 48.6525 205.557 50.0719 203.507 50.0719C201.457 50.0719 200.117 48.6525 200.274 46.6812ZM206.188 46.6812C206.346 45.3407 205.4 44.3156 204.059 44.3156C202.719 44.3156 201.615 45.2619 201.536 46.6812C201.378 48.0217 202.324 49.0468 203.665 49.0468C204.927 49.0468 206.031 48.0217 206.188 46.6812Z" fill="#23274D"/>
<path d="M214.943 43.3696L214.312 49.9933H213.287L210.054 45.4987L209.581 49.9933H208.398L209.029 43.3696H210.054L213.287 47.8643L213.76 43.3696H214.943Z" fill="#23274D"/>
<path d="M217.942 44.3947H215.734L215.813 43.3696H221.412L221.333 44.3947H219.125L218.573 49.9933H217.311L217.942 44.3947Z" fill="#23274D"/>
<path d="M226.067 49.993L224.885 48.0217C224.806 48.0217 224.727 48.0217 224.648 48.0217H223.15L222.992 49.9142H221.73L222.361 43.2905H225.121C226.856 43.2905 227.881 44.1579 227.723 45.6561C227.644 46.6812 227.014 47.3909 226.067 47.7851L227.408 49.993H226.067ZM224.963 44.3945H223.544L223.308 46.9966H224.727C225.831 46.9966 226.383 46.5235 226.462 45.6561C226.619 44.9464 226.067 44.3945 224.963 44.3945Z" fill="#23274D"/>
<path d="M233.163 48.4951H229.851L229.062 49.9933H227.801L231.428 43.3696H232.611L234.898 49.9933H233.636L233.163 48.4951ZM232.847 47.47L231.901 44.5524L230.403 47.47H232.847Z" fill="#23274D"/>
<path d="M235.524 46.6812C235.761 44.7099 237.417 43.2905 239.388 43.2905C240.492 43.2905 241.359 43.6848 241.911 44.3945L241.044 45.1041C240.65 44.5522 240.019 44.3156 239.388 44.3156C238.048 44.3156 236.944 45.2619 236.786 46.6812C236.628 48.0217 237.574 49.0468 238.915 49.0468C239.625 49.0468 240.255 48.8102 240.729 48.2583L241.438 49.0468C240.729 49.7565 239.782 50.1507 238.678 50.1507C236.707 50.0719 235.367 48.6525 235.524 46.6812Z" fill="#23274D"/>
<path d="M244.356 44.3947H242.148L242.227 43.3696H247.826L247.747 44.3947H245.539L244.987 49.9933H243.725L244.356 44.3947Z" fill="#23274D"/>
<path d="M189.716 59.2973H162.906C162.433 59.2973 162.117 58.9819 162.117 58.5087C162.117 58.0356 162.433 57.7202 162.906 57.7202H189.716C190.189 57.7202 190.504 58.0356 190.504 58.5087C190.504 58.9819 190.189 59.2973 189.716 59.2973Z" fill="#929292"/>
<path d="M175.92 63.5558H162.515C162.042 63.5558 161.727 63.2404 161.727 62.7673C161.727 62.2942 162.042 61.9788 162.515 61.9788H175.92C176.393 61.9788 176.709 62.2942 176.709 62.7673C176.709 63.2404 176.314 63.5558 175.92 63.5558Z" fill="#929292"/>
<path d="M271.956 85.8713H160.3C159.827 85.8713 159.512 85.5558 159.512 85.0827C159.512 84.6096 159.827 84.2942 160.3 84.2942H271.956C272.429 84.2942 272.745 84.6096 272.745 85.0827C272.745 85.477 272.35 85.8713 271.956 85.8713Z" fill="#929292"/>
<path d="M271.401 90.6813H159.746C159.272 90.6813 158.957 90.3659 158.957 89.8928C158.957 89.4197 159.272 89.1042 159.746 89.1042H271.401C271.875 89.1042 272.19 89.4197 272.19 89.8928C272.19 90.3659 271.875 90.6813 271.401 90.6813Z" fill="#929292"/>
<path d="M270.929 95.57H159.273C158.8 95.57 158.484 95.2546 158.484 94.7815C158.484 94.3083 158.8 93.9929 159.273 93.9929H270.929C271.402 93.9929 271.717 94.3083 271.717 94.7815C271.717 95.1757 271.402 95.57 270.929 95.57Z" fill="#929292"/>
<path d="M270.464 100.38H158.808C158.335 100.38 158.02 100.065 158.02 99.5918C158.02 99.1186 158.335 98.8032 158.808 98.8032H270.464C270.937 98.8032 271.252 99.1186 271.252 99.5918C271.252 100.065 270.937 100.38 270.464 100.38Z" fill="#929292"/>
<path d="M269.991 105.269H158.335C157.862 105.269 157.547 104.954 157.547 104.48C157.547 104.007 157.862 103.692 158.335 103.692H269.991C270.464 103.692 270.78 104.007 270.78 104.48C270.78 104.954 270.386 105.269 269.991 105.269Z" fill="#929292"/>
<path d="M269.519 110.158H157.863C157.39 110.158 157.074 109.842 157.074 109.369C157.074 108.896 157.39 108.581 157.863 108.581H269.519C269.992 108.581 270.307 108.896 270.307 109.369C270.307 109.764 269.913 110.158 269.519 110.158Z" fill="#929292"/>
<path d="M268.964 114.968H157.308C156.835 114.968 156.52 114.653 156.52 114.179C156.52 113.706 156.835 113.391 157.308 113.391H268.964C269.437 113.391 269.752 113.706 269.752 114.179C269.752 114.653 269.437 114.968 268.964 114.968Z" fill="#929292"/>
<path d="M268.495 119.857H156.839C156.366 119.857 156.051 119.542 156.051 119.069C156.051 118.595 156.366 118.28 156.839 118.28H268.495C268.968 118.28 269.284 118.595 269.284 119.069C269.284 119.463 268.968 119.857 268.495 119.857Z" fill="#929292"/>
<path d="M212.818 124.746H156.359C155.886 124.746 155.57 124.43 155.57 123.957C155.57 123.484 155.886 123.169 156.359 123.169H212.818C213.291 123.169 213.606 123.484 213.606 123.957C213.606 124.43 213.212 124.746 212.818 124.746Z" fill="#929292"/>
<path d="M275.427 59.2973H256.187C255.714 59.2973 255.398 58.9819 255.398 58.5087C255.398 58.0356 255.714 57.7202 256.187 57.7202H275.427C275.9 57.7202 276.216 58.0356 276.216 58.5087C276.216 58.9819 275.9 59.2973 275.427 59.2973Z" fill="#929292"/>
<path d="M267.385 131.291H167.636C167.163 131.291 166.848 130.975 166.848 130.502C166.848 130.029 167.163 129.714 167.636 129.714H267.385C267.858 129.714 268.174 130.029 268.174 130.502C268.174 130.975 267.858 131.291 267.385 131.291Z" fill="#929292"/>
<path d="M266.835 136.179H155.179C154.706 136.179 154.391 135.864 154.391 135.391C154.391 134.918 154.706 134.602 155.179 134.602H266.835C267.308 134.602 267.624 134.918 267.624 135.391C267.624 135.785 267.308 136.179 266.835 136.179Z" fill="#929292"/>
<path d="M266.355 140.989H154.699C154.226 140.989 153.91 140.674 153.91 140.201C153.91 139.728 154.226 139.412 154.699 139.412H266.355C266.828 139.412 267.143 139.728 267.143 140.201C267.143 140.674 266.828 140.989 266.355 140.989Z" fill="#929292"/>
<path d="M265.886 145.878H154.23C153.757 145.878 153.441 145.563 153.441 145.09C153.441 144.617 153.757 144.301 154.23 144.301H265.886C266.359 144.301 266.674 144.617 266.674 145.09C266.674 145.563 266.28 145.878 265.886 145.878Z" fill="#929292"/>
<path d="M265.413 150.767H153.757C153.284 150.767 152.969 150.452 152.969 149.979C152.969 149.506 153.284 149.19 153.757 149.19H265.413C265.886 149.19 266.202 149.506 266.202 149.979C266.202 150.373 265.807 150.767 265.413 150.767Z" fill="#929292"/>
<path d="M193.898 155.577H153.289C152.815 155.577 152.5 155.262 152.5 154.789C152.5 154.316 152.815 154 153.289 154H193.977C194.45 154 194.765 154.316 194.765 154.789C194.765 155.262 194.371 155.577 193.898 155.577Z" fill="#929292"/>
<g opacity="0.2">
<path d="M267.152 235.061H135.625L157.94 13.8784H289.467L267.152 235.061Z" fill="#23274D"/>
</g>
<path d="M245.839 228.359C201.997 228.359 158.155 228.359 114.312 228.359C138.442 157.234 153.029 85.0041 156.341 13.8787C200.183 13.8787 244.026 13.8787 287.868 13.8787C284.556 85.0041 269.968 157.234 245.839 228.359Z" fill="#FAFBFF"/>
<path d="M277.623 36.4304C239.221 36.4304 200.82 36.4304 162.34 36.4304C162.103 36.4304 161.945 36.2727 161.945 36.0361C161.945 35.7996 162.103 35.6418 162.34 35.6418C200.741 35.6418 239.142 35.6418 277.623 35.6418C277.859 35.6418 278.017 35.7996 278.017 36.0361C278.017 36.2727 277.78 36.4304 277.623 36.4304Z" fill="#929292"/>
<path d="M177.005 26.3376C176.768 29.6494 173.772 32.4092 170.381 32.4092C166.912 32.4092 164.31 29.7282 164.546 26.3376C164.783 23.0257 167.7 20.2659 171.17 20.2659C174.561 20.2659 177.242 23.0257 177.005 26.3376Z" fill="#B8D4F7"/>
<path d="M167.15 25.3908C167.15 25.3908 163.996 29.6489 165.021 30.9894C166.046 32.3299 175.115 24.9965 177.244 22.4732C179.373 19.9499 176.77 20.975 176.77 20.975C176.77 20.975 177.796 21.0539 177.244 21.8424C176.218 23.4195 167.623 29.0969 166.677 28.7815C165.81 28.3872 167.15 25.3908 167.15 25.3908Z" fill="#929292"/>
<path d="M276.988 24.287C273.045 24.287 269.102 24.287 265.16 24.287C264.687 24.287 264.371 23.9716 264.371 23.4985C264.371 23.1042 264.687 22.71 265.16 22.71C269.102 22.71 273.045 22.71 276.988 22.71C277.461 22.71 277.776 23.0254 277.776 23.4985C277.776 23.9716 277.382 24.287 276.988 24.287Z" fill="#929292"/>
<path d="M276.75 27.8356C274.226 27.8356 271.624 27.8356 269.101 27.8356C268.628 27.8356 268.312 27.5202 268.312 27.0471C268.312 26.6528 268.628 26.2585 269.101 26.2585C271.624 26.2585 274.226 26.2585 276.75 26.2585C277.223 26.2585 277.538 26.574 277.538 27.0471C277.538 27.5202 277.144 27.8356 276.75 27.8356Z" fill="#929292"/>
<path d="M276.512 31.3832C269.888 31.3832 263.186 31.3832 256.562 31.3832C256.089 31.3832 255.773 31.0678 255.773 30.5947C255.773 30.2004 256.089 29.8062 256.562 29.8062C263.186 29.8062 269.888 29.8062 276.512 29.8062C276.985 29.8062 277.3 30.1216 277.3 30.5947C277.3 31.0678 276.906 31.3832 276.512 31.3832Z" fill="#929292"/>
<path d="M192.377 45.5772C192.535 43.6847 194.191 42.2654 196.241 42.2654C197.345 42.2654 198.212 42.6596 198.764 43.3693C198.449 43.6059 198.212 43.8424 197.897 44.079C197.424 43.6059 196.872 43.2905 196.162 43.2905C194.822 43.2905 193.718 44.2367 193.639 45.5772C193.481 46.9177 194.428 47.8639 195.768 47.8639C196.478 47.8639 197.109 47.6274 197.582 47.0754C197.818 47.312 198.055 47.5485 198.291 47.7851C197.582 48.4948 196.635 48.889 195.531 48.889C193.56 48.889 192.141 47.5485 192.377 45.5772Z" fill="#23274D"/>
<path d="M199.079 45.5772C199.237 43.6847 200.893 42.2654 202.943 42.2654C204.993 42.2654 206.412 43.6847 206.255 45.5772C206.097 47.4697 204.441 48.889 202.391 48.889C200.262 48.889 198.921 47.4697 199.079 45.5772ZM204.993 45.5772C205.072 44.2367 204.204 43.2905 202.864 43.2905C201.523 43.2905 200.419 44.2367 200.341 45.5772C200.262 46.9177 201.129 47.8639 202.47 47.8639C203.731 47.8639 204.835 46.9177 204.993 45.5772Z" fill="#23274D"/>
<path d="M213.668 42.4231C213.511 44.5521 213.274 46.6812 213.116 48.8102C212.801 48.8102 212.407 48.8102 212.091 48.8102C210.987 47.3908 209.962 45.8926 208.858 44.4733C208.701 45.8926 208.622 47.3908 208.464 48.8102C208.07 48.8102 207.676 48.8102 207.281 48.8102C207.518 46.6812 207.676 44.5521 207.833 42.4231C208.149 42.4231 208.543 42.4231 208.858 42.4231C209.962 43.8425 211.066 45.3407 212.091 46.76C212.249 45.3407 212.328 43.8425 212.486 42.4231C212.88 42.4231 213.274 42.4231 213.668 42.4231Z" fill="#23274D"/>
<path d="M216.747 43.4482C216.037 43.4482 215.249 43.4482 214.539 43.4482C214.539 43.1328 214.618 42.7385 214.618 42.4231C216.51 42.4231 218.324 42.4231 220.216 42.4231C220.216 42.7385 220.138 43.1328 220.138 43.4482C219.428 43.4482 218.639 43.4482 217.93 43.4482C217.772 45.2618 217.614 47.0754 217.457 48.889C217.062 48.889 216.668 48.889 216.195 48.889C216.432 46.9966 216.589 45.183 216.747 43.4482Z" fill="#23274D"/>
<path d="M224.942 48.8102C224.548 48.1794 224.154 47.5485 223.76 46.9177C223.681 46.9177 223.602 46.9177 223.523 46.9177C223.05 46.9177 222.498 46.9177 222.025 46.9177C221.946 47.5485 221.946 48.1794 221.867 48.8102C221.473 48.8102 221.079 48.8102 220.605 48.8102C220.842 46.6812 221 44.5521 221.157 42.4231C222.104 42.4231 222.971 42.4231 223.917 42.4231C225.652 42.4231 226.677 43.2905 226.519 44.7098C226.441 45.6561 225.889 46.3657 224.942 46.76C225.416 47.4697 225.81 48.1794 226.283 48.889C225.81 48.8102 225.337 48.8102 224.942 48.8102ZM223.76 43.4482C223.286 43.4482 222.813 43.4482 222.34 43.4482C222.261 44.3156 222.183 45.183 222.104 45.9715C222.577 45.9715 223.05 45.9715 223.523 45.9715C224.627 45.9715 225.179 45.4984 225.258 44.7098C225.337 43.8425 224.785 43.4482 223.76 43.4482Z" fill="#23274D"/>
<path d="M231.967 47.312C230.864 47.312 229.76 47.312 228.656 47.312C228.419 47.7851 228.104 48.3371 227.867 48.8102C227.473 48.8102 227 48.8102 226.605 48.8102C227.788 46.6812 228.971 44.5521 230.154 42.4231C230.548 42.4231 230.942 42.4231 231.337 42.4231C232.125 44.5521 232.993 46.6812 233.781 48.8102C233.387 48.8102 232.914 48.8102 232.519 48.8102C232.283 48.3371 232.125 47.864 231.967 47.312ZM231.652 46.3657C231.337 45.4195 231.021 44.4733 230.627 43.527C230.154 44.4733 229.602 45.4195 229.129 46.3657C229.917 46.3657 230.785 46.3657 231.652 46.3657Z" fill="#23274D"/>
<path d="M234.329 45.5772C234.487 43.6847 236.143 42.2654 238.193 42.2654C239.297 42.2654 240.164 42.6596 240.716 43.3693C240.401 43.6059 240.164 43.8424 239.849 44.079C239.376 43.6059 238.824 43.2905 238.114 43.2905C236.773 43.2905 235.669 44.2367 235.591 45.5772C235.512 46.9177 236.379 47.8639 237.72 47.8639C238.429 47.8639 239.06 47.6274 239.533 47.0754C239.77 47.312 240.006 47.5485 240.243 47.7851C239.533 48.4948 238.587 48.889 237.483 48.889C235.512 48.889 234.171 47.5485 234.329 45.5772Z" fill="#23274D"/>
<path d="M243.161 43.4482C242.451 43.4482 241.663 43.4482 240.953 43.4482C240.953 43.1328 241.032 42.7385 241.032 42.4231C242.924 42.4231 244.738 42.4231 246.631 42.4231C246.631 42.7385 246.552 43.1328 246.552 43.4482C245.842 43.4482 245.053 43.4482 244.344 43.4482C244.186 45.2618 244.028 47.0754 243.871 48.889C243.476 48.889 243.082 48.889 242.609 48.889C242.846 46.9966 243.003 45.183 243.161 43.4482Z" fill="#23274D"/>
<path d="M188.599 57.7995C179.688 57.7995 170.778 57.7995 161.789 57.7995C161.315 57.7995 161 57.4841 161 57.0109C161 56.6167 161.315 56.2224 161.789 56.2224C170.699 56.2224 179.609 56.2224 188.599 56.2224C189.072 56.2224 189.387 56.5378 189.387 57.0109C189.387 57.4841 188.993 57.7995 188.599 57.7995Z" fill="#929292"/>
<path d="M174.713 61.9789C170.218 61.9789 165.803 61.9789 161.308 61.9789C160.835 61.9789 160.52 61.6635 160.52 61.1904C160.52 60.7961 160.914 60.4019 161.308 60.4019C165.803 60.4019 170.218 60.4019 174.713 60.4019C175.186 60.4019 175.502 60.7173 175.502 61.1904C175.502 61.6635 175.186 61.9789 174.713 61.9789Z" fill="#929292"/>
<path d="M270.288 83.5844C233.07 83.5844 195.851 83.5844 158.632 83.5844C158.159 83.5844 157.844 83.269 157.844 82.7959C157.844 82.4016 158.238 82.0073 158.632 82.0073C195.851 82.0073 233.07 82.0073 270.288 82.0073C270.761 82.0073 271.077 82.3227 271.077 82.7959C271.077 83.269 270.682 83.5844 270.288 83.5844Z" fill="#929292"/>
<path d="M269.585 88.3156C232.366 88.3156 195.148 88.3156 157.929 88.3156C157.456 88.3156 157.141 88.0002 157.141 87.5271C157.141 87.1328 157.535 86.7385 157.929 86.7385C195.148 86.7385 232.366 86.7385 269.585 86.7385C270.058 86.7385 270.374 87.0539 270.374 87.5271C270.374 87.9213 270.058 88.3156 269.585 88.3156Z" fill="#929292"/>
<path d="M268.866 93.0465C231.648 93.0465 194.429 93.0465 157.21 93.0465C156.737 93.0465 156.422 92.7311 156.422 92.258C156.422 91.8637 156.816 91.4695 157.21 91.4695C194.429 91.4695 231.648 91.4695 268.866 91.4695C269.339 91.4695 269.655 91.7849 269.655 92.258C269.655 92.6523 269.339 93.0465 268.866 93.0465Z" fill="#929292"/>
<path d="M268.159 97.778C230.94 97.778 193.722 97.778 156.503 97.778C156.03 97.778 155.714 97.4626 155.793 96.9895C155.793 96.5952 156.188 96.2009 156.661 96.2009C193.879 96.2009 231.098 96.2009 268.317 96.2009C268.79 96.2009 269.105 96.5163 269.026 96.9895C268.947 97.3837 268.553 97.778 268.159 97.778Z" fill="#929292"/>
<path d="M267.37 102.43C230.151 102.43 192.933 102.43 155.714 102.43C155.241 102.43 154.925 102.115 155.004 101.642C155.004 101.248 155.399 100.853 155.872 100.853C193.09 100.853 230.309 100.853 267.528 100.853C268.001 100.853 268.316 101.169 268.237 101.642C268.158 102.115 267.843 102.43 267.37 102.43Z" fill="#929292"/>
<path d="M266.577 107.161C229.358 107.161 192.14 107.161 154.921 107.161C154.448 107.161 154.132 106.846 154.211 106.373C154.211 105.978 154.606 105.584 155.079 105.584C192.297 105.584 229.516 105.584 266.735 105.584C267.208 105.584 267.523 105.9 267.444 106.373C267.365 106.846 266.971 107.161 266.577 107.161Z" fill="#929292"/>
<path d="M265.718 111.893C228.499 111.893 191.28 111.893 154.062 111.893C153.588 111.893 153.273 111.577 153.352 111.104C153.352 110.71 153.746 110.316 154.219 110.316C191.438 110.316 228.657 110.316 265.875 110.316C266.348 110.316 266.664 110.631 266.585 111.104C266.585 111.577 266.191 111.893 265.718 111.893Z" fill="#929292"/>
<path d="M264.85 116.624C227.632 116.624 190.413 116.624 153.194 116.624C152.721 116.624 152.406 116.308 152.485 115.835C152.485 115.441 152.879 115.047 153.352 115.047C190.571 115.047 227.789 115.047 265.008 115.047C265.481 115.047 265.797 115.362 265.718 115.835C265.718 116.308 265.323 116.624 264.85 116.624Z" fill="#929292"/>
<path d="M208.786 121.355C189.94 121.355 171.173 121.355 152.327 121.355C151.854 121.355 151.539 121.04 151.618 120.567C151.618 120.172 152.012 119.778 152.485 119.778C171.331 119.778 190.098 119.778 208.944 119.778C209.417 119.778 209.732 120.093 209.653 120.567C209.575 121.04 209.259 121.355 208.786 121.355Z" fill="#929292"/>
<path d="M274.31 57.7995C267.923 57.7995 261.457 57.7995 255.07 57.7995C254.597 57.7995 254.281 57.4841 254.281 57.0109C254.281 56.6167 254.597 56.2224 255.07 56.2224C261.457 56.2224 267.923 56.2224 274.31 56.2224C274.783 56.2224 275.098 56.5378 275.098 57.0109C275.098 57.4841 274.704 57.7995 274.31 57.7995Z" fill="#929292"/>
<path d="M262.799 127.742C229.523 127.742 196.326 127.742 163.05 127.742C162.577 127.742 162.261 127.427 162.34 126.954C162.419 126.559 162.734 126.165 163.208 126.165C196.484 126.165 229.681 126.165 262.957 126.165C263.43 126.165 263.745 126.48 263.666 126.954C263.588 127.427 263.193 127.742 262.799 127.742Z" fill="#929292"/>
<path d="M261.776 132.473C224.557 132.473 187.339 132.473 150.12 132.473C149.647 132.473 149.332 132.158 149.411 131.685C149.489 131.29 149.805 130.896 150.278 130.896C187.497 130.896 224.715 130.896 261.934 130.896C262.407 130.896 262.722 131.212 262.643 131.685C262.565 132.158 262.17 132.473 261.776 132.473Z" fill="#929292"/>
<path d="M260.741 137.205C223.522 137.205 186.304 137.205 149.085 137.205C148.612 137.205 148.297 136.889 148.375 136.416C148.454 136.022 148.848 135.627 149.243 135.627C186.461 135.627 223.68 135.627 260.899 135.627C261.372 135.627 261.687 135.943 261.608 136.416C261.608 136.889 261.214 137.205 260.741 137.205Z" fill="#929292"/>
<path d="M259.717 141.936C222.499 141.936 185.28 141.936 148.061 141.936C147.588 141.936 147.352 141.62 147.352 141.147C147.43 140.753 147.825 140.359 148.219 140.359C185.438 140.359 222.656 140.359 259.875 140.359C260.348 140.359 260.585 140.674 260.585 141.147C260.585 141.62 260.19 141.936 259.717 141.936Z" fill="#929292"/>
<path d="M258.698 146.667C221.479 146.667 184.26 146.667 147.042 146.667C146.569 146.667 146.332 146.351 146.332 145.878C146.411 145.484 146.805 145.09 147.199 145.09C184.418 145.09 221.637 145.09 258.855 145.09C259.328 145.09 259.565 145.405 259.565 145.878C259.486 146.351 259.092 146.667 258.698 146.667Z" fill="#929292"/>
<path d="M186.624 151.398C173.062 151.398 159.499 151.398 145.936 151.398C145.463 151.398 145.227 151.083 145.227 150.61C145.305 150.215 145.7 149.821 146.094 149.821C159.657 149.821 173.219 149.821 186.782 149.821C187.255 149.821 187.492 150.136 187.492 150.61C187.492 151.083 187.098 151.398 186.624 151.398Z" fill="#929292"/>
<g opacity="0.1">
<path d="M245.839 228.359C201.997 228.359 158.155 228.359 114.312 228.359C138.442 157.234 153.029 85.0041 156.341 13.8787C200.183 13.8787 244.026 13.8787 287.868 13.8787C284.556 85.0041 269.968 157.234 245.839 228.359Z" fill="#23274D"/>
</g>
<path d="M228.031 214.48C184.188 214.48 140.346 214.48 96.5039 214.48C126.862 147.928 146.891 80.4301 156.353 13.8782C200.196 13.8782 244.038 13.8782 287.88 13.8782C278.418 80.4301 258.31 147.928 228.031 214.48Z" fill="#FAFBFF"/>
<path d="M276.439 35.0107C238.038 35.0107 199.636 35.0107 161.156 35.0107C160.919 35.0107 160.762 34.853 160.762 34.6164C160.762 34.3799 160.998 34.2222 161.156 34.2222C199.557 34.2222 237.959 34.2222 276.439 34.2222C276.676 34.2222 276.833 34.3799 276.833 34.6164C276.833 34.853 276.676 35.0107 276.439 35.0107Z" fill="#929292"/>
<path d="M176.707 25.5488C176.234 28.7029 173.001 31.2262 169.531 31.2262C166.062 31.2262 163.696 28.7029 164.248 25.5488C164.721 22.3946 167.954 19.8713 171.345 19.8713C174.814 19.8713 177.259 22.3946 176.707 25.5488Z" fill="#B8D4F7"/>
<path d="M166.927 24.6811C166.927 24.6811 163.378 28.7026 164.324 29.8854C165.271 31.0682 174.97 24.2079 177.256 21.9212C179.622 19.5556 176.941 20.5019 176.941 20.5019C176.941 20.5019 177.887 20.5807 177.335 21.2904C176.231 22.7886 167.084 28.0717 166.217 27.7563C165.35 27.4409 166.927 24.6811 166.927 24.6811Z" fill="#929292"/>
<path d="M276.835 23.6564C272.893 23.6564 268.95 23.6564 265.007 23.6564C264.534 23.6564 264.219 23.341 264.219 22.9467C264.219 22.5525 264.613 22.2371 265.007 22.2371C268.95 22.2371 272.893 22.2371 276.835 22.2371C277.308 22.2371 277.624 22.5525 277.624 22.9467C277.624 23.341 277.308 23.6564 276.835 23.6564Z" fill="#929292"/>
<path d="M276.359 26.9679C273.836 26.9679 271.234 26.9679 268.71 26.9679C268.237 26.9679 267.922 26.6525 267.922 26.2583C267.922 25.864 268.316 25.5486 268.71 25.5486C271.234 25.5486 273.836 25.5486 276.359 25.5486C276.832 25.5486 277.148 25.864 277.148 26.2583C277.148 26.6525 276.753 26.9679 276.359 26.9679Z" fill="#929292"/>
<path d="M275.812 30.28C269.189 30.28 262.486 30.28 255.862 30.28C255.389 30.28 255.074 29.9645 255.153 29.5703C255.153 29.176 255.547 28.8606 255.941 28.8606C262.565 28.8606 269.267 28.8606 275.891 28.8606C276.364 28.8606 276.68 29.176 276.68 29.5703C276.601 29.9645 276.206 30.28 275.812 30.28Z" fill="#929292"/>
<path d="M151.231 203.362C137.747 203.362 124.342 203.362 110.858 203.362C110.385 203.362 110.149 203.047 110.306 202.653C110.464 202.258 110.858 201.943 111.332 201.943C124.815 201.943 138.22 201.943 151.704 201.943C152.177 201.943 152.414 202.258 152.256 202.653C152.177 203.047 151.704 203.362 151.231 203.362Z" fill="#929292"/>
<path d="M223.702 203.362C208.168 203.362 192.634 203.362 177.179 203.362C176.706 203.362 176.469 203.047 176.627 202.653C176.784 202.258 177.179 201.943 177.652 201.943C193.186 201.943 208.72 201.943 224.175 201.943C224.648 201.943 224.885 202.258 224.727 202.653C224.648 203.047 224.175 203.362 223.702 203.362Z" fill="#929292"/>
<path d="M158.484 162.044C151.387 162.044 144.211 162.044 137.115 162.044C136.641 162.044 136.405 161.728 136.484 161.334C136.563 160.94 137.036 160.624 137.43 160.624C144.527 160.624 151.702 160.624 158.799 160.624C159.272 160.624 159.509 160.94 159.43 161.334C159.351 161.728 158.957 162.044 158.484 162.044Z" fill="#929292"/>
<path d="M232.761 162.044C222.353 162.044 212.023 162.044 201.615 162.044C201.141 162.044 200.905 161.728 200.984 161.334C201.063 160.94 201.536 160.624 201.93 160.624C212.339 160.624 222.668 160.624 233.077 160.624C233.55 160.624 233.787 160.94 233.708 161.334C233.629 161.728 233.156 162.044 232.761 162.044Z" fill="#929292"/>
<path d="M198.771 195.004C197.983 195.004 197.352 194.846 196.879 194.61C195.854 194.058 195.617 193.033 196.169 191.771C196.248 191.613 196.327 191.377 196.406 191.219C193.094 192.481 189.703 193.348 186.943 193.506C184.972 193.663 184.499 192.875 184.499 192.244C184.42 191.061 185.524 189.169 187.417 187.04C183.158 188.932 180.004 190.115 180.004 190.115C179.768 190.194 179.531 190.115 179.531 189.957C179.531 189.8 179.61 189.563 179.847 189.484C179.926 189.484 183.632 188.065 188.442 185.857C193.331 180.495 201.531 173.871 205.789 171.663C208.865 170.008 210.599 169.613 211.072 170.323C211.782 171.506 208.313 175.054 202.556 178.918C198.298 181.835 193.173 184.359 188.915 186.33C186.707 188.775 185.209 190.825 185.288 192.008C185.288 192.244 185.366 192.954 187.101 192.796C190.019 192.638 193.567 191.613 197.037 190.273C199.481 186.961 205.237 183.018 207.839 182.387C208.865 182.151 209.259 182.387 209.417 182.624C209.574 182.861 209.653 183.334 209.101 184.043C207.682 185.857 202.872 188.696 197.51 190.825C197.273 191.219 197.037 191.534 196.958 191.85C196.564 192.875 196.721 193.585 197.51 193.979C199.245 195.004 203.818 193.585 208.313 191.456C208.313 191.219 208.391 190.982 208.549 190.746C209.811 187.907 215.961 183.413 219.273 183.649C219.904 183.649 220.062 183.965 220.062 184.201C220.141 185.226 217.381 187.197 215.015 188.617C213.359 189.642 211.309 190.746 209.18 191.771C209.259 192.165 209.653 192.402 210.363 192.481C215.252 193.269 226.685 186.172 226.764 186.094C227.001 185.936 227.237 186.015 227.316 186.094C227.395 186.251 227.316 186.488 227.158 186.567C226.685 186.882 215.252 193.979 210.047 193.111C209.18 192.954 208.628 192.56 208.47 192.008C204.764 193.742 201.137 195.004 198.771 195.004ZM218.721 184.28C215.804 184.28 210.284 188.301 209.18 190.746C209.18 190.825 209.101 190.904 209.101 190.982C211.072 190.036 212.965 189.011 214.542 187.986C217.933 185.936 219.115 184.674 219.115 184.359C219.115 184.359 219.037 184.28 218.879 184.28C218.879 184.28 218.8 184.28 218.721 184.28ZM208.313 182.939C208.155 182.939 207.918 182.939 207.839 183.018C205.553 183.57 200.822 186.803 198.298 189.721C203.029 187.749 207.209 185.305 208.391 183.728C208.628 183.413 208.707 183.176 208.628 183.097C208.549 182.939 208.47 182.939 208.313 182.939ZM209.969 170.638C209.495 170.638 208.313 170.954 206.026 172.137C201.926 174.266 194.829 180.101 190.019 184.99C193.961 183.176 198.298 180.81 202.083 178.287C208.155 174.187 210.599 171.19 210.284 170.717C210.284 170.638 210.205 170.638 209.969 170.638Z" fill="#929292"/>
<path d="M190.412 43.5274C190.727 41.7138 192.462 40.4521 194.512 40.4521C195.616 40.4521 196.484 40.7676 196.957 41.4772C196.641 41.7138 196.326 41.9504 196.01 42.1869C195.616 41.7138 195.064 41.4772 194.355 41.4772C193.014 41.4772 191.831 42.3446 191.595 43.6063C191.358 44.8679 192.226 45.7353 193.566 45.7353C194.276 45.7353 194.907 45.4987 195.459 45.0256C195.695 45.2622 195.932 45.4987 196.089 45.7353C195.38 46.3661 194.355 46.7604 193.251 46.7604C191.279 46.6027 190.018 45.341 190.412 43.5274Z" fill="#23274D"/>
<path d="M197.115 43.5274C197.43 41.7927 199.165 40.4521 201.215 40.4521C203.265 40.4521 204.527 41.7927 204.211 43.5274C203.896 45.341 202.082 46.6027 200.032 46.6027C198.061 46.6027 196.799 45.341 197.115 43.5274ZM203.029 43.5274C203.265 42.2658 202.398 41.3984 201.057 41.3984C199.717 41.3984 198.534 42.2658 198.297 43.5274C198.061 44.7891 198.928 45.6565 200.19 45.6565C201.609 45.6565 202.792 44.7891 203.029 43.5274Z" fill="#23274D"/>
<path d="M212.018 40.5308C211.624 42.5021 211.308 44.5523 210.914 46.5236C210.599 46.5236 210.204 46.5236 209.889 46.5236C208.943 45.1831 207.996 43.8426 206.971 42.5021C206.735 43.8426 206.498 45.1831 206.183 46.5236C205.789 46.5236 205.394 46.5236 205 46.5236C205.394 44.5523 205.789 42.5021 206.104 40.5308C206.419 40.5308 206.814 40.5308 207.129 40.5308C208.075 41.8713 209.1 43.2118 210.047 44.5523C210.283 43.2118 210.52 41.8713 210.835 40.5308C211.151 40.5308 211.624 40.5308 212.018 40.5308Z" fill="#23274D"/>
<path d="M214.938 41.477C214.229 41.477 213.44 41.477 212.73 41.477C212.809 41.1616 212.809 40.8462 212.888 40.5308C214.781 40.5308 216.594 40.5308 218.487 40.5308C218.408 40.8462 218.408 41.1616 218.329 41.477C217.619 41.477 216.831 41.477 216.121 41.477C215.806 43.1329 215.49 44.8677 215.175 46.5236C214.781 46.5236 214.386 46.5236 213.913 46.5236C214.308 44.8677 214.623 43.2118 214.938 41.477Z" fill="#23274D"/>
<path d="M222.669 46.5236C222.354 45.9716 221.959 45.3408 221.644 44.7888C221.565 44.7888 221.486 44.7888 221.407 44.7888C220.934 44.7888 220.382 44.7888 219.909 44.7888C219.83 45.3408 219.673 45.9716 219.594 46.5236C219.199 46.5236 218.805 46.5236 218.332 46.5236C218.726 44.5523 219.121 42.5021 219.436 40.5308C220.382 40.5308 221.25 40.5308 222.196 40.5308C223.931 40.5308 224.877 41.3193 224.64 42.6598C224.483 43.606 223.852 44.2369 222.906 44.5523C223.3 45.1831 223.694 45.8928 224.088 46.5236C223.536 46.5236 223.142 46.5236 222.669 46.5236ZM221.959 41.477C221.486 41.477 221.013 41.477 220.54 41.477C220.382 42.2655 220.225 43.0541 220.067 43.8426C220.54 43.8426 221.013 43.8426 221.486 43.8426C222.59 43.8426 223.221 43.3695 223.379 42.6598C223.536 41.9501 223.063 41.477 221.959 41.477Z" fill="#23274D"/>
<path d="M229.84 45.1831C228.736 45.1831 227.632 45.1831 226.528 45.1831C226.213 45.6562 225.897 46.1293 225.582 46.6024C225.188 46.6024 224.715 46.6024 224.32 46.6024C225.661 44.6311 227.08 42.5809 228.421 40.6096C228.815 40.6096 229.209 40.6096 229.603 40.6096C230.234 42.5809 230.865 44.6311 231.496 46.6024C231.102 46.6024 230.629 46.6024 230.234 46.6024C230.077 46.0505 229.919 45.6562 229.84 45.1831ZM229.603 44.3157C229.367 43.4483 229.13 42.5809 228.815 41.7136C228.263 42.5809 227.632 43.4483 227.08 44.3157C227.948 44.3157 228.736 44.3157 229.603 44.3157Z" fill="#23274D"/>
<path d="M232.361 43.5274C232.676 41.7138 234.411 40.4521 236.461 40.4521C237.565 40.4521 238.432 40.7676 238.906 41.4772C238.59 41.7138 238.275 41.9504 237.959 42.1869C237.565 41.7138 237.013 41.4772 236.303 41.4772C234.963 41.4772 233.78 42.3446 233.544 43.6063C233.307 44.8679 234.174 45.7353 235.515 45.7353C236.225 45.7353 236.855 45.4987 237.407 45.0256C237.644 45.2622 237.881 45.4987 238.038 45.7353C237.329 46.3661 236.303 46.7604 235.2 46.7604C233.307 46.6027 232.045 45.341 232.361 43.5274Z" fill="#23274D"/>
<path d="M241.349 41.477C240.639 41.477 239.85 41.477 239.141 41.477C239.219 41.1616 239.219 40.8462 239.298 40.5308C241.191 40.5308 243.004 40.5308 244.897 40.5308C244.818 40.8462 244.818 41.1616 244.739 41.477C244.03 41.477 243.241 41.477 242.531 41.477C242.216 43.1329 241.9 44.8677 241.585 46.5236C241.191 46.5236 240.797 46.5236 240.323 46.5236C240.718 44.8677 241.033 43.2118 241.349 41.477Z" fill="#23274D"/>
<path d="M185.532 54.9606C176.621 54.9606 167.711 54.9606 158.722 54.9606C158.249 54.9606 157.933 54.6452 158.012 54.2509C158.012 53.8567 158.406 53.5413 158.879 53.5413C167.79 53.5413 176.7 53.5413 185.689 53.5413C186.163 53.5413 186.478 53.8567 186.399 54.2509C186.399 54.6452 186.005 54.9606 185.532 54.9606Z" fill="#929292"/>
<path d="M171.334 58.8249C166.839 58.8249 162.423 58.8249 157.929 58.8249C157.456 58.8249 157.14 58.5095 157.219 58.1152C157.298 57.7209 157.613 57.4055 158.086 57.4055C162.581 57.4055 166.997 57.4055 171.492 57.4055C171.965 57.4055 172.28 57.7209 172.201 58.1152C172.201 58.5095 171.807 58.8249 171.334 58.8249Z" fill="#929292"/>
<path d="M265.01 79.0895C227.791 79.0895 190.573 79.0895 153.354 79.0895C152.881 79.0895 152.645 78.7741 152.645 78.3798C152.723 77.9856 153.118 77.6702 153.512 77.6702C190.731 77.6702 227.949 77.6702 265.168 77.6702C265.641 77.6702 265.877 77.9856 265.877 78.3798C265.877 78.6953 265.483 79.0895 265.01 79.0895Z" fill="#929292"/>
<path d="M263.916 83.5053C226.698 83.5053 189.479 83.5053 152.26 83.5053C151.787 83.5053 151.551 83.1899 151.551 82.7956C151.63 82.4014 152.024 82.0859 152.418 82.0859C189.637 82.0859 226.855 82.0859 264.074 82.0859C264.547 82.0859 264.784 82.4014 264.784 82.7956C264.784 83.111 264.389 83.5053 263.916 83.5053Z" fill="#929292"/>
<path d="M262.807 87.9213C225.588 87.9213 188.37 87.9213 151.151 87.9213C150.678 87.9213 150.441 87.6059 150.441 87.2116C150.52 86.8174 150.915 86.502 151.309 86.502C188.527 86.502 225.746 86.502 262.965 86.502C263.438 86.502 263.674 86.8174 263.674 87.2116C263.674 87.527 263.28 87.9213 262.807 87.9213Z" fill="#929292"/>
<path d="M261.623 92.3371C224.405 92.3371 187.186 92.3371 149.967 92.3371C149.494 92.3371 149.258 92.0217 149.258 91.6274C149.337 91.2331 149.731 90.9177 150.125 90.9177C187.344 90.9177 224.562 90.9177 261.781 90.9177C262.254 90.9177 262.491 91.2331 262.491 91.6274C262.491 91.9428 262.097 92.3371 261.623 92.3371Z" fill="#929292"/>
<path d="M260.436 96.7528C223.217 96.7528 185.999 96.7528 148.78 96.7528C148.307 96.7528 148.07 96.4374 148.07 96.0432C148.149 95.6489 148.543 95.3335 148.938 95.3335C186.156 95.3335 223.375 95.3335 260.594 95.3335C261.067 95.3335 261.303 95.6489 261.303 96.0432C261.303 96.3586 260.909 96.7528 260.436 96.7528Z" fill="#929292"/>
<path d="M259.255 101.168C222.036 101.168 184.818 101.168 147.599 101.168C147.126 101.168 146.889 100.853 146.968 100.459C147.047 100.064 147.441 99.749 147.914 99.749C185.133 99.749 222.352 99.749 259.57 99.749C260.043 99.749 260.28 100.064 260.201 100.459C260.122 100.774 259.728 101.168 259.255 101.168Z" fill="#929292"/>
<path d="M257.993 105.584C220.774 105.584 183.556 105.584 146.337 105.584C145.864 105.584 145.627 105.269 145.706 104.874C145.785 104.48 146.179 104.165 146.653 104.165C183.871 104.165 221.09 104.165 258.308 104.165C258.782 104.165 259.018 104.48 258.939 104.874C258.86 105.19 258.466 105.584 257.993 105.584Z" fill="#929292"/>
<path d="M256.735 110C219.517 110 182.298 110 145.079 110C144.606 110 144.37 109.685 144.449 109.29C144.527 108.896 144.922 108.581 145.395 108.581C182.613 108.581 219.832 108.581 257.051 108.581C257.524 108.581 257.76 108.896 257.681 109.29C257.603 109.685 257.208 110 256.735 110Z" fill="#929292"/>
<path d="M200.273 114.416C181.427 114.416 162.66 114.416 143.814 114.416C143.341 114.416 143.104 114.101 143.183 113.706C143.262 113.312 143.656 112.997 144.129 112.997C162.975 112.997 181.742 112.997 200.588 112.997C201.061 112.997 201.298 113.312 201.219 113.706C201.061 114.101 200.667 114.416 200.273 114.416Z" fill="#929292"/>
<path d="M271.247 54.9606C264.86 54.9606 258.394 54.9606 252.007 54.9606C251.534 54.9606 251.218 54.6452 251.297 54.2509C251.297 53.8567 251.691 53.5413 252.165 53.5413C258.552 53.5413 265.018 53.5413 271.405 53.5413C271.878 53.5413 272.193 53.8567 272.114 54.2509C272.114 54.6452 271.72 54.9606 271.247 54.9606Z" fill="#929292"/>
<path d="M253.653 120.409C220.377 120.409 187.18 120.409 153.904 120.409C153.43 120.409 153.194 120.093 153.273 119.699C153.352 119.305 153.746 118.989 154.219 118.989C187.495 118.989 220.692 118.989 253.968 118.989C254.441 118.989 254.678 119.305 254.599 119.699C254.52 120.093 254.126 120.409 253.653 120.409Z" fill="#929292"/>
<path d="M252.243 124.824C215.024 124.824 177.806 124.824 140.587 124.824C140.114 124.824 139.877 124.509 139.956 124.115C140.035 123.72 140.429 123.405 140.903 123.405C178.121 123.405 215.34 123.405 252.558 123.405C253.032 123.405 253.268 123.72 253.189 124.115C253.11 124.509 252.716 124.824 252.243 124.824Z" fill="#929292"/>
<path d="M250.825 129.24C213.606 129.24 176.388 129.24 139.169 129.24C138.696 129.24 138.46 128.925 138.538 128.53C138.617 128.136 139.011 127.821 139.485 127.821C176.703 127.821 213.922 127.821 251.141 127.821C251.614 127.821 251.85 128.136 251.771 128.53C251.692 128.925 251.298 129.24 250.825 129.24Z" fill="#929292"/>
<path d="M249.399 133.656C212.181 133.656 174.962 133.656 137.743 133.656C137.27 133.656 137.034 133.341 137.113 132.946C137.191 132.552 137.586 132.237 138.059 132.237C175.277 132.237 212.496 132.237 249.715 132.237C250.188 132.237 250.424 132.552 250.346 132.946C250.267 133.341 249.872 133.656 249.399 133.656Z" fill="#929292"/>
<path d="M247.985 138.072C210.767 138.072 173.548 138.072 136.329 138.072C135.856 138.072 135.62 137.756 135.699 137.362C135.777 136.968 136.251 136.652 136.645 136.652C173.863 136.652 211.082 136.652 248.301 136.652C248.774 136.652 249.01 136.968 248.932 137.362C248.774 137.756 248.38 138.072 247.985 138.072Z" fill="#929292"/>
<path d="M175.521 142.488C161.959 142.488 148.396 142.488 134.833 142.488C134.36 142.488 134.124 142.172 134.202 141.778C134.281 141.384 134.754 141.068 135.149 141.068C148.711 141.068 162.274 141.068 175.837 141.068C176.31 141.068 176.547 141.384 176.468 141.778C176.389 142.172 175.916 142.488 175.521 142.488Z" fill="#929292"/>
<g opacity="0.2">
<path d="M171.26 177.893C171.654 177.577 172.679 176.789 173.31 176.316C173.546 176.079 173.941 176.079 174.019 176.237C174.335 176.631 174.729 177.025 175.045 177.498C175.045 177.498 173.941 178.76 173.546 179.154C169.919 183.491 167.711 187.592 168.027 188.38C171.733 187.986 195.941 176.158 206.822 169.219C204.378 164.172 198.7 161.018 190.894 161.412C179.776 161.886 167.869 169.692 162.744 179.47C160.93 182.939 160.141 186.33 160.22 189.326C164.084 184.359 169.288 179.549 171.26 177.893Z" fill="#23274D"/>
<path d="M164.078 198.079C166.759 200.524 170.702 202.022 175.67 202.022C188.049 202.022 202.164 192.954 206.659 181.678C207.92 178.603 208.315 175.685 207.999 173.083C196.802 181.047 175.275 193.979 164.078 198.079Z" fill="#23274D"/>
<path d="M172.28 178.681C172.359 178.681 155.958 193.111 158.165 197.448C160.452 201.864 201.613 177.183 211.785 168.667C222.115 160.23 211.707 163.62 211.785 163.62C211.785 163.62 215.255 163.778 212.653 166.38C207.449 171.742 169.993 190.746 166.997 189.721C164.079 188.774 172.28 178.681 172.28 178.681Z" fill="#23274D"/>
</g>
<path d="M122.209 196.423C116.373 196.423 115.27 194.136 115.27 192.244C115.506 186.488 126.624 176.71 138.295 172.057C144.682 169.534 149.807 169.376 151.305 171.663C152.567 173.556 150.99 176.71 147.126 180.258C139.399 187.355 133.011 188.932 130.173 187.434C129.7 187.197 129.384 186.882 129.227 186.566C128.517 186.882 127.728 187.276 126.861 187.592C126.624 187.67 126.388 187.592 126.388 187.434C126.309 187.276 126.467 187.04 126.703 186.961C127.571 186.645 128.28 186.251 128.99 185.936C128.832 185.226 128.99 184.437 129.542 183.649C130.646 181.993 132.617 181.204 133.958 181.204C134.667 181.204 135.14 181.599 135.14 182.072C135.062 183.097 133.327 184.516 130.094 186.093C130.252 186.33 130.488 186.566 130.804 186.724C132.696 187.749 138.295 187.513 146.653 179.785C150.28 176.473 151.7 173.635 150.596 172.057C149.255 170.086 144.445 170.323 138.452 172.609C127.097 177.104 116.216 186.566 116.058 192.007C115.979 194.531 118.424 195.792 123.076 195.635C129.069 195.477 135.456 193.032 140.739 190.115C142.395 186.882 147.363 182.703 152.567 180.179C153.592 179.706 154.223 179.549 154.459 179.785C154.696 179.943 154.617 180.337 154.302 180.81C153.198 182.466 148.072 186.803 141.37 190.43C141.291 190.588 141.212 190.825 141.133 190.982C140.818 192.007 140.897 192.717 141.528 193.269C143.735 195.083 151.857 189.642 154.696 187.355C154.854 187.197 155.169 187.197 155.248 187.355C155.406 187.513 155.327 187.749 155.169 187.828C154.696 188.144 143.972 196.502 140.897 193.9C140.108 193.269 139.951 192.244 140.345 191.061C134.904 193.9 128.675 196.265 122.839 196.423C122.761 196.423 122.445 196.423 122.209 196.423ZM153.908 180.495C153.75 180.495 153.513 180.574 152.961 180.889C148.467 183.097 144.051 186.645 142.158 189.563C146.18 187.276 149.571 184.753 151.621 183.018C153.198 181.52 153.75 180.731 153.908 180.495ZM133.642 181.914C132.775 181.914 131.198 182.466 130.252 183.807C129.857 184.359 129.7 184.989 129.857 185.463C133.248 183.728 134.352 182.624 134.352 182.23C134.352 181.993 133.958 181.914 133.8 181.914C133.721 181.914 133.721 181.914 133.642 181.914Z" fill="#B8D4F7"/>
</g>
<path fill-rule="evenodd" clip-rule="evenodd" d="M313.255 170.874C309.383 165.918 303.958 164.027 299.335 165.069C294.635 166.128 291.1 170.156 291.1 176.196C291.1 185.496 296.641 191.92 303.153 196.571C300.004 199.434 297.612 202.765 296.185 205.998C296.034 206.34 295.894 206.682 295.763 207.024H278.078C277.207 207.024 276.5 207.732 276.5 208.605C276.5 209.478 277.207 210.186 278.078 210.186H294.872C294.654 211.416 294.602 212.615 294.746 213.743C295.059 216.196 296.31 218.318 298.68 219.504C301.204 220.768 303.633 220.655 305.791 219.651C307.871 218.683 309.625 216.927 311.057 215.011C312.179 213.509 313.159 211.831 313.985 210.186H349.103C349.975 210.186 350.681 209.478 350.681 208.605C350.681 207.732 349.975 207.024 349.103 207.024H315.419C315.97 205.676 316.393 204.464 316.678 203.537C317.389 201.22 318.218 196.787 318.396 191.737C318.738 191.629 319.068 191.532 319.388 191.444C321.55 190.852 323.114 190.738 324.139 190.902C325.125 191.061 325.405 191.423 325.509 191.68C325.659 192.047 325.707 192.821 325.153 194.169C324.441 195.901 324.08 197.487 324.423 198.754C324.614 199.461 325.031 200.081 325.69 200.476C326.314 200.85 327.001 200.931 327.599 200.894C328.76 200.821 330.03 200.276 331.2 199.571C332.408 198.842 333.666 197.845 334.831 196.679C335.878 195.63 336.953 194.673 337.964 193.923C338.997 193.158 339.872 192.677 340.527 192.482C340.845 192.387 341.04 192.382 341.136 192.394C341.202 192.403 341.215 192.415 341.222 192.423C341.289 192.487 341.605 192.913 341.605 194.375C341.605 197.085 342.328 199.214 344.275 199.994C345.157 200.348 346.066 200.309 346.835 200.148C347.61 199.987 348.361 199.677 349.02 199.348C349.799 198.957 350.115 198.008 349.726 197.227C349.336 196.446 348.388 196.129 347.608 196.52C347.082 196.783 346.601 196.967 346.192 197.053C345.777 197.139 345.552 197.1 345.447 197.059C345.411 197.044 344.762 196.787 344.762 194.375C344.762 192.676 344.435 191.125 343.405 190.139C342.268 189.051 340.795 189.104 339.627 189.451C338.457 189.8 337.236 190.529 336.086 191.382C334.916 192.25 333.722 193.318 332.599 194.443C331.593 195.45 330.534 196.282 329.571 196.862C329.352 196.994 329.145 197.109 328.951 197.209C328.182 197.602 327.496 196.993 327.771 196.174C327.851 195.935 327.95 195.669 328.072 195.373C328.761 193.697 329.037 191.971 328.433 190.486C327.784 188.892 326.33 188.052 324.638 187.78C322.984 187.515 320.924 187.745 318.555 188.395C318.508 188.407 318.461 188.42 318.414 188.434C318.259 182.411 317.024 175.698 313.255 170.874ZM311.987 207.024C312.745 205.319 313.312 203.742 313.66 202.607C314.227 200.762 314.93 197.162 315.18 192.924C314.049 193.396 312.833 193.954 311.534 194.605C310.499 195.124 309.51 195.703 308.572 196.331C308.925 196.542 309.281 196.75 309.639 196.955C310.396 197.388 310.659 198.354 310.226 199.112C309.793 199.87 308.829 200.133 308.072 199.7C307.339 199.28 306.603 198.842 305.872 198.384C302.834 200.994 300.537 204.08 299.186 207.024H311.987ZM298.091 210.186C297.828 211.357 297.76 212.424 297.877 213.343C298.077 214.914 298.803 216.031 300.092 216.676C301.711 217.487 303.129 217.403 304.461 216.783C305.87 216.127 307.248 214.832 308.529 213.117C309.212 212.202 309.842 211.205 310.412 210.186H298.091ZM310.123 191.777C311.974 190.85 313.692 190.088 315.274 189.482C315.273 189.311 315.271 189.14 315.268 188.968C315.171 183.057 314.002 176.96 310.769 172.822C307.539 168.688 303.297 167.417 300.028 168.154C296.837 168.873 294.256 171.564 294.256 176.196C294.256 184.34 299.262 190.083 305.693 194.492C307.066 193.482 308.547 192.566 310.123 191.777Z" fill="#EDEFF1"/>
<defs>
<filter id="filter0_f_9580_53837" x="3.5763" y="239.135" width="398.246" height="39.3032" filterUnits="userSpaceOnUse" color-interpolation-filters="sRGB">
<feFlood flood-opacity="0" result="BackgroundImageFix"/>
<feBlend mode="normal" in="SourceGraphic" in2="BackgroundImageFix" result="shape"/>
<feGaussianBlur stdDeviation="8.82318" result="effect1_foregroundBlur_9580_53837"/>
</filter>
<linearGradient id="paint0_linear_9580_53837" x1="0.367187" y1="250.365" x2="404.629" y2="250.365" gradientUnits="userSpaceOnUse">
<stop stop-color="#B7C2D0"/>
<stop offset="0.0295345" stop-color="#CAD4DB"/>
<stop offset="0.0625" stop-color="#BECCDE"/>
<stop offset="0.133609" stop-color="#B7C2D0" stop-opacity="0.3"/>
<stop offset="0.865967" stop-color="#B7C2D0" stop-opacity="0.3"/>
<stop offset="0.941937" stop-color="#BECCDE"/>
<stop offset="0.971275" stop-color="#CAD4DB"/>
<stop offset="0.996436" stop-color="#B7C2D0"/>
</linearGradient>
<linearGradient id="paint1_linear_9580_53837" x1="202.498" y1="251.568" x2="202.498" y2="256.381" gradientUnits="userSpaceOnUse">
<stop stop-color="#D1DBE9" stop-opacity="0.6"/>
<stop offset="1" stop-color="#AAB5C6" stop-opacity="0.6"/>
</linearGradient>
<linearGradient id="paint2_linear_9580_53837" x1="178.724" y1="250.623" x2="227.744" y2="250.623" gradientUnits="userSpaceOnUse">
<stop stop-color="#CFD9E7"/>
<stop offset="0.317518" stop-color="#CFD9E7" stop-opacity="0"/>
<stop offset="0.660584" stop-color="#CFD9E7" stop-opacity="0"/>
<stop offset="1" stop-color="#CFD9E7"/>
</linearGradient>
<clipPath id="clip0_9580_53837">
<rect width="198" height="242" fill="white" transform="translate(96.5)"/>
</clipPath>
</defs>
</svg>