<svg width="24" height="24" viewBox="0 0 24 24" fill="none" xmlns="http://www.w3.org/2000/svg">
<path d="M19 12C19 12.2652 18.8946 12.5196 18.7071 12.7071C18.5196 12.8946 18.2652 13 18 13C17.7348 13 17.4804 12.8946 17.2929 12.7071C17.1054 12.5196 17 12.2652 17 12C17 11.7348 17.1054 11.4804 17.2929 11.2929C17.4804 11.1054 17.7348 11 18 11C18.2652 11 18.5196 11.1054 18.7071 11.2929C18.8946 11.4804 19 11.7348 19 12Z" fill="white"/>
<path fill-rule="evenodd" clip-rule="evenodd" d="M9.944 3.25H13.056C14.894 3.25 16.35 3.25 17.489 3.403C18.661 3.561 19.61 3.893 20.359 4.641C21.283 5.566 21.578 6.804 21.685 8.411C22.262 8.664 22.698 9.201 22.745 9.881C22.75 9.942 22.75 10.007 22.75 10.067V13.933C22.75 13.993 22.75 14.058 22.746 14.118C22.698 14.798 22.262 15.336 21.685 15.59C21.578 17.196 21.283 18.434 20.359 19.359C19.61 20.107 18.661 20.439 17.489 20.597C16.349 20.75 14.894 20.75 13.056 20.75H9.944C8.106 20.75 6.65 20.75 5.511 20.597C4.339 20.439 3.39 20.107 2.641 19.359C1.893 18.61 1.561 17.661 1.403 16.489C1.25 15.349 1.25 13.894 1.25 12.056V11.944C1.25 10.106 1.25 8.65 1.403 7.511C1.561 6.339 1.893 5.39 2.641 4.641C3.39 3.893 4.339 3.561 5.511 3.403C6.651 3.25 8.106 3.25 9.944 3.25ZM20.168 15.75H18.23C16.085 15.75 14.249 14.122 14.249 12C14.249 9.878 16.085 8.25 18.229 8.25H20.167C20.053 6.909 19.796 6.2 19.297 5.702C18.874 5.279 18.294 5.025 17.288 4.89C16.261 4.752 14.906 4.75 12.999 4.75H9.999C8.092 4.75 6.738 4.752 5.709 4.89C4.704 5.025 4.124 5.279 3.701 5.702C3.278 6.125 3.024 6.705 2.889 7.711C2.751 8.739 2.749 10.093 2.749 12C2.749 13.907 2.751 15.262 2.889 16.29C3.024 17.295 3.278 17.875 3.701 18.298C4.124 18.721 4.704 18.975 5.71 19.11C6.738 19.248 8.092 19.25 9.999 19.25H12.999C14.906 19.25 16.261 19.248 17.289 19.11C18.294 18.975 18.874 18.721 19.297 18.298C19.796 17.8 20.054 17.092 20.168 15.75ZM5.25 8C5.25 7.80109 5.32902 7.61032 5.46967 7.46967C5.61032 7.32902 5.80109 7.25 6 7.25H10C10.1989 7.25 10.3897 7.32902 10.5303 7.46967C10.671 7.61032 10.75 7.80109 10.75 8C10.75 8.19891 10.671 8.38968 10.5303 8.53033C10.3897 8.67098 10.1989 8.75 10 8.75H6C5.80109 8.75 5.61032 8.67098 5.46967 8.53033C5.32902 8.38968 5.25 8.19891 5.25 8ZM20.924 9.75H18.23C16.806 9.75 15.749 10.809 15.749 12C15.749 13.191 16.806 14.25 18.229 14.25H20.947C21.153 14.237 21.242 14.098 21.249 14.014V9.986C21.242 9.902 21.153 9.763 20.947 9.751L20.924 9.75Z" fill="white"/>
</svg>
