<svg width="101" height="101" viewBox="0 0 101 101" fill="none" xmlns="http://www.w3.org/2000/svg">
<path d="M75.3628 6.72293H9.94629V93.5325H75.3628V6.72293ZM64.8658 45.3582C64.8658 45.9569 64.3869 46.4757 63.7483 46.4757H21.2814C20.6827 46.4757 20.1638 45.9968 20.1638 45.3582C20.1638 44.7595 20.6428 44.2406 21.2814 44.2406H63.7483C64.347 44.2406 64.8658 44.7595 64.8658 45.3582ZM21.2814 64.5561C20.6827 64.5561 20.1638 64.0771 20.1638 63.4385C20.1638 62.8398 20.6428 62.321 21.2814 62.321H63.7483C64.347 62.321 64.8658 62.7999 64.8658 63.4385C64.8658 64.0372 64.3869 64.5561 63.7483 64.5561H21.2814ZM21.2814 35.2204H63.7483C64.347 35.2204 64.8658 35.6994 64.8658 36.338C64.8658 36.9766 64.3869 37.4555 63.7483 37.4555H21.2814C20.6827 37.4555 20.1638 36.9766 20.1638 36.338C20.1638 35.6994 20.6827 35.2204 21.2814 35.2204ZM63.7483 55.4959H21.2814C20.6827 55.4959 20.1638 55.017 20.1638 54.3784C20.1638 53.7398 20.6428 53.2608 21.2814 53.2608H63.7483C64.347 53.2608 64.8658 53.7398 64.8658 54.3784C64.8658 55.017 64.347 55.4959 63.7483 55.4959ZM59.1584 12.3107H70.8526C71.4513 12.3107 71.9702 12.7896 71.9702 13.4282C71.9702 14.0668 71.4912 14.5458 70.8526 14.5458H66.1031V29.3932C66.1031 29.9919 65.6241 30.5107 64.9855 30.5107C64.3868 30.5107 63.868 30.0318 63.868 29.3932V14.5458H59.1184C58.5197 14.5458 58.0008 14.0668 58.0008 13.4282C58.0008 12.7896 58.5198 12.3107 59.1584 12.3107ZM43.8719 13.4282C43.8719 12.9493 44.1912 12.5102 44.6701 12.3506C45.1491 12.1909 45.628 12.3905 45.9074 12.7896L54.6083 25.7212V13.3883C54.6083 12.7896 55.0873 12.2708 55.7259 12.2708C56.3645 12.2708 56.8434 12.7497 56.8434 13.3883V29.3533C56.8434 29.8322 56.5241 30.2713 56.0452 30.4309C55.9254 30.4708 55.8456 30.4708 55.7259 30.4708C55.3666 30.4708 55.0074 30.3112 54.8078 29.9919L46.1069 17.0603V29.3932C46.1069 29.9919 45.628 30.5107 44.9894 30.5107C44.3508 30.5107 43.8719 30.0318 43.8719 29.3932V13.4282ZM29.5432 13.4282C29.5432 12.8295 30.0222 12.3107 30.6608 12.3107H40.7587C41.3574 12.3107 41.8763 12.7896 41.8763 13.4282C41.8763 14.0668 41.3973 14.5458 40.7587 14.5458H31.7784V20.2932H37.0868C37.6854 20.2932 38.2043 20.7721 38.2043 21.4107C38.2043 22.0493 37.7254 22.5283 37.0868 22.5283H31.7784V28.2757H40.7587C41.3574 28.2757 41.8763 28.7546 41.8763 29.3932C41.8763 29.9919 41.3973 30.5107 40.7587 30.5107H30.6608C30.0621 30.5107 29.5432 30.0318 29.5432 29.3932V13.4282ZM14.8954 21.4107V13.4282C14.8954 12.8295 15.3744 12.3107 16.013 12.3107H23.9555C25.7516 12.3107 27.2284 13.7874 27.2284 15.5835V19.2555C27.2284 20.0936 26.9091 20.8519 26.4302 21.4107C26.949 21.9695 27.2284 22.6879 27.2284 23.4862V29.3932C27.2284 29.9919 26.7494 30.5107 26.1108 30.5107C25.5121 30.5107 24.9933 30.0318 24.9933 29.3932V23.4862C24.9933 22.9673 24.4744 22.5283 23.8358 22.5283H17.1305V29.3932C17.1305 29.9919 16.6516 30.5107 16.013 30.5107C15.3744 30.5107 14.8954 30.0318 14.8954 29.3932V21.4107ZM33.4946 82.6364H21.3213C20.7227 82.6364 20.2038 82.1575 20.2038 81.5189C20.2038 80.9202 20.6827 80.4013 21.3213 80.4013H33.4946C34.0933 80.4013 34.6122 80.8803 34.6122 81.5189C34.5723 82.1176 34.0933 82.6364 33.4946 82.6364ZM64.4666 82.6364H52.2933C51.6947 82.6364 51.1759 82.1575 51.1759 81.5189C51.1759 80.9202 51.6547 80.4013 52.2933 80.4013H64.4666C65.0653 80.4013 65.5842 80.8803 65.5842 81.5189C65.5842 82.1176 65.0653 82.6364 64.4666 82.6364ZM64.4666 73.5763H21.2814C20.6827 73.5763 20.1638 73.0973 20.1638 72.4587C20.1638 71.86 20.6428 71.3412 21.2814 71.3412H64.4666C65.0653 71.3412 65.5842 71.8201 65.5842 72.4587C65.5842 73.0973 65.0653 73.5763 64.4666 73.5763Z" fill="white"/>
<path d="M76.4801 4.48761H8.82851C8.22982 4.48761 7.71094 4.96655 7.71094 5.60515V70.9418V94.6099C7.71094 95.2086 8.18991 95.7275 8.82851 95.7275H76.4801C77.0788 95.7275 77.5977 95.2485 77.5977 94.6099V17.1798V5.60515C77.5977 5.00647 77.0788 4.48761 76.4801 4.48761ZM9.94607 93.5323V6.7227H75.3625V93.5323H9.94607Z" fill="#929292"/>
<path d="M85.5 48.6308V77.4076C85.5 77.5673 85.6197 77.6471 85.6996 77.6871C86.0588 77.8068 86.2982 78.0861 86.4179 78.4454L87.735 83.4744L89.0522 78.4454C89.132 78.0861 89.4114 77.8068 89.7706 77.6871C89.8504 77.6471 89.9702 77.5673 89.9702 77.4076V48.6308H85.5Z" fill="#B8D4F7"/>
<path d="M84.9824 46.3959H90.3307V21.7699C90.3307 20.4129 89.2131 19.2953 87.8561 19.2953H87.4969C86.1399 19.2953 85.0223 20.4129 85.0223 21.7699V46.3959H84.9824Z" fill="#B8D4F7"/>
<path d="M87.814 17.06H87.4548C84.8605 17.06 82.7451 19.1753 82.7451 21.7696V47.5132C82.7451 47.9123 82.9447 48.2715 83.264 48.4711V77.4076C83.264 78.2458 83.6631 79.0041 84.3416 79.4431L85.9781 85.6695C86.1776 86.4678 86.8562 86.9866 87.6943 86.9866C88.5325 86.9866 89.2109 86.4678 89.4105 85.6695L91.0469 79.4032C91.7254 78.9243 92.1245 78.1659 92.1245 77.3677V48.3114C92.364 48.1119 92.4838 47.8325 92.4838 47.4733V21.7297C92.5237 19.1753 90.4083 17.06 87.814 17.06ZM89.7298 77.6471C89.3706 77.7668 89.1311 78.0462 89.0114 78.4054L87.6943 83.4344L86.3772 78.4054C86.2974 78.0462 86.018 77.7668 85.6587 77.6471C85.5789 77.6072 85.4592 77.5273 85.4592 77.3677V48.6307H89.8895V77.4076C89.9294 77.5273 89.8495 77.6072 89.7298 77.6471ZM87.4548 19.2951H87.814C89.171 19.2951 90.2886 20.4126 90.2886 21.7696V46.3956H84.9403V21.7696C84.9802 20.4126 86.0978 19.2951 87.4548 19.2951Z" fill="#929292"/>
<path d="M63.7485 44.2403H21.2816C20.6829 44.2403 20.1641 44.7192 20.1641 45.3578C20.1641 45.9565 20.643 46.4754 21.2816 46.4754H63.7485C64.3472 46.4754 64.866 45.9964 64.866 45.3578C64.866 44.7591 64.3472 44.2403 63.7485 44.2403Z" fill="#929292"/>
<path d="M21.2816 37.4556H63.7485C64.3472 37.4556 64.866 36.9767 64.866 36.3381C64.866 35.6995 64.3871 35.2206 63.7485 35.2206H21.2816C20.6829 35.2206 20.1641 35.6995 20.1641 36.3381C20.1641 36.9767 20.6829 37.4556 21.2816 37.4556Z" fill="#929292"/>
<path d="M63.7485 53.3007H21.2816C20.6829 53.3007 20.1641 53.7797 20.1641 54.4183C20.1641 55.0569 20.643 55.5359 21.2816 55.5359H63.7485C64.3472 55.5359 64.866 55.0569 64.866 54.4183C64.866 53.7797 64.3472 53.3007 63.7485 53.3007Z" fill="#929292"/>
<path d="M64.866 63.4387C64.866 62.84 64.3871 62.3212 63.7485 62.3212H21.2816C20.6829 62.3212 20.1641 62.8001 20.1641 63.4387C20.1641 64.0374 20.643 64.5563 21.2816 64.5563H63.7485C64.3472 64.5563 64.866 64.0374 64.866 63.4387Z" fill="#929292"/>
<path d="M64.4669 71.3811H21.2816C20.6829 71.3811 20.1641 71.8601 20.1641 72.4987C20.1641 73.0973 20.643 73.6162 21.2816 73.6162H64.4669C65.0656 73.6162 65.5845 73.1373 65.5845 72.4987C65.5845 71.8601 65.0656 71.3811 64.4669 71.3811Z" fill="#929292"/>
<path d="M33.494 80.4014H21.3207C20.722 80.4014 20.2031 80.8804 20.2031 81.519C20.2031 82.1177 20.6821 82.6365 21.3207 82.6365H33.494C34.0927 82.6365 34.6116 82.1576 34.6116 81.519C34.5716 80.9203 34.0927 80.4014 33.494 80.4014Z" fill="#929292"/>
<path d="M64.4675 80.4014H52.2942C51.6955 80.4014 51.1768 80.8804 51.1768 81.519C51.1768 82.1177 51.6556 82.6365 52.2942 82.6365H64.4675C65.0662 82.6365 65.5851 82.1576 65.5851 81.519C65.5851 80.9203 65.0662 80.4014 64.4675 80.4014Z" fill="#929292"/>
<path d="M23.9149 20.2931C24.4737 20.2931 24.9526 19.8142 24.9526 19.2554V15.5834C24.9526 15.0247 24.4737 14.5457 23.9149 14.5457H17.0898V20.2931H23.7952H23.9149Z" fill="white"/>
<path d="M16.0121 30.5104C16.6108 30.5104 17.1297 30.0315 17.1297 29.3929V22.5279H23.835C24.4736 22.5279 24.9924 22.967 24.9924 23.4858V29.3929C24.9924 29.9916 25.4714 30.5104 26.11 30.5104C26.7087 30.5104 27.2275 30.0315 27.2275 29.3929V23.4858C27.2275 22.6876 26.9082 21.9692 26.4293 21.4104C26.9482 20.8516 27.2275 20.0933 27.2275 19.2551V15.5832C27.2275 13.7871 25.7507 12.3104 23.9546 12.3104H16.0121C15.4134 12.3104 14.8945 12.7893 14.8945 13.4279V21.4104V29.3929C14.8945 29.9916 15.3735 30.5104 16.0121 30.5104ZM17.1297 14.5455H23.9546C24.5134 14.5455 24.9924 15.0244 24.9924 15.5832V19.2551C24.9924 19.8139 24.5134 20.2929 23.9546 20.2929H23.835H17.1297V14.5455Z" fill="#929292"/>
<path d="M75.3628 6.72293H9.94629V93.5325H75.3628V6.72293ZM64.8658 45.3582C64.8658 45.9569 64.3869 46.4757 63.7483 46.4757H21.2814C20.6827 46.4757 20.1638 45.9968 20.1638 45.3582C20.1638 44.7595 20.6428 44.2406 21.2814 44.2406H63.7483C64.347 44.2406 64.8658 44.7595 64.8658 45.3582ZM21.2814 64.5561C20.6827 64.5561 20.1638 64.0771 20.1638 63.4385C20.1638 62.8398 20.6428 62.321 21.2814 62.321H63.7483C64.347 62.321 64.8658 62.7999 64.8658 63.4385C64.8658 64.0372 64.3869 64.5561 63.7483 64.5561H21.2814ZM21.2814 35.2204H63.7483C64.347 35.2204 64.8658 35.6994 64.8658 36.338C64.8658 36.9766 64.3869 37.4555 63.7483 37.4555H21.2814C20.6827 37.4555 20.1638 36.9766 20.1638 36.338C20.1638 35.6994 20.6827 35.2204 21.2814 35.2204ZM63.7483 55.4959H21.2814C20.6827 55.4959 20.1638 55.017 20.1638 54.3784C20.1638 53.7398 20.6428 53.2608 21.2814 53.2608H63.7483C64.347 53.2608 64.8658 53.7398 64.8658 54.3784C64.8658 55.017 64.347 55.4959 63.7483 55.4959ZM59.1584 12.3107H70.8526C71.4513 12.3107 71.9702 12.7896 71.9702 13.4282C71.9702 14.0668 71.4912 14.5458 70.8526 14.5458H66.1031V29.3932C66.1031 29.9919 65.6241 30.5107 64.9855 30.5107C64.3868 30.5107 63.868 30.0318 63.868 29.3932V14.5458H59.1184C58.5197 14.5458 58.0008 14.0668 58.0008 13.4282C58.0008 12.7896 58.5198 12.3107 59.1584 12.3107ZM43.8719 13.4282C43.8719 12.9493 44.1912 12.5102 44.6701 12.3506C45.1491 12.1909 45.628 12.3905 45.9074 12.7896L54.6083 25.7212V13.3883C54.6083 12.7896 55.0873 12.2708 55.7259 12.2708C56.3645 12.2708 56.8434 12.7497 56.8434 13.3883V29.3533C56.8434 29.8322 56.5241 30.2713 56.0452 30.4309C55.9254 30.4708 55.8456 30.4708 55.7259 30.4708C55.3666 30.4708 55.0074 30.3112 54.8078 29.9919L46.1069 17.0603V29.3932C46.1069 29.9919 45.628 30.5107 44.9894 30.5107C44.3508 30.5107 43.8719 30.0318 43.8719 29.3932V13.4282ZM29.5432 13.4282C29.5432 12.8295 30.0222 12.3107 30.6608 12.3107H40.7587C41.3574 12.3107 41.8763 12.7896 41.8763 13.4282C41.8763 14.0668 41.3973 14.5458 40.7587 14.5458H31.7784V20.2932H37.0868C37.6854 20.2932 38.2043 20.7721 38.2043 21.4107C38.2043 22.0493 37.7254 22.5283 37.0868 22.5283H31.7784V28.2757H40.7587C41.3574 28.2757 41.8763 28.7546 41.8763 29.3932C41.8763 29.9919 41.3973 30.5107 40.7587 30.5107H30.6608C30.0621 30.5107 29.5432 30.0318 29.5432 29.3932V13.4282ZM14.8954 21.4107V13.4282C14.8954 12.8295 15.3744 12.3107 16.013 12.3107H23.9555C25.7516 12.3107 27.2284 13.7874 27.2284 15.5835V19.2555C27.2284 20.0936 26.9091 20.8519 26.4302 21.4107C26.949 21.9695 27.2284 22.6879 27.2284 23.4862V29.3932C27.2284 29.9919 26.7494 30.5107 26.1108 30.5107C25.5121 30.5107 24.9933 30.0318 24.9933 29.3932V23.4862C24.9933 22.9673 24.4744 22.5283 23.8358 22.5283H17.1305V29.3932C17.1305 29.9919 16.6516 30.5107 16.013 30.5107C15.3744 30.5107 14.8954 30.0318 14.8954 29.3932V21.4107ZM33.4946 82.6364H21.3213C20.7227 82.6364 20.2038 82.1575 20.2038 81.5189C20.2038 80.9202 20.6827 80.4013 21.3213 80.4013H33.4946C34.0933 80.4013 34.6122 80.8803 34.6122 81.5189C34.5723 82.1176 34.0933 82.6364 33.4946 82.6364ZM64.4666 82.6364H52.2933C51.6947 82.6364 51.1759 82.1575 51.1759 81.5189C51.1759 80.9202 51.6547 80.4013 52.2933 80.4013H64.4666C65.0653 80.4013 65.5842 80.8803 65.5842 81.5189C65.5842 82.1176 65.0653 82.6364 64.4666 82.6364ZM64.4666 73.5763H21.2814C20.6827 73.5763 20.1638 73.0973 20.1638 72.4587C20.1638 71.86 20.6428 71.3412 21.2814 71.3412H64.4666C65.0653 71.3412 65.5842 71.8201 65.5842 72.4587C65.5842 73.0973 65.0653 73.5763 64.4666 73.5763Z" fill="white"/>
<path d="M76.4801 4.48761H8.82851C8.22982 4.48761 7.71094 4.96655 7.71094 5.60515V70.9418V94.6099C7.71094 95.2086 8.18991 95.7275 8.82851 95.7275H76.4801C77.0788 95.7275 77.5977 95.2485 77.5977 94.6099V17.1798V5.60515C77.5977 5.00647 77.0788 4.48761 76.4801 4.48761ZM9.94607 93.5323V6.7227H75.3625V93.5323H9.94607Z" fill="#929292"/>
<path d="M87.814 17.06H87.4548C84.8605 17.06 82.7451 19.1753 82.7451 21.7696V47.5132C82.7451 47.9123 82.9447 48.2715 83.264 48.4711V77.4076C83.264 78.2458 83.6631 79.0041 84.3416 79.4431L85.9781 85.6695C86.1776 86.4678 86.8562 86.9866 87.6943 86.9866C88.5325 86.9866 89.2109 86.4678 89.4105 85.6695L91.0469 79.4032C91.7254 78.9243 92.1245 78.1659 92.1245 77.3677V48.3114C92.364 48.1119 92.4838 47.8325 92.4838 47.4733V21.7297C92.5237 19.1753 90.4083 17.06 87.814 17.06ZM89.7298 77.6471C89.3706 77.7668 89.1311 78.0462 89.0114 78.4054L87.6943 83.4344L86.3772 78.4054C86.2974 78.0462 86.018 77.7668 85.6587 77.6471C85.5789 77.6072 85.4592 77.5273 85.4592 77.3677V48.6307H89.8895V77.4076C89.9294 77.5273 89.8495 77.6072 89.7298 77.6471ZM87.4548 19.2951H87.814C89.171 19.2951 90.2886 20.4126 90.2886 21.7696V46.3956H84.9403V21.7696C84.9802 20.4126 86.0978 19.2951 87.4548 19.2951Z" fill="#929292"/>
<path d="M16.0121 30.5104C16.6108 30.5104 17.1297 30.0315 17.1297 29.3929V22.5279H23.835C24.4736 22.5279 24.9924 22.967 24.9924 23.4858V29.3929C24.9924 29.9916 25.4714 30.5104 26.11 30.5104C26.7087 30.5104 27.2275 30.0315 27.2275 29.3929V23.4858C27.2275 22.6876 26.9082 21.9692 26.4293 21.4104C26.9482 20.8516 27.2275 20.0933 27.2275 19.2551V15.5832C27.2275 13.7871 25.7507 12.3104 23.9546 12.3104H16.0121C15.4134 12.3104 14.8945 12.7893 14.8945 13.4279V21.4104V29.3929C14.8945 29.9916 15.3735 30.5104 16.0121 30.5104ZM17.1297 14.5455H23.9546C24.5134 14.5455 24.9924 15.0244 24.9924 15.5832V19.2551C24.9924 19.8139 24.5134 20.2929 23.9546 20.2929H23.835H17.1297V14.5455Z" fill="#929292"/>
<path d="M30.6605 30.5104H40.7584C41.3571 30.5104 41.876 30.0315 41.876 29.3929C41.876 28.7942 41.397 28.2753 40.7584 28.2753H31.7781V22.5279H37.0865C37.6852 22.5279 38.204 22.049 38.204 21.4104C38.204 20.7718 37.7251 20.2929 37.0865 20.2929H31.7781V14.5455H40.7584C41.3571 14.5455 41.876 14.0665 41.876 13.4279C41.876 12.7893 41.397 12.3104 40.7584 12.3104H30.6605C30.0619 12.3104 29.543 12.7893 29.543 13.4279V29.3929C29.543 29.9916 30.0219 30.5104 30.6605 30.5104Z" fill="#929292"/>
<path d="M44.9896 30.5108C45.5883 30.5108 46.1071 30.0319 46.1071 29.3933V17.0604L54.808 29.992C55.0076 30.3113 55.3668 30.4709 55.726 30.4709C55.8458 30.4709 55.9256 30.4709 56.0454 30.431C56.5243 30.2714 56.8436 29.8722 56.8436 29.3534V13.3884C56.8436 12.7897 56.3646 12.2709 55.726 12.2709C55.0874 12.2709 54.6085 12.7498 54.6085 13.3884V25.7213L45.9075 12.7897C45.6282 12.3906 45.1493 12.191 44.6703 12.3507C44.1914 12.5103 43.8721 12.9094 43.8721 13.4283V29.3933C43.8721 29.992 44.351 30.5108 44.9896 30.5108Z" fill="#929292"/>
<path d="M59.1578 14.5455H63.9073V29.3929C63.9073 29.9916 64.3863 30.5104 65.0249 30.5104C65.6236 30.5104 66.1425 30.0315 66.1425 29.3929V14.5455H70.892C71.4907 14.5455 72.0096 14.0665 72.0096 13.4279C72.0096 12.7893 71.5306 12.3104 70.892 12.3104H59.1976C58.599 12.3104 58.0801 12.7893 58.0801 13.4279C58.0801 14.0665 58.5192 14.5455 59.1578 14.5455Z" fill="#929292"/>
</svg>