<svg width="101" height="101" viewBox="0 0 101 101" fill="none" xmlns="http://www.w3.org/2000/svg">
<path d="M17.9463 48.4244C18.1656 48.2782 18.3484 48.1686 18.6043 48.0589C18.6408 48.0589 18.6773 48.0223 18.7139 48.0223C18.9698 47.9492 19.2256 47.9492 19.445 48.0589C20.3588 48.461 21.163 48.4975 21.894 48.132C23.3562 47.4375 24.6721 45.1347 25.4031 42.0276C25.5493 41.4062 26.0611 40.9676 26.6825 40.9311C27.3039 40.8945 27.8887 41.26 28.1081 41.8449C29.1681 44.6229 31.6902 46.9258 34.9069 47.9858C37.0635 48.7169 39.1471 48.7534 40.2437 48.0589C40.5361 47.8761 40.9016 47.8761 41.194 47.9858C41.4133 48.0955 41.6327 48.2051 41.852 48.3513C41.0113 40.6752 36.5883 36.106 29.8991 36.106C23.1368 36.1792 18.8236 40.6386 17.9463 48.4244Z" fill="#B8D4F7"/>
<path d="M40.9372 57.6358C40.8641 57.6723 40.8275 57.7089 40.791 57.782C38.744 62.6801 34.5769 65.714 29.8981 65.714C25.2193 65.714 21.0523 62.6801 19.0054 57.782C18.9688 57.7089 18.9322 57.6723 18.8591 57.6358C18.457 57.4896 18.0915 57.2702 17.7625 57.0144C17.726 59.8289 17.726 63.0091 17.6895 65.8602H23.0627C23.5379 65.8602 24.0497 65.9333 24.5614 66.1161C26.2794 66.7375 28.0705 67.0299 29.8981 67.0299H29.9347C31.7989 67.0299 33.59 66.7009 35.308 66.1161C35.8197 65.9333 36.3315 65.8602 36.8067 65.8602H42.18C42.18 63.7767 42.1434 60.3041 42.1069 57.0144C41.7413 57.2702 41.3758 57.4896 40.9372 57.6358Z" fill="#B8D4F7"/>
<path d="M83.3756 66.0429H80.7804C79.0989 72.7321 73.945 75.1446 69.9607 75.1446C69.4124 75.1446 68.9372 74.7059 68.9372 74.1211C68.9372 73.5362 69.3758 73.0976 69.9607 73.0976C73.1042 73.0976 77.1616 71.2334 78.6603 66.0429H77.4175C77.125 66.0429 76.8327 66.0794 76.5402 66.1891C74.5298 66.9201 72.3732 67.2857 70.2165 67.2857H70.1434C67.9868 67.2857 65.8667 66.9201 63.8563 66.1891C63.5639 66.0794 63.2714 66.0429 62.979 66.0429H61.2245C61.3342 66.4449 61.4804 66.8105 61.6266 67.176C61.8459 67.6877 61.59 68.2726 61.0783 68.4919C60.9686 68.5285 60.8224 68.565 60.7127 68.565C60.3107 68.565 59.9451 68.3091 59.7624 67.9436C59.5065 67.3222 59.3237 66.7008 59.1409 66.0429H54.6084L69.8875 77.3012C70.2165 77.5571 70.3627 77.9591 70.2531 78.3612C70.1434 78.7633 69.8145 79.0557 69.4124 79.1289L66.6343 79.5309V94.7736C66.6343 94.9563 66.5978 95.1391 66.5247 95.2853H84.4722L83.8508 81.322C83.8143 80.7737 84.2529 80.2985 84.8378 80.262C85.3861 80.2254 85.8613 80.6641 85.8978 81.2489L86.5192 95.2487V95.2853H94.2685L93.6836 75.9853C93.5374 70.3927 88.9683 66.0429 83.3756 66.0429Z" fill="white"/>
<path d="M31.4341 77.301L44.1911 67.8703H37.7577C37.6846 68.9669 37.5019 70.1 37.1729 71.16C37.0267 71.5987 36.6246 71.8911 36.186 71.8911C36.0763 71.8911 36.0032 71.8911 35.8935 71.8545C35.3452 71.7083 35.0528 71.1235 35.199 70.6117C35.4549 69.8076 35.6011 68.9668 35.6742 68.1261C33.81 68.7475 31.8727 69.0765 29.8623 69.0765H29.8257C27.8884 69.0765 25.9511 68.7475 24.0869 68.1261C24.5987 73.2801 27.9615 76.7526 28.9484 77.6299H31.1416C31.2147 77.5203 31.3244 77.3741 31.4341 77.301Z" fill="#B8D4F7"/>
<path d="M18.165 80.2983C18.165 78.8362 19.3713 77.6299 20.8334 77.6299H26.1336C24.5253 75.6926 22.3321 72.3297 22.0031 67.8703H17.2512C11.9144 67.8703 7.60119 72.0373 7.38187 77.3741L6.87012 95.2851H18.0919V80.2983H18.165Z" fill="#B8D4F7"/>
<path d="M5.40819 77.3011L4.89648 95.2486C4.89648 95.7969 5.3351 96.2721 5.8834 96.3087C6.43169 96.3087 6.90689 95.87 6.94345 95.3217V95.2852L7.4552 77.3742C7.67452 72.0374 11.9878 67.8704 17.3245 67.8704H22.0764C22.3688 72.3299 24.562 75.7293 26.2069 77.63H20.9067C19.4446 77.63 18.2384 78.8363 18.2384 80.2984V95.2852C18.2384 95.8335 18.677 96.3087 19.2618 96.3087C19.8467 96.3087 20.2853 95.87 20.2853 95.2852V80.2984C20.2853 79.9329 20.5777 79.677 20.9067 79.677H28.6194H34.7238V94.7734C34.7238 94.9562 34.7603 95.139 34.8334 95.2852C35.0527 95.87 35.601 96.3087 36.2955 96.3087H65.209C65.867 96.3087 66.4518 95.87 66.6712 95.2852C66.7443 95.139 66.7808 94.9562 66.7808 94.7734V79.5308L69.5588 79.1287C69.9609 79.0556 70.2899 78.7632 70.3995 78.3611C70.5092 77.959 70.363 77.5569 70.034 77.3011L54.7548 66.0427H59.2874C59.4702 66.7007 59.653 67.3586 59.9088 67.9435C60.055 68.3456 60.4571 68.5649 60.8592 68.5649C60.9689 68.5649 61.1151 68.5283 61.2247 68.4918C61.7365 68.2724 61.9924 67.6876 61.773 67.1759C61.6268 66.8103 61.4806 66.4083 61.371 66.0427H63.1255C63.4179 66.0427 63.7103 66.0793 64.0028 66.1889C66.0132 66.92 68.1332 67.2855 70.2899 67.2855H70.363C72.5196 67.2855 74.6762 66.92 76.6867 66.1889C76.9791 66.0793 77.2715 66.0427 77.5639 66.0427H78.8067C77.2715 71.2333 73.2507 73.0975 70.1071 73.0975C69.5588 73.0975 69.0836 73.5361 69.0836 74.1209C69.0836 74.7058 69.5223 75.1444 70.1071 75.1444C74.0914 75.1444 79.2454 72.7319 80.9268 66.0427H83.5221C89.1147 66.0427 93.6839 70.4291 93.9032 76.0217L94.488 95.3217V95.3583C94.488 95.9066 94.9632 96.3452 95.5115 96.3452H95.5481C96.0964 96.3452 96.535 95.87 96.535 95.2852L95.9501 75.9486C95.6943 69.2594 90.2479 64.0323 83.5586 64.0323H77.6371C77.1253 64.0323 76.6136 64.142 76.1018 64.3247C74.3107 64.9827 72.4099 65.3117 70.4726 65.3117H70.3995C68.4988 65.3117 66.598 64.9827 64.8069 64.3247C64.2952 64.142 63.7834 64.0323 63.2717 64.0323H52.123L51.8306 63.813C51.2823 63.4109 50.5512 63.4109 50.0029 63.813L47.1884 65.8965H44.4103C44.3738 61.437 44.3372 50.6539 44.191 48.9724C44.1545 48.3145 44.0448 47.6931 43.9717 47.0717C43.4234 43.5991 42.1075 40.6384 40.2067 38.4452C37.7577 35.6671 34.2851 34.1685 30.1912 34.1685C22.1861 34.1685 16.9224 39.688 16.1548 48.9359C16.0817 49.7035 16.0451 52.8105 16.0086 56.4293C15.972 59.6459 15.9355 63.2647 15.9355 65.9696C10.0139 66.7372 5.62751 71.4526 5.40819 77.3011ZM41.8516 48.4241C41.6323 48.2779 41.4495 48.1683 41.1936 48.0586C40.9012 47.9124 40.5357 47.949 40.2433 48.1317C39.1467 48.8262 37.0632 48.7897 34.9065 48.0586C31.7264 46.962 29.1677 44.6592 28.1077 41.9177C27.8884 41.3329 27.3035 40.9673 26.6821 41.0039C26.0607 41.0404 25.549 41.4791 25.4027 42.1005C24.6351 45.2075 23.3192 47.4738 21.8937 48.2048C21.1626 48.5703 20.3584 48.5338 19.4446 48.1317C19.2253 48.0221 18.9328 48.0221 18.7135 48.0952C18.677 48.0952 18.6404 48.1317 18.6039 48.1317C18.3846 48.2414 18.1652 48.351 17.9459 48.4973C18.8232 40.7115 23.1364 36.252 29.8987 36.252C36.5879 36.1789 41.0109 40.748 41.8516 48.4241ZM36.7707 65.86C36.2955 65.86 35.7838 65.9331 35.2721 66.1158C33.5541 66.7372 31.7264 67.0296 29.8987 67.0296H29.8622C28.0345 67.0296 26.2435 66.7007 24.5255 66.1158C24.0137 65.9331 23.5385 65.86 23.0268 65.86H17.6535C17.6535 63.0454 17.69 59.8653 17.7266 57.0141C18.0556 57.27 18.4211 57.4893 18.8232 57.6355C18.8963 57.6721 18.9329 57.7086 18.9694 57.7817C21.0164 62.6798 25.1834 65.7137 29.8622 65.7137C34.541 65.7137 38.7081 62.6798 40.755 57.7817C40.7916 57.7086 40.8281 57.6721 40.9012 57.6355C41.3033 57.4893 41.6689 57.27 42.0344 57.0141C42.0709 60.3039 42.0709 63.7764 42.1075 65.86H36.7707ZM17.7997 52.8105C17.7997 51.6774 18.3114 50.6539 19.079 50.1421C20.3584 50.6173 21.6377 50.5442 22.7709 49.9959C24.9641 48.9359 26.2434 46.2675 26.938 44.1109C28.4366 46.7427 31.0684 48.8993 34.2486 49.9594C36.7342 50.8001 39.1101 50.8732 40.755 50.1421C41.5226 50.6904 41.9978 51.6774 41.9978 52.7739C41.9978 54.1264 41.2668 55.3327 40.2433 55.6982C39.6584 55.9175 39.1832 56.3561 38.9274 56.9776C37.2094 61.108 33.7368 63.6668 29.8987 63.6668C26.0607 63.6668 22.5881 61.108 20.8702 56.9776C20.6143 56.3927 20.1391 55.9175 19.5543 55.6982C18.5308 55.3327 17.7997 54.1264 17.7997 52.8105ZM24.0868 68.1262C25.951 68.7476 27.8883 69.0766 29.8257 69.0766H29.8622C31.8361 69.0766 33.8099 68.7476 35.6741 68.1262C35.601 68.967 35.4183 69.8077 35.1989 70.6119C35.0527 71.1602 35.3452 71.7084 35.8934 71.8546C36.0031 71.8912 36.0762 71.8912 36.1859 71.8912C36.6245 71.8912 37.0266 71.5988 37.1728 71.1602C37.5018 70.0636 37.6845 68.967 37.7576 67.8704H44.191L31.434 77.3011C31.3243 77.4107 31.2147 77.5204 31.1416 77.63H28.9484C27.998 76.7528 24.5986 73.2437 24.0868 68.1262ZM50.6974 65.6041L66.7442 77.4473L65.538 77.63C65.0262 77.7031 64.6607 78.1418 64.6607 78.6535V94.2617H36.7342V78.6535C36.7342 78.1418 36.3686 77.7397 35.8569 77.63L34.6506 77.4473L50.6974 65.6041Z" fill="#929292"/>
<path d="M19.5534 55.7348C20.1382 55.9541 20.6134 56.3927 20.8693 57.0141C22.5873 61.1446 26.0598 63.7033 29.8979 63.7033C33.736 63.7033 37.2085 61.1446 38.9265 57.0141C39.1824 56.4293 39.6576 55.9541 40.2424 55.7348C41.2659 55.3692 41.997 54.163 41.997 52.8105C41.997 51.7139 41.5218 50.6904 40.7542 50.1787C39.1093 50.9097 36.7333 50.8366 34.2477 49.9959C31.0676 48.8993 28.4358 46.7793 26.9371 44.1474C26.2426 46.3041 24.9632 48.9724 22.77 50.0325C21.6369 50.5808 20.3575 50.6173 19.0782 50.1787C18.3106 50.727 17.7988 51.7139 17.7988 52.8471C17.7988 54.1264 18.5299 55.3327 19.5534 55.7348Z" fill="white"/>
<path d="M34.6885 94.7736V79.6772H28.5841H20.8714C20.5059 79.6772 20.25 79.9696 20.25 80.2986V95.2853H34.8346C34.725 95.1391 34.6885 94.9563 34.6885 94.7736ZM25.1481 83.6249C25.1481 82.7842 25.8426 82.0897 26.6833 82.0897H32.3125C32.8608 82.0897 33.336 82.5283 33.336 83.1131C33.336 83.6614 32.8974 84.1366 32.3125 84.1366H27.1585V85.8181H32.3125C32.8608 85.8181 33.336 86.2567 33.336 86.8416C33.336 87.4264 32.8974 87.865 32.3125 87.865H26.6833C25.8426 87.865 25.1481 87.1706 25.1481 86.3298V83.6249ZM32.3491 92.2514H22.8818C22.3335 92.2514 21.8583 91.8128 21.8583 91.2279C21.8583 90.6796 22.297 90.2044 22.8818 90.2044H32.3125C32.8608 90.2044 33.336 90.6431 33.336 91.2279C33.336 91.7762 32.8974 92.2514 32.3491 92.2514Z" fill="white"/>
<path d="M26.6827 87.8286H32.3119C32.8602 87.8286 33.3354 87.39 33.3354 86.8052C33.3354 86.2203 32.8967 85.7817 32.3119 85.7817H27.1579V84.1002H32.3119C32.8602 84.1002 33.3354 83.6616 33.3354 83.0767C33.3354 82.5284 32.8967 82.0533 32.3119 82.0533H26.6827C25.842 82.0533 25.1475 82.7478 25.1475 83.5885V86.2569C25.1475 87.1341 25.842 87.8286 26.6827 87.8286Z" fill="#929292"/>
<path d="M32.3472 90.2042H22.8799C22.3317 90.2042 21.8564 90.6429 21.8564 91.2277C21.8564 91.776 22.2951 92.2512 22.8799 92.2512H32.3107C32.859 92.2512 33.3341 91.8126 33.3341 91.2277C33.3341 90.6794 32.8955 90.2042 32.3472 90.2042Z" fill="#929292"/>
<path d="M85.9347 81.249C85.8981 80.7007 85.4229 80.262 84.8746 80.262C84.3263 80.2986 83.8877 80.7738 83.8877 81.3221L84.5091 95.2853V95.3219C84.5456 95.8702 84.9843 96.3088 85.5326 96.3088H85.5691C86.1174 96.2723 86.5195 95.8336 86.5195 95.2853V95.2488L85.9347 81.249Z" fill="#929292"/>
<path d="M38.1224 21.4117C38.4879 21.6676 38.6341 22.1794 38.4879 22.5814L36.843 26.9678L42.8743 24.007C43.0936 23.8974 43.3495 23.8608 43.6053 23.9339C45.8351 24.5553 48.211 24.8843 50.6601 24.8843C53.1091 24.8843 55.5217 24.5553 57.7148 23.9339C57.9707 23.8608 58.2266 23.8974 58.4459 24.007L64.4772 26.9678L62.8323 22.5814C62.6861 22.1428 62.8323 21.6676 63.1978 21.4117C65.4641 19.7668 66.7069 17.7564 66.7069 15.7095C66.7069 13.3701 65.0985 11.1038 62.2108 9.34923C59.1404 7.52157 55.0464 6.49809 50.6601 6.49809C46.2737 6.49809 42.1798 7.52157 39.1093 9.34923C36.2216 11.1038 34.6133 13.3335 34.6133 15.7095C34.6133 17.7564 35.8561 19.7668 38.1224 21.4117ZM49.4904 9.56856H49.6732V8.65473C49.6732 8.10644 50.1118 7.63123 50.6966 7.63123C51.2449 7.63123 51.7201 8.06988 51.7201 8.65473V9.56856H51.9029C52.6705 9.56856 53.365 9.82442 53.9133 10.2631C54.4982 10.7748 54.8637 11.4693 54.8637 12.2004C54.8637 12.7487 54.425 13.2239 53.8402 13.2239C53.2919 13.2239 52.8167 12.7852 52.8167 12.2004C52.8167 12.0176 52.7071 11.9079 52.5974 11.8348C52.4146 11.6886 52.1588 11.579 51.8664 11.579H49.4904C48.9421 11.579 48.5766 11.9079 48.5766 12.2004V14.1742C48.5766 14.357 48.6862 14.4667 48.7959 14.5398C48.9787 14.686 49.2345 14.7956 49.5269 14.7956H51.9029C53.5478 14.7956 54.8637 15.9653 54.8637 17.4275V19.4013C54.8637 20.8634 53.5478 22.0331 51.9029 22.0331H51.7201V22.947C51.7201 23.4953 51.2815 23.9704 50.6966 23.9704C50.1483 23.9704 49.6732 23.5318 49.6732 22.947V22.0331H49.4904C47.8455 22.0331 46.5296 20.8634 46.5296 19.4013V19.3282C46.5296 18.7799 46.9682 18.3047 47.5531 18.3047C48.1379 18.3047 48.5766 18.7434 48.5766 19.3282V19.4013C48.5766 19.6937 48.9421 20.0227 49.4904 20.0227H51.8664C52.4146 20.0227 52.7802 19.6937 52.7802 19.4013V17.4275C52.7802 17.135 52.4146 16.8061 51.8664 16.8061H49.4904C48.7228 16.8061 48.0283 16.5502 47.48 16.1115C46.8951 15.5998 46.5296 14.9053 46.5296 14.1742V12.2004C46.5296 10.7748 47.8455 9.56856 49.4904 9.56856Z" fill="white"/>
<path d="M36.3328 22.5814L34.0665 28.6492C33.9202 29.0513 34.0299 29.4899 34.3224 29.7458C34.6148 30.0382 35.09 30.0747 35.4555 29.892L43.424 25.9808C45.7269 26.6022 48.1394 26.8946 50.6616 26.8946C53.1837 26.8946 55.6328 26.5657 57.8991 25.9808L65.8676 29.892C66.0138 29.9651 66.1601 30.0016 66.3063 30.0016C66.5621 30.0016 66.7814 29.9285 67.0008 29.7458C67.2932 29.4533 67.4029 29.0147 67.2566 28.6492L64.9903 22.5814C67.4028 20.6441 68.7188 18.2316 68.7188 15.7094C68.7188 12.6024 66.7815 9.75124 63.2358 7.63116C59.8729 5.62075 55.3769 4.48761 50.625 4.48761C45.8731 4.48761 41.4136 5.58419 38.0142 7.63116C34.4686 9.75124 32.5312 12.6389 32.5312 15.7094C32.6044 18.2316 33.9203 20.6441 36.3328 22.5814ZM39.1108 9.38573C42.1813 7.55808 46.2752 6.53457 50.6616 6.53457C55.0479 6.53457 59.1419 7.55808 62.2123 9.38573C65.1 11.1403 66.7084 13.37 66.7084 15.7459C66.7084 17.7929 65.4656 19.8033 63.1993 21.4482C62.8337 21.7041 62.6875 22.2158 62.8337 22.6179L64.4786 27.0043L58.4474 24.0435C58.2281 23.9338 57.9722 23.8973 57.7163 23.9704C55.4866 24.5918 53.1106 24.9208 50.6616 24.9208C48.2125 24.9208 45.8 24.5918 43.6068 23.9704C43.3509 23.8973 43.0951 23.9338 42.8757 24.0435L36.8445 27.0043L38.4894 22.6179C38.6356 22.1793 38.4894 21.7041 38.1238 21.4482C35.8576 19.8033 34.6148 17.7929 34.6148 15.7459C34.6148 13.37 36.2231 11.1037 39.1108 9.38573Z" fill="#929292"/>
<path d="M64.515 41.7352C64.6612 41.2234 65.1729 40.8944 65.7212 41.0041C65.7943 41.0041 65.8675 41.0406 65.9771 41.0772C68.7917 42.4662 71.9718 42.4662 74.7864 41.0772C74.8595 41.0406 74.9326 41.0041 75.0057 41.0041C75.554 40.8944 76.0658 41.2234 76.212 41.7352C76.9796 44.6594 77.93 45.427 80.7446 45.427C79.6114 38.9206 76.5044 36.2156 70.3635 36.2156C64.2226 36.2156 61.1156 38.9206 59.9824 45.427C62.797 45.427 63.7108 44.6594 64.515 41.7352Z" fill="#B8D4F7"/>
<path d="M80.4509 47.4374C77.2708 47.3643 75.5528 46.2312 74.5293 43.3801C71.7879 44.4036 68.827 44.4036 66.0855 43.3801C65.0621 46.2678 63.3441 47.4009 60.164 47.4374C59.3232 47.9492 58.8115 49.0823 58.8115 50.3251C58.8115 51.7142 59.506 52.9935 60.493 53.359C61.0778 53.5784 61.5164 54.0535 61.7723 54.6749C63.4172 58.9151 66.707 61.5835 70.3257 61.5835C73.9445 61.5835 77.2342 58.9517 78.8791 54.6749C79.0984 54.0535 79.5736 53.5784 80.1585 53.359C81.1454 52.957 81.8399 51.7142 81.8399 50.3251C81.8399 49.0823 81.2916 47.9492 80.4509 47.4374Z" fill="white"/>
<path d="M59.762 55.2963C59.7986 55.3328 59.8717 55.3694 59.8717 55.4425C61.809 60.4868 65.8298 63.6304 70.3259 63.6304C74.7488 63.6304 78.6965 60.5965 80.6704 55.7349C80.7069 55.6253 80.7435 55.5522 80.78 55.4425C80.8166 55.3694 80.8531 55.2963 80.8897 55.2963C82.6442 54.6018 83.8505 52.6279 83.8505 50.3616C83.8505 49.1919 83.5215 48.0953 82.9732 47.2181C82.5346 43.0145 81.5111 40.0537 79.7565 37.9701C77.673 35.448 74.566 34.2052 70.2893 34.2052C60.3103 34.2052 58.2633 41.1137 57.6419 47.2546C57.5688 47.3277 57.5323 47.4374 57.4957 47.5105C57.0571 48.3512 56.7646 49.3381 56.7646 50.3982C56.8012 52.5914 57.9709 54.5652 59.762 55.2963ZM70.3259 36.179C76.4668 36.179 79.5738 38.884 80.7069 45.3904C77.8923 45.3904 76.942 44.6228 76.1744 41.6985C76.0281 41.1868 75.5164 40.8578 74.9681 40.9675C74.895 40.9675 74.8219 41.004 74.7488 41.0406C71.9342 42.4296 68.7541 42.4296 65.9395 41.0406C65.8664 41.004 65.7933 40.9675 65.6836 40.9675C65.1719 40.8578 64.6236 41.1868 64.4774 41.6985C63.7098 44.6228 62.7594 45.3904 59.9448 45.3904C61.0779 38.884 64.185 36.179 70.3259 36.179ZM80.1586 53.3955C79.5738 53.6148 79.1351 54.09 78.8792 54.7114C77.2344 58.9516 73.9446 61.62 70.3259 61.62C66.7071 61.62 63.4173 58.9882 61.7724 54.7114C61.5531 54.09 61.0779 53.6148 60.4931 53.3955C59.5062 52.9934 58.8117 51.7506 58.8117 50.3616C58.8117 49.1188 59.3599 47.9857 60.1641 47.4739C63.3442 47.4008 65.0622 46.2677 66.0857 43.4165C68.8272 44.44 71.788 44.44 74.5295 43.4165C75.553 46.3042 77.2709 47.4374 80.451 47.4739C81.2918 47.9857 81.8035 49.1188 81.8035 50.3616C81.84 51.7506 81.1455 52.9934 80.1586 53.3955Z" fill="#929292"/>
<path d="M47.4435 16.1481C47.9918 16.6233 48.7229 16.8426 49.454 16.8426H51.8299C52.3782 16.8426 52.7437 17.1716 52.7437 17.464V19.4379C52.7437 19.7303 52.3782 20.0592 51.8299 20.0592H49.454C48.9057 20.0592 48.5401 19.7303 48.5401 19.4379V19.3647C48.5401 18.8165 48.1015 18.3413 47.5167 18.3413C46.9318 18.3413 46.4932 18.7799 46.4932 19.3647V19.4379C46.4932 20.9 47.8091 22.0697 49.454 22.0697H49.6367V22.9835C49.6367 23.5318 50.0754 24.007 50.6602 24.007C51.2085 24.007 51.6837 23.5683 51.6837 22.9835V22.0697H51.8665C53.5114 22.0697 54.8273 20.9 54.8273 19.4379V17.464C54.8273 16.0019 53.5114 14.8322 51.8665 14.8322H49.4905C49.1981 14.8322 48.9422 14.7591 48.7595 14.5763C48.6864 14.5032 48.5401 14.3935 48.5401 14.2108V12.2369C48.5401 11.9445 48.9057 11.6155 49.454 11.6155H51.8299C52.1223 11.6155 52.3782 11.6886 52.561 11.8714C52.6341 11.9445 52.7803 12.0541 52.7803 12.2369C52.7803 12.7852 53.2189 13.2604 53.8038 13.2604C54.3521 13.2604 54.8273 12.8218 54.8273 12.2369C54.8273 11.5058 54.4983 10.8113 53.8769 10.2996C53.3286 9.82441 52.5976 9.60508 51.8665 9.60508H51.6837V8.69125C51.6837 8.14296 51.2451 7.66777 50.6602 7.66777C50.1119 7.66777 49.6367 8.1064 49.6367 8.69125V9.60508H49.454C47.8091 9.60508 46.4932 10.7748 46.4932 12.2369V14.2108C46.5297 14.9418 46.8587 15.6363 47.4435 16.1481Z" fill="#929292"/>
<path d="M34.6133 77.4838L35.8195 77.6665C36.3313 77.7396 36.6968 78.1783 36.6968 78.69V94.2982H64.6233V78.69C64.6233 78.1783 64.9889 77.7762 65.5006 77.6665L66.7069 77.4838L50.6601 65.6406L34.6133 77.4838ZM54.5712 77.8858C55.412 77.8858 56.1065 78.5804 56.1065 79.4211V87.2069C56.1065 88.0476 55.412 88.7421 54.5712 88.7421H46.7855C45.9447 88.7421 45.2502 88.0476 45.2502 87.2069V79.4211C45.2502 78.5804 45.9447 77.8858 46.7855 77.8858H54.5712Z" fill="white"/>
<path d="M54.0972 79.9332H47.2617V86.7686H54.0972V79.9332Z" fill="white"/>
<path d="M46.7862 77.886C45.9455 77.886 45.251 78.5805 45.251 79.4212V87.207C45.251 88.0477 45.9455 88.7422 46.7862 88.7422H54.572C55.4127 88.7422 56.1073 88.0477 56.1073 87.207V79.4212C56.1073 78.5805 55.4127 77.886 54.572 77.886H46.7862ZM54.0968 86.7318H47.2614V79.8964H54.0968V86.7318Z" fill="#929292"/>
</svg>