<svg width="101" height="101" viewBox="0 0 101 101" fill="none" xmlns="http://www.w3.org/2000/svg">
<path d="M83.6628 65.081L66.4184 47.7945C65.5731 49.4428 63.9248 50.5417 61.9383 50.5417C59.9941 50.5417 58.3035 49.4006 57.4582 47.7945L40.2139 65.081H83.6628Z" fill="white"/>
<path d="M17.5587 26.7463H17.5164C15.1918 26.7463 13.0362 27.2957 11.092 28.2256V31.1419C11.092 33.0861 11.9796 34.7767 13.3321 35.9601L13.5857 34.6922C13.2898 34.6499 13.0363 34.4808 12.8672 34.2272C12.4868 33.6778 12.6136 32.9593 13.163 32.5789C14.3465 31.7758 15.699 31.3532 17.136 31.3532C20.9822 31.3532 24.0675 34.4808 24.0675 38.2847C24.0675 42.0886 20.9399 45.2163 17.136 45.2163C14.7269 45.2163 12.4445 43.9483 11.1766 41.8773C10.8385 41.3278 11.0075 40.6093 11.5569 40.2712C11.8105 40.1021 12.1486 40.0599 12.4022 40.1444L12.7404 38.496C10.289 36.9322 8.68291 34.2272 8.68291 31.1841V29.6626C5.00582 32.3675 2.59668 36.7632 2.59668 41.7082V47.9212C2.59668 54.4301 6.99226 60.305 13.2475 62.1647C13.7547 62.3337 14.0929 62.7564 14.0929 63.3058V75.4783C14.0929 76.1123 13.5857 76.6618 12.9095 76.6618H7.54171C6.90773 76.6618 6.40057 77.1689 6.40057 77.8029C6.40057 78.4369 6.90773 78.944 7.54171 78.944H12.9095C13.5434 78.944 14.0929 79.4512 14.0929 80.1275V84.7344C14.0929 85.3684 13.5857 85.9178 12.9095 85.9178H8.68291C7.41495 85.9178 6.40057 86.9322 6.40057 88.2002C6.40057 89.4681 7.41495 90.4825 8.68291 90.4825H12.9095C13.5434 90.4825 14.0929 90.9897 14.0929 91.666V94.7513C14.0929 96.6533 15.6145 98.1748 17.5164 98.1748C19.4183 98.1748 20.9399 96.6533 20.9399 94.7513V63.3481C20.9399 62.841 21.278 62.376 21.7852 62.2069C28.0405 60.305 32.4361 54.4724 32.4361 47.9635V41.666C32.4361 33.4665 25.7581 26.7463 17.5587 26.7463Z" fill="#B8D4F7"/>
<path d="M96.8078 35.9607C98.9211 35.9607 100.654 34.2278 100.654 32.0723V23.7883C100.654 22.2244 99.7241 20.8297 98.3294 20.238L95.3285 18.9277V3.205C95.3285 1.72571 94.1028 0.5 92.6235 0.5H84.9735C83.4942 0.5 82.2685 1.72571 82.2685 3.205V13.3487L73.9422 9.75614L54.7115 1.51438C53.528 1.0072 52.1332 1.13399 51.0766 1.8525C49.9777 2.57101 49.3437 3.79671 49.3437 5.10694V5.36052C49.3437 6.92435 50.2736 8.31911 51.7106 8.91083L52.4291 9.20669V16.8145L29.479 29.156C26.3936 26.2397 22.2093 24.4222 17.6447 24.4222H17.6024C15.3201 24.4222 13.1645 24.8872 11.1781 25.6902V18.6319C11.1781 15.1238 14.0944 12.2498 17.6447 12.2498C21.2372 12.2498 24.1113 15.1238 24.1113 18.6319V24.0841C24.1113 24.7181 24.6184 25.2676 25.2947 25.2676C25.9709 25.2676 26.4781 24.7604 26.4781 24.0841V18.6319C26.4781 13.8136 22.5052 9.92521 17.6447 9.92521C12.7841 9.92521 8.81117 13.8136 8.81117 18.6319V26.8736C3.78158 29.8745 0.400391 35.4112 0.400391 41.7088V47.9218C0.400391 55.1492 5.09183 61.7003 11.8966 64.1517V74.2954H7.71228C5.81033 74.2954 4.24653 75.8593 4.24653 77.7612C4.24653 79.6632 5.81033 81.227 7.71228 81.227H8.304H11.8966V83.4671H8.85348C6.31755 83.4671 4.24653 85.5381 4.24653 88.1163C4.24653 90.6945 6.31755 92.7655 8.85348 92.7655H11.8966V94.6674C11.8966 97.8373 14.4747 100.458 17.6447 100.458C20.8146 100.458 23.435 97.8796 23.435 94.6674V79.4941V64.1095C30.2398 61.6581 34.9312 55.107 34.9312 47.8796V41.6665C34.9312 37.6091 33.5365 33.8897 31.1696 30.9311L52.4714 19.4772V43.9911C52.4714 44.6251 52.9786 45.1746 53.6548 45.1746C54.3311 45.1746 54.8382 44.6674 54.8382 43.9911V10.221L93.0462 26.3664V32.1146C93.0462 32.2414 93.0462 32.3681 93.0462 32.4949V65.0816H87.0868L67.0107 44.9632C66.7148 42.4696 64.6015 40.5254 62.0234 40.5254C59.4452 40.5254 57.3319 42.4696 57.0361 44.9632L36.96 65.0816H26.0132C25.3792 65.0816 24.8298 65.5888 24.8298 66.265C24.8298 66.9412 25.337 67.4484 26.0132 67.4484H86.5796H96.4697C97.5263 67.4484 98.3716 68.2938 98.3716 69.3504V96.2312C98.3716 97.2878 97.5263 98.1331 96.4697 98.1331H25.2947H25.2524C24.6185 98.1331 24.069 98.6404 24.069 99.3166C24.069 99.9506 24.5762 100.5 25.2524 100.5H96.4274C98.752 100.5 100.654 98.5981 100.654 96.2735V69.3927C100.654 67.0681 98.752 65.1661 96.4274 65.1661H95.2863V35.7494C95.7512 35.8339 96.2584 35.9607 96.8078 35.9607ZM51.6261 5.36052V5.10694C51.6261 4.59976 51.8797 4.13484 52.3023 3.83898C52.5559 3.66992 52.8518 3.5854 53.1476 3.5854C53.3589 3.5854 53.5703 3.62766 53.7393 3.71219L82.9025 16.2227C83.2829 16.3918 83.6633 16.3495 84.0014 16.1382C84.3395 15.9269 84.5086 15.5465 84.5086 15.1661V3.205C84.5086 2.99367 84.6776 2.8246 84.8467 2.8246H92.4967C92.708 2.8246 92.8349 2.99367 92.8349 3.205V19.7308C92.8349 20.1957 93.1307 20.6184 93.5534 20.8297L97.2727 22.4358C97.8222 22.6894 98.2025 23.2388 98.2025 23.8305V32.1146C98.2025 32.9599 97.5263 33.6361 96.681 33.6361C95.8357 33.6361 95.1595 32.9599 95.1595 32.1146V25.6057C95.1595 25.1408 94.8636 24.7181 94.441 24.5068L52.4714 6.7553C52.0065 6.54398 51.6261 5.99451 51.6261 5.36052ZM32.4376 47.9218C32.4376 54.4307 28.042 60.2633 21.7867 62.1653C21.2795 62.3343 20.9414 62.757 20.9414 63.3064V94.7097C20.9414 96.6116 19.4198 98.1331 17.5179 98.1331C15.6159 98.1331 14.0943 96.6116 14.0943 94.7097V91.6243C14.0943 90.9903 13.5872 90.4409 12.9109 90.4409H8.6844C7.41644 90.4409 6.40206 89.4265 6.40206 88.1585C6.40206 86.8905 7.41644 85.8762 8.6844 85.8762H12.9109C13.5449 85.8762 14.0943 85.369 14.0943 84.6928V80.0858C14.0943 79.4518 13.5872 78.9024 12.9109 78.9024H7.54321C6.90922 78.9024 6.40206 78.3952 6.40206 77.7612C6.40206 77.1272 6.90922 76.62 7.54321 76.62H12.9109C13.5449 76.62 14.0943 76.1129 14.0943 75.4366V63.2642C14.0943 62.757 13.7562 62.2921 13.249 62.123C6.99376 60.2633 2.59817 54.3884 2.59817 47.8796V41.6665C2.59817 36.7215 5.00731 32.3681 8.6844 29.6209V31.1424C8.6844 34.2278 10.2905 36.9328 12.7419 38.4544C14.1366 39.3419 15.7427 39.8491 17.5179 39.8491C18.5323 39.8491 19.5044 39.6801 20.4765 39.3419C21.0682 39.1306 21.4063 38.4544 21.195 37.8627C20.9836 37.2287 20.3074 36.9328 19.7157 37.1441C19.0394 37.3977 18.2787 37.5245 17.5601 37.5245C15.9541 37.5245 14.4748 36.9328 13.3336 36.003C11.9388 34.8195 11.0935 33.1289 11.0935 31.1847V28.2684C13.0377 27.3386 15.2356 26.7891 17.5179 26.7891H17.5601C25.7596 26.7891 32.4376 33.5093 32.4376 41.7088V47.9218ZM64.6015 45.555C64.6015 47.0343 63.4181 48.2177 61.9388 48.2177C60.4596 48.2177 59.2761 47.0343 59.2761 45.555C59.2761 44.0757 60.4596 42.8922 61.9388 42.8922C63.4181 42.8922 64.6015 44.0757 64.6015 45.555ZM61.9388 50.5423C63.8831 50.5423 65.5737 49.4011 66.419 47.795L83.6633 65.0816H40.2144L57.4587 47.795C58.304 49.4011 59.9946 50.5423 61.9388 50.5423Z" fill="#929292"/>
<path d="M79.943 38.2008V31.6919C79.943 28.0994 77.0266 25.2253 73.4763 25.2253C69.8838 25.2253 67.0098 28.1416 67.0098 31.6919V38.2008H79.943Z" fill="#B8D4F7"/>
<path d="M65.7831 40.5673H81.0831C81.7171 40.5673 82.2666 40.0601 82.2666 39.3839V31.6916C82.2666 26.8311 78.2936 22.8581 73.4331 22.8581C68.5726 22.8581 64.5996 26.8311 64.5996 31.6916V39.3839C64.5996 40.0601 65.1491 40.5673 65.7831 40.5673ZM66.9665 31.6916C66.9665 28.099 69.8828 25.225 73.4331 25.225C77.0257 25.225 79.8997 28.1413 79.8997 31.6916V38.2005H66.9242V31.6916H66.9665Z" fill="#929292"/>
<path d="M98.3282 96.1884V69.3076C98.3282 68.251 97.4829 67.4057 96.4263 67.4057H86.5362H25.9698C25.3359 67.4057 24.7864 66.8985 24.7864 66.2222C24.7864 65.546 25.2936 65.0388 25.9698 65.0388H36.9165L56.9926 44.9205C57.2885 42.4268 59.4018 40.4826 61.98 40.4826C64.5582 40.4826 66.6714 42.4268 66.9673 44.9205L87.0434 65.0388H93.0028V32.4522C93.0028 32.3254 93.0028 32.1986 93.0028 32.0718V26.3237L54.7948 10.1783V43.9484C54.7948 44.5824 54.2876 45.1318 53.6114 45.1318C52.9351 45.1318 52.428 44.6246 52.428 43.9484V19.4344L31.1262 30.8883C33.4931 33.8469 34.8878 37.5663 34.8878 41.6238V47.8368C34.8878 55.0642 30.1963 61.6153 23.3916 64.0667V79.4513H25.7585L25.3359 98.0481H96.4263C97.4407 98.0904 98.3282 97.2451 98.3282 96.1884ZM64.6004 31.6914C64.6004 26.8309 68.5734 22.8579 73.4339 22.8579C78.2944 22.8579 82.2674 26.8309 82.2674 31.6914V39.3837C82.2674 40.0177 81.7602 40.5671 81.0839 40.5671H65.7838C65.1499 40.5671 64.6004 40.0599 64.6004 39.3837V31.6914ZM42.8337 86.1715V92.0887C42.8337 92.7227 42.3265 93.2721 41.6503 93.2721C41.0163 93.2721 40.4668 92.765 40.4668 92.0887V86.1715C40.4668 85.7489 39.8329 85.2839 38.9876 85.2839H30.9994V92.0887C30.9994 92.7227 30.4922 93.2721 29.816 93.2721C29.1397 93.2721 28.6325 92.765 28.6325 92.0887V84.1005V76.1124C28.6325 75.4784 29.1397 74.9289 29.816 74.9289H39.2834C41.2277 74.9289 42.7914 76.4927 42.7914 78.437V81.7337C42.7914 82.6213 42.4533 83.4243 41.9039 84.0583C42.4956 84.65 42.8337 85.3685 42.8337 86.1715ZM58.8101 93.2721H46.9757C46.3418 93.2721 45.7923 92.765 45.7923 92.0887V76.1124C45.7923 75.4784 46.2995 74.9289 46.9757 74.9289H58.8101C59.444 74.9289 59.9935 75.4361 59.9935 76.1124C59.9935 76.7886 59.4863 77.2958 58.8101 77.2958H48.1592V82.9171H54.499C55.133 82.9171 55.6824 83.4243 55.6824 84.1005C55.6824 84.7345 55.1752 85.2839 54.499 85.2839H48.1592V90.9053H58.8101C59.444 90.9053 59.9935 91.4125 59.9935 92.0887C59.9935 92.765 59.444 93.2721 58.8101 93.2721ZM76.7306 93.2299C76.6038 93.2721 76.477 93.3144 76.3502 93.3144C76.0121 93.3144 75.674 93.1453 75.4204 92.8495L64.9385 79.5358V92.131C64.9385 92.7649 64.4313 93.3144 63.7551 93.3144C63.0788 93.3144 62.5717 92.8072 62.5717 92.131V76.1546C62.5717 75.6474 62.9098 75.2248 63.3747 75.0557C63.8397 74.8867 64.3891 75.0557 64.685 75.4361L75.1668 88.7497V76.1546C75.1668 75.5206 75.674 74.9712 76.3502 74.9712C77.0265 74.9712 77.5337 75.4784 77.5337 76.1546V92.131C77.5337 92.5959 77.1955 93.0608 76.7306 93.2299ZM87.2547 93.2721C86.6207 93.2721 86.0713 92.765 86.0713 92.0887V77.2958H80.3654C79.7314 77.2958 79.182 76.7886 79.182 76.1124C79.182 75.4361 79.6892 74.9289 80.3654 74.9289H94.0594C94.6934 74.9289 95.2428 75.4361 95.2428 76.1124C95.2428 76.7886 94.7357 77.2958 94.0594 77.2958H88.3959V92.0887C88.3959 92.765 87.8887 93.2721 87.2547 93.2721Z" fill="white"/>
<path d="M59.3174 45.5543C59.3174 47.0336 60.5008 48.217 61.9801 48.217C63.4594 48.217 64.6429 47.0336 64.6429 45.5543C64.6429 44.075 63.4594 42.8916 61.9801 42.8916C60.5008 42.8916 59.3174 44.075 59.3174 45.5543Z" fill="white"/>
<path d="M13.1634 40.652C14.0087 42.0468 15.488 42.8921 17.0941 42.8921C19.63 42.8921 21.701 40.8211 21.701 38.3274C21.701 35.7915 19.63 33.7627 17.0941 33.7627C16.1643 33.7627 15.2344 34.0586 14.4736 34.5658C14.1778 34.7771 13.8819 34.8194 13.5438 34.7348L13.2902 36.0028C14.4314 36.9749 15.9107 37.5244 17.5168 37.5244C18.2775 37.5244 18.996 37.3976 19.6723 37.144C20.3063 36.9326 20.9403 37.2708 21.1516 37.8625C21.3629 38.4965 21.0248 39.1305 20.433 39.3418C19.5032 39.6799 18.4888 39.849 17.4745 39.849C15.7416 39.849 14.0933 39.3418 12.6985 38.4542L12.3604 40.1026C12.7407 40.1871 12.9943 40.3561 13.1634 40.652Z" fill="white"/>
<path d="M14.5157 34.5233C15.2764 33.9739 16.2063 33.7203 17.1362 33.7203C19.6721 33.7203 21.7431 35.7913 21.7431 38.285C21.7431 40.8209 19.6721 42.8496 17.1362 42.8496C15.4878 42.8496 14.0508 42.0043 13.2055 40.6096C13.0364 40.3137 12.7406 40.1447 12.4447 40.0601C12.1488 40.0179 11.853 40.0601 11.5994 40.1869C11.0499 40.525 10.8809 41.2435 11.219 41.793C12.487 43.864 14.7693 45.132 17.1784 45.132C21.0246 45.132 24.11 42.0043 24.11 38.2004C24.11 34.3965 20.9823 31.2689 17.1784 31.2689C15.7414 31.2689 14.3889 31.6916 13.2055 32.4946C12.656 32.875 12.5292 33.5935 12.9096 34.143C13.0787 34.3966 13.3322 34.5656 13.6281 34.6079C13.8817 34.7769 14.2198 34.7347 14.5157 34.5233Z" fill="#929292"/>
<path d="M40.4668 78.4373C40.4668 77.8033 39.9596 77.2539 39.2834 77.2539H30.957V82.8752H38.9452H39.241C39.875 82.8752 40.4245 82.368 40.4245 81.6917V78.4373H40.4668Z" fill="white"/>
<path d="M42.8347 78.4373C42.8347 76.4931 41.2709 74.9293 39.3267 74.9293H29.8592C29.2253 74.9293 28.6758 75.4365 28.6758 76.1127V84.1009V92.0891C28.6758 92.723 29.183 93.2725 29.8592 93.2725C30.5355 93.2725 31.0427 92.7653 31.0427 92.0891V85.2843H39.0308C39.8761 85.2843 40.5101 85.7493 40.5101 86.1719V92.0891C40.5101 92.723 41.0173 93.2725 41.6936 93.2725C42.3275 93.2725 42.877 92.7653 42.877 92.0891V86.1719C42.877 85.3689 42.5388 84.6503 41.9894 84.1009C42.5388 83.4669 42.877 82.6639 42.877 81.7763V78.4373H42.8347ZM39.3267 82.9174H39.0308H31.0427V77.2962H39.369C40.0029 77.2962 40.5524 77.8033 40.5524 78.4796V81.7763C40.4679 82.4103 39.9607 82.9174 39.3267 82.9174Z" fill="#929292"/>
<path d="M58.8107 90.9056H48.1599V85.2843H54.4997C55.1337 85.2843 55.6831 84.7771 55.6831 84.1009C55.6831 83.4669 55.1759 82.9174 54.4997 82.9174H48.1599V77.2962H58.8107C59.4447 77.2962 59.9942 76.789 59.9942 76.1127C59.9942 75.4365 59.487 74.9293 58.8107 74.9293H46.9764C46.3424 74.9293 45.793 75.4365 45.793 76.1127V92.0891C45.793 92.723 46.3002 93.2725 46.9764 93.2725H58.8107C59.4447 93.2725 59.9942 92.7653 59.9942 92.0891C59.9942 91.4128 59.4447 90.9056 58.8107 90.9056Z" fill="#929292"/>
<path d="M77.5333 76.1127C77.5333 75.4787 77.0261 74.9293 76.3498 74.9293C75.6736 74.9293 75.1664 75.4365 75.1664 76.1127V88.7078L64.6846 75.3942C64.3887 75.0138 63.8393 74.8448 63.3743 75.0138C62.9094 75.1829 62.5713 75.6055 62.5713 76.1127V92.0891C62.5713 92.723 63.0784 93.2725 63.7547 93.2725C64.4309 93.2725 64.9381 92.7653 64.9381 92.0891V79.4939L75.42 92.8076C75.6313 93.1034 75.9694 93.2725 76.3498 93.2725C76.4766 93.2725 76.6034 93.2725 76.7302 93.188C77.1951 93.0189 77.5333 92.5962 77.5333 92.0891V76.1127Z" fill="#929292"/>
<path d="M88.3965 77.2962H94.0601C94.6941 77.2962 95.2435 76.789 95.2435 76.1127C95.2435 75.4365 94.7363 74.9293 94.0601 74.9293H80.3661C79.7321 74.9293 79.1826 75.4365 79.1826 76.1127C79.1826 76.789 79.6898 77.2962 80.3661 77.2962H86.0296V92.0891C86.0296 92.723 86.5368 93.2725 87.213 93.2725C87.8893 93.2725 88.3965 92.7653 88.3965 92.0891V77.2962Z" fill="#929292"/>
</svg>