<svg width="54" height="24" viewBox="0 0 54 24" fill="none" xmlns="http://www.w3.org/2000/svg">
<path d="M3.75272 9.59705C3.75272 9.01857 4.22738 8.79607 5.01352 8.79607C6.14082 8.79607 7.56478 9.13723 8.69208 9.74538V6.25965C7.46095 5.77016 6.24465 5.57733 5.01352 5.57733C2.00244 5.57733 0 7.14962 0 9.77504C0 13.8689 5.6365 13.2163 5.6365 14.9814C5.6365 15.6637 5.04319 15.8862 4.21254 15.8862C2.98141 15.8862 1.40913 15.3819 0.163162 14.6996V18.2298C1.54262 18.8231 2.93691 19.0753 4.21254 19.0753C7.29779 19.0753 9.41889 17.5475 9.41889 14.8924C9.40406 10.4722 3.75272 11.2583 3.75272 9.59705ZM13.7798 2.61075L10.1605 3.38206L10.1457 15.2632C10.1457 17.4585 11.7922 19.0753 13.9874 19.0753C15.2037 19.0753 16.0937 18.8528 16.5832 18.5858V15.5747C16.1085 15.7675 13.7649 16.4499 13.7649 14.2546V8.9889H16.5832V5.82949H13.7649L13.7798 2.61075ZM21.1962 6.92713L20.9589 5.82949H17.755V18.8083H21.4632V10.0124C22.3383 8.87024 23.8216 9.0779 24.2815 9.24106V5.82949C23.8068 5.6515 22.0714 5.32517 21.1962 6.92713ZM25.1863 5.82949H28.9093V18.8083H25.1863V5.82949ZM25.1863 4.70219L28.9093 3.90122V0.890137L25.1863 1.67628V4.70219ZM36.6521 5.57733C35.1985 5.57733 34.264 6.25965 33.7448 6.7343L33.552 5.81466H30.2888V23.1098L33.997 22.3237L34.0118 18.126C34.5458 18.5116 35.332 19.0604 36.6373 19.0604C39.2924 19.0604 41.7101 16.9245 41.7101 12.2225C41.6953 7.92093 39.2479 5.57733 36.6521 5.57733ZM35.7621 15.7972C34.887 15.7972 34.3678 15.4857 34.0118 15.1001L33.997 9.59705C34.3827 9.16689 34.9166 8.87024 35.7621 8.87024C37.1119 8.87024 38.0464 10.3832 38.0464 12.3263C38.0464 14.3139 37.1267 15.7972 35.7621 15.7972ZM53.3984 12.3708C53.3984 8.57358 51.5592 5.57733 48.0438 5.57733C44.5135 5.57733 42.3776 8.57358 42.3776 12.3411C42.3776 16.8058 44.8992 19.0604 48.5184 19.0604C50.2835 19.0604 51.6185 18.66 52.6271 18.0963V15.1297C51.6185 15.634 50.4615 15.9455 48.9931 15.9455C47.5543 15.9455 46.2786 15.4412 46.1155 13.6909H53.3688C53.3688 13.4981 53.3984 12.7268 53.3984 12.3708ZM46.071 10.9617C46.071 9.28556 47.0945 8.58841 48.0289 8.58841C48.9337 8.58841 49.8979 9.28556 49.8979 10.9617H46.071Z" fill="#6772E5"/>
</svg>
