<svg width="40" height="40" viewBox="0 0 40 40" fill="none" xmlns="http://www.w3.org/2000/svg">
<g clip-path="url(#clip0_11927_69174)">
<path fill-rule="evenodd" clip-rule="evenodd" d="M19.9984 35.2C29.7186 35.2 37.5984 27.3202 37.5984 17.6C37.5984 7.87979 29.7186 0 19.9984 0C10.2782 0 2.39844 7.87979 2.39844 17.6C2.39844 22.2253 4.18266 26.4339 7.10038 29.5751C7.53374 30.0416 7.79883 30.6457 7.79883 31.2824V37.0237C7.79883 38.8083 9.71537 39.9369 11.276 39.0713L17.7569 35.4766C18.1674 35.2489 18.6366 35.1543 19.1054 35.1777C19.4012 35.1925 19.699 35.2 19.9984 35.2Z" fill="#6FCF97"/>
<path fill-rule="evenodd" clip-rule="evenodd" d="M26.4538 11.2509C27.0738 11.7263 27.1921 12.6137 26.7184 13.2349L19.6879 22.4528C19.44 22.7778 19.0643 22.9798 18.6571 23.0069C18.2499 23.034 17.8508 22.8836 17.5623 22.5943L13.1 18.1203C12.5482 17.5669 12.5482 16.6714 13.1 16.1181C13.6539 15.5627 14.5535 15.5627 15.1074 16.1181L18.421 19.4404L24.4648 11.5161C24.9403 10.8927 25.8316 10.7739 26.4538 11.2509Z" fill="white"/>
</g>
<defs>
<clipPath id="clip0_11927_69174">
<rect width="40" height="40" fill="white"/>
</clipPath>
</defs>
</svg>
