<svg width="451" height="356" viewBox="0 0 451 356" fill="none" xmlns="http://www.w3.org/2000/svg">
<path d="M387.179 92.6416H59.3828V308.815H387.179V92.6416Z" fill="#EAF2FF"/>
<path d="M117.894 92.6411H64.5234V106.216H117.894V92.6411Z" fill="#FAFBFF"/>
<path d="M112.212 106.216H70.1797V119.79H112.212V106.216Z" fill="#D1D6DD"/>
<path d="M382.097 92.6411H328.727V106.216H382.097V92.6411Z" fill="#FAFBFF"/>
<path d="M376.407 106.216H334.375V119.79H376.407V106.216Z" fill="#D1D6DD"/>
<path d="M294.011 92.6411H240.641V106.216H294.011V92.6411Z" fill="#FAFBFF"/>
<path d="M288.337 106.216H246.305V119.79H288.337V106.216Z" fill="#D1D6DD"/>
<path d="M205.933 92.6411H152.562V106.216H205.933V92.6411Z" fill="#FAFBFF"/>
<path d="M200.274 106.216H158.242V119.79H200.274V106.216Z" fill="#D1D6DD"/>
<path d="M117.894 295.241H64.5234V308.816H117.894V295.241Z" fill="#FAFBFF"/>
<path d="M112.212 281.666H70.1797V295.241H112.212V281.666Z" fill="#D1D6DD"/>
<path d="M382.097 295.241H328.727V308.816H382.097V295.241Z" fill="#FAFBFF"/>
<path d="M376.407 281.666H334.375V295.241H376.407V281.666Z" fill="#D1D6DD"/>
<path d="M294.011 295.241H240.641V308.816H294.011V295.241Z" fill="#FAFBFF"/>
<path d="M288.337 281.666H246.305V295.241H288.337V281.666Z" fill="#D1D6DD"/>
<path d="M205.933 295.241H152.562V308.816H205.933V295.241Z" fill="#FAFBFF"/>
<path d="M200.274 281.666H158.242V295.241H200.274V281.666Z" fill="#D1D6DD"/>
<path d="M111.108 281.666H71.2891L77.5115 119.791H104.885L111.108 281.666Z" fill="white"/>
<path d="M199.178 281.666H159.359L165.582 119.791H192.956L199.178 281.666Z" fill="white"/>
<path d="M288.334 281.666H248.516L254.738 119.791H282.112L288.334 281.666Z" fill="white"/>
<path d="M375.295 281.666H335.477L341.699 119.791H369.073L375.295 281.666Z" fill="white"/>
<path d="M393.351 83.2327H53.2578V92.6414H393.351V83.2327Z" fill="#D1D6DD"/>
<path d="M399.062 67.5044H47.5078V83.2328H399.062V67.5044Z" fill="#EAF2FF"/>
<path d="M397.414 308.815H45.8594V324.543H397.414V308.815Z" fill="#A3AEBB"/>
<path d="M409.444 324.543H33.8359V340.272H409.444V324.543Z" fill="#EAF2FF"/>
<path d="M425.648 340.272H17.625V356H425.648V340.272Z" fill="#D1D6DD"/>
<path d="M65.4453 67.3629L223.318 0L381.165 67.3629H65.4453Z" fill="#A3AEBB"/>
<path d="M117.523 56.2539L223.305 11.1091L329.061 56.2539H117.523Z" fill="#D1D6DD"/>
<path d="M202.438 44.9749C202.438 46.1369 202.217 47.1004 201.749 47.8656C201.282 48.6307 200.667 49.2259 199.856 49.6793C199.044 50.1327 198.11 50.4445 197.003 50.6145C195.896 50.7845 194.691 50.8695 193.412 50.8695C192.379 50.8695 191.469 50.8412 190.633 50.7562C189.821 50.6712 188.936 50.5862 187.977 50.5011V31.4854C188.69 31.372 189.501 31.287 190.338 31.2303C191.198 31.1736 192.207 31.1169 193.338 31.1169C194.42 31.1169 195.429 31.202 196.388 31.372C197.323 31.542 198.159 31.8254 198.872 32.2222C199.585 32.6189 200.126 33.1574 200.544 33.8092C200.962 34.461 201.159 35.3112 201.159 36.3314C201.159 37.1533 200.962 37.9184 200.569 38.5986C200.175 39.2787 199.659 39.8172 199.044 40.1856C199.487 40.3556 199.905 40.554 200.323 40.809C200.741 41.0641 201.085 41.3758 201.405 41.7726C201.725 42.141 201.971 42.6228 202.168 43.1329C202.34 43.6713 202.438 44.2948 202.438 44.9749ZM192.92 38.7686H193.732C194.543 38.7686 195.183 38.6269 195.65 38.3152C196.117 38.0034 196.339 37.465 196.339 36.6998C196.339 36.3314 196.265 36.0197 196.093 35.7646C195.921 35.5096 195.724 35.3112 195.478 35.1695C195.232 35.0278 194.961 34.9428 194.642 34.8861C194.347 34.8294 194.051 34.8011 193.756 34.8011C193.633 34.8011 193.51 34.8011 193.338 34.8011C193.166 34.8011 193.043 34.8011 192.92 34.8294V38.7686ZM192.92 42.5378V47.0154C193.043 47.0437 193.215 47.0437 193.412 47.0437C193.609 47.0437 193.879 47.0437 194.199 47.0437C194.568 47.0437 194.937 47.0154 195.306 46.9304C195.675 46.8737 196.019 46.732 196.314 46.5619C196.609 46.3919 196.855 46.1652 197.052 45.8818C197.224 45.5984 197.322 45.23 197.322 44.7766C197.322 43.9264 197.027 43.3312 196.412 43.0195C195.822 42.6794 195.035 42.5378 194.076 42.5378H192.92Z" fill="#EAF2FF"/>
<path d="M208.412 50.5293C207.97 50.586 207.576 50.6427 207.207 50.6994C206.838 50.7277 206.494 50.7561 206.15 50.7561C205.805 50.7561 205.412 50.7277 204.969 50.6994C204.526 50.6427 204.01 50.586 203.469 50.501L203.567 48.6022L209.863 31.5136C210.355 31.4569 210.823 31.4285 211.241 31.3719C211.659 31.3435 212.101 31.3152 212.544 31.3152C212.913 31.3152 213.307 31.3435 213.725 31.3719C214.143 31.4002 214.635 31.4569 215.2 31.5136L221.62 48.6306L221.521 50.5293C220.439 50.6994 219.48 50.7561 218.668 50.7561C218.299 50.7561 217.906 50.7277 217.537 50.6994C217.168 50.671 216.75 50.6143 216.307 50.5293L215.225 46.8452C214.684 46.9869 214.192 47.1003 213.7 47.1569C213.208 47.242 212.741 47.2703 212.249 47.2703C211.806 47.2703 211.364 47.242 210.896 47.1853C210.429 47.1286 209.962 47.0436 209.47 46.9019L208.412 50.5293ZM212.397 36.473L210.478 43.3028C210.798 43.3878 211.118 43.4728 211.388 43.5295C211.683 43.5862 211.978 43.6145 212.274 43.6145C212.593 43.6145 212.913 43.5862 213.233 43.5578C213.553 43.5012 213.872 43.4445 214.217 43.3595L212.397 36.473Z" fill="#EAF2FF"/>
<path d="M223.391 31.5134C223.809 31.4567 224.202 31.4 224.522 31.3433C224.866 31.315 225.186 31.2867 225.53 31.2867C225.875 31.2867 226.219 31.315 226.613 31.3433C226.981 31.4 227.301 31.4284 227.572 31.485L234.212 41.9139V31.485C234.704 31.4284 235.147 31.3717 235.565 31.315C235.958 31.2866 236.327 31.2583 236.647 31.2583C236.967 31.2583 237.311 31.2866 237.68 31.315C238.049 31.3433 238.418 31.4 238.811 31.485L238.787 50.4725C238.59 50.5291 238.32 50.5858 237.951 50.6425C237.582 50.6992 237.188 50.7275 236.77 50.7275C236.303 50.7275 235.86 50.6992 235.491 50.6425C235.098 50.5858 234.827 50.5291 234.655 50.5008L227.99 40.1286V50.5008C227.154 50.6708 226.391 50.7275 225.703 50.7275C225.014 50.7275 224.251 50.6425 223.391 50.5008V31.5134Z" fill="#EAF2FF"/>
<path d="M242.203 31.5136C242.72 31.4569 243.187 31.4002 243.605 31.3436C244.023 31.3152 244.392 31.2869 244.712 31.2869C245.056 31.2869 245.45 31.3152 245.868 31.3436C246.286 31.3719 246.753 31.4286 247.245 31.5136V50.501C246.237 50.6711 245.4 50.7277 244.736 50.7277C244.023 50.7277 243.187 50.6427 242.203 50.501V31.5136ZM253.246 40.6672L258.681 48.5739L258.583 50.4727C258.263 50.5577 257.821 50.6144 257.28 50.6427C256.739 50.6994 256.247 50.6994 255.804 50.6994C255.263 50.6994 254.722 50.6711 254.205 50.6427C253.689 50.586 253.246 50.5294 252.902 50.4727L247.663 40.8939L247.761 38.9952L252.484 31.4853C253.049 31.4002 253.541 31.3435 253.959 31.3152C254.377 31.2869 254.796 31.2869 255.238 31.2869C255.46 31.2869 255.681 31.2869 255.951 31.2869C256.222 31.2869 256.468 31.3152 256.738 31.3436C256.984 31.3719 257.968 29.5582 258.19 29.5865C258.214 30.21 258.116 30.9468 258.091 31.4853L253.246 40.6672Z" fill="#EAF2FF"/>
<path d="M202.548 43.076C202.548 44.2379 202.326 45.2015 201.859 45.9666C201.392 46.7318 200.777 47.3269 199.965 47.7804C199.153 48.2338 198.219 48.5455 197.112 48.7156C196.005 48.8856 194.8 48.9706 193.521 48.9706C192.488 48.9706 191.578 48.9423 190.742 48.8573C189.931 48.7722 189.045 48.6872 188.086 48.6022V29.5864C188.799 29.4731 189.611 29.388 190.447 29.3314C191.308 29.2747 192.316 29.218 193.448 29.218C194.53 29.218 195.538 29.303 196.497 29.4731C197.432 29.6431 198.268 29.9265 198.981 30.3232C199.695 30.72 200.236 31.2585 200.654 31.9103C201.072 32.5621 201.269 33.4122 201.269 34.4325C201.269 35.2543 201.072 36.0195 200.678 36.6996C200.285 37.3798 199.768 37.9182 199.153 38.2866C199.596 38.4567 200.014 38.655 200.432 38.9101C200.85 39.1652 201.195 39.4769 201.515 39.8736C201.834 40.2421 202.08 40.7238 202.277 41.2339C202.449 41.7724 202.548 42.3959 202.548 43.076ZM193.029 36.8413H193.841C194.653 36.8413 195.292 36.6996 195.759 36.3879C196.227 36.0762 196.448 35.5377 196.448 34.7725C196.448 34.4041 196.374 34.0924 196.202 33.8373C196.03 33.5823 195.833 33.3839 195.587 33.2422C195.341 33.1005 195.071 33.0155 194.751 32.9588C194.456 32.9021 194.161 32.8738 193.866 32.8738C193.743 32.8738 193.62 32.8738 193.448 32.8738C193.275 32.8738 193.152 32.8738 193.029 32.9021V36.8413ZM193.029 40.6388V45.1164C193.152 45.1448 193.325 45.1448 193.521 45.1448C193.718 45.1448 193.989 45.1448 194.308 45.1448C194.677 45.1448 195.046 45.1164 195.415 45.0314C195.784 44.9748 196.128 44.8331 196.423 44.663C196.719 44.493 196.965 44.2663 197.161 43.9829C197.333 43.6995 197.432 43.3311 197.432 42.8776C197.432 42.0274 197.137 41.4323 196.522 41.1206C195.932 40.7805 195.145 40.6388 194.185 40.6388H193.029Z" fill="#A3AEBB"/>
<path d="M208.522 48.6023C208.079 48.659 207.685 48.7157 207.316 48.7724C206.948 48.8007 206.603 48.829 206.259 48.829C205.915 48.829 205.521 48.8007 205.078 48.7724C204.636 48.7157 204.119 48.659 203.578 48.574L209.973 29.5866C210.465 29.5299 210.932 29.5015 211.35 29.4449C211.768 29.4165 212.211 29.3882 212.654 29.3882C213.022 29.3882 213.416 29.4165 213.834 29.4449C214.252 29.4732 214.744 29.5299 215.31 29.5866L221.631 48.6023C220.548 48.7724 219.589 48.829 218.778 48.829C218.409 48.829 218.015 48.8007 217.646 48.7724C217.277 48.744 216.859 48.6873 216.416 48.6023L215.334 44.9182C214.793 45.0599 214.301 45.1733 213.809 45.2299C213.318 45.315 212.85 45.3433 212.358 45.3433C211.916 45.3433 211.473 45.315 211.006 45.2583C210.538 45.2016 210.071 45.1166 209.579 44.9749L208.522 48.6023ZM212.506 34.5743L210.588 41.4041C210.907 41.4891 211.227 41.5742 211.498 41.6308C211.793 41.6875 212.088 41.7158 212.383 41.7158C212.703 41.7158 213.022 41.6875 213.342 41.6592C213.662 41.6025 213.982 41.5458 214.326 41.4608L212.506 34.5743Z" fill="#A3AEBB"/>
<path d="M223.5 29.5864C223.918 29.5297 224.312 29.473 224.631 29.4163C224.976 29.388 225.295 29.3596 225.64 29.3596C225.984 29.3596 226.328 29.388 226.722 29.4163C227.091 29.473 227.411 29.5013 227.681 29.558L234.322 39.9869V29.558C234.813 29.5013 235.256 29.4447 235.674 29.388C236.068 29.3596 236.437 29.3313 236.756 29.3313C237.076 29.3313 237.42 29.3596 237.789 29.388C238.158 29.4163 238.527 29.473 238.921 29.558L238.896 48.5454C238.699 48.6021 238.429 48.6588 238.06 48.7155C237.691 48.7722 237.298 48.8005 236.879 48.8005C236.412 48.8005 235.969 48.7722 235.6 48.7155C235.207 48.6588 234.936 48.6021 234.764 48.5738L228.099 38.2015V48.5738C227.263 48.7438 226.501 48.8005 225.812 48.8005C225.123 48.8005 224.361 48.7155 223.5 48.5738V29.5864Z" fill="#A3AEBB"/>
<path d="M242.312 29.5861C242.829 29.5294 243.296 29.4727 243.714 29.416C244.132 29.3877 244.501 29.3594 244.821 29.3594C245.165 29.3594 245.559 29.3877 245.977 29.416C246.395 29.4444 246.862 29.5011 247.354 29.5861V48.5735C246.346 48.7436 245.51 48.8002 244.846 48.8002C244.133 48.8002 243.296 48.7152 242.312 48.5735V29.5861ZM253.355 38.7681L258.692 48.5735C258.373 48.6585 257.93 48.7152 257.389 48.7435C256.848 48.8002 256.356 48.8002 255.913 48.8002C255.372 48.8002 254.831 48.7719 254.315 48.7435C253.798 48.6869 253.355 48.6302 253.011 48.5735L247.772 38.9948L252.593 29.5861C253.159 29.5011 253.651 29.4444 254.069 29.416C254.487 29.3877 254.905 29.3877 255.348 29.3877C255.569 29.3877 255.79 29.3877 256.061 29.3877C256.331 29.3877 256.577 29.4161 256.848 29.4444C257.094 29.4727 257.364 29.5011 257.586 29.5294C257.832 29.5577 258.028 29.5861 258.201 29.5861L253.355 38.7681Z" fill="#A3AEBB"/>
<circle cx="26.9868" cy="264.384" r="26.6821" fill="#EAF2FF"/>
<path d="M26.7654 264.148C30.243 264.148 33.0621 261.329 33.0621 257.852C33.0621 254.374 30.243 251.555 26.7654 251.555C23.2879 251.555 20.4688 254.374 20.4688 257.852C20.4688 261.329 23.2879 264.148 26.7654 264.148Z" stroke="#006FFD" stroke-width="2.83349" stroke-linecap="round" stroke-linejoin="round"/>
<path d="M16.3672 276.427C16.3672 271.727 20.8525 267.926 26.3747 267.926C27.4931 267.926 28.5766 268.084 29.5902 268.375" stroke="#006FFD" stroke-width="2.83349" stroke-linecap="round" stroke-linejoin="round"/>
<path d="M39.3481 271.704C39.3481 272.107 39.2977 272.497 39.197 272.875C39.0836 273.379 38.8822 273.87 38.6177 274.298C37.7488 275.759 36.1494 276.741 34.3108 276.741C33.0137 276.741 31.8425 276.25 30.9609 275.444C30.5831 275.117 30.2557 274.726 30.0038 274.298C29.5379 273.543 29.2734 272.649 29.2734 271.704C29.2734 270.344 29.815 269.097 30.6965 268.191C31.6158 267.246 32.9003 266.667 34.3108 266.667C35.7968 266.667 37.1443 267.309 38.051 268.342C38.8569 269.236 39.3481 270.42 39.3481 271.704Z" stroke="#006FFD" stroke-width="1.889" stroke-miterlimit="10" stroke-linecap="round" stroke-linejoin="round"/>
<path d="M35.6103 270.369L32.9531 273.027" stroke="#006FFD" stroke-width="1.889" stroke-miterlimit="10" stroke-linecap="round" stroke-linejoin="round"/>
<path d="M32.9844 270.395L35.6542 273.052" stroke="#006FFD" stroke-width="1.889" stroke-miterlimit="10" stroke-linecap="round" stroke-linejoin="round"/>
<circle cx="424.252" cy="110.707" r="26.6821" fill="#EAF2FF"/>
<path d="M424.493 110.564C428.08 110.564 430.987 107.657 430.987 104.07C430.987 100.484 428.08 97.5769 424.493 97.5769C420.907 97.5769 418 100.484 418 104.07C418 107.657 420.907 110.564 424.493 110.564Z" stroke="#006FFD" stroke-width="2.83349" stroke-linecap="round" stroke-linejoin="round"/>
<path d="M413.625 123.314C413.625 118.615 418.11 114.814 423.633 114.814C424.751 114.814 425.834 114.972 426.848 115.263" stroke="#006FFD" stroke-width="2.83349" stroke-linecap="round" stroke-linejoin="round"/>
<path d="M437.475 118.356C437.475 119.33 437.203 120.252 436.722 121.031C436.449 121.499 436.099 121.914 435.696 122.252C434.787 123.07 433.592 123.551 432.281 123.551C430.385 123.551 428.735 122.538 427.839 121.031C427.359 120.252 427.086 119.33 427.086 118.356C427.086 116.72 427.839 115.252 429.034 114.304C429.93 113.59 431.06 113.161 432.281 113.161C435.151 113.161 437.475 115.486 437.475 118.356Z" stroke="#006FFD" stroke-width="1.94803" stroke-miterlimit="10" stroke-linecap="round" stroke-linejoin="round"/>
<path d="M430.25 118.356L431.536 119.641L434.302 117.083" stroke="#006FFD" stroke-width="1.94803" stroke-linecap="round" stroke-linejoin="round"/>
</svg>
