<svg width="241" height="154" viewBox="0 0 241 154" fill="none" xmlns="http://www.w3.org/2000/svg">
<g opacity="0.3">
<path d="M95.0827 62.3304L94.6636 53.4688L50.8944 54.7261L48.2 54.8459L42.2723 69.4556L90.2927 68.0784L91.1908 64.1865L95.0827 62.3304Z" fill="#A3AEBB"/>
<path d="M94.5438 51.1332L98.0765 49.9956L98.9148 44.1278L102.148 43.8883L101.849 38.7988L56.8221 40.1161L50.8944 54.7258L94.6636 53.4684L94.5438 51.1332Z" fill="#A3AEBB"/>
<path d="M101.849 38.6196L104.902 37.1826L101.729 29.8178L103.585 27.1234L101.25 23.4111L61.9115 25.4469L55.9838 40.1165H56.8221L101.849 38.7992V38.6196Z" fill="#A3AEBB"/>
<path d="M97.2383 70.833L107.836 83.2872L101.31 86.3408L103.226 92.029L97.9568 95.4419L107.058 105.321L101.909 107.836L104.723 113.524L99.3938 115.141L103.825 119.692L99.6333 122.386L109.333 133.583L102.807 137.594L104.663 141.127L101.609 142.983L105.92 146.875L82.2095 147.594L70.1744 71.6713L97.2383 70.833Z" fill="#D1D6DD"/>
<path d="M97.127 67.8408L52.2381 69.1611L52.3261 72.1537L97.215 70.8333L97.127 67.8408Z" fill="#929292"/>
<path d="M95.8013 128.313L91.7896 120.05L93.8852 118.194L91.7297 116.817L95.2025 108.734L90.0532 92.807L92.2686 88.9749L89.8137 85.083L92.8075 81.5503L76.0423 71.4912L7.42462 73.527L9.10114 131.008L95.7414 128.433L95.8013 128.313Z" fill="white"/>
<path d="M86.76 61.9113L81.2514 57.7798L84.7841 52.2713L78.557 50.0559L95.0827 37.4221L90.7118 35.3264L97.1784 31.3147L92.8673 29.0395L101.25 23.4111L32.1533 25.4469L0.119751 70.713L7.36472 70.5334L66.8812 68.7371L86.76 61.9113Z" fill="#636464"/>
<path d="M93.9451 137.056L95.7414 128.434L9.10114 131.008L9.64002 149.689L92.6278 147.294L96.1605 140.588L93.9451 137.056Z" fill="#E1ECFB"/>
<path d="M77.1799 68.6768L66.8813 68.7366L7.36475 70.5329L7.42462 73.5267L76.0423 71.4909L77.1799 68.6768Z" fill="#929292"/>
<path d="M89.1604 144.483L19.7922 146.523L19.8767 149.396L89.2449 147.356L89.1604 144.483Z" fill="#929292"/>
<path d="M89.0995 141.549L19.7313 143.589L19.8158 146.462L89.184 144.421L89.0995 141.549Z" fill="#A3AEBB"/>
<path d="M88.9806 138.675L19.6123 140.716L19.6968 143.589L89.0651 141.548L88.9806 138.675Z" fill="#929292"/>
<path d="M88.9216 135.8L19.5533 137.841L19.6378 140.714L89.0061 138.673L88.9216 135.8Z" fill="#A3AEBB"/>
<path d="M88.8008 132.868L19.4325 134.908L19.517 137.781L88.8853 135.741L88.8008 132.868Z" fill="#929292"/>
<path d="M88.7417 129.993L19.3734 132.033L19.4579 134.906L88.8262 132.866L88.7417 129.993Z" fill="#A3AEBB"/>
<path d="M88.6808 127.058L19.3126 129.099L19.3971 131.972L88.7653 129.931L88.6808 127.058Z" fill="#929292"/>
<path d="M88.5618 124.185L19.1935 126.226L19.278 129.098L88.6463 127.058L88.5618 124.185Z" fill="#A3AEBB"/>
<path d="M88.501 121.25L19.1327 123.29L19.2172 126.163L88.5855 124.123L88.501 121.25Z" fill="#929292"/>
<path d="M88.3819 118.377L19.0137 120.417L19.0982 123.29L88.4664 121.25L88.3819 118.377Z" fill="#A3AEBB"/>
<path d="M88.3211 115.442L18.9528 117.482L19.0373 120.355L88.4056 118.315L88.3211 115.442Z" fill="#929292"/>
<path d="M88.2021 112.569L18.8339 114.609L18.9184 117.482L88.2866 115.442L88.2021 112.569Z" fill="#A3AEBB"/>
<path d="M88.143 109.694L18.7747 111.734L18.8592 114.607L88.2275 112.567L88.143 109.694Z" fill="#929292"/>
<path d="M88.0821 106.759L18.7139 108.8L18.7984 111.673L88.1666 109.632L88.0821 106.759Z" fill="#A3AEBB"/>
<path d="M87.9632 103.886L18.595 105.927L18.6795 108.8L88.0477 106.759L87.9632 103.886Z" fill="#929292"/>
<path d="M87.9023 100.952L18.5341 102.992L18.6186 105.865L87.9868 103.825L87.9023 100.952Z" fill="#A3AEBB"/>
<path d="M87.7834 98.0788L18.4151 100.119L18.4996 102.992L87.8679 100.952L87.7834 98.0788Z" fill="#929292"/>
<path d="M87.7225 95.1442L18.3542 97.1846L18.4387 100.057L87.807 98.0171L87.7225 95.1442Z" fill="#A3AEBB"/>
<path d="M21.6846 97.084L18.3329 97.1826L19.8686 149.373L23.2203 149.275L21.6846 97.084Z" fill="#A3AEBB"/>
<path d="M87.731 95.1671L84.3793 95.2656L85.914 147.456L89.2657 147.358L87.731 95.1671Z" fill="#A3AEBB"/>
<path d="M59.0375 146.456L49.8167 146.755C49.2179 146.755 48.679 146.276 48.679 145.677C48.679 145.079 49.158 144.54 49.7568 144.54L58.9776 144.24C59.5764 144.24 60.1153 144.719 60.1153 145.318C60.1153 145.917 59.6363 146.456 59.0375 146.456Z" fill="#A3AEBB"/>
<path d="M106.399 61.3125L165.137 13.8311L218.786 68.1983L213.517 153.821L101.13 146.935L106.399 61.3125Z" fill="white"/>
<path d="M214.638 135.125L102.286 128.235L101.142 146.881L213.495 153.771L214.638 135.125Z" fill="#E1ECFB"/>
<path d="M167.192 146.574L112.63 143.229L112.362 147.591L166.925 150.937L167.192 146.574Z" fill="#929292"/>
<path d="M161.933 141.865L118.367 139.193L118.099 143.556L161.666 146.228L161.933 141.865Z" fill="#636464"/>
<path d="M157.75 137.221L123.147 135.099L122.88 139.461L157.482 141.583L157.75 137.221Z" fill="#929292"/>
<path d="M157.55 84.6286L128.984 82.877L125.77 135.288L154.336 137.04L157.55 84.6286Z" fill="#636464"/>
<path d="M153.603 87.8425L132.507 86.5488L131.214 107.645L152.31 108.938L153.603 87.8425Z" fill="#A3AEBB"/>
<path d="M152.108 112.212L131.012 110.918L129.718 132.014L150.814 133.308L152.108 112.212Z" fill="#A3AEBB"/>
<path d="M154.3 110.71C154.24 111.848 153.222 112.746 152.085 112.686C150.947 112.626 150.049 111.609 150.109 110.471C150.168 109.333 151.186 108.435 152.324 108.495C153.522 108.555 154.36 109.573 154.3 110.71Z" fill="#EDEFF1"/>
<path d="M203.538 87.4308L167.084 85.1953L164.925 120.395L201.38 122.631L203.538 87.4308Z" fill="#636464"/>
<path d="M201.135 89.443L169.163 87.4824L167.272 118.32L199.244 120.28L201.135 89.443Z" fill="#E1ECFB"/>
<path d="M186.446 86.3834L184.175 86.2441L182.017 121.444L184.288 121.583L186.446 86.3834Z" fill="#636464"/>
<path d="M202.305 97.0307L202.444 94.7598L167.244 92.6006L167.105 94.8716L202.305 97.0307Z" fill="#636464"/>
<path d="M201.05 116.82L201.189 114.549L165.99 112.391L165.85 114.662L201.05 116.82Z" fill="#636464"/>
<path d="M172.66 63.8995C178.683 58.7313 179.375 49.659 174.207 43.6361C169.039 37.6131 159.967 36.9202 153.944 42.0884C147.921 47.2566 147.228 56.3289 152.396 62.3518C157.564 68.3748 166.637 69.0677 172.66 63.8995Z" fill="#636464"/>
<path d="M166.434 64.7463C172.92 63.0123 176.771 56.3493 175.037 49.864C173.304 43.3786 166.64 39.5269 160.155 41.2608C153.67 42.9947 149.818 49.6578 151.552 56.1431C153.286 62.6285 159.949 66.4802 166.434 64.7463Z" fill="#E1ECFB"/>
<path d="M165.291 39.6734L163.021 39.5342L161.379 66.3076L163.65 66.4468L165.291 39.6734Z" fill="#636464"/>
<path d="M176.298 54.9282L176.437 52.6572L150.261 51.0516L150.122 53.3226L176.298 54.9282Z" fill="#636464"/>
<path d="M165.976 9.99902L98.7352 62.57L106.459 63.049L165.497 17.3039L165.976 9.99902Z" fill="#A3AEBB"/>
<path d="M165.976 9.99902L226.271 70.3538L218.547 69.8748L165.497 17.3039L165.976 9.99902Z" fill="#A3AEBB"/>
<path d="M90.9513 62.0913L166.335 3.2334L165.736 13.8314L102.807 62.8098L90.9513 62.0913Z" fill="#A3AEBB"/>
<path d="M233.995 70.8332L166.335 3.2334L165.736 13.8314L222.139 70.1146L233.995 70.8332Z" fill="#A3AEBB"/>
<path d="M226.271 53.4688C227.528 54.9058 228.785 56.4625 229.983 57.9594C230.582 58.7378 231.18 59.4563 231.779 60.2347C232.378 61.0131 232.977 61.7316 233.575 62.51C234.773 64.0668 235.911 65.5637 237.048 67.1204C237.647 67.8988 238.186 68.6772 238.785 69.4556L240.461 71.7907L241 72.5092L240.102 72.6889C237.827 73.108 235.551 73.4673 233.216 73.8265C230.941 74.1858 228.606 74.4851 226.33 74.7845C228.546 74.1858 230.821 73.587 233.096 73.0481C235.372 72.5092 237.647 72.0302 239.922 71.5512L239.563 72.4494L237.827 70.1142C237.228 69.3358 236.689 68.5574 236.09 67.7791C234.953 66.2223 233.815 64.6655 232.737 63.0489C232.198 62.2705 231.659 61.4322 231.061 60.6538C230.522 59.8755 229.983 59.0372 229.444 58.2588C228.306 56.7619 227.288 55.1453 226.271 53.4688Z" fill="#D1D6DD"/>
<path d="M214.834 31.7939C214.834 31.7939 216.211 33.3507 218.127 35.8655C219.085 37.1229 220.163 38.5599 221.361 40.1167C221.96 40.8951 222.558 41.7333 223.157 42.5716C223.756 43.4098 224.355 44.2481 224.953 45.0864C225.552 45.9246 226.151 46.8228 226.75 47.661C227.348 48.4993 227.887 49.3376 228.426 50.1758C229.504 51.7925 230.522 53.2893 231.36 54.6066C233.037 57.2412 234.054 59.0374 234.054 59.0374C234.054 59.0374 232.677 57.4807 230.761 54.9659C229.803 53.7085 228.725 52.2715 227.528 50.7147C226.929 49.9363 226.33 49.098 225.732 48.2598C225.133 47.4215 224.534 46.5833 223.935 45.745C223.337 44.9067 222.738 44.0086 222.139 43.1703C221.54 42.3321 221.002 41.4938 220.463 40.6556C219.385 39.0389 218.367 37.542 217.529 36.2248C215.852 33.5902 214.834 31.7939 214.834 31.7939Z" fill="#D1D6DD"/>
<path d="M237.527 74.8447C237.527 74.8447 236.689 75.3237 235.372 75.8027C234.713 76.1021 233.935 76.3416 233.096 76.641C232.677 76.7608 232.258 76.9404 231.839 77.0601C231.42 77.1799 230.941 77.3595 230.522 77.4793C230.043 77.599 229.624 77.7188 229.204 77.8385C228.785 77.9583 228.306 78.078 227.887 78.1978C227.049 78.3774 226.211 78.557 225.552 78.6768C224.175 78.9163 223.217 78.9762 223.217 78.9762C223.217 78.9762 224.055 78.4972 225.372 78.0181C226.031 77.7188 226.809 77.4793 227.648 77.1799C228.067 77.0601 228.486 76.8805 228.905 76.7607C229.324 76.641 229.803 76.4614 230.222 76.3416C230.701 76.2219 231.121 76.1021 231.54 75.9824C231.959 75.8626 232.438 75.7429 232.857 75.683C233.695 75.5034 234.533 75.3237 235.192 75.204C236.569 74.9046 237.527 74.8447 237.527 74.8447Z" fill="#D1D6DD"/>
<path d="M159.509 1.19727C159.509 1.19727 158.91 1.73615 157.892 2.57441C156.815 3.47255 155.318 4.72994 153.521 6.22683C151.725 7.72372 149.57 9.46012 147.235 11.2564C146.097 12.1545 144.899 13.1125 143.642 14.0706C142.444 15.0286 141.187 15.9866 139.93 16.9446C138.672 17.9026 137.415 18.8606 136.217 19.7588C134.96 20.7168 133.762 21.6149 132.565 22.4532C130.17 24.1896 127.955 25.8062 126.038 27.1834C124.122 28.5605 122.506 29.6981 121.368 30.4765C120.231 31.2549 119.572 31.674 119.572 31.674C119.572 31.674 120.171 31.1352 121.189 30.2969C122.266 29.3988 123.763 28.1414 125.559 26.6445C127.356 25.1476 129.511 23.4112 131.846 21.6149C132.984 20.7168 134.182 19.7588 135.439 18.8007C136.636 17.8427 137.894 16.8847 139.151 15.9267C140.409 14.9687 141.666 14.0107 142.864 13.1125C144.121 12.2144 145.318 11.2564 146.516 10.4181C148.911 8.68174 151.126 7.06509 153.042 5.68795C154.958 4.31081 156.575 3.17317 157.713 2.39478C158.85 1.6164 159.509 1.19727 159.509 1.19727Z" fill="#D1D6DD"/>
<path d="M139.511 9.99902C139.511 9.99902 137.954 11.436 135.559 13.5317C134.361 14.5496 132.984 15.7471 131.427 17.0045C130.649 17.6032 129.871 18.2619 129.092 18.9205C128.254 19.5791 127.476 20.2378 126.637 20.8964C125.799 21.555 124.961 22.2137 124.182 22.8124C123.344 23.4711 122.566 24.0698 121.787 24.6686C120.231 25.8661 118.734 26.9439 117.416 27.842C114.842 29.6982 113.045 30.8358 113.045 30.8358C113.045 30.8358 114.602 29.3988 116.937 27.3031C118.135 26.2852 119.512 25.0877 121.069 23.8303C121.847 23.2316 122.626 22.5729 123.404 21.9143C124.242 21.2557 125.021 20.597 125.859 19.9384C126.697 19.2798 127.535 18.6211 128.314 18.0224C129.152 17.3637 129.93 16.765 130.709 16.1662C132.266 14.9687 133.762 13.8909 135.08 12.9928C137.774 11.1367 139.511 9.99902 139.511 9.99902Z" fill="#D1D6DD"/>
<path d="M42.2723 20.4178C39.7575 20.6573 37.3026 20.7172 34.7878 20.8369C33.5903 20.8968 32.3329 20.9567 31.0755 20.9567C29.8181 20.9567 28.5607 21.0165 27.3632 21.0165L27.8422 20.777C26.8842 22.1542 25.8663 23.5313 24.8484 24.9085C23.8305 26.2856 22.8127 27.6628 21.7948 29.0399C19.6991 31.7343 17.6035 34.4287 15.3881 37.0633C17.1245 34.1293 19.0405 31.2553 20.9565 28.4411C21.9145 27.064 22.8725 25.627 23.8904 24.2498C24.8484 22.8727 25.8663 21.4956 26.8842 20.1184L27.0638 19.8789H27.3632C28.6206 19.8789 29.878 19.9388 31.0755 19.9388C32.3329 19.9388 33.5903 19.9987 34.7878 20.0585C37.3026 20.1184 39.7575 20.1783 42.2723 20.4178Z" fill="#D1D6DD"/>
<path d="M23.2318 31.7939C23.2318 31.7939 22.5133 32.9915 21.3757 34.7279C20.7769 35.626 20.1183 36.584 19.3399 37.6618C18.9806 38.2007 18.5615 38.7395 18.1424 39.2784C17.7232 39.8173 17.3041 40.3562 16.885 40.9549C16.4659 41.4938 16.0467 42.0327 15.6276 42.5716C15.2085 43.1105 14.7893 43.6493 14.3702 44.1284C13.5319 45.1462 12.7536 46.0444 12.035 46.8228C10.6579 48.3795 9.64001 49.3375 9.64001 49.3375C9.64001 49.3375 10.2986 48.14 11.4962 46.4036C12.0949 45.5055 12.7536 44.5475 13.5319 43.4697C13.8912 42.9308 14.3103 42.392 14.7295 41.8531C15.1486 41.3142 15.5677 40.7753 15.9868 40.1766C16.406 39.6377 16.8251 39.0988 17.2442 38.5599C17.6634 38.021 18.0825 37.4821 18.5016 37.0031C19.3399 35.9852 20.1183 35.0871 20.8368 34.3087C22.2139 32.752 23.2318 31.7939 23.2318 31.7939Z" fill="#D1D6DD"/>
<path d="M38.1409 23.4113C38.1409 23.4113 39.039 23.1119 40.3563 22.8724C41.0149 22.7527 41.7933 22.573 42.6914 22.5132C43.5297 22.3934 44.4278 22.2737 45.326 22.2138C46.2241 22.1539 47.1222 22.094 48.0204 22.0342C48.8586 21.9743 49.6969 21.9743 50.3555 22.0342C51.7327 22.0342 52.6308 22.1539 52.6308 22.1539C52.6308 22.1539 51.7327 22.4533 50.4154 22.6928C49.7568 22.8126 48.9784 22.9922 48.0802 23.0521C47.242 23.1718 46.3439 23.2916 45.4457 23.3514C44.5476 23.4113 43.6494 23.4712 42.7513 23.5311C41.913 23.5909 41.0748 23.5909 40.4161 23.5311C39.039 23.5311 38.1409 23.4113 38.1409 23.4113Z" fill="#D1D6DD"/>
<path d="M3.4129 86.5205C3.4129 86.5205 3.47278 87.1193 3.59253 88.197C3.65241 89.2748 3.83203 90.8316 3.95179 92.6877C4.07154 94.5439 4.19129 96.6994 4.31104 99.0345C4.37092 100.172 4.43079 101.37 4.49067 102.627C4.55054 103.825 4.55054 105.082 4.61042 106.339C4.67029 107.597 4.6703 108.794 4.73017 110.052C4.79005 111.249 4.79005 112.447 4.79005 113.644C4.79005 115.979 4.79005 118.135 4.79005 119.991C4.79005 121.847 4.73017 123.404 4.6703 124.482C4.61042 125.56 4.61042 126.218 4.61042 126.218C4.61042 126.218 4.55054 125.619 4.43079 124.542C4.37092 123.464 4.19129 121.907 4.07154 120.051C3.95179 118.195 3.83203 116.039 3.71228 113.704C3.65241 112.566 3.59253 111.369 3.53266 110.112C3.47278 108.914 3.47278 107.657 3.4129 106.399C3.35303 105.142 3.35303 103.944 3.29315 102.687C3.23328 101.489 3.23328 100.292 3.23328 99.0944C3.23328 96.7593 3.23328 94.6037 3.23328 92.7476C3.23328 90.8914 3.29315 89.3347 3.35303 88.2569C3.35303 87.1193 3.4129 86.5205 3.4129 86.5205Z" fill="#D1D6DD"/>
<path d="M0.119752 109.932C0.119752 109.932 0.41913 111.668 0.718509 114.243C0.838261 115.56 1.01789 117.057 1.13764 118.673C1.19752 119.512 1.25739 120.35 1.31727 121.188C1.37714 122.027 1.43702 122.925 1.49689 123.763C1.55677 124.661 1.55677 125.499 1.61665 126.338C1.67652 127.176 1.67652 128.014 1.67652 128.852C1.7364 130.469 1.7364 132.026 1.7364 133.343C1.7364 135.978 1.61665 137.714 1.61665 137.714C1.61665 137.714 1.31727 135.978 1.01789 133.403C0.898137 132.086 0.718509 130.589 0.598758 128.972C0.538882 128.134 0.479006 127.296 0.41913 126.457C0.359255 125.619 0.299379 124.721 0.239503 123.883C0.179627 122.985 0.179627 122.146 0.119752 121.308C0.0598758 120.47 0.0598758 119.632 0.0598758 118.793C0 117.117 0 115.62 0 114.303C0 111.668 0.119752 109.932 0.119752 109.932Z" fill="#D1D6DD"/>
<path d="M224.355 91.3105C224.355 91.3105 224.355 91.9093 224.414 93.0469C224.414 94.1247 224.474 95.6815 224.414 97.5376C224.414 99.3938 224.355 101.549 224.295 103.884C224.235 105.022 224.235 106.22 224.175 107.477C224.115 108.675 224.055 109.932 224.055 111.189C223.995 112.447 223.935 113.644 223.876 114.902C223.816 116.099 223.756 117.297 223.696 118.494C223.576 120.829 223.397 122.985 223.217 124.841C223.097 126.697 222.918 128.254 222.798 129.332C222.678 130.409 222.618 131.008 222.618 131.008C222.618 131.008 222.618 130.409 222.558 129.272C222.558 128.194 222.498 126.637 222.558 124.781C222.558 122.925 222.618 120.769 222.678 118.434C222.738 117.297 222.738 116.099 222.798 114.842C222.858 113.644 222.918 112.387 222.918 111.129C222.977 109.872 223.037 108.675 223.097 107.417C223.157 106.22 223.217 105.022 223.337 103.825C223.456 101.489 223.636 99.3339 223.816 97.4778C223.935 95.6216 224.115 94.0648 224.235 92.9871C224.235 91.9093 224.355 91.3105 224.355 91.3105Z" fill="#D1D6DD"/>
<path d="M219.325 114.362C219.325 114.362 219.505 116.099 219.564 118.733C219.624 120.051 219.624 121.547 219.684 123.224C219.684 124.062 219.684 124.9 219.684 125.739C219.684 126.577 219.684 127.475 219.624 128.313C219.624 129.211 219.564 130.05 219.564 130.888C219.564 131.726 219.505 132.565 219.445 133.403C219.385 135.019 219.265 136.576 219.145 137.893C218.966 140.528 218.726 142.264 218.726 142.264C218.726 142.264 218.547 140.528 218.487 137.893C218.427 136.576 218.427 135.079 218.367 133.403C218.367 132.565 218.367 131.726 218.367 130.888C218.367 130.05 218.367 129.152 218.427 128.313C218.427 127.415 218.487 126.577 218.487 125.739C218.487 124.9 218.547 124.062 218.606 123.224C218.666 121.607 218.786 120.051 218.906 118.733C219.085 116.099 219.325 114.362 219.325 114.362Z" fill="#D1D6DD"/>
<path d="M101.13 16.4658L106.759 26.8842C106.16 20.2979 101.13 16.4658 101.13 16.4658Z" fill="#EDEFF1"/>
<path d="M111.189 28.441L124.422 7.84375C124.362 7.84375 113.824 16.2862 111.189 28.441Z" fill="#EDEFF1"/>
<path d="M109.333 23.4118C111.129 12.3946 106.759 3.95215 106.759 3.95215L109.333 23.4118Z" fill="#EDEFF1"/>
<path d="M99.6333 12.5742L101.01 13.3526L100.292 13.7717L101.01 14.7896L99.5734 16.4661L98.6154 15.2088L97.7772 15.9273V12.8736L99.6333 12.5742Z" fill="#23274D"/>
<path d="M104.483 1.85615L103.765 3.11354L104.962 3.9518L106.04 2.57466L107.118 3.41292L107.297 1.85615L105.142 0L104.483 1.85615Z" fill="#636464"/>
<path d="M125.38 5.08984L124.362 6.16761L125.2 6.94599L126.039 7.36512L126.697 6.28736L127.535 7.48487L127.655 5.50897L126.458 5.08984H125.38Z" fill="#23274D"/>
</g>
</svg>
