<svg width="82" height="82" viewBox="0 0 82 82" fill="none" xmlns="http://www.w3.org/2000/svg">
<rect width="82" height="82" rx="18.566" fill="#EAF2FF"/>
<path d="M54.1518 27.8491H29.3971C27.6952 27.8491 26.3182 29.2416 26.3182 30.9435L26.3027 49.5095C26.3027 51.2114 27.6952 52.6038 29.3971 52.6038H41.7744V49.5095H29.3971V34.0378L41.7744 41.7736L54.1518 34.0378V41.7736H57.2461V30.9435C57.2461 29.2416 55.8537 27.8491 54.1518 27.8491ZM41.7744 38.6793L29.3971 30.9435H54.1518L41.7744 38.6793ZM50.0363 55.6982L44.5593 50.2212L46.7408 48.0397L50.0208 51.3197L56.5808 44.7597L58.7933 46.9412L50.0363 55.6982Z" fill="#006FFD"/>
</svg>