<svg width="40" height="41" viewBox="0 0 40 41" fill="none" xmlns="http://www.w3.org/2000/svg">
<g clip-path="url(#clip0_16425_28497)">
<path fill-rule="evenodd" clip-rule="evenodd" d="M19.9984 35.6999C29.7186 35.6999 37.5984 27.8201 37.5984 18.0999C37.5984 8.37967 29.7186 0.499878 19.9984 0.499878C10.2782 0.499878 2.39844 8.37967 2.39844 18.0999C2.39844 22.6321 4.11157 26.7643 6.92562 29.884C7.3435 30.3473 7.5981 30.9404 7.5981 31.5643V37.5695C7.5981 39.2959 9.40279 40.4286 10.9575 39.6781L19.1854 35.706C19.1904 35.7036 19.1903 35.6964 19.1853 35.6941C19.1787 35.6911 19.181 35.6812 19.1882 35.6816C19.4568 35.6937 19.7269 35.6999 19.9984 35.6999Z" fill="#F2C94C"/>
<path fill-rule="evenodd" clip-rule="evenodd" d="M17.9961 18.9036C17.9961 19.8734 18.7824 20.6597 19.7522 20.6597H19.9049C20.8748 20.6597 21.661 19.8734 21.661 18.9036L21.661 11.0138C21.661 10.044 20.8748 9.25775 19.9049 9.25775H19.7522C18.7824 9.25775 17.9961 10.044 17.9961 11.0138V18.9036ZM19.8285 25.5462C20.8406 25.5462 21.661 24.7258 21.661 23.7138C21.661 22.7017 20.8406 21.8813 19.8285 21.8813C18.8165 21.8813 17.9961 22.7017 17.9961 23.7138C17.9961 24.7258 18.8165 25.5462 19.8285 25.5462Z" fill="white"/>
</g>
<defs>
<clipPath id="clip0_16425_28497">
<rect width="40" height="40" fill="white" transform="translate(0 0.5)"/>
</clipPath>
</defs>
</svg>
