<svg width="20" height="20" viewBox="0 0 20 20" fill="none" xmlns="http://www.w3.org/2000/svg">
<g clip-path="url(#clip0_6883_13329)">
<path d="M20 2.43542C19.2511 2.84181 18.4567 3.10856 17.6433 3.22681C18.4905 2.6048 19.1411 1.61982 19.4474 0.446234C18.642 1.03167 17.7608 1.44415 16.8419 1.66585C16.0934 0.689105 15.027 0.0786743 13.8468 0.0786743C11.5807 0.0786743 9.74344 2.32901 9.74344 5.10451C9.74344 5.49848 9.77977 5.88202 9.84969 6.24997C6.43953 6.0403 3.41609 4.03944 1.39227 0.998674C1.03914 1.74097 0.836797 2.60442 0.836797 3.52537C0.836797 5.2691 1.56125 6.80738 2.66219 7.70872C2.01059 7.68373 1.37332 7.46816 0.803594 7.08001C0.803359 7.10107 0.803359 7.12212 0.803359 7.14327C0.803359 9.57839 2.21773 11.6098 4.09477 12.0715C3.49054 12.2728 2.85674 12.3022 2.2418 12.1576C2.76391 14.1544 4.2793 15.6074 6.07477 15.6481C4.67047 16.996 2.90117 17.7995 0.978828 17.7995C0.647578 17.7995 0.321016 17.7757 0 17.7293C1.81586 19.1553 3.97266 19.9874 6.28984 19.9874C13.8373 19.9874 17.9644 12.3289 17.9644 5.68738C17.9644 5.46939 17.9605 5.25265 17.9525 5.03714C18.7558 4.32584 19.4492 3.44481 20 2.43542Z" fill="#55ACEE"/>
</g>
<defs>
<clipPath id="clip0_6883_13329">
<rect width="20" height="20" fill="white"/>
</clipPath>
</defs>
</svg>