<svg width="22" height="19" viewBox="0 0 22 19" fill="none" xmlns="http://www.w3.org/2000/svg">
<path d="M21 2.01001C20 2.50001 19.02 2.69901 18 3.00001C16.879 1.73501 15.217 1.66501 13.62 2.26301C12.023 2.86101 10.977 4.32301 11 6.00001V7.00001C7.755 7.08301 4.865 5.60501 3 3.00001C3 3.00001 -1.182 10.433 7 14C5.128 15.247 3.261 16.088 1 16C4.308 17.803 7.913 18.423 11.034 17.517C14.614 16.477 17.556 13.794 18.685 9.77501C19.0218 8.55268 19.189 7.28987 19.182 6.02201C19.18 5.77301 20.692 3.25001 21 2.00901V2.01001Z" stroke="white" stroke-width="2" stroke-linecap="round" stroke-linejoin="round"/>
</svg>
