<svg width="17" height="14" viewBox="0 0 17 14" fill="none" xmlns="http://www.w3.org/2000/svg">
<path d="M14.8238 3.92386C15.4368 3.46414 15.9884 2.91248 16.4175 2.26888C15.8658 2.51406 15.2222 2.69795 14.5786 2.75924C15.2529 2.36082 15.7432 1.74787 15.9884 0.981672C15.3755 1.34945 14.6706 1.62528 13.9657 1.77851C13.3527 1.13491 12.5252 0.767138 11.6058 0.767138C9.82821 0.767138 8.38776 2.20758 8.38776 3.98516C8.38776 4.23034 8.41841 4.47552 8.4797 4.7207C5.81335 4.56746 3.42282 3.28026 1.82913 1.34945C1.5533 1.80916 1.40006 2.36082 1.40006 2.97378C1.40006 4.0771 1.95172 5.05783 2.84051 5.64014C2.3195 5.60949 1.79849 5.4869 1.36942 5.24172V5.27236C1.36942 6.8354 2.47274 8.12261 3.94383 8.42909C3.69865 8.49038 3.39217 8.55168 3.11634 8.55168C2.90181 8.55168 2.71792 8.52103 2.50339 8.49038C2.90181 9.77759 4.09707 10.697 5.50687 10.7277C4.40355 11.5858 3.0244 12.1068 1.52266 12.1068C1.24683 12.1068 1.00164 12.0762 0.756461 12.0455C2.16626 12.965 3.85189 13.486 5.69076 13.486C11.6058 13.486 14.8238 8.61297 14.8238 4.35293C14.8238 4.19969 14.8238 4.0771 14.8238 3.92386Z" fill="#23274D"/>
</svg>