<?xml version="1.0" encoding="UTF-8" ?>
<!DOCTYPE svg PUBLIC "-//W3C//DTD SVG 1.1//EN" "http://www.w3.org/Graphics/SVG/1.1/DTD/svg11.dtd">
<svg width="71pt" height="71pt" viewBox="0 0 71 71" version="1.1" xmlns="http://www.w3.org/2000/svg">
<g id="#23274dff">
<path fill="#23274d" opacity="1.00" d=" M 35.46 1.60 C 37.17 0.83 38.88 1.96 40.36 2.73 C 48.50 7.23 56.60 11.81 64.78 16.26 C 66.54 17.12 68.06 18.88 67.86 20.95 C 67.86 30.64 67.93 40.33 67.83 50.02 C 67.99 52.11 66.30 53.64 64.59 54.49 C 56.17 59.13 47.78 63.83 39.37 68.49 C 37.84 69.46 35.88 69.54 34.35 68.52 C 25.99 63.93 17.68 59.25 9.33 54.65 C 7.59 53.74 5.64 52.31 5.79 50.09 C 5.67 40.73 5.80 31.36 5.73 21.99 C 5.56 19.79 6.34 17.32 8.56 16.46 C 17.54 11.53 26.42 6.40 35.46 1.60 M 16.40 17.85 C 13.07 16.96 8.77 19.62 10.71 23.35 C 10.81 32.13 10.71 40.90 10.76 49.68 C 18.59 54.12 26.50 58.42 34.35 62.83 C 34.16 64.37 34.95 66.81 36.92 66.33 C 38.77 66.47 39.61 64.35 39.35 62.81 C 47.16 58.43 54.98 54.05 62.86 49.77 C 62.93 40.95 62.80 32.12 62.92 23.29 C 65.04 19.61 60.73 16.94 57.44 17.87 C 50.50 14.19 43.72 10.22 36.81 6.50 C 30.00 10.27 23.19 14.03 16.40 17.85 Z" />
</g>
<g id="#006ffdff">
<path fill="#006ffd" opacity="1.00" d=" M 10.71 23.35 C 8.77 19.62 13.07 16.96 16.40 17.85 C 30.08 17.90 43.76 17.86 57.44 17.87 C 60.73 16.94 65.04 19.61 62.92 23.29 C 55.45 28.40 47.13 32.15 39.38 36.82 C 39.35 45.49 39.42 54.15 39.35 62.81 C 39.61 64.35 38.77 66.47 36.92 66.33 C 34.95 66.81 34.16 64.37 34.35 62.83 C 34.39 54.17 34.38 45.51 34.36 36.85 C 26.53 32.27 18.27 28.36 10.71 23.35 M 19.60 22.88 C 25.26 26.16 31.08 29.15 36.70 32.51 C 42.56 29.35 48.33 26.03 54.18 22.86 C 42.65 22.89 31.13 22.87 19.60 22.88 Z" />
</g>
</svg>