<svg width="16" height="17" viewBox="0 0 16 17" fill="none" xmlns="http://www.w3.org/2000/svg">
<g clip-path="url(#clip0_9696_54288)">
<path d="M15.8952 5.64566C15.8952 4.23941 14.8608 3.10816 13.5827 3.10816C11.8514 3.02722 10.0858 2.99597 8.28144 2.99597H7.71894C5.91894 2.99597 4.15019 3.02722 2.41894 3.10847C1.14394 3.10847 0.109565 4.24597 0.109565 5.65222C0.03144 6.76441 -0.00168497 7.87691 0.000190034 8.98941C-0.00293497 10.1019 0.0324817 11.2155 0.10644 12.33C0.10644 13.7363 1.14082 14.8769 2.41582 14.8769C4.23457 14.9613 6.10019 14.9988 7.99707 14.9957C9.89707 15.0019 11.7575 14.9623 13.5783 14.8769C14.8564 14.8769 15.8908 13.7363 15.8908 12.33C15.9658 11.2144 16.0002 10.1019 15.9971 8.98628C16.0041 7.87378 15.9702 6.76024 15.8952 5.64566ZM6.46894 12.055V5.91441L11.0002 8.98316L6.46894 12.055Z" fill="black"/>
</g>
<defs>
<clipPath id="clip0_9696_54288">
<rect width="16" height="16" fill="white" transform="translate(0 0.995972)"/>
</clipPath>
</defs>
</svg>